<svg width="400" height="324" viewBox="0 0 400 324" fill="none" xmlns="http://www.w3.org/2000/svg">
<g clip-path="url(#clip0_492_28450)">
<mask id="mask0_492_28450" style="mask-type:alpha" maskUnits="userSpaceOnUse" x="-1100" y="-337" width="1908" height="669">
<path d="M807.9 -336.217L-1099.38 -336.217L-1099.38 332L807.9 332L807.9 -336.217Z" fill="#0C0C0E"/>
</mask>
<g mask="url(#mask0_492_28450)">
<path d="M-1099.38 -297.217L805.915 -297.217L805.915 334.491L-1099.38 334.491L-1099.38 -297.217Z" fill="#377EBE"/>
<path d="M-277.292 -143.657L318.66 -496.756L914.603 -143.657L318.66 209.442L-277.292 -143.657Z" fill="url(#paint0_radial_492_28450)"/>
<path d="M-200.843 0.733582L395.11 -352.366L991.052 0.733582L395.11 353.833L-200.843 0.733582Z" fill="url(#paint1_radial_492_28450)"/>
<g opacity="0.9" filter="url(#filter0_f_492_28450)">
<path d="M-34.3278 -24.2653C207.081 -140.567 508.59 -126.383 639.109 7.41646C769.627 141.216 679.736 343.963 438.329 460.265C196.921 576.568 -104.588 562.383 -235.108 428.584C-365.628 294.784 -275.736 92.0366 -34.3278 -24.2653Z" fill="url(#paint2_linear_492_28450)"/>
</g>
<path d="M2295.95 -961.531L-514.027 703.379L-3175.19 -873.363L-365.218 -2538.27L2295.95 -961.531Z" fill="url(#paint3_radial_492_28450)"/>
<path d="M-859.908 338.274L-366.041 45.6577L127.823 338.274L-366.041 630.889L-859.908 338.274Z" fill="url(#paint4_radial_492_28450)"/>
<path d="M-2790.23 -1204.19L19.7512 460.722L2680.92 -1116.02L-129.059 -2780.93L-2790.23 -1204.19Z" fill="url(#paint5_radial_492_28450)"/>
<g opacity="0.55" filter="url(#filter1_f_492_28450)">
<path opacity="0.9" d="M-101.751 -322.313C214.372 -451.839 609.197 -436.042 780.109 -287.028C951.022 -138.015 833.309 87.7866 517.191 217.313C201.067 346.839 -193.755 331.042 -364.671 182.028C-535.586 33.0151 -417.873 -192.786 -101.751 -322.313Z" fill="url(#paint6_linear_492_28450)"/>
</g>
</g>
</g>
<defs>
<filter id="filter0_f_492_28450" x="-445" y="-253" width="1294" height="942" filterUnits="userSpaceOnUse" color-interpolation-filters="sRGB">
<feFlood flood-opacity="0" result="BackgroundImageFix"/>
<feBlend mode="normal" in="SourceGraphic" in2="BackgroundImageFix" result="shape"/>
<feGaussianBlur stdDeviation="75" result="effect1_foregroundBlur_492_28450"/>
</filter>
<filter id="filter1_f_492_28450" x="-618.1" y="-585" width="1651.64" height="1065" filterUnits="userSpaceOnUse" color-interpolation-filters="sRGB">
<feFlood flood-opacity="0" result="BackgroundImageFix"/>
<feBlend mode="normal" in="SourceGraphic" in2="BackgroundImageFix" result="shape"/>
<feGaussianBlur stdDeviation="87.5" result="effect1_foregroundBlur_492_28450"/>
</filter>
<radialGradient id="paint0_radial_492_28450" cx="0" cy="0" r="1" gradientUnits="userSpaceOnUse" gradientTransform="translate(319.008 277.869) rotate(-90) scale(729.045 1599.31)">
<stop stop-color="#8BC2F7" stop-opacity="0.9"/>
<stop offset="1" stop-color="#9857CB" stop-opacity="0"/>
</radialGradient>
<radialGradient id="paint1_radial_492_28450" cx="0" cy="0" r="1" gradientUnits="userSpaceOnUse" gradientTransform="translate(395.457 422.26) rotate(-90) scale(729.045 1599.31)">
<stop stop-color="#8CDEFF"/>
<stop offset="1" stop-color="#9857CB" stop-opacity="0"/>
</radialGradient>
<linearGradient id="paint2_linear_492_28450" x1="402.78" y1="-234.849" x2="359.377" y2="687.701" gradientUnits="userSpaceOnUse">
<stop offset="0.193034" stop-color="#6F5FC8"/>
<stop offset="0.255433" stop-color="#282C85"/>
</linearGradient>
<radialGradient id="paint3_radial_492_28450" cx="0" cy="0" r="1" gradientUnits="userSpaceOnUse" gradientTransform="translate(-494.412 -986.288) rotate(39.7512) scale(2094.09 2204.39)">
<stop stop-color="white" stop-opacity="0"/>
<stop offset="0.520833" stop-color="#887AE0" stop-opacity="0.1"/>
<stop offset="1" stop-color="#8CDEFF"/>
</radialGradient>
<radialGradient id="paint4_radial_492_28450" cx="0" cy="0" r="1" gradientUnits="userSpaceOnUse" gradientTransform="translate(-365.75 687.596) rotate(-90) scale(604.164 1325.37)">
<stop stop-color="#8989E5" stop-opacity="0.88"/>
<stop offset="1" stop-color="#8989E5" stop-opacity="0"/>
</radialGradient>
<radialGradient id="paint5_radial_492_28450" cx="0" cy="0" r="1" gradientUnits="userSpaceOnUse" gradientTransform="translate(0.132045 -1228.94) rotate(140.249) scale(2094.09 2204.39)">
<stop stop-color="white" stop-opacity="0"/>
<stop offset="0.520833" stop-color="#8869DB" stop-opacity="0.1"/>
<stop offset="1" stop-color="#8CDDFF" stop-opacity="0.18"/>
</radialGradient>
<linearGradient id="paint6_linear_492_28450" x1="140.106" y1="31.0543" x2="-360.139" y2="430.313" gradientUnits="userSpaceOnUse">
<stop offset="0.224916" stop-color="#844FBA"/>
<stop offset="0.505921" stop-color="#8CDCFF"/>
<stop offset="0.816967" stop-color="#717BD6"/>
</linearGradient>
<clipPath id="clip0_492_28450">
<rect width="400" height="324" fill="white"/>
</clipPath>
</defs>
</svg>
