<svg width="194" height="83" viewBox="0 0 194 83" fill="none" xmlns="http://www.w3.org/2000/svg"><path d="M18.735 15.406H6.648V2.094H.453v32.31h6.195V20.79h12.087v13.612h6.195V2.093h-6.195v13.313ZM42.456 32.909l.453 1.645h4.835V18.848c0-5.983-2.266-8.526-9.67-8.526-2.72 0-5.892.449-8.158 1.047l.755 4.488c2.115-.449 4.533-.748 6.648-.748 3.777 0 4.533.897 4.533 3.59v2.543H36.11c-4.835 0-6.95 1.795-6.95 6.73 0 4.04 1.813 7.031 6.195 7.031 2.417 0 4.986-.748 7.101-2.094Zm-4.986-7.33h4.382v3.44c-1.058.6-2.72 1.198-4.533 1.198-1.813 0-2.417-.748-2.417-2.394 0-1.795.604-2.244 2.568-2.244ZM59.379 30.066c-2.418 0-5.137-.449-7.101-1.047l-.907 4.487c2.266.748 5.741 1.347 8.31 1.347 7.252 0 8.612-2.842 8.612-7.33 0-4.786-.604-5.684-7.252-7.479-3.173-.897-3.324-.897-3.324-2.842 0-1.496.453-2.094 3.022-2.094 1.813 0 4.835.3 6.648.748l.604-4.787c-2.115-.598-4.986-.897-7.101-.897-6.8 0-8.915 2.094-8.915 6.88 0 4.638.756 5.984 6.497 7.48 3.929.897 4.23 1.645 4.23 3.14-.301 1.796-.603 2.394-3.323 2.394ZM86.423 17.95v16.453h6.044V17.351c0-4.188-1.36-7.03-5.44-7.03-2.568 0-6.043.897-8.763 2.243V.3l-6.043.897v33.357h6.043V18.099c2.116-1.047 4.835-1.945 6.195-1.945 1.36-.15 1.964.45 1.964 1.795ZM103.044 10.77H97v23.633h6.044V10.77ZM103.044.598H97v6.88h6.044V.598ZM119.362 7.179c2.266 0 5.288.3 8.008.897l.755-5.235c-2.871-.897-6.043-1.196-9.065-1.196-8.159 0-11.634 3.44-11.634 9.423v14.51c0 5.983 3.475 9.423 11.634 9.423 3.022 0 6.194-.449 8.914-1.047l-.604-5.385c-2.72.449-5.742.898-8.008.898-4.231 0-5.59-1.496-5.59-4.937V12.115c-.152-3.44 1.208-4.936 5.59-4.936ZM140.514 10.322c-8.159 0-10.425 4.488-10.425 9.274v5.983c0 4.787 2.266 9.274 10.425 9.274s10.425-4.487 10.425-9.274v-5.983c0-4.786-2.266-9.274-10.425-9.274Zm4.382 15.557c0 2.692-1.209 4.038-4.382 4.038-3.173 0-4.382-1.346-4.382-4.038v-6.432c0-2.693 1.209-4.039 4.382-4.039 3.173 0 4.382 1.346 4.382 4.039v6.432ZM169.523 10.322c-2.871 0-6.648 1.047-9.519 2.543l-.604-1.944h-4.533v23.633h6.044V18.1c2.115-1.047 4.835-1.944 6.195-1.944 1.359 0 1.964.598 1.964 1.944v16.454h6.043V17.352c-.302-4.337-1.662-7.03-5.59-7.03ZM189.921 4.936c.906 0 2.266.15 3.475.449L194 .748A18.494 18.494 0 0 0 188.863 0c-5.288 0-7.554 2.393-7.554 7.33v3.29h-3.778v4.787h3.778v18.997h6.043V15.556h5.742l.302-4.786h-6.044V7.778c-.151-1.795.151-2.842 2.569-2.842ZM25.836 81.521h2.87V48.613l-2.87.3V81.52ZM42.759 57.889c-6.497 0-9.066 3.59-9.066 8.376v7.18c0 4.787 2.418 8.377 9.066 8.377 6.497 0 9.065-3.59 9.065-8.377v-7.18c0-4.637-2.568-8.376-9.065-8.376Zm6.194 15.706c0 3.889-1.964 5.833-6.194 5.833-4.382 0-6.195-1.944-6.195-5.833v-7.48c0-3.888 1.964-5.833 6.195-5.833 4.381 0 6.194 1.945 6.194 5.834v7.479ZM67.235 57.887c-3.173 0-5.742.748-7.706 1.795V48.613l-2.72.449v32.16c2.116.449 5.742.897 7.857.897 7.102 0 9.368-2.991 9.368-8.077v-9.124c-.151-4.338-2.115-7.03-6.8-7.03Zm3.928 16.005c0 3.44-1.209 5.535-6.195 5.535-1.662 0-3.475-.15-5.288-.449V62.524c2.267-1.196 4.382-1.944 7.253-1.944 3.021 0 4.23 1.346 4.23 4.038v9.274ZM86.272 57.889c-2.417 0-5.288.448-7.1.897l.453 2.393a34.107 34.107 0 0 1 6.95-.748c3.777 0 5.439 1.048 5.439 4.189v4.487h-6.95c-4.533 0-6.8 1.496-6.8 6.432 0 4.188 1.965 6.432 6.044 6.432 3.022 0 5.59-.897 7.857-2.244l.151 1.795h2.418V64.62c0-4.338-2.418-6.731-8.462-6.731Zm5.742 19.295c-2.115 1.496-4.835 2.394-7.101 2.394-3.324 0-3.778-1.197-3.778-3.89 0-2.99.907-4.038 4.23-4.038h6.8v5.534h-.151ZM100.475 81.521h2.719V48.613l-2.719.3V81.52ZM12.087 69.705h4.986v8.975c-1.964.449-4.684.748-6.648.748-6.043 0-7.554-2.094-7.554-6.731v-14.06c0-4.788 1.813-6.732 7.856-6.732 2.72 0 5.742.3 8.462.748l.302-2.393c-2.569-.45-6.195-.748-8.915-.748C2.871 49.512 0 52.802 0 58.636v14.06c0 5.834 2.417 9.125 10.123 9.125 3.173 0 6.8-.449 9.67-1.346V66.713h-7.706v2.992Z" fill="#fff"/></svg>