<svg width="148" height="140" viewBox="0 0 148 140" fill="none" xmlns="http://www.w3.org/2000/svg"><path d="M123.335 93.834 69.225.062 69.19 0h9.618l44.527 77.166L148 34.416v16.668L123.441 93.65l-.106.184Zm0 28.497L52.782.061 52.746 0h9.614l60.975 105.668L148 62.918V79.58l-24.559 42.566-.106.184Zm0-56.999L85.67.062 85.635 0h9.614l28.086 48.669L148 5.919v16.663L123.441 65.15l-.106.183ZM78.809 171h-9.614L0 51.08V34.415l78.774 136.522.035.062Zm-16.444 0H52.75L0 79.58V62.918l62.33 108.021.035.062Zm32.853-.062.036.062h-9.615L0 22.582V5.92l95.218 165.019ZM45.92 171h-9.614L0 108.083V91.419l45.885 79.52.035.061Zm-16.444 0h-9.614L0 136.58v-16.664l29.44 51.023.036.061Zm-16.445 0H3.417L0 165.081v-16.663l12.996 22.521.035.061Z" fill="#FFD814"/></svg>