<svg width="453" height="528" viewBox="0 0 453 528" fill="none" xmlns="http://www.w3.org/2000/svg">
<path d="M371.938 338.258L452.058 292L452.058 478.386L371.938 524.644L371.938 338.258Z" fill="url(#paint0_linear_46_11687)" fill-opacity="0.6"/>
<path d="M371.938 338.258L291.818 292L291.818 481.742L371.938 528L371.938 338.258Z" fill="url(#paint1_linear_46_11687)" fill-opacity="0.6"/>
<path d="M240.855 223.92L337.712 168L337.712 393.318L240.855 449.238L240.855 223.92Z" fill="url(#paint2_linear_46_11687)" fill-opacity="0.6"/>
<path d="M240.856 223.92L144 168L144 397.376L240.856 453.296L240.856 223.92Z" fill="url(#paint3_linear_46_11687)" fill-opacity="0.6"/>
<path d="M316.8 176.51L316.8 176.51L316.716 176.559L246.635 217.015C243.966 218.555 243.105 219.024 242.261 219.25C241.012 219.585 239.698 219.585 238.45 219.25C237.605 219.024 236.744 218.555 234.076 217.015L163.91 176.51C161.241 174.97 160.405 174.458 159.786 173.84C158.872 172.926 158.215 171.788 157.88 170.539C157.654 169.694 157.629 168.714 157.629 165.632V25.7722C157.629 23.7127 157.631 22.3199 157.705 21.239C157.777 20.1853 157.907 19.6513 158.058 19.2863C158.63 17.9067 159.726 16.8106 161.105 16.2391C161.47 16.088 162.004 15.9578 163.058 15.8859C164.139 15.8122 165.532 15.8105 167.591 15.8105H313.119C315.179 15.8105 316.572 15.8122 317.652 15.8859C318.706 15.9578 319.24 16.088 319.605 16.2391C320.985 16.8106 322.081 17.9067 322.652 19.2863C322.803 19.6513 322.934 20.1853 323.005 21.239C323.079 22.3199 323.081 23.7127 323.081 25.7723V165.632C323.081 168.714 323.056 169.694 322.83 170.539C322.495 171.788 321.838 172.926 320.924 173.84C320.306 174.458 319.469 174.97 316.8 176.51Z" fill="black" stroke="black" stroke-width="6.06366"/>
<g opacity="0.94">
<path d="M216.974 130.631C218.71 130.631 219.875 129.082 219.875 126.91C219.875 124.737 218.721 123.178 216.995 123.178C215.259 123.178 214.105 124.737 214.105 126.93C214.105 129.093 215.249 130.631 216.974 130.631ZM217.006 129.644C215.925 129.644 215.259 128.521 215.259 126.858C215.259 125.246 215.893 124.176 216.964 124.176C218.045 124.176 218.731 125.33 218.731 126.951C218.731 128.531 218.066 129.644 217.006 129.644Z" fill="white"/>
<path d="M223.532 130.631C225.268 130.631 226.432 129.082 226.432 126.91C226.432 124.737 225.278 123.178 223.553 123.178C221.817 123.178 220.663 124.737 220.663 126.93C220.663 129.093 221.807 130.631 223.532 130.631ZM223.563 129.644C222.482 129.644 221.817 128.521 221.817 126.858C221.817 125.246 222.451 124.176 223.522 124.176C224.603 124.176 225.289 125.33 225.289 126.951C225.289 128.531 224.624 129.644 223.563 129.644Z" fill="white"/>
<path d="M227.179 130.548H232.158V129.488H228.77L229.851 128.531C231.057 127.461 232.106 126.712 232.106 125.423C232.106 124.134 231.077 123.178 229.684 123.178C228.198 123.178 227.158 124.134 227.096 125.558H228.292C228.385 124.758 228.926 124.238 229.674 124.238C230.443 124.238 230.953 124.727 230.953 125.475C230.953 126.328 230.152 126.878 228.832 128.012L227.179 129.436V130.548Z" fill="white"/>
</g>
<g opacity="0.94">
<path d="M175.705 130.548H176.547V127.201H180.341V130.548H181.183V123.271H180.341V126.473H176.547V123.271H175.705V130.548Z" fill="#AC72F0"/>
<path d="M185.925 130.61C187.609 130.61 188.763 129.529 189.002 128.136H188.129C187.931 129.03 187.089 129.799 185.935 129.799C184.511 129.799 183.524 128.625 183.524 126.962C183.524 125.236 184.522 123.999 185.977 123.999C187.1 123.999 187.921 124.758 188.129 125.662H189.002C188.784 124.269 187.63 123.209 185.987 123.209C184.033 123.209 182.63 124.737 182.63 126.951C182.63 129.103 184.044 130.61 185.925 130.61Z" fill="#AC72F0"/>
<path d="M191.909 130.548H192.709V124.03H195.308V123.271H189.3V124.03H191.909V130.548Z" fill="#AC72F0"/>
<path d="M195.741 130.548L196.469 128.583H199.598L200.346 130.548H201.261L198.465 123.271H197.602L194.827 130.537L195.741 130.548ZM196.729 127.804L198.039 124.217L199.348 127.804H196.729Z" fill="#AC72F0"/>
<path d="M204.843 130.652C206.517 130.652 207.588 129.176 207.588 126.951C207.588 124.716 206.527 123.23 204.864 123.23C203.201 123.23 202.13 124.716 202.13 126.951C202.13 129.176 203.191 130.652 204.843 130.652ZM204.864 129.914C203.669 129.914 202.931 128.75 202.931 126.92C202.931 125.132 203.658 123.968 204.833 123.968C206.039 123.968 206.787 125.153 206.787 126.962C206.787 128.75 206.049 129.914 204.864 129.914Z" fill="#AC72F0"/>
<path d="M209.104 127.481H212.743V126.878H209.104V127.481Z" fill="#AC72F0"/>
</g>
<path d="M308.4 80.3954L310.11 84.1044L314.166 84.5853L311.168 87.3585L311.964 91.3647L308.4 89.3696L304.835 91.3647L305.631 87.3585L302.633 84.5853L306.689 84.1044L308.4 80.3954Z" fill="white"/>
<path d="M308.4 97.0254L310.11 100.734L314.166 101.215L311.168 103.988L311.964 107.995L308.4 106L304.835 107.995L305.631 103.988L302.633 101.215L306.689 100.734L308.4 97.0254Z" fill="black"/>
<path d="M308.4 113.654L310.11 117.363L314.166 117.844L311.168 120.617L311.964 124.624L308.4 122.629L304.835 124.624L305.631 120.617L302.633 117.844L306.689 117.363L308.4 113.654Z" fill="black"/>
<path opacity="0.95" d="M180.765 92.4268C183.165 92.4268 184.932 91.0573 185.566 89.3343L184.446 89.0398C183.931 90.3357 182.591 91.3223 180.75 91.3223C178.247 91.3223 176.597 89.3638 176.597 87.0371C176.597 84.7692 178.247 82.8401 180.75 82.8401C182.591 82.8401 183.946 83.8415 184.446 85.1227L185.595 84.8429C184.976 83.1199 183.18 81.7357 180.75 81.7357C177.717 81.7357 175.419 84.0477 175.419 87.0518C175.419 90.1001 177.717 92.4268 180.765 92.4268ZM195.025 83.0021V81.9271H187.765V92.2354H195.011V91.1604H188.929V87.5083H194.274V86.4775H188.929V83.0021H195.025ZM204.259 92.2354H205.614L202.846 88.1268C204.524 87.8175 205.423 86.448 205.423 85.0638C205.423 83.5617 204.274 81.9271 202.153 81.9271H197.382V92.2354H198.546V88.1857H201.564L204.259 92.2354ZM198.546 82.9874H202.124C203.464 82.9874 204.289 83.9888 204.289 85.0638C204.289 86.1535 203.479 87.1401 202.109 87.1401H198.546V82.9874ZM215.683 81.9271H206.892V83.0021H210.706V92.2354H211.884V83.0021H215.683V81.9271ZM217.45 92.2354H218.628V81.9271H217.45V92.2354ZM228.428 83.0021V81.9271H221.286V92.2354H222.464V87.6556H227.677V86.61H222.464V83.0021H228.428ZM230.255 92.2354H231.433V81.9271H230.255V92.2354ZM241.351 83.0021V81.9271H234.091V92.2354H241.336V91.1604H235.254V87.5083H240.6V86.4775H235.254V83.0021H241.351ZM247.625 81.9271H243.708V92.2354H247.625C250.82 92.2354 252.691 90.0412 252.691 87.0812C252.691 84.1213 250.82 81.9271 247.625 81.9271ZM247.61 91.1604H244.871V82.9874H247.61C250.128 82.9874 251.513 84.784 251.513 87.0518C251.513 89.3932 250.128 91.1604 247.61 91.1604ZM183.283 112.235H185.389L181.428 101.927H178.806L174.86 112.235H176.951L177.805 109.997H182.444L183.283 112.235ZM178.468 108.215L180.117 103.856L181.766 108.215H178.468ZM190.651 112.442C193.125 112.442 194.774 111.013 194.774 109.246C194.774 107.567 193.581 106.905 192.005 106.419L189.443 105.594C188.766 105.388 188.456 105.078 188.456 104.622C188.456 104.018 189.104 103.503 190.12 103.503C191.284 103.503 192.241 104.077 192.668 104.917L194.538 104.372C193.979 102.943 192.329 101.721 190.106 101.721C187.956 101.721 186.395 103.076 186.41 104.681C186.395 106.006 187.381 106.875 188.736 107.302L191.372 108.127C192.359 108.451 192.727 108.819 192.727 109.364C192.727 110.041 191.976 110.66 190.768 110.66C189.281 110.66 188.236 109.806 187.823 108.731L185.894 109.32C186.468 110.925 188.132 112.442 190.651 112.442ZM200.742 112.442C203.216 112.442 204.865 111.013 204.865 109.246C204.865 107.567 203.672 106.905 202.097 106.419L199.534 105.594C198.857 105.388 198.548 105.078 198.548 104.622C198.548 104.018 199.196 103.503 200.212 103.503C201.375 103.503 202.332 104.077 202.759 104.917L204.63 104.372C204.07 102.943 202.421 101.721 200.197 101.721C198.047 101.721 196.486 103.076 196.501 104.681C196.486 106.006 197.473 106.875 198.828 107.302L201.464 108.127C202.45 108.451 202.818 108.819 202.818 109.364C202.818 110.041 202.067 110.66 200.86 110.66C199.372 110.66 198.327 109.806 197.915 108.731L195.985 109.32C196.56 110.925 198.224 112.442 200.742 112.442ZM211.599 112.442C214.707 112.442 217.004 110.115 217.004 107.067C217.004 104.033 214.707 101.721 211.599 101.721C208.478 101.721 206.18 104.033 206.18 107.067C206.18 110.115 208.478 112.442 211.599 112.442ZM211.599 110.571C209.553 110.571 208.227 109.04 208.227 107.067C208.227 105.137 209.553 103.591 211.599 103.591C213.632 103.591 214.972 105.137 214.972 107.067C214.972 109.04 213.632 110.571 211.599 110.571ZM223.92 112.442C226.644 112.442 228.382 110.777 228.853 109.128L226.894 108.627C226.556 109.644 225.451 110.542 223.89 110.542C221.858 110.542 220.562 108.907 220.562 107.052C220.562 105.196 221.858 103.621 223.89 103.621C225.451 103.621 226.556 104.548 226.894 105.55L228.868 105.064C228.397 103.429 226.659 101.721 223.876 101.721C220.813 101.721 218.501 104.033 218.501 107.067C218.501 110.115 220.813 112.442 223.92 112.442ZM230.716 112.235H232.763V101.927H230.716V112.235ZM242.638 112.235H244.743L240.782 101.927H238.161L234.214 112.235H236.305L237.159 109.997H241.798L242.638 112.235ZM237.822 108.215L239.471 103.856L241.121 108.215H237.822ZM253.133 101.927H244.194V103.753H247.655V112.235H249.672V103.753H253.133V101.927ZM262.347 103.753V101.927H254.749V112.235H262.333V110.409H256.722V107.876H261.596V106.109H256.722V103.753H262.347Z" fill="white"/>
<path fill-rule="evenodd" clip-rule="evenodd" d="M325.285 60V25.9936C325.285 21.9574 325.285 19.9393 324.625 18.3474C323.746 16.2249 322.06 14.5386 319.937 13.6594C318.345 13 316.327 13 312.291 13H166.763C162.727 13 160.709 13 159.117 13.6594C156.994 14.5386 155.308 16.2249 154.429 18.3474C153.77 19.9393 153.77 21.9574 153.77 25.9936V60H325.285Z" fill="#7B42BC"/>
<g clip-path="url(#clip0_46_11687)">
<path d="M209.692 35.055H205.705V32.6736H216.379V35.055H212.392V46.9618H209.692V35.055Z" fill="white"/>
<path d="M219.199 45.0234C220.281 45.0183 221.356 44.8523 222.389 44.5308L222.796 46.5011C221.562 46.9466 220.26 47.1721 218.948 47.1674C215.67 47.1674 214.532 45.6436 214.532 43.1346V40.3705C214.532 38.1628 215.517 36.2988 218.863 36.2988C222.208 36.2988 222.959 38.2479 222.959 40.4981V42.7306H217.176V43.2657C217.176 44.5308 217.612 45.0234 219.199 45.0234ZM217.176 40.6292H220.5V40.1118C220.5 39.1267 220.199 38.4428 218.912 38.4428C217.626 38.4428 217.176 39.1267 217.176 40.1118V40.6292Z" fill="white"/>
<path d="M229.962 38.6979C229.001 39.1324 228.075 39.6419 227.194 40.2217V46.9618H224.579V36.5114H226.787L226.96 37.6702C227.81 37.0935 228.732 36.6323 229.703 36.2988L229.962 38.6979Z" fill="white"/>
<path d="M236.348 38.6979C235.388 39.1332 234.464 39.6426 233.584 40.2217V46.9618H230.969V36.5114H233.176L233.347 37.6702C234.197 37.0935 235.121 36.6323 236.093 36.2988L236.348 38.6979Z" fill="white"/>
<path d="M245.094 46.9618H242.95L242.759 46.2531C241.833 46.8533 240.754 47.1732 239.651 47.1744C237.741 47.1744 236.926 45.8668 236.926 44.0666C236.926 41.9404 237.851 41.1289 239.97 41.1289H242.479V40.0268C242.479 38.8716 242.16 38.464 240.487 38.464C239.514 38.4742 238.544 38.581 237.592 38.783L237.27 36.7914C238.435 36.4685 239.639 36.3029 240.849 36.2988C244.13 36.2988 245.101 37.4541 245.101 40.0693L245.094 46.9618ZM242.479 43.0071H240.565C239.708 43.0071 239.47 43.2445 239.47 44.0383C239.47 44.747 239.708 45.1014 240.533 45.1014C241.224 45.0903 241.902 44.9064 242.504 44.5663L242.479 43.0071Z" fill="white"/>
<path d="M253.135 34.1336C252.641 34.0252 252.138 33.9671 251.632 33.96C250.604 33.96 250.456 34.41 250.456 35.2038V36.5114H253.113L252.968 38.5916H250.463V46.9618H247.847V38.5916H246.175V36.5114H247.847V35.055C247.847 32.8898 248.854 31.816 251.168 31.816C251.928 31.8132 252.685 31.9146 253.418 32.1173L253.135 34.1336Z" fill="white"/>
<path d="M258.234 47.1674C254.655 47.1674 253.677 45.19 253.677 43.0638V40.4131C253.677 38.2868 254.641 36.2988 258.22 36.2988C261.799 36.2988 262.766 38.2691 262.766 40.4131V43.0638C262.781 45.19 261.827 47.1674 258.234 47.1674ZM258.234 38.5278C256.841 38.5278 256.306 39.148 256.306 40.328V43.1346C256.306 44.3147 256.841 44.9384 258.234 44.9384C259.627 44.9384 260.165 44.3147 260.165 43.1346V40.328C260.165 39.1657 259.63 38.5278 258.234 38.5278Z" fill="white"/>
<path d="M269.51 38.6979C268.551 39.1332 267.626 39.6426 266.746 40.2217V46.9618H264.131V36.5114H266.339L266.509 37.6702C267.364 37.0931 268.292 36.6319 269.269 36.2988L269.51 38.6979Z" fill="white"/>
<path d="M276.71 46.9618V39.6618C276.71 39.1054 276.472 38.8255 275.874 38.8255C275.275 38.8255 274.102 39.2117 273.152 39.7079V46.9618H270.533V36.5114H272.528L272.787 37.3903C274.089 36.7405 275.512 36.3688 276.965 36.2988C277.975 36.2988 278.595 36.7064 278.939 37.4116C280.244 36.7452 281.677 36.3658 283.142 36.2988C284.878 36.2988 285.498 37.5179 285.498 39.3854V46.9618H282.883V39.6618C282.883 39.1054 282.646 38.8255 282.047 38.8255C281.088 38.9257 280.16 39.2263 279.325 39.7079V46.9618H276.71Z" fill="white"/>
<path fill-rule="evenodd" clip-rule="evenodd" d="M182.313 30.1257L189.082 34.0344V41.8518L182.313 37.9431V30.1257Z" fill="white"/>
<path fill-rule="evenodd" clip-rule="evenodd" d="M189.823 34.0344V41.8518L196.595 37.9431V30.1257L189.823 34.0344Z" fill="white"/>
<path fill-rule="evenodd" clip-rule="evenodd" d="M174.801 25.7634V33.5808L181.569 37.4895V29.6721L174.801 25.7634Z" fill="white"/>
<path fill-rule="evenodd" clip-rule="evenodd" d="M182.313 46.6181L189.082 50.5268V42.759V42.7094L182.313 38.8007V46.6181Z" fill="white"/>
</g>
<g opacity="0.95">
<path d="M237.988 180.606L228.079 186.321V186.325V200.052L231.801 202.201V188.47L237.988 184.899V180.606Z" fill="white"/>
<path d="M241.943 180.606V191.54H237.988V187.46L234.264 189.609V203.618L237.988 205.772V194.868H241.943V198.922L245.665 196.773V182.755L241.943 180.606Z" fill="white"/>
<path d="M241.943 205.776L251.852 200.061V200.056V186.33L248.128 184.181V197.912L241.943 201.482V205.776Z" fill="white"/>
</g>
<path d="M86.5 292.147L167 258L167 445.591L86.5 479.739L86.5 292.147Z" fill="url(#paint4_linear_46_11687)" fill-opacity="0.6"/>
<path d="M86.5 292.147L5.99983 258L5.99982 458.069L86.5 492.217L86.5 292.147Z" fill="url(#paint5_linear_46_11687)" fill-opacity="0.6"/>
<g clip-path="url(#clip1_46_11687)" filter="url(#filter0_d_46_11687)">
<path d="M164.381 119.894V251.013C164.381 253.903 164.358 254.821 164.146 255.613L166.891 256.349L164.146 255.613C163.832 256.784 163.216 257.851 162.359 258.708C161.779 259.288 160.995 259.767 158.492 261.211L92.7125 299.184C90.2106 300.629 89.4037 301.068 88.6118 301.28C87.4415 301.594 86.2093 301.594 85.039 301.28C84.2471 301.068 83.4402 300.629 80.9383 299.184L15.1584 261.211C12.656 259.767 11.8719 259.288 11.2921 258.708C10.4352 257.851 9.81896 256.784 9.50531 255.613L6.75983 256.349L9.50531 255.613C9.29307 254.821 9.27008 253.903 9.27008 251.013V119.894C9.27008 117.964 9.27162 116.658 9.34076 115.644C9.40815 114.657 9.53017 114.156 9.67189 113.814C10.2076 112.52 11.2353 111.493 12.5287 110.957C12.8708 110.815 13.3714 110.693 14.3592 110.626C15.3726 110.557 16.6784 110.555 18.6092 110.555H155.042C156.972 110.555 158.278 110.557 159.292 110.626C160.279 110.693 160.78 110.815 161.122 110.957C162.416 111.493 163.443 112.52 163.979 113.814C164.121 114.156 164.243 114.657 164.31 115.644C164.379 116.658 164.381 117.964 164.381 119.894Z" fill="black" stroke="black" stroke-width="5.68468"/>
<g opacity="0.94">
<path d="M61.1921 217.825C62.8196 217.825 63.911 216.373 63.911 214.336C63.911 212.299 62.8293 210.838 61.2116 210.838C59.5842 210.838 58.5024 212.299 58.5024 214.356C58.5024 216.383 59.5744 217.825 61.1921 217.825ZM61.2213 216.899C60.2078 216.899 59.5842 215.847 59.5842 214.287C59.5842 212.777 60.1786 211.773 61.1824 211.773C62.1959 211.773 62.839 212.855 62.839 214.375C62.839 215.856 62.2154 216.899 61.2213 216.899Z" fill="white"/>
<path d="M67.34 217.825C68.9674 217.825 70.0589 216.373 70.0589 214.336C70.0589 212.299 68.9771 210.838 67.3594 210.838C65.732 210.838 64.6503 212.299 64.6503 214.356C64.6503 216.383 65.7223 217.825 67.34 217.825ZM67.3692 216.899C66.3557 216.899 65.732 215.847 65.732 214.287C65.732 212.777 66.3265 211.773 67.3302 211.773C68.3437 211.773 68.9869 212.855 68.9869 214.375C68.9869 215.856 68.3632 216.899 67.3692 216.899Z" fill="white"/>
<path d="M70.7591 217.747H75.4271V216.753H72.2501L73.2636 215.856C74.3941 214.853 75.3783 214.151 75.3783 212.943C75.3783 211.734 74.4136 210.838 73.1077 210.838C71.7142 210.838 70.7396 211.734 70.6812 213.069H71.8019C71.8896 212.319 72.3963 211.832 73.098 211.832C73.8191 211.832 74.2966 212.29 74.2966 212.991C74.2966 213.79 73.5463 214.307 72.3086 215.369L70.7591 216.704V217.747Z" fill="white"/>
</g>
<g opacity="0.94">
<path d="M21.4648 217.747H22.2542V214.609H25.8112V217.747H26.6006V210.925H25.8112V213.927H22.2542V210.925H21.4648V217.747Z" fill="#FFE959"/>
<path d="M31.046 217.805C32.6247 217.805 33.7065 216.792 33.9306 215.486H33.112C32.9268 216.324 32.1375 217.045 31.0558 217.045C29.7207 217.045 28.7949 215.944 28.7949 214.385C28.7949 212.767 29.7304 211.608 31.0948 211.608C32.1472 211.608 32.9171 212.319 33.112 213.167H33.9306C33.726 211.861 32.6442 210.867 31.1045 210.867C29.2724 210.867 27.9568 212.299 27.9568 214.375C27.9568 216.392 29.2821 217.805 31.046 217.805Z" fill="#FFE959"/>
<path d="M37.0969 217.747H37.9838L40.4785 210.925H39.6989L37.555 216.87L35.372 210.925H34.6022L37.0969 217.747Z" fill="#FFE959"/>
<path d="M41.2863 217.747L41.9685 215.905H44.9018L45.6034 217.747H46.461L43.8395 210.925H43.0307L40.4287 217.737L41.2863 217.747ZM42.2121 215.174L43.44 211.812L44.6679 215.174H42.2121Z" fill="#FFE959"/>
<path d="M49.8193 217.844C51.3883 217.844 52.3921 216.461 52.3921 214.375C52.3921 212.28 51.3981 210.886 49.8388 210.886C48.2796 210.886 47.2759 212.28 47.2759 214.375C47.2759 216.461 48.2699 217.844 49.8193 217.844ZM49.8388 217.153C48.7181 217.153 48.0262 216.061 48.0262 214.346C48.0262 212.67 48.7084 211.578 49.8096 211.578C50.94 211.578 51.6417 212.689 51.6417 214.385C51.6417 216.061 50.9498 217.153 49.8388 217.153Z" fill="#FFE959"/>
<path d="M53.814 214.872H57.2248V214.307H53.814V214.872Z" fill="#FFE959"/>
</g>
<path d="M150.553 171.042L152.157 174.519L155.959 174.97L153.148 177.57L153.894 181.326L150.553 179.455L147.211 181.326L147.958 177.57L145.146 174.97L148.949 174.519L150.553 171.042Z" fill="white"/>
<path d="M150.554 186.632L152.158 190.109L155.96 190.56L153.149 193.16L153.895 196.916L150.554 195.045L147.212 196.916L147.959 193.16L145.147 190.56L148.95 190.109L150.554 186.632Z" fill="black"/>
<path d="M150.554 202.223L152.158 205.7L155.96 206.151L153.149 208.751L153.895 212.506L150.554 210.636L147.212 212.506L147.959 208.751L145.147 206.151L148.95 205.7L150.554 202.223Z" fill="black"/>
<g opacity="0.95">
<path d="M26.2094 182.321C28.4597 182.321 30.1164 181.037 30.7101 179.422L29.6608 179.146C29.1776 180.361 27.9213 181.286 26.1956 181.286C23.8486 181.286 22.3024 179.449 22.3024 177.268C22.3024 175.142 23.8486 173.333 26.1956 173.333C27.9213 173.333 29.1914 174.272 29.6608 175.473L30.7377 175.211C30.1578 173.596 28.4735 172.298 26.1956 172.298C23.3516 172.298 21.198 174.466 21.198 177.282C21.198 180.14 23.3516 182.321 26.2094 182.321Z" fill="white"/>
<path d="M39.5787 173.485V172.478H32.7725V182.142H39.5649V181.134H33.8631V177.71H38.8746V176.743H33.8631V173.485H39.5787Z" fill="white"/>
<path d="M48.2355 182.142H49.5056L46.9101 178.29C48.484 178 49.3261 176.716 49.3261 175.418C49.3261 174.01 48.2493 172.478 46.2613 172.478H41.7882V182.142H42.8789V178.345H45.709L48.2355 182.142ZM42.8789 173.472H46.2337C47.49 173.472 48.2631 174.41 48.2631 175.418C48.2631 176.44 47.5038 177.365 46.2199 177.365H42.8789V173.472Z" fill="white"/>
<path d="M58.9457 172.478H50.7037V173.485H54.2793V182.142H55.3838V173.485H58.9457V172.478Z" fill="white"/>
<path d="M60.6017 182.142H61.7061V172.478H60.6017V182.142Z" fill="white"/>
<path d="M70.8934 173.485V172.478H64.1976V182.142H65.3021V177.848H70.1893V176.868H65.3021V173.485H70.8934Z" fill="white"/>
<path d="M72.6067 182.142H73.7111V172.478H72.6067V182.142Z" fill="white"/>
<path d="M83.0088 173.485V172.478H76.2026V182.142H82.995V181.134H77.2933V177.71H82.3047V176.743H77.2933V173.485H83.0088Z" fill="white"/>
<path d="M88.8907 172.478H85.2184V182.142H88.8907C91.8865 182.142 93.6398 180.084 93.6398 177.31C93.6398 174.535 91.8865 172.478 88.8907 172.478ZM88.8769 181.134H86.309V173.472H88.8769C91.2376 173.472 92.5354 175.156 92.5354 177.282C92.5354 179.477 91.2376 181.134 88.8769 181.134Z" fill="white"/>
<path d="M28.5702 200.142H30.5444L26.8307 190.478H24.3733L20.6733 200.142H22.6337L23.4345 198.043H27.7833L28.5702 200.142ZM24.0557 196.373L25.602 192.286L27.1482 196.373H24.0557Z" fill="white"/>
<path d="M35.4773 200.335C37.7967 200.335 39.3429 198.996 39.3429 197.339C39.3429 195.765 38.2247 195.144 36.7474 194.688L34.3453 193.915C33.7102 193.722 33.4203 193.432 33.4203 193.004C33.4203 192.438 34.0277 191.955 34.9803 191.955C36.071 191.955 36.9683 192.493 37.3687 193.28L39.122 192.769C38.5974 191.43 37.0512 190.284 34.9665 190.284C32.9509 190.284 31.4875 191.554 31.5013 193.059C31.4875 194.302 32.4125 195.116 33.6826 195.517L36.1538 196.29C37.0788 196.593 37.4239 196.939 37.4239 197.449C37.4239 198.084 36.7198 198.664 35.5878 198.664C34.1934 198.664 33.2132 197.864 32.8266 196.856L31.0181 197.408C31.5565 198.913 33.1166 200.335 35.4773 200.335Z" fill="white"/>
<path d="M44.938 200.335C47.2573 200.335 48.8036 198.996 48.8036 197.339C48.8036 195.765 47.6853 195.144 46.2081 194.688L43.8059 193.915C43.1709 193.722 42.8809 193.432 42.8809 193.004C42.8809 192.438 43.4884 191.955 44.441 191.955C45.5316 191.955 46.429 192.493 46.8294 193.28L48.5827 192.769C48.0581 191.43 46.5118 190.284 44.4272 190.284C42.4115 190.284 40.9481 191.554 40.9619 193.059C40.9481 194.302 41.8731 195.116 43.1432 195.517L45.6145 196.29C46.5394 196.593 46.8846 196.939 46.8846 197.449C46.8846 198.084 46.1805 198.664 45.0484 198.664C43.6541 198.664 42.6738 197.864 42.2873 196.856L40.4787 197.408C41.0172 198.913 42.5772 200.335 44.938 200.335Z" fill="white"/>
<path d="M55.1169 200.335C58.0298 200.335 60.1835 198.153 60.1835 195.296C60.1835 192.452 58.0298 190.284 55.1169 190.284C52.1901 190.284 50.0364 192.452 50.0364 195.296C50.0364 198.153 52.1901 200.335 55.1169 200.335ZM55.1169 198.581C53.1979 198.581 51.9554 197.146 51.9554 195.296C51.9554 193.487 53.1979 192.038 55.1169 192.038C57.022 192.038 58.2783 193.487 58.2783 195.296C58.2783 197.146 57.022 198.581 55.1169 198.581Z" fill="white"/>
<path d="M66.6672 200.335C69.2213 200.335 70.8503 198.775 71.2921 197.229L69.456 196.759C69.1384 197.712 68.103 198.554 66.6396 198.554C64.7344 198.554 63.5195 197.021 63.5195 195.282C63.5195 193.542 64.7344 192.065 66.6396 192.065C68.103 192.065 69.1384 192.935 69.456 193.874L71.3059 193.418C70.8641 191.886 69.2351 190.284 66.6258 190.284C63.7542 190.284 61.5867 192.452 61.5867 195.296C61.5867 198.153 63.7542 200.335 66.6672 200.335Z" fill="white"/>
<path d="M73.0387 200.142H74.9576V190.478H73.0387V200.142Z" fill="white"/>
<path d="M84.2151 200.142H86.1893L82.4756 190.478H80.0182L76.3182 200.142H78.2787L79.0794 198.043H83.4282L84.2151 200.142ZM79.7006 196.373L81.2469 192.286L82.7931 196.373H79.7006Z" fill="white"/>
<path d="M94.0546 190.478H85.6746V192.189H88.9189V200.142H90.8103V192.189H94.0546V190.478Z" fill="white"/>
<path d="M102.693 192.189V190.478H95.5694V200.142H102.679V198.43H97.4193V196.055H101.989V194.398H97.4193V192.189H102.693Z" fill="white"/>
</g>
<path fill-rule="evenodd" clip-rule="evenodd" d="M6 152H166.795V120.04C166.795 116.256 166.795 114.364 166.177 112.872C165.353 110.882 163.772 109.301 161.782 108.477C160.29 107.858 158.398 107.858 154.614 107.858H18.1815C14.3976 107.858 12.5056 107.858 11.0132 108.477C9.02335 109.301 7.4424 110.882 6.61817 112.872C6 114.364 6 116.256 6 120.04V152Z" fill="#FFE959"/>
<g clip-path="url(#clip2_46_11687)">
<path d="M60.9064 125.911H63.6838L59.4757 140.037H55.506L51.2979 125.911H54.0752L57.4908 137.684L60.9064 125.911Z" fill="black"/>
<path d="M71.3923 140.047H69.2882L69.0953 139.345C68.1797 139.94 67.1116 140.257 66.0199 140.257C64.1332 140.257 63.3267 138.963 63.3267 137.182C63.3267 135.078 64.2384 134.275 66.339 134.275H68.8218V133.195C68.8218 132.048 68.5027 131.645 66.8475 131.645C65.8853 131.654 64.9266 131.761 63.9859 131.964L63.6668 129.989C64.8208 129.671 66.0117 129.507 67.2087 129.502C70.4525 129.502 71.4168 130.649 71.4168 133.237L71.3923 140.047ZM68.8078 136.144H66.8966C66.0479 136.144 65.8165 136.379 65.8165 137.164C65.8165 137.883 66.0479 138.216 66.8685 138.216C67.5536 138.205 68.225 138.023 68.8218 137.687L68.8078 136.144Z" fill="black"/>
<path d="M75.4674 129.709V136.919C75.4674 137.47 75.6989 137.747 76.295 137.747C76.8912 137.747 78.0484 137.364 78.9882 136.877V129.709H81.5762V140.047H79.6019L79.3494 139.177C78.0609 139.824 76.6513 140.193 75.2114 140.261C73.4931 140.261 72.8794 139.051 72.8794 137.207V129.72L75.4674 129.709Z" fill="black"/>
<path d="M82.9536 140.047V125.497L85.5416 125.147V140.047H82.9536Z" fill="black"/>
<path d="M93.2605 139.847C92.5306 140.102 91.7646 140.238 90.9916 140.25C89.1049 140.25 88.1476 139.36 88.1476 137.515V131.764H86.6011V129.709H88.1476V127.142L90.7356 126.791V129.72H93.3867L93.2184 131.774H90.7356V137.185C90.7195 137.311 90.7327 137.438 90.7743 137.558C90.8158 137.677 90.8845 137.785 90.9749 137.874C91.0653 137.962 91.175 138.028 91.2953 138.067C91.4157 138.106 91.5434 138.116 91.6684 138.097C92.1074 138.084 92.5426 138.012 92.9624 137.883L93.2605 139.847Z" fill="black"/>
<path d="M20.6172 122.092L31.8003 143.855L43.0606 122.092H20.6172ZM30.0469 130.733H28.2935V128.951H30.0469V130.733ZM30.0469 128.061H28.2935V126.279H30.0469V128.061ZM32.7191 133.405H30.9482V131.631H32.7296L32.7191 133.405ZM32.7191 130.733H30.9482V128.951H32.7296L32.7191 130.733ZM32.7191 128.061H30.9482V126.279H32.7296L32.7191 128.061ZM35.3772 130.733H33.6063V128.951H35.3878L35.3772 130.733ZM33.5958 128.061V126.279H35.3772V128.061H33.5958Z" fill="black"/>
</g>
<g opacity="0.95">
<path d="M84.543 264.988L75.2534 270.346V270.35V283.219L78.7428 285.234V272.361L84.543 269.013V264.988Z" fill="white"/>
<path d="M88.2515 264.988V275.239H84.5432V271.414L81.0518 273.429V286.562L84.5432 288.581V278.359H88.2515V282.159L91.7409 280.145V267.003L88.2515 264.988Z" fill="white"/>
<path d="M88.252 288.585L97.5416 283.227V283.223V270.354L94.0501 268.34V281.212L88.252 284.56V288.585Z" fill="white"/>
</g>
</g>
<g clip-path="url(#clip3_46_11687)">
<path d="M449.517 161.897V293.015C449.517 295.905 449.494 296.823 449.282 297.616L452.028 298.351L449.282 297.616C448.969 298.786 448.352 299.853 447.495 300.71C446.916 301.29 446.132 301.769 443.629 303.214L377.849 341.187C375.347 342.631 374.54 343.07 373.749 343.282C372.578 343.596 371.346 343.596 370.176 343.282C369.384 343.07 368.577 342.631 366.075 341.187L300.295 303.214C297.793 301.769 297.009 301.29 296.429 300.71C295.572 299.853 294.956 298.786 294.642 297.616L291.897 298.351L294.642 297.616C294.43 296.824 294.407 295.905 294.407 293.015V161.897C294.407 159.966 294.408 158.66 294.477 157.647C294.545 156.659 294.667 156.158 294.809 155.816C295.344 154.523 296.372 153.495 297.665 152.959C298.008 152.818 298.508 152.696 299.496 152.628C300.509 152.559 301.815 152.557 303.746 152.557H440.178C442.109 152.557 443.415 152.559 444.428 152.628C445.416 152.696 445.917 152.818 446.259 152.959C447.552 153.495 448.58 154.523 449.116 155.816C449.257 156.158 449.379 156.659 449.447 157.647C449.516 158.66 449.517 159.966 449.517 161.897Z" fill="black" stroke="black" stroke-width="5.68468"/>
<g opacity="0.94">
<path d="M352.348 259.827C353.975 259.827 355.067 258.375 355.067 256.338C355.067 254.301 353.985 252.84 352.367 252.84C350.74 252.84 349.658 254.301 349.658 256.358C349.658 258.385 350.73 259.827 352.348 259.827ZM352.377 258.901C351.364 258.901 350.74 257.849 350.74 256.289C350.74 254.779 351.334 253.775 352.338 253.775C353.352 253.775 353.995 254.857 353.995 256.377C353.995 257.858 353.371 258.901 352.377 258.901Z" fill="white"/>
<path d="M358.496 259.827C360.123 259.827 361.215 258.375 361.215 256.338C361.215 254.301 360.133 252.84 358.515 252.84C356.888 252.84 355.806 254.301 355.806 256.358C355.806 258.385 356.878 259.827 358.496 259.827ZM358.525 258.901C357.511 258.901 356.888 257.849 356.888 256.289C356.888 254.779 357.482 253.775 358.486 253.775C359.499 253.775 360.143 254.857 360.143 256.377C360.143 257.858 359.519 258.901 358.525 258.901Z" fill="white"/>
<path d="M361.915 259.749H366.583V258.755H363.406L364.419 257.858C365.55 256.855 366.534 256.153 366.534 254.945C366.534 253.736 365.569 252.84 364.263 252.84C362.87 252.84 361.895 253.736 361.837 255.071H362.958C363.045 254.321 363.552 253.834 364.254 253.834C364.975 253.834 365.452 254.292 365.452 254.993C365.452 255.792 364.702 256.309 363.464 257.371L361.915 258.706V259.749Z" fill="white"/>
</g>
<g opacity="0.94">
<path d="M311.603 259.749H312.392V256.611H315.949V259.749H316.738V252.927H315.949V255.929H312.392V252.927H311.603V259.749Z" fill="#F85C94"/>
<path d="M321.184 259.807C322.762 259.807 323.844 258.794 324.068 257.488H323.25C323.065 258.326 322.275 259.047 321.193 259.047C319.858 259.047 318.933 257.946 318.933 256.387C318.933 254.769 319.868 253.61 321.232 253.61C322.285 253.61 323.055 254.321 323.25 255.169H324.068C323.864 253.863 322.782 252.869 321.242 252.869C319.41 252.869 318.095 254.301 318.095 256.377C318.095 258.394 319.42 259.807 321.184 259.807Z" fill="#F85C94"/>
<path d="M328.121 259.807C329.7 259.807 330.782 258.794 331.006 257.488H330.187C330.002 258.326 329.213 259.047 328.131 259.047C326.796 259.047 325.87 257.946 325.87 256.387C325.87 254.769 326.806 253.61 328.17 253.61C329.223 253.61 329.993 254.321 330.187 255.169H331.006C330.801 253.863 329.72 252.869 328.18 252.869C326.348 252.869 325.032 254.301 325.032 256.377C325.032 258.394 326.358 259.807 328.121 259.807Z" fill="#F85C94"/>
<path d="M332.442 259.749L333.124 257.907H336.058L336.759 259.749H337.617L334.996 252.927H334.187L331.585 259.739L332.442 259.749ZM333.368 257.176L334.596 253.814L335.824 257.176H333.368Z" fill="#F85C94"/>
<path d="M340.975 259.846C342.544 259.846 343.548 258.463 343.548 256.377C343.548 254.282 342.554 252.888 340.995 252.888C339.436 252.888 338.432 254.282 338.432 256.377C338.432 258.463 339.426 259.846 340.975 259.846ZM340.995 259.155C339.874 259.155 339.182 258.063 339.182 256.348C339.182 254.672 339.864 253.58 340.966 253.58C342.096 253.58 342.798 254.691 342.798 256.387C342.798 258.063 342.106 259.155 340.995 259.155Z" fill="#F85C94"/>
<path d="M344.97 256.874H348.381V256.309H344.97V256.874Z" fill="#F85C94"/>
</g>
<path d="M435.691 213.044L437.294 216.521L441.097 216.972L438.286 219.572L439.032 223.328L435.691 221.457L432.349 223.328L433.095 219.572L430.284 216.972L434.087 216.521L435.691 213.044Z" fill="white"/>
<path d="M435.691 228.635L437.294 232.112L441.097 232.563L438.286 235.163L439.032 238.918L435.691 237.048L432.349 238.918L433.095 235.163L430.284 232.563L434.087 232.112L435.691 228.635Z" fill="black"/>
<path d="M435.69 244.224L437.293 247.702L441.096 248.152L438.285 250.752L439.031 254.508L435.69 252.638L432.348 254.508L433.094 250.752L430.283 248.152L434.086 247.702L435.69 244.224Z" fill="black"/>
<path opacity="0.95" d="M316.345 224.323C318.596 224.323 320.252 223.039 320.846 221.424L319.797 221.148C319.313 222.363 318.057 223.288 316.331 223.288C313.984 223.288 312.438 221.451 312.438 219.27C312.438 217.144 313.984 215.336 316.331 215.336C318.057 215.336 319.327 216.274 319.797 217.475L320.873 217.213C320.294 215.598 318.609 214.3 316.331 214.3C313.487 214.3 311.334 216.468 311.334 219.284C311.334 222.142 313.487 224.323 316.345 224.323ZM329.714 215.487V214.48H322.908V224.144H329.701V223.136H323.999V219.712H329.01V218.746H323.999V215.487H329.714ZM338.371 224.144H339.641L337.046 220.292C338.62 220.002 339.462 218.718 339.462 217.42C339.462 216.012 338.385 214.48 336.397 214.48H331.924V224.144H333.015V220.347H335.845L338.371 224.144ZM333.015 215.474H336.369C337.626 215.474 338.399 216.412 338.399 217.42C338.399 218.442 337.64 219.367 336.356 219.367H333.015V215.474ZM349.081 214.48H340.839V215.487H344.415V224.144H345.52V215.487H349.081V214.48ZM350.737 224.144H351.842V214.48H350.737V224.144ZM361.029 215.487V214.48H354.333V224.144H355.438V219.85H360.325V218.87H355.438V215.487H361.029ZM362.742 224.144H363.847V214.48H362.742V224.144ZM373.145 215.487V214.48H366.338V224.144H373.131V223.136H367.429V219.712H372.441V218.746H367.429V215.487H373.145ZM379.026 214.48H375.354V224.144H379.026C382.022 224.144 383.776 222.087 383.776 219.312C383.776 216.537 382.022 214.48 379.026 214.48ZM379.013 223.136H376.445V215.474H379.013C381.373 215.474 382.671 217.158 382.671 219.284C382.671 221.479 381.373 223.136 379.013 223.136ZM318.706 242.144H320.68L316.966 232.48H314.509L310.809 242.144H312.77L313.57 240.045H317.919L318.706 242.144ZM314.192 238.375L315.738 234.288L317.284 238.375H314.192ZM325.613 242.337C327.932 242.337 329.479 240.998 329.479 239.341C329.479 237.767 328.36 237.146 326.883 236.69L324.481 235.917C323.846 235.724 323.556 235.434 323.556 235.006C323.556 234.44 324.164 233.957 325.116 233.957C326.207 233.957 327.104 234.495 327.504 235.282L329.258 234.771C328.733 233.432 327.187 232.286 325.102 232.286C323.087 232.286 321.623 233.556 321.637 235.061C321.623 236.304 322.548 237.118 323.818 237.519L326.29 238.292C327.215 238.595 327.56 238.941 327.56 239.451C327.56 240.087 326.856 240.666 325.724 240.666C324.329 240.666 323.349 239.866 322.962 238.858L321.154 239.41C321.692 240.915 323.252 242.337 325.613 242.337ZM335.074 242.337C337.393 242.337 338.939 240.998 338.939 239.341C338.939 237.767 337.821 237.146 336.344 236.69L333.942 235.917C333.307 235.724 333.017 235.434 333.017 235.006C333.017 234.44 333.624 233.957 334.577 233.957C335.667 233.957 336.565 234.495 336.965 235.282L338.718 234.771C338.194 233.432 336.648 232.286 334.563 232.286C332.547 232.286 331.084 233.556 331.098 235.061C331.084 236.304 332.009 237.118 333.279 237.519L335.75 238.292C336.675 238.595 337.02 238.941 337.02 239.451C337.02 240.087 336.316 240.666 335.184 240.666C333.79 240.666 332.81 239.866 332.423 238.858L330.615 239.41C331.153 240.915 332.713 242.337 335.074 242.337ZM345.253 242.337C348.166 242.337 350.319 240.156 350.319 237.298C350.319 234.454 348.166 232.286 345.253 232.286C342.326 232.286 340.172 234.454 340.172 237.298C340.172 240.156 342.326 242.337 345.253 242.337ZM345.253 240.584C343.334 240.584 342.091 239.148 342.091 237.298C342.091 235.489 343.334 234.04 345.253 234.04C347.158 234.04 348.414 235.489 348.414 237.298C348.414 239.148 347.158 240.584 345.253 240.584ZM356.803 242.337C359.357 242.337 360.986 240.777 361.428 239.231L359.592 238.761C359.274 239.714 358.239 240.556 356.775 240.556C354.87 240.556 353.655 239.023 353.655 237.284C353.655 235.544 354.87 234.067 356.775 234.067C358.239 234.067 359.274 234.937 359.592 235.876L361.442 235.42C361 233.888 359.371 232.286 356.762 232.286C353.89 232.286 351.723 234.454 351.723 237.298C351.723 240.156 353.89 242.337 356.803 242.337ZM363.174 242.144H365.093V232.48H363.174V242.144ZM374.351 242.144H376.325L372.611 232.48H370.154L366.454 242.144H368.414L369.215 240.045H373.564L374.351 242.144ZM369.836 238.375L371.383 234.288L372.929 238.375H369.836ZM384.19 232.48H375.81V234.191H379.055V242.144H380.946V234.191H384.19V232.48ZM392.829 234.191V232.48H385.705V242.144H392.815V240.432H387.555V238.057H392.125V236.4H387.555V234.191H392.829Z" fill="white"/>
<path fill-rule="evenodd" clip-rule="evenodd" d="M451.932 162.043V295.932C451.932 296.242 451.932 296.533 451.932 296.809V195.026H291.137V162.043C291.137 158.259 291.137 156.367 291.755 154.875C292.579 152.885 294.16 151.304 296.15 150.48C297.642 149.861 299.534 149.861 303.318 149.861H439.751C443.535 149.861 445.426 149.861 446.919 150.48C448.909 151.304 450.49 152.885 451.314 154.875C451.932 156.367 451.932 158.259 451.932 162.043ZM374.26 349.587H368.809C368.865 349.604 368.921 349.62 368.976 349.635C370.651 350.09 372.417 350.09 374.092 349.635C374.148 349.62 374.204 349.604 374.26 349.587Z" fill="#E03875"/>
<g clip-path="url(#clip4_46_11687)">
<path d="M340.62 171.472C340.62 168.952 342.088 167.484 345.517 167.484C346.782 167.483 348.043 167.636 349.272 167.938L348.982 170.191C347.872 169.983 346.745 169.869 345.616 169.85C343.816 169.85 343.225 170.468 343.225 171.936V177.215C343.225 178.68 343.802 179.301 345.616 179.301C346.745 179.282 347.872 179.168 348.982 178.96L349.272 181.214C348.043 181.516 346.782 181.668 345.517 181.668C342.102 181.668 340.62 180.199 340.62 177.68V171.472Z" fill="white"/>
<path d="M354.834 181.657C351.382 181.657 350.457 179.752 350.457 177.703V175.149C350.457 173.101 351.386 171.182 354.838 171.182C358.29 171.182 359.215 173.084 359.215 175.149V177.703C359.212 179.752 358.283 181.657 354.834 181.657ZM354.834 173.329C353.489 173.329 352.974 173.93 352.974 175.067V177.772C352.974 178.909 353.489 179.506 354.834 179.506C356.18 179.506 356.692 178.909 356.692 177.772V175.067C356.692 173.947 356.176 173.329 354.834 173.329Z" fill="white"/>
<path d="M366.877 181.459V174.425C366.877 173.889 366.648 173.62 366.071 173.62C365.494 173.62 364.364 173.992 363.446 174.466V181.459H360.926V171.39H362.848L363.091 172.24C364.345 171.612 365.718 171.252 367.12 171.185C368.793 171.185 369.394 172.363 369.394 174.159V181.459H366.877Z" fill="white"/>
<path d="M374.58 181.657C373.402 181.638 372.232 181.442 371.111 181.077L371.453 179.158C372.427 179.436 373.434 179.582 374.447 179.592C375.564 179.592 375.728 179.342 375.728 178.567C375.728 177.949 375.605 177.639 373.973 177.246C371.514 176.648 371.224 176.027 371.224 174.084C371.224 172.059 372.112 171.171 374.98 171.171C375.995 171.169 377.007 171.283 377.995 171.513L377.773 173.538C376.859 173.369 375.933 173.272 375.004 173.247C373.908 173.247 373.723 173.497 373.723 174.115C373.723 174.921 373.785 174.982 375.151 175.334C377.957 176.078 378.224 176.45 378.224 178.516C378.217 180.459 377.619 181.657 374.58 181.657Z" fill="white"/>
<path d="M382.389 171.39V178.414C382.389 178.95 382.614 179.219 383.195 179.219C383.775 179.219 384.902 178.847 385.817 178.373V171.39H388.337V181.459H386.418L386.169 180.613C384.914 181.242 383.542 181.601 382.14 181.668C380.467 181.668 379.869 180.49 379.869 178.69V171.39H382.389Z" fill="white"/>
<path d="M390.506 181.459V167.279L393.026 166.937V181.459H390.506Z" fill="white"/>
<path d="M321.604 185.417C319.84 185.418 318.101 184.988 316.54 184.165C314.979 183.342 313.642 182.15 312.646 180.693C311.65 179.236 311.025 177.558 310.824 175.805C310.624 174.052 310.854 172.276 311.495 170.632C312.137 168.987 313.169 167.525 314.504 166.37C315.839 165.216 317.436 164.404 319.155 164.007C320.874 163.609 322.665 163.637 324.371 164.088C326.077 164.54 327.648 165.4 328.946 166.596V166.596L326.381 169.287C325.358 168.364 324.089 167.758 322.728 167.541C321.367 167.325 319.972 167.508 318.713 168.068C317.454 168.628 316.384 169.541 315.634 170.697C314.883 171.853 314.483 173.201 314.483 174.579C314.483 175.957 314.883 177.306 315.634 178.461C316.384 179.617 317.454 180.53 318.713 181.09C319.972 181.65 321.367 181.833 322.728 181.617C324.089 181.401 325.358 180.794 326.381 179.872V179.872L328.946 182.552C326.946 184.397 324.325 185.42 321.604 185.417V185.417Z" fill="white"/>
<path d="M330.332 179.991C330.157 179.991 329.985 179.939 329.839 179.842C329.693 179.744 329.579 179.605 329.512 179.443C329.445 179.281 329.427 179.102 329.461 178.93C329.496 178.758 329.58 178.6 329.704 178.476C329.829 178.351 329.987 178.267 330.159 178.233C330.331 178.198 330.51 178.216 330.672 178.283C330.834 178.35 330.973 178.464 331.07 178.61C331.168 178.756 331.22 178.928 331.22 179.103C331.22 179.339 331.126 179.565 330.96 179.731C330.793 179.898 330.568 179.991 330.332 179.991V179.991Z" fill="white"/>
<path d="M321.536 176.921C321.071 176.921 320.617 176.784 320.231 176.526C319.844 176.267 319.543 175.901 319.365 175.471C319.188 175.042 319.141 174.57 319.232 174.114C319.322 173.658 319.546 173.24 319.875 172.911C320.203 172.583 320.622 172.359 321.077 172.268C321.533 172.178 322.005 172.224 322.435 172.402C322.864 172.58 323.231 172.881 323.489 173.267C323.747 173.653 323.885 174.108 323.885 174.572C323.885 175.195 323.637 175.793 323.197 176.233C322.756 176.674 322.159 176.921 321.536 176.921V176.921Z" fill="white"/>
<path d="M331.353 176.956C331.177 176.956 331.005 176.904 330.859 176.806C330.713 176.708 330.6 176.57 330.532 176.408C330.465 176.245 330.448 176.067 330.482 175.895C330.516 175.722 330.601 175.564 330.725 175.44C330.849 175.316 331.007 175.231 331.179 175.197C331.352 175.163 331.53 175.18 331.692 175.248C331.855 175.315 331.993 175.429 332.091 175.575C332.188 175.721 332.24 175.892 332.24 176.068C332.239 176.303 332.146 176.528 331.979 176.695C331.813 176.861 331.588 176.955 331.353 176.956Z" fill="white"/>
<path d="M328.71 176.853C328.534 176.853 328.363 176.801 328.217 176.704C328.071 176.606 327.957 176.467 327.89 176.305C327.823 176.143 327.805 175.964 327.839 175.792C327.874 175.62 327.958 175.462 328.082 175.338C328.206 175.214 328.365 175.129 328.537 175.095C328.709 175.06 328.888 175.078 329.05 175.145C329.212 175.212 329.351 175.326 329.448 175.472C329.546 175.618 329.598 175.79 329.598 175.965C329.598 176.201 329.504 176.427 329.338 176.593C329.171 176.76 328.945 176.853 328.71 176.853V176.853Z" fill="white"/>
<path d="M331.353 173.968C331.177 173.968 331.005 173.916 330.859 173.818C330.713 173.721 330.6 173.582 330.532 173.42C330.465 173.258 330.448 173.079 330.482 172.907C330.516 172.735 330.601 172.577 330.725 172.452C330.849 172.328 331.007 172.244 331.179 172.209C331.352 172.175 331.53 172.193 331.692 172.26C331.855 172.327 331.993 172.441 332.091 172.587C332.188 172.733 332.24 172.905 332.24 173.08C332.239 173.315 332.146 173.541 331.979 173.707C331.813 173.873 331.588 173.967 331.353 173.968V173.968Z" fill="white"/>
<path d="M328.71 174.07C328.534 174.07 328.363 174.018 328.217 173.921C328.071 173.823 327.957 173.684 327.89 173.522C327.823 173.36 327.805 173.182 327.839 173.009C327.874 172.837 327.958 172.679 328.082 172.555C328.206 172.431 328.365 172.346 328.537 172.312C328.709 172.278 328.888 172.295 329.05 172.362C329.212 172.43 329.351 172.543 329.448 172.689C329.546 172.835 329.598 173.007 329.598 173.183C329.598 173.418 329.504 173.644 329.338 173.81C329.171 173.977 328.945 174.07 328.71 174.07V174.07Z" fill="white"/>
<path d="M330.383 170.98C330.207 170.98 330.036 170.928 329.89 170.831C329.744 170.733 329.63 170.594 329.563 170.432C329.496 170.27 329.478 170.091 329.512 169.919C329.546 169.747 329.631 169.589 329.755 169.465C329.879 169.341 330.037 169.256 330.21 169.222C330.382 169.188 330.56 169.205 330.723 169.272C330.885 169.339 331.023 169.453 331.121 169.599C331.219 169.745 331.271 169.917 331.271 170.092C331.271 170.328 331.177 170.554 331.011 170.72C330.844 170.887 330.618 170.98 330.383 170.98V170.98Z" fill="white"/>
</g>
<g opacity="0.95">
<path d="M369.68 306.991L360.391 312.349V312.353V325.222L363.88 327.237V314.364L369.68 311.016V306.991Z" fill="white"/>
<path d="M373.388 306.991V317.242H369.68V313.417L366.188 315.432V328.565L369.68 330.584V320.362H373.388V324.162L376.878 322.147V309.006L373.388 306.991Z" fill="white"/>
<path d="M373.389 330.588L382.678 325.23V325.226V312.357L379.187 310.342V323.215L373.389 326.563V330.588Z" fill="white"/>
</g>
</g>
<defs>
<filter id="filter0_d_46_11687" x="0.80042" y="107.858" width="171.962" height="210.414" filterUnits="userSpaceOnUse" color-interpolation-filters="sRGB">
<feFlood flood-opacity="0" result="BackgroundImageFix"/>
<feColorMatrix in="SourceAlpha" type="matrix" values="0 0 0 0 0 0 0 0 0 0 0 0 0 0 0 0 0 0 127 0" result="hardAlpha"/>
<feMorphology radius="8.66597" operator="erode" in="SourceAlpha" result="effect1_dropShadow_46_11687"/>
<feOffset dy="6.93277"/>
<feGaussianBlur stdDeviation="6.93277"/>
<feColorMatrix type="matrix" values="0 0 0 0 0.170885 0 0 0 0 0.183125 0 0 0 0 0.2125 0 0 0 0.2 0"/>
<feBlend mode="normal" in2="BackgroundImageFix" result="effect1_dropShadow_46_11687"/>
<feBlend mode="normal" in="SourceGraphic" in2="effect1_dropShadow_46_11687" result="shape"/>
</filter>
<linearGradient id="paint0_linear_46_11687" x1="405.058" y1="258.761" x2="431.971" y2="430.587" gradientUnits="userSpaceOnUse">
<stop stop-color="#922479"/>
<stop offset="1" stop-color="#96267A" stop-opacity="0"/>
</linearGradient>
<linearGradient id="paint1_linear_46_11687" x1="362.862" y1="280.926" x2="312.701" y2="411.877" gradientUnits="userSpaceOnUse">
<stop stop-color="#E771A4"/>
<stop offset="1" stop-color="#F81696" stop-opacity="0.14"/>
</linearGradient>
<linearGradient id="paint2_linear_46_11687" x1="280.895" y1="127.818" x2="313.429" y2="335.535" gradientUnits="userSpaceOnUse">
<stop stop-color="#532A7D"/>
<stop offset="1" stop-color="#33197C" stop-opacity="0"/>
</linearGradient>
<linearGradient id="paint3_linear_46_11687" x1="229.884" y1="154.613" x2="169.245" y2="312.917" gradientUnits="userSpaceOnUse">
<stop stop-color="#9C65D5"/>
<stop offset="1" stop-color="#522AC2" stop-opacity="0"/>
</linearGradient>
<linearGradient id="paint4_linear_46_11687" x1="119.778" y1="233.463" x2="134.537" y2="361.719" gradientUnits="userSpaceOnUse">
<stop stop-color="#9B7003"/>
<stop offset="1" stop-color="#DF706F" stop-opacity="0"/>
</linearGradient>
<linearGradient id="paint5_linear_46_11687" x1="90.9998" y1="230" x2="55.0391" y2="358.892" gradientUnits="userSpaceOnUse">
<stop offset="0.19001" stop-color="#FECA13" stop-opacity="0.74"/>
<stop offset="1" stop-color="#E36666" stop-opacity="0.06"/>
</linearGradient>
<clipPath id="clip0_46_11687">
<rect width="110.918" height="31.1846" fill="white" transform="translate(174.801 24.2607)"/>
</clipPath>
<clipPath id="clip1_46_11687">
<rect width="161.563" height="198.281" fill="white" transform="translate(6 107.858)"/>
</clipPath>
<clipPath id="clip2_46_11687">
<rect width="72.9412" height="30.8597" fill="white" transform="translate(20.6172 117.604)"/>
</clipPath>
<clipPath id="clip3_46_11687">
<rect width="161.563" height="198.281" fill="white" transform="translate(291.137 149.86)"/>
</clipPath>
<clipPath id="clip4_46_11687">
<rect width="82.2895" height="30.0476" fill="white" transform="translate(310.754 159.606)"/>
</clipPath>
</defs>
</svg>
