<svg width="418" height="503" viewBox="0 0 418 503" fill="none" xmlns="http://www.w3.org/2000/svg"><mask id="a" style="mask-type:alpha" maskUnits="userSpaceOnUse" x="0" y="0" width="418" height="503"><path d="M0 0h418v497a6 6 0 0 1-6 6H6a6 6 0 0 1-6-6V0Z" fill="#F2F2F3"/></mask><g mask="url(#a)"><g clip-path="url(#b)"><path d="M60.11 0h-3.221L1.099 32.302l-.141.082.805 1.399L60.109 0ZM10.453 37.883l.805 1.398L79.11 0h-3.22L10.596 37.8l-.142.083Zm19.004 10.996.805 1.399L116.86.142l.247-.142h-3.22L29.599 48.797l-.141.083Zm-9.502-5.497.804 1.398L98.11 0h-3.22L20.097 43.3l-.142.082Zm28.5 16.5.804 1.399L154.863.142l.246-.142h-3.22L48.598 59.8l-.142.082Zm-9.502-5.498.804 1.399L135.865.143l.246-.143h-3.22L39.096 54.302l-.142.082Z" fill="#000"/><path d="m75.89 132-113.754 65.858-.246.142h3.22l113.754-65.858.246-.142-86.708-50.2-.402-.232-57 33v1.864l57-33L75.89 132Zm19 0-113.754 65.858-.246.142h3.22l113.754-65.858.245-.142L-7.597 70.8-8 70.569l-57 33v1.864l57-33L94.89 132Zm-38 0-113.755 65.858-.245.142h3.22l113.754-65.858.246-.142-67.708-39.2-.402-.232-57 33v1.864l57-33L56.89 132Zm95 0L38.136 197.858l-.247.142h3.221l113.754-65.858.245-.142L-7.597 37.8-8 37.568l-57 33v1.865l57-33.001L151.89 132Zm-19 0L19.136 197.858l-.246.142h3.22l113.754-65.858.246-.142L-7.597 48.8-8 48.569l-57 33v1.864l57-33L132.89 132Zm-19 0L.135 197.858-.11 198h3.22l113.754-65.858.246-.142L-7.597 59.8-8 59.569l-57 33v1.865l57-33.001L113.89 132Z" fill="#EC585D"/></g><g clip-path="url(#c)" fill="#000"><path d="m-19.111 263.329 57-32.664-56.998-32.666h3.218l56.754 32.526.245.14-57 32.664L163 365.852v1.846L-18.866 263.47l-.245-.141Zm-37.996 0 57-32.664-56.998-32.666h3.218l56.754 32.526.245.14-57 32.664L163 387.63v1.846L-56.862 263.47l-.245-.141Zm18.998 0 57-32.664-57.005-32.666h3.226l56.753 32.526.245.14-57 32.664L163 376.738v1.852L-37.864 263.47l-.245-.141Zm38.002 0 57-32.664-56.999-32.666h3.22l56.753 32.526.245.14-57 32.664L163 354.96v1.852L.138 263.47l-.245-.141Zm37.996 0 57-32.664-56.999-32.666h3.22l56.753 32.526.245.14-57 32.664 113.755 65.192 8.137 4.662v1.852L38.134 263.47l-.245-.141Zm-18.998 0 57-32.664-56.999-32.666h3.22l56.753 32.526.245.14-57 32.664L163 344.074v1.846L19.136 263.47l-.245-.141ZM155.11 197.999l7.89 4.521v1.847l-11.115-6.368h3.225Zm-98.22 0h3.219L163 256.962v1.846L57.137 198.141l-.248-.142Zm60.219 0L163 224.298v1.846l-49.111-28.145h3.22Zm-18.999 0L163 235.184v1.846l-68.115-39.031h3.225Zm38.002 0L163 213.412v1.846l-30.113-17.259h3.225Zm-60.225 0h3.225L163 246.076v1.846l-86.865-49.781-.248-.142Z"/></g><g clip-path="url(#d)"><path d="M193.111 197.999 163 215.251v-1.84l26.885-15.412h3.226Zm-18.998 0L163 204.365v-1.846l7.887-4.52h3.226Zm37.995 0L163 226.143v-1.846l45.889-26.298h3.219Zm38.002 0-87.028 49.875-.082.047v-1.846l83.885-48.076h3.225Zm18.998 0-106.026 60.767-.082.046v-1.845l102.889-58.968h3.219Zm-37.996 0L163 237.035v-1.846l64.887-37.19h3.225Z" fill="#000"/><path d="m170.886 393.999-7.886-4.52v-1.846l11.111 6.366h-3.225Zm18.999 0L163 378.587v-1.84l30.109 17.252h-3.224Zm79.222 0h-3.219L163 335.038v-1.847l105.862 60.668.245.14Zm-60.219 0L163 367.701v-1.846l49.108 28.144h-3.22Zm18.998 0L163 356.81v-1.841l68.111 39.03h-3.225Zm22.223 0h-3.225L163 345.923v-1.846l86.864 49.782.245.14Z" fill="#EC585D"/></g><g clip-path="url(#e)"><path d="m152.471 525.998-114.06 65.859-.246.142h3.233L155.7 525.998l-115.53-66.703-47.613-27.491-.402-.238L-65 464.564v1.865l57.153-32.997 160.318 92.566Zm-19.049 0-114.06 65.859-.245.142h3.232l114.301-66.001-144.096-83.199-.401-.229L-65 475.567v1.865l57.153-33.003 141.269 81.569Zm-19.049 0L.313 591.857l-.246.142h3.228L117.6 525.998-7.444 453.803l-.402-.236L-65 486.565v1.864l57.153-32.998 122.22 70.567Zm-19.055 0-114.06 65.859-.245.142h3.232l114.3-66.001L-7.444 464.8l-.402-.23L-65 497.567v1.865l57.153-33.003 103.165 59.569Zm-38.098 0-114.06 65.859-.246.142h3.227l114.306-66.001L-7.446 486.8l-.401-.23L-65 519.568v1.864l57.153-33.003 65.067 37.569Zm19.05 0-114.061 65.859-.246.142h3.233l114.3-66.001-86.94-50.194-.402-.237L-65 508.564v1.865l57.153-32.997 84.116 48.566Z" fill="#000"/><path d="m94.7 393.999 68.3 39.434v-1.865l-65.073-37.569h-3.228Zm19.054 0L163 422.435v-1.87l-46.024-26.566h-3.222Zm-57.159 0 106.323 61.387.082.047v-1.865L59.823 393.999h-3.228Zm95.258 0L163 400.436v-1.871l-7.914-4.566h-3.233Zm-19.05 0L163 411.433v-1.865l-26.969-15.569h-3.228Zm-57.153 0 87.268 50.39.082.047v-1.871l-84.122-48.566H75.65Z" fill="#EC585D"/></g><g clip-path="url(#f)"><path d="m247.136 525.857-.245.142L277 543.433l114-66v-1.865l-114 66-26.89-15.569 56.754-32.855.246-.142-144.028-83.386-.082-.048v1.865l140.891 81.569-56.755 32.855Zm-18.999 0-.245.142L276.6 554.2l.401.23L391 488.436v-1.865l-114 66-45.888-26.572 56.754-32.855.245-.142-125.029-72.384-.082-.047v1.864l121.892 70.567-56.755 32.855Zm-19.003 0-.245.142 67.711 39.204.401.23 113.999-66v-1.865l-114 66-64.892-37.569 56.755-32.855.245-.142-106.026-61.387-.082-.047v1.864l102.889 59.57-56.755 32.855Zm-18.998 0-.245.142L276.6 576.2l.401.23L391 510.436v-1.865l-114 66-83.89-48.572 56.754-32.855.246-.142-87.028-50.384-.082-.048v1.866l83.891 48.566-56.755 32.855Zm-18.998 0-.245.142L276.6 587.203l.401.229L391 521.433v-1.865l-114 66-102.888-59.569 56.755-32.855.245-.142-68.03-39.387-.082-.047v1.865l64.892 37.569-56.754 32.855Zm94.996 0-.245.142L277 532.436l114-66v-1.865l-114 66-7.892-4.572 56.755-32.855.245-.142-163.026-94.384-.082-.047v1.864l159.889 92.567-56.755 32.855Z" fill="#EC585D"/></g></g><defs><clipPath id="b"><path fill="#fff" transform="matrix(-1 0 0 1 163 0)" d="M0 0h228v198H0z"/></clipPath><clipPath id="c"><path fill="#fff" transform="matrix(-1 0 0 1 163 197.999)" d="M0 0h228v196H0z"/></clipPath><clipPath id="d"><path fill="#fff" transform="matrix(-1 0 0 1 391 197.999)" d="M0 0h228v196H0z"/></clipPath><clipPath id="e"><path fill="#fff" transform="matrix(-1 0 0 1 163 393.999)" d="M0 0h228v198H0z"/></clipPath><clipPath id="f"><path fill="#fff" transform="matrix(-1 0 0 1 391 393.999)" d="M0 0h228v198H0z"/></clipPath></defs></svg>