<svg width="24" height="24" fill="none" xmlns="http://www.w3.org/2000/svg">
  <path fill-rule="evenodd" clip-rule="evenodd" d="m19.298 9.11-1.67 3.758c-.17.384-.552.632-.973.632-1.11 0-2.009-.9-2.009-2.009v-1.406h-1.651a2.25 2.25 0 0 1-2.224-2.587l.544-3.586A2.25 2.25 0 0 1 13.539 2h6.211A2.25 2.25 0 0 1 22 4.25v2.61a2.25 2.25 0 0 1-2.25 2.25h-.452Zm-2.896 2.823L18.061 8.2V3.5h-4.522a.75.75 0 0 0-.741.637l-.544 3.586a.75.75 0 0 0 .741.862h1.901c.69 0 1.25.56 1.25 1.25v1.656c0 .19.103.354.256.442ZM19.561 3.5v4.11h.189a.75.75 0 0 0 .75-.75V4.25a.75.75 0 0 0-.75-.75h-.189ZM4.702 14.89l1.67-3.758c.17-.384.552-.632.973-.632 1.11 0 2.009.9 2.009 2.009v1.406h1.651a2.25 2.25 0 0 1 2.224 2.587l-.544 3.586A2.25 2.25 0 0 1 10.461 22H4.25A2.25 2.25 0 0 1 2 19.75v-2.61a2.25 2.25 0 0 1 2.25-2.25h.452Zm2.896-2.823L5.939 15.8V20.5h4.522a.75.75 0 0 0 .741-.637l.544-3.586a.75.75 0 0 0-.741-.862H9.104c-.69 0-1.25-.56-1.25-1.25v-1.656a.509.509 0 0 0-.256-.442ZM4.439 20.5v-4.11H4.25a.75.75 0 0 0-.75.75v2.61c0 .414.336.75.75.75h.189Z" fill="white"/>
  <path d="M4.75 2A2.75 2.75 0 0 0 2 4.75V8a.75.75 0 0 0 1.5 0V4.75c0-.69.56-1.25 1.25-1.25H8A.75.75 0 0 0 8 2H4.75ZM22 16a.75.75 0 0 0-1.5 0v3.25c0 .69-.56 1.25-1.25 1.25H16a.75.75 0 0 0 0 1.5h3.25A2.75 2.75 0 0 0 22 19.25V16Z" fill="white"/>
</svg>
