<svg width="456" height="589" viewBox="0 0 456 589" fill="none" xmlns="http://www.w3.org/2000/svg">
<g opacity="0.75">
<g clip-path="url(#clip0_3656_31833)">
<path d="M114 29.1443L228 94.4785L228 92.6324L114 27.3L113.918 27.3465L3.01716e-06 92.6335L2.85584e-06 94.4788L0.0818968 94.4317L114 29.1443ZM0.0818806 105.321L1.90389e-06 105.368L2.06522e-06 103.522L113.918 38.2355L114 38.1889L228 103.521L228 105.366L114 40.0332L0.0818806 105.321ZM0.0818796 116.21L9.51946e-07 116.257L1.11327e-06 114.411L113.918 49.1245L114 49.0779L228 114.41L228 116.255L114 50.9222L0.0818796 116.21ZM0.0818834 72.6537L4.75974e-06 72.7008L4.92106e-06 70.8554L113.918 5.56848L114 5.52192L228 70.8555L228 72.7005L114 7.36726L0.0818834 72.6537ZM0.0818787 127.099L0 127.146L1.61323e-07 125.3L113.918 60.0135L114 59.9669L228 125.299L228 127.144L114 61.8112L0.0818787 127.099ZM0.0818825 83.5427L3.80779e-06 83.5898L3.96911e-06 81.7444L113.918 16.4575L114 16.4109L228 81.7445L228 83.5895L114 18.2563L0.0818825 83.5427Z" fill="#2E71E5"/>
<path d="M67.8648 196.859L0.000346735 157.966L0.000346574 159.811L64.8904 197L68.1105 197L67.8648 196.859ZM49.1104 197L45.8901 197L0.000345622 170.701L0.000345783 168.855L48.8647 196.859L49.1104 197ZM7.89043 197L0.000343718 192.479L0.000343879 190.632L11.1102 197L7.89043 197ZM26.8902 197L0.00034467 181.59L0.000344831 179.743L30.1102 197L26.8902 197ZM87.1105 197L83.8902 197L0.000347526 148.922L0.000347687 147.077L86.8649 196.859L87.1105 197ZM106.11 197L102.89 197L0.000348478 138.033L0.000348639 136.188L105.865 196.859L106.11 197Z" fill="#2E71E5"/>
</g>
<g clip-path="url(#clip1_3656_31833)">
<path d="M200.865 262.474L0.000382422 377.59L0.000382583 375.745L197.891 262.334L83.8916 197.001L87.1112 197.001L201.11 262.334L200.865 262.474ZM182.11 262.334L68.1114 197.001L64.8918 197.001L178.891 262.334L0.000383535 364.856L0.000383374 366.701L181.865 262.474L182.11 262.334ZM163.11 262.334L49.111 197.001L45.8925 197.001L159.891 262.334L0.000384487 353.967L0.000384326 355.812L162.865 262.474L163.11 262.334ZM220.11 262.334L106.111 197.001L102.892 197.001L216.891 262.334L0.000381631 386.634L0.00038147 388.479L219.865 262.474L220.11 262.334ZM144.11 262.334L30.1112 197.001L26.8916 197.001L140.891 262.334L0.000385439 343.078L0.000385278 344.923L143.865 262.474L144.11 262.334ZM125.11 262.334L11.1109 197.001L7.89177 197.001L121.891 262.334L0.000386391 332.189L0.000386229 334.035L124.865 262.474L125.11 262.334Z" fill="#2E71E5"/>
</g>
<g clip-path="url(#clip2_3656_31833)">
<path d="M114 517.301L228 451.968L228 453.813L114 519.145L113.918 519.099L-4.92106e-06 453.813L-4.75974e-06 451.968L0.0818898 452.015L114 517.301ZM0.0818936 408.459L-9.51948e-07 408.412L-1.11336e-06 410.258L113.918 475.544L114 475.59L228 410.257L228 408.412L114 473.745L0.0818936 408.459ZM0.0818917 430.237L-2.85584e-06 430.19L-3.01716e-06 432.035L113.918 497.322L114 497.368L228 432.035L228 430.19L114 495.523L0.0818917 430.237ZM0.0818945 397.571L0 397.524L-1.61416e-07 399.369L113.918 464.655L114 464.701L228 399.368L228 397.523L114 462.857L0.0818945 397.571ZM0.0818907 441.126L-3.80779e-06 441.079L-3.96911e-06 442.924L113.918 508.21L114 508.256L228 442.924L228 441.079L114 506.412L0.0818907 441.126ZM0.0818926 419.348L-1.90389e-06 419.301L-2.06522e-06 421.146L113.918 486.433L114 486.479L228 421.146L228 419.301L114 484.634L0.0818926 419.348Z" fill="#2E71E5"/>
</g>
<g clip-path="url(#clip3_3656_31833)">
<path d="M342 167.856L456 102.522L456 104.368L342 169.7L341.918 169.654L228 104.367L228 102.522L228.082 102.569L342 167.856ZM228.082 91.6796L228 91.6326L228 93.4779L341.918 158.765L342 158.811L456 93.479L456 91.6339L342 156.967L228.082 91.6796ZM228.082 80.7906L228 80.7436L228 82.5889L341.918 147.876L342 147.922L456 82.59L456 80.7449L342 146.078L228.082 80.7906ZM228.082 124.347L228 124.3L228 126.145L341.918 191.432L342 191.478L456 126.145L456 124.3L342 189.633L228.082 124.347ZM228.082 69.9016L228 69.8546L228 71.6999L341.918 136.987L342 137.033L456 71.701L456 69.8559L342 135.189L228.082 69.9016ZM228.082 113.458L228 113.411L228 115.256L341.918 180.543L342 180.589L456 115.256L456 113.411L342 178.744L228.082 113.458Z" fill="#2E71E5"/>
<path d="M295.865 0.140912L228 39.0339L228 37.1888L292.89 -3.41211e-05L296.111 -3.38396e-05L295.865 0.140912ZM277.11 -3.55007e-05L273.89 -3.57822e-05L228 26.2998L228 28.1449L276.865 0.14091L277.11 -3.55007e-05ZM235.89 -3.91042e-05L228 4.52185L228 6.36795L239.11 -3.88228e-05L235.89 -3.91042e-05ZM254.89 -3.74432e-05L228 15.4108L228 17.257L258.11 -3.71617e-05L254.89 -3.74432e-05ZM315.111 -3.21786e-05L311.89 -3.24601e-05L228 48.0779L228 49.9229L314.865 0.140913L315.111 -3.21786e-05ZM334.11 -3.05176e-05L330.89 -3.07991e-05L228 58.9669L228 60.8119L333.865 0.14093L334.11 -3.05176e-05Z" fill="#2E71E5"/>
</g>
<g clip-path="url(#clip4_3656_31833)">
<path d="M312.136 391.861L456 309.412L456 311.257L315.111 392.001L311.891 392.001L312.136 391.861ZM330.891 392.001L334.111 392.001L456 322.145L456 320.3L331.135 391.861L330.891 392.001ZM292.891 392.001L296.111 392.001L456 300.368L456 298.523L293.135 391.861L292.891 392.001ZM235.892 392.001L239.111 392.001L456 267.702L456 265.857L236.136 391.861L235.892 392.001ZM273.891 392.001L277.111 392.001L456 289.479L456 287.634L274.136 391.861L273.891 392.001ZM254.891 392.001L258.111 392.001L456 278.591L456 276.746L255.136 391.861L254.891 392.001Z" fill="#2E71E5"/>
<path d="M342 320.301L456 254.968L456 256.813L342 322.145L341.918 322.099L228 256.813L228 254.968L228.082 255.015L342 320.301ZM228.082 244.126L228 244.079L228 245.924L341.918 311.21L342 311.256L456 245.924L456 244.079L342 309.412L228.082 244.126ZM228.082 222.348L228 222.301L228 224.146L341.918 289.432L342 289.478L456 224.146L456 222.301L342 287.634L228.082 222.348ZM228.082 200.57L228 200.523L228 202.368L341.918 267.655L342 267.701L456 202.368L456 200.523L342 265.856L228.082 200.57ZM228.082 211.459L228 211.412L228 213.257L341.918 278.544L342 278.59L456 213.257L456 211.412L342 276.745L228.082 211.459ZM228.082 233.237L228 233.19L228 235.035L341.918 300.321L342 300.367L456 235.035L456 233.19L342 298.523L228.082 233.237Z" fill="#2E71E5"/>
</g>
</g>
<defs>
<clipPath id="clip0_3656_31833">
<rect width="228" height="196" fill="white" transform="translate(228 197) rotate(-180)"/>
</clipPath>
<clipPath id="clip1_3656_31833">
<rect width="228" height="196" fill="white" transform="translate(228 393.001) rotate(-180)"/>
</clipPath>
<clipPath id="clip2_3656_31833">
<rect width="228" height="196" fill="white" transform="translate(0 393.001)"/>
</clipPath>
<clipPath id="clip3_3656_31833">
<rect width="228" height="196" fill="white" transform="translate(456 196) rotate(-180)"/>
</clipPath>
<clipPath id="clip4_3656_31833">
<rect width="228" height="196" fill="white" transform="translate(456 392.001) rotate(-180)"/>
</clipPath>
</defs>
</svg>
