<svg xmlns="http://www.w3.org/2000/svg" width="418" height="503" viewBox="0 0 418 503" fill="none">
<mask id="mask0_3654_31571" style="mask-type:alpha" maskUnits="userSpaceOnUse" x="0" y="0" width="418" height="503">
<path d="M0 0H418V497C418 500.314 415.314 503 412 503H5.99999C2.68628 503 0 500.314 0 497V0Z" fill="#F2F2F3"/>
</mask>
<g mask="url(#mask0_3654_31571)">
<g clip-path="url(#clip0_3654_31571)">
<path d="M106.082 50.3848L163 17.4323L163 15.5681L106 48.5688L22.1095 -1.2317e-05L18.89 -1.25985e-05L19.1355 0.14234L106 50.4318L106.082 50.3848ZM106 39.4317L38.1358 0.142396L37.8904 -1.09374e-05L41.1099 -1.0656e-05L106 37.5686L163 4.56802L163 6.43218L106.082 39.3847L106 39.4317ZM106 94.4312L-56.8649 0.142366L-57.1104 -1.92427e-05L-53.8903 -1.89612e-05L106 92.5682L163 59.5686L163 61.4328L106.082 94.3842L106 94.4312ZM106 72.4321L-18.8647 0.142369L-19.1102 -1.59206e-05L-15.8907 -1.56391e-05L106 70.5679L163 37.5684L163 39.4325L106.082 72.3851L106 72.4321ZM106 83.4322L-37.8646 0.142367L-38.11 -1.75816e-05L-34.8905 -1.73001e-05L106 81.568L163 48.5685L163 50.4326L106.082 83.3852L106 83.4322ZM106 61.432L0.135605 0.142371L-0.109818 -1.42595e-05L3.10971 -1.39781e-05L106 59.5689L163 26.5683L163 28.4324L106.082 61.385L106 61.432Z" fill="black"/>
<path d="M116.865 197.858L-64.9996 92.5676L-64.9996 94.4328L113.89 198L117.109 198L116.865 197.858ZM155.109 198L151.889 198L-64.9996 72.4326L-64.9996 70.5674L154.865 197.858L155.109 198ZM79.109 198L75.8895 198L-64.9996 116.432L-64.9996 114.568L78.8647 197.858L79.109 198ZM60.1092 198L56.8897 198L-64.9996 127.432L-64.9996 125.568L59.8649 197.858L60.1092 198ZM98.1094 198L94.8893 198L-64.9996 105.432L-64.9996 103.568L97.8651 197.858L98.1094 198ZM136.109 198L132.889 198L-64.9996 83.4327L-64.9996 81.5686L135.865 197.858L136.109 198Z" fill="#2264D6"/>
</g>
<g clip-path="url(#clip1_3654_31571)">
<path d="M-8.08217 247.875L-65 215.255L-65 213.41L-8.00014 246.077L75.8905 197.999L79.11 197.999L78.8645 198.14L-8.00019 247.921L-8.08217 247.875ZM-8.00014 237.032L59.8642 198.14L60.1096 197.999L56.8901 197.999L-8.00014 235.188L-65 202.521L-65 204.366L-8.08217 236.986L-8.00014 237.032ZM-8.00015 291.476L154.865 198.14L155.11 197.999L151.89 197.999L-8.00015 289.632L-65 256.966L-65 258.811L-8.08218 291.43L-8.00015 291.476ZM-8.00014 269.699L116.865 198.14L117.11 197.999L113.891 197.999L-8.00014 267.854L-65 235.188L-65 237.033L-8.08217 269.653L-8.00014 269.699ZM-8.00014 280.588L135.865 198.14L136.11 197.999L132.89 197.999L-8.00014 278.743L-65 246.077L-65 247.922L-8.08218 280.542L-8.00014 280.588ZM-8.00014 258.81L97.8644 198.14L98.1098 197.999L94.8903 197.999L-8.00014 256.966L-65 224.299L-65 226.144L-8.08216 258.764L-8.00014 258.81Z" fill="black"/>
<path d="M-18.8645 393.859L163 289.632L163 291.478L-15.8892 393.999L-19.1088 393.999L-18.8645 393.859ZM-57.109 393.999L-53.8889 393.999L163 269.7L163 267.854L-56.8647 393.859L-57.109 393.999ZM18.8914 393.999L22.1109 393.999L163 313.255L163 311.41L19.1357 393.859L18.8914 393.999ZM37.8912 393.999L41.1108 393.999L163 324.144L163 322.299L38.1355 393.859L37.8912 393.999ZM-0.108959 393.999L3.1111 393.999L163 302.366L163 300.521L0.13535 393.859L-0.108959 393.999ZM-38.1086 393.999L-34.889 393.999L163 280.589L163 278.744L-37.8643 393.859L-38.1086 393.999Z" fill="black"/>
</g>
<path d="M344.865 198.139L163 302.366L163 300.52L341.89 197.999L345.109 197.999L344.865 198.139ZM383.109 197.999L379.889 197.999L163 322.298L163 324.144L382.865 198.139L383.109 197.999ZM307.109 197.999L303.889 197.999L163 278.743L163 280.588L306.865 198.139L307.109 197.999ZM288.109 197.999L284.89 197.999L163 267.854L163 269.699L287.865 198.139L288.109 197.999ZM326.109 197.999L322.889 197.999L163 289.632L163 291.477L325.865 198.139L326.109 197.999ZM364.109 197.999L360.889 197.999L163 311.409L163 313.254L363.865 198.139L364.109 197.999Z" fill="#2E71E5"/>
<g clip-path="url(#clip2_3654_31571)">
<path d="M19.1357 394.141L163 477.431L163 475.567L22.1109 393.999L18.8914 393.999L19.1357 394.141ZM37.8907 393.999L41.1108 393.999L163 464.568L163 466.432L38.135 394.141L37.8907 393.999ZM-0.108948 393.999L3.11111 393.999L163 486.567L163 488.431L0.135361 394.141L-0.108948 393.999ZM-57.1084 393.999L-53.8889 393.999L163 519.566L163 521.431L-56.8641 394.141L-57.1084 393.999ZM-19.1088 393.999L-15.8887 393.999L163 497.567L163 499.431L-18.8645 394.141L-19.1088 393.999ZM-38.1086 393.999L-34.8891 393.999L163 508.566L163 510.43L-37.8643 394.141L-38.1086 393.999Z" fill="black"/>
<path d="M48.9999 466.43L163 532.431L163 530.566L48.9999 464.567L48.9178 464.614L-65 530.566L-65 532.431L-64.9181 532.383L48.9999 466.43ZM-64.9181 543.383L-65 543.431L-65 541.567L48.9178 475.614L48.9999 475.567L163 541.567L163 543.431L48.9999 477.431L-64.9181 543.383ZM-64.9181 565.383L-65 565.431L-65 563.567L48.9178 497.615L48.9999 497.568L163 563.567L163 565.431L48.9999 499.431L-64.9181 565.383ZM-64.9181 587.384L-65 587.431L-65 585.567L48.9178 519.614L48.9999 519.567L163 585.567L163 587.431L48.9999 521.431L-64.9181 587.384ZM-64.9181 576.384L-65 576.431L-65 574.567L48.9178 508.614L48.9999 508.567L163 574.567L163 576.431L48.9999 510.431L-64.9181 576.384ZM-64.9181 554.383L-65 554.431L-65 552.567L48.9178 486.615L48.9999 486.568L163 552.567L163 554.431L48.9999 488.431L-64.9181 554.383Z" fill="#2E71E5"/>
</g>
<g clip-path="url(#clip3_3654_31571)">
<path d="M277 422.43L163 488.431L163 486.566L277 420.567L277.082 420.614L391 486.567L391 488.431L390.918 488.384L277 422.43ZM390.918 499.384L391 499.431L391 497.567L277.082 431.614L277 431.567L163 497.566L163 499.43L277 433.43L390.918 499.384ZM390.918 510.384L391 510.431L391 508.567L277.082 442.614L277 442.567L163 508.566L163 510.43L277 444.43L390.918 510.384ZM390.918 466.383L391 466.431L391 464.567L277.082 398.614L277 398.567L163 464.567L163 466.431L277 400.431L390.918 466.383ZM390.918 521.384L391 521.432L391 519.567L277.082 453.614L277 453.567L163 519.566L163 521.43L277 455.43L390.918 521.384ZM390.918 477.384L391 477.431L391 475.567L277.082 409.614L277 409.567L163 475.567L163 477.431L277 411.431L390.918 477.384Z" fill="black"/>
</g>
</g>
<defs>
<clipPath id="clip0_3654_31571">
<rect width="228" height="198" fill="white" transform="matrix(-1 -8.74228e-08 -8.74228e-08 1 163 0)"/>
</clipPath>
<clipPath id="clip1_3654_31571">
<rect width="228" height="196" fill="white" transform="matrix(-1 -8.74228e-08 -8.74228e-08 1 163 197.999)"/>
</clipPath>
<clipPath id="clip2_3654_31571">
<rect width="228" height="198" fill="white" transform="matrix(-1 -8.74228e-08 -8.74228e-08 1 163 393.999)"/>
</clipPath>
<clipPath id="clip3_3654_31571">
<rect width="228" height="198" fill="white" transform="matrix(-1 -8.74228e-08 -8.74228e-08 1 391 393.999)"/>
</clipPath>
</defs>
</svg>