<svg xmlns="http://www.w3.org/2000/svg" width="418" height="543" fill="none"><mask id="a" width="418" height="543" x="0" y="0" maskUnits="userSpaceOnUse" style="mask-type:luminance"><path fill="#fff" d="M418 543H0V0h418v543Z"/></mask><g mask="url(#a)"><path fill="#ACADAF" d="M209 106.323a.737.737 0 0 1-.684-.457.735.735 0 0 1 .161-.806.738.738 0 0 1 1.263.523.736.736 0 0 1-.74.74Zm0 10.056a.745.745 0 0 1-.684-.457.737.737 0 0 1 .161-.806.738.738 0 0 1 1.263.523.726.726 0 0 1-.057.283.735.735 0 0 1-.683.457Zm0-30.167a.742.742 0 0 1-.726-.884.74.74 0 1 1 .726.884Zm0-10.055a.743.743 0 0 1-.684-.457.736.736 0 0 1 .161-.807.738.738 0 0 1 1.138.113.743.743 0 0 1-.092.934.74.74 0 0 1-.523.217Zm0 20.11a.743.743 0 0 1-.684-.456.736.736 0 0 1 .161-.807.738.738 0 0 1 1.138.113.743.743 0 0 1-.092.934.74.74 0 0 1-.523.217Zm0-90.5a.742.742 0 0 1-.684-.456.736.736 0 0 1 .161-.807.737.737 0 0 1 1.138.113.743.743 0 0 1-.092.934.74.74 0 0 1-.523.217Zm0 20.112a.742.742 0 0 1-.726-.885.74.74 0 1 1 .726.885Zm0 40.222a.742.742 0 0 1-.726-.885.74.74 0 1 1 .726.885Zm0-30.167a.736.736 0 0 1-.684-.456.736.736 0 0 1 .161-.807.737.737 0 0 1 1.138.112.742.742 0 0 1-.332 1.095.738.738 0 0 1-.283.056Zm0-20.11a.742.742 0 0 1-.726-.885.74.74 0 1 1 .726.884Zm0 40.221a.742.742 0 0 1-.726-.884.74.74 0 1 1 .726.884Zm0-10.055a.742.742 0 0 1-.726-.885.74.74 0 1 1 .726.885ZM69.666 176.712a.742.742 0 0 1-.683-.457.737.737 0 0 1 .16-.806.74.74 0 1 1 .523 1.263Zm0-10.055a.743.743 0 0 1-.683-.457.737.737 0 0 1 .16-.806.74.74 0 1 1 .523 1.263Zm0-10.056a.735.735 0 0 1-.683-.457.737.737 0 0 1 .16-.806.74.74 0 1 1 .523 1.263Zm0-10.056a.742.742 0 0 1-.683-.456.741.741 0 0 1 1.299-.695.742.742 0 0 1-.093.935.742.742 0 0 1-.523.216Zm0-40.222a.742.742 0 0 1-.683-.456.74.74 0 1 1 .683.456Zm0-20.11a.74.74 0 1 1 0-1.48.74.74 0 0 1 0 1.48Zm0 30.166a.735.735 0 0 1-.683-.457.737.737 0 0 1 .16-.806.74.74 0 1 1 .523 1.263Zm0-20.111a.74.74 0 1 1 0-1.48.74.74 0 0 1 0 1.48Zm0 30.167a.743.743 0 0 1-.726-.885.744.744 0 0 1 .582-.581.736.736 0 0 1 .76.314.742.742 0 0 1-.616 1.152Zm0 10.055a.735.735 0 0 1-.683-.457.737.737 0 0 1 .16-.806.74.74 0 1 1 .523 1.263ZM52.25 166.657a.743.743 0 0 1-.684-.457.737.737 0 0 1 .16-.806.74.74 0 1 1 .524 1.263Zm0 10.055a.742.742 0 0 1-.684-.457.737.737 0 0 1 .16-.806.74.74 0 1 1 .524 1.263Zm0-40.222a.735.735 0 0 1-.684-.457.737.737 0 0 1 .16-.806.74.74 0 1 1 .524 1.263Zm0-10.055a.743.743 0 0 1-.726-.885.745.745 0 0 1 .581-.581.736.736 0 0 1 .76.314.742.742 0 0 1-.615 1.152Zm0 30.166a.735.735 0 0 1-.684-.457.737.737 0 0 1 .16-.806.74.74 0 1 1 .524 1.263Zm0-10.056a.742.742 0 0 1-.684-.456.741.741 0 0 1 1.3-.695.742.742 0 0 1-.093.935.742.742 0 0 1-.523.216Zm8.708-45.25a.742.742 0 0 1-.683-.457.738.738 0 0 1 .54-1.008.74.74 0 1 1 .143 1.465Zm0 50.278a.734.734 0 0 1-.684-.457.739.739 0 1 1 .684.457Zm0 10.056a.742.742 0 0 1-.726-.885.738.738 0 0 1 .582-.581.745.745 0 0 1 .76.315.739.739 0 0 1-.616 1.151Zm0-30.167a.734.734 0 0 1-.684-.457.739.739 0 1 1 .684.457Zm0 40.223a.743.743 0 0 1-.726-.885.744.744 0 0 1 .582-.581.736.736 0 0 1 .76.314.742.742 0 0 1-.616 1.152Zm0-30.167a.742.742 0 0 1-.726-.885.745.745 0 0 1 .582-.581.736.736 0 0 1 .76.315.736.736 0 0 1-.093.934.75.75 0 0 1-.523.217Zm0-50.278a.74.74 0 1 1 0-1.48.74.74 0 0 1 0 1.48Zm0 30.167a.742.742 0 0 1-.726-.885.745.745 0 0 1 .582-.581.736.736 0 0 1 .76.315.736.736 0 0 1-.093.934.75.75 0 0 1-.523.217Zm0-10.056a.734.734 0 0 1-.684-.457.739.739 0 1 1 .684.457Zm34.834-40.222a.74.74 0 1 1 0-1.481.74.74 0 0 1 0 1.48Zm-8.709 105.583a.734.734 0 0 1-.683-.457.739.739 0 1 1 .683.457Zm0-40.222a.742.742 0 0 1-.725-.885.738.738 0 0 1 .581-.581.745.745 0 0 1 .76.315.741.741 0 0 1-.616 1.151Zm0-10.055a.744.744 0 0 1-.725-.885.744.744 0 0 1 .58-.581.736.736 0 0 1 .76.314.742.742 0 0 1-.615 1.152Zm0 40.222a.742.742 0 0 1-.725-.885.745.745 0 0 1 .581-.581.736.736 0 0 1 .76.315.736.736 0 0 1-.092.934.75.75 0 0 1-.524.217Zm0-20.112a.742.742 0 0 1-.684-.457.738.738 0 0 1 .54-1.008.736.736 0 0 1 .76.314.742.742 0 0 1-.333 1.095.744.744 0 0 1-.283.056Zm8.709 5.028a.742.742 0 0 1-.684-.456.74.74 0 1 1 .684.456Zm0-70.389a.74.74 0 1 1-.001-1.48.74.74 0 0 1 0 1.48Zm0 80.445a.735.735 0 0 1-.684-.457.737.737 0 0 1 .16-.806.74.74 0 1 1 .524 1.263Zm-8.709-45.25a.742.742 0 0 1-.725-.885.738.738 0 0 1 .581-.581.745.745 0 0 1 .76.315.739.739 0 0 1-.616 1.151Zm-34.833 0a.735.735 0 0 1-.684-.457.737.737 0 0 1 .16-.806.74.74 0 1 1 .524 1.263Zm43.541 25.139a.743.743 0 0 1-.683-.457.737.737 0 0 1 .16-.806.74.74 0 1 1 .524 1.263Zm0-50.278a.74.74 0 1 1 0-1.481.74.74 0 0 1 0 1.481Zm0 10.055a.742.742 0 0 1-.683-.456.74.74 0 1 1 .684.456Zm0 20.112a.743.743 0 0 1-.725-.885.737.737 0 0 1 .58-.581.736.736 0 0 1 .76.315.736.736 0 0 1-.091.934.739.739 0 0 1-.523.217Zm0-10.056a.735.735 0 0 1-.683-.457.737.737 0 0 1 .16-.806.74.74 0 1 1 .524 1.263Zm0 20.111a.742.742 0 0 1-.683-.457.737.737 0 0 1 .16-.806.74.74 0 1 1 .524 1.263Zm0 40.223a.743.743 0 0 1-.725-.885.744.744 0 0 1 .58-.581.736.736 0 0 1 .76.314.742.742 0 0 1-.615 1.152Zm-17.416-50.278a.742.742 0 0 1-.726-.885.745.745 0 0 1 .582-.581.736.736 0 0 1 .76.315.736.736 0 0 1-.093.934.731.731 0 0 1-.523.217Zm0-10.056a.734.734 0 0 1-.684-.457.738.738 0 0 1 .54-1.009.745.745 0 0 1 .76.315.741.741 0 0 1-.616 1.151Zm0 20.111a.734.734 0 0 1-.684-.457.738.738 0 0 1 .54-1.009.745.745 0 0 1 .76.315.741.741 0 0 1-.616 1.151Zm0 10.056a.742.742 0 0 1-.726-.885.745.745 0 0 1 .582-.581.736.736 0 0 1 .76.315.736.736 0 0 1-.093.934.75.75 0 0 1-.523.217Zm0 10.055a.734.734 0 0 1-.684-.457.738.738 0 0 1 .967-.966.737.737 0 0 1 .24 1.207.747.747 0 0 1-.523.216Zm0-50.278a.742.742 0 0 1-.684-.457.738.738 0 0 1 .54-1.008.739.739 0 1 1 .143 1.465Zm0-20.11a.74.74 0 1 1 0-1.479.74.74 0 0 1 0 1.479Zm0 10.055a.74.74 0 1 1 0-1.48.74.74 0 0 1 0 1.48Zm8.708 5.028a.74.74 0 1 1 0-1.481.74.74 0 0 1 0 1.48Zm0-20.111a.74.74 0 1 1 0-1.48.74.74 0 0 1 0 1.48Zm-8.709 85.472a.742.742 0 0 1-.725-.885.738.738 0 0 1 .582-.581.745.745 0 0 1 .76.315.739.739 0 0 1-.616 1.151Zm8.709-75.417a.74.74 0 1 1 0-1.48.74.74 0 0 1 0 1.48Zm0 20.111a.734.734 0 0 1-.683-.457.739.739 0 1 1 .683.457Zm-8.709 65.362a.743.743 0 0 1-.725-.885.744.744 0 0 1 .581-.581.736.736 0 0 1 .76.314.742.742 0 0 1-.615 1.152Zm8.709-15.084a.734.734 0 0 1-.683-.457.739.739 0 1 1 .683.457Zm-60.958-15.083a.743.743 0 0 1-.684-.457.737.737 0 0 1 .16-.806.74.74 0 1 1 .524 1.263Zm-8.709 5.027a.742.742 0 0 1-.683-.457.738.738 0 0 1 .54-1.008.736.736 0 0 1 .76.314.743.743 0 0 1-.093.935.738.738 0 0 1-.524.216Zm0 30.167a.734.734 0 0 1-.683-.457.739.739 0 1 1 .683.457Zm0-40.222a.742.742 0 0 1-.725-.885.738.738 0 0 1 .581-.581.745.745 0 0 1 .76.315.741.741 0 0 1-.616 1.151Zm0-10.055a.744.744 0 0 1-.726-.885.744.744 0 0 1 .582-.581.736.736 0 0 1 .76.314.742.742 0 0 1-.616 1.152Zm34.834-20.112a.742.742 0 0 1-.684-.456.74.74 0 1 1 .684.456Zm-34.834 10.056a.742.742 0 0 1-.725-.885.738.738 0 0 1 .581-.581.745.745 0 0 1 .76.315.739.739 0 0 1-.616 1.151Zm0 40.222a.734.734 0 0 1-.683-.457.739.739 0 1 1 .683.457Zm8.709-45.25a.735.735 0 0 1-.684-.457.737.737 0 0 1 .16-.806.74.74 0 1 1 .524 1.263Zm0 10.056a.743.743 0 0 1-.726-.885.737.737 0 0 1 .581-.581.736.736 0 0 1 .76.315.737.737 0 0 1-.092.934.739.739 0 0 1-.523.217Zm0 10.055a.742.742 0 0 1-.684-.457.737.737 0 0 1 .16-.806.74.74 0 1 1 .524 1.263Zm-8.709 35.195a.742.742 0 0 1-.725-.885.745.745 0 0 1 .581-.581.736.736 0 0 1 .76.315.737.737 0 0 1-.092.934.74.74 0 0 1-.524.217Zm-8.708-45.25a.743.743 0 0 1-.725-.885.745.745 0 0 1 .581-.581.736.736 0 0 1 .76.315.736.736 0 0 1-.092.934.75.75 0 0 1-.524.217Zm0 10.055a.735.735 0 0 1-.683-.457.738.738 0 0 1 .539-1.009.745.745 0 0 1 .76.315.741.741 0 0 1-.616 1.151Zm0 20.111a.735.735 0 0 1-.683-.457.738.738 0 0 1 .967-.966.737.737 0 0 1 .4.967.751.751 0 0 1-.4.4.744.744 0 0 1-.284.056Zm0-10.055a.743.743 0 0 1-.725-.885.745.745 0 0 1 .581-.581.736.736 0 0 1 .76.315.736.736 0 0 1-.092.934.75.75 0 0 1-.524.217Zm0 30.167a.742.742 0 0 1-.725-.885.745.745 0 0 1 .58-.581.736.736 0 0 1 .76.314.741.741 0 0 1-.615 1.152Zm0-10.056a.743.743 0 0 1-.725-.885.738.738 0 0 1 .581-.581.745.745 0 0 1 .76.315.739.739 0 0 1-.616 1.151Zm34.834-30.167a.742.742 0 0 1-.684-.457.737.737 0 0 1 .16-.806.74.74 0 1 1 .523 1.263Zm0-20.111a.735.735 0 0 1-.684-.457.737.737 0 0 1 .16-.806.74.74 0 1 1 .523 1.263Zm0 30.167a.743.743 0 0 1-.684-.457.737.737 0 0 1 .16-.806.74.74 0 1 1 .523 1.263Zm0 10.055a.742.742 0 0 1-.684-.456.74.74 0 1 1 .683.456Zm0-50.278a.742.742 0 0 1-.684-.456.741.741 0 0 1 1.299-.695.742.742 0 0 1-.093.935.742.742 0 0 1-.523.216Zm0 60.334a.735.735 0 0 1-.684-.457.737.737 0 0 1 .16-.806.74.74 0 1 1 .523 1.263Zm0-40.222a.743.743 0 0 1-.727-.885.737.737 0 0 1 .582-.581.736.736 0 0 1 .76.315.736.736 0 0 1-.092.934.739.739 0 0 1-.524.217Zm0 50.278a.743.743 0 0 1-.727-.885.744.744 0 0 1 .582-.581.736.736 0 0 1 .76.314.742.742 0 0 1-.615 1.152Zm8.708-75.417a.74.74 0 1 1 0-1.481.74.74 0 0 1 0 1.48Zm-26.125 55.305a.742.742 0 0 1-.684-.456.74.74 0 1 1 .684.456Zm0 10.056a.735.735 0 0 1-.684-.457.737.737 0 0 1 .16-.806.74.74 0 1 1 .524 1.263Zm0 10.056a.743.743 0 0 1-.726-.885.745.745 0 0 1 .581-.581.736.736 0 0 1 .76.314.742.742 0 0 1-.615 1.152Zm8.708-15.084a.734.734 0 0 1-.684-.457.739.739 0 1 1 .684.457Zm0 20.111a.734.734 0 0 1-.684-.457.739.739 0 1 1 .684.457Zm0-10.055a.742.742 0 0 1-.726-.885.745.745 0 0 1 .582-.581.736.736 0 0 1 .76.315.736.736 0 0 1-.093.934.75.75 0 0 1-.523.217Zm0-40.222a.744.744 0 0 1-.726-.885.744.744 0 0 1 .582-.581.736.736 0 0 1 .76.314.742.742 0 0 1-.616 1.152Zm0-10.056a.742.742 0 0 1-.726-.885.738.738 0 0 1 .582-.581.745.745 0 0 1 .76.315.739.739 0 0 1-.616 1.151Zm0-10.056a.734.734 0 0 1-.684-.457.739.739 0 1 1 .684.457Zm0 30.167a.742.742 0 0 1-.726-.885.738.738 0 0 1 .582-.581.745.745 0 0 1 .76.315.741.741 0 0 1-.616 1.151Zm0 10.055a.742.742 0 0 1-.683-.457.738.738 0 0 1 .54-1.008.736.736 0 0 1 .759.314.742.742 0 0 1-.333 1.095.744.744 0 0 1-.283.056Zm130.625-5.027a.744.744 0 0 1-.683-.457.737.737 0 0 1 .16-.807.747.747 0 0 1 .807-.16.743.743 0 0 1 .4.967.748.748 0 0 1-.401.401.74.74 0 0 1-.283.056Zm0-10.056a.736.736 0 0 1-.683-.457.735.735 0 0 1 .16-.806.74.74 0 1 1 .523 1.263Zm0-40.222a.742.742 0 0 1-.523-1.263.74.74 0 1 1 .523 1.263Zm0-10.055a.74.74 0 1 1 0-1.482.74.74 0 0 1 0 1.482Zm8.709-55.306a.742.742 0 0 1-.727-.884.74.74 0 1 1 .727.884Zm-8.709 95.528a.744.744 0 0 1-.683-.457.737.737 0 0 1 .16-.807.74.74 0 1 1 .523 1.264Zm0-10.056a.736.736 0 0 1-.683-.457.735.735 0 0 1 .16-.806.74.74 0 1 1 .523 1.263Zm8.709-45.25a.742.742 0 0 1-.727-.884.74.74 0 1 1 .727.884Zm0 70.389a.737.737 0 0 1-.684-.457.743.743 0 0 1 .16-.806.737.737 0 0 1 1.139.112.743.743 0 0 1-.092.934.74.74 0 0 1-.523.217Zm0-10.055a.745.745 0 0 1-.684-.457.746.746 0 0 1-.043-.428.745.745 0 0 1 .582-.581.735.735 0 0 1 .759.314.743.743 0 0 1-.614 1.152Zm0-10.056a.737.737 0 0 1-.684-.457.743.743 0 0 1 .16-.806.737.737 0 0 1 1.139.112.74.74 0 0 1-.615 1.151Zm0-10.056a.744.744 0 0 1-.684-.456.74.74 0 1 1 .684.456Zm0-60.333a.742.742 0 0 1-.727-.884.74.74 0 1 1 .727.884Zm-8.709 25.139a.742.742 0 0 1-.523-1.263.74.74 0 1 1 .523 1.263Zm8.709 25.139a.742.742 0 0 1-.727-.884.74.74 0 1 1 .727.884Zm0-60.333a.742.742 0 0 1-.727-.885.74.74 0 1 1 .727.885Zm0 20.11a.742.742 0 0 1-.727-.884.748.748 0 0 1 .582-.581.74.74 0 1 1 .145 1.465Zm0 30.167a.741.741 0 0 1-.145-1.466.738.738 0 0 1 .884.726.742.742 0 0 1-.739.74Zm0-10.055a.741.741 0 0 1-.145-1.466.739.739 0 1 1 .145 1.466Zm-8.709 25.138a.732.732 0 0 1-.683-.457.735.735 0 0 1 .16-.806.744.744 0 0 1 .807-.16.744.744 0 0 1-.001 1.367.744.744 0 0 1-.283.056Zm-8.708-35.194a.741.741 0 0 1-.726-.884.74.74 0 1 1 .726.884Zm0-20.111a.743.743 0 0 1-.684-.457.736.736 0 0 1 .161-.806.738.738 0 0 1 1.138.112.743.743 0 0 1-.092.934.74.74 0 0 1-.523.217Zm0 30.167a.742.742 0 0 1-.726-.885.74.74 0 1 1 .726.885Zm0-20.112a.742.742 0 0 1-.726-.884.74.74 0 1 1 .726.884Zm0 40.223a.743.743 0 0 1-.684-.457.736.736 0 0 1 .161-.806.737.737 0 0 1 1.138.112.743.743 0 0 1-.092.934.74.74 0 0 1-.523.217Zm0 10.055a.737.737 0 0 1-.684-.457.735.735 0 0 1 .161-.806.738.738 0 0 1 1.263.523.736.736 0 0 1-.74.74Zm0-20.11a.742.742 0 0 1-.726-.885.74.74 0 1 1 .726.884Zm0-50.279a.736.736 0 0 1-.684-.456.736.736 0 0 1 .161-.807.738.738 0 0 1 1.138.112.742.742 0 0 1-.092.935.74.74 0 0 1-.523.216Zm8.708 25.14a.741.741 0 0 1-.523-1.264.74.74 0 1 1 .523 1.263Zm-8.708 55.305a.745.745 0 0 1-.684-.457.737.737 0 0 1 .161-.806.738.738 0 0 1 1.263.523.732.732 0 0 1-.457.684.744.744 0 0 1-.283.056Zm8.708-65.361a.742.742 0 0 1-.725-.885.738.738 0 0 1 1.465.145.744.744 0 0 1-.457.684.735.735 0 0 1-.283.056Zm-17.416 100.555a.744.744 0 0 1-.684-.456.74.74 0 1 1 .684.456Zm17.416-120.666a.741.741 0 0 1-.523-1.264.74.74 0 1 1 .523 1.264ZM156.75 136.49a.745.745 0 0 1-.684-.457.737.737 0 0 1 .161-.806.738.738 0 0 1 1.263.523.726.726 0 0 1-.057.283.735.735 0 0 1-.683.457Zm0-10.055a.74.74 0 1 1 0-1.478.74.74 0 0 1 0 1.478Zm0 20.11a.744.744 0 0 1-.412-.124.745.745 0 0 1-.314-.76.737.737 0 0 1 .582-.581.735.735 0 0 1 .759.314.745.745 0 0 1-.092.935.732.732 0 0 1-.523.216Zm8.708-105.583a.74.74 0 1 1 0-1.481.74.74 0 0 1 0 1.481Zm34.834-30.167a.741.741 0 1 1-.001-1.482.741.741 0 0 1 .001 1.482Zm0 10.056a.743.743 0 0 1-.727-.884.74.74 0 1 1 .727.884Zm0 30.167a.741.741 0 0 1-.145-1.466.739.739 0 1 1 .145 1.466Zm0-10.056a.741.741 0 0 1-.145-1.466.738.738 0 0 1 .884.726.742.742 0 0 1-.739.74Zm0-10.055a.741.741 0 0 1-.145-1.466.738.738 0 0 1 .884.726.742.742 0 0 1-.739.74Zm-8.709 85.472a.744.744 0 0 1-.683-.457.737.737 0 0 1 .16-.806.74.74 0 1 1 .523 1.263Zm0-10.056a.736.736 0 0 1-.683-.457.735.735 0 0 1 .16-.806.74.74 0 1 1 .523 1.263Zm0 20.112a.744.744 0 0 1-.683-.457.747.747 0 0 1-.043-.428.735.735 0 0 1 1.009-.539.737.737 0 0 1 .401.967.736.736 0 0 1-.684.457Zm8.709-5.028a.745.745 0 0 1-.684-.457.738.738 0 0 1 .539-1.009.735.735 0 0 1 .76.315.738.738 0 0 1-.092.934.74.74 0 0 1-.523.217Zm-8.709-25.14a.741.741 0 0 1-.523-1.262.74.74 0 1 1 .523 1.263Zm8.709-35.194a.741.741 0 0 1-.145-1.465.738.738 0 0 1 .884.725.742.742 0 0 1-.739.74Zm0 20.112a.742.742 0 0 1-.727-.885.74.74 0 1 1 .727.885Zm0 30.166a.737.737 0 0 1-.684-.457.743.743 0 0 1 .16-.806.737.737 0 0 1 1.139.112.743.743 0 0 1-.092.934.74.74 0 0 1-.523.217Zm0-40.222a.742.742 0 0 1-.727-.884.74.74 0 1 1 .727.884Zm0 20.111a.742.742 0 0 1-.727-.884.74.74 0 1 1 .727.884Zm0 10.055a.744.744 0 0 1-.684-.456.747.747 0 0 1-.043-.428.74.74 0 1 1 .727.884Zm-17.417 0a.744.744 0 0 1-.412-.124.745.745 0 0 1-.314-.76.737.737 0 0 1 .582-.581.739.739 0 1 1 .144 1.465Zm0-10.055a.743.743 0 0 1-.684-.457.736.736 0 0 1 .161-.806.738.738 0 0 1 1.138.112.743.743 0 0 1-.092.934.74.74 0 0 1-.523.217Zm0-10.055a.737.737 0 0 1-.684-.457.736.736 0 0 1 .161-.807.737.737 0 0 1 1.138.112.742.742 0 0 1-.332 1.095.742.742 0 0 1-.283.057Zm0 30.166a.737.737 0 0 1-.684-.457.735.735 0 0 1 .161-.806.738.738 0 0 1 1.263.523.723.723 0 0 1-.057.283.735.735 0 0 1-.683.457Zm0 10.056a.745.745 0 0 1-.684-.457.737.737 0 0 1 .161-.807.736.736 0 0 1 .806-.16.738.738 0 0 1 .4.967.732.732 0 0 1-.4.401.744.744 0 0 1-.283.056Zm0-50.278a.743.743 0 0 1-.684-.457.736.736 0 0 1 .161-.806.738.738 0 0 1 1.138.112.743.743 0 0 1-.092.934.74.74 0 0 1-.523.217Zm0-20.111a.742.742 0 0 1-.726-.885.74.74 0 1 1 .726.885Zm0-30.167a.742.742 0 0 1-.726-.884.74.74 0 1 1 .726.884Zm8.708 65.361a.741.741 0 0 1-.523-1.263.74.74 0 1 1 .523 1.263Zm-8.708-55.305a.742.742 0 0 1-.726-.885.74.74 0 1 1 .726.885Zm0 10.055a.741.741 0 0 1-.726-.884.74.74 0 1 1 .726.884Zm0 90.5a.737.737 0 0 1-.684-.457.735.735 0 0 1 .161-.806.738.738 0 0 1 1.263.523.736.736 0 0 1-.74.74Zm0-70.389a.742.742 0 0 1-.726-.884.74.74 0 1 1 .726.884Zm8.708-35.194a.741.741 0 0 1-.523-1.264.74.74 0 1 1 .523 1.264Zm0 20.111a.742.742 0 0 1-.725-.885.739.739 0 0 1 1.465.145.744.744 0 0 1-.216.523.745.745 0 0 1-.524.217Zm0-10.055a.742.742 0 0 1-.523-1.264.737.737 0 0 1 .806-.16.734.734 0 0 1 .457.683.744.744 0 0 1-.457.684.737.737 0 0 1-.283.057Zm0 20.11a.742.742 0 0 1-.523-1.263.744.744 0 0 1 .807-.16.745.745 0 0 1 .456.684.744.744 0 0 1-.217.523.729.729 0 0 1-.523.216Zm0 10.056a.742.742 0 0 1-.523-1.263.74.74 0 1 1 .523 1.263Zm0 10.056a.741.741 0 0 1-.523-1.264.74.74 0 1 1 .523 1.264Zm0-60.334a.741.741 0 0 1-.523-1.263.74.74 0 1 1 .523 1.263Zm-69.666 40.222a.742.742 0 0 1-.727-.884.74.74 0 1 1 .727.884Zm-8.709 115.64a.744.744 0 0 1-.683-.457.747.747 0 0 1-.043-.428.735.735 0 0 1 1.009-.539.737.737 0 0 1 .401.967.736.736 0 0 1-.684.457Zm0-10.056a.744.744 0 0 1-.683-.457.737.737 0 0 1 .16-.806.74.74 0 1 1 .523 1.263Zm0-40.222a.744.744 0 0 1-.683-.457.737.737 0 0 1 .16-.807.74.74 0 1 1 .523 1.264Zm0 30.166a.736.736 0 0 1-.683-.457.735.735 0 0 1 .16-.806.74.74 0 1 1 .523 1.263Zm0-40.222a.736.736 0 0 1-.683-.457.735.735 0 0 1 .16-.806.74.74 0 1 1 .523 1.263Zm0-10.056a.732.732 0 0 1-.683-.457.735.735 0 0 1 .16-.806.744.744 0 0 1 .807-.16.744.744 0 0 1-.001 1.367.744.744 0 0 1-.283.056Zm0-10.055a.742.742 0 0 1-.523-1.263.74.74 0 1 1 .523 1.263Zm0 50.278a.744.744 0 0 1-.683-.457.737.737 0 0 1 .16-.807.747.747 0 0 1 .807-.16.743.743 0 0 1 .4.967.748.748 0 0 1-.401.401.74.74 0 0 1-.283.056Zm0-10.056a.736.736 0 0 1-.683-.457.735.735 0 0 1 .16-.806.74.74 0 1 1 .523 1.263Zm8.709 5.028a.737.737 0 0 1-.684-.457.743.743 0 0 1 .16-.806.737.737 0 0 1 1.139.112.743.743 0 0 1-.092.934.74.74 0 0 1-.523.217Zm0 10.055a.744.744 0 0 1-.684-.456.747.747 0 0 1-.043-.428.745.745 0 0 1 .582-.581.738.738 0 0 1 .884.726.743.743 0 0 1-.216.523.743.743 0 0 1-.523.216Zm0-30.166a.737.737 0 0 1-.684-.457.743.743 0 0 1 .16-.806.737.737 0 0 1 1.139.112.74.74 0 0 1-.615 1.151Zm0 10.056a.745.745 0 0 1-.684-.457.746.746 0 0 1-.043-.428.745.745 0 0 1 .582-.581.735.735 0 0 1 .759.314.743.743 0 0 1-.614 1.152Zm0 40.222a.745.745 0 0 1-.684-.457.738.738 0 0 1 .539-1.009.735.735 0 0 1 .76.315.738.738 0 0 1-.092.934.74.74 0 0 1-.523.217Zm0-10.056a.737.737 0 0 1-.684-.457.743.743 0 0 1 .16-.806.737.737 0 0 1 1.139.112.743.743 0 0 1-.092.934.74.74 0 0 1-.523.217Zm0-80.444a.741.741 0 0 1-.145-1.466.739.739 0 1 1 .145 1.466Zm0 30.166a.744.744 0 0 1-.684-.456.74.74 0 1 1 .684.456Zm0-40.222a.742.742 0 0 1-.727-.884.74.74 0 1 1 .727.884Zm0 20.111a.741.741 0 0 1-.145-1.466.738.738 0 0 1 .884.726.742.742 0 0 1-.739.74Zm0 10.056a.742.742 0 0 1-.727-.884.74.74 0 1 1 .727.884Zm-17.417 0a.743.743 0 0 1-.684-.457.736.736 0 0 1 .161-.807.737.737 0 0 1 1.138.113.743.743 0 0 1-.092.934.74.74 0 0 1-.523.217Zm0-10.056a.742.742 0 0 1-.726-.884.74.74 0 1 1 .726.884Zm0-10.055a.742.742 0 0 1-.726-.885.74.74 0 1 1 .726.885Zm0-10.056a.741.741 0 0 1-.726-.885.74.74 0 1 1 .726.885Zm0 40.222a.737.737 0 0 1-.684-.457.735.735 0 0 1 .161-.806.738.738 0 0 1 1.263.523.736.736 0 0 1-.74.74Zm0 10.056a.745.745 0 0 1-.684-.457.737.737 0 0 1 .161-.806.738.738 0 0 1 1.263.523.732.732 0 0 1-.457.684.744.744 0 0 1-.283.056Zm0 10.056a.747.747 0 0 1-.684-.457.738.738 0 0 1 .539-1.009.737.737 0 0 1 .76.314.744.744 0 0 1-.092.935.74.74 0 0 1-.523.217Zm0 10.055a.745.745 0 0 1-.684-.457.737.737 0 0 1 .161-.806.738.738 0 0 1 1.263.523.726.726 0 0 1-.057.283.735.735 0 0 1-.683.457Zm8.708-55.306a.74.74 0 1 1 0-1.48.74.74 0 0 1 0 1.48Zm0-20.11a.741.741 0 0 1-.523-1.264.74.74 0 1 1 .523 1.263Zm0 10.055a.742.742 0 0 1-.523-1.264.74.74 0 1 1 .523 1.264Zm-8.708 75.416a.744.744 0 0 1-.412-.124.745.745 0 0 1-.314-.76.737.737 0 0 1 .582-.581.735.735 0 0 1 .759.314.745.745 0 0 1-.092.935.732.732 0 0 1-.523.216Zm0 10.056a.737.737 0 0 1-.684-.457.735.735 0 0 1 .161-.806.738.738 0 0 1 1.263.523.726.726 0 0 1-.057.283.735.735 0 0 1-.683.457Zm0 10.056a.745.745 0 0 1-.684-.457.737.737 0 0 1 .161-.807.736.736 0 0 1 .806-.16.738.738 0 0 1 .4.967.732.732 0 0 1-.4.4.726.726 0 0 1-.283.057Zm0 10.055a.737.737 0 0 1-.684-.457.735.735 0 0 1 .161-.806.738.738 0 0 1 1.263.523.723.723 0 0 1-.057.283.735.735 0 0 1-.683.457Zm34.833-30.167a.732.732 0 0 1-.683-.457.735.735 0 0 1 .16-.806.736.736 0 0 1 .807-.16.744.744 0 0 1-.001 1.367.744.744 0 0 1-.283.056Zm0 10.056a.736.736 0 0 1-.683-.457.735.735 0 0 1 .16-.806.74.74 0 1 1 .523 1.263Zm0-30.166a.741.741 0 1 1 .283-1.424.737.737 0 0 1 .401.967.736.736 0 0 1-.684.457Zm0 10.055a.744.744 0 0 1-.683-.457.737.737 0 0 1 .16-.806.74.74 0 1 1 .523 1.263Zm0-70.389a.74.74 0 1 1 0-1.481.74.74 0 0 1 0 1.481Zm0 10.056a.741.741 0 0 1-.523-1.264.74.74 0 1 1 .523 1.264Zm0 40.222a.744.744 0 0 1-.683-.457.737.737 0 0 1 .16-.806.74.74 0 1 1 .523 1.263Zm0-30.167a.741.741 0 0 1-.523-1.263.74.74 0 1 1 .523 1.263Zm0 20.111a.736.736 0 0 1-.683-.457.735.735 0 0 1 .16-.806.74.74 0 1 1 .523 1.263Zm8.709-15.083a.742.742 0 0 1-.727-.884.74.74 0 1 1 .727.884Zm0 10.055a.744.744 0 0 1-.684-.456.747.747 0 0 1-.043-.428.74.74 0 1 1 .727.884Zm-8.709-45.25a.742.742 0 0 1-.523-1.263.744.744 0 0 1 .807-.16.745.745 0 0 1 .456.684.744.744 0 0 1-.216.523.743.743 0 0 1-.524.216Zm8.709 55.306a.737.737 0 0 1-.684-.457.743.743 0 0 1 .16-.806.737.737 0 0 1 1.139.112.743.743 0 0 1-.092.934.74.74 0 0 1-.523.217Zm0-30.166a.742.742 0 0 1-.727-.885.74.74 0 1 1 .727.885Zm0 50.277a.744.744 0 0 1-.412-.124.745.745 0 0 1-.315-.76.737.737 0 0 1 .582-.582.743.743 0 0 1 .76.315.743.743 0 0 1-.092.934.74.74 0 0 1-.523.217Zm0-10.055a.745.745 0 0 1-.684-.457.738.738 0 0 1 .539-1.009.735.735 0 0 1 .76.315.738.738 0 0 1-.092.934.74.74 0 0 1-.523.217Zm0-80.445a.741.741 0 0 1-.145-1.466.738.738 0 0 1 .884.726.742.742 0 0 1-.739.74Zm0 20.111a.741.741 0 0 1-.145-1.465.738.738 0 0 1 .884.725.742.742 0 0 1-.739.74Zm0-10.055a.742.742 0 0 1-.727-.884.74.74 0 1 1 .727.884Zm0 20.11a.742.742 0 0 1-.727-.883.74.74 0 1 1 .727.884Zm-8.709 25.14a.742.742 0 0 1-.725-.885.739.739 0 0 1 1.465.145.744.744 0 0 1-.457.684.735.735 0 0 1-.283.056Zm-8.708 15.083a.737.737 0 0 1-.684-.457.735.735 0 0 1 .161-.806.738.738 0 0 1 1.263.523.726.726 0 0 1-.057.283.735.735 0 0 1-.683.457Zm0-60.333a.743.743 0 0 1-.684-.457.736.736 0 0 1 .161-.806.737.737 0 0 1 1.138.112.743.743 0 0 1-.092.934.74.74 0 0 1-.523.217Zm17.417 90.5a.745.745 0 0 1-.684-.457.743.743 0 0 1 .16-.806.737.737 0 0 1 1.139.112.738.738 0 0 1-.092.934.74.74 0 0 1-.523.217Zm-17.417-20.111a.745.745 0 0 1-.684-.457.737.737 0 0 1 .161-.807.736.736 0 0 1 .806-.16.738.738 0 0 1 .4.967.732.732 0 0 1-.4.4.726.726 0 0 1-.283.057Zm0 10.055a.737.737 0 0 1-.684-.457.735.735 0 0 1 .161-.806.738.738 0 0 1 1.263.523.723.723 0 0 1-.057.283.735.735 0 0 1-.683.457Zm0-60.333a.742.742 0 0 1-.726-.885.74.74 0 1 1 .726.885Zm0 10.056a.736.736 0 0 1-.684-.457.736.736 0 0 1 .161-.807.737.737 0 0 1 1.138.112.742.742 0 0 1-.092.935.74.74 0 0 1-.523.217Zm0 20.11a.744.744 0 0 1-.412-.124.745.745 0 0 1-.314-.76.737.737 0 0 1 .582-.581.737.737 0 0 1 .759.314.745.745 0 0 1-.092.935.732.732 0 0 1-.523.216Zm0-10.055a.742.742 0 0 1-.726-.884.74.74 0 1 1 .726.884Zm8.708-45.25a.742.742 0 0 1-.523-1.263.74.74 0 1 1 .523 1.263Zm-8.708 105.583a.737.737 0 0 1-.684-.457.735.735 0 0 1 .161-.806.738.738 0 0 1 1.263.523.736.736 0 0 1-.74.74Zm0-10.055a.745.745 0 0 1-.684-.457.737.737 0 0 1 .161-.807.744.744 0 0 1 .806-.16.738.738 0 0 1 .4.967.732.732 0 0 1-.4.401.744.744 0 0 1-.283.056Zm0-80.445a.742.742 0 0 1-.726-.884.74.74 0 1 1 .726.884Zm0 100.556a.745.745 0 0 1-.684-.457.737.737 0 0 1 .161-.806.738.738 0 0 1 1.263.523.732.732 0 0 1-.457.684.744.744 0 0 1-.283.056ZM304.791 361.26a.737.737 0 0 1 .684.457.737.737 0 0 1-.161.806.738.738 0 0 1-1.263-.523c0-.097.019-.193.057-.283a.735.735 0 0 1 .683-.457Zm-87.083 0a.736.736 0 0 1 .684.457.735.735 0 0 1-.16.806.745.745 0 0 1-.807.161.738.738 0 0 1-.457-.684.74.74 0 0 1 .74-.74Zm17.417 0a.736.736 0 0 1 .683.457.737.737 0 0 1-.16.806.74.74 0 1 1-.523-1.263Zm52.25 0a.736.736 0 0 1 .683.457.746.746 0 0 1 .043.428.745.745 0 0 1-.582.581.743.743 0 0 1-.828-1.009.724.724 0 0 1 .161-.24.724.724 0 0 1 .523-.217Zm-17.417 0a.736.736 0 0 1 .684.457.735.735 0 0 1-.16.806.745.745 0 0 1-.807.161.738.738 0 0 1-.457-.684.74.74 0 0 1 .74-.74Zm-17.417 0a.737.737 0 0 1 .684.457.737.737 0 0 1-.161.806.738.738 0 0 1-1.263-.523c0-.097.019-.193.057-.283a.735.735 0 0 1 .683-.457Zm95.792 105.583a.744.744 0 0 1 .684.457.735.735 0 0 1-.16.806.745.745 0 0 1-.807.161.738.738 0 0 1-.457-.684.74.74 0 0 1 .74-.74Zm0 60.334a.743.743 0 0 1 .684.456.738.738 0 0 1-.16.807.752.752 0 0 1-.379.203.746.746 0 0 1-.76-.315.738.738 0 0 1 .615-1.151Zm0-30.167a.736.736 0 0 1 .684.457.735.735 0 0 1-.16.806.745.745 0 0 1-.807.161.738.738 0 0 1-.457-.684.74.74 0 0 1 .74-.74Zm0 20.111a.736.736 0 0 1 .684.457.735.735 0 0 1-.16.806.745.745 0 0 1-.807.161.738.738 0 0 1-.457-.684.74.74 0 0 1 .74-.74Zm0-30.166a.743.743 0 0 1 .684.456.737.737 0 0 1-.161.807.736.736 0 0 1-.806.16.742.742 0 0 1-.457-.684.74.74 0 0 1 .74-.739Zm0-10.056a.743.743 0 0 1 .684.457.735.735 0 0 1-.16.806.745.745 0 0 1-.807.161.738.738 0 0 1-.457-.684.74.74 0 0 1 .74-.74Zm0 30.166a.744.744 0 0 1 .684.457.737.737 0 0 1-.16.806.737.737 0 0 1-.807.161.742.742 0 0 1-.457-.683.74.74 0 0 1 .74-.741Zm-8.708 25.14a.743.743 0 0 1 .684.457.743.743 0 0 1-.54 1.008.738.738 0 0 1-.667-1.249.744.744 0 0 1 .523-.216Zm0-20.112a.744.744 0 0 1 .684.457c.055.135.07.284.042.428a.74.74 0 1 1-.726-.885Zm0 10.056a.736.736 0 0 1 .684.457.744.744 0 0 1-.54 1.009.743.743 0 0 1-.76-.315.743.743 0 0 1 .333-1.095.744.744 0 0 1 .283-.056Zm8.708-85.472a.743.743 0 0 1 .684.456.738.738 0 0 1-.16.807.752.752 0 0 1-.379.203.746.746 0 0 1-.76-.315.738.738 0 0 1 .615-1.151Zm0 20.111a.743.743 0 0 1 .684.456.738.738 0 0 1-.16.807.745.745 0 0 1-.807.161.738.738 0 0 1-.457-.684.738.738 0 0 1 .74-.74Zm0-30.167a.736.736 0 0 1 .684.457.735.735 0 0 1-.16.806.745.745 0 0 1-.807.161.738.738 0 0 1-.457-.684.74.74 0 0 1 .74-.74Zm0 20.111a.736.736 0 0 1 .684.457.735.735 0 0 1-.16.806.745.745 0 0 1-.807.161.738.738 0 0 1-.457-.684.74.74 0 0 1 .74-.74Zm0-30.167a.744.744 0 0 1 .684.457.737.737 0 0 1-.16.806.737.737 0 0 1-.807.161.742.742 0 0 1-.457-.683.74.74 0 0 1 .74-.741Zm0-10.055a.736.736 0 0 1 .684.457.735.735 0 0 1-.16.806.745.745 0 0 1-.807.161.738.738 0 0 1-.457-.684.74.74 0 0 1 .74-.74Zm8.708 125.695c.147 0 .29.043.412.124a.745.745 0 0 1 .314.76.737.737 0 0 1-.582.581.735.735 0 0 1-.759-.315.74.74 0 0 1 .615-1.15Zm0-20.112a.745.745 0 0 1 .684.457.737.737 0 0 1-.161.807.736.736 0 0 1-.806.16.738.738 0 0 1-.4-.967.732.732 0 0 1 .4-.401.744.744 0 0 1 .283-.056Zm0-30.166a.737.737 0 0 1 .684.457.735.735 0 0 1-.161.806.738.738 0 0 1-1.263-.523.731.731 0 0 1 .217-.524.748.748 0 0 1 .523-.216Zm0 10.055a.745.745 0 0 1 .684.457.737.737 0 0 1-.161.807.744.744 0 0 1-.806.16.738.738 0 0 1-.4-.967.75.75 0 0 1 .683-.457Zm0 10.056a.737.737 0 0 1 .684.457.735.735 0 0 1-.161.806.738.738 0 0 1-1.263-.523.736.736 0 0 1 .74-.74Zm0 20.111a.737.737 0 0 1 .684.457.735.735 0 0 1-.161.806.738.738 0 0 1-1.263-.523.736.736 0 0 1 .74-.74Zm8.708-115.639a.737.737 0 0 1 .684.457.743.743 0 0 1-.16.806.737.737 0 0 1-1.139-.112.743.743 0 0 1 .092-.934.74.74 0 0 1 .523-.217Zm0 10.055a.745.745 0 0 1 .684.457.738.738 0 0 1-.539 1.009.735.735 0 0 1-.759-.314.743.743 0 0 1 .614-1.152Zm0-20.11a.744.744 0 0 1 .684.456.747.747 0 0 1 .043.428.745.745 0 0 1-.582.581.738.738 0 0 1-.884-.726c0-.196.078-.384.216-.523a.743.743 0 0 1 .523-.216Zm-8.708 45.25c.147 0 .29.043.412.124a.745.745 0 0 1 .314.76.737.737 0 0 1-.582.581.735.735 0 0 1-.759-.315.74.74 0 0 1 .615-1.15Zm0 30.166a.745.745 0 0 1 .684.457.737.737 0 0 1-.161.806.738.738 0 0 1-1.263-.523c0-.097.019-.193.057-.283a.735.735 0 0 1 .683-.457Zm0-60.333a.737.737 0 0 1 .684.457.735.735 0 0 1-.161.806.738.738 0 0 1-1.263-.523.736.736 0 0 1 .74-.74Zm0-10.056a.745.745 0 0 1 .684.457.737.737 0 0 1-.161.807.744.744 0 0 1-.806.16.738.738 0 0 1-.4-.967.75.75 0 0 1 .683-.457Zm0 50.278a.737.737 0 0 1 .684.457.737.737 0 0 1-.161.806.738.738 0 0 1-1.263-.523c0-.097.019-.193.057-.283a.735.735 0 0 1 .683-.457Zm0 10.055a.745.745 0 0 1 .684.457.738.738 0 0 1-.539 1.009.737.737 0 0 1-.76-.314.744.744 0 0 1 .092-.935.732.732 0 0 1 .523-.217Zm0-40.222a.745.745 0 0 1 .684.457.737.737 0 0 1-.161.807.736.736 0 0 1-.806.16.738.738 0 0 1-.4-.967.732.732 0 0 1 .4-.401.744.744 0 0 1 .283-.056Zm0 10.056a.737.737 0 0 1 .684.457.735.735 0 0 1-.161.806.738.738 0 0 1-1.263-.523c0-.097.019-.194.057-.283a.735.735 0 0 1 .683-.457Zm-8.708 105.583a.736.736 0 0 1 .684.457.735.735 0 0 1-.16.806.745.745 0 0 1-.807.161.738.738 0 0 1-.457-.684.74.74 0 0 1 .74-.74Zm-17.417-50.277c.147 0 .29.043.412.124a.745.745 0 0 1 .314.76.737.737 0 0 1-.582.581.735.735 0 0 1-.759-.315.74.74 0 0 1 .615-1.15Zm-8.708 25.138a.744.744 0 0 1 .684.457.735.735 0 0 1-.16.806.745.745 0 0 1-.807.161.738.738 0 0 1-.457-.684.74.74 0 0 1 .74-.74Zm0-40.222a.736.736 0 0 1 .684.457.735.735 0 0 1-.16.806.745.745 0 0 1-.807.161.738.738 0 0 1-.457-.684.74.74 0 0 1 .74-.74Zm0 30.167a.743.743 0 0 1 .684.456.738.738 0 0 1-.16.807.745.745 0 0 1-.807.161.738.738 0 0 1-.457-.684.738.738 0 0 1 .74-.74Zm0-10.056a.736.736 0 0 1 .684.457.735.735 0 0 1-.16.806.745.745 0 0 1-.807.161.738.738 0 0 1-.457-.684.74.74 0 0 1 .74-.74Zm0 40.223a.743.743 0 0 1 .684.456.737.737 0 0 1-.16.807.743.743 0 0 1-1.139-.112.745.745 0 0 1 .092-.935.743.743 0 0 1 .523-.216Zm0-50.278a.743.743 0 0 1 .684.456.738.738 0 0 1-.16.807.752.752 0 0 1-.379.203.746.746 0 0 1-.76-.315.738.738 0 0 1 .615-1.151Zm0 40.222a.743.743 0 0 1 .684.457.735.735 0 0 1-.16.806.745.745 0 0 1-.807.161.738.738 0 0 1-.457-.684.74.74 0 0 1 .74-.74Zm8.708-105.584a.745.745 0 0 1 .684.457.738.738 0 0 1-.539 1.009.737.737 0 0 1-.76-.314.744.744 0 0 1 .092-.935.732.732 0 0 1 .523-.217Zm-8.708 45.25a.744.744 0 0 1 .684.457.737.737 0 0 1-.16.806.737.737 0 0 1-.807.161.742.742 0 0 1-.457-.683.74.74 0 0 1 .74-.741Zm8.708-35.194a.745.745 0 0 1 .684.457.737.737 0 0 1-.161.806.738.738 0 0 1-1.263-.523c0-.097.019-.193.057-.283a.735.735 0 0 1 .683-.457Zm8.709 75.417a.736.736 0 0 1 .683.457.743.743 0 0 1-.16.806.74.74 0 1 1-.523-1.263Zm26.124-75.417a.737.737 0 0 1 .684.457.743.743 0 0 1-.16.806.737.737 0 0 1-1.139-.112.74.74 0 0 1 .615-1.151Zm-43.541 25.139a.736.736 0 0 1 .684.457.735.735 0 0 1-.16.806.745.745 0 0 1-.807.161.738.738 0 0 1-.457-.684.74.74 0 0 1 .74-.74Zm0-10.055a.743.743 0 0 1 .684.456.738.738 0 0 1-.539 1.009.737.737 0 0 1-.76-.314.745.745 0 0 1 .092-.935.743.743 0 0 1 .523-.216Zm0-20.112a.744.744 0 0 1 .684.457.735.735 0 0 1-.16.806.745.745 0 0 1-.807.161.738.738 0 0 1-.457-.684.74.74 0 0 1 .74-.74Zm0 10.056a.743.743 0 0 1 .684.457.735.735 0 0 1-.16.806.745.745 0 0 1-.807.161.738.738 0 0 1-.457-.684.74.74 0 0 1 .74-.74Zm17.417-10.056a.744.744 0 0 1 .684.457c.055.135.07.284.042.428a.74.74 0 1 1-.726-.885Zm0 10.056a.736.736 0 0 1 .684.457.744.744 0 0 1-.54 1.009.743.743 0 0 1-.76-.315.743.743 0 0 1 .333-1.095.744.744 0 0 1 .283-.056Zm0-20.111a.736.736 0 0 1 .684.457.744.744 0 0 1-.54 1.009.739.739 0 1 1-.144-1.466Zm0 30.167a.743.743 0 0 1 .684.457.743.743 0 0 1-.54 1.008.738.738 0 0 1-.667-1.249.744.744 0 0 1 .523-.216Zm0 50.277a.744.744 0 0 1 .684.457c.055.135.07.284.042.428a.747.747 0 0 1-1.009.539.74.74 0 0 1 .283-1.424Zm0-10.055a.736.736 0 0 1 .684.457.744.744 0 0 1-.54 1.009.743.743 0 0 1-.884-.726.74.74 0 0 1 .74-.74Zm0-20.112a.744.744 0 0 1 .683.457.747.747 0 0 1 .043.428.745.745 0 0 1-.582.581.735.735 0 0 1-.759-.314.736.736 0 0 1 .092-.935.738.738 0 0 1 .523-.217Zm0-10.055a.736.736 0 0 1 .684.457.745.745 0 0 1-.54 1.009.743.743 0 0 1-.76-.315.743.743 0 0 1 .333-1.095.744.744 0 0 1 .283-.056Zm0 20.111a.744.744 0 0 1 .684.457.745.745 0 0 1-.54 1.009.743.743 0 0 1-.76-.315.743.743 0 0 1 .333-1.095.744.744 0 0 1 .283-.056Zm-8.708-25.139a.744.744 0 0 1 .683.457.737.737 0 0 1-.161.807.744.744 0 0 1-.806.16.738.738 0 0 1-.4-.967.75.75 0 0 1 .684-.457Zm0 50.278a.736.736 0 0 1 .683.457.737.737 0 0 1-.161.806.738.738 0 0 1-1.263-.523c0-.097.019-.193.057-.283a.735.735 0 0 1 .684-.457Zm0-30.167a.744.744 0 0 1 .683.457.737.737 0 0 1-.161.807.736.736 0 0 1-.806.16.738.738 0 0 1-.4-.967.732.732 0 0 1 .4-.401.745.745 0 0 1 .284-.056Zm0 10.056a.736.736 0 0 1 .683.457.735.735 0 0 1-.161.806.738.738 0 0 1-1.263-.523c0-.097.019-.194.057-.283a.735.735 0 0 1 .684-.457Zm-.001-20.111a.737.737 0 0 1 .684.457.735.735 0 0 1-.161.806.738.738 0 0 1-1.263-.523.736.736 0 0 1 .74-.74Zm0-20.111a.737.737 0 0 1 .684.457.735.735 0 0 1-.161.806.738.738 0 0 1-1.263-.523.731.731 0 0 1 .217-.524.748.748 0 0 1 .523-.216Zm0 70.388a.745.745 0 0 1 .684.457.738.738 0 0 1-.539 1.009.737.737 0 0 1-.76-.314.744.744 0 0 1 .092-.935.732.732 0 0 1 .523-.217Zm0 30.167a.745.745 0 0 1 .684.457.737.737 0 0 1-.161.806.738.738 0 0 1-1.263-.523c0-.097.019-.193.057-.283a.75.75 0 0 1 .683-.457Zm0-10.055a.737.737 0 0 1 .684.457.735.735 0 0 1-.161.806.738.738 0 0 1-1.263-.523.731.731 0 0 1 .217-.524.748.748 0 0 1 .523-.216Zm0-10.056a.745.745 0 0 1 .684.457.737.737 0 0 1-.161.806.738.738 0 0 1-1.263-.523c0-.097.019-.193.057-.283a.735.735 0 0 1 .683-.457Zm60.958-115.639a.737.737 0 0 1 .684.457.743.743 0 0 1-.16.806.737.737 0 0 1-1.139-.112.738.738 0 0 1 .092-.934.74.74 0 0 1 .523-.217Zm8.709 65.361a.744.744 0 0 1 .683.457.746.746 0 0 1 .043.428.74.74 0 1 1-.726-.885Zm0-70.388a.743.743 0 0 1 .684.457.743.743 0 0 1-.54 1.008.738.738 0 0 1-.667-1.249.737.737 0 0 1 .523-.216Zm0 10.055a.736.736 0 0 1 .683.457.746.746 0 0 1 .043.428.745.745 0 0 1-.582.581.743.743 0 0 1-.76-.315.743.743 0 0 1 .093-.934.738.738 0 0 1 .523-.217Zm-8.709 125.695a.744.744 0 0 1 .684.456.746.746 0 0 1 .043.428.745.745 0 0 1-.582.581.738.738 0 0 1-.884-.726c0-.196.078-.384.216-.523a.743.743 0 0 1 .523-.216Zm8.709-115.64a.744.744 0 0 1 .683.457.747.747 0 0 1 .043.428.735.735 0 0 1-1.009.539.737.737 0 0 1-.457-.683.74.74 0 0 1 .74-.741Zm0 30.167a.744.744 0 0 1 .683.457.746.746 0 0 1 .043.428.747.747 0 0 1-1.009.539.74.74 0 0 1 .283-1.424Zm-8.709 75.417c.147 0 .29.043.412.124a.745.745 0 0 1 .315.76.737.737 0 0 1-.582.582.743.743 0 0 1-.76-.315.743.743 0 0 1 .092-.934.74.74 0 0 1 .523-.217Zm-26.125-85.472a.744.744 0 0 1 .684.456.74.74 0 1 1-.684-.456Zm34.834-10.056a.744.744 0 0 1 .683.457.746.746 0 0 1 .043.428.745.745 0 0 1-.582.581.743.743 0 0 1-.76-.315.743.743 0 0 1 .093-.934.738.738 0 0 1 .523-.217Zm0 10.056a.736.736 0 0 1 .683.457.743.743 0 0 1-.16.806.74.74 0 1 1-.523-1.263Zm0-50.278a.736.736 0 0 1 .683.457.743.743 0 0 1-.16.806.74.74 0 1 1-.523-1.263Zm-8.709 65.361a.737.737 0 0 1 .684.457.743.743 0 0 1-.16.806.737.737 0 0 1-1.139-.112.743.743 0 0 1 .092-.934.74.74 0 0 1 .523-.217Zm0-10.055a.744.744 0 0 1 .684.456.747.747 0 0 1 .043.428.745.745 0 0 1-.582.581.738.738 0 0 1-.884-.726c0-.196.078-.384.216-.523a.743.743 0 0 1 .523-.216Zm0-10.056c.147 0 .29.043.412.124a.745.745 0 0 1 .315.76.737.737 0 0 1-.582.582.743.743 0 0 1-.76-.315.743.743 0 0 1 .092-.934.74.74 0 0 1 .523-.217Zm0-10.056a.745.745 0 0 1 .684.457.743.743 0 0 1-.16.806.737.737 0 0 1-1.139-.112.738.738 0 0 1 .092-.934.74.74 0 0 1 .523-.217Zm0-10.055a.744.744 0 0 1 .684.456.74.74 0 1 1-.684-.456Zm0 100.555a.745.745 0 0 1 .684.457.743.743 0 0 1-.16.806.737.737 0 0 1-1.139-.112.738.738 0 0 1 .092-.934.74.74 0 0 1 .523-.217Zm0-20.111a.737.737 0 0 1 .684.457.743.743 0 0 1-.16.806.737.737 0 0 1-1.139-.112.738.738 0 0 1 .092-.934.74.74 0 0 1 .523-.217Zm0 10.056a.744.744 0 0 1 .684.456.74.74 0 1 1-.684-.456Zm0-20.111a.744.744 0 0 1 .684.456.74.74 0 1 1-.684-.456Zm0-10.056a.737.737 0 0 1 .684.457.743.743 0 0 1-.16.806.737.737 0 0 1-1.139-.112.74.74 0 0 1 .615-1.151Zm0-10.056a.745.745 0 0 1 .684.457.738.738 0 0 1-.539 1.009.735.735 0 0 1-.759-.314.743.743 0 0 1 .614-1.152Zm8.709-85.472a.744.744 0 0 1 .683.457.746.746 0 0 1 .043.428.74.74 0 1 1-.726-.885Zm8.708 85.472a.745.745 0 0 1 .684.457.738.738 0 0 1-.539 1.009.737.737 0 0 1-.76-.314.744.744 0 0 1 .092-.935.732.732 0 0 1 .523-.217Zm0 10.056a.745.745 0 0 1 .684.457.737.737 0 0 1-.161.806.738.738 0 0 1-1.263-.523c0-.097.019-.193.057-.283a.735.735 0 0 1 .683-.457Zm0-30.166c.147 0 .29.043.412.124a.745.745 0 0 1 .314.76.737.737 0 0 1-.582.581.735.735 0 0 1-.759-.315.74.74 0 0 1 .615-1.15Zm0 40.222a.737.737 0 0 1 .684.457.735.735 0 0 1-.161.806.738.738 0 0 1-1.263-.523.731.731 0 0 1 .217-.524.748.748 0 0 1 .523-.216Zm0-30.167a.737.737 0 0 1 .684.457.737.737 0 0 1-.161.806.738.738 0 0 1-1.263-.523c0-.097.019-.193.057-.283a.735.735 0 0 1 .683-.457Zm0 70.389a.737.737 0 0 1 .684.457.735.735 0 0 1-.161.806.738.738 0 0 1-1.263-.523.736.736 0 0 1 .74-.74Zm0-100.556a.745.745 0 0 1 .684.457.737.737 0 0 1-.161.807.736.736 0 0 1-.806.16.738.738 0 0 1-.4-.967.732.732 0 0 1 .4-.401.744.744 0 0 1 .283-.056Zm0 110.612c.147 0 .29.043.412.124a.745.745 0 0 1 .314.76.737.737 0 0 1-.582.581.735.735 0 0 1-.759-.315.74.74 0 0 1 .615-1.15Zm0-30.167a.737.737 0 0 1 .684.457.735.735 0 0 1-.161.806.738.738 0 0 1-1.263-.523.736.736 0 0 1 .74-.74Zm0-10.056a.745.745 0 0 1 .684.457.737.737 0 0 1-.161.807.744.744 0 0 1-.806.16.738.738 0 0 1-.4-.967.75.75 0 0 1 .683-.457Zm0 20.111a.745.745 0 0 1 .684.457.737.737 0 0 1-.161.807.736.736 0 0 1-.806.16.738.738 0 0 1-.4-.967.732.732 0 0 1 .4-.401.744.744 0 0 1 .283-.056Zm-8.708-15.083a.736.736 0 0 1 .683.457.746.746 0 0 1 .043.428.745.745 0 0 1-.582.581.743.743 0 0 1-.76-.315.743.743 0 0 1 .093-.934.738.738 0 0 1 .523-.217Zm0 30.167a.736.736 0 0 1 .683.457.743.743 0 0 1-.16.806.74.74 0 1 1-.523-1.263Zm0-10.056a.744.744 0 0 1 .683.457.746.746 0 0 1 .043.428.745.745 0 0 1-.582.581.743.743 0 0 1-.76-.315.74.74 0 0 1 .616-1.151Zm0-10.056a.744.744 0 0 1 .683.457.747.747 0 0 1 .043.428.735.735 0 0 1-1.009.539.737.737 0 0 1-.457-.683.74.74 0 0 1 .74-.741Zm0-20.11a.743.743 0 0 1 .684.457.743.743 0 0 1-.54 1.008.738.738 0 0 1-.667-1.249.737.737 0 0 1 .523-.216Zm8.708-75.417a.737.737 0 0 1 .684.457.735.735 0 0 1-.161.806.738.738 0 0 1-1.263-.523.736.736 0 0 1 .74-.74Zm-8.708 65.361a.736.736 0 0 1 .683.457.743.743 0 0 1-.16.806.74.74 0 1 1-.523-1.263Zm8.708-85.472a.737.737 0 0 1 .684.457.735.735 0 0 1-.161.806.738.738 0 0 1-1.263-.523.731.731 0 0 1 .217-.524.748.748 0 0 1 .523-.216Zm0 10.055a.745.745 0 0 1 .684.457.737.737 0 0 1-.161.807.744.744 0 0 1-.806.16.738.738 0 0 1-.4-.967.75.75 0 0 1 .683-.457Zm-8.708 135.75a.744.744 0 0 1 .683.457.746.746 0 0 1 .043.428.745.745 0 0 1-.582.581.743.743 0 0 1-.76-.315.738.738 0 0 1 .093-.934.738.738 0 0 1 .523-.217Zm8.708-165.917a.745.745 0 0 1 .684.457.738.738 0 0 1-.539 1.009.737.737 0 0 1-.76-.314.744.744 0 0 1 .092-.935.732.732 0 0 1 .523-.217Zm0 10.056a.745.745 0 0 1 .684.457.737.737 0 0 1-.161.806.738.738 0 0 1-1.263-.523c0-.097.019-.193.057-.283a.735.735 0 0 1 .683-.457Zm-8.708 75.417a.736.736 0 0 1 .683.457.743.743 0 0 1-.16.806.74.74 0 1 1-.523-1.263Zm-26.125-45.25a.743.743 0 0 1 .684.456.738.738 0 0 1-.16.807.745.745 0 0 1-.807.161.738.738 0 0 1-.457-.684.738.738 0 0 1 .74-.74Zm0 90.5a.743.743 0 0 1 .684.456.738.738 0 0 1-.16.807.745.745 0 0 1-.807.161.738.738 0 0 1-.457-.684.738.738 0 0 1 .74-.74Zm0-70.389a.743.743 0 0 1 .684.457.735.735 0 0 1-.16.806.745.745 0 0 1-.807.161.738.738 0 0 1-.457-.684.74.74 0 0 1 .74-.74Zm0-30.167a.736.736 0 0 1 .684.457.735.735 0 0 1-.16.806.745.745 0 0 1-.807.161.738.738 0 0 1-.457-.684.74.74 0 0 1 .74-.74Zm0-10.055a.743.743 0 0 1 .684.456.738.738 0 0 1-.16.807.752.752 0 0 1-.379.203.746.746 0 0 1-.76-.315.738.738 0 0 1 .615-1.151Zm0 50.278a.743.743 0 0 1 .684.456.738.738 0 0 1-.539 1.009.737.737 0 0 1-.76-.314.745.745 0 0 1 .092-.935.743.743 0 0 1 .523-.216Zm0 10.055a.736.736 0 0 1 .684.457.735.735 0 0 1-.16.806.745.745 0 0 1-.807.161.738.738 0 0 1-.457-.684.74.74 0 0 1 .74-.74Zm0 30.167a.743.743 0 0 1 .684.456.738.738 0 0 1-.16.807.752.752 0 0 1-.379.203.746.746 0 0 1-.76-.315.738.738 0 0 1 .615-1.151Zm0 10.055a.736.736 0 0 1 .684.457.735.735 0 0 1-.16.806.745.745 0 0 1-.807.161.738.738 0 0 1-.457-.684.74.74 0 0 1 .74-.74Zm0-30.167a.744.744 0 0 1 .684.457.737.737 0 0 1-.16.806.737.737 0 0 1-.807.161.742.742 0 0 1-.457-.683.74.74 0 0 1 .74-.741Zm0 10.056a.736.736 0 0 1 .684.457.735.735 0 0 1-.16.806.745.745 0 0 1-.807.161.738.738 0 0 1-.457-.684.74.74 0 0 1 .74-.74Zm0-50.278a.744.744 0 0 1 .684.457.735.735 0 0 1-.16.806.745.745 0 0 1-.807.161.738.738 0 0 1-.457-.684.74.74 0 0 1 .74-.74Zm-8.709 55.306c.147 0 .29.043.412.124a.745.745 0 0 1 .315.76.737.737 0 0 1-.582.582.743.743 0 0 1-.76-.315.743.743 0 0 1 .092-.934.74.74 0 0 1 .523-.217Zm0 10.056a.744.744 0 0 1 .684.456.747.747 0 0 1 .043.428.745.745 0 0 1-.582.581.738.738 0 0 1-.884-.726c0-.196.078-.384.216-.523a.743.743 0 0 1 .523-.216Zm0-40.223a.737.737 0 0 1 .684.457.743.743 0 0 1-.16.806.737.737 0 0 1-1.139-.112.738.738 0 0 1 .092-.934.74.74 0 0 1 .523-.217Zm0 10.056a.744.744 0 0 1 .684.456.74.74 0 1 1-.684-.456Zm0 10.055a.745.745 0 0 1 .684.457.743.743 0 0 1-.16.806.737.737 0 0 1-1.139-.112.738.738 0 0 1 .092-.934.74.74 0 0 1 .523-.217Zm0 30.167a.737.737 0 0 1 .684.457.743.743 0 0 1-.16.806.737.737 0 0 1-1.139-.112.743.743 0 0 1 .092-.934.74.74 0 0 1 .523-.217Zm0 30.167a.744.744 0 0 1 .684.456.74.74 0 1 1-.684-.456Zm0 10.055a.737.737 0 0 1 .684.457.743.743 0 0 1-.16.806.737.737 0 0 1-1.139-.112.738.738 0 0 1 .092-.934.74.74 0 0 1 .523-.217Zm0-30.167a.745.745 0 0 1 .684.457.738.738 0 0 1-.539 1.009.735.735 0 0 1-.759-.314.743.743 0 0 1 .614-1.152Zm0 10.056a.737.737 0 0 1 .684.457.743.743 0 0 1-.16.806.737.737 0 0 1-1.139-.112.74.74 0 0 1 .615-1.151Zm17.417-10.056a.745.745 0 0 1 .684.457.738.738 0 0 1-.539 1.009.737.737 0 0 1-.76-.314.744.744 0 0 1 .092-.935.732.732 0 0 1 .523-.217Zm0-20.11c.147 0 .29.043.412.124a.745.745 0 0 1 .314.76.737.737 0 0 1-.582.581.735.735 0 0 1-.759-.315.74.74 0 0 1 .615-1.15Zm0 10.055a.737.737 0 0 1 .684.457.737.737 0 0 1-.161.806.738.738 0 0 1-1.263-.523c0-.097.019-.193.057-.283a.735.735 0 0 1 .683-.457Zm0-40.222a.737.737 0 0 1 .684.457.735.735 0 0 1-.161.806.738.738 0 0 1-1.263-.523.736.736 0 0 1 .74-.74Zm0 10.055a.745.745 0 0 1 .684.457.737.737 0 0 1-.161.807.736.736 0 0 1-.806.16.738.738 0 0 1-.4-.967.732.732 0 0 1 .4-.401.744.744 0 0 1 .283-.056Zm8.708-75.416a.744.744 0 0 1 .684.456.74.74 0 1 1-.684-.456Zm-8.708 85.472a.737.737 0 0 1 .684.457.735.735 0 0 1-.161.806.738.738 0 0 1-1.263-.523c0-.097.019-.194.057-.283a.735.735 0 0 1 .683-.457Zm8.708-95.528a.737.737 0 0 1 .684.457.743.743 0 0 1-.16.806.737.737 0 0 1-1.139-.112.74.74 0 0 1 .615-1.151Zm-8.708 135.75a.745.745 0 0 1 .684.457.737.737 0 0 1-.161.806.738.738 0 0 1-1.263-.523c0-.097.019-.193.057-.283a.735.735 0 0 1 .683-.457Zm0 10.056a.737.737 0 0 1 .684.457.735.735 0 0 1-.161.806.738.738 0 0 1-1.263-.523.731.731 0 0 1 .217-.524.748.748 0 0 1 .523-.216Zm0 10.055a.745.745 0 0 1 .684.457.737.737 0 0 1-.161.806.738.738 0 0 1-1.263-.523c0-.097.019-.193.057-.283a.75.75 0 0 1 .683-.457Zm0-150.833a.737.737 0 0 1 .684.457.735.735 0 0 1-.161.806.738.738 0 0 1-1.263-.523c0-.097.019-.194.057-.283a.735.735 0 0 1 .683-.457Zm-8.708 125.694a.744.744 0 0 1 .684.457.735.735 0 0 1-.16.806.745.745 0 0 1-.807.161.738.738 0 0 1-.457-.684.74.74 0 0 1 .74-.74Zm0 10.056a.743.743 0 0 1 .684.457.735.735 0 0 1-.16.806.745.745 0 0 1-.807.161.738.738 0 0 1-.457-.684.74.74 0 0 1 .74-.74Zm0 10.056a.743.743 0 0 1 .684.456.737.737 0 0 1-.161.807.736.736 0 0 1-.806.16.742.742 0 0 1-.457-.684.74.74 0 0 1 .74-.739Zm8.708-115.64a.745.745 0 0 1 .684.457.738.738 0 0 1-.539 1.009.737.737 0 0 1-.76-.314.744.744 0 0 1 .092-.935.732.732 0 0 1 .523-.217Zm0 10.056a.745.745 0 0 1 .684.457.737.737 0 0 1-.161.806.738.738 0 0 1-1.263-.523c0-.097.019-.193.057-.283a.735.735 0 0 1 .683-.457Zm0 10.056a.737.737 0 0 1 .684.457.735.735 0 0 1-.161.806.738.738 0 0 1-1.263-.523.731.731 0 0 1 .217-.524.748.748 0 0 1 .523-.216Zm0 10.055a.745.745 0 0 1 .684.457.737.737 0 0 1-.161.807.744.744 0 0 1-.806.16.738.738 0 0 1-.4-.967.75.75 0 0 1 .683-.457Zm0-40.222a.737.737 0 0 1 .684.457.737.737 0 0 1-.161.806.738.738 0 0 1-1.263-.523c0-.097.019-.193.057-.283a.735.735 0 0 1 .683-.457Zm0-10.055c.147 0 .29.043.412.124a.745.745 0 0 1 .314.76.737.737 0 0 1-.582.581.735.735 0 0 1-.759-.315.74.74 0 0 1 .615-1.15Zm26.125 35.194a.737.737 0 0 1 .684.457.735.735 0 0 1-.161.806.738.738 0 0 1-1.263-.523c0-.097.019-.194.057-.283a.735.735 0 0 1 .683-.457Zm-156.75-50.278a.745.745 0 0 1 .684.457.737.737 0 0 1-.161.806.738.738 0 0 1-1.263-.523c0-.097.019-.193.057-.283a.735.735 0 0 1 .683-.457Zm0 10.056a.737.737 0 0 1 .684.457.735.735 0 0 1-.161.806.738.738 0 0 1-1.263-.523.731.731 0 0 1 .217-.524.748.748 0 0 1 .523-.216Zm0-20.112a.745.745 0 0 1 .684.457.738.738 0 0 1-.539 1.009.737.737 0 0 1-.76-.314.744.744 0 0 1 .092-.935.732.732 0 0 1 .523-.217Zm-8.708 165.917a.736.736 0 0 1 .684.457.735.735 0 0 1-.16.806.745.745 0 0 1-.807.161.738.738 0 0 1-.457-.684.74.74 0 0 1 .74-.74Zm0-10.055a.743.743 0 0 1 .684.456.738.738 0 0 1-.16.807.752.752 0 0 1-.379.203.746.746 0 0 1-.76-.315.738.738 0 0 1 .615-1.151Zm8.708-65.362a.745.745 0 0 1 .684.457.738.738 0 0 1-.539 1.009.737.737 0 0 1-.76-.314.744.744 0 0 1 .092-.935.732.732 0 0 1 .523-.217Zm-8.708 55.306a.736.736 0 0 1 .684.457.735.735 0 0 1-.16.806.745.745 0 0 1-.807.161.738.738 0 0 1-.457-.684.74.74 0 0 1 .74-.74Zm0-140.778a.744.744 0 0 1 .684.457.735.735 0 0 1-.16.806.745.745 0 0 1-.807.161.738.738 0 0 1-.457-.684.74.74 0 0 1 .74-.74Zm0 100.556a.743.743 0 0 1 .684.457.735.735 0 0 1-.16.806.745.745 0 0 1-.807.161.738.738 0 0 1-.457-.684.74.74 0 0 1 .74-.74Zm0-80.444a.743.743 0 0 1 .684.456.738.738 0 0 1-.539 1.009.737.737 0 0 1-.76-.314.745.745 0 0 1 .092-.935.743.743 0 0 1 .523-.216Zm0-10.056a.743.743 0 0 1 .684.457.735.735 0 0 1-.16.806.745.745 0 0 1-.807.161.738.738 0 0 1-.457-.684.74.74 0 0 1 .74-.74Zm0 110.611a.736.736 0 0 1 .684.457.735.735 0 0 1-.16.806.745.745 0 0 1-.807.161.738.738 0 0 1-.457-.684.74.74 0 0 1 .74-.74Zm8.708-25.139a.745.745 0 0 1 .684.457.737.737 0 0 1-.161.806.738.738 0 0 1-1.263-.523c0-.097.019-.193.057-.283a.735.735 0 0 1 .683-.457Zm-8.708 35.194a.744.744 0 0 1 .684.457.737.737 0 0 1-.16.806.737.737 0 0 1-.807.161.742.742 0 0 1-.457-.683.74.74 0 0 1 .74-.741Zm0-20.11a.743.743 0 0 1 .684.456.738.738 0 0 1-.539 1.009.737.737 0 0 1-.76-.314.745.745 0 0 1 .092-.935.743.743 0 0 1 .523-.216Zm0-20.112a.744.744 0 0 1 .684.457.735.735 0 0 1-.16.806.745.745 0 0 1-.807.161.738.738 0 0 1-.457-.684.74.74 0 0 1 .74-.74Zm17.417 10.056a.736.736 0 0 1 .683.457.735.735 0 0 1-.16.806.74.74 0 1 1-.523-1.263Zm0 20.111a.736.736 0 0 1 .683.457.737.737 0 0 1-.16.806.74.74 0 1 1-.523-1.263Zm0-30.167a.744.744 0 0 1 .683.457.737.737 0 0 1-.16.807.74.74 0 1 1-.523-1.264Zm0 20.112a.743.743 0 0 1 .684.457.743.743 0 0 1-.54 1.008.738.738 0 0 1-.667-1.249.744.744 0 0 1 .523-.216Zm0-30.167a.736.736 0 0 1 .683.457.735.735 0 0 1-.16.806.74.74 0 1 1-.523-1.263Zm8.708-85.473a.744.744 0 0 1 .684.457.737.737 0 0 1-.16.806.737.737 0 0 1-.807.161.742.742 0 0 1-.457-.683.74.74 0 0 1 .74-.741Zm0 10.056a.736.736 0 0 1 .684.457.735.735 0 0 1-.16.806.745.745 0 0 1-.807.161.738.738 0 0 1-.457-.684.74.74 0 0 1 .74-.74Zm-8.708 155.861a.744.744 0 0 1 .683.457.737.737 0 0 1-.16.806.74.74 0 1 1-.523-1.263Zm0-20.111a.744.744 0 0 1 .683.457.737.737 0 0 1-.16.806.74.74 0 1 1-.523-1.263Zm0-10.056a.744.744 0 0 1 .683.457.747.747 0 0 1 .043.428.735.735 0 0 1-1.009.539.737.737 0 0 1-.457-.683.74.74 0 0 1 .74-.741Zm-8.709-25.138a.737.737 0 0 1 .684.457.735.735 0 0 1-.161.806.738.738 0 0 1-1.263-.523.731.731 0 0 1 .217-.524.748.748 0 0 1 .523-.216Zm8.709 45.25a.736.736 0 0 1 .683.457.735.735 0 0 1-.16.806.74.74 0 1 1-.523-1.263Zm-8.709-5.028a.737.737 0 0 1 .684.457.735.735 0 0 1-.161.806.738.738 0 0 1-1.263-.523.736.736 0 0 1 .74-.74Zm0 10.056c.147 0 .29.043.412.124a.745.745 0 0 1 .314.76.737.737 0 0 1-.582.581.735.735 0 0 1-.759-.315.74.74 0 0 1 .615-1.15Zm0-40.223a.745.745 0 0 1 .684.457.737.737 0 0 1-.161.807.744.744 0 0 1-.806.16.738.738 0 0 1-.4-.967.75.75 0 0 1 .683-.457Zm8.709-125.694a.736.736 0 0 1 .683.457.735.735 0 0 1-.16.806.74.74 0 1 1-.523-1.263Zm-8.709 145.805a.745.745 0 0 1 .684.457.737.737 0 0 1-.161.807.736.736 0 0 1-.806.16.738.738 0 0 1-.4-.967.732.732 0 0 1 .4-.401.744.744 0 0 1 .283-.056Zm8.709-125.694a.736.736 0 0 1 .683.457.735.735 0 0 1-.16.806.74.74 0 1 1-.523-1.263Zm0-10.056a.744.744 0 0 1 .683.457.737.737 0 0 1-.16.807.74.74 0 1 1-.523-1.264Zm-8.709 125.695a.737.737 0 0 1 .684.457.735.735 0 0 1-.161.806.738.738 0 0 1-1.263-.523.736.736 0 0 1 .74-.74Zm-34.833 30.167a.743.743 0 0 1 .684.456.737.737 0 0 1-.161.807.736.736 0 0 1-.806.16.742.742 0 0 1-.457-.684.74.74 0 0 1 .74-.739Zm0-10.056a.743.743 0 0 1 .684.457.735.735 0 0 1-.16.806.745.745 0 0 1-.807.161.738.738 0 0 1-.457-.684.74.74 0 0 1 .74-.74Zm8.708-155.861a.737.737 0 0 1 .684.457.735.735 0 0 1-.161.806.738.738 0 0 1-1.263-.523.736.736 0 0 1 .74-.74Zm-8.708 125.694a.736.736 0 0 1 .684.457.735.735 0 0 1-.16.806.745.745 0 0 1-.807.161.738.738 0 0 1-.457-.684.74.74 0 0 1 .74-.74Zm0 10.056a.743.743 0 0 1 .684.456.738.738 0 0 1-.16.807.745.745 0 0 1-.807.161.738.738 0 0 1-.457-.684.738.738 0 0 1 .74-.74Zm8.708-125.695a.745.745 0 0 1 .684.457.737.737 0 0 1-.161.807.736.736 0 0 1-.806.16.738.738 0 0 1-.4-.967.732.732 0 0 1 .4-.401.744.744 0 0 1 .283-.056Zm-8.708 135.75a.744.744 0 0 1 .684.457.735.735 0 0 1-.16.806.745.745 0 0 1-.807.161.738.738 0 0 1-.457-.684.74.74 0 0 1 .74-.74Zm8.708-125.694a.737.737 0 0 1 .684.457.735.735 0 0 1-.161.806.738.738 0 0 1-1.263-.523c0-.097.019-.194.057-.283a.735.735 0 0 1 .683-.457Zm0 20.111a.737.737 0 0 1 .684.457.737.737 0 0 1-.161.806.738.738 0 0 1-1.263-.523c0-.097.019-.193.057-.283a.735.735 0 0 1 .683-.457Zm0-10.055c.147 0 .29.043.412.124a.745.745 0 0 1 .314.76.737.737 0 0 1-.582.581.735.735 0 0 1-.759-.315.74.74 0 0 1 .615-1.15Zm-8.708-15.084a.736.736 0 0 1 .684.457.735.735 0 0 1-.16.806.745.745 0 0 1-.807.161.738.738 0 0 1-.457-.684.74.74 0 0 1 .74-.74Zm0 20.111a.736.736 0 0 1 .684.457.735.735 0 0 1-.16.806.745.745 0 0 1-.807.161.738.738 0 0 1-.457-.684.74.74 0 0 1 .74-.74Zm0 10.056a.743.743 0 0 1 .684.456.738.738 0 0 1-.16.807.745.745 0 0 1-.807.161.738.738 0 0 1-.457-.684.738.738 0 0 1 .74-.74Zm0-20.111a.743.743 0 0 1 .684.456.738.738 0 0 1-.539 1.009.737.737 0 0 1-.76-.314.738.738 0 0 1 .615-1.151Zm0 90.5a.743.743 0 0 1 .684.456.738.738 0 0 1-.539 1.009.737.737 0 0 1-.76-.314.738.738 0 0 1 .615-1.151Zm0-110.612a.744.744 0 0 1 .684.457.737.737 0 0 1-.16.806.737.737 0 0 1-.807.161.742.742 0 0 1-.457-.683.74.74 0 0 1 .74-.741Zm17.417 0a.744.744 0 0 1 .683.457.747.747 0 0 1 .043.428.735.735 0 0 1-1.009.539.737.737 0 0 1-.401-.967.736.736 0 0 1 .684-.457Zm0 100.556a.744.744 0 0 1 .683.457.737.737 0 0 1-.16.806.74.74 0 1 1-.523-1.263Zm0 20.111a.744.744 0 0 1 .683.457.737.737 0 0 1-.16.807.747.747 0 0 1-.806.16.74.74 0 0 1 .283-1.424Zm0 30.167a.736.736 0 0 1 .683.457.735.735 0 0 1-.16.806.74.74 0 1 1-.523-1.263Zm0-10.056a.744.744 0 0 1 .683.457.737.737 0 0 1-.16.807.74.74 0 1 1-.523-1.264Zm0-10.055a.736.736 0 0 1 .683.457.735.735 0 0 1-.16.806.74.74 0 1 1-.523-1.263Zm0-20.111a.736.736 0 0 1 .683.457.735.735 0 0 1-.16.806.74.74 0 1 1-.523-1.263Zm0 50.278a.743.743 0 0 1 .684.457.743.743 0 0 1-.54 1.008.738.738 0 0 1-.667-1.249.744.744 0 0 1 .523-.216Zm-8.709-15.084a.745.745 0 0 1 .684.457.737.737 0 0 1-.161.806.738.738 0 0 1-1.263-.523c0-.097.019-.193.057-.283a.735.735 0 0 1 .683-.457Zm0-20.111a.737.737 0 0 1 .684.457.737.737 0 0 1-.161.806.738.738 0 0 1-1.263-.523c0-.097.019-.193.057-.283a.735.735 0 0 1 .683-.457Zm0 10.055a.745.745 0 0 1 .684.457.738.738 0 0 1-.539 1.009.737.737 0 0 1-.76-.314.744.744 0 0 1 .092-.935.732.732 0 0 1 .523-.217Zm0-20.11c.147 0 .29.043.412.124a.745.745 0 0 1 .314.76.737.737 0 0 1-.582.581.735.735 0 0 1-.759-.315.74.74 0 0 1 .615-1.15Zm0-10.056a.737.737 0 0 1 .684.457.735.735 0 0 1-.161.806.738.738 0 0 1-1.263-.523c0-.097.019-.194.057-.283a.735.735 0 0 1 .683-.457Zm8.709-85.472a.736.736 0 0 1 .683.457.735.735 0 0 1-.16.806.74.74 0 1 1-.523-1.263Zm-8.709 135.75a.737.737 0 0 1 .684.457.735.735 0 0 1-.161.806.738.738 0 0 1-1.263-.523.731.731 0 0 1 .217-.524.748.748 0 0 1 .523-.216Zm8.709-125.695a.744.744 0 0 1 .683.457.737.737 0 0 1-.16.807.747.747 0 0 1-.807.16.743.743 0 0 1-.4-.967.74.74 0 0 1 .684-.457Zm0-20.111a.744.744 0 0 1 .683.457.737.737 0 0 1-.16.806.74.74 0 1 1-.523-1.263Zm-8.709 155.861a.745.745 0 0 1 .684.457.737.737 0 0 1-.161.806.738.738 0 0 1-1.263-.523c0-.097.019-.193.057-.283a.75.75 0 0 1 .683-.457Zm17.417-170.944a.743.743 0 0 1 .684.456.738.738 0 0 1-.16.807.745.745 0 0 1-.807.161.738.738 0 0 1-.457-.684.738.738 0 0 1 .74-.74Zm52.25 120.667a.743.743 0 0 1 .684.456.738.738 0 0 1-.539 1.009.737.737 0 0 1-.76-.314.745.745 0 0 1 .092-.935.743.743 0 0 1 .523-.216Zm0 50.277a.736.736 0 0 1 .684.457.735.735 0 0 1-.16.806.745.745 0 0 1-.807.161.738.738 0 0 1-.457-.684.74.74 0 0 1 .74-.74Zm0-10.055a.743.743 0 0 1 .684.456.738.738 0 0 1-.16.807.752.752 0 0 1-.379.203.746.746 0 0 1-.76-.315.738.738 0 0 1 .615-1.151Zm0-10.056a.736.736 0 0 1 .684.457.735.735 0 0 1-.16.806.745.745 0 0 1-.807.161.738.738 0 0 1-.457-.684.74.74 0 0 1 .74-.74Zm0-10.056a.744.744 0 0 1 .684.457.737.737 0 0 1-.16.806.737.737 0 0 1-.807.161.742.742 0 0 1-.457-.683.74.74 0 0 1 .74-.741Zm8.708-75.416a.737.737 0 0 1 .684.457.735.735 0 0 1-.161.806.738.738 0 0 1-1.263-.523c0-.097.019-.194.057-.283a.735.735 0 0 1 .683-.457Zm0 10.056c.147 0 .29.043.412.124a.745.745 0 0 1 .314.76.737.737 0 0 1-.582.581.735.735 0 0 1-.759-.315.74.74 0 0 1 .615-1.15Zm-8.708 55.305a.736.736 0 0 1 .684.457.735.735 0 0 1-.16.806.745.745 0 0 1-.807.161.738.738 0 0 1-.457-.684.74.74 0 0 1 .74-.74Zm8.708-45.25a.737.737 0 0 1 .684.457.737.737 0 0 1-.161.806.738.738 0 0 1-1.263-.523c0-.097.019-.193.057-.283a.735.735 0 0 1 .683-.457Zm8.709 85.472a.744.744 0 0 1 .684.457.745.745 0 0 1-.54 1.009.743.743 0 0 1-.76-.315.738.738 0 0 1 .093-.934.74.74 0 0 1 .523-.217Zm-17.417-70.389a.744.744 0 0 1 .684.457.735.735 0 0 1-.16.806.745.745 0 0 1-.807.161.738.738 0 0 1-.457-.684.74.74 0 0 1 .74-.74Zm0-30.166a.743.743 0 0 1 .684.456.738.738 0 0 1-.16.807.752.752 0 0 1-.379.203.746.746 0 0 1-.76-.315.738.738 0 0 1 .615-1.151Zm0 40.222a.743.743 0 0 1 .684.457.735.735 0 0 1-.16.806.745.745 0 0 1-.807.161.738.738 0 0 1-.457-.684.74.74 0 0 1 .74-.74Zm0-20.111a.743.743 0 0 1 .684.456.738.738 0 0 1-.16.807.745.745 0 0 1-.807.161.738.738 0 0 1-.457-.684.738.738 0 0 1 .74-.74Zm0-10.056a.736.736 0 0 1 .684.457.735.735 0 0 1-.16.806.745.745 0 0 1-.807.161.738.738 0 0 1-.457-.684.74.74 0 0 1 .74-.74Zm8.708 55.306a.737.737 0 0 1 .684.457.735.735 0 0 1-.161.806.738.738 0 0 1-1.263-.523.736.736 0 0 1 .74-.74Zm8.709-55.306a.744.744 0 0 1 .683.457.746.746 0 0 1 .043.428.747.747 0 0 1-1.009.539.74.74 0 0 1 .283-1.424Zm0 10.056a.736.736 0 0 1 .683.457.743.743 0 0 1-.16.806.74.74 0 1 1-.523-1.263Zm0 10.055a.744.744 0 0 1 .683.457.746.746 0 0 1 .043.428.74.74 0 1 1-.726-.885Zm0 10.056a.736.736 0 0 1 .683.457.743.743 0 0 1-.16.806.74.74 0 1 1-.523-1.263Zm0-40.222a.736.736 0 0 1 .683.457.743.743 0 0 1-.16.806.74.74 0 1 1-.523-1.263Zm0-10.056a.744.744 0 0 1 .683.457.746.746 0 0 1 .043.428.745.745 0 0 1-.582.581.743.743 0 0 1-.76-.315.743.743 0 0 1 .333-1.095.744.744 0 0 1 .283-.056Zm0 80.444a.744.744 0 0 1 .683.457.747.747 0 0 1 .043.428.735.735 0 0 1-1.009.539.737.737 0 0 1-.457-.683.74.74 0 0 1 .74-.741Zm0-20.11a.743.743 0 0 1 .684.457.743.743 0 0 1-.54 1.008.738.738 0 0 1-.667-1.249.744.744 0 0 1 .523-.216Zm0 30.166a.744.744 0 0 1 .683.457.746.746 0 0 1 .043.428.745.745 0 0 1-.582.581.743.743 0 0 1-.76-.315.74.74 0 0 1 .616-1.151Zm0 10.056a.736.736 0 0 1 .683.457.743.743 0 0 1-.16.806.74.74 0 1 1-.523-1.263Zm0-30.167a.736.736 0 0 1 .683.457.746.746 0 0 1 .043.428.745.745 0 0 1-.582.581.743.743 0 0 1-.76-.315.743.743 0 0 1 .333-1.095.744.744 0 0 1 .283-.056Zm-8.709 25.139a.737.737 0 0 1 .684.457.735.735 0 0 1-.161.806.738.738 0 0 1-1.263-.523.736.736 0 0 1 .74-.74Zm0-30.167a.745.745 0 0 1 .684.457.737.737 0 0 1-.161.807.744.744 0 0 1-.806.16.738.738 0 0 1-.4-.967.75.75 0 0 1 .683-.457Zm0-30.167a.745.745 0 0 1 .684.457.738.738 0 0 1-.539 1.009.737.737 0 0 1-.76-.314.744.744 0 0 1 .092-.935.732.732 0 0 1 .523-.217Zm-8.708-95.527a.743.743 0 0 1 .684.456.738.738 0 0 1-.16.807.745.745 0 0 1-.807.161.738.738 0 0 1-.457-.684.738.738 0 0 1 .74-.74Zm8.708 115.639a.737.737 0 0 1 .684.457.735.735 0 0 1-.161.806.738.738 0 0 1-1.263-.523.731.731 0 0 1 .217-.524.748.748 0 0 1 .523-.216Zm0-10.056a.745.745 0 0 1 .684.457.737.737 0 0 1-.161.806.738.738 0 0 1-1.263-.523c0-.097.019-.193.057-.283a.735.735 0 0 1 .683-.457Zm0 40.222a.745.745 0 0 1 .684.457.737.737 0 0 1-.161.807.736.736 0 0 1-.806.16.738.738 0 0 1-.4-.967.732.732 0 0 1 .4-.401.744.744 0 0 1 .283-.056Zm0 20.112c.147 0 .29.043.412.124a.745.745 0 0 1 .314.76.737.737 0 0 1-.582.581.735.735 0 0 1-.759-.315.74.74 0 0 1 .615-1.15Zm-17.416-30.167a.736.736 0 0 1 .683.457.743.743 0 0 1-.16.806.74.74 0 1 1-.523-1.263Zm-8.709-135.75a.737.737 0 0 1 .684.457.735.735 0 0 1-.161.806.738.738 0 0 1-1.263-.523.736.736 0 0 1 .74-.74Zm0 10.055a.745.745 0 0 1 .684.457.737.737 0 0 1-.161.807.736.736 0 0 1-.806.16.738.738 0 0 1-.4-.967.732.732 0 0 1 .4-.401.744.744 0 0 1 .283-.056Zm0 100.556a.737.737 0 0 1 .684.457.735.735 0 0 1-.161.806.738.738 0 0 1-1.263-.523c0-.097.019-.194.057-.283a.735.735 0 0 1 .683-.457Zm0-10.056a.745.745 0 0 1 .684.457.737.737 0 0 1-.161.807.736.736 0 0 1-.806.16.738.738 0 0 1-.4-.967.732.732 0 0 1 .4-.401.744.744 0 0 1 .283-.056Zm-8.708 65.362a.743.743 0 0 1 .684.456.737.737 0 0 1-.161.807.736.736 0 0 1-.806.16.742.742 0 0 1-.457-.684.74.74 0 0 1 .74-.739Zm8.708-75.417a.737.737 0 0 1 .684.457.735.735 0 0 1-.161.806.738.738 0 0 1-1.263-.523.736.736 0 0 1 .74-.74Zm-8.708-5.028a.736.736 0 0 1 .684.457.735.735 0 0 1-.16.806.745.745 0 0 1-.807.161.738.738 0 0 1-.457-.684.74.74 0 0 1 .74-.74Zm8.708 35.195c.147 0 .29.043.412.124a.745.745 0 0 1 .314.76.737.737 0 0 1-.582.581.735.735 0 0 1-.759-.315.74.74 0 0 1 .615-1.15Zm-8.708 35.194a.743.743 0 0 1 .684.457.735.735 0 0 1-.16.806.745.745 0 0 1-.807.161.738.738 0 0 1-.457-.684.74.74 0 0 1 .74-.74Zm0-60.334a.744.744 0 0 1 .684.457.737.737 0 0 1-.16.806.737.737 0 0 1-.807.161.742.742 0 0 1-.457-.683.74.74 0 0 1 .74-.741Zm0 40.223a.743.743 0 0 1 .684.456.738.738 0 0 1-.16.807.745.745 0 0 1-.807.161.738.738 0 0 1-.457-.684.738.738 0 0 1 .74-.74Zm0 10.055a.744.744 0 0 1 .684.457.735.735 0 0 1-.16.806.745.745 0 0 1-.807.161.738.738 0 0 1-.457-.684.74.74 0 0 1 .74-.74Zm0-30.166a.743.743 0 0 1 .684.456.738.738 0 0 1-.16.807.752.752 0 0 1-.379.203.746.746 0 0 1-.76-.315.738.738 0 0 1 .615-1.151Zm0 10.055a.736.736 0 0 1 .684.457.735.735 0 0 1-.16.806.745.745 0 0 1-.807.161.738.738 0 0 1-.457-.684.74.74 0 0 1 .74-.74Zm0-20.111a.736.736 0 0 1 .684.457.735.735 0 0 1-.16.806.745.745 0 0 1-.807.161.738.738 0 0 1-.457-.684.74.74 0 0 1 .74-.74Zm8.708-25.139a.745.745 0 0 1 .684.457.737.737 0 0 1-.161.807.744.744 0 0 1-.806.16.738.738 0 0 1-.4-.967.75.75 0 0 1 .683-.457Zm8.709 45.25a.744.744 0 0 1 .683.457.746.746 0 0 1 .043.428.747.747 0 0 1-1.01.539.743.743 0 0 1-.4-.967.735.735 0 0 1 .401-.401.744.744 0 0 1 .283-.056Zm0 20.111a.744.744 0 0 1 .683.457.746.746 0 0 1 .043.428.74.74 0 1 1-.726-.885Zm0 10.056a.736.736 0 0 1 .683.457.743.743 0 0 1-.16.806.74.74 0 1 1-.523-1.263Zm0-50.278a.744.744 0 0 1 .683.457.746.746 0 0 1 .043.428.745.745 0 0 1-.582.581.743.743 0 0 1-.828-1.009.74.74 0 0 1 .684-.457Zm0-10.056a.744.744 0 0 1 .683.457.747.747 0 0 1 .043.428.735.735 0 0 1-1.009.539.737.737 0 0 1-.457-.683.74.74 0 0 1 .74-.741Zm0-20.11a.743.743 0 0 1 .684.457.743.743 0 0 1-.54 1.008.738.738 0 0 1-.667-1.249.744.744 0 0 1 .523-.216Zm0 10.055a.736.736 0 0 1 .683.457.746.746 0 0 1 .043.428.745.745 0 0 1-.582.581.743.743 0 0 1-.828-1.009.724.724 0 0 1 .161-.24.724.724 0 0 1 .523-.217Zm-8.709 45.25a.737.737 0 0 1 .684.457.737.737 0 0 1-.161.806.738.738 0 0 1-1.263-.523c0-.097.019-.193.057-.283a.735.735 0 0 1 .683-.457Zm0 30.167a.737.737 0 0 1 .684.457.735.735 0 0 1-.161.806.738.738 0 0 1-1.263-.523.731.731 0 0 1 .217-.524.748.748 0 0 1 .523-.216Zm8.709 5.028a.743.743 0 0 1 .684.457.743.743 0 0 1-.54 1.008.738.738 0 0 1-.667-1.249.744.744 0 0 1 .523-.216Zm-8.709 5.027a.745.745 0 0 1 .684.457.737.737 0 0 1-.161.806.738.738 0 0 1-1.263-.523c0-.097.019-.193.057-.283a.75.75 0 0 1 .683-.457Zm0-30.167a.745.745 0 0 1 .684.457.738.738 0 0 1-.539 1.009.737.737 0 0 1-.76-.314.744.744 0 0 1 .092-.935.732.732 0 0 1 .523-.217Zm0 10.056a.745.745 0 0 1 .684.457.737.737 0 0 1-.161.806.738.738 0 0 1-1.263-.523c0-.097.019-.193.057-.283a.735.735 0 0 1 .683-.457Zm8.709-145.806a.744.744 0 0 1 .683.457.747.747 0 0 1 .043.428.735.735 0 0 1-1.009.539.737.737 0 0 1-.457-.683.74.74 0 0 1 .74-.741Zm0 110.612a.736.736 0 0 1 .683.457.743.743 0 0 1-.16.806.74.74 0 1 1-.523-1.263ZM209 486.955a.743.743 0 0 1 .684.457.743.743 0 0 1-.54 1.008.738.738 0 0 1-.667-1.249.744.744 0 0 1 .523-.216Zm0 40.222a.736.736 0 0 1 .683.457.735.735 0 0 1-.16.806.74.74 0 1 1-.523-1.263Zm0-10.056a.744.744 0 0 1 .683.457.737.737 0 0 1-.16.806.74.74 0 1 1-.523-1.263Zm0-20.111a.736.736 0 0 1 .683.457.737.737 0 0 1-.16.806.74.74 0 1 1-.523-1.263Zm0 10.055a.744.744 0 0 1 .683.457.747.747 0 0 1 .043.428.735.735 0 0 1-1.009.539.737.737 0 0 1-.401-.967.736.736 0 0 1 .684-.457Zm0-120.666a.736.736 0 0 1 .683.457.735.735 0 0 1-.16.806.74.74 0 1 1-.523-1.263Zm0-10.056a.744.744 0 0 1 .683.457.737.737 0 0 1-.16.807.74.74 0 1 1-.523-1.264Zm0-10.055a.736.736 0 0 1 .683.457.735.735 0 0 1-.16.806.74.74 0 1 1-.523-1.263Zm0 30.167a.743.743 0 0 1 .684.457.743.743 0 0 1-.54 1.008.738.738 0 0 1-.667-1.249.744.744 0 0 1 .523-.216Zm0 20.11a.744.744 0 0 1 .683.457.747.747 0 0 1 .043.428.735.735 0 0 1-1.009.539.737.737 0 0 1-.401-.967.736.736 0 0 1 .684-.457Zm0-10.055a.736.736 0 0 1 .683.457.737.737 0 0 1-.16.806.74.74 0 1 1-.523-1.263Zm0 130.722a.744.744 0 0 1 .683.457.737.737 0 0 1-.16.806.74.74 0 1 1-.523-1.263Zm-69.667-10.055a.743.743 0 0 1 .684.456.738.738 0 0 1-.16.807.752.752 0 0 1-.379.203.746.746 0 0 1-.76-.315.738.738 0 0 1 .615-1.151Zm-8.708 5.028a.743.743 0 0 1 .684.457.743.743 0 0 1-.54 1.008.738.738 0 0 1-.667-1.249.744.744 0 0 1 .523-.216Zm8.708-95.528a.743.743 0 0 1 .684.456.738.738 0 0 1-.16.807.752.752 0 0 1-.379.203.746.746 0 0 1-.76-.315.738.738 0 0 1 .615-1.151Zm0 20.111a.743.743 0 0 1 .684.456.738.738 0 0 1-.16.807.745.745 0 0 1-.807.161.738.738 0 0 1-.457-.684.738.738 0 0 1 .74-.74Zm0-30.167a.736.736 0 0 1 .684.457.735.735 0 0 1-.16.806.745.745 0 0 1-.807.161.738.738 0 0 1-.457-.684.74.74 0 0 1 .74-.74Zm0 20.111a.736.736 0 0 1 .684.457.735.735 0 0 1-.16.806.745.745 0 0 1-.807.161.738.738 0 0 1-.457-.684.74.74 0 0 1 .74-.74Zm0-30.167a.744.744 0 0 1 .684.457.737.737 0 0 1-.16.806.737.737 0 0 1-.807.161.742.742 0 0 1-.457-.683.74.74 0 0 1 .74-.741Zm0-10.055a.736.736 0 0 1 .684.457.735.735 0 0 1-.16.806.745.745 0 0 1-.807.161.738.738 0 0 1-.457-.684.74.74 0 0 1 .74-.74Zm8.708 125.695c.147 0 .29.043.412.124a.745.745 0 0 1 .314.76.737.737 0 0 1-.582.581.735.735 0 0 1-.759-.315.74.74 0 0 1 .615-1.15Zm0-10.056a.737.737 0 0 1 .684.457.735.735 0 0 1-.161.806.738.738 0 0 1-1.263-.523.736.736 0 0 1 .74-.74Zm8.708-115.639a.737.737 0 0 1 .684.457.743.743 0 0 1-.16.806.737.737 0 0 1-1.139-.112.743.743 0 0 1 .092-.934.74.74 0 0 1 .523-.217Zm0 10.055a.745.745 0 0 1 .684.457.738.738 0 0 1-.539 1.009.735.735 0 0 1-.759-.314.743.743 0 0 1 .614-1.152Zm0-20.11a.744.744 0 0 1 .684.456.746.746 0 0 1 .043.428.745.745 0 0 1-.582.581.738.738 0 0 1-.884-.726c0-.196.078-.384.216-.523a.743.743 0 0 1 .523-.216Zm-8.708 45.25c.147 0 .29.043.412.124a.745.745 0 0 1 .314.76.737.737 0 0 1-.582.581.735.735 0 0 1-.759-.315.74.74 0 0 1 .615-1.15Zm0-30.167a.737.737 0 0 1 .684.457.735.735 0 0 1-.161.806.738.738 0 0 1-1.263-.523.736.736 0 0 1 .74-.74Zm0-10.056a.745.745 0 0 1 .684.457.737.737 0 0 1-.161.807.744.744 0 0 1-.806.16.738.738 0 0 1-.4-.967.75.75 0 0 1 .683-.457Zm0 50.278a.737.737 0 0 1 .684.457.737.737 0 0 1-.161.806.738.738 0 0 1-1.263-.523c0-.097.019-.193.057-.283a.735.735 0 0 1 .683-.457Zm0-30.167a.745.745 0 0 1 .684.457.737.737 0 0 1-.161.807.736.736 0 0 1-.806.16.738.738 0 0 1-.4-.967.732.732 0 0 1 .4-.401.744.744 0 0 1 .283-.056Zm0 10.056a.737.737 0 0 1 .684.457.735.735 0 0 1-.161.806.738.738 0 0 1-1.263-.523c0-.097.019-.194.057-.283a.735.735 0 0 1 .683-.457Zm-8.708 105.583a.736.736 0 0 1 .684.457.735.735 0 0 1-.16.806.745.745 0 0 1-.807.161.738.738 0 0 1-.457-.684.74.74 0 0 1 .74-.74Zm-26.125-65.361a.736.736 0 0 1 .684.457.735.735 0 0 1-.16.806.745.745 0 0 1-.807.161.738.738 0 0 1-.457-.684.74.74 0 0 1 .74-.74Zm8.708-55.306a.745.745 0 0 1 .684.457.738.738 0 0 1-.539 1.009.737.737 0 0 1-.76-.314.744.744 0 0 1 .092-.935.732.732 0 0 1 .523-.217Zm-8.708 45.25a.744.744 0 0 1 .684.457.737.737 0 0 1-.16.806.737.737 0 0 1-.807.161.742.742 0 0 1-.457-.683.74.74 0 0 1 .74-.741Zm8.708-35.194a.745.745 0 0 1 .684.457.737.737 0 0 1-.161.806.738.738 0 0 1-1.263-.523c0-.097.019-.193.057-.283a.735.735 0 0 1 .683-.457Zm34.833 0a.737.737 0 0 1 .684.457.743.743 0 0 1-.16.806.737.737 0 0 1-1.139-.112.74.74 0 0 1 .615-1.151Zm-43.541 25.139a.736.736 0 0 1 .684.457.735.735 0 0 1-.16.806.745.745 0 0 1-.807.161.738.738 0 0 1-.457-.684.74.74 0 0 1 .74-.74Zm0-10.055a.743.743 0 0 1 .684.456.738.738 0 0 1-.539 1.009.737.737 0 0 1-.76-.314.745.745 0 0 1 .092-.935.743.743 0 0 1 .523-.216Zm0-20.112a.744.744 0 0 1 .684.457.735.735 0 0 1-.16.806.745.745 0 0 1-.807.161.738.738 0 0 1-.457-.684.74.74 0 0 1 .74-.74Zm0 10.056a.743.743 0 0 1 .684.457.735.735 0 0 1-.16.806.745.745 0 0 1-.807.161.738.738 0 0 1-.457-.684.74.74 0 0 1 .74-.74Zm17.417-10.056a.744.744 0 0 1 .684.457.745.745 0 0 1-.161.807.74.74 0 1 1-.523-1.264Zm0 10.056a.736.736 0 0 1 .684.457.743.743 0 0 1-.967.967.74.74 0 0 1 .283-1.424Zm0-20.111a.736.736 0 0 1 .684.457.743.743 0 0 1-.54 1.009.739.739 0 1 1-.144-1.466Zm0 30.167a.743.743 0 0 1 .684.457.743.743 0 0 1-.54 1.008.738.738 0 0 1-.667-1.249.744.744 0 0 1 .523-.216Zm0 20.11a.744.744 0 0 1 .683.457.747.747 0 0 1 .043.428.735.735 0 0 1-1.009.539.737.737 0 0 1-.457-.683.74.74 0 0 1 .74-.741Zm0-10.055a.736.736 0 0 1 .684.457.745.745 0 0 1-.161.806.74.74 0 1 1-.523-1.263Zm-8.708-5.028a.744.744 0 0 1 .683.457.737.737 0 0 1-.161.807.744.744 0 0 1-.806.16.738.738 0 0 1-.4-.967.75.75 0 0 1 .684-.457Zm0 20.111a.744.744 0 0 1 .683.457.737.737 0 0 1-.161.807.736.736 0 0 1-.806.16.738.738 0 0 1-.4-.967.732.732 0 0 1 .4-.401.745.745 0 0 1 .284-.056Zm-.001-10.055a.737.737 0 0 1 .684.457.735.735 0 0 1-.161.806.738.738 0 0 1-1.263-.523.736.736 0 0 1 .74-.74Zm0-20.111a.737.737 0 0 1 .684.457.735.735 0 0 1-.161.806.738.738 0 0 1-1.263-.523.731.731 0 0 1 .217-.524.748.748 0 0 1 .523-.216Zm0 100.555a.745.745 0 0 1 .684.457.737.737 0 0 1-.161.806.738.738 0 0 1-1.263-.523c0-.097.019-.193.057-.283a.75.75 0 0 1 .683-.457Zm60.958-135.75a.737.737 0 0 1 .684.457.743.743 0 0 1-.16.806.737.737 0 0 1-1.139-.112.738.738 0 0 1 .092-.934.74.74 0 0 1 .523-.217Zm8.709-5.027a.743.743 0 0 1 .684.457.743.743 0 0 1-.54 1.008.738.738 0 0 1-.667-1.249.737.737 0 0 1 .523-.216Zm0 10.055a.736.736 0 0 1 .683.457.746.746 0 0 1 .043.428.745.745 0 0 1-.582.581.742.742 0 0 1-.884-.726.738.738 0 0 1 .74-.74Zm-8.709 125.695a.744.744 0 0 1 .684.456.746.746 0 0 1 .043.428.745.745 0 0 1-.582.581.738.738 0 0 1-.884-.726c0-.196.078-.384.216-.523a.743.743 0 0 1 .523-.216Zm8.709-115.64a.744.744 0 0 1 .683.457.747.747 0 0 1 .043.428.735.735 0 0 1-1.009.539.737.737 0 0 1-.457-.683.74.74 0 0 1 .74-.741Zm-8.709 105.584c.147 0 .29.043.412.124a.745.745 0 0 1 .315.76.737.737 0 0 1-.582.582.743.743 0 0 1-.76-.315.743.743 0 0 1 .092-.934.74.74 0 0 1 .523-.217Zm-26.125-85.472a.744.744 0 0 1 .684.456.74.74 0 1 1-.684-.456Zm34.834-10.056a.744.744 0 0 1 .683.457.746.746 0 0 1 .043.428.745.745 0 0 1-.582.581.742.742 0 0 1-.884-.726.74.74 0 0 1 .74-.74Zm0-40.222a.736.736 0 0 1 .683.457.743.743 0 0 1-.16.806.74.74 0 1 1-.523-1.263Zm-8.709 45.25c.147 0 .29.043.412.124a.745.745 0 0 1 .315.76.737.737 0 0 1-.582.582.743.743 0 0 1-.76-.315.743.743 0 0 1 .092-.934.74.74 0 0 1 .523-.217Zm0-10.056a.745.745 0 0 1 .684.457.743.743 0 0 1-.16.806.737.737 0 0 1-1.139-.112.738.738 0 0 1 .092-.934.74.74 0 0 1 .523-.217Zm0-10.055a.744.744 0 0 1 .684.456.74.74 0 1 1-.684-.456Zm0 100.555a.745.745 0 0 1 .684.457.743.743 0 0 1-.16.806.737.737 0 0 1-1.139-.112.738.738 0 0 1 .092-.934.74.74 0 0 1 .523-.217Zm0-10.055a.744.744 0 0 1 .684.456.74.74 0 1 1-.684-.456Zm8.709-125.695a.744.744 0 0 1 .683.457.746.746 0 0 1 .043.428.74.74 0 1 1-.726-.885Zm8.708 145.806a.737.737 0 0 1 .684.457.735.735 0 0 1-.161.806.738.738 0 0 1-1.263-.523.736.736 0 0 1 .74-.74Zm0-100.556a.745.745 0 0 1 .684.457.737.737 0 0 1-.161.807.736.736 0 0 1-.806.16.738.738 0 0 1-.4-.967.732.732 0 0 1 .4-.401.744.744 0 0 1 .283-.056Zm0 110.612c.147 0 .29.043.412.124a.745.745 0 0 1 .314.76.737.737 0 0 1-.582.581.735.735 0 0 1-.759-.315.74.74 0 0 1 .615-1.15Zm0-30.167a.737.737 0 0 1 .684.457.735.735 0 0 1-.161.806.738.738 0 0 1-1.263-.523.736.736 0 0 1 .74-.74Zm0-10.056a.745.745 0 0 1 .684.457.737.737 0 0 1-.161.807.744.744 0 0 1-.806.16.738.738 0 0 1-.4-.967.75.75 0 0 1 .683-.457Zm0 20.111a.745.745 0 0 1 .684.457.737.737 0 0 1-.161.807.736.736 0 0 1-.806.16.738.738 0 0 1-.4-.967.732.732 0 0 1 .4-.401.744.744 0 0 1 .283-.056Zm-8.708-15.083a.736.736 0 0 1 .683.457.746.746 0 0 1 .043.428.745.745 0 0 1-.582.581.742.742 0 0 1-.884-.726.738.738 0 0 1 .74-.74Zm0 30.167a.736.736 0 0 1 .683.457.743.743 0 0 1-.16.806.74.74 0 1 1-.523-1.263Zm0-10.056a.744.744 0 0 1 .683.457.746.746 0 0 1 .043.428.745.745 0 0 1-.582.581.742.742 0 0 1-.884-.726.74.74 0 0 1 .74-.74Zm0-10.056a.744.744 0 0 1 .683.457.747.747 0 0 1 .043.428.735.735 0 0 1-1.009.539.737.737 0 0 1-.457-.683.74.74 0 0 1 .74-.741Zm8.708-95.527a.737.737 0 0 1 .684.457.735.735 0 0 1-.161.806.738.738 0 0 1-1.263-.523.736.736 0 0 1 .74-.74Zm0-20.111a.737.737 0 0 1 .684.457.735.735 0 0 1-.161.806.738.738 0 0 1-1.263-.523.731.731 0 0 1 .217-.524.748.748 0 0 1 .523-.216Zm0 10.055a.745.745 0 0 1 .684.457.737.737 0 0 1-.161.807.744.744 0 0 1-.806.16.738.738 0 0 1-.4-.967.75.75 0 0 1 .683-.457Zm-8.708 135.75a.744.744 0 0 1 .683.457.746.746 0 0 1 .043.428.745.745 0 0 1-.582.581.742.742 0 0 1-.884-.726.74.74 0 0 1 .74-.74Zm8.708-165.917a.745.745 0 0 1 .684.457.738.738 0 0 1-.539 1.009.737.737 0 0 1-.76-.314.744.744 0 0 1 .092-.935.732.732 0 0 1 .523-.217Zm0 10.056a.745.745 0 0 1 .684.457.737.737 0 0 1-.161.806.738.738 0 0 1-1.263-.523c0-.097.019-.193.057-.283a.735.735 0 0 1 .683-.457Zm-34.833 30.167a.743.743 0 0 1 .684.456.738.738 0 0 1-.16.807.745.745 0 0 1-.807.161.738.738 0 0 1-.457-.684.738.738 0 0 1 .74-.74Zm0 20.111a.743.743 0 0 1 .684.457.735.735 0 0 1-.16.806.745.745 0 0 1-.807.161.738.738 0 0 1-.457-.684.74.74 0 0 1 .74-.74Zm0-30.167a.736.736 0 0 1 .684.457.735.735 0 0 1-.16.806.745.745 0 0 1-.807.161.738.738 0 0 1-.457-.684.74.74 0 0 1 .74-.74Zm0-10.055a.743.743 0 0 1 .684.456.738.738 0 0 1-.16.807.752.752 0 0 1-.379.203.746.746 0 0 1-.76-.315.738.738 0 0 1 .615-1.151Zm0 50.278a.743.743 0 0 1 .684.456.738.738 0 0 1-.539 1.009.737.737 0 0 1-.76-.314.745.745 0 0 1 .092-.935.743.743 0 0 1 .523-.216Zm0-20.112a.744.744 0 0 1 .684.457.735.735 0 0 1-.16.806.745.745 0 0 1-.807.161.738.738 0 0 1-.457-.684.74.74 0 0 1 .74-.74Zm-8.709 25.139a.737.737 0 0 1 .684.457.743.743 0 0 1-.16.806.737.737 0 0 1-1.139-.112.738.738 0 0 1 .092-.934.74.74 0 0 1 .523-.217Zm0 80.445a.744.744 0 0 1 .684.456.74.74 0 1 1-.684-.456Zm0 10.055a.737.737 0 0 1 .684.457.743.743 0 0 1-.16.806.737.737 0 0 1-1.139-.112.738.738 0 0 1 .092-.934.74.74 0 0 1 .523-.217Zm0-20.111a.737.737 0 0 1 .684.457.743.743 0 0 1-.16.806.737.737 0 0 1-1.139-.112.74.74 0 0 1 .615-1.151Zm17.417-10.056a.745.745 0 0 1 .684.457.738.738 0 0 1-.539 1.009.737.737 0 0 1-.76-.314.744.744 0 0 1 .092-.935.732.732 0 0 1 .523-.217Zm8.708-115.638a.744.744 0 0 1 .684.456.74.74 0 1 1-.684-.456Zm0-10.056a.737.737 0 0 1 .684.457.743.743 0 0 1-.16.806.737.737 0 0 1-1.139-.112.74.74 0 0 1 .615-1.151Zm-8.708 135.75a.745.745 0 0 1 .684.457.737.737 0 0 1-.161.806.738.738 0 0 1-1.263-.523c0-.097.019-.193.057-.283a.735.735 0 0 1 .683-.457Zm0 10.056a.737.737 0 0 1 .684.457.735.735 0 0 1-.161.806.738.738 0 0 1-1.263-.523.731.731 0 0 1 .217-.524.748.748 0 0 1 .523-.216Zm0 10.055a.745.745 0 0 1 .684.457.737.737 0 0 1-.161.806.738.738 0 0 1-1.263-.523c0-.097.019-.193.057-.283a.75.75 0 0 1 .683-.457Zm0-150.833a.737.737 0 0 1 .684.457.735.735 0 0 1-.161.806.738.738 0 0 1-1.263-.523c0-.097.019-.194.057-.283a.735.735 0 0 1 .683-.457Zm-8.708 125.694a.744.744 0 0 1 .684.457.735.735 0 0 1-.16.806.745.745 0 0 1-.807.161.738.738 0 0 1-.457-.684.74.74 0 0 1 .74-.74Zm0 10.056a.743.743 0 0 1 .684.457.735.735 0 0 1-.16.806.745.745 0 0 1-.807.161.738.738 0 0 1-.457-.684.74.74 0 0 1 .74-.74Zm0 10.056a.743.743 0 0 1 .684.456.737.737 0 0 1-.161.807.736.736 0 0 1-.806.16.742.742 0 0 1-.457-.684.74.74 0 0 1 .74-.739Zm8.708-115.64a.745.745 0 0 1 .684.457.738.738 0 0 1-.539 1.009.737.737 0 0 1-.76-.314.744.744 0 0 1 .092-.935.732.732 0 0 1 .523-.217Zm0 10.056a.745.745 0 0 1 .684.457.737.737 0 0 1-.161.806.738.738 0 0 1-1.263-.523c0-.097.019-.193.057-.283a.735.735 0 0 1 .683-.457Zm0 10.056a.737.737 0 0 1 .684.457.735.735 0 0 1-.161.806.738.738 0 0 1-1.263-.523.731.731 0 0 1 .217-.524.748.748 0 0 1 .523-.216Zm0-30.167a.737.737 0 0 1 .684.457.737.737 0 0 1-.161.806.738.738 0 0 1-1.263-.523c0-.097.019-.193.057-.283a.735.735 0 0 1 .683-.457Zm0-10.055c.147 0 .29.043.412.124a.745.745 0 0 1 .314.76.737.737 0 0 1-.582.581.735.735 0 0 1-.759-.315.74.74 0 0 1 .615-1.15Zm-130.625 65.36a.742.742 0 0 1 .726.885.745.745 0 0 1-.581.581.737.737 0 0 1-.76-.314.742.742 0 0 1 .615-1.152Zm-8.708 55.306a.735.735 0 0 1 .684.457.738.738 0 0 1-.54 1.009.745.745 0 0 1-.759-.315.738.738 0 0 1 .615-1.151Zm0-40.222a.742.742 0 0 1 .684.457.738.738 0 0 1-.54 1.009.745.745 0 0 1-.759-.315.74.74 0 0 1 .615-1.151Zm0 20.111a.735.735 0 0 1 .684.457.738.738 0 0 1-.54 1.009.745.745 0 0 1-.759-.315.74.74 0 0 1 .615-1.151Zm8.708-25.139a.742.742 0 0 1 .726.885.738.738 0 0 1-.582.581.745.745 0 0 1-.76-.315.741.741 0 0 1 .616-1.151Zm-8.708 35.194a.743.743 0 0 1 .726.885.738.738 0 0 1-1.009.539.743.743 0 0 1-.457-.683.742.742 0 0 1 .74-.741Zm0-20.11a.742.742 0 0 1 .684.456.74.74 0 1 1-.684-.456Zm0-20.112a.743.743 0 0 1 .684.457.738.738 0 0 1-.54 1.009.736.736 0 0 1-.759-.315.736.736 0 0 1 .092-.934.739.739 0 0 1 .523-.217Zm17.417 10.056a.735.735 0 0 1 .683.457.739.739 0 1 1-.683-.457Zm0 20.111a.735.735 0 0 1 .683.457.741.741 0 0 1-.967.967.739.739 0 0 1 .284-1.424Zm0-30.167a.743.743 0 0 1 .725.885.745.745 0 0 1-.581.581.736.736 0 0 1-.76-.315.736.736 0 0 1 .333-1.094.726.726 0 0 1 .283-.057Zm0 20.112a.741.741 0 0 1 .725.884.736.736 0 0 1-.581.581.736.736 0 0 1-.76-.315.736.736 0 0 1 .093-.934.732.732 0 0 1 .523-.216Zm0-30.167a.735.735 0 0 1 .683.457.739.739 0 1 1-.683-.457Zm0 50.277a.743.743 0 0 1 .725.885.745.745 0 0 1-.58.581.737.737 0 0 1-.76-.314.742.742 0 0 1 .615-1.152Zm-8.709-25.138a.734.734 0 0 1 .684.457.74.74 0 1 1-.684-.457Zm0 10.055a.742.742 0 0 1 .726.885.745.745 0 0 1-.582.581.736.736 0 0 1-.76-.315.736.736 0 0 1 .093-.934.75.75 0 0 1 .523-.217Zm0 20.111a.742.742 0 0 1 .726.885.745.745 0 0 1-.582.581.736.736 0 0 1-.76-.315.736.736 0 0 1 .093-.934.75.75 0 0 1 .523-.217Zm0-10.055a.734.734 0 0 1 .684.457.74.74 0 1 1-.684-.457ZM8.708 532.205a.742.742 0 0 1 .684.456.74.74 0 1 1-.684-.456Zm0-10.056a.742.742 0 0 1 .684.457.738.738 0 0 1-.54 1.009.745.745 0 0 1-.759-.315.741.741 0 0 1 .615-1.151Zm0-30.167a.735.735 0 0 1 .684.457.738.738 0 0 1-.54 1.009.745.745 0 0 1-.759-.315.736.736 0 0 1 .092-.934.739.739 0 0 1 .523-.217Zm0 10.056a.742.742 0 0 1 .684.456.742.742 0 0 1-.967.968.739.739 0 0 1 .283-1.424Zm0 10.055a.743.743 0 0 1 .726.884.736.736 0 0 1-.581.582.737.737 0 0 1-.76-.315.736.736 0 0 1 .092-.934.739.739 0 0 1 .523-.217Zm0-30.166a.742.742 0 0 1 .684.456.742.742 0 0 1-.54 1.009.737.737 0 0 1-.759-.314.741.741 0 0 1 .615-1.151Zm17.417-10.056a.742.742 0 0 1 .726.885.738.738 0 0 1-.582.581.745.745 0 0 1-.76-.315.741.741 0 0 1 .616-1.151Zm0 20.111a.742.742 0 0 1 .726.885.745.745 0 0 1-.582.581.736.736 0 0 1-.76-.315.736.736 0 0 1 .093-.934.75.75 0 0 1 .523-.217Zm0 30.167a.734.734 0 0 1 .684.457.739.739 0 1 1-.684-.457Zm0-10.056a.742.742 0 0 1 .726.885.745.745 0 0 1-.582.581.736.736 0 0 1-.76-.315.736.736 0 0 1 .093-.934.75.75 0 0 1 .523-.217Zm0-10.055a.734.734 0 0 1 .684.457.739.739 0 1 1-.684-.457Zm0-20.111a.734.734 0 0 1 .684.457.739.739 0 1 1-.684-.457Zm-8.709 35.194a.742.742 0 0 1 .726.885.738.738 0 0 1-.581.581.745.745 0 0 1-.76-.315.741.741 0 0 1 .616-1.151Zm0-20.111a.734.734 0 0 1 .684.457.741.741 0 0 1-.967.967.739.739 0 0 1 .284-1.424Zm0 10.055a.742.742 0 0 1 .726.885.745.745 0 0 1-.581.581.736.736 0 0 1-.76-.314.742.742 0 0 1 .616-1.152Zm0-20.11a.742.742 0 0 1 .684.457.738.738 0 0 1-.54 1.008.736.736 0 0 1-.76-.315.736.736 0 0 1 .093-.934.733.733 0 0 1 .524-.216Zm0-10.056a.734.734 0 0 1 .684.457.739.739 0 1 1-.683-.457Zm0 50.278a.734.734 0 0 1 .684.457.74.74 0 1 1-.683-.457Zm69.667-40.222a.742.742 0 0 1 .684.456.74.74 0 1 1-.684-.456Zm8.709-55.306a.734.734 0 0 1 .683.457.739.739 0 1 1-.684-.457Zm0 10.056a.742.742 0 0 1 .683.457.738.738 0 0 1-.54 1.008.736.736 0 0 1-.76-.315.736.736 0 0 1 .093-.934.733.733 0 0 1 .524-.216Zm0 10.055a.734.734 0 0 1 .683.457.741.741 0 0 1-.967.967.739.739 0 0 1 .283-1.424Zm-8.709 15.083a.743.743 0 0 1 .726.884.737.737 0 0 1-.581.582.736.736 0 0 1-.76-.315.736.736 0 0 1 .092-.934.739.739 0 0 1 .523-.217Zm0-30.166a.742.742 0 0 1 .684.456.742.742 0 0 1-.54 1.01.745.745 0 0 1-.759-.315.74.74 0 0 1 .615-1.151Zm0 40.222a.742.742 0 0 1 .684.457.738.738 0 0 1-.54 1.009.745.745 0 0 1-.759-.315.74.74 0 0 1 .615-1.151Zm0-20.111a.742.742 0 0 1 .684.456.742.742 0 0 1-.967.968.739.739 0 0 1 .283-1.424Zm0-10.056a.735.735 0 0 1 .684.457.738.738 0 0 1-.54 1.009.736.736 0 0 1-.759-.315.736.736 0 0 1 .092-.934.739.739 0 0 1 .523-.217Zm17.417 0a.744.744 0 0 1 .683.457.737.737 0 0 1-.16.807.747.747 0 0 1-.807.16.743.743 0 0 1-.4-.967.735.735 0 0 1 .401-.401.744.744 0 0 1 .283-.056Zm0 10.056a.736.736 0 0 1 .683.457.735.735 0 0 1-.16.806.74.74 0 1 1-.523-1.263Zm0 10.055a.744.744 0 0 1 .683.457.737.737 0 0 1-.16.807.74.74 0 1 1-.523-1.264Zm0 10.056a.736.736 0 0 1 .683.457.735.735 0 0 1-.16.806.74.74 0 1 1-.523-1.263Zm0-40.222a.736.736 0 0 1 .683.457.735.735 0 0 1-.16.806.74.74 0 1 1-.523-1.263Zm0-10.056a.744.744 0 0 1 .683.457.737.737 0 0 1-.16.806.74.74 0 1 1-.523-1.263Zm-8.709 35.194a.742.742 0 0 1 .726.885.744.744 0 0 1-.581.581.736.736 0 0 1-.76-.314.742.742 0 0 1 .615-1.152Zm0 20.112a.734.734 0 0 1 .684.457.739.739 0 1 1-.684-.457Zm0-10.056a.742.742 0 0 1 .726.885.738.738 0 0 1-.582.581.745.745 0 0 1-.76-.315.741.741 0 0 1 .616-1.151Zm-26.124 5.028a.734.734 0 0 1 .683.457.74.74 0 1 1-.684-.457Zm0-10.056a.742.742 0 0 1 .725.885.745.745 0 0 1-.582.581.736.736 0 0 1-.76-.315.736.736 0 0 1 .093-.934.75.75 0 0 1 .523-.217Zm0-10.055a.734.734 0 0 1 .683.457.74.74 0 1 1-.684-.457Zm-8.709-5.028a.735.735 0 0 1 .684.457.738.738 0 0 1-.54 1.009.745.745 0 0 1-.759-.315.74.74 0 0 1 .615-1.151Zm8.709 35.195a.741.741 0 0 1 .725.884.736.736 0 0 1-.582.581.736.736 0 0 1-.76-.315.736.736 0 0 1 .093-.934.733.733 0 0 1 .523-.216Zm-8.709-25.14a.743.743 0 0 1 .726.885.738.738 0 0 1-1.009.539.743.743 0 0 1-.457-.683.742.742 0 0 1 .74-.741Zm0 40.223a.742.742 0 0 1 .684.456.741.741 0 0 1-.967.968.738.738 0 0 1-.24-1.207.739.739 0 0 1 .523-.217Zm0-20.111a.742.742 0 0 1 .684.456.741.741 0 0 1-.967.967.736.736 0 0 1-.457-.683.74.74 0 0 1 .74-.74Zm0 10.055a.735.735 0 0 1 .684.457.738.738 0 0 1-.54 1.009.736.736 0 0 1-.759-.315.736.736 0 0 1 .092-.934.739.739 0 0 1 .523-.217Zm0-20.111a.735.735 0 0 1 .684.457.738.738 0 0 1-.54 1.009.745.745 0 0 1-.759-.315.738.738 0 0 1 .615-1.151Zm8.709-25.139a.742.742 0 0 1 .725.885.745.745 0 0 1-.582.581.736.736 0 0 1-.76-.315.736.736 0 0 1 .093-.934.75.75 0 0 1 .523-.217Zm8.708 45.25a.743.743 0 0 1 .725.885.745.745 0 0 1-.581.581.736.736 0 0 1-.76-.315.736.736 0 0 1 .093-.934.75.75 0 0 1 .523-.217Zm0-20.111a.743.743 0 0 1 .725.885.738.738 0 0 1-.581.581.745.745 0 0 1-.76-.315.741.741 0 0 1 .616-1.151Zm0-10.056a.743.743 0 0 1 .726.885.745.745 0 0 1-.582.581.737.737 0 0 1-.76-.314.742.742 0 0 1 .616-1.152Zm0-20.11a.741.741 0 0 1 .725.884.736.736 0 0 1-.581.581.736.736 0 0 1-.76-.315.736.736 0 0 1 .093-.934.732.732 0 0 1 .523-.216Zm0 10.055a.735.735 0 0 1 .683.457.741.741 0 0 1-.967.967.739.739 0 0 1 .284-1.424Zm-8.709 45.25a.734.734 0 0 1 .684.457.742.742 0 0 1-.54 1.009.745.745 0 0 1-.76-.315.741.741 0 0 1 .616-1.151Zm8.709-15.083a.735.735 0 0 1 .683.457.739.739 0 1 1-.683-.457Z"/><path fill="#CBCCCD" d="M306.268 181h-2.952L209 235.454v1.704l97.043-56.028.225-.13Zm-87.084 0L209 186.881v-1.704l7.233-4.177h2.951Zm69.442.13L209 227.102v-1.704L285.9 181h2.951l-.225.13Zm-17.416 0L209 217.048v-1.704L268.483 181h2.952l-.225.13Zm-34.834 0L209 196.936v-1.705L233.649 181h2.952l-.225.13Zm17.417 0L209 206.992v-1.704L251.066 181h2.952l-.225.13ZM24.649 362H27.6L209 257.269v-1.704L24.874 361.87l-.225.13Zm-17.192-.13L209 245.509v1.704L10.184 362H7.232l.225-.13Zm52.25 0L209 275.675v1.704L62.434 362h-2.952l.225-.13Zm-17.416 0L209 265.619v1.704L45.017 362h-2.951l.225-.13Zm34.833 0L209 285.731v1.704L79.85 362H76.9l.225-.13Zm17.416 0L209 295.785v1.704L97.267 362h-2.952l.225-.13Zm17.192.13h2.952L209 307.546v-1.704l-97.043 56.028-.225.13Zm87.084 0L209 356.119v1.704L201.767 362h-2.951Zm-69.443-.13L209 315.898v1.704L132.1 362h-2.952l.225-.13Zm17.417 0L209 325.952v1.704L149.517 362h-2.952l.225-.13Zm34.833 0L209 346.064v1.705L184.35 362h-2.952l.225-.13Zm-17.416 0L209 336.008v1.704L166.933 362h-2.951l.225-.13ZM184.351 181h-2.952L-.001 285.731v1.704L184.127 181.13l.225-.13Zm17.191.13L0 297.491v-1.704L198.815 181h2.952l-.225.13Zm-52.25 0L0 267.325v-1.704L146.566 181h2.951l-.225.13Zm17.417 0L-.001 277.381v-1.704L163.983 181h2.952l-.225.13Zm-34.833 0L0 257.269v-1.704L129.149 181h2.952l-.225.13Zm-17.417 0L-.001 247.215v-1.704L111.734 181h2.951l-.225.13ZM97.268 181h-2.952L0 235.454v1.704l97.043-56.028.225-.13Zm-87.084 0L0 186.881v-1.704L7.233 181h2.951Zm69.442.13L0 227.102v-1.704L76.9 181h2.951l-.225.13Zm-17.416 0L0 217.048v-1.704L59.483 181h2.952l-.225.13Zm-34.834 0L0 196.936v-1.705L24.65 181H27.6l-.225.13Zm17.417 0L0 206.992v-1.704L42.066 181h2.952l-.225.13Zm66.94-.13h2.951L209 126.546v-1.704l-97.043 56.028-.224.13Zm87.082 0L209 175.119v1.704L201.767 181h-2.952Zm-69.442-.13L209 134.898v1.704L132.101 181h-2.952l.224-.13Zm17.417 0L209 144.952v1.704L149.517 181h-2.951l.224-.13Zm34.833 0L209 165.064v1.705L184.351 181h-2.952l.224-.13Zm-17.416 0L209 155.008v1.704L166.934 181h-2.952l.225-.13ZM184.351 0h-2.952L0 104.731v1.704L184.126.13l.225-.13Zm17.191.13L0 116.491v-1.704L198.815 0h2.952l-.225.13Zm-52.25 0L0 86.325v-1.704L146.566 0h2.951l-.225.13Zm17.417 0L0 96.38v-1.703L163.982 0h2.952l-.225.13Zm-34.833 0L0 76.27v-1.705L129.149 0h2.952l-.225.13Zm-17.417 0L0 66.215V64.51L111.733 0h2.951l-.225.13ZM97.268 0h-2.952L0 54.454v1.704L97.043.13l.225-.13ZM10.184 0 0 5.88V4.178L7.233 0h2.951Zm69.442.13L0 46.102v-1.704L76.9 0h2.951l-.225.13ZM62.21.13 0 36.048v-1.704L59.483 0h2.952l-.225.13Zm-34.834 0L0 15.937V14.23L24.65 0H27.6l-.225.13Zm17.417 0L0 25.992v-1.704L42.067 0h2.95l-.224.13ZM184.35 362h-2.952L0 466.731v1.704L184.126 362.13l.224-.13Zm17.192.13L0 478.491v-1.704L198.816 362h2.951l-.225.13Zm-52.25 0L0 448.325v-1.704L146.565 362h2.952l-.225.13Zm17.417 0L-.001 458.381v-1.704L163.983 362h2.951l-.224.13Zm-34.833 0L0 438.269v-1.704L129.148 362h2.952l-.224.13Zm-17.417 0L-.001 428.215v-1.704L111.733 362h2.952l-.225.13Z"/><path fill="#CBCCCD" d="M97.267 362h-2.951L0 416.454v1.704l97.043-56.028.224-.13Zm-87.083 0L0 367.881v-1.704L7.233 362h2.951Zm69.442.13L0 408.102v-1.704L76.9 362h2.95l-.224.13Zm-17.416 0L0 398.048v-1.704L59.483 362h2.95l-.223.13Zm-34.834 0L0 377.936v-1.705L24.649 362H27.6l-.225.13Zm17.417 0L0 387.992v-1.704L42.066 362h2.951l-.224.13ZM24.649 543H27.6L209 438.269v-1.704L24.874 542.87l-.225.13Zm-17.192-.13L209 426.509v1.704L10.184 543H7.232l.225-.13Zm52.25 0L209 456.675v1.704L62.434 543h-2.952l.225-.13Zm-17.416 0L209 446.619v1.704L45.017 543h-2.951l.225-.13Zm34.833 0L209 466.731v1.704L79.85 543H76.9l.225-.13Zm17.416 0L209 476.785v1.704L97.267 543h-2.952l.225-.13ZM393.351 362h-2.952L209 466.731v1.704L393.126 362.13l.225-.13Zm17.191.13L209 478.491v-1.704L407.815 362h2.952l-.225.13Zm-52.25 0L209 448.325v-1.704L355.566 362h2.951l-.225.13Zm17.417 0L209 458.381v-1.704L372.982 362h2.952l-.225.13Zm-34.833 0L209 438.269v-1.704L338.149 362h2.952l-.225.13Zm-17.417 0L209 428.215v-1.704L320.733 362h2.951l-.225.13Z"/></g></svg>