<svg width="456" height="589" viewBox="0 0 456 589" fill="none" xmlns="http://www.w3.org/2000/svg"><g opacity=".75"><g clip-path="url(#prefix__clip0_3656_32361)" fill="#63D0FF"><path d="M121.89 1h3.22L228 59.967v1.846L122.135 1.142 121.89 1zm95 0L228 7.37V5.523L220.109 1h-3.219zm-75.755.142L228 50.923v-1.845L144.109 1h-3.22l.246.142zm19 0L228 40.036V38.19L163.109 1h-3.22l.246.142zm38 0L228 18.258V16.41l-26.89-15.41h-3.221l.246.14zm-19 0L228 29.147V27.3l-45.891-26.3h-3.219l.245.14zM201.11 197h-3.221L-.001 83.59v-1.846L200.865 196.86l.246.141zm18.754-.141L0 70.855v1.846L216.889 197h3.22l-.245-.141zm-57 0L0 103.521v1.846L159.89 197h3.219l-.245-.141zm19 0L0 92.632v1.846L178.89 197h3.219l-.245-.141zm-38 0L0 114.41v1.846L140.889 197h3.221l-.246-.141zm-19 0L0 125.298v1.846L121.89 197h3.22l-.246-.141zM106.109 197h-3.22L-.001 138.034v-1.846l105.865 60.671.245.141zm-95 0L0 190.632v1.845L7.889 197h3.22zm75.755-.141L0 147.077v1.846L83.89 197h3.22l-.246-.141zm-19 0L0 157.965v1.846L64.889 197h3.22l-.245-.141zm-38 0L0 179.743v1.847L26.889 197h3.22l-.245-.141zm19 0L-.001 168.854v1.846l45.89 26.3h3.22l-.245-.141zM227.918 148.877L0 18.256V16.41l.082.048L228 147.077v1.847l-.082-.047zm.082 10.935v-1.846L.082 27.346 0 27.3v1.846l227.918 130.62.082.047zm0-21.777v-1.847L.082 5.57 0 5.523v1.844l227.918 130.621.082.047zm0 32.666v-1.846L.082 38.235 0 38.189v1.846l227.918 130.62.082.047zm0 10.889v-1.846L.082 49.124 0 49.077v1.846l227.918 130.62.082.047zm0 10.889v-1.846L.082 60.013 0 59.966v1.846l227.918 130.62.082.047z"/></g><g clip-path="url(#prefix__clip1_3656_32361)" fill="#63D0FF"><path d="M201.11 393.001h-3.221L-.001 279.59v-1.845L200.865 392.86l.246.141zm18.754-.141L0 266.856v1.845l216.889 124.3h3.22l-.245-.141zm-57 0L0 299.522v1.845l159.89 91.634h3.219l-.245-.141zm19 0L0 288.633v1.845l178.89 102.523h3.219l-.245-.141zm-38 0L0 310.411v1.845l140.889 80.745h3.221l-.246-.141zm-19 0L0 321.299v1.845l121.89 69.857h3.22l-.246-.141zM106.109 393.001h-3.22L-.001 334.034v-1.845l105.865 60.671.245.141zm-95 0L0 386.633v1.845l7.89 4.523h3.22zm75.755-.141L0 343.078v1.845l83.891 48.078h3.22l-.246-.141zm-19 0L0 353.966v1.845l64.89 37.19h3.22l-.245-.141zm-38 0L0 375.744v1.846l26.89 15.411h3.22l-.245-.141zm19 0L-.001 364.855v1.845l45.89 26.301h3.22l-.245-.141zM26.89 197.001h3.22L228 310.412v1.845L27.135 197.142l-.245-.141zm-18.754.141L228 323.146v-1.845l-216.89-124.3H7.89l.246.141zm57 0L228 290.48v-1.845L68.11 197.001h-3.22l.246.141zm-19 0L228 301.369v-1.845L49.11 197.001h-3.22l.246.141zm38 0L228 279.591v-1.845L87.11 197.001h-3.22l.245.141zm18.999 0L228 268.703v-1.845l-121.891-69.857h-3.219l.245.141z"/></g><g clip-path="url(#prefix__clip2_3656_32361)"><path d="M26.89 393.001h3.22L228 506.412v1.845L27.136 393.142l-.246-.141zm-18.754.141L228 519.146v-1.845l-216.89-124.3H7.89l.246.141zm57 0L228 486.48v-1.845L68.11 393.001h-3.22l.246.141zm-19 0L228 497.369v-1.845L49.11 393.001h-3.22l.246.141zm38 0L228 475.591v-1.845L87.11 393.001h-3.22l.246.141zm19 0L228 464.703v-1.845l-121.89-69.857h-3.22l.246.141z" fill="#63D0FF"/></g><g clip-path="url(#prefix__clip3_3656_32361)" fill="#63D0FF"><path d="M334.109 196h-3.22l-102.89-58.967v-1.845l105.865 60.671.245.141zm-95 0l-11.11-6.368v1.845L235.89 196h3.219zm75.755-.141l-86.865-49.782v1.845L311.89 196h3.22l-.246-.141zm-19 0l-67.865-38.894v1.845L292.89 196h3.22l-.246-.141zm-38 0l-29.865-17.116v1.846L254.89 196h3.22l-.246-.141zm19 0l-48.865-28.005v1.845L273.89 196h3.219l-.245-.141zM455.918 147.876L228 17.256V15.41l.082.047L456 146.077v1.846l-.082-.047zm.082 10.935v-1.845L228.082 26.346 228 26.3v1.845l227.918 130.62.082.047zm0-21.777v-1.846L228.082 4.569 228 4.522v1.844l227.918 130.621.082.047zm0 32.666v-1.845L228.082 37.235l-.082-.047v1.845l227.918 130.62.082.047zm0 10.889v-1.845L228.082 48.124l-.082-.047v1.845l227.918 130.62.082.047zm0 10.889v-1.845L228.082 59.013l-.082-.047v1.845l227.918 130.62.082.047z"/></g><g clip-path="url(#prefix__clip4_3656_32361)"><path d="M429.11 392.001h-3.221L228 278.59v-1.845L428.864 391.86l.246.141zm18.754-.141L228 265.856v1.845l216.889 124.3h3.22l-.245-.141zm-57 0L228 298.522v1.845l159.89 91.634h3.219l-.245-.141zm19 0L228 287.633v1.845l178.89 102.523h3.219l-.245-.141zm-38 0L228 309.411v1.845l140.89 80.745h3.22l-.246-.141zm-19 0L228 320.299v1.845l121.89 69.857h3.22l-.246-.141z" fill="#63D0FF"/></g></g><defs><clipPath id="prefix__clip0_3656_32361"><path fill="#fff" transform="rotate(-180 114 98.5)" d="M0 0h228v196H0z"/></clipPath><clipPath id="prefix__clip1_3656_32361"><path fill="#fff" transform="rotate(-180 114 196.5)" d="M0 0h228v196H0z"/></clipPath><clipPath id="prefix__clip2_3656_32361"><path fill="#fff" transform="translate(0 393.001)" d="M0 0h228v196H0z"/></clipPath><clipPath id="prefix__clip3_3656_32361"><path fill="#fff" transform="rotate(-180 228 98)" d="M0 0h228v196H0z"/></clipPath><clipPath id="prefix__clip4_3656_32361"><path fill="#fff" transform="rotate(-180 228 196)" d="M0 0h228v196H0z"/></clipPath></defs></svg>