<svg width="418" height="503" viewBox="0 0 418 503" fill="none" xmlns="http://www.w3.org/2000/svg"><mask id="prefix__a" style="mask-type:alpha" maskUnits="userSpaceOnUse" x="0" y="0" width="418" height="503"><path d="M0 0h418v497a6 6 0 01-6 6H6a6 6 0 01-6-6V0z" fill="#F2F2F3"/></mask><g mask="url(#prefix__a)"><g clip-path="url(#prefix__clip0_3656_32556)"><path d="M-38.11 198h3.22L163 83.432v-1.864L-37.865 197.857l-.245.143zm-18.754-.143L163 70.567v1.865L-53.89 198h-3.22l.246-.143zm57 0L163 103.567v1.864L3.11 198H-.11l.246-.143zm-19 0L163 92.567v1.864L-15.89 198h-3.22l.246-.143zm38 0L163 114.567v1.864L22.11 198h-3.22l.245-.143zm19 0L163 125.566v1.864L41.11 198h-3.22l.245-.143z" fill="#63D0FF"/><path d="M-64.918 149.385L163 17.432v-1.863l-.082.047L-65 147.568v1.865l.082-.048zM-65 160.432v-1.864L162.918 26.615l.082-.047v1.864L-64.918 160.384l-.082.048zm0-21.999v-1.865L162.918 4.616l.082-.048v1.863L-64.918 138.385l-.082.048zm0 32.999v-1.864L162.918 37.615l.082-.047v1.864L-64.918 171.384l-.082.048zm0 11v-1.864L162.918 48.615l.082-.047v1.864L-64.918 182.385l-.082.047zm0 11v-1.864L162.918 59.615l.082-.047v1.864L-64.918 193.385l-.082.047z" fill="#000"/></g><g clip-path="url(#prefix__clip1_3656_32556)" fill="#000"><path d="M56.89 393.999h3.22L163 335.032v-1.845L57.135 393.858l-.245.141zm95 0l11.11-6.368v1.845l-7.891 4.523h-3.219zm-75.755-.141L163 344.076v1.845l-83.891 48.078h-3.22l.246-.141zm19 0L163 354.964v1.845l-64.89 37.19h-3.22l.245-.141zm38 0L163 376.742v1.846l-26.89 15.411h-3.221l.246-.141zm-19 0L163 365.853v1.845l-45.891 26.301h-3.219l.245-.141zM136.11 197.999h-3.221L-65.001 311.41v1.845L135.865 198.14l.246-.141zm18.754.141L-65 324.144v-1.845l216.889-124.3h3.22l-.245.141zm-57 0L-65 291.478v-1.845l159.89-91.634h3.22l-.246.141zm19 0L-65 302.367v-1.845l178.89-102.523h3.219l-.245.141zm-38 0L-65 280.589v-1.845l140.89-80.745h3.22l-.246.141zm-19 0L-65 269.701v-1.845l121.89-69.857h3.22l-.246.141zM41.11 197.999h-3.22L-65 256.966v1.845L40.865 198.14l.245-.141zm-95 0L-65 204.367v-1.845l7.89-4.523h3.22zm75.755.141L-65 247.922v-1.845l83.891-48.078h3.22l-.246.141zm-19 0L-65 237.034v-1.845l64.89-37.19h3.22l-.245.141zm-38 0L-65 215.256v-1.846l26.89-15.411h3.22l-.245.141zm19 0L-65 226.145V224.3l45.89-26.301h3.22l-.245.141zM162.918 246.123L-65 376.744v1.844l.082-.047L163 247.922v-1.846l-.082.047zm.082-10.935v1.845l-227.918 130.62-.082.047v-1.845l227.918-130.62.082-.047zm0 21.777v1.846L-64.918 389.43l-.082.047v-1.844l227.918-130.621.082-.047zm0-32.666v1.845l-227.918 130.62-.082.047v-1.845l227.918-130.62.082-.047zm0-10.889v1.845l-227.918 130.62-.082.047v-1.845l227.918-130.62.082-.047zm0-10.889v1.845l-227.918 130.62-.082.047v-1.845l227.918-130.62.082-.047z"/></g><path d="M364.11 197.999h-3.221L163 311.41v1.845L363.864 198.14l.246-.141zm18.754.141L163 324.144v-1.845l216.889-124.3h3.22l-.245.141zm-57 0L163 291.478v-1.845l159.89-91.634h3.219l-.245.141zm19 0L163 302.367v-1.845l178.89-102.523h3.219l-.245.141zm-38 0L163 280.589v-1.845l140.889-80.745h3.221l-.246.141zm-19 0L163 269.701v-1.845l121.89-69.857h3.22l-.246.141z" fill="#000"/><g clip-path="url(#prefix__clip2_3656_32556)"><path d="M135.11 394h-3.221l-197.89 114.568v1.864l200.865-116.289.246-.143zm18.754.143L-66 521.432v-1.864L150.889 394h3.22l-.245.143zm-57 0L-66 488.433v-1.864L93.89 394h3.22l-.246.143zm19 0L-66 499.433v-1.864L112.89 394h3.219l-.245.143zm-38 0L-66 477.433v-1.864L74.89 394h3.22l-.246.143zm-19 0L-66 466.434v-1.864L55.89 394h3.22l-.246.143z" fill="#63D0FF"/></g><g clip-path="url(#prefix__clip3_3656_32556)"><path d="M364.11 393.999h-3.221L163 508.567v1.864l200.864-116.289.246-.143zm18.754.143L163 521.431v-1.864l216.889-125.568h3.22l-.245.143zm-57 0L163 488.432v-1.864l159.89-92.569h3.219l-.245.143zm19 0L163 499.432v-1.864l178.89-103.569h3.219l-.245.143zm-38 0L163 477.432v-1.864l140.889-81.569h3.221l-.246.143zm-19 0L163 466.433v-1.864l121.89-70.57h3.22l-.246.143z" fill="#63D0FF"/></g></g><defs><clipPath id="prefix__clip0_3656_32556"><path fill="#fff" transform="matrix(-1 0 0 1 163 0)" d="M0 0h228v198H0z"/></clipPath><clipPath id="prefix__clip1_3656_32556"><path fill="#fff" transform="matrix(-1 0 0 1 163 197.999)" d="M0 0h228v196H0z"/></clipPath><clipPath id="prefix__clip2_3656_32556"><path fill="#fff" transform="matrix(-1 0 0 1 162 394)" d="M0 0h228v198H0z"/></clipPath><clipPath id="prefix__clip3_3656_32556"><path fill="#fff" transform="matrix(-1 0 0 1 391 393.999)" d="M0 0h228v198H0z"/></clipPath></defs></svg>