<svg width="456" height="589" viewBox="0 0 456 589" fill="none" xmlns="http://www.w3.org/2000/svg">
<g opacity="0.75">
<g clip-path="url(#clip0_3657_31747)">
<path d="M121.89 1.00039L125.11 1.00039L228 59.9672L228 61.8125L122.135 1.14152L121.89 1.00039ZM216.89 1.0004L228 7.36861L228 5.52328L220.109 1.0004L216.89 1.0004ZM141.135 1.14157L228 50.9235L228 49.0782L144.109 1.00039L140.889 1.00039L141.135 1.14157ZM160.135 1.14157L228 40.0356L228 38.1903L163.109 1.00039L159.889 1.00039L160.135 1.14157ZM198.135 1.14157L228 18.2576L228 16.4112L201.11 1.0004L197.889 1.0004L198.135 1.14157ZM179.135 1.14157L228 29.1466L228 27.3013L182.109 1.0004L178.89 1.0004L179.135 1.14157Z" fill="#63D0FF"/>
<path d="M201.11 197L197.889 197L-0.000417331 83.5897L-0.00041717 81.7444L200.864 196.859L201.11 197ZM219.864 196.859L-0.000416218 70.8553L-0.000416379 72.7006L216.889 197L220.109 197L219.864 196.859ZM162.864 196.859L-0.000419074 103.521L-0.000419235 105.367L159.89 197L163.109 197L162.864 196.859ZM181.864 196.859L-0.000418122 92.6323L-0.000418283 94.4776L178.89 197L182.109 197L181.864 196.859ZM143.864 196.859L-0.000420026 114.41L-0.000420187 116.256L140.889 197L144.11 197L143.864 196.859ZM124.864 196.859L-0.000420978 125.298L-0.000421139 127.144L121.89 197L125.11 197L124.864 196.859Z" fill="#63D0FF"/>
<path d="M106.109 197L102.889 197L-0.000956149 138.034L-0.000955987 136.188L105.864 196.859L106.109 197ZM11.1091 197L-0.000960747 190.632L-0.000960908 192.477L7.88967 197L11.1091 197ZM86.8641 196.859L-0.000956939 147.077L-0.000957101 148.923L83.89 197L87.1096 197L86.8641 196.859ZM67.8643 196.859L-0.000957891 157.965L-0.000958052 159.811L64.8897 197L68.1097 197L67.8643 196.859ZM29.8641 196.859L-0.000959795 179.743L-0.000959956 181.59L26.8895 197L30.1096 197L29.8641 196.859ZM48.864 196.859L-0.000958843 168.854L-0.000959004 170.7L45.8898 197L49.1094 197L48.864 196.859Z" fill="#63D0FF"/>
<path d="M227.918 148.877L1.5231e-05 18.2558L1.53923e-05 16.4115L0.0821687 16.4586L228 147.077L228 148.924L227.918 148.877ZM228 159.812L228 157.966L0.0821678 27.3465L1.44404e-05 27.2995L1.42791e-05 29.1448L227.918 159.765L228 159.812ZM228 138.035L228 136.188L0.0821697 5.56959L1.63442e-05 5.52253L1.6183e-05 7.3668L227.918 137.988L228 138.035ZM228 170.701L228 168.855L0.0821668 38.2355L1.34885e-05 38.1885L1.33272e-05 40.0338L227.918 170.654L228 170.701ZM228 181.59L228 179.744L0.0821659 49.1245L1.25365e-05 49.0774L1.23752e-05 50.9228L227.918 181.543L228 181.59ZM228 192.479L228 190.633L0.0821649 60.0135L1.15846e-05 59.9664L1.14233e-05 61.8118L227.918 192.432L228 192.479Z" fill="#63D0FF"/>
</g>
<g clip-path="url(#clip1_3657_31747)">
<path d="M201.11 393.001L197.889 393.001L-0.000417331 279.59L-0.00041717 277.745L200.864 392.86L201.11 393.001ZM219.864 392.86L-0.000416218 266.856L-0.000416379 268.701L216.889 393.001L220.109 393.001L219.864 392.86ZM162.864 392.86L-0.000419074 299.522L-0.000419235 301.367L159.89 393.001L163.109 393.001L162.864 392.86ZM181.864 392.86L-0.000418122 288.633L-0.000418283 290.478L178.89 393.001L182.109 393.001L181.864 392.86ZM143.864 392.86L-0.000420026 310.411L-0.000420187 312.256L140.889 393.001L144.11 393.001L143.864 392.86ZM124.864 392.86L-0.000420978 321.299L-0.000421139 323.144L121.89 393.001L125.11 393.001L124.864 392.86Z" fill="#63D0FF"/>
<path d="M106.109 393.001L102.889 393.001L-0.000956149 334.034L-0.000955987 332.189L105.864 392.86L106.109 393.001ZM11.1091 393.001L-0.000960747 386.633L-0.000960908 388.478L7.88967 393.001L11.1091 393.001ZM86.8641 392.86L-0.000956939 343.078L-0.000957101 344.923L83.89 393.001L87.1096 393.001L86.8641 392.86ZM67.8643 392.86L-0.000957891 353.966L-0.000958052 355.811L64.8897 393.001L68.1097 393.001L67.8643 392.86ZM29.8641 392.86L-0.000959795 375.744L-0.000959956 377.59L26.8895 393.001L30.1096 393.001L29.8641 392.86ZM48.864 392.86L-0.000958843 364.855L-0.000959004 366.7L45.8898 393.001L49.1094 393.001L48.864 392.86Z" fill="#63D0FF"/>
<path d="M26.8897 197.001L30.1101 197.001L228 310.412L228 312.257L27.1354 197.142L26.8897 197.001ZM8.13562 197.142L228 323.146L228 321.301L11.1102 197.001L7.89018 197.001L8.13562 197.142ZM65.1356 197.142L228 290.48L228 288.635L68.1097 197.001L64.8902 197.001L65.1356 197.142ZM46.1358 197.142L228 301.369L228 299.524L49.1099 197.001L45.8904 197.001L46.1358 197.142ZM84.1354 197.142L228 279.591L228 277.746L87.1101 197.001L83.89 197.001L84.1354 197.142ZM103.135 197.142L228 268.703L228 266.858L106.109 197.001L102.89 197.001L103.135 197.142Z" fill="#63D0FF"/>
</g>
<g clip-path="url(#clip2_3657_31747)">
<path d="M26.8902 393.001L30.1105 393.001L228 506.412L228 508.257L27.1359 393.142L26.8902 393.001ZM8.13605 393.142L228 519.146L228 517.301L11.1107 393.001L7.89062 393.001L8.13605 393.142ZM65.1361 393.142L228 486.48L228 484.635L68.1102 393.001L64.8906 393.001L65.1361 393.142ZM46.1362 393.142L228 497.369L228 495.524L49.1103 393.001L45.8908 393.001L46.1362 393.142ZM84.1359 393.142L228 475.591L228 473.746L87.1105 393.001L83.8904 393.001L84.1359 393.142ZM103.136 393.142L228 464.703L228 462.858L106.11 393.001L102.89 393.001L103.136 393.142Z" fill="#63D0FF"/>
</g>
<g clip-path="url(#clip3_3657_31747)">
<path d="M334.109 196L330.889 196L227.999 137.033L227.999 135.188L333.864 195.859L334.109 196ZM239.109 196L227.999 189.632L227.999 191.477L235.89 196L239.109 196ZM314.864 195.859L227.999 146.077L227.999 147.922L311.89 196L315.11 196L314.864 195.859ZM295.864 195.859L227.999 156.965L227.999 158.81L292.89 196L296.11 196L295.864 195.859ZM257.864 195.859L227.999 178.743L227.999 180.589L254.89 196L258.11 196L257.864 195.859ZM276.864 195.859L227.999 167.854L227.999 169.699L273.89 196L277.109 196L276.864 195.859Z" fill="#63D0FF"/>
<path d="M455.918 147.876L228 17.2554L228 15.4111L228.082 15.4582L456 146.077L456 147.923L455.918 147.876ZM456 158.811L456 156.966L228.082 26.3461L228 26.2991L228 28.1444L455.918 158.764L456 158.811ZM456 137.034L456 135.188L228.082 4.56919L228 4.52214L228 6.3664L455.918 136.987L456 137.034ZM456 169.7L456 167.855L228.082 37.2351L228 37.1881L228 39.0334L455.918 169.653L456 169.7ZM456 180.589L456 178.744L228.082 48.1241L228 48.0771L228 49.9224L455.918 180.542L456 180.589ZM456 191.478L456 189.633L228.082 59.0131L228 58.966L228 60.8114L455.918 191.431L456 191.478Z" fill="#63D0FF"/>
</g>
<g clip-path="url(#clip4_3657_31747)">
<path d="M429.11 392.001L425.889 392.001L228 278.59L228 276.745L428.864 391.86L429.11 392.001ZM447.864 391.86L228 265.856L228 267.701L444.889 392.001L448.109 392.001L447.864 391.86ZM390.864 391.86L228 298.522L228 300.367L387.89 392.001L391.109 392.001L390.864 391.86ZM409.864 391.86L228 287.633L228 289.478L406.89 392.001L410.109 392.001L409.864 391.86ZM371.864 391.86L228 309.411L228 311.256L368.89 392.001L372.11 392.001L371.864 391.86ZM352.864 391.86L228 320.299L228 322.144L349.89 392.001L353.11 392.001L352.864 391.86Z" fill="#63D0FF"/>
</g>
</g>
<defs>
<clipPath id="clip0_3657_31747">
<rect width="228" height="196" fill="white" transform="translate(228 197) rotate(-180)"/>
</clipPath>
<clipPath id="clip1_3657_31747">
<rect width="228" height="196" fill="white" transform="translate(228 393.001) rotate(-180)"/>
</clipPath>
<clipPath id="clip2_3657_31747">
<rect width="228" height="196" fill="white" transform="translate(0 393.001)"/>
</clipPath>
<clipPath id="clip3_3657_31747">
<rect width="228" height="196" fill="white" transform="translate(456 196) rotate(-180)"/>
</clipPath>
<clipPath id="clip4_3657_31747">
<rect width="228" height="196" fill="white" transform="translate(456 392.001) rotate(-180)"/>
</clipPath>
</defs>
</svg>
