<svg width="164" height="384" viewBox="0 0 164 384" fill="none" xmlns="http://www.w3.org/2000/svg">
<g clip-path="url(#clip0_716_7070)">
<path d="M41.1913 240.858L0.5 208.904L0.5 207.096L41.2499 239.097L101.224 192H103.526L103.351 192.138L41.2499 240.904L41.1913 240.858ZM41.2499 230.237L89.767 192.138L89.9424 192H87.6407L41.2499 228.43L0.5 196.43L0.5 198.237L41.1913 230.191L41.2499 230.237ZM41.2499 283.57L157.684 192.138L157.86 192H155.558L41.2499 281.763L0.5 249.764L0.5 251.571L41.1913 283.524L41.2499 283.57ZM41.2499 262.237L130.517 192.138L130.693 192H128.391L41.2499 260.43L0.5 228.43L0.5 230.238L41.1913 262.192L41.2499 262.237ZM41.2499 272.904L144.101 192.138L144.276 192H141.974L41.2499 271.096L0.5 239.097L0.5 240.904L41.1913 272.858L41.2499 272.904ZM41.2499 251.57L116.934 192.138L117.109 192H114.808L41.2499 249.764L0.5 217.763L0.5 219.571L41.1913 251.525L41.2499 251.57Z" fill="white"/>
<path d="M33.4828 383.863L163.5 281.763V283.571L35.6098 384H33.3082L33.4828 383.863ZM6.14136 384H8.44342L163.5 262.238V260.429L6.31601 383.863L6.14136 384ZM60.475 384H62.7766L163.5 304.904V303.096L60.6496 383.863L60.475 384ZM74.0582 384H76.3598L163.5 315.571V313.763L74.2328 383.863L74.0582 384ZM46.8914 384H49.1934L163.5 294.237V292.429L47.066 383.863L46.8914 384ZM19.725 384H22.0266L163.5 272.904V271.097L19.8996 383.863L19.725 384Z" fill="white"/>
</g>
<g clip-path="url(#clip1_716_7070)">
<path d="M122.809 48.858L163.5 16.904V15.0964L122.75 47.097L62.7756 0L60.474 0L60.6494 0.138038L122.75 48.9036L122.809 48.858ZM122.75 38.2368L74.233 0.13807L74.0576 0L76.3592 0L122.75 36.4301L163.5 4.4296V6.23726L122.809 38.1912L122.75 38.2368ZM122.75 91.5697L6.31584 0.13807L6.14038 0L8.44244 0L122.75 89.7631L163.5 57.7635V59.5712L122.809 91.5241L122.75 91.5697ZM122.75 70.2372L33.4826 0.13807L33.3072 0L35.6089 0L122.75 68.4294L163.5 36.4299V38.2376L122.809 70.1916L122.75 70.2372ZM122.75 80.904L19.8994 0.13807L19.724 0L22.0256 0L122.75 79.0963L163.5 47.0967V48.9044L122.809 80.8584L122.75 80.904ZM122.75 59.5704L47.0662 0.13807L46.8908 0L49.1924 0L122.75 57.7637L163.5 25.7632V27.5708L122.809 59.5248L122.75 59.5704Z" fill="white"/>
<path d="M130.517 191.863L0.5 89.7625L0.5 91.5713L128.39 192H130.692L130.517 191.863ZM157.859 192H155.557L0.5 70.2377L0.5 68.429L157.684 191.863L157.859 192ZM103.525 192H101.223L0.5 112.904L0.5 111.096L103.35 191.863L103.525 192ZM89.9418 192H87.6401L0.5 123.571L0.5 121.763L89.7672 191.863L89.9418 192ZM117.109 192H114.807L0.5 102.237L0.5 100.429L116.934 191.863L117.109 192ZM144.275 192H141.973L0.5 80.9045L0.5 79.0968L144.1 191.863L144.275 192Z" fill="white"/>
</g>
<defs>
<clipPath id="clip0_716_7070">
<rect width="163" height="192" fill="white" transform="translate(0.5 192)"/>
</clipPath>
<clipPath id="clip1_716_7070">
<rect width="163" height="192" fill="white" transform="translate(0.5)"/>
</clipPath>
</defs>
</svg>
