<svg width="16" height="16" viewBox="0 0 16 16" fill="none" xmlns="http://www.w3.org/2000/svg">
<path d="M4.6791 6.32411C4.6791 6.51245 4.69948 6.66518 4.73506 6.77716C4.77574 6.88915 4.8266 7.01131 4.89784 7.14367C4.92325 7.18442 4.93342 7.22513 4.93342 7.26076C4.93342 7.31166 4.9029 7.36256 4.83677 7.41349L4.51635 7.62727C4.47056 7.65783 4.42481 7.67309 4.38412 7.67309C4.33323 7.67309 4.28237 7.64764 4.23151 7.60182C4.16031 7.52547 4.09929 7.44401 4.04843 7.36256C3.99753 7.27602 3.94668 7.1793 3.89075 7.06225C3.494 7.53055 2.99554 7.76473 2.39536 7.76473C1.96811 7.76473 1.62732 7.64257 1.37809 7.39819C1.12886 7.15386 1.00171 6.82806 1.00171 6.42083C1.00171 5.98813 1.1543 5.63689 1.46456 5.37218C1.77483 5.10747 2.18682 4.97512 2.71071 4.97512C2.88364 4.97512 3.06166 4.99039 3.24986 5.01584C3.43805 5.0413 3.63133 5.08202 3.83479 5.12784V4.75623C3.83479 4.36935 3.7534 4.09955 3.59573 3.94175C3.43297 3.78394 3.1583 3.70758 2.76666 3.70758C2.58864 3.70758 2.40553 3.72794 2.21734 3.77376C2.02914 3.81957 1.84604 3.87557 1.66801 3.94683C1.58663 3.98247 1.5256 4.00283 1.48999 4.01301C1.45439 4.0232 1.42896 4.02829 1.40861 4.02829C1.3374 4.02829 1.3018 3.97738 1.3018 3.87048V3.62104C1.3018 3.53959 1.31197 3.47851 1.3374 3.44287C1.36284 3.40724 1.40861 3.37161 1.47982 3.33598C1.65784 3.24435 1.87147 3.16799 2.1207 3.1069C2.36993 3.04072 2.63441 3.01018 2.91416 3.01018C3.51943 3.01018 3.96195 3.14763 4.24679 3.42251C4.52652 3.6974 4.66892 4.11483 4.66892 4.67478V6.32411H4.6791ZM2.61407 7.09788C2.78192 7.09788 2.95485 7.06732 3.13796 7.00624C3.32107 6.94516 3.48383 6.83317 3.62116 6.68045C3.70254 6.58373 3.76358 6.47682 3.79409 6.35465C3.82462 6.23248 3.84496 6.08485 3.84496 5.91178V5.69797C3.69745 5.66234 3.53978 5.6318 3.37702 5.61144C3.21425 5.59107 3.05658 5.58089 2.8989 5.58089C2.55812 5.58089 2.30889 5.64707 2.14104 5.78451C1.97319 5.92196 1.89181 6.1154 1.89181 6.36992C1.89181 6.60917 1.95285 6.78735 2.08001 6.90952C2.20208 7.03676 2.3801 7.09788 2.61407 7.09788ZM6.69837 7.64764C6.60683 7.64764 6.5458 7.63238 6.50511 7.59674C6.46443 7.56618 6.42881 7.49491 6.3983 7.39819L5.20302 3.46324C5.1725 3.36143 5.15723 3.29525 5.15723 3.25961C5.15723 3.17817 5.19791 3.13235 5.27929 3.13235H5.77776C5.87441 3.13235 5.9405 3.14763 5.97612 3.18326C6.01681 3.2138 6.04732 3.28507 6.07784 3.38179L6.93235 6.75172L7.7258 3.38179C7.75125 3.27998 7.78176 3.2138 7.82245 3.18326C7.86313 3.15272 7.93437 3.13235 8.02591 3.13235H8.43281C8.52946 3.13235 8.59559 3.14763 8.63628 3.18326C8.67696 3.2138 8.71254 3.28507 8.73292 3.38179L9.53654 6.79243L10.4165 3.38179C10.447 3.27998 10.4826 3.2138 10.5182 3.18326C10.5589 3.15272 10.625 3.13235 10.7166 3.13235H11.1896C11.271 3.13235 11.3168 3.17308 11.3168 3.25961C11.3168 3.28507 11.3117 3.31052 11.3066 3.34107C11.3015 3.37161 11.2913 3.41233 11.271 3.46833L10.0452 7.4033C10.0147 7.5051 9.97906 7.57129 9.93837 7.60182C9.89769 7.63238 9.83155 7.65272 9.74508 7.65272H9.30767C9.21102 7.65272 9.14489 7.63745 9.1042 7.60182C9.06351 7.56618 9.0279 7.50002 9.00755 7.39819L8.21917 4.11482L7.4359 7.39312C7.41045 7.49491 7.37993 7.56111 7.33925 7.59674C7.29856 7.63238 7.22736 7.64764 7.13582 7.64764H6.69837ZM13.2343 7.78507C12.9698 7.78507 12.7053 7.75455 12.451 7.69346C12.1967 7.63238 11.9983 7.56618 11.8661 7.48984C11.7847 7.44401 11.7287 7.39312 11.7084 7.34729C11.688 7.30147 11.6779 7.25058 11.6779 7.20475V6.94516C11.6779 6.83825 11.7186 6.78735 11.7949 6.78735C11.8254 6.78735 11.8559 6.79243 11.8864 6.80261C11.9169 6.8128 11.9627 6.83317 12.0136 6.85351C12.1865 6.92989 12.3747 6.99098 12.5731 7.03169C12.7765 7.0724 12.9749 7.09277 13.1783 7.09277C13.4988 7.09277 13.748 7.03676 13.921 6.92478C14.0939 6.8128 14.1854 6.64988 14.1854 6.44118C14.1854 6.29865 14.1397 6.18157 14.0481 6.08485C13.9565 5.98813 13.7836 5.9016 13.5344 5.82015L12.7969 5.59107C12.4256 5.47399 12.1509 5.30091 11.9831 5.07184C11.8152 4.84786 11.7287 4.59842 11.7287 4.33372C11.7287 4.11991 11.7745 3.93157 11.8661 3.76867C11.9576 3.60577 12.0797 3.46324 12.2323 3.35124C12.3849 3.23416 12.5578 3.14763 12.7613 3.08654C12.9647 3.02545 13.1783 3 13.4021 3C13.514 3 13.631 3.00509 13.7429 3.02036C13.8599 3.03563 13.9667 3.056 14.0735 3.07636C14.1752 3.10181 14.2719 3.12726 14.3635 3.15781C14.455 3.18835 14.5262 3.21889 14.5771 3.24944C14.6483 3.29016 14.6992 3.33088 14.7297 3.3767C14.7602 3.41742 14.7754 3.47342 14.7754 3.54468V3.78394C14.7754 3.89084 14.7348 3.94683 14.6584 3.94683C14.6178 3.94683 14.5517 3.92648 14.4652 3.88575C14.1752 3.7534 13.8497 3.68722 13.4886 3.68722C13.1987 3.68722 12.9698 3.73303 12.8121 3.82975C12.6544 3.92648 12.5731 4.0741 12.5731 4.28281C12.5731 4.42535 12.6239 4.54752 12.7256 4.64424C12.8274 4.74096 13.0156 4.83768 13.2852 4.92422L14.0074 5.15329C14.3736 5.27037 14.6381 5.43327 14.7958 5.64198C14.9535 5.85069 15.0298 6.08994 15.0298 6.35465C15.0298 6.57354 14.984 6.77209 14.8975 6.94516C14.806 7.11822 14.6839 7.27095 14.5262 7.39312C14.3685 7.52036 14.1804 7.612 13.9616 7.6782C13.7328 7.74943 13.4937 7.78507 13.2343 7.78507Z" fill="#EFEFF1"/>
<path fill-rule="evenodd" clip-rule="evenodd" d="M14.1956 10.2594C12.5222 11.4963 10.091 12.153 8.00048 12.153C5.07077 12.153 2.43097 11.0688 0.437135 9.26672C0.279459 9.12418 0.421878 8.93074 0.610068 9.04272C2.76667 10.295 5.42681 11.0535 8.1785 11.0535C10.035 11.0535 12.0746 10.6666 13.9515 9.87248C14.2312 9.7452 14.4703 10.0557 14.1956 10.2594Z" fill="#FF9900"/>
<path fill-rule="evenodd" clip-rule="evenodd" d="M14.8925 9.46518C14.6789 9.19029 13.4785 9.33283 12.9343 9.39899C12.7715 9.41936 12.7461 9.27682 12.8936 9.16991C13.8498 8.49799 15.4215 8.69143 15.6046 8.91539C15.7877 9.14446 15.5537 10.7174 14.6585 11.4708C14.5212 11.5879 14.389 11.5268 14.45 11.3741C14.6534 10.8702 15.1061 9.73497 14.8925 9.46518Z" fill="#FF9900"/>
</svg>
