<svg xmlns="http://www.w3.org/2000/svg" width="340" height="221" fill="none" viewBox="0 0 340 221">
  <filter id="a" width="300" height="185.35" x="40" y="41" color-interpolation-filters="sRGB" filterUnits="userSpaceOnUse">
    <feFlood flood-opacity="0" result="BackgroundImageFix"/>
    <feBlend in="SourceGraphic" in2="BackgroundImageFix" result="shape"/>
    <feColorMatrix in="SourceAlpha" result="hardAlpha" values="0 0 0 0 0 0 0 0 0 0 0 0 0 0 0 0 0 0 127 0"/>
    <feOffset dy="5.35"/>
    <feGaussianBlur stdDeviation="17.6"/>
    <feComposite in2="hardAlpha" k2="-1" k3="1" operator="arithmetic"/>
    <feColorMatrix values="0 0 0 0 0.0674653 0 0 0 0 0.179197 0 0 0 0 0.279167 0 0 0 0.15 0"/>
    <feBlend in2="shape" result="effect1_innerShadow_16651_206727"/>
  </filter>
  <filter id="b" width="300" height="33.34" x="40" y="41" color-interpolation-filters="sRGB" filterUnits="userSpaceOnUse">
    <feFlood flood-opacity="0" result="BackgroundImageFix"/>
    <feBlend in="SourceGraphic" in2="BackgroundImageFix" result="shape"/>
    <feColorMatrix in="SourceAlpha" result="hardAlpha" values="0 0 0 0 0 0 0 0 0 0 0 0 0 0 0 0 0 0 127 0"/>
    <feOffset dy="1.34"/>
    <feGaussianBlur stdDeviation="4.01"/>
    <feComposite in2="hardAlpha" k2="-1" k3="1" operator="arithmetic"/>
    <feColorMatrix values="0 0 0 0 0 0 0 0 0 0 0 0 0 0 0 0 0 0 0.15 0"/>
    <feBlend in2="shape" result="effect1_innerShadow_16651_206727"/>
  </filter>
  <linearGradient id="c" x1="69.19" x2="70.95" y1="69.54" y2="26.42" gradientUnits="userSpaceOnUse">
    <stop offset="0" stop-color="#111214"/>
    <stop offset="1" stop-color="#424242"/>
  </linearGradient>
  <clipPath id="d">
    <path d="M40 41h300v180H40z"/>
  </clipPath>
  <clipPath id="e">
    <path d="M55 215h113v6H55z"/>
  </clipPath>
  <g clip-path="url(#d)">
    <path fill="#fff" d="M40 41h300v180H40z"/>
    <g filter="url(#a)">
      <path fill="#fff" d="M340 41H45a5 5 0 0 0-5 5v175h300z"/>
      <path fill="#fff" d="M340 41H40v180h300z"/>
      <g fill="#000001">
        <path fill-rule="evenodd" d="M55.88 87.35c0-.62.5-1.13 1.13-1.13h3.26c.63 0 1.13.5 1.13 1.13v1.06l1.03.73c.3.21.48.55.48.92v2.56c0 .34-.28.62-.63.62h-1.25a.37.37 0 0 1-.38-.37v-5.52c0-.2-.17-.38-.38-.38h-3.26c-.2 0-.37.17-.37.38v5.52a.38.38 0 1 1-.76 0zm5.52 5.14v-3.16l.6.42c.1.07.15.19.15.3v2.44z" clip-rule="evenodd"/>
        <path d="M57.76 91.01a.35.35 0 0 0-.35.35v1.5a.35.35 0 0 0 .7 0v-1.15h1.06v1.16a.35.35 0 0 0 .7 0v-1.5c0-.2-.16-.36-.35-.36zm-.25-2.91c0-.2.17-.37.38-.37h.13a.38.38 0 1 1 0 .75h-.13a.38.38 0 0 1-.38-.38zm1.76-.37a.38.38 0 1 0 0 .75h.12a.38.38 0 1 0 0-.75zm-1.76 1.37c0-.2.17-.37.38-.37h.13a.38.38 0 1 1 0 .75h-.13a.38.38 0 0 1-.38-.37zm1.76-.37a.38.38 0 1 0 0 .75h.12a.38.38 0 1 0 0-.75zm-1.76 1.37c0-.2.17-.37.38-.37h.13a.38.38 0 1 1 0 .76h-.13a.38.38 0 0 1-.38-.38zm1.76-.37a.38.38 0 1 0 0 .76h.12a.38.38 0 1 0 0-.76z"/>
      </g>
      <path fill="#3c434d" fill-opacity=".75" d="M70.55 91.72v-4.71h-.72V89H67.4v-2h-.74v4.72h.74v-2.09h2.42v2.09zm2.09.06c.46 0 .85-.2 1.07-.56h.05v.5h.68v-2.43c0-.74-.5-1.18-1.4-1.18-.8 0-1.38.38-1.45.98h.68c.08-.26.35-.4.74-.4.48 0 .73.22.73.6v.31l-.97.06c-.84.06-1.32.42-1.32 1.06 0 .65.5 1.06 1.19 1.06zm.18-.57c-.39 0-.66-.19-.66-.52 0-.32.22-.5.7-.53l.88-.06v.31c0 .46-.4.8-.92.8zm2.53-2.04c0 .52.32.82 1 .98l.61.15c.36.08.53.23.53.45 0 .29-.31.49-.75.49-.43 0-.69-.17-.78-.45h-.7c.06.62.62 1 1.46 1 .85 0 1.48-.45 1.48-1.1 0-.52-.32-.81-1-.97l-.59-.14c-.38-.09-.56-.23-.56-.45 0-.28.3-.48.69-.48.4 0 .65.18.71.44h.68c-.07-.61-.6-.98-1.4-.98-.8 0-1.38.44-1.38 1.06zm3.72 2.55h.7v-2.08c0-.55.33-.92.9-.92.5 0 .76.29.76.87v2.13h.7v-2.3c0-.83-.46-1.31-1.22-1.31-.54 0-.91.23-1.09.63h-.05v-1.96h-.7zm4.42-4.18c.24 0 .44-.2.44-.44a.44.44 0 0 0-.89 0c0 .24.2.44.45.44zm-.35 4.18h.7v-3.55h-.7zm3.74.11c1.05 0 1.83-.6 1.96-1.52h-.73c-.13.54-.6.87-1.23.87-.85 0-1.38-.7-1.38-1.81s.53-1.83 1.38-1.83c.62 0 1.1.38 1.23.96h.73c-.12-.94-.92-1.6-1.96-1.6-1.31 0-2.12.94-2.12 2.47 0 1.52.81 2.46 2.12 2.46zm4.34-.04c1.04 0 1.68-.7 1.68-1.84 0-1.15-.64-1.84-1.68-1.84s-1.68.7-1.68 1.84c0 1.14.64 1.84 1.68 1.84zm0-.6c-.6 0-.95-.45-.95-1.24s.34-1.25.95-1.25c.6 0 .96.46.96 1.25 0 .78-.35 1.24-.96 1.24zm2.52.53h.7V89.6c0-.5.38-.84.91-.84.13 0 .34.02.4.04v-.66a1.51 1.51 0 0 0-.32-.03c-.46 0-.86.25-.96.6h-.05v-.54h-.68zm4.58-3.6c-.49 0-.9.24-1.12.64h-.05v-.59h-.68v4.73h.7v-1.72h.06c.19.38.59.6 1.1.6.9 0 1.46-.71 1.46-1.83 0-1.13-.57-1.84-1.47-1.84zm-.2 3.06c-.59 0-.96-.48-.96-1.23 0-.76.37-1.24.96-1.24.6 0 .95.47.95 1.24s-.35 1.23-.95 1.23z"/>
      <path fill="#3c434d" fill-opacity=".25" d="m107.07 92.74 1.7-5.94h-.62l-1.7 5.94z"/>
      <path fill="#3c434d" fill-opacity=".75" d="m117.5 91.73 1.68-4.7h-.78l-1.27 3.83h-.05l-1.27-3.84h-.8l1.69 4.71zm3.04.06c.47 0 .86-.2 1.07-.56h.05v.5h.68v-2.42c0-.75-.5-1.2-1.4-1.2-.8 0-1.37.4-1.45 1h.68c.08-.26.35-.41.74-.41.48 0 .73.22.73.6v.32l-.96.06c-.85.05-1.32.42-1.32 1.05 0 .65.5 1.06 1.18 1.06zm.18-.56c-.38 0-.66-.2-.66-.53 0-.32.22-.5.71-.52l.87-.06v.3c0 .46-.39.8-.92.8zm4.12 1.86c1 0 1.64-.51 1.64-1.32v-3.58h-.67v.56h-.06c-.2-.38-.62-.63-1.11-.63-.91 0-1.48.72-1.48 1.8 0 1.06.56 1.76 1.47 1.76.49 0 .88-.21 1.1-.6h.05v.69c0 .48-.35.76-.93.76-.47 0-.77-.17-.83-.43h-.72c.08.6.65.99 1.54.99zm-.01-1.99c-.6 0-.94-.46-.94-1.19 0-.72.34-1.18.94-1.18.6 0 .96.46.96 1.18 0 .73-.36 1.19-.96 1.19zm2.67.63h.7v-2.12c0-.5.38-.84.91-.84.12 0 .33.02.4.04v-.66a1.58 1.58 0 0 0-.32-.03c-.46 0-.86.26-.96.6h-.05v-.53h-.68zm3.64.06c.46 0 .85-.2 1.06-.56h.06v.5h.67v-2.42c0-.75-.5-1.2-1.39-1.2-.8 0-1.38.4-1.45 1h.68c.07-.26.35-.41.74-.41.48 0 .73.22.73.6v.32l-.97.06c-.84.05-1.32.42-1.32 1.05 0 .65.5 1.06 1.19 1.06zm.17-.56c-.38 0-.65-.2-.65-.53 0-.32.22-.5.7-.52l.88-.06v.3c0 .46-.4.8-.93.8zm2.62.5h.7v-2.08c0-.57.34-.92.86-.92.51 0 .76.29.76.87v2.13h.7v-2.3c0-.84-.43-1.31-1.23-1.31-.53 0-.88.24-1.06.63h-.05v-.56h-.68zm4.26-4.44v.9h-.56v.57h.56v2.04c0 .68.31.96 1.1.96.13 0 .26-.02.38-.04v-.56l-.27.02c-.35 0-.5-.17-.5-.55v-1.87h.77v-.56h-.78v-.9z"/>
      <path fill="#1060ff" d="M55.92 118h1.7v-3.73c0-.85.5-1.44 1.36-1.44.78 0 1.2.47 1.2 1.39V118h1.7v-4.17c0-1.55-.83-2.43-2.22-2.43-.95 0-1.66.45-1.96 1.19h-.1v-3.54h-1.68zm8.8.1c.84 0 1.55-.36 1.88-.96h.1v.86h1.66v-4.42c0-1.38-.97-2.2-2.68-2.2-1.63 0-2.73.75-2.84 1.94h1.57c.15-.4.56-.62 1.17-.62.7 0 1.1.32 1.1.88v.54l-1.57.09c-1.61.1-2.51.77-2.51 1.94 0 1.19.87 1.95 2.12 1.95zm.56-1.25c-.59 0-1-.3-1-.8 0-.48.35-.75 1.09-.8l1.3-.09v.48c0 .69-.6 1.2-1.39 1.2zm4.02-3.43c0 .99.6 1.58 1.87 1.86l1.17.26c.57.13.82.33.82.66 0 .43-.46.72-1.12.72-.69 0-1.1-.26-1.23-.7h-1.67c.12 1.22 1.15 1.91 2.86 1.91 1.7 0 2.86-.83 2.86-2.11 0-.97-.57-1.5-1.82-1.77l-1.22-.27c-.6-.13-.88-.34-.88-.67 0-.42.46-.7 1.07-.7.63 0 1.03.26 1.11.69h1.58c-.09-1.23-1.06-1.91-2.7-1.91-1.62 0-2.7.81-2.7 2.02zm6.42 4.58h1.71v-3.73c0-.86.5-1.44 1.35-1.44.78 0 1.2.47 1.2 1.39V118h1.7v-4.17c0-1.55-.82-2.43-2.22-2.43-.95 0-1.65.45-1.95 1.19h-.11v-3.54h-1.68zm7.9-7.47c.53 0 .96-.42.96-.95a.96.96 0 0 0-.96-.96.97.97 0 0 0-.97.96c0 .53.44.95.97.95zm-.86 7.47h1.7v-6.47h-1.7zm8.58-4.22c-.14-1.44-1.17-2.4-2.89-2.4-2.03 0-3.17 1.24-3.17 3.37 0 2.16 1.15 3.38 3.17 3.38 1.69 0 2.75-.92 2.89-2.35h-1.6c-.13.65-.59 1-1.29 1-.91 0-1.44-.73-1.44-2.03 0-1.29.52-2 1.44-2 .73 0 1.17.41 1.29 1.03zm3.61 4.35c2 0 3.2-1.25 3.2-3.37 0-2.1-1.22-3.37-3.2-3.37-1.97 0-3.2 1.28-3.2 3.37 0 2.11 1.2 3.37 3.2 3.37zm0-1.35c-.92 0-1.43-.74-1.43-2.02 0-1.27.52-2.02 1.43-2.02.9 0 1.44.75 1.44 2.02 0 1.28-.53 2.02-1.44 2.02zm3.99 1.22h1.71v-3.62c0-.91.64-1.47 1.58-1.47.27 0 .67.05.8.1v-1.51a2.66 2.66 0 0 0-.66-.08c-.83 0-1.5.49-1.67 1.14h-.1v-1.03h-1.66zm8.45-6.58c-.9 0-1.63.44-1.99 1.17h-.1v-1.06h-1.66v8.62h1.71V117h.1c.32.68 1.04 1.09 1.96 1.09 1.63 0 2.62-1.26 2.62-3.34 0-2.09-1-3.34-2.65-3.34zm-.59 5.3c-.9 0-1.47-.74-1.47-1.95s.57-1.96 1.48-1.96 1.46.73 1.46 1.95-.54 1.96-1.47 1.96zm16.83-5.3c-.89 0-1.62.44-1.98 1.17h-.1v-1.06h-1.66v8.62h1.71V117h.1c.32.68 1.04 1.09 1.96 1.09 1.63 0 2.62-1.26 2.62-3.34 0-2.09-1-3.34-2.65-3.34zm-.58 5.3c-.9 0-1.47-.74-1.47-1.95s.57-1.96 1.48-1.96 1.46.73 1.46 1.95-.54 1.96-1.47 1.96zm4.02 1.28h1.71v-3.62c0-.91.64-1.47 1.58-1.47.27 0 .67.05.8.1v-1.51a2.66 2.66 0 0 0-.66-.08c-.82 0-1.5.49-1.67 1.14h-.1v-1.03h-1.66zm8.68-1.83c-.18.44-.65.69-1.32.69-.9 0-1.46-.62-1.48-1.6v-.1h4.45v-.5c0-2.05-1.13-3.27-3.04-3.27-1.93 0-3.12 1.3-3.12 3.4 0 2.1 1.17 3.34 3.14 3.34 1.59 0 2.71-.75 2.96-1.96zm-1.39-3.5c.8 0 1.32.54 1.36 1.43h-2.77c.06-.87.62-1.44 1.41-1.44zm9.58 1.11c-.14-1.44-1.17-2.4-2.89-2.4-2.03 0-3.17 1.24-3.17 3.37 0 2.16 1.15 3.38 3.17 3.38 1.69 0 2.75-.92 2.89-2.35h-1.6c-.13.65-.6 1-1.29 1-.92 0-1.44-.73-1.44-2.03 0-1.29.52-2 1.44-2 .73 0 1.17.41 1.29 1.03zm1.6-3.25c.53 0 .97-.42.97-.95a.97.97 0 0 0-1.94 0c0 .53.45.95.97.95zm-.85 7.47h1.7v-6.47h-1.7zm2.7-4.59c0 1 .6 1.6 1.86 1.87l1.18.26c.57.13.81.33.81.66 0 .43-.45.72-1.12.72-.68 0-1.1-.26-1.23-.7h-1.67c.12 1.22 1.16 1.91 2.87 1.91 1.7 0 2.85-.83 2.85-2.11 0-.97-.56-1.5-1.82-1.77l-1.22-.27c-.6-.13-.87-.34-.87-.67 0-.42.45-.7 1.06-.7.64 0 1.03.26 1.12.69h1.58c-.1-1.23-1.06-1.91-2.71-1.91-1.62 0-2.7.81-2.7 2.02zm10.55 2.76c-.19.44-.65.69-1.33.69-.89 0-1.45-.62-1.48-1.6v-.1h4.45v-.5c0-2.05-1.13-3.27-3.04-3.27-1.92 0-3.11 1.3-3.11 3.4 0 2.1 1.16 3.34 3.14 3.34 1.58 0 2.7-.75 2.96-1.96zm-1.4-3.5c.8 0 1.33.54 1.36 1.43h-2.76c.06-.87.62-1.44 1.4-1.44zm7.23 5.54c1.9 0 3.25-1.25 3.25-3 0-1.62-1.19-2.8-2.8-2.8-.98 0-1.77.44-2.16 1.24h-.1c0-1.88.68-2.94 1.85-2.94.69 0 1.2.36 1.34.95h1.75c-.2-1.4-1.44-2.36-3.11-2.36-2.17 0-3.53 1.7-3.53 4.53 0 2.93 1.48 4.38 3.51 4.38zm-.02-1.4c-.88 0-1.53-.7-1.53-1.58 0-.89.63-1.53 1.54-1.53s1.53.64 1.53 1.55c0 .87-.65 1.56-1.54 1.56zM172 118h1.69v-1.56h1.11v-1.42h-1.11v-5.5h-2.49a97.07 97.07 0 0 0-3.35 5.53v1.4H172zm-2.56-3.03a73.74 73.74 0 0 1 2.5-4.1h.1v4.2h-2.6z"/>
      <path fill="#0c0c0e" d="m114.06 119.82 3.04-10.77h-1.57l-3.04 10.77z"/>
      <path fill="#3c434d" fill-opacity=".75" d="m182.72 118 1.67-4.71h-.77l-1.27 3.83h-.05l-1.27-3.83h-.8l1.68 4.71zm3.04.06c.46 0 .85-.2 1.07-.56h.05v.5h.68v-2.43c0-.74-.5-1.18-1.4-1.18-.8 0-1.38.38-1.45.98h.68c.08-.26.35-.4.74-.4.48 0 .73.21.73.6v.31l-.97.06c-.84.06-1.32.42-1.32 1.06 0 .65.5 1.06 1.19 1.06zm.18-.57c-.38 0-.66-.19-.66-.52 0-.32.22-.5.7-.53l.88-.06v.31c0 .46-.4.8-.92.8zm4.12 1.87c1 0 1.64-.52 1.64-1.32v-3.59h-.67v.57h-.06c-.2-.39-.63-.63-1.12-.63-.9 0-1.47.72-1.47 1.8 0 1.06.56 1.76 1.47 1.76.49 0 .88-.21 1.1-.6h.05v.68c0 .48-.35.77-.93.77-.48 0-.78-.17-.83-.44h-.72c.07.6.65 1 1.53 1zm-.01-2c-.6 0-.95-.45-.95-1.18s.34-1.19.95-1.19c.6 0 .96.47.96 1.2s-.36 1.18-.96 1.18zm2.67.64h.7v-2.12c0-.5.37-.84.9-.84.13 0 .34.02.4.04v-.66a1.51 1.51 0 0 0-.32-.03c-.46 0-.85.25-.96.6h-.05v-.54h-.67zm3.63.06c.47 0 .86-.2 1.07-.56h.05v.5h.68v-2.43c0-.74-.5-1.18-1.4-1.18-.8 0-1.37.38-1.45.98h.68c.08-.26.35-.4.74-.4.48 0 .73.21.73.6v.31l-.96.06c-.85.06-1.32.42-1.32 1.06 0 .65.5 1.06 1.18 1.06zm.18-.57c-.38 0-.66-.19-.66-.52 0-.32.22-.5.71-.53l.87-.06v.31c0 .46-.39.8-.92.8zm2.62.51h.7v-2.08c0-.57.33-.92.85-.92s.77.28.77.87V118h.7v-2.3c0-.84-.44-1.32-1.23-1.32-.54 0-.89.24-1.06.63h-.05v-.56h-.68zm4.26-4.44v.9h-.57v.57h.57v2.04c0 .68.3.95 1.09.95.14 0 .27-.01.38-.03v-.56l-.27.01c-.35 0-.5-.16-.5-.54v-1.88h.77v-.56h-.77v-.9zm6.01 4.5c.9 0 1.47-.72 1.47-1.83 0-1.13-.57-1.84-1.47-1.84-.49 0-.9.24-1.1.63h-.05v-1.96h-.7V118h.67v-.56h.06c.2.39.62.62 1.12.62zm-.2-3.07c.6 0 .95.47.95 1.24 0 .76-.36 1.23-.95 1.23-.6 0-.96-.47-.96-1.23s.37-1.24.96-1.24zm4.02 3.08c1.04 0 1.67-.7 1.67-1.84s-.64-1.85-1.67-1.85c-1.04 0-1.68.7-1.68 1.85 0 1.14.64 1.84 1.68 1.84zm0-.6c-.61 0-.96-.45-.96-1.24 0-.8.35-1.25.96-1.25.6 0 .95.46.95 1.25 0 .78-.34 1.24-.95 1.24zm3.67-.74.78 1.28h.8l-1.18-1.8 1.17-1.75h-.79l-.75 1.27h-.06l-.76-1.27h-.82l1.19 1.78-1.18 1.77h.77l.78-1.28z"/>
      <g clip-path="url(#e)">
        <path fill="#3c434d" fill-opacity=".75" d="M88.52 219.6c-.1-.7-.63-1.22-1.52-1.22-1.04 0-1.67.7-1.67 1.83 0 1.15.64 1.86 1.67 1.86.88 0 1.43-.5 1.52-1.2h-.68c-.1.4-.4.6-.84.6-.59 0-.95-.47-.95-1.26 0-.76.36-1.23.95-1.23.47 0 .76.27.84.61zm3.8-1.15h-.7v2.08c0 .57-.31.92-.88.92-.52 0-.75-.28-.75-.87v-2.13h-.7v2.3c0 .84.44 1.32 1.23 1.32.53 0 .9-.23 1.07-.63h.06v.56h.67zm1.02 3.55h.7v-2.12c0-.5.38-.84.91-.84.12 0 .33.02.4.04v-.66a1.7 1.7 0 0 0-.32-.03c-.47 0-.86.25-.96.6h-.05v-.54h-.68zm2.73 0h.7v-2.12c0-.5.38-.84.91-.84.12 0 .33.02.4.04v-.66a1.7 1.7 0 0 0-.32-.03c-.47 0-.86.25-.96.6h-.05v-.54h-.68zm4.92-.95c-.13.29-.42.44-.85.44-.56 0-.92-.4-.94-1.04v-.04h2.5v-.24c0-1.1-.6-1.78-1.58-1.78-1 0-1.64.72-1.64 1.84 0 1.14.62 1.84 1.64 1.84.82 0 1.4-.4 1.54-1.02zm-.87-2.1c.52 0 .85.38.87.96h-1.8c.04-.58.4-.95.93-.95zm2.43 3.05h.7v-2.08c0-.57.33-.92.85-.92s.77.28.77.87V222h.7v-2.3c0-.84-.44-1.32-1.23-1.32-.54 0-.89.24-1.06.63h-.05v-.56h-.68zm4.26-4.44v.9h-.57v.56h.57v2.05c0 .68.3.95 1.09.95.14 0 .27-.01.38-.03v-.56l-.27.01c-.35 0-.5-.16-.5-.54v-1.88h.77v-.56h-.77v-.9zm2.33 4.44h.7v-4.94h-.7zm2.1 1.29c.73 0 1.07-.27 1.37-1.13l1.33-3.7h-.74l-.9 2.83h-.05l-.89-2.84h-.76l1.28 3.56-.05.18c-.12.38-.31.52-.64.52l-.23-.01v.57l.29.02zm5.25-1.29h.7v-2.12c0-.5.38-.84.9-.84.13 0 .34.02.4.04v-.66a1.7 1.7 0 0 0-.31-.03c-.47 0-.86.25-.96.6h-.06v-.54h-.67zm4.92-.95c-.13.29-.43.44-.85.44-.56 0-.92-.4-.95-1.04v-.04h2.51v-.24c0-1.1-.6-1.78-1.58-1.78-1 0-1.64.72-1.64 1.84 0 1.14.62 1.84 1.64 1.84.81 0 1.39-.4 1.54-1.02zm-.88-2.1c.52 0 .86.38.88.96h-1.8c.04-.57.4-.95.92-.95zM123 222h.7v-4.94h-.7zm4.09-.95c-.13.29-.42.44-.85.44-.56 0-.92-.4-.94-1.04v-.04h2.5v-.24c0-1.1-.6-1.78-1.58-1.78-1 0-1.64.72-1.64 1.84 0 1.14.62 1.84 1.64 1.84.81 0 1.39-.4 1.54-1.02zm-.88-2.1c.53 0 .86.38.88.96h-1.8c.04-.57.4-.95.92-.95zm3.42 3.1c.47 0 .86-.2 1.07-.55h.06v.5h.67v-2.43c0-.74-.5-1.18-1.4-1.18-.8 0-1.37.38-1.45.98h.68c.08-.26.35-.4.74-.4.48 0 .73.22.73.6v.31l-.96.06c-.85.06-1.32.42-1.32 1.06 0 .65.5 1.06 1.18 1.06zm.18-.56c-.38 0-.66-.19-.66-.52 0-.32.22-.5.71-.53l.87-.06v.31c0 .46-.39.8-.92.8zm2.54-2.04c0 .52.31.82.99.98l.62.15c.35.08.52.23.52.45 0 .29-.3.49-.75.49-.42 0-.68-.17-.77-.45h-.7c.06.62.61 1 1.46 1s1.47-.45 1.47-1.1c0-.52-.32-.81-1-.97l-.58-.14c-.39-.09-.57-.23-.57-.45 0-.28.3-.48.69-.48.4 0 .65.18.72.44h.67c-.07-.61-.59-.98-1.39-.98-.8 0-1.38.44-1.38 1.06zm6.02 1.6c-.13.29-.42.44-.85.44-.56 0-.92-.4-.95-1.04v-.04h2.52v-.24c0-1.1-.6-1.78-1.6-1.78s-1.63.72-1.63 1.84c0 1.14.62 1.84 1.64 1.84.82 0 1.39-.4 1.54-1.02zm-.87-2.1c.51 0 .85.38.87.96h-1.8c.04-.57.4-.95.93-.95zm3.73 3.1c.49 0 .9-.22 1.11-.61h.06v.56h.67v-4.94h-.7v1.96h-.05c-.2-.4-.6-.63-1.1-.63-.9 0-1.47.72-1.47 1.83 0 1.13.57 1.84 1.48 1.84zm.2-3.06c.59 0 .95.48.95 1.24s-.36 1.23-.95 1.23c-.6 0-.95-.46-.95-1.23s.36-1.24.95-1.24zm7.54-.54h-.75l-.88 2.83h-.05l-.89-2.83h-.75l1.28 3.55h.76zm2.9 2.6c-.13.29-.42.44-.84.44-.56 0-.93-.4-.95-1.04v-.04h2.51v-.24c0-1.1-.6-1.78-1.58-1.78-1 0-1.64.72-1.64 1.84 0 1.14.62 1.84 1.64 1.84.81 0 1.39-.4 1.54-1.02zm-.87-2.1c.52 0 .86.38.88.96h-1.8c.04-.57.4-.95.92-.95zm2.43 3.05h.7v-2.12c0-.5.38-.84.91-.84.13 0 .34.02.4.04v-.66a1.51 1.51 0 0 0-.32-.03c-.46 0-.86.25-.96.6h-.05v-.54h-.68zm2.53-2.55c0 .52.31.82.99.98l.62.15c.36.08.52.23.52.45 0 .29-.3.49-.75.49-.42 0-.68-.17-.77-.45h-.7c.06.62.61 1 1.46 1s1.47-.45 1.47-1.1c0-.52-.32-.81-1-.97l-.58-.14c-.39-.09-.57-.23-.57-.45 0-.28.3-.48.69-.48.4 0 .65.18.72.44h.67c-.07-.61-.59-.98-1.39-.98-.8 0-1.38.44-1.38 1.06zm4.05-1.63c.24 0 .44-.2.44-.44a.44.44 0 0 0-.89 0c0 .24.2.44.45.44zm-.35 4.18h.7v-3.55h-.7zm3.23.07c1.04 0 1.68-.7 1.68-1.84s-.64-1.84-1.68-1.84-1.68.7-1.68 1.84c0 1.14.64 1.84 1.68 1.84zm0-.6c-.6 0-.95-.45-.95-1.24 0-.8.34-1.25.95-1.25.6 0 .96.46.96 1.25 0 .78-.35 1.24-.96 1.24zm2.52.53h.7v-2.08c0-.57.33-.92.85-.92s.77.28.77.87V222h.7v-2.3c0-.84-.43-1.31-1.23-1.31-.53 0-.89.23-1.06.63h-.05v-.57h-.68z"/>
        <path fill="#1060ff" d="M60.6 216.6h-1.5l-1.11 4.06h-.09l-1.12-4.06h-1.53l1.88 5.4h1.6zm2.18 5.4h1.48v-7.07h-1.48l-1.83 1.27v1.33l1.74-1.2h.09zm3.7.12c.53 0 .87-.35.87-.83s-.34-.83-.87-.83-.87.35-.87.83.34.83.87.83zm3.15-.12h1.48v-7.07h-1.48l-1.83 1.27v1.33l1.74-1.2h.09zm3.7.12c.53 0 .86-.35.86-.83s-.33-.83-.86-.83-.87.35-.87.83.34.83.87.83zm4.2.06c1.76 0 2.82-1.38 2.82-3.72 0-2.35-1.08-3.72-2.81-3.72-1.74 0-2.81 1.37-2.81 3.71 0 2.35 1.06 3.73 2.8 3.73zm0-1.17c-.8 0-1.3-.86-1.3-2.56 0-1.68.5-2.53 1.3-2.53.81 0 1.31.84 1.31 2.53 0 1.7-.49 2.56-1.3 2.56z"/>
      </g>
      <g filter="url(#b)">
        <path fill="url(#c)" d="M340 41H45a5 5 0 0 0-5 5v27h300z"/>
      </g>
      <path fill="#fff" fill-opacity=".75" d="M173.6 54.29V59h1.7c1.4 0 2.21-.87 2.21-2.37 0-1.48-.82-2.34-2.22-2.34zm.72.63h.9c.97 0 1.55.63 1.55 1.72 0 1.1-.57 1.73-1.56 1.73h-.89zm5.07 4.14c.47 0 .86-.2 1.07-.56h.05v.5h.68v-2.43c0-.74-.5-1.19-1.4-1.19-.8 0-1.38.4-1.45 1h.68c.08-.27.35-.41.74-.41.48 0 .73.21.73.6v.31l-.96.06c-.85.05-1.32.42-1.32 1.06 0 .65.5 1.06 1.18 1.06zm.18-.57c-.38 0-.66-.19-.66-.52 0-.32.22-.5.71-.53l.87-.06v.31c0 .46-.4.8-.92.8zm2.54-2.04c0 .52.31.82.99.98l.62.15c.35.08.52.22.52.45 0 .29-.31.49-.75.49-.42 0-.68-.17-.77-.45h-.7c.06.62.61 1 1.46 1s1.47-.45 1.47-1.1c0-.52-.32-.82-1-.97l-.58-.14c-.39-.09-.57-.23-.57-.45 0-.28.3-.48.69-.48.4 0 .65.18.72.44h.67c-.07-.61-.6-.98-1.4-.98-.8 0-1.37.44-1.37 1.06zm3.72 2.55h.7v-2.08c0-.55.32-.92.9-.92.5 0 .76.29.76.87V59h.7v-2.3c0-.83-.47-1.31-1.23-1.31-.53 0-.9.23-1.08.63h-.06v-1.96h-.7zm5.93.06c.9 0 1.47-.72 1.47-1.83 0-1.13-.57-1.84-1.47-1.84-.49 0-.9.24-1.1.63h-.05v-1.96h-.7V59h.68v-.56h.05c.21.39.63.62 1.12.62zm-.2-3.07c.6 0 .95.47.95 1.24 0 .76-.36 1.23-.95 1.23-.6 0-.96-.47-.96-1.23s.37-1.24.96-1.24zm4.02 3.08c1.04 0 1.67-.7 1.67-1.84 0-1.15-.64-1.84-1.67-1.84-1.04 0-1.68.7-1.68 1.84 0 1.14.64 1.84 1.68 1.84zm0-.6c-.61 0-.95-.45-.95-1.24 0-.8.34-1.25.95-1.25.6 0 .95.46.95 1.25 0 .78-.34 1.24-.95 1.24zm3.5.59c.47 0 .86-.2 1.07-.56h.06v.5h.67v-2.43c0-.74-.5-1.19-1.4-1.19-.8 0-1.37.4-1.45 1h.68c.08-.27.35-.41.75-.41.48 0 .72.21.72.6v.31l-.96.06c-.85.05-1.32.42-1.32 1.06 0 .65.5 1.06 1.18 1.06zm.18-.57c-.38 0-.66-.19-.66-.52 0-.32.23-.5.71-.53l.87-.06v.31c0 .46-.39.8-.92.8zm2.62.51h.7v-2.12c0-.5.38-.84.91-.84.13 0 .33.02.4.04v-.66a1.58 1.58 0 0 0-.32-.03c-.46 0-.86.25-.96.6h-.05v-.54h-.68zm3.89.06c.49 0 .9-.23 1.11-.62h.06V59h.67v-4.94h-.7v1.96h-.05c-.2-.4-.6-.63-1.1-.63-.9 0-1.47.72-1.47 1.83 0 1.13.57 1.84 1.48 1.84zm.2-3.07c.58 0 .95.48.95 1.24s-.36 1.23-.95 1.23c-.6 0-.95-.46-.95-1.23s.36-1.24.95-1.24zm17.4 1.75c.05.84.75 1.37 1.8 1.37 1.12 0 1.81-.56 1.81-1.45 0-.7-.4-1.1-1.36-1.32l-.52-.13c-.61-.15-.86-.35-.86-.7 0-.43.38-.72.96-.72.55 0 .93.28 1 .73h.7c-.03-.8-.73-1.35-1.69-1.35-1.03 0-1.71.56-1.71 1.39 0 .68.38 1.09 1.24 1.3l.6.14c.63.15.9.38.9.75 0 .43-.43.74-1.02.74-.63 0-1.06-.29-1.13-.75zm6.83.31c-.13.29-.42.44-.85.44-.56 0-.92-.4-.94-1.04v-.04h2.5v-.24c0-1.1-.6-1.78-1.58-1.78-1 0-1.64.72-1.64 1.84 0 1.14.62 1.84 1.64 1.84.82 0 1.39-.4 1.54-1.02zm-.87-2.1c.51 0 .85.38.87.96h-1.8c.04-.57.4-.95.93-.95zm3.41 3.1c.47 0 .86-.2 1.07-.55h.05v.5h.68v-2.43c0-.74-.5-1.19-1.4-1.19-.8 0-1.37.4-1.45 1h.68c.08-.27.35-.41.74-.41.48 0 .73.21.73.6v.31l-.96.06c-.85.05-1.32.42-1.32 1.06 0 .65.5 1.06 1.18 1.06zm.18-.56c-.38 0-.66-.19-.66-.52 0-.32.22-.5.71-.53l.87-.06v.31c0 .46-.39.8-.92.8zm2.62.51h.7v-2.12c0-.5.38-.84.91-.84.12 0 .33.02.4.04v-.66a1.58 1.58 0 0 0-.32-.03c-.47 0-.86.25-.96.6h-.05v-.54h-.68zm5.6-2.4c-.1-.7-.63-1.21-1.52-1.21-1.04 0-1.67.7-1.67 1.82 0 1.15.63 1.86 1.67 1.86.88 0 1.43-.5 1.52-1.2h-.68c-.1.4-.4.6-.84.6-.59 0-.95-.47-.95-1.26 0-.76.36-1.23.95-1.23.47 0 .75.27.84.61zm.83 2.4h.7v-2.08c0-.55.33-.92.9-.92.5 0 .76.29.76.87V59h.7v-2.3c0-.83-.46-1.31-1.22-1.31-.54 0-.91.23-1.09.63h-.05v-1.96h-.7zm18.63-4.71V59h.72v-1.61h1.1c.92 0 1.57-.63 1.57-1.54 0-.93-.63-1.56-1.55-1.56zm.72.61h.92c.65 0 1 .34 1 .95 0 .59-.37.93-1 .93h-.92zm3.53 4.1h.7v-2.12c0-.5.38-.84.91-.84.13 0 .34.02.4.04v-.66a1.51 1.51 0 0 0-.32-.03c-.46 0-.86.25-.96.6h-.05v-.54h-.68zm3.04-4.18c.25 0 .45-.2.45-.44a.44.44 0 0 0-.9 0c0 .24.2.44.45.44zm-.35 4.18h.7v-3.55h-.7zm4.75-2.4c-.1-.7-.63-1.21-1.53-1.21-1.03 0-1.66.7-1.66 1.82 0 1.15.63 1.86 1.67 1.86.88 0 1.42-.5 1.52-1.2h-.69c-.09.4-.4.6-.84.6-.58 0-.94-.47-.94-1.26 0-.76.36-1.23.94-1.23.47 0 .76.27.84.61zm1.16-1.78c.25 0 .45-.2.45-.44a.44.44 0 0 0-.9 0c0 .24.2.44.45.44zM273.1 59h.7v-3.55h-.7zm1.73 0h.7v-2.08c0-.57.33-.92.85-.92s.77.28.77.87V59h.7v-2.3c0-.84-.43-1.31-1.23-1.31-.53 0-.89.23-1.06.63h-.05v-.57h-.68zm5.51 1.36c1 0 1.64-.52 1.64-1.32v-3.59h-.67v.57h-.05c-.2-.39-.63-.63-1.12-.63-.9 0-1.48.72-1.48 1.8 0 1.06.56 1.76 1.47 1.76.5 0 .88-.21 1.1-.6h.05v.68c0 .48-.34.77-.93.77-.47 0-.77-.17-.83-.44h-.72c.08.6.65 1 1.54 1zm0-2c-.61 0-.95-.45-.95-1.18 0-.72.34-1.19.94-1.19.6 0 .97.47.97 1.2 0 .72-.37 1.18-.97 1.18z"/>
      <path fill="#1868f2" d="m61 50.9-2.6 1.51v.93l-1.6 3.74-1.59-3.74v-.93l-2.6-1.5-1.6.91v1.07l3.54 8.66 2.26 1.3 2.25-1.3 3.54-8.66v-1.07z"/>
      <path fill="#0850c5" d="m62.6 51.82-2.62 1.5v.93L57.86 59l-1.05.62v3.24l2.25-1.3 3.54-8.66zm-7.39 1.52v-.93l-1.59.92v.92L55.75 59l1.06-.6v-1.31z"/>
      <path fill="#fff" d="m74.44 61 2.82-8.48h-1.9l-1.9 6.54h-.1l-1.93-6.54h-2L72.28 61zm4.54.1c.84 0 1.54-.36 1.88-.96h.1V61h1.66v-4.42c0-1.38-.97-2.2-2.68-2.2-1.63 0-2.73.75-2.84 1.94h1.57c.14-.4.56-.62 1.17-.62.7 0 1.1.32 1.1.88v.53l-1.57.1c-1.61.1-2.51.77-2.51 1.94 0 1.19.87 1.95 2.12 1.95zm.56-1.25c-.6 0-1-.3-1-.8 0-.48.35-.75 1.09-.8l1.3-.09v.48c0 .68-.6 1.2-1.39 1.2zm7.02 3.6c1.96 0 3.2-.95 3.2-2.46v-6.46H88.1v1.03H88a2.13 2.13 0 0 0-1.98-1.14c-1.64 0-2.65 1.28-2.65 3.29 0 1.94 1 3.2 2.62 3.2.91 0 1.6-.37 1.95-1.06h.1v1.2c0 .76-.53 1.19-1.45 1.19-.74 0-1.22-.26-1.3-.67h-1.7c.1 1.13 1.25 1.88 2.97 1.88zm.02-3.85c-.93 0-1.46-.73-1.46-1.9 0-1.16.54-1.89 1.46-1.89.93 0 1.48.73 1.48 1.9 0 1.16-.55 1.89-1.48 1.89zm4.3 1.4h1.7v-3.62c0-.91.64-1.47 1.58-1.47.27 0 .67.05.8.1V54.5a2.66 2.66 0 0 0-.66-.08c-.82 0-1.5.49-1.67 1.14h-.1v-1.03h-1.66zm6.29.1c.84 0 1.55-.36 1.88-.96h.1V61h1.67v-4.42c0-1.38-.98-2.2-2.7-2.2-1.62 0-2.72.75-2.83 1.94h1.57c.15-.4.56-.62 1.17-.62.71 0 1.1.32 1.1.88v.53l-1.57.1c-1.61.1-2.51.77-2.51 1.94 0 1.19.87 1.95 2.12 1.95zm.56-1.25c-.59 0-1-.3-1-.8 0-.48.35-.75 1.09-.8l1.3-.09v.48c0 .68-.6 1.2-1.39 1.2zM101.9 61h1.72v-3.74c0-.88.48-1.44 1.28-1.44s1.19.47 1.19 1.38V61h1.71v-4.19c0-1.54-.78-2.42-2.22-2.42-.95 0-1.61.45-1.91 1.18h-.1v-1.04h-1.67zm7.45-8.02v1.6h-1.01v1.3h1v3.37c0 1.26.63 1.77 2.2 1.77.34 0 .65-.03.87-.07v-1.27c-.17.02-.29.03-.51.03-.58 0-.84-.27-.84-.85v-2.97h1.35v-1.3h-1.35v-1.6zm10.16 8.24c2.04 0 3.54-1.24 3.68-3.05h-1.72c-.17.93-.94 1.53-1.96 1.53-1.34 0-2.16-1.13-2.16-2.94s.82-2.95 2.16-2.95a1.9 1.9 0 0 1 1.95 1.63h1.73c-.13-1.82-1.67-3.14-3.68-3.14-2.46 0-3.98 1.7-3.98 4.46s1.52 4.46 3.98 4.46zm4.6-.22h1.71v-8.95h-1.7zm5.77.14c2 0 3.19-1.26 3.19-3.38 0-2.1-1.22-3.37-3.2-3.37s-3.18 1.28-3.18 3.37c0 2.11 1.2 3.38 3.19 3.38zm0-1.36c-.92 0-1.44-.74-1.44-2.02 0-1.27.53-2.02 1.44-2.02.9 0 1.43.75 1.43 2.02 0 1.28-.52 2.02-1.43 2.02zm9.85-5.25h-1.7v3.74c0 .88-.47 1.43-1.32 1.43-.79 0-1.2-.46-1.2-1.38v-3.8h-1.7v4.22c0 1.5.87 2.4 2.27 2.4.98 0 1.58-.43 1.89-1.18h.1V61h1.66zm3.44 6.57c.9 0 1.63-.42 1.98-1.12h.1V61h1.66v-8.95h-1.7v3.51h-.1a2.05 2.05 0 0 0-1.94-1.14c-1.63 0-2.64 1.28-2.64 3.34 0 2.06 1 3.34 2.64 3.34zm.58-5.29c.91 0 1.47.75 1.47 1.96s-.55 1.95-1.47 1.95-1.46-.74-1.46-1.96.55-1.95 1.46-1.95z"/>
      <path fill="#0c0c0e" d="M55 137a6 6 0 0 1 6-6h279v72H61a6 6 0 0 1-6-6z"/>
      <path fill="#fff" d="m69.4 153.34 1.38-5.17h.81L69.9 154h-.96l-1.7-5.83h.8zm5.16-1.54h-.24c-.42 0-.73.08-.94.22-.22.15-.32.37-.32.66 0 .26.08.47.24.61.16.15.38.22.66.22.4 0 .7-.13.93-.4.23-.28.34-.66.34-1.15v-.16zm1.4-.3v2.5h-.73v-.65a1.5 1.5 0 0 1-.58.58 1.8 1.8 0 0 1-.85.18c-.44 0-.8-.12-1.06-.37-.27-.25-.4-.6-.4-1.01 0-.49.16-.86.49-1.11.33-.25.8-.38 1.44-.38h.96v-.11c0-.35-.09-.6-.26-.76-.18-.16-.45-.24-.84-.24a2.74 2.74 0 0 0-1.47.41v-.72a4.87 4.87 0 0 1 1.47-.3c.36 0 .67.05.93.16.26.1.46.27.62.48.1.13.17.3.21.48.05.2.07.48.07.86zm4.03.28c0-.54-.09-.95-.26-1.23a.85.85 0 0 0-.77-.42.9.9 0 0 0-.8.42c-.19.28-.28.69-.28 1.23s.1.95.28 1.23a.9.9 0 0 0 .8.42c.34 0 .6-.14.77-.42.17-.29.26-.7.26-1.23zm.72 1.94c0 .66-.15 1.15-.46 1.5-.31.33-.77.5-1.37.5a3.68 3.68 0 0 1-1.27-.22v-.7c.25.11.49.2.7.26.2.06.4.08.57.08.39 0 .67-.1.85-.31.17-.21.26-.55.26-1v-.52a1.2 1.2 0 0 1-.47.54c-.2.12-.44.18-.72.18-.51 0-.92-.2-1.22-.61s-.46-.96-.46-1.64c0-.69.15-1.24.46-1.65s.71-.61 1.22-.61c.28 0 .52.06.72.17.2.1.35.28.47.52v-.57h.72zm5.26-3.2a1.59 1.59 0 0 0-1-.34c-.44 0-.78.14-1.02.43-.23.28-.35.68-.35 1.21V154h-.73v-4.38h.73v.86a1.45 1.45 0 0 1 1.44-.96 1.68 1.68 0 0 1 .93.27zm3.05 1.28h-.23c-.42 0-.74.08-.95.22-.22.15-.32.37-.32.66 0 .26.08.47.24.61.16.15.38.22.66.22.4 0 .7-.13.93-.4.23-.28.34-.66.35-1.15v-.16zm1.4-.3v2.5h-.72v-.65a1.5 1.5 0 0 1-.59.58 1.8 1.8 0 0 1-.84.18c-.45 0-.8-.12-1.07-.37s-.4-.6-.4-1.01c0-.49.16-.86.49-1.11.33-.25.8-.38 1.44-.38h.97v-.11c0-.35-.1-.6-.27-.76-.17-.16-.45-.24-.84-.24a2.74 2.74 0 0 0-1.47.41v-.72a4.87 4.87 0 0 1 1.47-.3c.37 0 .67.05.93.16a1.36 1.36 0 0 1 .84.96c.04.2.06.48.06.86zm4.79-.21V154h-.73v-2.71c0-.4-.06-.68-.2-.87-.14-.18-.36-.27-.65-.27-.34 0-.6.11-.78.35-.18.24-.27.58-.27 1.03V154h-.72v-4.37h.72v.65c.13-.25.3-.44.52-.56.22-.13.48-.2.78-.2.44 0 .78.15 1 .44.22.3.33.74.33 1.33zm3.11-2.9v1.24h1.63v.55h-1.63v2.38c0 .32.06.55.18.67.13.13.34.2.64.2h.81v.57h-.88c-.53 0-.92-.1-1.14-.32-.22-.22-.33-.6-.33-1.12v-2.38h-1.17v-.55h1.17v-1.25zm3.94 4.03h1.38V154h-1.38zm7.45 1.36a2.4 2.4 0 0 1-1.23.33c-.67 0-1.2-.2-1.59-.6a2.41 2.41 0 0 1-.57-1.7c0-.71.2-1.27.58-1.68.38-.4.9-.61 1.58-.61a2.33 2.33 0 0 1 1.23.33v.76c-.2-.17-.38-.3-.58-.37-.19-.07-.4-.11-.65-.11-.45 0-.8.14-1.04.44-.24.29-.36.7-.36 1.25 0 .53.12.95.36 1.25.25.29.6.43 1.04.43.25 0 .48-.03.68-.1.2-.09.38-.2.55-.37zm3.08-3.65a.93.93 0 0 0-.83.42c-.19.29-.28.7-.28 1.27 0 .55.1.97.28 1.26.19.28.46.42.83.42.37 0 .64-.14.83-.42.19-.29.28-.7.28-1.26s-.1-.98-.28-1.27a.93.93 0 0 0-.83-.42zm0-.61c.6 0 1.07.2 1.39.59.32.4.48.96.48 1.7 0 .75-.16 1.32-.48 1.72-.32.39-.78.58-1.4.58-.6 0-1.06-.2-1.38-.58-.32-.4-.48-.97-.48-1.71 0-.75.16-1.32.48-1.71.32-.4.78-.59 1.39-.59zm6.52 1.77V154h-.72v-2.71c0-.4-.07-.68-.21-.87s-.36-.27-.65-.27c-.34 0-.6.11-.78.35-.18.24-.27.58-.27 1.03V154h-.72v-4.37h.72v.65c.13-.25.3-.44.52-.56.22-.13.48-.2.78-.2.45 0 .78.15 1 .44.22.3.33.74.33 1.33zm4.87-3.37v.6h-.82c-.26 0-.44.05-.54.16-.1.1-.15.29-.15.56v.38h1.5v.56h-1.5V154h-.72v-3.82h-1.16v-.56h1.16v-.3c0-.48.11-.83.33-1.06.22-.22.57-.34 1.03-.34zm1.9 1.72h1.84v3.8h1.42v.56h-3.57v-.56h1.43v-3.24h-1.12zm1.12-1.7h.72v.9h-.72zm5.82 3.84c0-.54-.1-.95-.27-1.23a.85.85 0 0 0-.77-.42.9.9 0 0 0-.8.42c-.18.28-.28.69-.28 1.23s.1.95.28 1.23c.19.28.46.42.81.42.33 0 .59-.14.76-.42.18-.29.27-.7.27-1.23zm.71 1.94c0 .66-.15 1.15-.46 1.5-.31.33-.77.5-1.37.5a3.68 3.68 0 0 1-1.27-.22v-.7c.26.11.49.2.7.26.2.06.4.08.57.08.39 0 .67-.1.85-.31s.27-.55.27-1v-.52c-.12.24-.28.42-.47.54-.2.12-.44.18-.73.18-.5 0-.91-.2-1.22-.61-.3-.41-.46-.96-.46-1.64 0-.69.16-1.24.46-1.65.3-.4.71-.61 1.22-.61.28 0 .52.06.72.17.2.1.35.28.48.52v-.57h.71zm1.52-1.38v-2.7h.71v2.7c0 .4.07.69.21.87.14.19.36.28.65.28.34 0 .6-.12.78-.36.18-.24.27-.58.27-1.02v-2.48h.72V154h-.72v-.66a1.35 1.35 0 0 1-1.3.77c-.44 0-.78-.14-1-.43-.22-.3-.32-.74-.32-1.34zm8.57-1.81a1.6 1.6 0 0 0-1-.34c-.44 0-.79.13-1.02.42-.24.28-.36.68-.36 1.21V154h-.72v-4.38h.72v.86a1.46 1.46 0 0 1 1.44-.96 1.65 1.65 0 0 1 .94.27zm4.68.92v.36h-3.11v.02c-.02.6.09 1.02.34 1.28s.6.4 1.05.4a4 4 0 0 0 1.52-.45v.72a4.65 4.65 0 0 1-1.53.33c-.68 0-1.2-.2-1.59-.6a2.43 2.43 0 0 1-.58-1.7c0-.7.2-1.25.57-1.66a1.9 1.9 0 0 1 1.5-.63c.55 0 1 .19 1.31.57.33.37.5.83.52 1.36zm-.72-.2a1.37 1.37 0 0 0-.33-.79 1.01 1.01 0 0 0-.81-.33c-.35 0-.64.11-.86.34-.22.23-.35.49-.37.78zm4.5-3.71c-.34.6-.6 1.18-.77 1.78a6.43 6.43 0 0 0 0 3.56c.17.59.43 1.18.77 1.78h-.62a8.19 8.19 0 0 1-.88-1.8 5.64 5.64 0 0 1 0-3.52 8 8 0 0 1 .88-1.8zm5.18.42v2.39h-.88v-2.4zm-2.09 0v2.39h-.87v-2.4zm4.67 5.38h2.68v.66h-3.54v-.66a171.33 171.33 0 0 0 2.03-2.2c.26-.31.44-.57.53-.77.09-.2.13-.4.13-.6 0-.33-.1-.58-.28-.77a1.08 1.08 0 0 0-.79-.27c-.24 0-.49.04-.75.13-.26.08-.53.21-.82.39v-.8a3.6 3.6 0 0 1 1.55-.39 2 2 0 0 1 1.38.46c.35.3.52.7.52 1.2 0 .24-.06.5-.17.74-.12.25-.3.53-.57.83l-.63.7-1.27 1.35zm7.06-5.38v2.39h-.88v-2.4zm-2.08 0v2.39h-.88v-2.4zm4.57-.42h.62a8 8 0 0 1 .88 1.8 5.6 5.6 0 0 1 0 3.52 8 8 0 0 1-.88 1.8h-.62c.34-.6.6-1.2.77-1.79a6.32 6.32 0 0 0 0-3.55 7.86 7.86 0 0 0-.77-1.78zm11.63 2.64v-2.26h.72V154h-.72v-.55a1.26 1.26 0 0 1-1.17.66c-.53 0-.95-.2-1.25-.61-.3-.41-.45-.98-.45-1.7 0-.71.15-1.27.45-1.67.3-.4.72-.61 1.25-.61.26 0 .5.06.7.17.2.11.35.28.47.5zm-2.12 1.64c0 .55.1.97.27 1.26s.44.42.79.42c.34 0 .6-.14.78-.43.19-.28.28-.7.28-1.25 0-.56-.1-.98-.28-1.26a.87.87 0 0 0-.78-.43c-.35 0-.61.14-.79.42s-.27.7-.27 1.27zm6-1.7a.93.93 0 0 0-.83.43c-.2.29-.29.7-.29 1.27 0 .55.1.97.29 1.26.18.28.46.42.82.42.37 0 .65-.14.84-.42.18-.29.28-.7.28-1.26s-.1-.98-.28-1.27a.93.93 0 0 0-.84-.42zm0-.6c.6 0 1.06.2 1.38.59.33.4.49.96.49 1.7 0 .75-.16 1.32-.48 1.72-.32.39-.79.58-1.4.58-.6 0-1.07-.2-1.39-.58-.32-.4-.48-.97-.48-1.71 0-.75.16-1.32.48-1.71.32-.4.79-.59 1.4-.59zm10.13-1.63v8h-.67v-8zm6.06 5.89a2.4 2.4 0 0 1-1.22.33c-.68 0-1.2-.2-1.59-.6a2.41 2.41 0 0 1-.57-1.7c0-.71.19-1.28.57-1.68.38-.4.91-.61 1.59-.61a2.33 2.33 0 0 1 1.22.33v.76c-.19-.17-.38-.3-.57-.37-.2-.07-.4-.11-.65-.11-.45 0-.8.14-1.04.44-.24.29-.36.7-.36 1.25 0 .53.12.95.36 1.25.25.29.6.43 1.04.43a2 2 0 0 0 .67-.1c.2-.09.38-.2.55-.37zm3.09-3.65a.93.93 0 0 0-.83.42c-.2.29-.28.7-.28 1.27 0 .55.09.97.28 1.26.18.28.46.42.82.42.37 0 .65-.14.84-.42.18-.29.28-.7.28-1.26s-.1-.98-.28-1.27a.93.93 0 0 0-.84-.42zm0-.61c.6 0 1.07.2 1.39.59.32.4.48.96.48 1.7 0 .75-.16 1.32-.48 1.72-.32.39-.79.58-1.4.58-.6 0-1.07-.2-1.39-.58-.32-.4-.48-.97-.48-1.71 0-.75.16-1.32.48-1.71.33-.4.79-.59 1.4-.59zm6.52 1.77V154h-.73v-2.71c0-.4-.07-.68-.2-.87s-.36-.28-.65-.28c-.34 0-.6.12-.78.36-.18.24-.27.58-.27 1.03V154h-.72v-4.38h.72v.66c.13-.25.3-.44.52-.56.22-.13.48-.2.78-.2.44 0 .77.15 1 .44.21.3.33.74.33 1.33zm4.86-3.37v.6h-.81c-.26 0-.44.05-.54.16-.1.1-.15.29-.15.56v.38h1.5v.56h-1.5V154h-.72v-3.82h-1.17v-.56h1.17v-.3c0-.48.1-.83.33-1.06.22-.23.56-.34 1.03-.34zm1.9 1.72h1.84v3.8h1.43v.56h-3.57v-.56h1.42v-3.24h-1.12zm1.12-1.7h.72v.9h-.72zm5.82 3.84c0-.54-.09-.95-.26-1.23a.85.85 0 0 0-.77-.42.9.9 0 0 0-.8.42c-.19.28-.28.69-.28 1.23s.1.95.28 1.23a.9.9 0 0 0 .8.42c.34 0 .6-.14.77-.42.17-.29.26-.7.26-1.23zm.72 1.94c0 .65-.15 1.15-.47 1.5-.3.33-.76.5-1.36.5a3.68 3.68 0 0 1-1.27-.22v-.7c.25.11.49.2.7.26.2.06.4.08.57.08.39 0 .67-.1.85-.31s.26-.55.26-1v-.53c-.11.25-.27.43-.47.55-.2.12-.44.18-.72.18-.51 0-.92-.2-1.22-.61-.3-.41-.46-.96-.46-1.64 0-.69.15-1.24.46-1.65.3-.4.71-.61 1.22-.61.28 0 .52.06.71.17.2.1.36.28.48.52v-.57h.72zm3.65-5.83v8h-.67v-8zM80.79 169.78a2.4 2.4 0 0 1-1.23.33c-.67 0-1.2-.2-1.59-.6a2.41 2.41 0 0 1-.57-1.7c0-.71.2-1.27.57-1.68.39-.4.92-.61 1.6-.61a2.32 2.32 0 0 1 1.22.33v.76a2 2 0 0 0-.58-.37c-.19-.07-.4-.11-.65-.11-.45 0-.8.14-1.04.44-.24.29-.36.7-.36 1.25 0 .53.12.95.36 1.25.25.29.6.43 1.04.43.25 0 .48-.03.67-.1.2-.09.39-.2.56-.37zm3.08-3.65c-.37 0-.64.14-.83.42s-.28.7-.28 1.27c0 .55.1.97.28 1.26.19.28.46.42.83.42.36 0 .64-.14.83-.42.19-.29.28-.7.28-1.26s-.1-.98-.28-1.27-.47-.42-.83-.42zm0-.61c.6 0 1.07.2 1.39.59.32.4.48.96.48 1.7 0 .75-.16 1.32-.48 1.72-.32.39-.78.58-1.4.58-.6 0-1.06-.2-1.38-.58-.32-.4-.48-.97-.48-1.71 0-.75.16-1.32.48-1.71.32-.4.78-.59 1.39-.59zm6.52 1.77V170h-.73v-2.71c0-.4-.06-.68-.2-.87-.14-.18-.36-.27-.65-.27-.34 0-.6.11-.78.35-.18.24-.27.58-.27 1.03V170h-.72v-4.37h.72v.65c.13-.25.3-.44.52-.56.22-.13.48-.2.78-.2.44 0 .78.15 1 .44.22.3.33.74.33 1.33zm4.86-3.37v.6h-.81c-.26 0-.44.05-.54.16-.1.1-.15.29-.15.56v.38h1.5v.56h-1.5V170h-.72v-3.82h-1.17v-.56h1.17v-.3c0-.48.11-.83.33-1.06.22-.22.56-.34 1.03-.34zm1.9 1.72H99v3.8h1.42v.56h-3.57v-.56h1.43v-3.24h-1.12zm1.13-1.7H99v.9h-.72zm5.81 3.84c0-.54-.09-.95-.26-1.23a.85.85 0 0 0-.77-.42.9.9 0 0 0-.8.42c-.19.28-.28.69-.28 1.23s.1.95.28 1.23c.18.28.46.42.81.42.33 0 .58-.14.76-.42.17-.29.26-.7.26-1.23zm.72 1.94c0 .66-.15 1.15-.46 1.5-.31.33-.77.5-1.37.5a3.7 3.7 0 0 1-1.27-.22v-.7c.26.11.49.2.7.26.2.06.4.08.57.08.39 0 .67-.1.85-.31s.26-.55.26-1v-.52a1.2 1.2 0 0 1-.47.54c-.2.12-.43.18-.72.18-.5 0-.92-.2-1.22-.61-.3-.41-.46-.96-.46-1.64 0-.69.16-1.24.46-1.65.3-.4.71-.61 1.22-.61.28 0 .52.06.72.17.2.1.35.28.47.52v-.57h.72zm2.27-1.3h1.38V170h-1.38zm3.7-2.8h.74l1.27 3.68 1.27-3.67h.75l-1.56 4.37h-.92zm7.06.45c.1-.19.2-.32.34-.41.14-.1.3-.14.5-.14.35 0 .6.14.74.41.14.27.22.78.22 1.54V170h-.66v-2.5c0-.62-.04-1-.1-1.15-.07-.15-.2-.23-.38-.23-.2 0-.35.08-.43.24a3.4 3.4 0 0 0-.11 1.14v2.5h-.66v-2.5a3.4 3.4 0 0 0-.11-1.16c-.08-.15-.2-.22-.4-.22s-.32.08-.4.24c-.07.16-.1.54-.1 1.14v2.5h-.66v-4.37h.65v.37a1 1 0 0 1 .32-.35.8.8 0 0 1 .44-.13c.2 0 .36.05.5.14.13.09.23.23.3.41zm3.7 2.35h1.38V170h-1.38zm6.89-.6c0-.56-.09-.98-.27-1.26s-.44-.43-.78-.43a.88.88 0 0 0-.8.43c-.17.28-.26.7-.26 1.26 0 .55.09.97.27 1.25.18.3.44.43.79.43.34 0 .6-.14.78-.42s.27-.7.27-1.26zm-2.11-1.64a1.23 1.23 0 0 1 1.17-.66c.53 0 .94.2 1.24.6.3.41.46.97.46 1.68a2.8 2.8 0 0 1-.46 1.7c-.3.4-.72.61-1.25.61a1.4 1.4 0 0 1-.69-.16c-.2-.12-.35-.28-.47-.5v.55h-.72v-6.08h.72zm5.75-.05a.93.93 0 0 0-.83.43c-.19.28-.28.7-.28 1.26 0 .55.1.97.28 1.26.19.28.47.42.83.42.37 0 .64-.14.83-.42.19-.29.28-.7.28-1.26s-.09-.98-.28-1.26a.93.93 0 0 0-.83-.43zm0-.61c.6 0 1.07.2 1.4.59.31.4.47.96.47 1.7 0 .75-.16 1.32-.48 1.72-.32.39-.78.58-1.39.58-.6 0-1.07-.2-1.39-.58-.32-.4-.48-.97-.48-1.71 0-.75.16-1.32.48-1.71.32-.4.78-.59 1.39-.59zm6.78.1-1.57 2.1L139 170h-.83l-1.28-1.75-1.28 1.75h-.83l1.72-2.28-1.57-2.1h.8l1.16 1.59 1.15-1.59zm5.62 2.43h4.13v.66h-4.13zm0-1.84h4.13v.66h-4.13zm12.99-2.25v2.39h-.88v-2.4zm-2.09 0v2.39h-.87v-2.4zm7.32 3.33V170h-.72v-2.71c0-.4-.07-.68-.2-.87s-.36-.27-.66-.27c-.33 0-.6.11-.77.35-.18.24-.27.58-.27 1.03V170h-.72v-6.08h.72v2.36c.12-.25.3-.44.52-.56.21-.13.47-.2.77-.2.45 0 .78.15 1 .44.22.3.33.74.33 1.33zm3.46.51h-.24c-.42 0-.74.07-.95.22a.76.76 0 0 0-.32.66c0 .26.08.47.24.61s.38.22.66.22c.4 0 .71-.13.94-.4.22-.28.34-.67.34-1.15v-.16zm1.4-.3v2.5h-.73v-.65c-.15.26-.35.46-.58.58a1.8 1.8 0 0 1-.85.18c-.45 0-.8-.12-1.07-.37-.26-.25-.4-.6-.4-1.01 0-.49.17-.86.5-1.11.32-.26.8-.38 1.43-.38h.97v-.12c0-.34-.1-.6-.27-.75-.17-.16-.45-.24-.83-.24-.25 0-.5.03-.74.1-.25.07-.5.18-.73.31v-.72a4.9 4.9 0 0 1 1.47-.3c.36 0 .67.05.92.16.26.1.47.27.63.48.1.13.17.3.21.48.04.2.06.48.06.86zm4.48-1.72v.7c-.2-.12-.42-.2-.62-.27a2.3 2.3 0 0 0-.64-.09c-.33 0-.57.05-.73.16-.16.1-.24.27-.24.48 0 .2.06.34.18.44.12.1.42.19.9.28l.28.06c.36.06.63.2.81.4.19.2.28.47.28.8 0 .43-.15.76-.46 1.01-.3.24-.74.36-1.28.36a5.94 5.94 0 0 1-1.45-.27v-.74a4 4 0 0 0 .77.31c.24.07.47.1.7.1.31 0 .56-.06.73-.19a.64.64 0 0 0 .26-.54c0-.34-.32-.57-.95-.7h-.04l-.26-.06a1.73 1.73 0 0 1-.91-.4c-.2-.2-.29-.46-.29-.79 0-.42.15-.74.43-.97a1.9 1.9 0 0 1 1.21-.34 3.4 3.4 0 0 1 1.32.26zm5.12 1.5V170h-.72v-2.71c0-.4-.07-.68-.2-.87s-.36-.27-.66-.27c-.33 0-.6.11-.77.35-.18.24-.27.58-.27 1.03V170h-.72v-6.08h.72v2.36c.12-.25.3-.44.52-.56.22-.13.47-.2.77-.2.45 0 .78.15 1 .44.22.3.33.74.33 1.33zm1.95-1.64h1.84v3.8h1.43v.56h-3.57v-.56h1.42v-3.24h-1.12zm1.12-1.7h.72v.9h-.72zm6.61 5.84a2.4 2.4 0 0 1-1.22.33c-.68 0-1.2-.2-1.59-.6a2.4 2.4 0 0 1-.57-1.7c0-.71.19-1.27.57-1.68.38-.4.91-.61 1.59-.61a2.33 2.33 0 0 1 1.22.33v.76c-.19-.17-.38-.3-.57-.37-.2-.07-.4-.11-.65-.11-.45 0-.8.14-1.04.44-.24.29-.36.7-.36 1.25 0 .54.12.95.36 1.25.24.29.6.43 1.04.43a2 2 0 0 0 .67-.1c.2-.09.38-.2.55-.37zm3.08-3.65a.93.93 0 0 0-.82.43c-.2.28-.29.7-.29 1.26 0 .55.1.97.29 1.26.18.28.46.42.82.42.37 0 .65-.14.84-.42.18-.29.28-.7.28-1.26s-.1-.98-.28-1.26a.93.93 0 0 0-.84-.43zm0-.61c.61 0 1.07.2 1.4.59.32.4.48.96.48 1.7 0 .75-.16 1.32-.48 1.72-.32.39-.79.58-1.4.58-.6 0-1.07-.2-1.39-.58-.32-.4-.48-.97-.48-1.71 0-.75.16-1.32.48-1.71.32-.4.79-.59 1.4-.59zm6.93 1a1.59 1.59 0 0 0-1-.34c-.44 0-.78.14-1.02.43-.24.28-.35.68-.35 1.21V170h-.73v-4.38h.72v.86a1.45 1.45 0 0 1 1.44-.96c.18 0 .34.02.5.07.15.04.3.1.44.2zm1.77 2.93v2.21h-.72v-6.03h.72v.55c.12-.21.28-.38.48-.49.2-.11.43-.17.7-.17.52 0 .93.2 1.23.61.3.41.46.98.46 1.7 0 .71-.15 1.27-.46 1.68-.3.4-.71.6-1.24.6-.26 0-.5-.05-.7-.16-.2-.12-.35-.28-.47-.5zm2.11-1.63c0-.56-.09-.98-.26-1.26a.86.86 0 0 0-.78-.43.88.88 0 0 0-.8.43c-.18.28-.27.7-.27 1.26 0 .55.1.97.27 1.25.18.3.45.43.8.43.34 0 .6-.14.78-.42.17-.29.26-.7.26-1.26zm4.72-3.65h.74l-3.07 6.57h-.74zm2.81 5.28v2.21h-.72v-6.03h.72v.55c.12-.21.28-.38.48-.49.2-.11.43-.17.7-.17.52 0 .93.2 1.23.61.3.41.46.98.46 1.7 0 .71-.15 1.27-.46 1.68-.3.4-.71.6-1.24.6-.26 0-.5-.05-.7-.16a1.2 1.2 0 0 1-.47-.5zm2.11-1.63c0-.56-.09-.98-.26-1.26a.86.86 0 0 0-.78-.43.88.88 0 0 0-.8.43c-.18.28-.27.7-.27 1.26 0 .55.1.97.27 1.25.18.3.45.43.8.43.34 0 .6-.14.78-.42.17-.29.26-.7.26-1.26zm5.76-1.3a1.59 1.59 0 0 0-1-.34c-.44 0-.78.14-1.02.43-.23.28-.35.68-.35 1.21V170h-.73v-4.38h.73v.86a1.45 1.45 0 0 1 1.43-.96 1.58 1.58 0 0 1 .94.27zm4.68.93v.36h-3.1v.02c-.03.6.08 1.02.33 1.28s.6.4 1.06.4a4 4 0 0 0 1.51-.45v.72a4.6 4.6 0 0 1-1.52.33c-.68 0-1.21-.2-1.6-.6a2.43 2.43 0 0 1-.57-1.7c0-.7.19-1.25.56-1.66.38-.42.88-.63 1.5-.63.56 0 1 .19 1.32.57.32.37.5.83.51 1.36zm-.71-.2a1.45 1.45 0 0 0-.34-.79c-.18-.22-.45-.33-.8-.33-.35 0-.64.11-.86.34a1.2 1.2 0 0 0-.37.78zm5.3 2.53a2.4 2.4 0 0 1-1.22.33c-.68 0-1.2-.2-1.59-.6a2.41 2.41 0 0 1-.57-1.7c0-.71.2-1.27.57-1.68.38-.4.91-.61 1.6-.61a2.32 2.32 0 0 1 1.21.33v.76c-.19-.17-.38-.3-.57-.37-.19-.07-.4-.11-.65-.11-.45 0-.8.14-1.04.44-.24.29-.36.7-.36 1.25 0 .53.12.95.36 1.25.25.29.6.43 1.04.43.25 0 .48-.03.67-.1.2-.09.38-.2.55-.37zm1.91-4.14h1.84v3.8h1.43v.56H227v-.56h1.43v-3.24h-1.13zm1.13-1.7h.71v.9h-.71zm6.26 1.84v.7c-.2-.12-.41-.2-.62-.27-.2-.06-.42-.09-.64-.09-.32 0-.57.05-.73.16-.16.1-.24.27-.24.48 0 .2.06.34.18.44.12.1.42.19.9.28l.29.06c.35.06.62.2.8.4.2.2.28.47.28.8 0 .43-.15.77-.46 1.01-.3.24-.73.36-1.28.36a5.94 5.94 0 0 1-1.45-.27v-.74c.27.14.53.24.77.31.25.07.48.1.7.1.31 0 .56-.06.74-.19a.64.64 0 0 0 .26-.54c0-.34-.32-.57-.96-.7h-.03l-.27-.06a1.73 1.73 0 0 1-.9-.4c-.2-.2-.3-.46-.3-.79 0-.42.15-.74.43-.97a1.9 1.9 0 0 1 1.22-.34 3.38 3.38 0 0 1 1.31.26zm5.4 1.67v.36h-3.12v.02c-.02.6.1 1.02.34 1.28.25.26.6.4 1.06.4.23 0 .47-.04.72-.12.25-.07.51-.18.8-.33v.72a4.65 4.65 0 0 1-1.53.33c-.68 0-1.21-.2-1.6-.6a2.43 2.43 0 0 1-.57-1.7c0-.7.19-1.25.56-1.66.38-.42.88-.63 1.5-.63.56 0 1 .19 1.32.57.32.37.5.83.52 1.36zm-.72-.2a1.38 1.38 0 0 0-.34-.79c-.18-.22-.45-.33-.8-.33-.35 0-.64.11-.86.34a1.2 1.2 0 0 0-.37.78zm5.03-2.95v.72a2.09 2.09 0 0 0-1.1-.3c-.5 0-.88.2-1.14.57-.25.38-.38.93-.38 1.66.12-.26.3-.46.52-.6.22-.14.47-.2.76-.2.56 0 1 .17 1.3.51.31.35.47.84.47 1.47a2.1 2.1 0 0 1-.48 1.46c-.32.35-.76.52-1.34.52-.67 0-1.17-.24-1.49-.72a4.34 4.34 0 0 1-.47-2.3c0-.98.19-1.74.57-2.25.38-.52.93-.78 1.65-.78a2.9 2.9 0 0 1 1.14.23zm-1.4 2.46c-.34 0-.6.12-.8.37s-.29.57-.29 1 .1.76.3 1 .45.37.79.37.6-.12.78-.35c.18-.23.27-.57.27-1.02 0-.45-.09-.8-.27-1.03-.17-.22-.44-.34-.78-.34zm5.22-1.87-1.84 3.08h1.84zm-.13-.72h.92v3.8h.77v.64h-.77V170h-.79v-1.4h-2.47v-.74zm5.77-.21v2.39H253v-2.4zm-2.08 0v2.39h-.87v-2.4zm-180.4 19.5v.34h-3.12v.03c-.02.6.1 1.02.34 1.28.25.26.6.4 1.06.4.23 0 .47-.04.72-.12.25-.07.51-.18.8-.33v.72a4.63 4.63 0 0 1-1.53.33c-.68 0-1.21-.2-1.6-.6a2.43 2.43 0 0 1-.57-1.7c0-.7.19-1.25.56-1.66.38-.42.88-.63 1.5-.63.56 0 1 .19 1.32.57.32.37.5.83.51 1.36zm-.72-.22c-.03-.3-.15-.56-.34-.78-.18-.22-.45-.33-.8-.33-.35 0-.64.11-.86.34a1.2 1.2 0 0 0-.37.78zm5.27.05V186h-.73v-2.71c0-.4-.07-.68-.2-.87s-.36-.27-.65-.27c-.34 0-.6.11-.78.35-.18.24-.27.58-.27 1.03V186h-.72v-4.37h.72v.65c.13-.25.3-.44.52-.56.22-.13.48-.2.78-.2.44 0 .78.15 1 .44.22.3.33.74.33 1.33zm4.06-1.1v-2.27h.72V186H80v-.55a1.26 1.26 0 0 1-1.17.66c-.52 0-.94-.2-1.25-.61-.3-.41-.45-.98-.45-1.7 0-.71.15-1.27.46-1.67.3-.4.72-.61 1.24-.61.27 0 .5.06.7.17.2.11.36.28.47.5zm-2.11 1.63c0 .55.09.97.26 1.26s.44.42.79.42c.35 0 .6-.14.79-.43.18-.28.27-.7.27-1.25 0-.56-.09-.98-.27-1.26a.87.87 0 0 0-.79-.43c-.35 0-.6.14-.79.42s-.26.7-.26 1.27z"/>
    </g>
  </g>
</svg>