<svg fill="none" height="221" viewBox="0 0 340 221" width="340" xmlns="http://www.w3.org/2000/svg" xmlns:xlink="http://www.w3.org/1999/xlink"><filter id="a" color-interpolation-filters="sRGB" filterUnits="userSpaceOnUse" height="185.35" width="300" x="40" y="41"><feFlood flood-opacity="0" result="BackgroundImageFix"/><feBlend in="SourceGraphic" in2="BackgroundImageFix" mode="normal" result="shape"/><feColorMatrix in="SourceAlpha" result="hardAlpha" type="matrix" values="0 0 0 0 0 0 0 0 0 0 0 0 0 0 0 0 0 0 127 0"/><feOffset dy="5.3504"/><feGaussianBlur stdDeviation="17.6"/><feComposite in2="hardAlpha" k2="-1" k3="1" operator="arithmetic"/><feColorMatrix type="matrix" values="0 0 0 0 0.0674653 0 0 0 0 0.179197 0 0 0 0 0.279167 0 0 0 0.15 0"/><feBlend in2="shape" mode="normal" result="effect1_innerShadow_16651_206727"/></filter><filter id="b" color-interpolation-filters="sRGB" filterUnits="userSpaceOnUse" height="33.3376" width="300" x="40" y="41"><feFlood flood-opacity="0" result="BackgroundImageFix"/><feBlend in="SourceGraphic" in2="BackgroundImageFix" mode="normal" result="shape"/><feColorMatrix in="SourceAlpha" result="hardAlpha" type="matrix" values="0 0 0 0 0 0 0 0 0 0 0 0 0 0 0 0 0 0 127 0"/><feOffset dy="1.3376"/><feGaussianBlur stdDeviation="4.0128"/><feComposite in2="hardAlpha" k2="-1" k3="1" operator="arithmetic"/><feColorMatrix type="matrix" values="0 0 0 0 0 0 0 0 0 0 0 0 0 0 0 0 0 0 0.15 0"/><feBlend in2="shape" mode="normal" result="effect1_innerShadow_16651_206727"/></filter><linearGradient id="c" gradientUnits="userSpaceOnUse" x1="69.1892" x2="70.9542" y1="69.5377" y2="26.418"><stop offset="0" stop-color="#111214"/><stop offset="1" stop-color="#424242"/></linearGradient><clipPath id="d"><path d="m40 41h300v180h-300z"/></clipPath><clipPath id="e"><path d="m55 215h113v6h-113z"/></clipPath><g clip-path="url(#d)"><path d="m0 0h300v180h-300z" fill="#fff" transform="translate(40 41)"/><g filter="url(#a)"><path d="m340 41h-295c-2.7614 0-5 2.2386-5 5v175h300z" fill="#fff"/><path d="m340 41h-300v180h300z" fill="#fff"/><g fill="#000001"><path clip-rule="evenodd" d="m55.8838 87.3504c0-.6233.5053-1.1286 1.1286-1.1286h3.2604c.6233 0 1.1286.5053 1.1286 1.1286v1.0595l1.0286.7285c.2987.2116.4762.555.4762.921v2.5578c0 .3463-.2807.627-.627.627h-1.254c-.1043 0-.1987-.0424-.2668-.111-.0676-.068-.1094-.1617-.1094-.2652v-5.5176c0-.2078-.1684-.3762-.3762-.3762h-3.2604c-.2078 0-.3762.1684-.3762.3762v5.5176c0 .2078-.1684.3762-.3762.3762s-.3762-.1684-.3762-.3762zm5.5176 5.1414v-3.1599l.5937.4205c.0995.0706.1587.185.1587.307v2.4324z" fill-rule="evenodd"/><path d="m57.7649 91.012c-.1939 0-.3511.1572-.3511.3511v1.5048c0 .1939.1572.3511.3511.3511s.3511-.1572.3511-.3511v-1.1537h1.0534v1.1537c0 .1939.1572.3511.3511.3511s.3511-.1572.3511-.3511v-1.5048c0-.1939-.1572-.3511-.3511-.3511z"/><path d="m57.5139 88.1028c0-.2078.1684-.3762.3762-.3762h.1254c.2078 0 .3762.1684.3762.3762s-.1684.3762-.3762.3762h-.1254c-.2078 0-.3762-.1684-.3762-.3762z"/><path d="m59.2695 87.7266c-.2078 0-.3762.1684-.3762.3762s.1684.3762.3762.3762h.1254c.2078 0 .3762-.1684.3762-.3762s-.1684-.3762-.3762-.3762z"/><path d="m57.5139 89.1059c0-.2078.1684-.3762.3762-.3762h.1254c.2078 0 .3762.1684.3762.3762s-.1684.3762-.3762.3762h-.1254c-.2078 0-.3762-.1684-.3762-.3762z"/><path d="m59.2695 88.7297c-.2078 0-.3762.1684-.3762.3762s.1684.3762.3762.3762h.1254c.2078 0 .3762-.1684.3762-.3762s-.1684-.3762-.3762-.3762z"/><path d="m57.5139 90.1092c0-.2078.1684-.3762.3762-.3762h.1254c.2078 0 .3762.1684.3762.3762s-.1684.3762-.3762.3762h-.1254c-.2078 0-.3762-.1684-.3762-.3762z"/><path d="m59.2695 89.733c-.2078 0-.3762.1684-.3762.3762s.1684.3762.3762.3762h.1254c.2078 0 .3762-.1684.3762-.3762s-.1684-.3762-.3762-.3762z"/></g><path d="m70.5536 91.7202v-4.7123h-.7282v1.992h-2.4198v-1.992h-.7315v4.7123h.7315v-2.0867h2.4198v2.0867zm2.0835.0588c.467 0 .8556-.2025 1.0679-.5617h.0555v.5029h.676v-2.4263c0-.7446-.5029-1.1887-1.3944-1.1887-.8067 0-1.3814.3886-1.4532.9862h.6792c.0784-.258.3494-.405.7413-.405.48 0 .7282.2188.7282.6075v.3102l-.9633.0588c-.8458.0522-1.3226.4212-1.3226 1.058 0 .6466.4996 1.0581 1.1854 1.0581zm.1796-.565c-.3821 0-.6596-.1926-.6596-.5225 0-.3233.222-.4963.7119-.529l.8686-.0588v.307c0 .4572-.3918.8033-.9209.8033zm2.5374-2.0475c0 .5258.3135.8262.9895.9829l.6205.147c.3559.0849.5225.2286.5225.4507 0 .2906-.3103.4931-.7479.4931-.4245 0-.6857-.1731-.7739-.4507h-.7021c.062.6172.6139.9993 1.4597.9993.8491 0 1.4728-.4474 1.4728-1.1071 0-.5159-.3168-.8066-.9927-.9633l-.5911-.1372c-.3854-.0914-.565-.2286-.565-.4474 0-.2873.2972-.48.6891-.48.3984 0 .6531.1731.7184.4376h.6727c-.0685-.614-.591-.9862-1.3911-.9862-.8034 0-1.3814.4441-1.3814 1.0613zm3.7196 2.5537h.7021v-2.0769c0-.5552.32-.9242.8948-.9242.4963 0 .7608.2906.7608.8752v2.1259h.7022v-2.2925c0-.8392-.467-1.3193-1.2247-1.3193-.5355 0-.9111.2352-1.0841.6303h-.0556v-1.9561h-.6955zm4.4118-4.18c.2449 0 .4441-.1992.4441-.4408 0-.245-.1992-.4442-.4441-.4442s-.4441.1992-.4441.4442c0 .2416.1992.4408.4441.4408zm-.3494 4.18h.6988v-3.5465h-.6988zm3.7457.1143c1.0515 0 1.8255-.6041 1.9561-1.5218h-.7283c-.1306.5356-.6041.872-1.2278.872-.8491 0-1.3781-.6989-1.3781-1.819s.529-1.8222 1.3748-1.8222c.6205 0 1.094.3723 1.2311.9568h.7283c-.1176-.9438-.9209-1.6067-1.9594-1.6067-1.3095 0-2.1226.9471-2.1226 2.4721 0 1.5218.8164 2.4688 2.1259 2.4688zm4.34-.0457c1.0385 0 1.6753-.6956 1.6753-1.8418 0-1.1463-.6401-1.8418-1.6753-1.8418-1.0385 0-1.6785.6988-1.6785 1.8418 0 1.1462.6368 1.8418 1.6785 1.8418zm0-.5976c-.6107 0-.9536-.4539-.9536-1.2442s.3429-1.2475.9536-1.2475c.6074 0 .9536.4572.9536 1.2475 0 .787-.3462 1.2442-.9536 1.2442zm2.521.529h.7022v-2.1194c0-.4996.3755-.8425.9078-.8425.1241 0 .3331.0229.3919.0392v-.6597c-.0751-.0163-.209-.0261-.3135-.0261-.4637 0-.8589.2515-.9601.6009h-.0523v-.5389h-.676zm4.5752-3.6085c-.4833 0-.9013.2449-1.1169.6499h-.0522v-.5879h-.676v4.7287h.7021v-1.7177h.0555c.1862.3755.5878.5943 1.094.5943.8981 0 1.4696-.7119 1.4696-1.832 0-1.1267-.5715-1.8353-1.4761-1.8353zm-.1992 3.0664c-.5878 0-.9568-.4735-.9568-1.2311 0-.7609.369-1.2344.9601-1.2344.5943 0 .9502.4637.9502 1.2344s-.3559 1.2311-.9535 1.2311z" fill="#3c434d" fill-opacity=".75"/><path d="m107.073 92.7388 1.695-5.9434h-.62l-1.692 5.9434z" fill="#3c434d" fill-opacity=".25"/><path d="m117.501 91.7331 1.675-4.7123h-.777l-1.264 3.8371h-.055l-1.271-3.8371h-.797l1.685 4.7123zm3.04.0588c.467 0 .856-.2025 1.068-.5617h.055v.5029h.676v-2.4263c0-.7446-.502-1.1888-1.394-1.1888-.807 0-1.381.3887-1.453.9863h.679c.078-.258.35-.4049.741-.4049.48 0 .729.2188.729.6074v.3102l-.964.0588c-.846.0522-1.322.4213-1.322 1.0581 0 .6465.499 1.058 1.185 1.058zm.18-.5649c-.382 0-.66-.1927-.66-.5225 0-.3233.222-.4964.712-.5291l.869-.0588v.307c0 .4572-.392.8034-.921.8034zm4.118 1.8614c1.005 0 1.642-.5127 1.642-1.3193v-3.5824h-.672v.5649h-.056c-.199-.3853-.627-.6271-1.117-.6271-.908 0-1.476.7153-1.476 1.7897 0 1.0646.562 1.7667 1.47 1.7667.49 0 .881-.2123 1.097-.5976h.052v.6825c0 .48-.346.7673-.931.7673-.473 0-.77-.1697-.829-.4375h-.718c.075.5976.649.9928 1.538.9928zm-.01-1.9888c-.604 0-.944-.4605-.944-1.1854 0-.725.34-1.1887.944-1.1887.597 0 .963.4637.963 1.1887 0 .7249-.362 1.1854-.963 1.1854zm2.671.6335h.702v-2.1194c0-.4996.376-.8425.908-.8425.124 0 .333.0229.392.0392v-.6597c-.075-.0163-.209-.0262-.314-.0262-.463 0-.858.2516-.96.601h-.052v-.5388h-.676zm3.635.0588c.467 0 .855-.2025 1.068-.5617h.055v.5029h.676v-2.4263c0-.7446-.503-1.1888-1.394-1.1888-.807 0-1.382.3887-1.453.9863h.679c.078-.258.349-.4049.741-.4049.48 0 .728.2188.728.6074v.3102l-.963.0588c-.846.0522-1.323.4213-1.323 1.0581 0 .6465.5 1.058 1.186 1.058zm.179-.5649c-.382 0-.659-.1927-.659-.5225 0-.3233.222-.4964.712-.5291l.868-.0588v.307c0 .4572-.392.8034-.921.8034zm2.619.5061h.703v-2.0802c0-.5715.329-.9241.849-.9241.519 0 .767.2873.767.8751v2.1292h.702v-2.2957c0-.8458-.437-1.3194-1.231-1.3194-.536 0-.888.2385-1.061.6304h-.053v-.5617h-.676zm4.259-4.4412v.9046h-.565v.5616h.565v2.0411c0 .6825.31.9568 1.091.9568.137 0 .267-.0163.382-.0359v-.5585c-.098.0098-.16.0164-.268.0164-.35 0-.503-.1666-.503-.5486v-1.8713h.771v-.5616h-.771v-.9046z" fill="#3c434d" fill-opacity=".75"/><path d="m55.917 118h1.7105v-3.727c0-.858.4938-1.44 1.352-1.44.7759 0 1.1933.47 1.1933 1.387v3.78h1.7105v-4.168c0-1.551-.8288-2.427-2.2219-2.427-.9523 0-1.6577.446-1.9575 1.181h-.1058v-3.533h-1.6811zm8.8031.1c.8405 0 1.5459-.359 1.881-.958h.1058v.858h1.6576v-4.42c0-1.382-.9699-2.193-2.6863-2.193-1.6282 0-2.7274.747-2.8391 1.934h1.5753c.1411-.406.5525-.623 1.1698-.623.7053 0 1.0933.323 1.0933.882v.535l-1.5695.094c-1.6106.094-2.5099.776-2.5099 1.945 0 1.182.8758 1.946 2.122 1.946zm.5643-1.252c-.5937 0-1.0111-.3-1.0111-.8 0-.476.3586-.752 1.0934-.799l1.3108-.088v.482c0 .682-.5996 1.205-1.3931 1.205zm4.0124-3.433c0 .993.6113 1.587 1.8692 1.863l1.1756.265c.5702.129.8171.329.8171.658 0 .429-.4585.723-1.1227.723-.6819 0-1.0992-.264-1.2285-.711h-1.6694c.1175 1.223 1.1521 1.922 2.8626 1.922 1.6988 0 2.8568-.834 2.8568-2.116 0-.964-.5643-1.493-1.8222-1.769l-1.2168-.265c-.5996-.135-.8758-.341-.8758-.67 0-.423.4526-.711 1.0639-.711.6348 0 1.0287.264 1.1168.693h1.5813c-.0941-1.222-1.064-1.91-2.7099-1.91-1.6164 0-2.698.817-2.698 2.028zm6.4224 4.585h1.7106v-3.727c0-.858.4937-1.44 1.3519-1.44.7759 0 1.1933.47 1.1933 1.387v3.78h1.7105v-4.168c0-1.551-.8288-2.427-2.2219-2.427-.9523 0-1.6576.446-1.9574 1.181h-.1058v-3.533h-1.6812zm7.8979-7.465c.529 0 .964-.423.964-.952 0-.535-.435-.959-.964-.959-.5291 0-.9699.424-.9699.959 0 .529.4408.952.9699.952zm-.8582 7.465h1.7105v-6.472h-1.7105zm8.5797-4.215c-.1411-1.446-1.1698-2.398-2.8862-2.398-2.0279 0-3.1683 1.229-3.1683 3.362 0 2.158 1.1462 3.386 3.1683 3.386 1.687 0 2.7451-.929 2.8862-2.351h-1.5989c-.1293.647-.5878.993-1.2873.993-.917 0-1.4401-.723-1.4401-2.028 0-1.287.5172-1.998 1.4401-1.998.7289 0 1.1698.411 1.2873 1.034zm3.6127 4.35c1.9927 0 3.1918-1.258 3.1918-3.374 0-2.098-1.2168-3.374-3.1918-3.374-1.9751 0-3.1919 1.282-3.1919 3.374 0 2.11 1.1992 3.374 3.1919 3.374zm0-1.352c-.917 0-1.4343-.74-1.4343-2.022 0-1.27.5232-2.016 1.4343-2.016.9052 0 1.4342.746 1.4342 2.016 0 1.282-.5231 2.022-1.4342 2.022zm3.9889 1.217h1.7108v-3.621c0-.911.64-1.469 1.575-1.469.276 0 .676.047.811.094v-1.505c-.147-.047-.435-.077-.67-.077-.823 0-1.493.488-1.663 1.135h-.106v-1.029h-1.6578zm8.4448-6.578c-.894 0-1.629.441-1.981 1.17h-.106v-1.064h-1.658v8.618h1.711v-3.134h.106c.317.682 1.028 1.088 1.957 1.088 1.622 0 2.616-1.258 2.616-3.339 0-2.087-1.005-3.339-2.645-3.339zm-.582 5.297c-.905 0-1.47-.741-1.47-1.952s.565-1.957 1.476-1.957 1.463.734 1.463 1.951c0 1.223-.546 1.958-1.469 1.958zm16.831-5.297c-.893 0-1.628.441-1.981 1.17h-.106v-1.064h-1.657v8.618h1.71v-3.134h.106c.318.682 1.029 1.088 1.958 1.088 1.622 0 2.615-1.258 2.615-3.339 0-2.087-1.005-3.339-2.645-3.339zm-.582 5.297c-.905 0-1.469-.741-1.469-1.952s.564-1.957 1.475-1.957 1.464.734 1.464 1.951c0 1.223-.547 1.958-1.47 1.958zm4.019 1.281h1.71v-3.621c0-.911.641-1.469 1.575-1.469.277 0 .676.047.812.094v-1.505c-.147-.047-.435-.077-.671-.077-.822 0-1.493.488-1.663 1.135h-.106v-1.029h-1.657zm8.679-1.828c-.182.441-.646.688-1.322.688-.894 0-1.458-.618-1.482-1.605v-.088h4.45v-.512c0-2.045-1.129-3.268-3.039-3.268-1.928 0-3.115 1.305-3.115 3.409 0 2.093 1.164 3.339 3.139 3.339 1.587 0 2.709-.758 2.962-1.963zm-1.387-3.509c.799 0 1.317.552 1.352 1.44h-2.763c.059-.87.617-1.44 1.411-1.44zm9.573 1.122c-.141-1.446-1.17-2.398-2.886-2.398-2.028 0-3.168 1.229-3.168 3.362 0 2.158 1.146 3.386 3.168 3.386 1.687 0 2.745-.929 2.886-2.351h-1.599c-.129.647-.588.993-1.287.993-.917 0-1.44-.723-1.44-2.028 0-1.287.517-1.998 1.44-1.998.729 0 1.17.411 1.287 1.034zm1.608-3.25c.529 0 .964-.423.964-.952 0-.535-.435-.959-.964-.959s-.97.424-.97.959c0 .529.441.952.97.952zm-.858 7.465h1.711v-6.472h-1.711zm2.696-4.585c0 .993.611 1.587 1.869 1.863l1.176.265c.57.129.817.329.817.658 0 .429-.459.723-1.123.723-.682 0-1.099-.264-1.229-.711h-1.669c.118 1.223 1.152 1.922 2.863 1.922 1.699 0 2.856-.834 2.856-2.116 0-.964-.564-1.493-1.822-1.769l-1.216-.265c-.6-.135-.876-.341-.876-.67 0-.423.452-.711 1.064-.711.634 0 1.028.264 1.116.693h1.582c-.094-1.222-1.064-1.91-2.71-1.91-1.617 0-2.698.817-2.698 2.028zm10.555 2.757c-.183.441-.647.688-1.323.688-.893 0-1.458-.618-1.481-1.605v-.088h4.449v-.512c0-2.045-1.128-3.268-3.039-3.268-1.928 0-3.115 1.305-3.115 3.409 0 2.093 1.164 3.339 3.139 3.339 1.587 0 2.71-.758 2.963-1.963zm-1.388-3.509c.8 0 1.317.552 1.352 1.44h-2.762c.058-.87.617-1.44 1.41-1.44zm7.222 5.549c1.899 0 3.245-1.247 3.245-3.004 0-1.622-1.182-2.804-2.792-2.804-.988 0-1.775.447-2.163 1.246h-.106c0-1.881.682-2.939 1.857-2.939.688 0 1.199.359 1.335.952h1.757c-.206-1.404-1.446-2.363-3.115-2.363-2.169 0-3.527 1.699-3.527 4.527 0 2.933 1.475 4.385 3.509 4.385zm-.017-1.405c-.882 0-1.535-.688-1.535-1.581 0-.882.629-1.529 1.54-1.529.912 0 1.535.641 1.535 1.552 0 .876-.659 1.558-1.54 1.558zm8.232 1.193h1.693v-1.558h1.111v-1.422h-1.111v-5.502h-2.486c-1.135 1.74-2.287 3.621-3.357 5.531v1.393h4.15zm-2.557-3.027c.771-1.37 1.676-2.845 2.505-4.109h.094v4.203h-2.599z" fill="#1060ff"/><path d="m114.063 119.822 3.039-10.769h-1.575l-3.039 10.769z" fill="#0c0c0e"/><path d="m182.717 118 1.675-4.712h-.777l-1.264 3.837h-.055l-1.271-3.837h-.796l1.685 4.712zm3.04.059c.467 0 .856-.203 1.068-.562h.056v.503h.676v-2.426c0-.745-.503-1.189-1.395-1.189-.806 0-1.381.389-1.453.986h.679c.079-.258.35-.405.742-.405.48 0 .728.219.728.608v.31l-.964.059c-.845.052-1.322.421-1.322 1.058 0 .646.5 1.058 1.185 1.058zm.18-.565c-.382 0-.66-.193-.66-.523 0-.323.222-.496.712-.529l.869-.058v.306c0 .458-.392.804-.921.804zm4.118 1.861c1.006 0 1.642-.512 1.642-1.319v-3.582h-.672v.564h-.056c-.199-.385-.627-.627-1.117-.627-.907 0-1.476.716-1.476 1.79 0 1.065.562 1.767 1.47 1.767.49 0 .882-.213 1.097-.598h.052v.683c0 .48-.346.767-.93.767-.474 0-.771-.17-.83-.438h-.718c.075.598.65.993 1.538.993zm-.01-1.989c-.604 0-.944-.46-.944-1.185s.34-1.189.944-1.189c.598 0 .963.464.963 1.189s-.362 1.185-.963 1.185zm2.671.634h.702v-2.119c0-.5.376-.843.908-.843.124 0 .333.023.392.039v-.659c-.075-.017-.209-.027-.313-.027-.464 0-.859.252-.96.601h-.053v-.538h-.676zm3.635.059c.467 0 .856-.203 1.068-.562h.055v.503h.676v-2.426c0-.745-.503-1.189-1.394-1.189-.807 0-1.381.389-1.453.986h.679c.078-.258.349-.405.741-.405.48 0 .728.219.728.608v.31l-.963.059c-.846.052-1.322.421-1.322 1.058 0 .646.499 1.058 1.185 1.058zm.18-.565c-.382 0-.66-.193-.66-.523 0-.323.222-.496.712-.529l.868-.058v.306c0 .458-.391.804-.92.804zm2.619.506h.702v-2.08c0-.572.33-.924.849-.924s.767.287.767.875v2.129h.702v-2.296c0-.846-.437-1.319-1.231-1.319-.535 0-.888.238-1.061.63h-.052v-.561h-.676zm4.258-4.441v.904h-.565v.562h.565v2.041c0 .683.31.957 1.091.957.137 0 .267-.016.382-.036v-.558c-.098.009-.16.016-.268.016-.349 0-.503-.167-.503-.549v-1.871h.771v-.562h-.771v-.904zm6.012 4.5c.898 0 1.47-.715 1.47-1.832 0-1.127-.569-1.836-1.47-1.836-.487 0-.905.239-1.094.624h-.055v-1.953h-.703v4.938h.676v-.562h.053c.212.392.627.621 1.123.621zm-.202-3.067c.594 0 .95.467.95 1.235 0 .767-.356 1.231-.95 1.231-.592 0-.957-.47-.961-1.231.004-.761.373-1.235.961-1.235zm4.02 3.077c1.038 0 1.675-.696 1.675-1.842s-.64-1.842-1.675-1.842c-1.039 0-1.679.699-1.679 1.842 0 1.146.637 1.842 1.679 1.842zm0-.598c-.611 0-.954-.454-.954-1.244 0-.791.343-1.248.954-1.248.607 0 .953.457.953 1.248 0 .787-.346 1.244-.953 1.244zm3.67-.741.777 1.277h.807l-1.186-1.793 1.173-1.754h-.784l-.758 1.267h-.055l-.764-1.267h-.82l1.189 1.78-1.179 1.767h.771l.777-1.277z" fill="#3c434d" fill-opacity=".75"/><g clip-path="url(#e)"><path d="m88.5202 219.593c-.0914-.689-.6302-1.208-1.5217-1.208-1.0352 0-1.6655.702-1.6655 1.829 0 1.149.6335 1.855 1.6687 1.855.8785 0 1.4271-.494 1.5185-1.192h-.6825c-.0914.385-.3951.594-.8392.594-.5846 0-.9471-.474-.9471-1.257 0-.768.3592-1.231.9471-1.231.4702 0 .7576.264.8392.61zm3.8012-1.139h-.7021v2.08c0 .571-.3102.917-.8784.917-.516 0-.7479-.28-.7479-.868v-2.129h-.7021v2.302c0 .833.4376 1.313 1.2246 1.313.5389 0 .9014-.229 1.0744-.631h.0555v.562h.676zm1.0189 3.546h.7021v-2.119c0-.5.3756-.843.9079-.843.1241 0 .3331.023.3918.039v-.659c-.0751-.017-.209-.027-.3135-.027-.4637 0-.8588.252-.9601.601h-.0522v-.538h-.676zm2.7301 0h.7021v-2.119c0-.5.3755-.843.9078-.843.1241 0 .3331.023.3919.039v-.659c-.0751-.017-.209-.027-.3135-.027-.4637 0-.8589.252-.9601.601h-.0522v-.538h-.676zm4.9176-.95c-.13.287-.421.444-.845.444-.5621 0-.9246-.405-.9474-1.048v-.033h2.5114v-.242c0-1.11-.598-1.786-1.587-1.786-1.0028 0-1.6396.722-1.6396 1.848 0 1.133.6237 1.836 1.6426 1.836.813 0 1.388-.392 1.541-1.019zm-.871-2.094c.519 0 .858.376.875.951h-1.7964c.0392-.572.4016-.951.9214-.951zm2.432 3.044h.703v-2.08c0-.572.329-.924.849-.924.519 0 .767.287.767.875v2.129h.702v-2.296c0-.846-.437-1.319-1.231-1.319-.536 0-.888.238-1.061.63h-.053v-.561h-.676zm4.259-4.441v.904h-.565v.562h.565v2.041c0 .683.31.957 1.091.957.137 0 .267-.016.382-.036v-.558c-.098.009-.16.016-.268.016-.35 0-.503-.167-.503-.549v-1.871h.771v-.562h-.771v-.904zm2.331 4.441h.703v-4.938h-.703zm2.11 1.287c.725 0 1.061-.271 1.365-1.124l1.326-3.709h-.745l-.888 2.841h-.055l-.892-2.841h-.764l1.287 3.556-.053.183c-.12.375-.31.516-.643.516-.065 0-.173-.004-.229-.013v.574c.066.01.232.017.291.017zm5.238-1.287h.702v-2.119c0-.5.376-.843.908-.843.124 0 .333.023.392.039v-.659c-.075-.017-.209-.027-.314-.027-.463 0-.858.252-.96.601h-.052v-.538h-.676zm4.918-.95c-.13.287-.421.444-.846.444-.561 0-.924-.405-.947-1.048v-.033h2.512v-.242c0-1.11-.598-1.786-1.587-1.786-1.003 0-1.64.722-1.64 1.848 0 1.133.624 1.836 1.643 1.836.813 0 1.388-.392 1.541-1.019zm-.872-2.094c.519 0 .859.376.875.951h-1.796c.04-.572.402-.951.921-.951zm2.466 3.044h.702v-4.938h-.702zm4.088-.95c-.13.287-.421.444-.845.444-.562 0-.925-.405-.947-1.048v-.033h2.511v-.242c0-1.11-.598-1.786-1.587-1.786-1.003 0-1.64.722-1.64 1.848 0 1.133.624 1.836 1.643 1.836.813 0 1.388-.392 1.541-1.019zm-.872-2.094c.52 0 .859.376.876.951h-1.796c.039-.572.401-.951.92-.951zm3.416 3.103c.467 0 .856-.203 1.068-.562h.056v.503h.676v-2.426c0-.745-.503-1.189-1.395-1.189-.806 0-1.381.389-1.453.986h.679c.079-.258.35-.405.742-.405.48 0 .728.219.728.608v.31l-.964.059c-.845.052-1.322.421-1.322 1.058 0 .646.5 1.058 1.185 1.058zm.18-.565c-.382 0-.66-.193-.66-.523 0-.323.222-.496.712-.529l.869-.058v.306c0 .458-.392.804-.921.804zm2.537-2.048c0 .526.314.826.99.983l.62.147c.356.085.523.229.523.451 0 .29-.31.493-.748.493-.425 0-.686-.173-.774-.451h-.702c.062.618.614 1 1.46 1 .849 0 1.472-.448 1.472-1.107 0-.516-.316-.807-.992-.964l-.591-.137c-.386-.091-.565-.229-.565-.447 0-.288.297-.48.689-.48.398 0 .653.173.718.437h.673c-.069-.614-.591-.986-1.391-.986-.804 0-1.382.444-1.382 1.061zm6.019 1.604c-.131.287-.421.444-.846.444-.562 0-.924-.405-.947-1.048v-.033h2.511v-.242c0-1.11-.597-1.786-1.587-1.786-1.002 0-1.639.722-1.639 1.848 0 1.133.624 1.836 1.642 1.836.814 0 1.388-.392 1.542-1.019zm-.872-2.094c.519 0 .859.376.875.951h-1.796c.039-.572.402-.951.921-.951zm3.733 3.103c.489 0 .904-.232 1.116-.621h.056v.562h.673v-4.938h-.703v1.953h-.052c-.192-.388-.604-.624-1.09-.624-.899 0-1.477.716-1.477 1.833 0 1.123.572 1.835 1.477 1.835zm.199-3.067c.588 0 .957.477.957 1.235 0 .764-.366 1.231-.957 1.231-.595 0-.951-.461-.951-1.231 0-.768.36-1.235.951-1.235zm7.54-.538h-.745l-.881 2.828h-.056l-.885-2.828h-.751l1.284 3.546h.754zm2.906 2.596c-.13.287-.421.444-.845.444-.562 0-.925-.405-.947-1.048v-.033h2.511v-.242c0-1.11-.598-1.786-1.587-1.786-1.003 0-1.64.722-1.64 1.848 0 1.133.624 1.836 1.643 1.836.813 0 1.388-.392 1.541-1.019zm-.871-2.094c.519 0 .858.376.875.951h-1.796c.039-.572.401-.951.921-.951zm2.432 3.044h.703v-2.119c0-.5.375-.843.907-.843.124 0 .333.023.392.039v-.659c-.075-.017-.209-.027-.313-.027-.464 0-.859.252-.96.601h-.053v-.538h-.676zm2.525-2.554c0 .526.313.826.989.983l.621.147c.356.085.522.229.522.451 0 .29-.31.493-.748.493-.424 0-.685-.173-.774-.451h-.702c.062.618.614 1 1.46 1 .849 0 1.473-.448 1.473-1.107 0-.516-.317-.807-.993-.964l-.591-.137c-.385-.091-.565-.229-.565-.447 0-.288.297-.48.689-.48.399 0 .653.173.719.437h.672c-.068-.614-.591-.986-1.391-.986-.803 0-1.381.444-1.381 1.061zm4.049-1.626c.245 0 .444-.199.444-.441 0-.245-.199-.444-.444-.444s-.444.199-.444.444c0 .242.199.441.444.441zm-.349 4.18h.699v-3.546h-.699zm3.233.069c1.038 0 1.675-.696 1.675-1.842s-.64-1.842-1.675-1.842c-1.039 0-1.679.699-1.679 1.842 0 1.146.637 1.842 1.679 1.842zm0-.598c-.611 0-.954-.454-.954-1.244 0-.791.343-1.248.954-1.248.607 0 .953.457.953 1.248 0 .787-.346 1.244-.953 1.244zm2.521.529h.702v-2.08c0-.572.33-.924.849-.924s.767.287.767.875v2.129h.702v-2.296c0-.846-.437-1.319-1.231-1.319-.535 0-.888.238-1.061.63h-.052v-.561h-.676z" fill="#3c434d" fill-opacity=".75"/><path d="m60.6034 216.603h-1.505l-1.108 4.059h-.0882l-1.1177-4.059h-1.5345l1.8776 5.397h1.608zm2.1747 5.397h1.4805v-7.074h-1.4756l-1.8286 1.27v1.333l1.7354-1.206h.0883zm3.6993.123c.5294 0 .8677-.353.8677-.834 0-.48-.3383-.828-.8677-.828-.5246 0-.8677.348-.8677.828 0 .481.3431.834.8677.834zm3.1502-.123h1.4805v-7.074h-1.4756l-1.8286 1.27v1.333l1.7355-1.206h.0882zm3.6993.123c.5295 0 .8677-.353.8677-.834 0-.48-.3382-.828-.8677-.828-.5245 0-.8677.348-.8677.828 0 .481.3432.834.8677.834zm4.2092.058c1.7501 0 2.809-1.382 2.809-3.725 0-2.349-1.0736-3.711-2.809-3.711-1.7404 0-2.8091 1.362-2.8091 3.706 0 2.348 1.0589 3.73 2.8091 3.73zm0-1.171c-.8089 0-1.309-.863-1.309-2.559 0-1.682.505-2.535 1.309-2.535.8089 0 1.3089.848 1.3089 2.535 0 1.696-.4951 2.559-1.3089 2.559z" fill="#1060ff"/></g><g filter="url(#b)"><path d="m340 41h-295c-2.7614 0-5 2.2386-5 5v27h300z" fill="url(#c)"/></g><path d="m173.591 54.2877v4.7123h1.701c1.405 0 2.218-.8687 2.218-2.3676 0-1.4826-.82-2.3447-2.218-2.3447zm.732.6303h.888c.976 0 1.554.6368 1.554 1.7242 0 1.0973-.568 1.7275-1.554 1.7275h-.888zm5.068 4.1408c.467 0 .855-.2025 1.068-.5617h.055v.5029h.676v-2.4264c0-.7445-.503-1.1886-1.394-1.1886-.807 0-1.382.3886-1.453.9862h.679c.078-.258.349-.405.741-.405.48 0 .728.2188.728.6074v.3103l-.963.0588c-.846.0522-1.323.4212-1.323 1.058 0 .6466.5 1.0581 1.186 1.0581zm.179-.565c-.382 0-.659-.1926-.659-.5225 0-.3233.222-.4963.712-.529l.868-.0588v.307c0 .4572-.392.8033-.921.8033zm2.538-2.0475c0 .5257.313.8262.989.9829l.621.147c.356.0849.522.2286.522.4506 0 .2907-.31.4932-.748.4932-.424 0-.685-.1731-.774-.4507h-.702c.062.6172.614.9993 1.46.9993.849 0 1.473-.4474 1.473-1.1071 0-.5159-.317-.8066-.993-.9633l-.591-.1372c-.385-.0914-.565-.2286-.565-.4474 0-.2873.297-.48.689-.48.399 0 .653.1731.719.4376h.672c-.068-.614-.591-.9862-1.391-.9862-.803 0-1.381.4441-1.381 1.0613zm3.719 2.5537h.702v-2.0769c0-.5552.321-.9242.895-.9242.497 0 .761.2906.761.8752v2.1259h.702v-2.2925c0-.8392-.467-1.3193-1.224-1.3193-.536 0-.911.2351-1.085.6303h-.055v-1.9561h-.696zm5.934.0588c.898 0 1.47-.7152 1.47-1.832 0-1.1267-.569-1.8353-1.47-1.8353-.487 0-.905.2384-1.094.6237h-.055v-1.9528h-.703v4.9376h.676v-.5617h.053c.212.3919.627.6205 1.123.6205zm-.202-3.0664c.594 0 .95.4669.95 1.2344 0 .7674-.356 1.2311-.95 1.2311-.592 0-.957-.4702-.961-1.2311.004-.7609.373-1.2344.961-1.2344zm4.02 3.0762c1.038 0 1.675-.6956 1.675-1.8418 0-1.1463-.64-1.8418-1.675-1.8418-1.039 0-1.679.6988-1.679 1.8418 0 1.1462.637 1.8418 1.679 1.8418zm0-.5976c-.611 0-.954-.454-.954-1.2442 0-.7903.343-1.2475.954-1.2475.607 0 .953.4572.953 1.2475 0 .787-.346 1.2442-.953 1.2442zm3.504.5878c.467 0 .855-.2025 1.067-.5617h.056v.5029h.676v-2.4264c0-.7445-.503-1.1886-1.395-1.1886-.806 0-1.381.3886-1.453.9862h.68c.078-.258.349-.405.741-.405.48 0 .728.2188.728.6074v.3103l-.963.0588c-.846.0522-1.323.4212-1.323 1.058 0 .6466.5 1.0581 1.186 1.0581zm.179-.565c-.382 0-.66-.1926-.66-.5225 0-.3233.223-.4963.712-.529l.869-.0588v.307c0 .4572-.392.8033-.921.8033zm2.619.5062h.702v-2.1194c0-.4996.376-.8425.908-.8425.124 0 .333.0228.392.0392v-.6597c-.075-.0163-.209-.0261-.313-.0261-.464 0-.859.2514-.961.6009h-.052v-.5389h-.676zm3.886.0588c.49 0 .905-.2319 1.117-.6205h.056v.5617h.672v-4.9376h-.702v1.9528h-.052c-.193-.3886-.604-.6237-1.091-.6237-.898 0-1.476.7152-1.476 1.832 0 1.1234.572 1.8353 1.476 1.8353zm.199-3.0664c.588 0 .957.4767.957 1.2344 0 .7641-.365 1.2311-.957 1.2311-.594 0-.95-.4604-.95-1.2311 0-.7675.359-1.2344.95-1.2344z" fill="#fff" fill-opacity=".75"/><path d="m223.369 57.7427c.052.836.754 1.3716 1.799 1.3716 1.117 0 1.816-.5617 1.816-1.4532 0-.7054-.398-1.094-1.365-1.3258l-.519-.1274c-.614-.1502-.862-.3462-.862-.6891 0-.4408.385-.7249.963-.7249.549 0 .927.2743.996.7217h.712c-.043-.787-.741-1.3422-1.698-1.3422-1.029 0-1.715.5552-1.715 1.3846 0 .6858.389 1.0908 1.241 1.2965l.608.1469c.623.1503.898.3789.898.7479 0 .431-.431.7413-1.019.7413-.63 0-1.068-.2907-1.13-.7479zm6.828.307c-.13.2874-.421.4441-.845.4441-.562 0-.925-.4049-.947-1.0482v-.0327h2.511v-.2416c0-1.1104-.598-1.7863-1.587-1.7863-1.003 0-1.64.7217-1.64 1.8483 0 1.1332.624 1.8353 1.643 1.8353.813 0 1.388-.3919 1.541-1.0189zm-.871-2.0933c.519 0 .858.3756.875.9503h-1.796c.039-.5714.401-.9503.921-.9503zm3.415 3.1024c.467 0 .856-.2025 1.068-.5617h.056v.5029h.676v-2.4264c0-.7445-.503-1.1886-1.395-1.1886-.806 0-1.381.3886-1.453.9862h.679c.079-.258.35-.405.742-.405.48 0 .728.2188.728.6074v.3103l-.963.0588c-.846.0522-1.323.4212-1.323 1.058 0 .6466.5 1.0581 1.185 1.0581zm.18-.565c-.382 0-.66-.1926-.66-.5225 0-.3233.222-.4963.712-.529l.869-.0588v.307c0 .4572-.392.8033-.921.8033zm2.619.5062h.702v-2.1194c0-.4996.376-.8425.908-.8425.124 0 .333.0228.392.0392v-.6597c-.075-.0163-.209-.0261-.314-.0261-.463 0-.859.2514-.96.6009h-.052v-.5389h-.676zm5.597-2.4068c-.091-.689-.63-1.2082-1.521-1.2082-1.036 0-1.666.7021-1.666 1.8287 0 1.1495.634 1.8549 1.669 1.8549.878 0 1.427-.4931 1.518-1.192h-.682c-.092.3854-.395.5944-.839.5944-.585 0-.948-.4735-.948-1.2573 0-.7674.36-1.2311.948-1.2311.47 0 .757.2645.839.6106zm.836 2.4068h.702v-2.0769c0-.5552.32-.9242.895-.9242.497 0 .761.2906.761.8752v2.1259h.702v-2.2925c0-.8392-.467-1.3193-1.224-1.3193-.536 0-.912.2351-1.085.6303h-.055v-1.9561h-.696z" fill="#fff" fill-opacity=".75"/><path d="m260.591 54.2878v4.7123h.732v-1.61h1.09c.924 0 1.578-.6335 1.578-1.5413 0-.9275-.634-1.561-1.555-1.561zm.732.6172h.92c.644 0 1 .3331 1 .9438 0 .5911-.369.9274-1 .9274h-.92zm3.53 4.0951h.702v-2.1194c0-.4996.375-.8425.908-.8425.124 0 .333.0228.392.0392v-.6597c-.076-.0163-.209-.0261-.314-.0261-.464 0-.859.2514-.96.6009h-.052v-.5389h-.676zm3.04-4.18c.245 0 .444-.1992.444-.4409 0-.2449-.199-.4441-.444-.4441s-.444.1992-.444.4441c0 .2417.199.4409.444.4409zm-.349 4.18h.698v-3.5465h-.698zm4.741-2.4068c-.091-.689-.63-1.2082-1.522-1.2082-1.035 0-1.665.7021-1.665 1.8287 0 1.1495.634 1.8549 1.669 1.8549.878 0 1.427-.4931 1.518-1.192h-.682c-.092.3854-.395.5944-.84.5944-.584 0-.947-.4735-.947-1.2573 0-.7674.36-1.2311.947-1.2311.471 0 .758.2645.84.6106zm1.166-1.7732c.245 0 .444-.1992.444-.4409 0-.2449-.199-.4441-.444-.4441s-.444.1992-.444.4441c0 .2417.199.4409.444.4409zm-.349 4.18h.699v-3.5465h-.699zm1.73 0h.703v-2.0802c0-.5715.329-.9242.849-.9242.519 0 .767.2874.767.8752v2.1292h.702v-2.2957c0-.8458-.437-1.3193-1.231-1.3193-.536 0-.888.2383-1.061.6302h-.053v-.5617h-.676zm5.51 1.3552c1.005 0 1.642-.5127 1.642-1.3193v-3.5824h-.673v.565h-.055c-.199-.3854-.627-.627-1.117-.627-.908 0-1.476.7152-1.476 1.7895 0 1.0646.562 1.7668 1.47 1.7668.489 0 .881-.2123 1.097-.5977h.052v.6826c0 .48-.346.7674-.931.7674-.473 0-.77-.1698-.829-.4376h-.719c.076.5976.65.9927 1.539.9927zm-.01-1.9887c-.604 0-.944-.4605-.944-1.1855 0-.7249.34-1.1886.944-1.1886.597 0 .963.4637.963 1.1886 0 .725-.362 1.1855-.963 1.1855z" fill="#fff" fill-opacity=".75"/><path d="m61.0078 50.9025-2.6114 1.5078v.9258l-1.5914 3.7421-1.5913-3.7421v-.9258l-2.6114-1.5078-1.5881.9181v1.0656l3.5371 8.6636 2.2537 1.3008 2.2537-1.3008 3.5372-8.6636v-1.0656z" fill="#1868f2"/><path d="m62.596 51.8207-2.6114 1.5068v.9268l-2.1204 4.7394-1.059.6114v3.2456l2.2536-1.3009 3.5372-8.6635z" fill="#0850c5"/><path d="m55.2137 53.3362v-.9258l-1.5892.9171v.9268l2.1215 4.7394 1.059-.6114v-1.3041z" fill="#0850c5"/><path d="m74.4372 61 2.8273-8.4821h-1.9103l-1.8928 6.5423h-.1058l-1.928-6.5423h-2.0045l2.8686 8.4821zm4.5414.0999c.8406 0 1.546-.3585 1.881-.9581h.1058v.8582h1.6576v-4.4204c0-1.3813-.9698-2.1925-2.6863-2.1925-1.6282 0-2.7274.7465-2.8391 1.9339h1.5753c.1411-.4056.5526-.6231 1.1698-.6231.7054 0 1.0933.3233 1.0933.8817v.535l-1.5694.094c-1.6106.0941-2.51.7759-2.51 1.9457 0 1.1815.8758 1.9456 2.122 1.9456zm.5643-1.252c-.5937 0-1.011-.2998-1.011-.7994 0-.4762.3585-.7524 1.0933-.7995l1.3108-.0881v.482c0 .6818-.5995 1.205-1.3931 1.205zm7.0161 3.6033c1.9575 0 3.1977-.9523 3.1977-2.463v-6.46h-1.6576v1.0345h-.1058c-.3468-.7053-1.0933-1.1403-1.9692-1.1403-1.6458 0-2.6569 1.2814-2.6569 3.2858 0 1.9398 1.0052 3.1977 2.6217 3.1977.9111 0 1.5929-.3703 1.9515-1.0521h.1058v1.205c0 .7465-.5349 1.1815-1.4519 1.1815-.7406 0-1.2226-.2587-1.3108-.6701h-1.6929c.1058 1.1345 1.2461 1.881 2.9684 1.881zm.0235-3.8561c-.9287 0-1.4577-.7289-1.4577-1.8927 0-1.1639.5349-1.8928 1.4577-1.8928.9229 0 1.4813.7289 1.4813 1.8928 0 1.1638-.5525 1.8927-1.4813 1.8927zm4.2887 1.4049h1.7106v-3.6209c0-.9111.6407-1.4696 1.5753-1.4696.2763 0 .676.0471.8112.0941v-1.5048c-.147-.047-.435-.0764-.6701-.0764-.823 0-1.4931.4879-1.6635 1.1345h-.1058v-1.0287h-1.6577zm6.299.0999c.8406 0 1.546-.3585 1.881-.9581h.1058v.8582h1.658v-4.4204c0-1.3813-.9702-2.1925-2.6866-2.1925-1.6283 0-2.7275.7465-2.8392 1.9339h1.5754c.141-.4056.5525-.6231 1.1697-.6231.7054 0 1.0933.3233 1.0933.8817v.535l-1.5694.094c-1.6106.0941-2.51.7759-2.51 1.9457 0 1.1815.8759 1.9456 2.122 1.9456zm.5643-1.252c-.5937 0-1.011-.2998-1.011-.7994 0-.4762.3586-.7524 1.0933-.7995l1.3108-.0881v.482c0 .6818-.5995 1.205-1.3931 1.205zm4.1595 1.1521h1.711v-3.7444c0-.8758.487-1.4401 1.281-1.4401.811 0 1.193.4761 1.193 1.3872v3.7973h1.711v-4.1852c0-1.546-.776-2.4277-2.216-2.4277-.958 0-1.617.4526-1.917 1.1815h-.105v-1.0404h-1.658zm7.445-8.0178v1.6048h-1.011v1.299h1.011v3.3682c0 1.2579.623 1.7693 2.199 1.7693.329 0 .646-.0353.858-.0764v-1.2638c-.165.0176-.282.0294-.506.0294-.582 0-.84-.2704-.84-.8523v-2.9744h1.346v-1.299h-1.346v-1.6048zm10.159 8.2353c2.045 0 3.538-1.2403 3.685-3.0508h-1.728c-.17.9347-.934 1.5342-1.951 1.5342-1.341 0-2.169-1.1286-2.169-2.9449s.828-2.9449 2.163-2.9449c1.011 0 1.781.6465 1.951 1.6282h1.729c-.13-1.8222-1.67-3.1389-3.68-3.1389-2.463 0-3.98 1.6988-3.98 4.4556s1.523 4.4615 3.98 4.4615zm4.606-.2175h1.71v-8.9465h-1.71zm5.764.1352c1.993 0 3.192-1.2579 3.192-3.374 0-2.0985-1.217-3.3741-3.192-3.3741s-3.192 1.2814-3.192 3.3741c0 2.1102 1.199 3.374 3.192 3.374zm0-1.352c-.917 0-1.434-.7406-1.434-2.022 0-1.2697.523-2.0162 1.434-2.0162.905 0 1.434.7465 1.434 2.0162 0 1.2814-.523 2.022-1.434 2.022zm9.855-5.255h-1.71v3.7385c0 .8876-.459 1.4342-1.311 1.4342-.788 0-1.193-.4643-1.193-1.3813v-3.7914h-1.711v4.2146c0 1.5048.87 2.3924 2.269 2.3924.982 0 1.587-.4232 1.893-1.1756h.106v1.0404h1.657zm3.437 6.5717c.899 0 1.634-.4173 1.981-1.1168h.105v1.0169h1.658v-8.9465h-1.711v3.5092h-.099c-.336-.7171-1.059-1.1403-1.934-1.1403-1.629 0-2.64 1.2755-2.64 3.3329 0 2.0632 1.005 3.3446 2.64 3.3446zm.582-5.2903c.911 0 1.469.7465 1.469 1.9574s-.552 1.9516-1.469 1.9516-1.464-.7348-1.464-1.9574c0-1.2168.552-1.9516 1.464-1.9516z" fill="#fff"/><path d="m55 137c0-3.314 2.6863-6 6-6h279v72h-279c-3.3137 0-6-2.686-6-6z" fill="#0c0c0e"/><path d="m69.4062 153.336 1.3711-5.168h.8165l-1.7071 5.832h-.957l-1.707-5.832h.8164zm5.1563-1.535h-.2383c-.4193 0-.7357.074-.9492.222-.2109.146-.3164.365-.3164.657 0 .263.0794.467.2383.613.1588.146.3789.219.6601.219.3959 0 .7071-.137.9336-.41.2266-.276.3412-.657.3438-1.141v-.16zm1.3945-.297v2.496h-.7226v-.648c-.1537.26-.3477.453-.5821.578-.2317.122-.5143.183-.8476.183-.4453 0-.8008-.125-1.0664-.375-.2656-.252-.3985-.59-.3985-1.011 0-.487.1628-.857.4883-1.11.3281-.252.8086-.379 1.4414-.379h.9649v-.113c-.0026-.349-.0912-.602-.2656-.758-.1745-.159-.4532-.238-.836-.238-.2448 0-.4922.035-.7422.105-.25.071-.4935.174-.7304.309v-.719c.2656-.101.5195-.177.7617-.226.2448-.052.4817-.078.7109-.078.362 0 .6706.053.9258.16.2578.106.4661.267.625.48.099.13.1693.292.2109.485.0417.19.0625.476.0625.859zm4.0352.273c0-.539-.0886-.948-.2656-1.226-.1745-.281-.4297-.422-.7657-.422-.3515 0-.6198.141-.8047.422-.1848.278-.2773.687-.2773 1.226s.0925.951.2773 1.235c.1876.281.4584.422.8126.422.3307 0 .5833-.142.7578-.426.177-.284.2656-.694.2656-1.231zm.7187 1.942c0 .656-.1549 1.153-.4648 1.492-.3099.338-.7656.508-1.3672.508-.1979 0-.4049-.018-.6211-.055-.2161-.036-.4323-.09-.6484-.16v-.711c.2552.12.487.208.6953.266.2083.057.3997.086.5742.086.388 0 .6706-.106.8477-.317.177-.211.2656-.545.2656-1.004v-.031-.488c-.1146.244-.2708.427-.4688.547-.1979.119-.4388.179-.7226.179-.5104 0-.918-.204-1.2227-.613s-.457-.956-.457-1.641c0-.687.1523-1.235.457-1.644s.7123-.613 1.2227-.613c.2812 0 .5195.056.7148.168.1953.111.3542.285.4766.519v-.566h.7187zm5.2618-3.192c-.1537-.119-.3099-.207-.4688-.261-.1588-.055-.3333-.082-.5234-.082-.4479 0-.7904.14-1.0274.421-.237.282-.3554.688-.3554 1.219v2.176h-.7227v-4.375h.7227v.855c.1197-.309.3033-.546.5507-.71.25-.167.5456-.25.8868-.25.177 0 .3424.022.496.066.1537.044.3008.113.4415.207zm3.0507 1.274h-.2382c-.4193 0-.7357.074-.9493.222-.2109.146-.3164.365-.3164.657 0 .263.0795.467.2383.613.1589.146.3789.219.6602.219.3958 0 .707-.137.9336-.41.2265-.276.3411-.657.3437-1.141v-.16zm1.3946-.297v2.496h-.7227v-.648c-.1536.26-.3476.453-.582.578-.2318.122-.5143.183-.8477.183-.4453 0-.8008-.125-1.0664-.375-.2656-.252-.3984-.59-.3984-1.011 0-.487.1627-.857.4883-1.11.3281-.252.8086-.379 1.4414-.379h.9648v-.113c-.0026-.349-.0911-.602-.2656-.758-.1745-.159-.4531-.238-.8359-.238-.2448 0-.4922.035-.7422.105-.25.071-.4935.174-.7305.309v-.719c.2656-.101.5195-.177.7617-.226.2448-.052.4818-.078.711-.078.3619 0 .6705.053.9257.16.2578.106.4662.267.625.48.099.13.1693.292.211.485.0416.19.0625.476.0625.859zm4.789-.215v2.711h-.7226v-2.711c0-.393-.069-.682-.2071-.867-.138-.185-.3541-.277-.6484-.277-.3359 0-.595.119-.7773.359-.1797.237-.2696.578-.2696 1.023v2.473h-.7187v-4.375h.7187v.656c.1276-.25.3008-.439.5196-.566.2187-.13.4778-.195.7773-.195.4453 0 .7773.147.9961.441.2214.292.332.734.332 1.328zm3.1133-2.906v1.242h1.6328v.559h-1.6328v2.375c0 .323.0612.548.1836.675.1224.128.3359.192.6406.192h.8086v.574h-.8789c-.539 0-.9193-.108-1.1406-.324-.2214-.216-.332-.589-.332-1.117v-2.375h-1.168v-.559h1.168v-1.242zm3.9417 4.039h1.375v1.578h-1.375zm7.445 1.355c-.193.112-.392.196-.598.25-.203.058-.411.086-.625.086-.677 0-1.207-.203-1.589-.609-.381-.406-.571-.969-.571-1.688 0-.718.19-1.281.571-1.687.382-.406.912-.609 1.589-.609.211 0 .417.027.618.082.2.054.402.139.605.253v.754c-.19-.169-.381-.291-.574-.367-.19-.075-.406-.113-.649-.113-.45 0-.796.146-1.039.437-.242.292-.363.709-.363 1.25 0 .539.121.956.363 1.25.245.292.591.438 1.039.438.25 0 .474-.038.672-.113.198-.079.382-.198.551-.36zm3.082-3.648c-.365 0-.641.142-.828.426-.188.284-.281.704-.281 1.261 0 .555.093.976.281 1.262.187.284.463.426.828.426.367 0 .645-.142.832-.426.188-.286.281-.707.281-1.262 0-.557-.093-.977-.281-1.261-.187-.284-.465-.426-.832-.426zm0-.609c.607 0 1.07.196 1.391.589.323.394.484.963.484 1.707 0 .748-.16 1.318-.48 1.711-.321.391-.786.586-1.395.586-.607 0-1.07-.195-1.391-.586-.32-.393-.48-.963-.48-1.711 0-.744.16-1.313.48-1.707.321-.393.784-.589 1.391-.589zm6.52 1.769v2.711h-.723v-2.711c0-.393-.069-.682-.207-.867s-.354-.277-.649-.277c-.335 0-.595.119-.777.359-.18.237-.269.578-.269 1.023v2.473h-.719v-4.375h.719v.656c.127-.25.3-.439.519-.566.219-.13.478-.195.777-.195.446 0 .778.147.997.441.221.292.332.734.332 1.328zm4.867-3.367v.598h-.817c-.257 0-.437.053-.539.16-.099.104-.148.29-.148.558v.387h1.504v.559h-1.504v3.816h-.719v-3.816h-1.168v-.559h1.168v-.305c0-.479.109-.832.328-1.058.222-.227.565-.34 1.031-.34zm1.902 1.719h1.84v3.8h1.426v.559h-3.571v-.559h1.426v-3.242h-1.121zm1.121-1.7h.719v.907h-.719zm5.817 3.836c0-.539-.089-.948-.266-1.226-.174-.281-.43-.422-.766-.422-.351 0-.619.141-.804.422-.185.278-.278.687-.278 1.226s.093.951.278 1.235c.187.281.458.422.812.422.331 0 .584-.142.758-.426.177-.284.266-.694.266-1.231zm.718 1.942c0 .656-.155 1.153-.464 1.492-.31.338-.766.508-1.368.508-.198 0-.405-.018-.621-.055-.216-.036-.432-.09-.648-.16v-.711c.255.12.487.208.695.266.208.057.4.086.574.086.388 0 .671-.106.848-.317s.266-.545.266-1.004v-.031-.488c-.115.244-.271.427-.469.547-.198.119-.439.179-.723.179-.51 0-.918-.204-1.222-.613-.305-.409-.457-.956-.457-1.641 0-.687.152-1.235.457-1.644.304-.409.712-.613 1.222-.613.281 0 .52.056.715.168.195.111.354.285.477.519v-.566h.718zm1.512-1.375v-2.711h.719v2.711c0 .393.069.682.207.867.14.185.357.277.648.277.339 0 .598-.118.778-.355.179-.24.269-.582.269-1.028v-2.472h.723v4.367h-.723v-.656c-.127.252-.302.444-.523.574-.219.13-.476.195-.77.195-.448 0-.781-.146-1-.437-.219-.294-.328-.738-.328-1.332zm8.57-1.817c-.153-.119-.309-.207-.468-.261-.159-.055-.334-.082-.524-.082-.448 0-.79.14-1.027.421-.237.282-.356.688-.356 1.219v2.176h-.722v-4.375h.722v.855c.12-.309.304-.546.551-.71.25-.167.546-.25.887-.25.177 0 .342.022.496.066s.301.113.441.207zm4.684.926v.352h-3.113v.023c-.021.596.092 1.025.34 1.285.25.261.601.391 1.054.391.229 0 .469-.037.719-.109.25-.073.517-.184.801-.333v.715c-.274.112-.538.196-.793.25-.253.058-.498.086-.735.086-.679 0-1.211-.203-1.593-.609-.383-.409-.575-.971-.575-1.688 0-.698.188-1.255.563-1.671.375-.417.875-.625 1.5-.625.557 0 .996.188 1.316.566.323.378.495.833.516 1.367zm-.719-.211c-.031-.302-.142-.562-.332-.781-.187-.221-.458-.332-.812-.332-.347 0-.632.114-.856.344-.224.229-.346.487-.367.773zm4.504-3.703c-.346.594-.605 1.186-.777 1.777-.169.589-.254 1.183-.254 1.782 0 .596.085 1.19.254 1.781.172.591.431 1.186.777 1.785h-.625c-.393-.62-.686-1.223-.879-1.809-.192-.588-.289-1.174-.289-1.757 0-.581.097-1.166.289-1.754.193-.589.486-1.19.879-1.805zm5.172.418v2.391h-.875v-2.391zm-2.082 0v2.391h-.875v-2.391zm4.668 5.379h2.68v.664h-3.543v-.664c.487-.513.912-.966 1.277-1.359.365-.394.616-.671.754-.832.26-.318.436-.575.527-.77.091-.198.137-.4.137-.605 0-.326-.096-.581-.289-.766-.19-.185-.452-.277-.785-.277-.237 0-.486.043-.746.128-.261.086-.537.217-.828.391v-.797c.268-.127.531-.224.789-.289.26-.065.517-.098.769-.098.57 0 1.029.153 1.375.458.349.302.524.699.524 1.191 0 .25-.059.5-.176.75-.115.25-.302.526-.563.828-.146.169-.358.404-.636.703-.276.3-.698.748-1.266 1.344zm7.055-5.379v2.391h-.875v-2.391zm-2.082 0v2.391h-.875v-2.391zm4.57-.418h.625c.393.615.686 1.216.879 1.805.193.588.289 1.173.289 1.754 0 .586-.096 1.173-.289 1.761-.193.589-.486 1.19-.879 1.805h-.625c.346-.604.604-1.202.773-1.793.172-.591.258-1.182.258-1.773 0-.594-.086-1.187-.258-1.778-.169-.591-.427-1.185-.773-1.781zm11.633 2.645v-2.262h.719v6.078h-.719v-.551c-.12.216-.28.382-.481.496-.198.112-.427.168-.687.168-.529 0-.946-.204-1.25-.613-.302-.411-.453-.978-.453-1.699 0-.711.152-1.268.457-1.672.304-.406.72-.609 1.246-.609.263 0 .495.057.695.171.201.112.358.276.473.493zm-2.114 1.632c0 .558.089.978.266 1.262s.439.426.785.426c.347 0 .61-.143.789-.43.183-.286.274-.706.274-1.258 0-.554-.091-.974-.274-1.257-.179-.287-.442-.43-.789-.43-.346 0-.608.142-.785.426s-.266.704-.266 1.261zm5.989-1.687c-.365 0-.641.142-.828.426-.188.284-.282.704-.282 1.261 0 .555.094.976.282 1.262.187.284.463.426.828.426.367 0 .644-.142.832-.426.187-.286.281-.707.281-1.262 0-.557-.094-.977-.281-1.261-.188-.284-.465-.426-.832-.426zm0-.609c.607 0 1.07.196 1.39.589.323.394.485.963.485 1.707 0 .748-.16 1.318-.481 1.711-.32.391-.785.586-1.394.586-.607 0-1.071-.195-1.391-.586-.32-.393-.48-.963-.48-1.711 0-.744.16-1.313.48-1.707.32-.393.784-.589 1.391-.589zm10.133-1.633v8h-.672v-8zm6.066 5.89c-.193.112-.392.196-.598.25-.203.058-.411.086-.625.086-.677 0-1.207-.203-1.59-.609-.38-.406-.57-.969-.57-1.688 0-.718.19-1.281.57-1.687.383-.406.913-.609 1.59-.609.211 0 .417.027.618.082.2.054.402.139.605.253v.754c-.19-.169-.382-.291-.574-.367-.19-.075-.407-.113-.649-.113-.45 0-.797.146-1.039.437-.242.292-.363.709-.363 1.25 0 .539.121.956.363 1.25.245.292.591.438 1.039.438.25 0 .474-.038.672-.113.198-.079.382-.198.551-.36zm3.082-3.648c-.365 0-.641.142-.828.426-.188.284-.281.704-.281 1.261 0 .555.093.976.281 1.262.187.284.463.426.828.426.367 0 .645-.142.832-.426.188-.286.281-.707.281-1.262 0-.557-.093-.977-.281-1.261-.187-.284-.465-.426-.832-.426zm0-.609c.607 0 1.07.196 1.391.589.323.394.484.963.484 1.707 0 .748-.16 1.318-.48 1.711-.321.391-.786.586-1.395.586-.607 0-1.07-.195-1.391-.586-.32-.393-.48-.963-.48-1.711 0-.744.16-1.313.48-1.707.321-.393.784-.589 1.391-.589zm6.52 1.769v2.711h-.723v-2.711c0-.393-.069-.682-.207-.867s-.354-.277-.649-.277c-.336 0-.595.119-.777.359-.18.237-.269.578-.269 1.023v2.473h-.719v-4.375h.719v.656c.127-.25.3-.439.519-.566.219-.13.478-.195.777-.195.446 0 .778.147.996.441.222.292.333.734.333 1.328zm4.867-3.367v.598h-.817c-.257 0-.437.053-.539.16-.099.104-.148.29-.148.558v.387h1.504v.559h-1.504v3.816h-.719v-3.816h-1.168v-.559h1.168v-.305c0-.479.109-.832.328-1.058.222-.227.565-.34 1.031-.34zm1.902 1.719h1.84v3.8h1.426v.559h-3.571v-.559h1.426v-3.242h-1.121zm1.121-1.7h.719v.907h-.719zm5.817 3.836c0-.539-.089-.948-.266-1.226-.175-.281-.43-.422-.766-.422-.351 0-.619.141-.804.422-.185.278-.278.687-.278 1.226s.093.951.278 1.235c.187.281.458.422.812.422.331 0 .583-.142.758-.426.177-.284.266-.694.266-1.231zm.718 1.942c0 .656-.155 1.153-.465 1.492-.309.338-.765.508-1.367.508-.198 0-.405-.018-.621-.055-.216-.036-.432-.09-.648-.16v-.711c.255.12.487.208.695.266.208.057.4.086.574.086.388 0 .671-.106.848-.317s.266-.545.266-1.004v-.031-.488c-.115.244-.271.427-.469.547-.198.119-.439.179-.723.179-.51 0-.918-.204-1.222-.613-.305-.409-.458-.956-.458-1.641 0-.687.153-1.235.458-1.644.304-.409.712-.613 1.222-.613.281 0 .52.056.715.168.195.111.354.285.477.519v-.566h.718zm3.649-5.832v8h-.672v-8zm-148.1838 21.89c-.1928.112-.392.196-.5977.25-.2031.058-.4115.086-.625.086-.6771 0-1.207-.203-1.5898-.609-.3803-.406-.5704-.969-.5704-1.688 0-.718.1901-1.281.5704-1.687.3828-.406.9127-.609 1.5898-.609.2109 0 .4167.027.6172.082.2005.054.4023.139.6055.253v.754c-.1901-.169-.3816-.291-.5743-.367-.1901-.075-.4062-.113-.6484-.113-.4505 0-.7969.146-1.0391.437-.2422.292-.3632.709-.3632 1.25 0 .539.121.956.3632 1.25.2448.292.5912.438 1.0391.438.25 0 .474-.038.6719-.113.1979-.079.3815-.198.5508-.36zm3.082-3.648c-.3646 0-.6406.142-.8281.426s-.2813.704-.2813 1.261c0 .555.0938.976.2813 1.262.1875.284.4635.426.8281.426.3672 0 .6445-.142.832-.426.1875-.286.2813-.707.2813-1.262 0-.557-.0938-.977-.2813-1.261s-.4648-.426-.832-.426zm0-.609c.6068 0 1.0703.196 1.3906.589.3229.394.4844.963.4844 1.707 0 .748-.1602 1.318-.4805 1.711-.3203.391-.7851.586-1.3945.586-.6068 0-1.0703-.195-1.3906-.586-.3204-.393-.4805-.963-.4805-1.711 0-.744.1601-1.313.4805-1.707.3203-.393.7838-.589 1.3906-.589zm6.5195 1.769v2.711h-.7226v-2.711c0-.393-.069-.682-.2071-.867-.138-.185-.3541-.277-.6484-.277-.3359 0-.5951.119-.7774.359-.1796.237-.2695.578-.2695 1.023v2.473h-.7187v-4.375h.7187v.656c.1276-.25.3008-.439.5195-.566.2188-.13.4779-.195.7774-.195.4453 0 .7773.147.9961.441.2213.292.332.734.332 1.328zm4.8672-3.367v.598h-.8164c-.2578 0-.4375.053-.5391.16-.0989.104-.1484.29-.1484.558v.387h1.5039v.559h-1.5039v3.816h-.7188v-3.816h-1.1679v-.559h1.1679v-.305c0-.479.1094-.832.3282-1.058.2213-.227.5651-.34 1.0312-.34zm1.9023 1.719h1.8399v3.8h1.4259v.559h-3.5704v-.559h1.4257v-3.242h-1.1211zm1.1211-1.7h.7188v.907h-.7188zm5.8167 3.836c0-.539-.089-.948-.266-1.226-.174-.281-.43-.422-.766-.422-.351 0-.619.141-.804.422-.185.278-.278.687-.278 1.226s.093.951.278 1.235c.187.281.458.422.812.422.331 0 .584-.142.758-.426.177-.284.266-.694.266-1.231zm.718 1.942c0 .656-.154 1.153-.464 1.492-.31.338-.766.508-1.368.508-.197 0-.404-.018-.621-.055-.216-.036-.432-.09-.648-.16v-.711c.255.12.487.208.695.266.209.057.4.086.574.086.388 0 .671-.106.848-.317s.266-.545.266-1.004v-.031-.488c-.115.244-.271.427-.469.547-.198.119-.439.179-.723.179-.51 0-.918-.204-1.222-.613-.305-.409-.457-.956-.457-1.641 0-.687.152-1.235.457-1.644.304-.409.712-.613 1.222-.613.282 0 .52.056.715.168.195.111.354.285.477.519v-.566h.718zm2.27-1.297h1.375v1.578h-1.375zm3.691-2.797h.747l1.269 3.672 1.273-3.672h.747l-1.555 4.375h-.926zm7.071.445c.088-.187.2-.325.336-.414.138-.091.303-.136.496-.136.351 0 .599.136.742.41.146.271.219.782.219 1.535v2.535h-.657v-2.504c0-.617-.035-1-.105-1.148-.068-.151-.193-.227-.375-.227-.208 0-.352.081-.43.242-.075.159-.113.537-.113 1.133v2.504h-.656v-2.504c0-.625-.038-1.01-.113-1.156-.073-.146-.206-.219-.399-.219-.19 0-.323.081-.398.242-.073.159-.11.537-.11 1.133v2.504h-.652v-4.375h.652v.375c.086-.156.193-.275.321-.355.13-.084.277-.125.441-.125.198 0 .362.045.492.136.133.091.236.229.309.414zm3.699 2.352h1.375v1.578h-1.375zm6.887-.606c0-.557-.089-.977-.266-1.261s-.439-.426-.785-.426c-.349 0-.613.143-.793.43-.18.283-.27.703-.27 1.257 0 .552.09.972.27 1.258.18.287.444.43.793.43.346 0 .608-.142.785-.426s.266-.704.266-1.262zm-2.114-1.632c.115-.214.273-.378.473-.493.203-.114.438-.171.703-.171.526 0 .94.203 1.242.609.302.404.454.961.454 1.672 0 .721-.153 1.288-.458 1.699-.302.409-.717.613-1.246.613-.26 0-.491-.056-.691-.168-.198-.114-.357-.28-.477-.496v.551h-.718v-6.078h.718zm5.754-.055c-.364 0-.64.142-.828.426-.187.284-.281.704-.281 1.261 0 .555.094.976.281 1.262.188.284.464.426.828.426.368 0 .645-.142.832-.426.188-.286.282-.707.282-1.262 0-.557-.094-.977-.282-1.261-.187-.284-.464-.426-.832-.426zm0-.609c.607 0 1.071.196 1.391.589.323.394.484.963.484 1.707 0 .748-.16 1.318-.48 1.711-.32.391-.785.586-1.395.586-.606 0-1.07-.195-1.39-.586-.321-.393-.481-.963-.481-1.711 0-.744.16-1.313.481-1.707.32-.393.784-.589 1.39-.589zm6.782.105-1.567 2.094 1.719 2.281h-.832l-1.281-1.754-1.278 1.754h-.832l1.719-2.281-1.566-2.094h.796l1.161 1.582 1.152-1.582zm5.617 2.422h4.129v.66h-4.129zm0-1.84h4.129v.66h-4.129zm12.988-2.25v2.391h-.875v-2.391zm-2.082 0v2.391h-.875v-2.391zm7.316 3.332v2.711h-.722v-2.711c0-.393-.069-.682-.207-.867s-.354-.277-.649-.277c-.336 0-.595.119-.777.359-.18.237-.27.578-.27 1.023v2.473h-.718v-6.078h.718v2.359c.128-.25.301-.439.52-.566.219-.13.478-.195.777-.195.446 0 .778.147.996.441.222.292.332.734.332 1.328zm3.457.512h-.238c-.419 0-.736.074-.949.222-.211.146-.316.365-.316.657 0 .263.079.467.238.613s.379.219.66.219c.396 0 .707-.137.934-.41.226-.276.341-.657.343-1.141v-.16zm1.395-.297v2.496h-.723v-.648c-.153.26-.347.453-.582.578-.231.122-.514.183-.847.183-.446 0-.801-.125-1.067-.375-.265-.252-.398-.59-.398-1.011 0-.487.163-.857.488-1.11.328-.252.809-.379 1.441-.379h.965v-.113c-.002-.349-.091-.602-.265-.758-.175-.159-.453-.238-.836-.238-.245 0-.492.035-.742.105-.25.071-.494.174-.731.309v-.719c.266-.101.52-.177.762-.226.245-.052.482-.078.711-.078.362 0 .67.053.926.16.257.106.466.267.625.48.098.13.169.292.21.485.042.19.063.476.063.859zm4.484-1.727v.703c-.205-.119-.412-.209-.621-.269-.208-.06-.42-.09-.636-.09-.326 0-.569.053-.731.16-.159.104-.238.265-.238.481 0 .195.06.341.179.437.12.097.418.19.895.281l.289.055c.357.068.626.203.809.406.185.204.277.468.277.793 0 .433-.154.771-.461 1.016-.307.242-.734.363-1.281.363-.216 0-.443-.023-.68-.07-.237-.044-.493-.112-.769-.203v-.742c.268.138.524.242.769.312.245.068.477.102.695.102.318 0 .564-.064.739-.192.174-.13.261-.311.261-.543 0-.333-.319-.563-.957-.691l-.031-.008-.269-.055c-.414-.08-.717-.216-.907-.406-.19-.193-.285-.454-.285-.785 0-.419.142-.742.426-.969.284-.229.689-.343 1.215-.343.234 0 .459.022.676.066.216.042.428.105.636.191zm5.125 1.512v2.711h-.722v-2.711c0-.393-.069-.682-.207-.867s-.355-.277-.649-.277c-.336 0-.595.119-.777.359-.18.237-.27.578-.27 1.023v2.473h-.718v-6.078h.718v2.359c.128-.25.301-.439.52-.566.219-.13.478-.195.777-.195.446 0 .778.147.996.441.222.292.332.734.332 1.328zm1.95-1.648h1.839v3.8h1.426v.559h-3.57v-.559h1.426v-3.242h-1.121zm1.121-1.7h.718v.907h-.718zm6.609 5.836c-.193.112-.392.196-.598.25-.203.058-.411.086-.625.086-.677 0-1.207-.203-1.589-.609-.381-.406-.571-.969-.571-1.688 0-.718.19-1.281.571-1.687.382-.406.912-.609 1.589-.609.211 0 .417.027.618.082.2.054.402.139.605.253v.754c-.19-.169-.381-.291-.574-.367-.19-.075-.406-.113-.649-.113-.45 0-.797.146-1.039.437-.242.292-.363.709-.363 1.25 0 .539.121.956.363 1.25.245.292.591.438 1.039.438.25 0 .474-.038.672-.113.198-.079.382-.198.551-.36zm3.082-3.648c-.365 0-.641.142-.828.426-.188.284-.281.704-.281 1.261 0 .555.093.976.281 1.262.187.284.463.426.828.426.367 0 .645-.142.832-.426.188-.286.281-.707.281-1.262 0-.557-.093-.977-.281-1.261-.187-.284-.465-.426-.832-.426zm0-.609c.607 0 1.07.196 1.391.589.323.394.484.963.484 1.707 0 .748-.16 1.318-.48 1.711-.321.391-.786.586-1.395.586-.607 0-1.07-.195-1.391-.586-.32-.393-.48-.963-.48-1.711 0-.744.16-1.313.48-1.707.321-.393.784-.589 1.391-.589zm6.926 1.007c-.154-.119-.31-.207-.469-.261-.159-.055-.333-.082-.523-.082-.448 0-.791.14-1.028.421-.237.282-.355.688-.355 1.219v2.176h-.723v-4.375h.723v.855c.12-.309.303-.546.551-.71.25-.167.545-.25.886-.25.177 0 .343.022.496.066.154.044.301.113.442.207zm1.773 2.922v2.215h-.722v-6.039h.722v.559c.12-.217.279-.381.477-.493.2-.114.431-.171.691-.171.529 0 .943.204 1.242.613.303.409.454.975.454 1.699 0 .711-.151 1.27-.454 1.676-.302.403-.716.605-1.242.605-.265 0-.498-.056-.699-.168-.198-.114-.354-.28-.469-.496zm2.11-1.633c0-.557-.089-.977-.266-1.261-.174-.284-.435-.426-.781-.426-.349 0-.614.143-.793.43-.18.283-.27.703-.27 1.257 0 .552.09.972.27 1.258.179.287.444.43.793.43.346 0 .607-.142.781-.426.177-.284.266-.704.266-1.262zm4.718-3.648h.743l-3.071 6.574h-.746zm2.813 5.281v2.215h-.723v-6.039h.723v.559c.12-.217.279-.381.476-.493.201-.114.431-.171.692-.171.529 0 .943.204 1.242.613.302.409.453.975.453 1.699 0 .711-.151 1.27-.453 1.676-.302.403-.716.605-1.242.605-.266 0-.499-.056-.699-.168-.198-.114-.355-.28-.469-.496zm2.109-1.633c0-.557-.088-.977-.265-1.261-.175-.284-.435-.426-.782-.426-.349 0-.613.143-.793.43-.179.283-.269.703-.269 1.257 0 .552.09.972.269 1.258.18.287.444.43.793.43.347 0 .607-.142.782-.426.177-.284.265-.704.265-1.262zm5.758-1.289c-.154-.119-.31-.207-.469-.261-.159-.055-.333-.082-.523-.082-.448 0-.79.14-1.027.421-.237.282-.356.688-.356 1.219v2.176h-.723v-4.375h.723v.855c.12-.309.303-.546.551-.71.25-.167.545-.25.887-.25.177 0 .342.022.496.066.153.044.3.113.441.207zm4.684.926v.352h-3.114v.023c-.02.596.093 1.025.34 1.285.25.261.602.391 1.055.391.229 0 .469-.037.719-.109.25-.073.517-.184.8-.333v.715c-.273.112-.537.196-.793.25-.252.058-.497.086-.734.086-.68 0-1.211-.203-1.594-.609-.382-.409-.574-.971-.574-1.688 0-.698.188-1.255.563-1.671.375-.417.875-.625 1.5-.625.557 0 .996.188 1.316.566.323.378.495.833.516 1.367zm-.719-.211c-.031-.302-.142-.562-.332-.781-.188-.221-.458-.332-.813-.332-.346 0-.631.114-.855.344-.224.229-.346.487-.367.773zm5.309 2.535c-.193.112-.392.196-.598.25-.203.058-.412.086-.625.086-.677 0-1.207-.203-1.59-.609-.38-.406-.57-.969-.57-1.688 0-.718.19-1.281.57-1.687.383-.406.913-.609 1.59-.609.211 0 .417.027.617.082.201.054.402.139.606.253v.754c-.191-.169-.382-.291-.575-.367-.19-.075-.406-.113-.648-.113-.451 0-.797.146-1.039.437-.242.292-.363.709-.363 1.25 0 .539.121.956.363 1.25.245.292.591.438 1.039.438.25 0 .474-.038.672-.113.198-.079.381-.198.551-.36zm1.91-4.136h1.84v3.8h1.425v.559h-3.57v-.559h1.426v-3.242h-1.121zm1.121-1.7h.719v.907h-.719zm6.265 1.836v.703c-.205-.119-.412-.209-.621-.269-.208-.06-.42-.09-.636-.09-.326 0-.569.053-.731.16-.159.104-.238.265-.238.481 0 .195.06.341.18.437.119.097.417.19.894.281l.289.055c.357.068.626.203.809.406.185.204.277.468.277.793 0 .433-.154.771-.461 1.016-.307.242-.734.363-1.281.363-.216 0-.443-.023-.68-.07-.237-.044-.493-.112-.769-.203v-.742c.268.138.524.242.769.312.245.068.477.102.696.102.317 0 .563-.064.738-.192.174-.13.262-.311.262-.543 0-.333-.32-.563-.958-.691l-.031-.008-.269-.055c-.414-.08-.716-.216-.907-.406-.19-.193-.285-.454-.285-.785 0-.419.142-.742.426-.969.284-.229.689-.343 1.215-.343.234 0 .46.022.676.066.216.042.428.105.636.191zm5.395 1.676v.352h-3.113v.023c-.021.596.092 1.025.339 1.285.25.261.602.391 1.055.391.229 0 .469-.037.719-.109.25-.073.517-.184.801-.333v.715c-.274.112-.538.196-.793.25-.253.058-.498.086-.735.086-.679 0-1.211-.203-1.593-.609-.383-.409-.575-.971-.575-1.688 0-.698.188-1.255.563-1.671.375-.417.875-.625 1.5-.625.557 0 .996.188 1.316.566.323.378.495.833.516 1.367zm-.719-.211c-.031-.302-.142-.562-.332-.781-.187-.221-.458-.332-.812-.332-.347 0-.632.114-.856.344-.224.229-.346.487-.367.773zm5.035-2.945v.726c-.164-.096-.338-.169-.523-.218-.185-.052-.378-.078-.578-.078-.5 0-.879.188-1.137.566-.258.375-.387.928-.387 1.66.125-.26.299-.46.52-.598.221-.14.475-.21.762-.21.562 0 .997.173 1.304.519.31.344.465.832.465 1.465 0 .63-.159 1.118-.476 1.465-.318.346-.765.519-1.34.519-.677 0-1.173-.242-1.489-.726-.315-.487-.472-1.253-.472-2.297 0-.985.189-1.735.566-2.25.38-.518.93-.778 1.649-.778.192 0 .385.021.578.063.192.039.379.096.558.172zm-1.406 2.465c-.336 0-.6.121-.793.363s-.289.577-.289 1.004.096.762.289 1.004.457.363.793.363c.349 0 .612-.114.789-.344.177-.231.266-.573.266-1.023 0-.453-.089-.794-.266-1.024-.177-.229-.44-.343-.789-.343zm5.227-1.875-1.84 3.082h1.84zm-.129-.719h.914v3.801h.777v.64h-.777v1.391h-.785v-1.391h-2.473v-.746zm5.769-.211v2.391h-.875v-2.391zm-2.082 0v2.391h-.875v-2.391zm-180.406 19.496v.352h-3.1133v.023c-.0208.596.0925 1.025.3399 1.285.25.261.6015.391 1.0546.391.2292 0 .4688-.037.7188-.109.25-.073.5169-.184.8008-.333v.715c-.2735.112-.5378.196-.793.25-.2526.058-.4974.086-.7344.086-.6796 0-1.2109-.203-1.5937-.609-.3828-.409-.5742-.971-.5742-1.688 0-.698.1875-1.255.5625-1.671.375-.417.875-.625 1.5-.625.5573 0 .9961.188 1.3164.566.3229.378.4948.833.5156 1.367zm-.7188-.211c-.0312-.302-.1419-.562-.332-.781-.1875-.221-.4583-.332-.8125-.332-.3463 0-.6315.114-.8555.344-.2239.229-.3463.487-.3671.773zm5.2696.047v2.711h-.7227v-2.711c0-.393-.069-.682-.207-.867s-.3542-.277-.6484-.277c-.336 0-.5951.119-.7774.359-.1797.237-.2695.578-.2695 1.023v2.473h-.7188v-4.375h.7188v.656c.1276-.25.3008-.439.5195-.566.2188-.13.4779-.195.7774-.195.4453 0 .7773.147.9961.441.2213.292.332.734.332 1.328zm4.0664-1.105v-2.262h.7187v6.078h-.7187v-.551c-.1198.216-.28.382-.4805.496-.1979.112-.4271.168-.6875.168-.5286 0-.9453-.204-1.25-.613-.3021-.411-.4531-.978-.4531-1.699 0-.711.1523-1.268.457-1.672.3047-.406.7201-.609 1.2461-.609.263 0 .4948.057.6953.171.2006.112.3581.276.4727.493zm-2.1133 1.632c0 .558.0885.978.2656 1.262s.4388.426.7852.426c.3463 0 .6094-.143.7891-.43.1822-.286.2734-.706.2734-1.258 0-.554-.0912-.974-.2734-1.257-.1797-.287-.4428-.43-.7891-.43-.3464 0-.6081.142-.7852.426s-.2656.704-.2656 1.261z" fill="#fff"/></g></g></svg>