<svg width="163" height="384" viewBox="0 0 163 384" xmlns="http://www.w3.org/2000/svg" fill-rule="evenodd" clip-rule="evenodd" stroke-linejoin="round" stroke-miterlimit="2"><path d="M19.224 192h2.302L163 303.096v1.808L19.399 192.138l-.175-.138zm-13.408.138L163 315.571v-1.808L7.943 192H5.641l.175.138zm40.75 0L163 283.571v-1.807L48.692 192h-2.301l.175.138zm-13.583 0L163 294.238v-1.808L35.109 192h-2.302l.176.138zm27.166 0L163 272.905v-1.808L62.276 192h-2.302l.175.138zm13.584 0L163 262.239v-1.808L75.859 192h-2.302l.176.138zM87.141 192h2.302L163 249.763v1.808l-75.684-59.433-.175-.138zm67.916 0l7.943 6.238v-1.807L157.359 192h-2.302zm-54.158.138L163 240.904v-1.807L103.025 192h-2.301l.175.138zm13.583 0L163 230.239v-1.808L116.609 192h-2.302l.175.138zm27.167 0L163 208.905v-1.809L143.776 192h-2.302l.175.138zm-13.583 0L163 219.572v-1.808L130.192 192h-2.301l.175.138zM143.776 384h-2.302L0 272.904v-1.808l143.601 112.766.175.138zm13.408-.138L0 260.429v1.808L155.057 384h2.302l-.175-.138zm-40.75 0L0 292.429v1.807L114.308 384h2.301l-.175-.138zm13.583 0L0 281.762v1.808L127.891 384h2.301l-.175-.138zm-27.166 0L0 303.095v1.808L100.724 384h2.302l-.175-.138zm-13.584 0L0 313.761v1.808L87.141 384h2.302l-.176-.138z" fill-rule="nonzero"/><g fill-rule="nonzero"><path d="M19.224 0h2.302L163 111.096v1.808L19.399.138 19.224 0zM5.816.138L163 123.571v-1.808L7.943 0H5.641l.175.138zm40.75 0L163 91.571v-1.807L48.692 0h-2.301l.175.138zm-13.583 0L163 102.238v-1.808L35.109 0h-2.302l.176.138zm27.166 0L163 80.905v-1.808L62.276 0h-2.302l.175.138zm13.584 0L163 70.239v-1.808L75.859 0h-2.302l.176.138zM143.776 192h-2.302L0 80.904v-1.808l143.601 112.766.175.138zm13.408-.138L0 68.429v1.808L155.057 192h2.302l-.175-.138zm-40.75 0L0 100.429v1.807L114.308 192h2.301l-.175-.138zm13.583 0L0 89.762v1.808L127.891 192h2.301l-.175-.138zm-27.166 0L0 111.095v1.808L100.724 192h2.302l-.175-.138zm-13.584 0L0 121.761v1.808L87.141 192h2.302l-.176-.138z"/><path d="M75.86 192h-2.302L0 134.237v-1.808l75.684 59.433.176.138zm-67.917 0L0 185.762v1.807L5.641 192h2.302zm54.158-.138L0 143.096v1.807L59.975 192h2.301l-.175-.138zm-13.583 0L0 153.761v1.808L46.391 192h2.302l-.175-.138zm-27.167 0L0 175.095v1.809L19.224 192h2.302l-.175-.138zm13.583 0L0 164.428v1.808L32.808 192h2.302l-.176-.138zm128.007-47.004L0 16.903v-1.806l.059.046L163 143.096v1.809l-.059-.047zM163 155.57v-1.807L.059 25.808 0 25.762v1.808l162.941 127.954.059.046zm0-21.332v-1.809L.059 4.476 0 4.43v1.807l162.941 127.955.059.046zm0 31.999v-1.808L.059 36.475 0 36.429v1.808l162.941 127.954.059.046zm0 10.667v-1.808L.059 47.142 0 47.096v1.808l162.941 127.954.059.046zm0 10.667v-1.808L.059 57.809 0 57.763v1.807l162.941 127.954.059.047z" fill="#63d0ff"/></g></svg>