<svg width="453" height="594" viewBox="0 0 453 594" fill="none" xmlns="http://www.w3.org/2000/svg">
<path d="M371.938 347.666L452.059 292L452.059 516.295L371.938 571.961L371.938 347.666Z" fill="url(#paint0_linear_685_40288)" fill-opacity="0.6"/>
<path d="M371.939 347.666L291.819 292L291.819 520.334L371.939 576L371.939 347.666Z" fill="url(#paint1_linear_685_40288)" fill-opacity="0.6"/>
<path d="M240.855 223.92L337.712 168L337.712 393.318L240.855 449.238L240.855 223.92Z" fill="url(#paint2_linear_685_40288)" fill-opacity="0.6"/>
<path d="M240.856 223.92L144 168L144 397.376L240.856 453.296L240.856 223.92Z" fill="url(#paint3_linear_685_40288)" fill-opacity="0.6"/>
<path d="M316.801 176.51L316.801 176.511L316.716 176.559L246.635 217.015C243.967 218.556 243.106 219.024 242.261 219.25C241.013 219.585 239.699 219.585 238.45 219.25C237.605 219.024 236.745 218.556 234.076 217.015L163.911 176.511C161.242 174.97 160.405 174.459 159.787 173.84C158.873 172.926 158.215 171.788 157.881 170.539C157.655 169.694 157.63 168.715 157.63 165.632V25.7724C157.63 23.7128 157.632 22.32 157.705 21.2391C157.777 20.1854 157.907 19.6514 158.059 19.2865C158.63 17.9068 159.726 16.8107 161.106 16.2392C161.471 16.0881 162.005 15.9579 163.058 15.886C164.139 15.8123 165.532 15.8106 167.592 15.8106H313.12C315.179 15.8106 316.572 15.8123 317.653 15.886C318.707 15.9579 319.241 16.0881 319.606 16.2392C320.985 16.8107 322.081 17.9068 322.653 19.2865C322.804 19.6514 322.934 20.1854 323.006 21.2391C323.08 22.32 323.081 23.7128 323.081 25.7724V165.632C323.081 168.715 323.057 169.694 322.83 170.539C322.496 171.788 321.839 172.926 320.925 173.84C320.306 174.459 319.47 174.97 316.801 176.51Z" fill="black" stroke="black" stroke-width="6.06366"/>
<g opacity="0.94">
<path d="M175.705 130.548H176.547V127.201H180.341V130.548H181.183V123.271H180.341V126.473H176.547V123.271H175.705V130.548ZM185.925 130.61C187.609 130.61 188.763 129.529 189.002 128.136H188.129C187.931 129.03 187.089 129.799 185.935 129.799C184.511 129.799 183.524 128.625 183.524 126.962C183.524 125.236 184.522 123.999 185.977 123.999C187.1 123.999 187.921 124.758 188.129 125.662H189.002C188.784 124.269 187.63 123.209 185.987 123.209C184.033 123.209 182.63 124.737 182.63 126.951C182.63 129.103 184.044 130.61 185.925 130.61ZM191.909 130.548H192.709V124.03H195.308V123.271H189.3V124.03H191.909V130.548ZM195.742 130.548L196.469 128.583H199.598L200.346 130.548H201.261L198.465 123.271H197.602L194.827 130.537L195.742 130.548ZM196.729 127.804L198.039 124.217L199.349 127.804H196.729ZM204.843 130.652C206.517 130.652 207.588 129.176 207.588 126.951C207.588 124.716 206.527 123.23 204.864 123.23C203.201 123.23 202.13 124.716 202.13 126.951C202.13 129.176 203.191 130.652 204.843 130.652ZM204.864 129.914C203.669 129.914 202.931 128.75 202.931 126.92C202.931 125.132 203.658 123.968 204.833 123.968C206.039 123.968 206.787 125.153 206.787 126.962C206.787 128.75 206.049 129.914 204.864 129.914ZM209.104 127.481H212.743V126.878H209.104V127.481Z" fill="#AC72F0"/>
<path d="M216.974 130.631C218.71 130.631 219.875 129.082 219.875 126.91C219.875 124.737 218.721 123.178 216.995 123.178C215.259 123.178 214.105 124.737 214.105 126.93C214.105 129.093 215.249 130.631 216.974 130.631ZM217.006 129.643C215.925 129.643 215.259 128.521 215.259 126.858C215.259 125.246 215.893 124.176 216.964 124.176C218.045 124.176 218.731 125.33 218.731 126.951C218.731 128.531 218.066 129.643 217.006 129.643ZM223.532 130.631C225.268 130.631 226.432 129.082 226.432 126.91C226.432 124.737 225.278 123.178 223.553 123.178C221.817 123.178 220.663 124.737 220.663 126.93C220.663 129.093 221.807 130.631 223.532 130.631ZM223.563 129.643C222.482 129.643 221.817 128.521 221.817 126.858C221.817 125.246 222.451 124.176 223.522 124.176C224.603 124.176 225.289 125.33 225.289 126.951C225.289 128.531 224.624 129.643 223.563 129.643ZM227.179 130.548H232.158V129.488H228.77L229.851 128.531C231.057 127.461 232.106 126.712 232.106 125.423C232.106 124.134 231.077 123.178 229.684 123.178C228.198 123.178 227.158 124.134 227.096 125.558H228.291C228.385 124.758 228.926 124.238 229.674 124.238C230.443 124.238 230.953 124.727 230.953 125.475C230.953 126.328 230.152 126.878 228.832 128.012L227.179 129.436V130.548Z" fill="white"/>
</g>
<path d="M308.4 80.3955L310.11 84.1045L314.166 84.5854L311.168 87.3586L311.964 91.3648L308.4 89.3697L304.835 91.3648L305.631 87.3586L302.633 84.5854L306.689 84.1045L308.4 80.3955Z" fill="white"/>
<path d="M308.4 97.0254L310.11 100.734L314.166 101.215L311.168 103.988L311.964 107.995L308.4 106L304.835 107.995L305.631 103.988L302.633 101.215L306.689 100.734L308.4 97.0254Z" fill="black"/>
<path d="M308.4 113.654L310.11 117.363L314.166 117.844L311.168 120.617L311.964 124.624L308.4 122.629L304.835 124.624L305.631 120.617L302.633 117.844L306.689 117.363L308.4 113.654Z" fill="black"/>
<path opacity="0.95" d="M180.765 92.4268C183.165 92.4268 184.932 91.0573 185.566 89.3343L184.446 89.0398C183.931 90.3357 182.591 91.3223 180.75 91.3223C178.247 91.3223 176.597 89.3638 176.597 87.0371C176.597 84.7692 178.247 82.8401 180.75 82.8401C182.591 82.8401 183.946 83.8415 184.446 85.1227L185.595 84.8429C184.976 83.1199 183.18 81.7357 180.75 81.7357C177.717 81.7357 175.419 84.0477 175.419 87.0518C175.419 90.1001 177.717 92.4268 180.765 92.4268ZM195.025 83.0021V81.9271H187.765V92.2354H195.011V91.1604H188.929V87.5083H194.274V86.4775H188.929V83.0021H195.025ZM204.259 92.2354H205.614L202.846 88.1268C204.524 87.8175 205.423 86.448 205.423 85.0638C205.423 83.5617 204.274 81.9271 202.153 81.9271H197.382V92.2354H198.546V88.1857H201.564L204.259 92.2354ZM198.546 82.9874H202.124C203.464 82.9874 204.289 83.9888 204.289 85.0638C204.289 86.1535 203.479 87.1401 202.109 87.1401H198.546V82.9874ZM215.683 81.9271H206.892V83.0021H210.706V92.2354H211.884V83.0021H215.683V81.9271ZM217.45 92.2354H218.628V81.9271H217.45V92.2354ZM228.428 83.0021V81.9271H221.286V92.2354H222.464V87.6556H227.677V86.61H222.464V83.0021H228.428ZM230.255 92.2354H231.433V81.9271H230.255V92.2354ZM241.351 83.0021V81.9271H234.091V92.2354H241.336V91.1604H235.254V87.5083H240.6V86.4775H235.254V83.0021H241.351ZM247.625 81.9271H243.708V92.2354H247.625C250.82 92.2354 252.691 90.0412 252.691 87.0812C252.691 84.1213 250.82 81.9271 247.625 81.9271ZM247.61 91.1604H244.871V82.9874H247.61C250.128 82.9874 251.513 84.784 251.513 87.0518C251.513 89.3932 250.128 91.1604 247.61 91.1604ZM183.283 112.235H185.389L181.428 101.927H178.806L174.86 112.235H176.951L177.805 109.997H182.444L183.283 112.235ZM178.468 108.215L180.117 103.856L181.766 108.215H178.468ZM190.651 112.442C193.125 112.442 194.774 111.013 194.774 109.246C194.774 107.567 193.581 106.905 192.005 106.419L189.443 105.594C188.766 105.388 188.456 105.078 188.456 104.622C188.456 104.018 189.104 103.503 190.12 103.503C191.284 103.503 192.241 104.077 192.668 104.917L194.538 104.372C193.979 102.943 192.329 101.721 190.106 101.721C187.956 101.721 186.395 103.076 186.41 104.681C186.395 106.006 187.381 106.875 188.736 107.302L191.372 108.127C192.359 108.451 192.727 108.819 192.727 109.364C192.727 110.041 191.976 110.66 190.768 110.66C189.281 110.66 188.236 109.806 187.823 108.731L185.894 109.32C186.468 110.925 188.132 112.442 190.651 112.442ZM200.742 112.442C203.216 112.442 204.865 111.013 204.865 109.246C204.865 107.567 203.672 106.905 202.097 106.419L199.534 105.594C198.857 105.388 198.548 105.078 198.548 104.622C198.548 104.018 199.196 103.503 200.212 103.503C201.375 103.503 202.332 104.077 202.759 104.917L204.63 104.372C204.07 102.943 202.421 101.721 200.197 101.721C198.047 101.721 196.486 103.076 196.501 104.681C196.486 106.006 197.473 106.875 198.828 107.302L201.464 108.127C202.45 108.451 202.818 108.819 202.818 109.364C202.818 110.041 202.067 110.66 200.86 110.66C199.372 110.66 198.327 109.806 197.915 108.731L195.985 109.32C196.56 110.925 198.224 112.442 200.742 112.442ZM211.599 112.442C214.707 112.442 217.004 110.115 217.004 107.067C217.004 104.033 214.707 101.721 211.599 101.721C208.478 101.721 206.18 104.033 206.18 107.067C206.18 110.115 208.478 112.442 211.599 112.442ZM211.599 110.571C209.553 110.571 208.227 109.04 208.227 107.067C208.227 105.137 209.553 103.591 211.599 103.591C213.632 103.591 214.972 105.137 214.972 107.067C214.972 109.04 213.632 110.571 211.599 110.571ZM223.92 112.442C226.644 112.442 228.382 110.777 228.853 109.128L226.894 108.627C226.556 109.644 225.451 110.542 223.89 110.542C221.858 110.542 220.562 108.907 220.562 107.052C220.562 105.196 221.858 103.621 223.89 103.621C225.451 103.621 226.556 104.548 226.894 105.55L228.868 105.064C228.397 103.429 226.659 101.721 223.876 101.721C220.813 101.721 218.501 104.033 218.501 107.067C218.501 110.115 220.813 112.442 223.92 112.442ZM230.716 112.235H232.763V101.927H230.716V112.235ZM242.638 112.235H244.743L240.782 101.927H238.161L234.214 112.235H236.305L237.159 109.997H241.798L242.638 112.235ZM237.822 108.215L239.471 103.856L241.121 108.215H237.822ZM253.133 101.927H244.194V103.753H247.655V112.235H249.672V103.753H253.133V101.927ZM262.347 103.753V101.927H254.749V112.235H262.333V110.409H256.722V107.876H261.596V106.109H256.722V103.753H262.347Z" fill="white"/>
<path fill-rule="evenodd" clip-rule="evenodd" d="M325.285 60V25.9936C325.285 21.9574 325.285 19.9393 324.625 18.3474C323.746 16.2249 322.06 14.5386 319.937 13.6594C318.345 13 316.327 13 312.291 13H166.763C162.727 13 160.709 13 159.117 13.6594C156.994 14.5386 155.308 16.2249 154.429 18.3474C153.77 19.9393 153.77 21.9574 153.77 25.9936V60H325.285Z" fill="#7B42BC"/>
<g clip-path="url(#clip0_685_40288)">
<path d="M209.692 35.0552H205.706V32.6738H216.379V35.0552H212.393V46.962H209.692V35.0552Z" fill="white"/>
<path d="M219.2 45.0234C220.281 45.0183 221.356 44.8523 222.389 44.5308L222.797 46.5011C221.563 46.9466 220.26 47.1721 218.948 47.1674C215.67 47.1674 214.533 45.6436 214.533 43.1346V40.3705C214.533 38.1628 215.518 36.2988 218.863 36.2988C222.208 36.2988 222.96 38.2479 222.96 40.4981V42.7306H217.176V43.2657C217.176 44.5308 217.612 45.0234 219.2 45.0234ZM217.176 40.6292H220.5V40.1118C220.5 39.1267 220.199 38.4428 218.913 38.4428C217.626 38.4428 217.176 39.1267 217.176 40.1118V40.6292Z" fill="white"/>
<path d="M229.962 38.6979C229.001 39.1324 228.075 39.6419 227.194 40.2217V46.9618H224.579V36.5114H226.787L226.96 37.6702C227.81 37.0935 228.732 36.6323 229.703 36.2988L229.962 38.6979Z" fill="white"/>
<path d="M236.348 38.6979C235.388 39.1332 234.464 39.6426 233.584 40.2217V46.9618H230.968V36.5114H233.176L233.346 37.6702C234.197 37.0935 235.12 36.6323 236.092 36.2988L236.348 38.6979Z" fill="white"/>
<path d="M245.094 46.9618H242.95L242.758 46.2531C241.833 46.8533 240.753 47.1732 239.65 47.1744C237.74 47.1744 236.925 45.8668 236.925 44.0666C236.925 41.9404 237.85 41.1289 239.969 41.1289H242.478V40.0268C242.478 38.8716 242.159 38.464 240.487 38.464C239.513 38.4742 238.544 38.581 237.592 38.783L237.269 36.7914C238.435 36.4685 239.639 36.3029 240.848 36.2988C244.13 36.2988 245.101 37.4541 245.101 40.0693L245.094 46.9618ZM242.478 43.0071H240.565C239.707 43.0071 239.47 43.2445 239.47 44.0383C239.47 44.747 239.707 45.1014 240.533 45.1014C241.224 45.0903 241.901 44.9064 242.503 44.5663L242.478 43.0071Z" fill="white"/>
<path d="M253.134 34.1336C252.64 34.0252 252.137 33.967 251.632 33.9599C250.604 33.9599 250.455 34.41 250.455 35.2038V36.5114H253.113L252.968 38.5915H250.462V46.9617H247.847V38.5915H246.174V36.5114H247.847V35.0549C247.847 32.8897 248.853 31.816 251.167 31.816C251.928 31.8132 252.685 31.9145 253.418 32.1172L253.134 34.1336Z" fill="white"/>
<path d="M258.233 47.1674C254.654 47.1674 253.676 45.19 253.676 43.0638V40.4131C253.676 38.2868 254.64 36.2988 258.219 36.2988C261.798 36.2988 262.766 38.2691 262.766 40.4131V43.0638C262.78 45.19 261.827 47.1674 258.233 47.1674ZM258.233 38.5278C256.841 38.5278 256.306 39.148 256.306 40.328V43.1346C256.306 44.3147 256.841 44.9384 258.233 44.9384C259.626 44.9384 260.165 44.3147 260.165 43.1346V40.328C260.165 39.1657 259.63 38.5278 258.233 38.5278Z" fill="white"/>
<path d="M269.51 38.6979C268.55 39.1332 267.626 39.6426 266.746 40.2217V46.9618H264.13V36.5114H266.338L266.508 37.6702C267.364 37.0931 268.292 36.6319 269.269 36.2988L269.51 38.6979Z" fill="white"/>
<path d="M276.71 46.9618V39.6618C276.71 39.1054 276.473 38.8255 275.874 38.8255C275.275 38.8255 274.102 39.2117 273.152 39.7079V46.9618H270.534V36.5114H272.529L272.787 37.3903C274.089 36.7405 275.512 36.3688 276.966 36.2988C277.975 36.2988 278.596 36.7064 278.939 37.4116C280.245 36.7452 281.678 36.3658 283.142 36.2988C284.879 36.2988 285.499 37.5179 285.499 39.3854V46.9618H282.883V39.6618C282.883 39.1054 282.646 38.8255 282.047 38.8255C281.088 38.9257 280.161 39.2263 279.326 39.7079V46.9618H276.71Z" fill="white"/>
<path fill-rule="evenodd" clip-rule="evenodd" d="M182.313 30.126L189.082 34.0347V41.8521L182.313 37.9434V30.126Z" fill="white"/>
<path fill-rule="evenodd" clip-rule="evenodd" d="M189.823 34.0347V41.8521L196.595 37.9434V30.126L189.823 34.0347Z" fill="white"/>
<path fill-rule="evenodd" clip-rule="evenodd" d="M174.801 25.7637V33.5811L181.569 37.4898V29.6724L174.801 25.7637Z" fill="white"/>
<path fill-rule="evenodd" clip-rule="evenodd" d="M182.313 46.6182L189.082 50.5269V42.7591V42.7095L182.313 38.8008V46.6182Z" fill="white"/>
</g>
<g opacity="0.95">
<path d="M237.989 180.606L228.08 186.321V186.326V200.052L231.802 202.201V188.47L237.989 184.9V180.606Z" fill="white"/>
<path d="M241.944 180.606V191.54H237.988V187.46L234.264 189.609V203.619L237.988 205.772V194.869H241.944V198.922L245.666 196.773V182.755L241.944 180.606Z" fill="white"/>
<path d="M241.944 205.776L251.853 200.061V200.056V186.33L248.129 184.181V197.912L241.944 201.482V205.776Z" fill="white"/>
</g>
<path d="M86.5 306.987L167 258L167 527.113L86.5 576.1L86.5 306.987Z" fill="url(#paint4_linear_685_40288)" fill-opacity="0.6"/>
<path d="M86.5 306.987L5.99983 258L5.99982 545.013L86.5 594L86.5 306.987Z" fill="url(#paint5_linear_685_40288)" fill-opacity="0.6"/>
<g clip-path="url(#clip1_685_40288)" filter="url(#filter0_d_685_40288)">
<path d="M164.381 119.894V251.013C164.381 253.903 164.358 254.821 164.146 255.613L166.891 256.349L164.146 255.613C163.832 256.784 163.216 257.851 162.359 258.708C161.779 259.288 160.995 259.767 158.492 261.211L92.7125 299.184C90.2106 300.629 89.4037 301.068 88.6118 301.28C87.4415 301.594 86.2093 301.594 85.039 301.28C84.2471 301.068 83.4402 300.629 80.9383 299.184L15.1584 261.211C12.656 259.767 11.8719 259.288 11.2921 258.708C10.4352 257.851 9.81896 256.784 9.50531 255.613L6.75983 256.349L9.50531 255.613C9.29307 254.821 9.27008 253.903 9.27008 251.013V119.894C9.27008 117.964 9.27162 116.658 9.34076 115.644C9.40815 114.657 9.53017 114.156 9.67189 113.814C10.2076 112.52 11.2353 111.493 12.5287 110.957C12.8708 110.815 13.3714 110.693 14.3592 110.626C15.3726 110.557 16.6784 110.555 18.6092 110.555H155.042C156.972 110.555 158.278 110.557 159.292 110.626C160.279 110.693 160.78 110.815 161.122 110.957C162.416 111.493 163.443 112.52 163.979 113.814C164.121 114.156 164.243 114.657 164.31 115.644C164.379 116.658 164.381 117.964 164.381 119.894Z" fill="black" stroke="black" stroke-width="5.68468"/>
<g opacity="0.94">
<path d="M21.465 217.747H22.2544V214.609H25.8114V217.747H26.6007V210.925H25.8114V213.927H22.2544V210.925H21.465V217.747ZM31.0462 217.806C32.6249 217.806 33.7066 216.792 33.9308 215.486H33.1122C32.927 216.324 32.1377 217.045 31.0559 217.045C29.7209 217.045 28.7951 215.944 28.7951 214.385C28.7951 212.767 29.7306 211.608 31.0949 211.608C32.1474 211.608 32.9173 212.319 33.1122 213.167H33.9308C33.7261 211.861 32.6444 210.867 31.1047 210.867C29.2726 210.867 27.957 212.3 27.957 214.375C27.957 216.392 29.2823 217.806 31.0462 217.806ZM37.0971 217.747H37.9839L40.4787 210.925H39.6991L37.5551 216.87L35.3722 210.925H34.6024L37.0971 217.747ZM41.2865 217.747L41.9686 215.905H44.9019L45.6036 217.747H46.4612L43.8397 210.925H43.0309L40.4289 217.737L41.2865 217.747ZM42.2123 215.174L43.4402 211.812L44.6681 215.174H42.2123ZM49.8195 217.845C51.3885 217.845 52.3922 216.461 52.3922 214.375C52.3922 212.28 51.3982 210.886 49.839 210.886C48.2798 210.886 47.276 212.28 47.276 214.375C47.276 216.461 48.27 217.845 49.8195 217.845ZM49.839 217.153C48.7183 217.153 48.0264 216.061 48.0264 214.346C48.0264 212.67 48.7086 211.578 49.8098 211.578C50.9402 211.578 51.6419 212.689 51.6419 214.385C51.6419 216.061 50.95 217.153 49.839 217.153ZM53.8141 214.872H57.2249V214.307H53.8141V214.872Z" fill="#FFE959"/>
<path d="M61.1923 217.825C62.8197 217.825 63.9112 216.373 63.9112 214.336C63.9112 212.3 62.8295 210.838 61.2118 210.838C59.5843 210.838 58.5026 212.3 58.5026 214.356C58.5026 216.383 59.5746 217.825 61.1923 217.825ZM61.2215 216.899C60.208 216.899 59.5843 215.847 59.5843 214.288C59.5843 212.777 60.1788 211.773 61.1825 211.773C62.196 211.773 62.8392 212.855 62.8392 214.375C62.8392 215.857 62.2155 216.899 61.2215 216.899ZM67.3401 217.825C68.9676 217.825 70.059 216.373 70.059 214.336C70.059 212.3 68.9773 210.838 67.3596 210.838C65.7322 210.838 64.6505 212.3 64.6505 214.356C64.6505 216.383 65.7224 217.825 67.3401 217.825ZM67.3694 216.899C66.3559 216.899 65.7322 215.847 65.7322 214.288C65.7322 212.777 66.3266 211.773 67.3304 211.773C68.3439 211.773 68.9871 212.855 68.9871 214.375C68.9871 215.857 68.3634 216.899 67.3694 216.899ZM70.7593 217.747H75.4273V216.753H72.2503L73.2638 215.857C74.3943 214.853 75.3785 214.151 75.3785 212.943C75.3785 211.734 74.4138 210.838 73.1079 210.838C71.7143 210.838 70.7398 211.734 70.6814 213.069H71.802C71.8898 212.319 72.3965 211.832 73.0982 211.832C73.8193 211.832 74.2968 212.29 74.2968 212.991C74.2968 213.791 73.5464 214.307 72.3088 215.369L70.7593 216.704V217.747Z" fill="white"/>
</g>
<path d="M150.553 171.042L152.157 174.519L155.959 174.97L153.148 177.57L153.894 181.326L150.553 179.455L147.211 181.326L147.958 177.57L145.146 174.97L148.949 174.519L150.553 171.042Z" fill="white"/>
<path d="M150.554 186.632L152.158 190.109L155.96 190.56L153.149 193.16L153.895 196.916L150.554 195.045L147.212 196.916L147.959 193.16L145.147 190.56L148.95 190.109L150.554 186.632Z" fill="black"/>
<path d="M150.554 202.223L152.158 205.7L155.96 206.151L153.149 208.751L153.895 212.506L150.554 210.636L147.212 212.506L147.959 208.751L145.147 206.151L148.95 205.7L150.554 202.223Z" fill="black"/>
<path opacity="0.95" d="M26.2095 182.321C28.4598 182.321 30.1165 181.037 30.7101 179.422L29.6609 179.146C29.1777 180.361 27.9214 181.286 26.1957 181.286C23.8487 181.286 22.3025 179.449 22.3025 177.268C22.3025 175.142 23.8487 173.334 26.1957 173.334C27.9214 173.334 29.1915 174.272 29.6609 175.473L30.7377 175.211C30.1579 173.596 28.4736 172.298 26.1957 172.298C23.3517 172.298 21.198 174.466 21.198 177.282C21.198 180.14 23.3517 182.321 26.2095 182.321ZM39.5787 173.485V172.478H32.7725V182.142H39.5649V181.134H33.8632V177.71H38.8746V176.744H33.8632V173.485H39.5787ZM48.2355 182.142H49.5057L46.9102 178.29C48.484 178 49.3262 176.716 49.3262 175.418C49.3262 174.01 48.2493 172.478 46.2613 172.478H41.7883V182.142H42.8789V178.345H45.7091L48.2355 182.142ZM42.8789 173.472H46.2337C47.49 173.472 48.2631 174.41 48.2631 175.418C48.2631 176.44 47.5038 177.365 46.2199 177.365H42.8789V173.472ZM58.9457 172.478H50.7037V173.485H54.2794V182.142H55.3838V173.485H58.9457V172.478ZM60.6017 182.142H61.7062V172.478H60.6017V182.142ZM70.8934 173.485V172.478H64.1977V182.142H65.3021V177.848H70.1893V176.868H65.3021V173.485H70.8934ZM72.6067 182.142H73.7112V172.478H72.6067V182.142ZM83.0089 173.485V172.478H76.2027V182.142H82.9951V181.134H77.2933V177.71H82.3048V176.744H77.2933V173.485H83.0089ZM88.8907 172.478H85.2184V182.142H88.8907C91.8866 182.142 93.6399 180.085 93.6399 177.31C93.6399 174.535 91.8866 172.478 88.8907 172.478ZM88.8769 181.134H86.3091V173.472H88.8769C91.2377 173.472 92.5354 175.156 92.5354 177.282C92.5354 179.477 91.2377 181.134 88.8769 181.134ZM28.5702 200.142H30.5444L26.8307 190.478H24.3733L20.6734 200.142H22.6338L23.4345 198.043H27.7833L28.5702 200.142ZM24.0558 196.373L25.602 192.286L27.1482 196.373H24.0558ZM35.4774 200.335C37.7967 200.335 39.343 198.996 39.343 197.339C39.343 195.765 38.2247 195.144 36.7475 194.688L34.3453 193.915C33.7102 193.722 33.4203 193.432 33.4203 193.004C33.4203 192.438 34.0278 191.955 34.9804 191.955C36.071 191.955 36.9684 192.493 37.3687 193.28L39.1221 192.769C38.5975 191.43 37.0512 190.284 34.9666 190.284C32.9509 190.284 31.4875 191.554 31.5013 193.059C31.4875 194.302 32.4125 195.116 33.6826 195.517L36.1538 196.29C37.0788 196.594 37.424 196.939 37.424 197.449C37.424 198.085 36.7199 198.664 35.5878 198.664C34.1934 198.664 33.2132 197.864 32.8267 196.856L31.0181 197.408C31.5566 198.913 33.1166 200.335 35.4774 200.335ZM44.938 200.335C47.2574 200.335 48.8036 198.996 48.8036 197.339C48.8036 195.765 47.6854 195.144 46.2081 194.688L43.806 193.915C43.1709 193.722 42.881 193.432 42.881 193.004C42.881 192.438 43.4884 191.955 44.441 191.955C45.5317 191.955 46.429 192.493 46.8294 193.28L48.5827 192.769C48.0581 191.43 46.5119 190.284 44.4272 190.284C42.4116 190.284 40.9482 191.554 40.962 193.059C40.9482 194.302 41.8732 195.116 43.1433 195.517L45.6145 196.29C46.5395 196.594 46.8846 196.939 46.8846 197.449C46.8846 198.085 46.1805 198.664 45.0485 198.664C43.6541 198.664 42.6739 197.864 42.2873 196.856L40.4788 197.408C41.0172 198.913 42.5773 200.335 44.938 200.335ZM55.1169 200.335C58.0299 200.335 60.1836 198.154 60.1836 195.296C60.1836 192.452 58.0299 190.284 55.1169 190.284C52.1901 190.284 50.0364 192.452 50.0364 195.296C50.0364 198.154 52.1901 200.335 55.1169 200.335ZM55.1169 198.582C53.1979 198.582 51.9554 197.146 51.9554 195.296C51.9554 193.487 53.1979 192.038 55.1169 192.038C57.0221 192.038 58.2784 193.487 58.2784 195.296C58.2784 197.146 57.0221 198.582 55.1169 198.582ZM66.6673 200.335C69.2213 200.335 70.8504 198.775 71.2922 197.229L69.456 196.759C69.1385 197.712 68.1031 198.554 66.6397 198.554C64.7345 198.554 63.5196 197.022 63.5196 195.282C63.5196 193.542 64.7345 192.065 66.6397 192.065C68.1031 192.065 69.1385 192.935 69.456 193.874L71.306 193.418C70.8642 191.886 69.2351 190.284 66.6259 190.284C63.7543 190.284 61.5868 192.452 61.5868 195.296C61.5868 198.154 63.7543 200.335 66.6673 200.335ZM73.0387 200.142H74.9577V190.478H73.0387V200.142ZM84.2151 200.142H86.1893L82.4756 190.478H80.0182L76.3183 200.142H78.2787L79.0794 198.043H83.4282L84.2151 200.142ZM79.7007 196.373L81.2469 192.286L82.7932 196.373H79.7007ZM94.0547 190.478H85.6747V192.19H88.919V200.142H90.8104V192.19H94.0547V190.478ZM102.693 192.19V190.478H95.5694V200.142H102.679V198.43H97.4194V196.055H101.989V194.398H97.4194V192.19H102.693Z" fill="white"/>
<path fill-rule="evenodd" clip-rule="evenodd" d="M6 152H166.795V120.04C166.795 116.256 166.795 114.364 166.177 112.872C165.353 110.882 163.772 109.301 161.782 108.477C160.29 107.858 158.398 107.858 154.614 107.858H18.1815C14.3976 107.858 12.5056 107.858 11.0132 108.477C9.02335 109.301 7.4424 110.882 6.61817 112.872C6 114.364 6 116.256 6 120.04V152Z" fill="#FFE959"/>
<g clip-path="url(#clip2_685_40288)">
<path d="M60.9069 125.911H63.6843L59.4762 140.036H55.5065L51.2983 125.911H54.0757L57.4913 137.683L60.9069 125.911Z" fill="black"/>
<path d="M71.3923 140.047H69.2882L69.0953 139.346C68.1797 139.94 67.1116 140.257 66.0199 140.257C64.1332 140.257 63.3267 138.963 63.3267 137.182C63.3267 135.078 64.2384 134.275 66.339 134.275H68.8218V133.195C68.8218 132.048 68.5027 131.645 66.8475 131.645C65.8853 131.654 64.9266 131.761 63.9859 131.964L63.6668 129.989C64.8208 129.671 66.0117 129.507 67.2087 129.502C70.4525 129.502 71.4168 130.649 71.4168 133.237L71.3923 140.047ZM68.8078 136.144H66.8966C66.0479 136.144 65.8165 136.379 65.8165 137.164C65.8165 137.883 66.0479 138.216 66.8685 138.216C67.5536 138.205 68.225 138.023 68.8218 137.687L68.8078 136.144Z" fill="black"/>
<path d="M75.4674 129.709V136.919C75.4674 137.47 75.6989 137.747 76.295 137.747C76.8912 137.747 78.0484 137.365 78.9882 136.877V129.709H81.5762V140.047H79.6019L79.3494 139.178C78.0609 139.824 76.6513 140.193 75.2114 140.261C73.4931 140.261 72.8794 139.052 72.8794 137.207V129.72L75.4674 129.709Z" fill="black"/>
<path d="M82.9536 140.047V125.497L85.5416 125.146V140.047H82.9536Z" fill="black"/>
<path d="M93.2605 139.847C92.5306 140.102 91.7646 140.238 90.9916 140.25C89.1049 140.25 88.1476 139.359 88.1476 137.515V131.764H86.6011V129.709H88.1476V127.142L90.7356 126.791V129.719H93.3867L93.2184 131.774H90.7356V137.185C90.7195 137.311 90.7327 137.438 90.7743 137.557C90.8158 137.677 90.8845 137.785 90.9749 137.873C91.0653 137.962 91.175 138.028 91.2953 138.067C91.4157 138.105 91.5434 138.116 91.6684 138.097C92.1074 138.084 92.5426 138.012 92.9624 137.883L93.2605 139.847Z" fill="black"/>
<path d="M20.6172 122.092L31.8003 143.855L43.0606 122.092H20.6172ZM30.0469 130.733H28.2935V128.952H30.0469V130.733ZM30.0469 128.061H28.2935V126.279H30.0469V128.061ZM32.7191 133.405H30.9482V131.631H32.7296L32.7191 133.405ZM32.7191 130.733H30.9482V128.952H32.7296L32.7191 130.733ZM32.7191 128.061H30.9482V126.279H32.7296L32.7191 128.061ZM35.3772 130.733H33.6063V128.952H35.3878L35.3772 130.733ZM33.5958 128.061V126.279H35.3772V128.061H33.5958Z" fill="black"/>
</g>
<g opacity="0.95">
<path d="M84.5435 264.988L75.2539 270.346V270.35V283.219L78.7432 285.233V272.361L84.5435 269.013V264.988Z" fill="white"/>
<path d="M88.252 264.988V275.239H84.5437V271.414L81.0522 273.429V286.562L84.5437 288.581V278.359H88.252V282.159L91.7414 280.144V267.003L88.252 264.988Z" fill="white"/>
<path d="M88.252 288.585L97.5416 283.227V283.223V270.354L94.0501 268.339V281.212L88.252 284.56V288.585Z" fill="white"/>
</g>
</g>
<g clip-path="url(#clip3_685_40288)">
<path d="M449.517 161.896V293.015C449.517 295.905 449.494 296.823 449.282 297.615L452.028 298.351L449.282 297.615C448.969 298.786 448.352 299.853 447.495 300.71C446.916 301.29 446.132 301.769 443.629 303.213L377.849 341.186C375.347 342.631 374.54 343.07 373.749 343.282C372.578 343.596 371.346 343.596 370.176 343.282C369.384 343.07 368.577 342.631 366.075 341.186L300.295 303.213C297.793 301.769 297.009 301.29 296.429 300.71C295.572 299.853 294.956 298.786 294.642 297.615L291.897 298.351L294.642 297.615C294.43 296.823 294.407 295.905 294.407 293.015V161.896C294.407 159.965 294.408 158.66 294.477 157.646C294.545 156.659 294.667 156.158 294.809 155.816C295.344 154.522 296.372 153.495 297.665 152.959C298.008 152.817 298.508 152.695 299.496 152.628C300.509 152.559 301.815 152.557 303.746 152.557H440.178C442.109 152.557 443.415 152.559 444.428 152.628C445.416 152.695 445.917 152.817 446.259 152.959C447.552 153.495 448.58 154.522 449.116 155.816C449.257 156.158 449.379 156.659 449.447 157.646C449.516 158.66 449.517 159.965 449.517 161.896Z" fill="black" stroke="black" stroke-width="5.68468"/>
<g opacity="0.94">
<path d="M311.603 259.749H312.392V256.611H315.949V259.749H316.738V252.927H315.949V255.929H312.392V252.927H311.603V259.749ZM321.184 259.807C322.763 259.807 323.844 258.794 324.068 257.488H323.25C323.065 258.326 322.275 259.047 321.194 259.047C319.859 259.047 318.933 257.946 318.933 256.387C318.933 254.769 319.868 253.61 321.233 253.61C322.285 253.61 323.055 254.321 323.25 255.169H324.068C323.864 253.863 322.782 252.869 321.242 252.869C319.41 252.869 318.095 254.301 318.095 256.377C318.095 258.394 319.42 259.807 321.184 259.807ZM328.122 259.807C329.7 259.807 330.782 258.794 331.006 257.488H330.188C330.002 258.326 329.213 259.047 328.131 259.047C326.796 259.047 325.87 257.946 325.87 256.387C325.87 254.769 326.806 253.61 328.17 253.61C329.223 253.61 329.993 254.321 330.188 255.169H331.006C330.802 253.863 329.72 252.869 328.18 252.869C326.348 252.869 325.032 254.301 325.032 256.377C325.032 258.394 326.358 259.807 328.122 259.807ZM332.442 259.749L333.125 257.907H336.058L336.76 259.749H337.617L334.996 252.927H334.187L331.585 259.739L332.442 259.749ZM333.368 257.176L334.596 253.814L335.824 257.176H333.368ZM340.976 259.846C342.544 259.846 343.548 258.463 343.548 256.377C343.548 254.282 342.554 252.888 340.995 252.888C339.436 252.888 338.432 254.282 338.432 256.377C338.432 258.463 339.426 259.846 340.976 259.846ZM340.995 259.155C339.874 259.155 339.182 258.063 339.182 256.348C339.182 254.672 339.865 253.58 340.966 253.58C342.096 253.58 342.798 254.691 342.798 256.387C342.798 258.063 342.106 259.155 340.995 259.155ZM344.97 256.874H348.381V256.309H344.97V256.874Z" fill="#F85C94"/>
<path d="M352.348 259.827C353.976 259.827 355.067 258.375 355.067 256.338C355.067 254.301 353.985 252.84 352.368 252.84C350.74 252.84 349.659 254.301 349.659 256.358C349.659 258.385 350.731 259.827 352.348 259.827ZM352.378 258.901C351.364 258.901 350.74 257.849 350.74 256.289C350.74 254.779 351.335 253.775 352.339 253.775C353.352 253.775 353.995 254.857 353.995 256.377C353.995 257.858 353.372 258.901 352.378 258.901ZM358.496 259.827C360.124 259.827 361.215 258.375 361.215 256.338C361.215 254.301 360.133 252.84 358.516 252.84C356.888 252.84 355.806 254.301 355.806 256.358C355.806 258.385 356.878 259.827 358.496 259.827ZM358.525 258.901C357.512 258.901 356.888 257.849 356.888 256.289C356.888 254.779 357.483 253.775 358.486 253.775C359.5 253.775 360.143 254.857 360.143 256.377C360.143 257.858 359.519 258.901 358.525 258.901ZM361.915 259.749H366.583V258.755H363.406L364.42 257.858C365.55 256.855 366.535 256.153 366.535 254.945C366.535 253.736 365.57 252.84 364.264 252.84C362.87 252.84 361.896 253.736 361.837 255.071H362.958C363.046 254.321 363.552 253.834 364.254 253.834C364.975 253.834 365.453 254.292 365.453 254.993C365.453 255.792 364.702 256.309 363.465 257.371L361.915 258.706V259.749Z" fill="white"/>
</g>
<path d="M435.691 213.044L437.294 216.521L441.097 216.972L438.286 219.572L439.032 223.328L435.691 221.457L432.349 223.328L433.095 219.572L430.284 216.972L434.087 216.521L435.691 213.044Z" fill="white"/>
<path d="M435.691 228.635L437.294 232.112L441.097 232.563L438.286 235.163L439.032 238.918L435.691 237.048L432.349 238.918L433.095 235.163L430.284 232.563L434.087 232.112L435.691 228.635Z" fill="black"/>
<path d="M435.69 244.225L437.293 247.702L441.096 248.153L438.285 250.752L439.031 254.508L435.69 252.638L432.348 254.508L433.094 250.752L430.283 248.153L434.086 247.702L435.69 244.225Z" fill="black"/>
<path opacity="0.95" d="M316.345 224.323C318.596 224.323 320.252 223.039 320.846 221.424L319.797 221.148C319.313 222.363 318.057 223.288 316.331 223.288C313.984 223.288 312.438 221.451 312.438 219.27C312.438 217.144 313.984 215.336 316.331 215.336C318.057 215.336 319.327 216.274 319.797 217.475L320.873 217.213C320.294 215.598 318.609 214.3 316.331 214.3C313.487 214.3 311.334 216.468 311.334 219.284C311.334 222.142 313.487 224.323 316.345 224.323ZM329.714 215.487V214.48H322.908V224.144H329.701V223.136H323.999V219.712H329.01V218.746H323.999V215.487H329.714ZM338.371 224.144H339.641L337.046 220.292C338.62 220.002 339.462 218.718 339.462 217.42C339.462 216.012 338.385 214.48 336.397 214.48H331.924V224.144H333.015V220.347H335.845L338.371 224.144ZM333.015 215.474H336.369C337.626 215.474 338.399 216.412 338.399 217.42C338.399 218.442 337.64 219.367 336.356 219.367H333.015V215.474ZM349.081 214.48H340.839V215.487H344.415V224.144H345.52V215.487H349.081V214.48ZM350.737 224.144H351.842V214.48H350.737V224.144ZM361.029 215.487V214.48H354.333V224.144H355.438V219.85H360.325V218.87H355.438V215.487H361.029ZM362.742 224.144H363.847V214.48H362.742V224.144ZM373.145 215.487V214.48H366.338V224.144H373.131V223.136H367.429V219.712H372.441V218.746H367.429V215.487H373.145ZM379.026 214.48H375.354V224.144H379.026C382.022 224.144 383.776 222.087 383.776 219.312C383.776 216.537 382.022 214.48 379.026 214.48ZM379.013 223.136H376.445V215.474H379.013C381.373 215.474 382.671 217.158 382.671 219.284C382.671 221.479 381.373 223.136 379.013 223.136ZM318.706 242.144H320.68L316.966 232.48H314.509L310.809 242.144H312.77L313.57 240.045H317.919L318.706 242.144ZM314.192 238.375L315.738 234.288L317.284 238.375H314.192ZM325.613 242.337C327.932 242.337 329.479 240.998 329.479 239.341C329.479 237.767 328.36 237.146 326.883 236.69L324.481 235.917C323.846 235.724 323.556 235.434 323.556 235.006C323.556 234.44 324.164 233.957 325.116 233.957C326.207 233.957 327.104 234.495 327.504 235.282L329.258 234.771C328.733 233.432 327.187 232.286 325.102 232.286C323.087 232.286 321.623 233.556 321.637 235.061C321.623 236.304 322.548 237.118 323.818 237.519L326.29 238.292C327.215 238.595 327.56 238.941 327.56 239.451C327.56 240.087 326.856 240.666 325.724 240.666C324.329 240.666 323.349 239.866 322.962 238.858L321.154 239.41C321.692 240.915 323.252 242.337 325.613 242.337ZM335.074 242.337C337.393 242.337 338.939 240.998 338.939 239.341C338.939 237.767 337.821 237.146 336.344 236.69L333.942 235.917C333.307 235.724 333.017 235.434 333.017 235.006C333.017 234.44 333.624 233.957 334.577 233.957C335.667 233.957 336.565 234.495 336.965 235.282L338.718 234.771C338.194 233.432 336.648 232.286 334.563 232.286C332.547 232.286 331.084 233.556 331.098 235.061C331.084 236.304 332.009 237.118 333.279 237.519L335.75 238.292C336.675 238.595 337.02 238.941 337.02 239.451C337.02 240.087 336.316 240.666 335.184 240.666C333.79 240.666 332.81 239.866 332.423 238.858L330.615 239.41C331.153 240.915 332.713 242.337 335.074 242.337ZM345.253 242.337C348.166 242.337 350.319 240.156 350.319 237.298C350.319 234.454 348.166 232.286 345.253 232.286C342.326 232.286 340.172 234.454 340.172 237.298C340.172 240.156 342.326 242.337 345.253 242.337ZM345.253 240.584C343.334 240.584 342.091 239.148 342.091 237.298C342.091 235.489 343.334 234.04 345.253 234.04C347.158 234.04 348.414 235.489 348.414 237.298C348.414 239.148 347.158 240.584 345.253 240.584ZM356.803 242.337C359.357 242.337 360.986 240.777 361.428 239.231L359.592 238.761C359.274 239.714 358.239 240.556 356.775 240.556C354.87 240.556 353.655 239.023 353.655 237.284C353.655 235.544 354.87 234.067 356.775 234.067C358.239 234.067 359.274 234.937 359.592 235.876L361.442 235.42C361 233.888 359.371 232.286 356.762 232.286C353.89 232.286 351.723 234.454 351.723 237.298C351.723 240.156 353.89 242.337 356.803 242.337ZM363.174 242.144H365.093V232.48H363.174V242.144ZM374.351 242.144H376.325L372.611 232.48H370.154L366.454 242.144H368.414L369.215 240.045H373.564L374.351 242.144ZM369.836 238.375L371.383 234.288L372.929 238.375H369.836ZM384.19 232.48H375.81V234.191H379.055V242.144H380.946V234.191H384.19V232.48ZM392.829 234.191V232.48H385.705V242.144H392.815V240.432H387.555V238.057H392.125V236.4H387.555V234.191H392.829Z" fill="white"/>
<path fill-rule="evenodd" clip-rule="evenodd" d="M451.932 162.043V195.026H291.137V162.043C291.137 158.259 291.137 156.367 291.755 154.875C292.579 152.885 294.16 151.304 296.15 150.48C297.642 149.861 299.534 149.861 303.318 149.861H439.751C443.535 149.861 445.426 149.861 446.919 150.48C448.909 151.304 450.49 152.885 451.314 154.875C451.932 156.367 451.932 158.259 451.932 162.043ZM368.809 349.587C368.865 349.604 368.921 349.62 368.976 349.635C370.651 350.09 372.417 350.09 374.092 349.635C374.148 349.62 374.204 349.604 374.26 349.587H368.809Z" fill="#E03875"/>
<g clip-path="url(#clip4_685_40288)">
<path d="M340.62 171.472C340.62 168.952 342.088 167.484 345.516 167.484C346.782 167.483 348.043 167.636 349.272 167.938L348.982 170.192C347.871 169.984 346.745 169.869 345.615 169.85C343.816 169.85 343.225 170.468 343.225 171.936V177.215C343.225 178.68 343.802 179.301 345.615 179.301C346.745 179.282 347.871 179.168 348.982 178.96L349.272 181.214C348.043 181.516 346.782 181.668 345.516 181.668C342.102 181.668 340.62 180.199 340.62 177.68V171.472Z" fill="white"/>
<path d="M354.834 181.657C351.382 181.657 350.457 179.752 350.457 177.703V175.149C350.457 173.101 351.386 171.182 354.838 171.182C358.29 171.182 359.215 173.084 359.215 175.149V177.703C359.212 179.752 358.283 181.657 354.834 181.657ZM354.834 173.329C353.489 173.329 352.974 173.93 352.974 175.067V177.772C352.974 178.909 353.489 179.506 354.834 179.506C356.18 179.506 356.692 178.909 356.692 177.772V175.067C356.692 173.947 356.176 173.329 354.834 173.329Z" fill="white"/>
<path d="M366.877 181.459V174.425C366.877 173.889 366.648 173.62 366.071 173.62C365.494 173.62 364.364 173.992 363.446 174.466V181.459H360.926V171.39H362.848L363.091 172.24C364.345 171.611 365.718 171.252 367.12 171.185C368.793 171.185 369.394 172.363 369.394 174.159V181.459H366.877Z" fill="white"/>
<path d="M374.58 181.657C373.402 181.638 372.232 181.442 371.111 181.077L371.453 179.158C372.427 179.436 373.434 179.582 374.447 179.592C375.564 179.592 375.728 179.342 375.728 178.567C375.728 177.949 375.605 177.639 373.973 177.246C371.514 176.648 371.224 176.027 371.224 174.084C371.224 172.059 372.112 171.171 374.98 171.171C375.995 171.169 377.007 171.283 377.995 171.513L377.773 173.538C376.859 173.369 375.933 173.272 375.004 173.247C373.908 173.247 373.723 173.497 373.723 174.115C373.723 174.921 373.785 174.982 375.151 175.334C377.957 176.078 378.224 176.45 378.224 178.516C378.217 180.459 377.619 181.657 374.58 181.657Z" fill="white"/>
<path d="M382.389 171.39V178.413C382.389 178.949 382.614 179.219 383.195 179.219C383.775 179.219 384.902 178.847 385.817 178.372V171.39H388.337V181.459H386.418L386.169 180.612C384.914 181.241 383.542 181.601 382.14 181.667C380.467 181.667 379.869 180.489 379.869 178.69V171.39H382.389Z" fill="white"/>
<path d="M390.505 181.459V167.279L393.025 166.938V181.459H390.505Z" fill="white"/>
<path d="M321.604 185.417C319.84 185.418 318.101 184.988 316.54 184.165C314.979 183.342 313.642 182.15 312.646 180.693C311.65 179.236 311.025 177.558 310.824 175.805C310.624 174.052 310.854 172.276 311.495 170.632C312.137 168.988 313.169 167.525 314.504 166.37C315.839 165.216 317.436 164.405 319.155 164.007C320.874 163.609 322.665 163.637 324.371 164.088C326.077 164.54 327.648 165.401 328.946 166.596L326.381 169.287C325.358 168.364 324.089 167.758 322.728 167.542C321.367 167.325 319.972 167.508 318.713 168.068C317.454 168.628 316.384 169.542 315.634 170.697C314.883 171.853 314.483 173.201 314.483 174.579C314.483 175.957 314.883 177.306 315.634 178.461C316.384 179.617 317.454 180.53 318.713 181.09C319.972 181.65 321.367 181.833 322.728 181.617C324.089 181.401 325.358 180.795 326.381 179.872L328.946 182.552C326.946 184.397 324.325 185.42 321.604 185.417Z" fill="white"/>
<path d="M330.332 179.991C330.156 179.991 329.984 179.939 329.838 179.842C329.692 179.744 329.579 179.606 329.511 179.443C329.444 179.281 329.427 179.103 329.461 178.93C329.495 178.758 329.58 178.6 329.704 178.476C329.828 178.352 329.986 178.267 330.158 178.233C330.331 178.199 330.509 178.216 330.671 178.283C330.834 178.351 330.972 178.464 331.07 178.61C331.167 178.756 331.219 178.928 331.219 179.104C331.219 179.339 331.126 179.565 330.959 179.731C330.793 179.898 330.567 179.991 330.332 179.991Z" fill="white"/>
<path d="M321.536 176.922C321.072 176.922 320.617 176.784 320.231 176.526C319.845 176.267 319.544 175.901 319.366 175.471C319.188 175.042 319.142 174.57 319.232 174.114C319.323 173.658 319.547 173.24 319.875 172.911C320.204 172.583 320.622 172.359 321.078 172.268C321.534 172.178 322.006 172.224 322.435 172.402C322.864 172.58 323.231 172.881 323.489 173.267C323.748 173.654 323.885 174.108 323.885 174.572C323.885 175.195 323.638 175.793 323.197 176.233C322.757 176.674 322.159 176.922 321.536 176.922Z" fill="white"/>
<path d="M331.353 176.956C331.177 176.956 331.005 176.904 330.859 176.806C330.713 176.709 330.6 176.57 330.532 176.408C330.465 176.245 330.448 176.067 330.482 175.895C330.516 175.723 330.601 175.564 330.725 175.44C330.849 175.316 331.007 175.231 331.179 175.197C331.352 175.163 331.53 175.181 331.692 175.248C331.855 175.315 331.993 175.429 332.091 175.575C332.188 175.721 332.24 175.892 332.24 176.068C332.239 176.303 332.146 176.528 331.979 176.695C331.813 176.861 331.588 176.955 331.353 176.956Z" fill="white"/>
<path d="M328.71 176.853C328.534 176.853 328.363 176.801 328.217 176.704C328.071 176.606 327.957 176.467 327.89 176.305C327.823 176.143 327.805 175.964 327.839 175.792C327.874 175.62 327.958 175.462 328.082 175.338C328.206 175.214 328.365 175.129 328.537 175.095C328.709 175.06 328.888 175.078 329.05 175.145C329.212 175.212 329.351 175.326 329.448 175.472C329.546 175.618 329.598 175.79 329.598 175.965C329.598 176.201 329.504 176.427 329.338 176.593C329.171 176.76 328.945 176.853 328.71 176.853Z" fill="white"/>
<path d="M331.353 173.968C331.177 173.968 331.005 173.916 330.859 173.818C330.713 173.721 330.6 173.582 330.532 173.42C330.465 173.258 330.448 173.079 330.482 172.907C330.516 172.735 330.601 172.577 330.725 172.452C330.849 172.328 331.007 172.244 331.179 172.209C331.352 172.175 331.53 172.193 331.692 172.26C331.855 172.327 331.993 172.441 332.091 172.587C332.188 172.733 332.24 172.905 332.24 173.08C332.239 173.315 332.146 173.541 331.979 173.707C331.813 173.873 331.588 173.967 331.353 173.968Z" fill="white"/>
<path d="M328.71 174.07C328.534 174.07 328.363 174.018 328.217 173.921C328.071 173.823 327.957 173.685 327.89 173.522C327.823 173.36 327.805 173.182 327.839 173.009C327.874 172.837 327.958 172.679 328.082 172.555C328.206 172.431 328.365 172.346 328.537 172.312C328.709 172.278 328.888 172.295 329.05 172.362C329.212 172.43 329.351 172.543 329.448 172.689C329.546 172.835 329.598 173.007 329.598 173.183C329.598 173.418 329.504 173.644 329.338 173.81C329.171 173.977 328.945 174.07 328.71 174.07Z" fill="white"/>
<path d="M330.383 170.981C330.207 170.981 330.036 170.929 329.89 170.831C329.744 170.733 329.63 170.595 329.563 170.433C329.496 170.27 329.478 170.092 329.512 169.92C329.546 169.747 329.631 169.589 329.755 169.465C329.879 169.341 330.037 169.256 330.21 169.222C330.382 169.188 330.56 169.205 330.723 169.273C330.885 169.34 331.023 169.454 331.121 169.6C331.219 169.746 331.271 169.917 331.271 170.093C331.271 170.328 331.177 170.554 331.011 170.721C330.844 170.887 330.618 170.981 330.383 170.981Z" fill="white"/>
</g>
<g opacity="0.95">
<path d="M369.68 306.991L360.391 312.349V312.353V325.222L363.88 327.236V314.364L369.68 311.016V306.991Z" fill="white"/>
<path d="M373.389 306.991V317.242H369.68V313.417L366.189 315.431V328.565L369.68 330.584V320.362H373.389V324.162L376.878 322.147V309.005L373.389 306.991Z" fill="white"/>
<path d="M373.389 330.588L382.678 325.23V325.226V312.357L379.187 310.342V323.215L373.389 326.563V330.588Z" fill="white"/>
</g>
</g>
<defs>
<filter id="filter0_d_685_40288" x="0.80042" y="107.858" width="171.962" height="210.414" filterUnits="userSpaceOnUse" color-interpolation-filters="sRGB">
<feFlood flood-opacity="0" result="BackgroundImageFix"/>
<feColorMatrix in="SourceAlpha" type="matrix" values="0 0 0 0 0 0 0 0 0 0 0 0 0 0 0 0 0 0 127 0" result="hardAlpha"/>
<feMorphology radius="8.66597" operator="erode" in="SourceAlpha" result="effect1_dropShadow_685_40288"/>
<feOffset dy="6.93277"/>
<feGaussianBlur stdDeviation="6.93277"/>
<feColorMatrix type="matrix" values="0 0 0 0 0.170885 0 0 0 0 0.183125 0 0 0 0 0.2125 0 0 0 0.2 0"/>
<feBlend mode="normal" in2="BackgroundImageFix" result="effect1_dropShadow_685_40288"/>
<feBlend mode="normal" in="SourceGraphic" in2="effect1_dropShadow_685_40288" result="shape"/>
</filter>
<linearGradient id="paint0_linear_685_40288" x1="405.059" y1="252.001" x2="443.619" y2="456.579" gradientUnits="userSpaceOnUse">
<stop stop-color="#922479"/>
<stop offset="1" stop-color="#96267A" stop-opacity="0"/>
</linearGradient>
<linearGradient id="paint1_linear_685_40288" x1="362.863" y1="278.674" x2="294.162" y2="427.712" gradientUnits="userSpaceOnUse">
<stop stop-color="#E771A4"/>
<stop offset="1" stop-color="#F81696" stop-opacity="0.01"/>
</linearGradient>
<linearGradient id="paint2_linear_685_40288" x1="280.895" y1="127.818" x2="313.429" y2="335.535" gradientUnits="userSpaceOnUse">
<stop stop-color="#532A7D"/>
<stop offset="1" stop-color="#33197C" stop-opacity="0"/>
</linearGradient>
<linearGradient id="paint3_linear_685_40288" x1="229.884" y1="154.613" x2="169.245" y2="312.917" gradientUnits="userSpaceOnUse">
<stop stop-color="#76A0F3"/>
<stop offset="1" stop-color="#522AC2" stop-opacity="0"/>
</linearGradient>
<linearGradient id="paint4_linear_685_40288" x1="119.778" y1="222.8" x2="133.785" y2="462.748" gradientUnits="userSpaceOnUse">
<stop stop-color="#9B7003"/>
<stop offset="1" stop-color="#DF706F" stop-opacity="0"/>
</linearGradient>
<linearGradient id="paint5_linear_685_40288" x1="77" y1="240.786" x2="13.8937" y2="449.008" gradientUnits="userSpaceOnUse">
<stop offset="0.19001" stop-color="#FECA13" stop-opacity="0.76"/>
<stop offset="1" stop-color="#E36666" stop-opacity="0"/>
</linearGradient>
<clipPath id="clip0_685_40288">
<rect width="110.918" height="31.1846" fill="white" transform="translate(174.801 24.2607)"/>
</clipPath>
<clipPath id="clip1_685_40288">
<rect width="161.563" height="198.281" fill="white" transform="translate(6 107.858)"/>
</clipPath>
<clipPath id="clip2_685_40288">
<rect width="72.9412" height="30.8597" fill="white" transform="translate(20.6172 117.604)"/>
</clipPath>
<clipPath id="clip3_685_40288">
<rect width="161.563" height="198.281" fill="white" transform="translate(291.137 149.86)"/>
</clipPath>
<clipPath id="clip4_685_40288">
<rect width="82.2895" height="30.0476" fill="white" transform="translate(310.754 159.606)"/>
</clipPath>
</defs>
</svg>
