<svg width="453" height="594" viewBox="0 0 453 594" fill="none" xmlns="http://www.w3.org/2000/svg">
<g clip-path="url(#clip0_22926_42060)">
<path d="M392.938 334.666L473.059 279V503.295L392.938 558.961V334.666Z" fill="url(#paint0_linear_22926_42060)" fill-opacity="0.6"/>
<path d="M392.939 334.666L312.819 279V507.334L392.939 563V334.666Z" fill="url(#paint1_linear_22926_42060)" fill-opacity="0.6"/>
<path d="M260.855 209.92L357.712 154V379.318L260.855 435.238V209.92Z" fill="url(#paint2_linear_22926_42060)" fill-opacity="0.6"/>
<path d="M260.856 209.92L164 154V383.376L260.856 439.296V209.92Z" fill="url(#paint3_linear_22926_42060)" fill-opacity="0.6"/>
<path d="M337.801 164.51V164.511L337.716 164.559L267.635 205.015C264.967 206.556 264.106 207.024 263.261 207.25C262.013 207.585 260.698 207.585 259.45 207.25C258.605 207.024 257.745 206.556 255.076 205.015L184.911 164.511C182.242 162.97 181.405 162.459 180.787 161.84C179.873 160.926 179.215 159.788 178.881 158.539C178.655 157.694 178.63 156.715 178.63 153.632V13.772C178.63 11.712 178.632 10.32 178.705 9.23904C178.777 8.18504 178.907 7.65103 179.059 7.28603C179.342 6.6029 179.756 5.98219 180.279 5.45937C180.802 4.93655 181.423 4.52188 182.106 4.23904C182.471 4.08904 183.005 3.95803 184.058 3.88603C185.139 3.81203 186.532 3.81104 188.592 3.81104H334.12C336.179 3.81104 337.572 3.81203 338.653 3.88603C339.707 3.95803 340.241 4.08804 340.606 4.23904C341.985 4.81082 343.081 5.90674 343.653 7.28603C343.804 7.65103 343.934 8.18604 344.006 9.23904C344.08 10.32 344.081 11.713 344.081 13.772V153.632C344.081 156.715 344.057 157.694 343.83 158.539C343.496 159.788 342.839 160.926 341.925 161.84C341.306 162.459 340.47 162.97 337.801 164.51Z" fill="black" stroke="black" stroke-width="6.064"/>
<g opacity="0.94">
<g opacity="0.94">
<path d="M234.189 118.132C232.584 118.132 231.52 116.701 231.52 114.69C231.52 112.65 232.594 111.2 234.208 111.2C235.813 111.2 236.886 112.65 236.886 114.671C236.886 116.691 235.804 118.132 234.189 118.132ZM234.218 117.214C235.204 117.214 235.823 116.179 235.823 114.709C235.823 113.201 235.185 112.128 234.179 112.128C233.183 112.128 232.594 113.124 232.594 114.622C232.594 116.169 233.212 117.214 234.218 117.214Z" fill="white"/>
<path d="M240.288 118.132C238.683 118.132 237.62 116.701 237.62 114.69C237.62 112.65 238.693 111.2 240.308 111.2C241.913 111.2 242.986 112.65 242.986 114.671C242.986 116.691 241.903 118.132 240.288 118.132ZM240.317 117.214C241.304 117.214 241.922 116.179 241.922 114.709C241.922 113.201 241.284 112.128 240.279 112.128C239.283 112.128 238.693 113.124 238.693 114.622C238.693 116.169 239.312 117.214 240.317 117.214Z" fill="white"/>
<path d="M247.161 114.555C247.848 114.806 248.438 115.348 248.418 116.256C248.399 117.378 247.442 118.19 246.078 118.19C244.628 118.19 243.652 117.272 243.613 115.966H244.725C244.696 116.691 245.228 117.194 246.049 117.194C246.784 117.194 247.297 116.807 247.297 116.218C247.297 115.599 246.804 115.183 245.875 115.183H245.44V114.139H245.837C246.659 114.139 247.161 113.752 247.161 113.124C247.161 112.563 246.697 112.196 246.02 112.196C245.247 112.196 244.822 112.66 244.793 113.452H243.69C243.719 112.089 244.609 111.19 246.059 111.19C247.364 111.19 248.273 111.935 248.273 112.969C248.273 113.81 247.664 114.371 247.161 114.555Z" fill="white"/>
<path d="M195.957 118.055V111.287H196.74V114.265H200.269V111.287H201.052V118.055H200.269V114.941H196.74V118.055H195.957Z" fill="#AC72F0"/>
<path d="M205.463 118.113C203.713 118.113 202.398 116.711 202.398 114.709C202.398 112.65 203.703 111.229 205.521 111.229C207.048 111.229 208.122 112.215 208.325 113.511H207.513C207.319 112.669 206.555 111.964 205.511 111.964C204.158 111.964 203.229 113.114 203.229 114.719C203.229 116.266 204.148 117.359 205.473 117.359C206.546 117.359 207.329 116.643 207.513 115.812H208.325C208.102 117.107 207.029 118.113 205.463 118.113Z" fill="#AC72F0"/>
<path d="M211.028 118.055V111.993H208.602V111.287H214.19V111.993H211.773V118.055H211.028Z" fill="#AC72F0"/>
<path d="M214.593 118.055L213.743 118.045L216.324 111.287H217.127L219.727 118.055H218.877L218.18 116.227H215.27L214.593 118.055ZM215.512 115.502H217.948L216.73 112.167L215.512 115.502Z" fill="#AC72F0"/>
<path d="M223.059 118.151C221.522 118.151 220.536 116.778 220.536 114.709C220.536 112.631 221.532 111.248 223.079 111.248C224.626 111.248 225.612 112.631 225.612 114.709C225.612 116.778 224.616 118.151 223.059 118.151ZM223.079 117.465C224.181 117.465 224.867 116.382 224.867 114.719C224.867 113.037 224.171 111.935 223.05 111.935C221.957 111.935 221.28 113.017 221.28 114.68C221.28 116.382 221.967 117.465 223.079 117.465Z" fill="#AC72F0"/>
<path d="M227.022 115.202V114.642H230.406V115.202H227.022Z" fill="#AC72F0"/>
</g>
</g>
<path d="M329.4 68.395L331.11 72.105L335.166 72.585L332.168 75.359L332.964 79.365L329.4 77.37L325.835 79.365L326.631 75.359L323.633 72.585L327.689 72.105L329.4 68.395Z" fill="white"/>
<path d="M329.4 85.025L331.11 88.734L335.166 89.215L332.168 91.988L332.964 95.995L329.4 94L325.835 95.995L326.631 91.988L323.633 89.215L327.689 88.734L329.4 85.025ZM329.4 101.654L331.11 105.363L335.166 105.844L332.168 108.617L332.964 112.624L329.4 110.629L325.835 112.624L326.631 108.617L323.633 105.844L327.689 105.363L329.4 101.654Z" fill="black"/>
<path opacity="0.95" d="M201.765 80.427C204.165 80.427 205.932 79.057 206.566 77.334L205.446 77.04C204.931 78.336 203.591 79.322 201.75 79.322C199.247 79.322 197.597 77.364 197.597 75.037C197.597 72.769 199.247 70.84 201.75 70.84C203.591 70.84 204.946 71.841 205.446 73.123L206.595 72.843C205.976 71.12 204.18 69.736 201.75 69.736C198.717 69.736 196.419 72.048 196.419 75.052C196.419 78.1 198.717 80.427 201.765 80.427ZM216.025 71.002V69.927H208.765V80.235H216.011V79.16H209.929V75.508H215.274V74.478H209.929V71.002H216.025ZM225.259 80.235H226.614L223.846 76.127C225.524 75.817 226.423 74.448 226.423 73.064C226.423 71.562 225.274 69.927 223.153 69.927H218.382V80.235H219.546V76.185H222.564L225.259 80.235ZM219.546 70.987H223.124C224.464 70.987 225.289 71.989 225.289 73.064C225.289 74.154 224.479 75.14 223.109 75.14H219.546V70.987ZM236.683 69.927H227.892V71.002H231.706V80.235H232.884V71.002H236.683V69.927ZM238.45 80.235H239.628V69.927H238.45V80.235ZM249.428 71.002V69.927H242.286V80.235H243.464V75.655H248.677V74.61H243.464V71.002H249.428ZM251.255 80.235H252.433V69.927H251.255V80.235ZM262.351 71.002V69.927H255.091V80.235H262.336V79.16H256.254V75.508H261.6V74.478H256.254V71.002H262.351ZM268.625 69.927H264.708V80.235H268.625C271.82 80.235 273.691 78.041 273.691 75.081C273.691 72.121 271.82 69.927 268.625 69.927ZM268.61 79.16H265.871V70.987H268.61C271.128 70.987 272.513 72.784 272.513 75.052C272.513 77.393 271.128 79.16 268.61 79.16ZM204.283 100.235H206.389L202.428 89.927H199.806L195.86 100.235H197.951L198.805 97.997H203.444L204.283 100.235ZM199.468 96.215L201.117 91.856L202.766 96.215H199.468ZM211.651 100.442C214.125 100.442 215.774 99.013 215.774 97.246C215.774 95.567 214.581 94.905 213.005 94.419L210.443 93.594C209.766 93.388 209.456 93.078 209.456 92.622C209.456 92.018 210.104 91.503 211.12 91.503C212.284 91.503 213.241 92.077 213.668 92.917L215.538 92.372C214.979 90.943 213.329 89.721 211.106 89.721C208.956 89.721 207.395 91.076 207.41 92.681C207.395 94.006 208.381 94.875 209.736 95.302L212.372 96.127C213.359 96.451 213.727 96.819 213.727 97.364C213.727 98.041 212.976 98.66 211.768 98.66C210.281 98.66 209.236 97.806 208.823 96.731L206.894 97.32C207.468 98.925 209.132 100.442 211.651 100.442ZM221.742 100.442C224.216 100.442 225.865 99.013 225.865 97.246C225.865 95.567 224.672 94.905 223.097 94.419L220.534 93.594C219.857 93.388 219.548 93.078 219.548 92.622C219.548 92.018 220.196 91.503 221.212 91.503C222.375 91.503 223.332 92.077 223.759 92.917L225.63 92.372C225.07 90.943 223.421 89.721 221.197 89.721C219.047 89.721 217.486 91.076 217.501 92.681C217.486 94.006 218.473 94.875 219.828 95.302L222.464 96.127C223.45 96.451 223.818 96.819 223.818 97.364C223.818 98.041 223.067 98.66 221.86 98.66C220.372 98.66 219.327 97.806 218.915 96.731L216.985 97.32C217.56 98.925 219.224 100.442 221.742 100.442ZM232.599 100.442C235.707 100.442 238.004 98.115 238.004 95.067C238.004 92.033 235.707 89.721 232.599 89.721C229.478 89.721 227.18 92.033 227.18 95.067C227.18 98.115 229.478 100.442 232.599 100.442ZM232.599 98.571C230.553 98.571 229.227 97.04 229.227 95.067C229.227 93.137 230.553 91.591 232.599 91.591C234.632 91.591 235.972 93.137 235.972 95.067C235.972 97.04 234.632 98.571 232.599 98.571ZM244.92 100.442C247.644 100.442 249.382 98.777 249.853 97.128L247.894 96.627C247.556 97.644 246.451 98.542 244.89 98.542C242.858 98.542 241.562 96.907 241.562 95.052C241.562 93.196 242.858 91.621 244.89 91.621C246.451 91.621 247.556 92.548 247.894 93.55L249.868 93.064C249.397 91.429 247.659 89.721 244.876 89.721C241.813 89.721 239.501 92.033 239.501 95.067C239.501 98.115 241.813 100.442 244.92 100.442ZM251.716 100.235H253.763V89.927H251.716V100.235ZM263.638 100.235H265.743L261.782 89.927H259.161L255.214 100.235H257.305L258.159 97.997H262.798L263.638 100.235ZM258.822 96.215L260.471 91.856L262.121 96.215H258.822ZM274.133 89.927H265.194V91.753H268.655V100.235H270.672V91.753H274.133V89.927ZM283.347 91.753V89.927H275.749V100.235H283.333V98.409H277.722V95.876H282.596V94.109H277.722V91.753H283.347Z" fill="white"/>
<path fill-rule="evenodd" clip-rule="evenodd" d="M347.285 47V12.994C347.285 8.957 347.285 6.939 346.625 5.347C346.19 4.29598 345.552 3.341 344.747 2.53662C343.943 1.73223 342.988 1.09421 341.937 0.659C340.345 4.17233e-07 338.327 0 334.291 0H188.763C184.727 0 182.709 -1.78814e-07 181.117 0.66C180.066 1.0951 179.111 1.73296 178.307 2.53717C177.502 3.34137 176.864 4.29616 176.429 5.347C175.77 6.939 175.77 8.957 175.77 12.994V47H347.285Z" fill="#7B42BC"/>
<mask id="mask0_22926_42060" style="mask-type:luminance" maskUnits="userSpaceOnUse" x="195" y="9" width="112" height="32">
<path d="M195.801 9.26001H306.719V40.445H195.801V9.26001Z" fill="white"/>
</mask>
<g mask="url(#mask0_22926_42060)">
<path d="M230.692 20.0551H226.706V17.6741H237.379V20.0551H233.393V31.9621H230.692V20.0551Z" fill="white"/>
<path d="M240.2 30.023C241.281 30.018 242.356 29.8522 243.389 29.531L243.797 31.501C242.563 31.9464 241.26 32.1718 239.948 32.167C236.67 32.167 235.533 30.644 235.533 28.135V25.37C235.533 23.162 236.518 21.298 239.863 21.298C243.208 21.298 243.96 23.247 243.96 25.498V27.73H238.176V28.265C238.176 29.53 238.612 30.023 240.2 30.023ZM238.176 25.629H241.5V25.112C241.5 24.127 241.199 23.442 239.913 23.442C238.626 23.442 238.176 24.127 238.176 25.112V25.629ZM250.962 23.698C250.001 24.132 249.075 24.642 248.194 25.222V31.962H245.579V21.512H247.787L247.96 22.67C248.809 22.0935 249.732 21.6325 250.703 21.299L250.962 23.698ZM257.348 23.698C256.388 24.1331 255.464 24.6427 254.584 25.222V31.962H251.968V21.512H254.176L254.346 22.67C255.196 22.0935 256.12 21.6325 257.092 21.299L257.348 23.698ZM266.094 31.962H263.95L263.758 31.253C262.833 31.853 261.753 32.173 260.65 32.174C258.74 32.174 257.925 30.867 257.925 29.067C257.925 26.94 258.85 26.129 260.969 26.129H263.478V25.027C263.478 23.872 263.159 23.464 261.487 23.464C260.513 23.474 259.544 23.581 258.592 23.783L258.269 21.791C259.434 21.4684 260.638 21.3029 261.848 21.299C265.13 21.299 266.101 22.454 266.101 25.069L266.094 31.962ZM263.478 28.007H261.565C260.707 28.007 260.47 28.245 260.47 29.038C260.47 29.747 260.707 30.101 261.533 30.101C262.224 30.0899 262.901 29.906 263.503 29.566L263.478 28.007ZM274.134 19.134C273.64 19.0255 273.137 18.9672 272.632 18.96C271.604 18.96 271.455 19.41 271.455 20.204V21.511H274.113L273.968 23.591H271.462V31.961H268.847V23.591H267.174V21.511H268.847V20.055C268.847 17.89 269.853 16.816 272.167 16.816C272.927 16.8131 273.685 16.9143 274.418 17.117L274.134 19.134ZM279.233 32.167C275.654 32.167 274.676 30.19 274.676 28.064V25.414C274.676 23.287 275.64 21.299 279.219 21.299C282.798 21.299 283.766 23.269 283.766 25.413V28.063C283.78 30.19 282.827 32.167 279.233 32.167ZM279.233 23.527C277.841 23.527 277.306 24.148 277.306 25.328V28.135C277.306 29.315 277.841 29.938 279.233 29.938C280.626 29.938 281.165 29.315 281.165 28.135V25.328C281.165 24.166 280.63 23.527 279.233 23.527ZM290.51 23.698C289.55 24.1331 288.626 24.6427 287.746 25.222V31.962H285.13V21.512H287.338L287.508 22.67C288.363 22.093 289.292 21.632 290.269 21.299L290.51 23.698ZM297.71 31.962V24.662C297.71 24.105 297.473 23.825 296.874 23.825C296.275 23.825 295.102 24.212 294.152 24.708V31.962H291.534V21.512H293.529L293.787 22.39C295.089 21.7403 296.512 21.3687 297.966 21.299C298.975 21.299 299.596 21.706 299.939 22.412C301.244 21.7456 302.677 21.3661 304.142 21.299C305.879 21.299 306.499 22.518 306.499 24.385V31.962H303.883V24.662C303.883 24.105 303.646 23.825 303.047 23.825C302.088 23.925 301.161 24.226 300.326 24.708V31.962H297.71Z" fill="white"/>
<path fill-rule="evenodd" clip-rule="evenodd" d="M203.313 15.126L210.082 19.035V26.852L203.313 22.943V15.126ZM210.823 19.035V26.852L217.595 22.943V15.126L210.823 19.035ZM195.801 10.764V18.581L202.569 22.49V14.672L195.801 10.764ZM203.313 31.618L210.082 35.527V27.709L203.313 23.801V31.618Z" fill="white"/>
</g>
<g opacity="0.95">
<path d="M258.989 168.606L249.08 174.321V188.052L252.802 190.201V176.47L258.989 172.9V168.606Z" fill="white"/>
<path d="M262.944 168.606V179.54H258.988V175.46L255.264 177.609V191.619L258.988 193.772V182.869H262.944V186.922L266.666 184.773V170.755L262.944 168.606Z" fill="white"/>
<path d="M262.944 193.776L272.853 188.061V174.33L269.129 172.181V185.912L262.944 189.482V193.776Z" fill="white"/>
</g>
<path d="M107 291.987L187.5 243V512.113L107 561.1V291.987Z" fill="url(#paint4_linear_22926_42060)" fill-opacity="0.6"/>
<path d="M107.5 291.987L27 243V530.013L107.5 579V291.987Z" fill="url(#paint5_linear_22926_42060)" fill-opacity="0.6"/>
<mask id="mask1_22926_42060" style="mask-type:luminance" maskUnits="userSpaceOnUse" x="27" y="79" width="162" height="231">
<path d="M27 79.9971H188.563V310H27V79.9971Z" fill="white"/>
</mask>
<g mask="url(#mask1_22926_42060)">
<g filter="url(#filter0_d_22926_42060)">
<path d="M185.381 107.894V239.013C185.381 241.903 185.358 242.821 185.146 243.613C184.832 244.784 184.216 245.851 183.359 246.708C182.779 247.288 181.995 247.767 179.492 249.211L113.712 287.184C111.211 288.629 110.404 289.068 109.612 289.28C108.441 289.594 107.209 289.594 106.039 289.28C105.247 289.068 104.44 288.629 101.939 287.184L36.1588 249.211C33.6558 247.767 32.8718 247.288 32.2918 246.708C31.4347 245.851 30.8184 244.784 30.5048 243.613C30.2928 242.821 30.2698 241.903 30.2698 239.013V107.894C30.2698 105.964 30.2718 104.658 30.3398 103.644C30.4078 102.657 30.5298 102.156 30.6718 101.814C30.937 101.174 31.3258 100.592 31.8161 100.101C32.3063 99.6111 32.8883 99.2223 33.5288 98.9571C33.8708 98.8151 34.3708 98.6931 35.3588 98.6261C36.3728 98.5571 37.6788 98.5551 39.6088 98.5551H176.042C177.972 98.5551 179.278 98.5571 180.292 98.6261C181.279 98.6931 181.78 98.8151 182.122 98.9571C182.762 99.2223 183.344 99.6111 183.835 100.101C184.325 100.592 184.714 101.174 184.979 101.814C185.121 102.156 185.243 102.657 185.31 103.644C185.379 104.658 185.381 105.964 185.381 107.894Z" fill="black"/>
<path d="M185.146 243.613C185.358 242.821 185.381 241.903 185.381 239.013V107.894C185.381 105.964 185.379 104.658 185.31 103.644C185.243 102.657 185.121 102.156 184.979 101.814C184.714 101.174 184.325 100.592 183.835 100.101C183.344 99.6111 182.762 99.2223 182.122 98.9571C181.78 98.8151 181.279 98.6931 180.292 98.6261C179.278 98.5571 177.972 98.5551 176.042 98.5551H39.6088C37.6788 98.5551 36.3728 98.5571 35.3588 98.6261C34.3708 98.6931 33.8708 98.8151 33.5288 98.9571C32.8883 99.2223 32.3063 99.6111 31.8161 100.101C31.3258 100.592 30.937 101.174 30.6718 101.814C30.5298 102.156 30.4078 102.657 30.3398 103.644C30.2718 104.658 30.2698 105.964 30.2698 107.894V239.013C30.2698 241.903 30.2928 242.821 30.5048 243.613M185.146 243.613L187.891 244.349M185.146 243.613C184.832 244.784 184.216 245.851 183.359 246.708C182.779 247.288 181.995 247.767 179.492 249.211L113.712 287.184C111.211 288.629 110.404 289.068 109.612 289.28C108.441 289.594 107.209 289.594 106.039 289.28C105.247 289.068 104.44 288.629 101.939 287.184L36.1588 249.211C33.6558 247.767 32.8718 247.288 32.2918 246.708C31.4347 245.851 30.8184 244.784 30.5048 243.613M30.5048 243.613L27.7598 244.349" stroke="black" stroke-width="5.685"/>
<g opacity="0.94">
<path d="M42.4648 205.747H43.2548V202.609H46.8108V205.747H47.6008V198.925H46.8108V201.927H43.2538V198.925H42.4648V205.747ZM52.0458 205.806C53.6248 205.806 54.7058 204.792 54.9308 203.486H54.1118C53.9268 204.324 53.1378 205.045 52.0558 205.045C50.7208 205.045 49.7958 203.944 49.7958 202.385C49.7958 200.767 50.7308 199.608 52.0948 199.608C53.1468 199.608 53.9168 200.319 54.1118 201.167H54.9308C54.7258 199.861 53.6438 198.867 52.1048 198.867C50.2728 198.867 48.9568 200.3 48.9568 202.375C48.9568 204.392 50.2818 205.806 52.0468 205.806H52.0458ZM58.0968 205.747H58.9838L61.4788 198.925H60.6988L58.5548 204.87L56.3718 198.925H55.6018L58.0968 205.747ZM62.2868 205.747L62.9688 203.905H65.9018L66.6038 205.747H67.4608L64.8398 198.925H64.0298L61.4288 205.737L62.2868 205.747ZM63.2118 203.174L64.4398 199.812L65.6678 203.174H63.2118ZM70.8188 205.845C72.3888 205.845 73.3918 204.461 73.3918 202.375C73.3918 200.28 72.3978 198.886 70.8388 198.886C69.2788 198.886 68.2758 200.28 68.2758 202.375C68.2758 204.461 69.2698 205.845 70.8188 205.845ZM70.8388 205.153C69.7188 205.153 69.0258 204.061 69.0258 202.346C69.0258 200.67 69.7088 199.578 70.8098 199.578C71.9398 199.578 72.6418 200.689 72.6418 202.385C72.6418 204.061 71.9498 205.153 70.8388 205.153ZM74.8138 202.872H78.2238V202.307H74.8138V202.872Z" fill="#FFE959"/>
<path d="M82.192 205.825C83.82 205.825 84.912 204.373 84.912 202.336C84.912 200.3 83.83 198.838 82.212 198.838C80.584 198.838 79.502 200.3 79.502 202.356C79.502 204.383 80.575 205.825 82.192 205.825ZM82.222 204.899C81.208 204.899 80.584 203.847 80.584 202.288C80.584 200.777 81.179 199.773 82.182 199.773C83.196 199.773 83.839 200.855 83.839 202.375C83.839 203.857 83.216 204.899 82.222 204.899ZM88.34 205.825C89.968 205.825 91.059 204.373 91.059 202.336C91.059 200.3 89.977 198.838 88.359 198.838C86.732 198.838 85.65 200.3 85.65 202.356C85.65 204.383 86.722 205.825 88.34 205.825ZM88.37 204.899C87.356 204.899 86.732 203.847 86.732 202.288C86.732 200.777 87.327 199.773 88.33 199.773C89.344 199.773 89.987 200.855 89.987 202.375C89.987 203.857 89.364 204.899 88.37 204.899ZM91.76 205.747H96.427V204.753H93.25L94.264 203.857C95.394 202.853 96.379 202.151 96.379 200.943C96.379 199.734 95.414 198.838 94.108 198.838C92.714 198.838 91.74 199.734 91.681 201.069H92.802C92.89 200.319 93.396 199.832 94.098 199.832C94.819 199.832 95.297 200.29 95.297 200.991C95.297 201.791 94.547 202.307 93.309 203.369L91.759 204.704L91.76 205.747Z" fill="white"/>
</g>
<path d="M171.553 159.042L173.157 162.519L176.959 162.97L174.148 165.57L174.894 169.326L171.553 167.455L168.211 169.326L168.958 165.57L166.146 162.97L169.949 162.519L171.553 159.042Z" fill="white"/>
<path d="M171.554 174.632L173.158 178.109L176.96 178.56L174.149 181.16L174.895 184.916L171.554 183.045L168.212 184.916L168.959 181.16L166.147 178.56L169.95 178.109L171.554 174.632ZM171.554 190.223L173.158 193.7L176.96 194.151L174.149 196.751L174.895 200.506L171.554 198.636L168.212 200.506L168.959 196.751L166.147 194.151L169.95 193.7L171.554 190.223Z" fill="black"/>
<path opacity="0.95" d="M47.2099 170.321C49.4599 170.321 51.1159 169.037 51.7099 167.422L50.6599 167.146C50.1779 168.361 48.9209 169.286 47.1959 169.286C44.8489 169.286 43.3019 167.449 43.3019 165.268C43.3019 163.142 44.8489 161.334 47.1959 161.334C48.9209 161.334 50.1909 162.272 50.6609 163.473L51.7379 163.211C51.1579 161.596 49.4739 160.298 47.1959 160.298C44.3519 160.298 42.1979 162.466 42.1979 165.282C42.1979 168.14 44.3529 170.321 47.2099 170.321ZM60.5788 161.485V160.478H53.7729V170.142H60.5648V169.134H54.8629V165.71H59.8749V164.744H54.8629V161.485H60.5788ZM69.2359 170.142H70.5059L67.9099 166.29C69.4839 166 70.3259 164.716 70.3259 163.418C70.3259 162.01 69.2489 160.478 67.2609 160.478H62.7878V170.142H63.8778V166.345H66.7089L69.2359 170.142ZM63.8789 161.472H67.2339C68.4899 161.472 69.2639 162.41 69.2639 163.418C69.2639 164.44 68.5039 165.365 67.2199 165.365H63.8789V161.472ZM79.9459 160.478H71.7038V161.485H75.2789V170.142H76.3839V161.485H79.9459V160.478ZM81.6019 170.142H82.7059V160.478H81.6019V170.142ZM91.8928 161.485V160.478H85.1978V170.142H86.3019V165.848H91.1889V164.868H86.3019V161.485H91.8928ZM93.6069 170.142H94.7108V160.478H93.6069V170.142ZM104.009 161.485V160.478H97.2029V170.142H103.995V169.134H98.2929V165.71H103.305V164.744H98.2929V161.485H104.009ZM109.891 160.478H106.218V170.142H109.891C112.887 170.142 114.64 168.085 114.64 165.31C114.64 162.535 112.887 160.478 109.89 160.478H109.891ZM109.877 169.134H107.309V161.472H109.877C112.237 161.472 113.535 163.156 113.535 165.282C113.535 167.477 112.238 169.134 109.877 169.134ZM49.5699 188.142H51.5439L47.8309 178.478H45.3729L41.6729 188.142H43.6329L44.4349 186.043H48.7829L49.5699 188.142ZM45.0559 184.373L46.6019 180.286L48.1479 184.373H45.0559ZM56.4769 188.335C58.7969 188.335 60.3428 186.996 60.3428 185.339C60.3428 183.765 59.2249 183.144 57.7469 182.688L55.3449 181.915C54.7099 181.722 54.4198 181.432 54.4198 181.004C54.4198 180.438 55.0279 179.955 55.9799 179.955C57.0709 179.955 57.9679 180.493 58.3689 181.28L60.1219 180.769C59.5969 179.43 58.0519 178.284 55.9669 178.284C53.9509 178.284 52.4869 179.554 52.5009 181.059C52.4869 182.302 53.4128 183.116 54.6828 183.517L57.1529 184.29C58.0789 184.594 58.4239 184.939 58.4239 185.449C58.4239 186.085 57.7199 186.664 56.5879 186.664C55.1929 186.664 54.2129 185.864 53.8269 184.856L52.0179 185.408C52.5569 186.913 54.1159 188.335 56.4769 188.335ZM65.9379 188.335C68.2579 188.335 69.8039 186.996 69.8039 185.339C69.8039 183.765 68.6849 183.144 67.2079 182.688L64.8059 181.915C64.1709 181.722 63.8809 181.432 63.8809 181.004C63.8809 180.438 64.4879 179.955 65.4409 179.955C66.5309 179.955 67.4288 180.493 67.8288 181.28L69.5829 180.769C69.0579 179.43 67.5118 178.284 65.4268 178.284C63.4118 178.284 61.9479 179.554 61.9619 181.059C61.9479 182.302 62.8729 183.116 64.1429 183.517L66.6138 184.29C67.5388 184.594 67.8839 184.939 67.8839 185.449C67.8839 186.085 67.1809 186.664 66.0479 186.664C64.6539 186.664 63.6738 185.864 63.2878 184.856L61.4779 185.408C62.0179 186.913 63.5779 188.335 65.9379 188.335ZM76.1169 188.335C79.0299 188.335 81.1838 186.154 81.1838 183.296C81.1838 180.452 79.0299 178.284 76.1169 178.284C73.1899 178.284 71.0368 180.452 71.0368 183.296C71.0368 186.154 73.1899 188.335 76.1169 188.335ZM76.1169 186.582C74.1969 186.582 72.9549 185.146 72.9549 183.296C72.9549 181.487 74.1979 180.038 76.1169 180.038C78.0219 180.038 79.2779 181.487 79.2779 183.296C79.2779 185.146 78.0219 186.582 76.1169 186.582ZM87.6669 188.335C90.2209 188.335 91.8499 186.775 92.2919 185.229L90.4559 184.759C90.1379 185.712 89.1029 186.554 87.6399 186.554C85.7339 186.554 84.5199 185.022 84.5199 183.282C84.5199 181.542 85.7339 180.065 87.6399 180.065C89.1029 180.065 90.1379 180.935 90.4559 181.874L92.3059 181.418C91.8639 179.886 90.2359 178.284 87.6259 178.284C84.7539 178.284 82.5858 180.452 82.5858 183.296C82.5858 186.154 84.7539 188.335 87.6669 188.335ZM94.0389 188.142H95.9579V178.478H94.0379L94.0389 188.142ZM105.215 188.142H107.189L103.476 178.478H101.018L97.3179 188.142H99.2779L100.079 186.043H104.429L105.215 188.142ZM100.701 184.373L102.247 180.286L103.793 184.373H100.701ZM115.055 178.478H106.675V180.19H109.919V188.142H111.81V180.19H115.055V178.478ZM123.693 180.19V178.478H116.569V188.142H123.679V186.43H118.419V184.055H122.989V182.398H118.419V180.19H123.693Z" fill="white"/>
<path fill-rule="evenodd" clip-rule="evenodd" d="M27 139H187.795V107.04C187.795 103.256 187.795 101.364 187.177 99.872C186.769 98.8867 186.171 97.9914 185.417 97.2373C184.663 96.4831 183.767 95.885 182.782 95.477C181.29 94.858 179.398 94.858 175.614 94.858H39.181C35.398 94.858 33.506 94.858 32.013 95.477C31.0277 95.8851 30.1324 96.4833 29.3783 97.2374C28.6242 97.9915 28.0261 98.8867 27.618 99.872C27 101.364 27 103.256 27 107.04V139Z" fill="#FFE959"/>
<mask id="mask2_22926_42060" style="mask-type:luminance" maskUnits="userSpaceOnUse" x="41" y="103" width="74" height="32">
<path d="M41.6172 103.604H114.558V134.464H41.6172V103.604Z" fill="white"/>
</mask>
<g mask="url(#mask2_22926_42060)">
<path d="M81.9072 111.911H84.6842L80.4762 126.036H76.5062L72.2982 111.911H75.0762L78.4912 123.683L81.9072 111.911ZM92.3922 126.047H90.2882L90.0952 125.346C89.1797 125.94 88.1117 126.257 87.0202 126.257C85.1332 126.257 84.3272 124.963 84.3272 123.182C84.3272 121.078 85.2382 120.275 87.3392 120.275H89.8222V119.195C89.8222 118.048 89.5022 117.645 87.8472 117.645C86.8852 117.654 85.9272 117.761 84.9862 117.964L84.6662 115.989C85.8205 115.671 87.0119 115.507 88.2092 115.502C91.4522 115.502 92.4172 116.649 92.4172 119.237L92.3922 126.047ZM89.8082 122.144H87.8972C87.0472 122.144 86.8172 122.379 86.8172 123.164C86.8172 123.883 87.0472 124.216 87.8692 124.216C88.5541 124.205 89.2253 124.023 89.8222 123.687L89.8082 122.144ZM96.4672 115.709V122.919C96.4672 123.47 96.6992 123.747 97.2952 123.747C97.8912 123.747 99.0482 123.365 99.9882 122.877V115.709H102.576V126.047H100.602L100.349 125.178C99.0606 125.824 97.651 126.193 96.2112 126.261C94.4932 126.261 93.8792 125.052 93.8792 123.207V115.72L96.4672 115.709ZM103.954 126.047V111.497L106.542 111.146V126.047H103.954ZM114.26 125.847C113.531 126.102 112.765 126.238 111.992 126.25C110.105 126.25 109.148 125.359 109.148 123.515V117.764H107.6V115.709H109.147V113.142L111.735 112.791V115.719H114.385L114.217 117.774H111.735V123.185C111.719 123.31 111.732 123.438 111.773 123.557C111.815 123.677 111.884 123.785 111.974 123.873C112.064 123.962 112.174 124.028 112.294 124.067C112.415 124.106 112.542 124.116 112.667 124.097C113.106 124.084 113.541 124.012 113.961 123.883L114.259 125.847H114.26ZM41.6172 108.092L52.8002 129.855L64.0602 108.092H41.6172ZM51.0472 116.733H49.2942V114.952H51.0472V116.733ZM51.0472 114.061H49.2942V112.279H51.0472V114.061ZM53.7192 119.405H51.9492V117.631H53.7292L53.7192 119.405ZM53.7192 116.733H51.9492V114.952H53.7292L53.7192 116.733ZM53.7192 114.061H51.9492V112.279H53.7292L53.7192 114.061ZM56.3772 116.733H54.6072V114.952H56.3872L56.3772 116.733ZM54.5962 114.061V112.279H56.3772V114.061H54.5962Z" fill="black"/>
</g>
<g opacity="0.95">
<path d="M105.543 252.988L96.2529 258.346V271.219L99.7429 273.233V260.361L105.543 257.013V252.988Z" fill="white"/>
<path d="M109.252 252.988V263.239H105.544V259.414L102.052 261.429V274.562L105.544 276.581V266.359H109.252V270.159L112.742 268.144V255.003L109.252 252.988Z" fill="white"/>
<path d="M109.252 276.585L118.542 271.227V258.354L115.05 256.339V269.212L109.252 272.56V276.585Z" fill="white"/>
</g>
</g>
</g>
<mask id="mask3_22926_42060" style="mask-type:luminance" maskUnits="userSpaceOnUse" x="312" y="137" width="162" height="200">
<path d="M312.137 137.86H473.7V336.141H312.137V137.86Z" fill="white"/>
</mask>
<g mask="url(#mask3_22926_42060)">
<path d="M470.517 149.896V281.015C470.517 283.905 470.494 284.823 470.282 285.615C469.969 286.786 469.353 287.853 468.495 288.71C467.916 289.29 467.132 289.769 464.629 291.213L398.849 329.186C396.347 330.631 395.54 331.07 394.749 331.282C393.579 331.596 392.347 331.596 391.176 331.282C390.384 331.07 389.577 330.631 387.075 329.186L321.295 291.213C318.793 289.769 318.009 289.29 317.429 288.71C316.572 287.853 315.956 286.786 315.642 285.615C315.43 284.823 315.407 283.905 315.407 281.015V149.896C315.407 147.965 315.408 146.66 315.477 145.646C315.545 144.659 315.667 144.158 315.809 143.816C316.074 143.175 316.463 142.593 316.953 142.103C317.443 141.613 318.025 141.224 318.665 140.959C319.008 140.817 319.508 140.695 320.496 140.628C321.509 140.559 322.815 140.557 324.746 140.557H461.178C463.109 140.557 464.415 140.559 465.428 140.628C466.416 140.695 466.917 140.817 467.259 140.959C468.553 141.495 469.581 142.523 470.116 143.816C470.257 144.158 470.379 144.659 470.447 145.646C470.516 146.66 470.517 147.965 470.517 149.896Z" fill="black"/>
<path d="M470.282 285.615C470.494 284.823 470.517 283.905 470.517 281.015V149.896C470.517 147.965 470.516 146.66 470.447 145.646C470.379 144.659 470.257 144.158 470.116 143.816C469.581 142.523 468.553 141.495 467.259 140.959C466.917 140.817 466.416 140.695 465.428 140.628C464.415 140.559 463.109 140.557 461.178 140.557H324.746C322.815 140.557 321.509 140.559 320.496 140.628C319.508 140.695 319.008 140.817 318.665 140.959C318.025 141.224 317.443 141.613 316.953 142.103C316.463 142.593 316.074 143.175 315.809 143.816C315.667 144.158 315.545 144.659 315.477 145.646C315.408 146.66 315.407 147.965 315.407 149.896V281.015C315.407 283.905 315.43 284.823 315.642 285.615M470.282 285.615L473.028 286.351M470.282 285.615C469.969 286.786 469.353 287.853 468.495 288.71C467.916 289.29 467.132 289.769 464.629 291.213L398.849 329.186C396.347 330.631 395.54 331.07 394.749 331.282C393.579 331.596 392.347 331.596 391.176 331.282C390.384 331.07 389.577 330.631 387.075 329.186L321.295 291.213C318.793 289.769 318.009 289.29 317.429 288.71C316.572 287.853 315.956 286.786 315.642 285.615M315.642 285.615L312.897 286.351" stroke="black" stroke-width="5.685"/>
<g opacity="0.94">
<path d="M332.604 247.749H333.393V244.611H336.95V247.749H337.739V240.927H336.95V243.929H333.393V240.927H332.604V247.749ZM342.185 247.807C343.764 247.807 344.845 246.794 345.069 245.488H344.251C344.066 246.326 343.276 247.047 342.195 247.047C340.86 247.047 339.934 245.946 339.934 244.387C339.934 242.769 340.869 241.61 342.234 241.61C343.286 241.61 344.056 242.321 344.251 243.169H345.069C344.865 241.863 343.783 240.869 342.243 240.869C340.411 240.869 339.096 242.301 339.096 244.377C339.096 246.394 340.421 247.807 342.185 247.807ZM349.123 247.807C350.701 247.807 351.783 246.794 352.007 245.488H351.189C351.003 246.326 350.214 247.047 349.132 247.047C347.797 247.047 346.871 245.946 346.871 244.387C346.871 242.769 347.807 241.61 349.171 241.61C350.224 241.61 350.994 242.321 351.189 243.169H352.007C351.803 241.863 350.721 240.869 349.181 240.869C347.349 240.869 346.033 242.301 346.033 244.377C346.033 246.394 347.359 247.807 349.123 247.807ZM353.443 247.749L354.126 245.907H357.059L357.761 247.749H358.618L355.997 240.927H355.188L352.586 247.739L353.443 247.749ZM354.369 245.176L355.597 241.814L356.825 245.176H354.369ZM361.977 247.846C363.545 247.846 364.549 246.463 364.549 244.377C364.549 242.282 363.555 240.888 361.996 240.888C360.437 240.888 359.433 242.282 359.433 244.377C359.433 246.463 360.427 247.846 361.977 247.846ZM361.996 247.155C360.875 247.155 360.183 246.063 360.183 244.348C360.183 242.672 360.866 241.58 361.967 241.58C363.097 241.58 363.799 242.691 363.799 244.387C363.799 246.063 363.107 247.155 361.996 247.155ZM365.971 244.874H369.382V244.309H365.971V244.874Z" fill="#F85C94"/>
<path d="M373.349 247.827C374.977 247.827 376.068 246.375 376.068 244.338C376.068 242.301 374.986 240.84 373.369 240.84C371.741 240.84 370.66 242.301 370.66 244.358C370.66 246.385 371.732 247.827 373.349 247.827ZM373.379 246.901C372.365 246.901 371.741 245.849 371.741 244.289C371.741 242.779 372.336 241.775 373.34 241.775C374.353 241.775 374.996 242.857 374.996 244.377C374.996 245.858 374.373 246.901 373.379 246.901ZM379.497 247.827C381.125 247.827 382.216 246.375 382.216 244.338C382.216 242.301 381.134 240.84 379.517 240.84C377.889 240.84 376.807 242.301 376.807 244.358C376.807 246.385 377.879 247.827 379.497 247.827ZM379.526 246.901C378.513 246.901 377.889 245.849 377.889 244.289C377.889 242.779 378.484 241.775 379.487 241.775C380.501 241.775 381.144 242.857 381.144 244.377C381.144 245.858 380.52 246.901 379.526 246.901ZM382.916 247.749H387.584V246.755H384.407L385.421 245.858C386.551 244.855 387.536 244.153 387.536 242.945C387.536 241.736 386.571 240.84 385.265 240.84C383.871 240.84 382.897 241.736 382.838 243.071H383.959C384.047 242.321 384.553 241.834 385.255 241.834C385.976 241.834 386.454 242.292 386.454 242.993C386.454 243.792 385.703 244.309 384.466 245.371L382.916 246.706V247.749Z" fill="white"/>
</g>
<path d="M456.691 201.044L458.294 204.521L462.097 204.972L459.286 207.572L460.032 211.328L456.691 209.457L453.349 211.328L454.095 207.572L451.284 204.972L455.087 204.521L456.691 201.044Z" fill="white"/>
<path d="M456.691 216.635L458.294 220.112L462.097 220.563L459.286 223.163L460.032 226.918L456.691 225.048L453.349 226.918L454.095 223.163L451.284 220.563L455.087 220.112L456.691 216.635ZM456.69 232.225L458.293 235.702L462.096 236.153L459.285 238.752L460.031 242.508L456.69 240.638L453.348 242.508L454.094 238.752L451.283 236.153L455.086 235.702L456.69 232.225Z" fill="black"/>
<path opacity="0.95" d="M337.346 212.323C339.597 212.323 341.253 211.039 341.847 209.424L340.798 209.148C340.314 210.363 339.058 211.288 337.332 211.288C334.985 211.288 333.439 209.451 333.439 207.27C333.439 205.144 334.985 203.336 337.332 203.336C339.058 203.336 340.328 204.274 340.798 205.475L341.874 205.213C341.295 203.598 339.61 202.3 337.332 202.3C334.488 202.3 332.335 204.468 332.335 207.284C332.335 210.142 334.488 212.323 337.346 212.323ZM350.715 203.487V202.48H343.909V212.144H350.702V211.136H345V207.712H350.011V206.746H345V203.487H350.715ZM359.372 212.144H360.642L358.047 208.292C359.621 208.002 360.463 206.718 360.463 205.42C360.463 204.012 359.386 202.48 357.398 202.48H352.925V212.144H354.016V208.347H356.846L359.372 212.144ZM354.016 203.474H357.37C358.627 203.474 359.4 204.412 359.4 205.42C359.4 206.442 358.641 207.367 357.357 207.367H354.016V203.474ZM370.082 202.48H361.84V203.487H365.416V212.144H366.521V203.487H370.082V202.48ZM371.738 212.144H372.843V202.48H371.738V212.144ZM382.03 203.487V202.48H375.334V212.144H376.439V207.85H381.326V206.87H376.439V203.487H382.03ZM383.743 212.144H384.848V202.48H383.743V212.144ZM394.146 203.487V202.48H387.339V212.144H394.132V211.136H388.43V207.712H393.442V206.746H388.43V203.487H394.146ZM400.027 202.48H396.355V212.144H400.027C403.023 212.144 404.777 210.087 404.777 207.312C404.777 204.537 403.023 202.48 400.027 202.48ZM400.014 211.136H397.446V203.474H400.014C402.374 203.474 403.672 205.158 403.672 207.284C403.672 209.479 402.374 211.136 400.014 211.136ZM339.707 230.144H341.681L337.967 220.48H335.51L331.81 230.144H333.771L334.571 228.045H338.92L339.707 230.144ZM335.193 226.375L336.739 222.288L338.285 226.375H335.193ZM346.614 230.337C348.933 230.337 350.48 228.998 350.48 227.341C350.48 225.767 349.361 225.146 347.884 224.69L345.482 223.917C344.847 223.724 344.557 223.434 344.557 223.006C344.557 222.44 345.165 221.957 346.117 221.957C347.208 221.957 348.105 222.495 348.505 223.282L350.259 222.771C349.734 221.432 348.188 220.286 346.103 220.286C344.088 220.286 342.624 221.556 342.638 223.061C342.624 224.304 343.549 225.118 344.819 225.519L347.291 226.292C348.216 226.595 348.561 226.941 348.561 227.451C348.561 228.087 347.857 228.666 346.725 228.666C345.33 228.666 344.35 227.866 343.963 226.858L342.155 227.41C342.693 228.915 344.253 230.337 346.614 230.337ZM356.075 230.337C358.394 230.337 359.94 228.998 359.94 227.341C359.94 225.767 358.822 225.146 357.345 224.69L354.943 223.917C354.308 223.724 354.018 223.434 354.018 223.006C354.018 222.44 354.625 221.957 355.578 221.957C356.668 221.957 357.566 222.495 357.966 223.282L359.719 222.771C359.195 221.432 357.649 220.286 355.564 220.286C353.548 220.286 352.085 221.556 352.099 223.061C352.085 224.304 353.01 225.118 354.28 225.519L356.751 226.292C357.676 226.595 358.021 226.941 358.021 227.451C358.021 228.087 357.317 228.666 356.185 228.666C354.791 228.666 353.811 227.866 353.424 226.858L351.616 227.41C352.154 228.915 353.714 230.337 356.075 230.337ZM366.254 230.337C369.167 230.337 371.32 228.156 371.32 225.298C371.32 222.454 369.167 220.286 366.254 220.286C363.327 220.286 361.173 222.454 361.173 225.298C361.173 228.156 363.327 230.337 366.254 230.337ZM366.254 228.584C364.335 228.584 363.092 227.148 363.092 225.298C363.092 223.489 364.335 222.04 366.254 222.04C368.159 222.04 369.415 223.489 369.415 225.298C369.415 227.148 368.159 228.584 366.254 228.584ZM377.804 230.337C380.358 230.337 381.987 228.777 382.429 227.231L380.593 226.761C380.275 227.714 379.24 228.556 377.776 228.556C375.871 228.556 374.656 227.023 374.656 225.284C374.656 223.544 375.871 222.067 377.776 222.067C379.24 222.067 380.275 222.937 380.593 223.876L382.443 223.42C382.001 221.888 380.372 220.286 377.763 220.286C374.891 220.286 372.724 222.454 372.724 225.298C372.724 228.156 374.891 230.337 377.804 230.337ZM384.175 230.144H386.094V220.48H384.175V230.144ZM395.352 230.144H397.326L393.612 220.48H391.155L387.455 230.144H389.415L390.216 228.045H394.565L395.352 230.144ZM390.837 226.375L392.384 222.288L393.93 226.375H390.837ZM405.191 220.48H396.811V222.191H400.056V230.144H401.947V222.191H405.191V220.48ZM413.83 222.191V220.48H406.706V230.144H413.816V228.432H408.556V226.057H413.126V224.4H408.556V222.191H413.83Z" fill="white"/>
<path fill-rule="evenodd" clip-rule="evenodd" d="M473.495 150.043V183.026H312.7V150.043C312.7 146.259 312.7 144.367 313.318 142.875C313.726 141.89 314.324 140.994 315.078 140.24C315.833 139.486 316.728 138.888 317.713 138.48C319.205 137.861 321.097 137.861 324.881 137.861H461.314C465.098 137.861 466.989 137.861 468.482 138.48C469.468 138.888 470.363 139.486 471.117 140.24C471.871 140.994 472.469 141.89 472.877 142.875C473.495 144.367 473.495 146.259 473.495 150.043ZM390.372 337.587L390.539 337.635C392.271 338.105 394.1 338.089 395.823 337.587H390.372Z" fill="#E03875"/>
<mask id="mask4_22926_42060" style="mask-type:luminance" maskUnits="userSpaceOnUse" x="331" y="146" width="84" height="31">
<path d="M331.754 146.606H414.044V176.654H331.754V146.606Z" fill="white"/>
</mask>
<g mask="url(#mask4_22926_42060)">
<path d="M361.62 158.472C361.62 155.952 363.088 154.484 366.516 154.484C367.782 154.483 369.043 154.636 370.272 154.938L369.982 157.192C368.871 156.984 367.745 156.869 366.615 156.85C364.816 156.85 364.225 157.468 364.225 158.936V164.215C364.225 165.68 364.802 166.301 366.615 166.301C367.745 166.282 368.871 166.168 369.982 165.96L370.272 168.214C369.043 168.516 367.782 168.668 366.516 168.668C363.102 168.668 361.62 167.199 361.62 164.68V158.472ZM375.834 168.657C372.382 168.657 371.457 166.752 371.457 164.703V162.149C371.457 160.101 372.386 158.182 375.838 158.182C379.29 158.182 380.215 160.084 380.215 162.149V164.703C380.212 166.752 379.283 168.657 375.834 168.657ZM375.834 160.329C374.489 160.329 373.974 160.93 373.974 162.067V164.772C373.974 165.909 374.489 166.506 375.834 166.506C377.18 166.506 377.692 165.909 377.692 164.772V162.067C377.692 160.947 377.176 160.329 375.834 160.329ZM387.877 168.459V161.425C387.877 160.889 387.648 160.62 387.071 160.62C386.494 160.62 385.364 160.992 384.446 161.466V168.459H381.926V158.39H383.848L384.091 159.24C385.346 158.611 386.718 158.252 388.12 158.185C389.793 158.185 390.394 159.363 390.394 161.159V168.459H387.877ZM395.58 168.657C394.401 168.638 393.232 168.442 392.111 168.077L392.453 166.158C393.427 166.436 394.434 166.582 395.447 166.592C396.564 166.592 396.728 166.342 396.728 165.567C396.728 164.949 396.605 164.639 394.973 164.246C392.514 163.648 392.224 163.027 392.224 161.084C392.224 159.059 393.112 158.171 395.98 158.171C396.995 158.169 398.007 158.283 398.995 158.513L398.773 160.538C397.859 160.369 396.933 160.272 396.004 160.247C394.908 160.247 394.723 160.497 394.723 161.115C394.723 161.921 394.785 161.982 396.151 162.334C398.957 163.078 399.224 163.45 399.224 165.516C399.217 167.459 398.619 168.657 395.58 168.657ZM403.389 158.39V165.413C403.389 165.949 403.614 166.219 404.195 166.219C404.775 166.219 405.902 165.847 406.817 165.372V158.39H409.337V168.459H407.418L407.169 167.612C405.915 168.241 404.542 168.601 403.14 168.667C401.467 168.667 400.869 167.489 400.869 165.69V158.39H403.389ZM411.505 168.459V154.279L414.025 153.938V168.459H411.505ZM342.604 172.417C339.941 172.418 337.37 171.439 335.382 169.666C333.394 167.893 332.127 165.451 331.824 162.805C331.624 161.052 331.855 159.276 332.496 157.632C333.138 155.988 334.17 154.525 335.504 153.37C336.84 152.216 338.436 151.406 340.155 151.008C341.875 150.61 343.665 150.638 345.371 151.088C347.077 151.54 348.648 152.401 349.946 153.596L347.381 156.287C346.616 155.596 345.711 155.08 344.727 154.773C343.743 154.467 342.704 154.377 341.682 154.511C340.66 154.645 339.68 155 338.808 155.55C337.937 156.1 337.195 156.832 336.634 157.697C335.69 159.147 335.306 160.891 335.553 162.604C335.8 164.316 336.663 165.88 337.979 167.004C339.295 168.127 340.975 168.734 342.705 168.709C344.435 168.685 346.097 168.032 347.381 166.872L349.946 169.552C347.947 171.397 345.325 172.42 342.604 172.417ZM351.332 166.991C351.201 166.99 351.072 166.96 350.954 166.904C350.836 166.848 350.731 166.766 350.648 166.665C350.565 166.563 350.505 166.445 350.473 166.318C350.44 166.191 350.437 166.059 350.461 165.93C350.487 165.801 350.54 165.679 350.618 165.574C350.696 165.468 350.797 165.381 350.913 165.32C351.029 165.258 351.157 165.222 351.288 165.216C351.419 165.21 351.55 165.232 351.671 165.283C351.833 165.351 351.971 165.465 352.069 165.611C352.166 165.757 352.219 165.928 352.219 166.104C352.22 166.221 352.197 166.336 352.152 166.444C352.108 166.552 352.043 166.65 351.96 166.732C351.878 166.814 351.78 166.88 351.672 166.924C351.564 166.969 351.449 166.991 351.332 166.991Z" fill="white"/>
<path d="M342.536 163.922C341.954 163.921 341.392 163.703 340.961 163.312C340.53 162.92 340.259 162.382 340.202 161.802C340.145 161.222 340.306 160.642 340.652 160.174C340.999 159.705 341.507 159.383 342.078 159.268C342.419 159.201 342.77 159.21 343.107 159.295C343.443 159.379 343.757 159.537 344.025 159.758C344.294 159.978 344.51 160.255 344.659 160.568C344.807 160.882 344.885 161.225 344.885 161.572C344.886 161.881 344.825 162.186 344.707 162.471C344.589 162.757 344.416 163.016 344.198 163.234C343.98 163.452 343.721 163.626 343.436 163.744C343.151 163.862 342.845 163.922 342.536 163.922ZM352.353 163.956C352.222 163.956 352.092 163.927 351.973 163.871C351.854 163.815 351.749 163.734 351.666 163.632C351.583 163.531 351.523 163.412 351.491 163.284C351.459 163.157 351.456 163.024 351.482 162.895C351.528 162.682 351.651 162.492 351.827 162.364C352.004 162.235 352.221 162.176 352.438 162.197C352.656 162.219 352.857 162.319 353.005 162.48C353.153 162.64 353.237 162.85 353.24 163.068C353.24 163.303 353.146 163.529 352.98 163.695C352.814 163.861 352.588 163.955 352.353 163.956ZM349.71 163.853C349.579 163.853 349.45 163.823 349.331 163.767C349.213 163.711 349.108 163.629 349.025 163.528C348.942 163.426 348.882 163.308 348.85 163.181C348.818 163.053 348.814 162.921 348.839 162.792C348.874 162.62 348.959 162.462 349.083 162.338C349.207 162.214 349.365 162.13 349.537 162.095C349.709 162.06 349.888 162.077 350.05 162.144C350.213 162.212 350.351 162.326 350.448 162.472C350.563 162.643 350.615 162.848 350.595 163.052C350.575 163.257 350.484 163.448 350.338 163.593C350.256 163.675 350.158 163.741 350.05 163.785C349.942 163.83 349.827 163.853 349.71 163.853ZM352.353 160.968C352.222 160.968 352.092 160.939 351.973 160.883C351.854 160.827 351.749 160.746 351.666 160.644C351.583 160.543 351.523 160.424 351.491 160.296C351.459 160.169 351.456 160.036 351.482 159.907C351.517 159.735 351.602 159.577 351.726 159.453C351.85 159.329 352.007 159.244 352.179 159.209C352.308 159.184 352.441 159.188 352.568 159.22C352.695 159.252 352.813 159.312 352.915 159.395C353.016 159.478 353.098 159.583 353.154 159.701C353.21 159.819 353.24 159.949 353.24 160.08C353.24 160.315 353.146 160.541 352.98 160.707C352.814 160.874 352.589 160.967 352.353 160.968ZM349.71 161.07C349.579 161.07 349.45 161.04 349.331 160.984C349.213 160.928 349.108 160.846 349.025 160.745C348.942 160.643 348.882 160.525 348.85 160.398C348.818 160.27 348.814 160.138 348.839 160.009C348.874 159.837 348.959 159.679 349.083 159.555C349.207 159.431 349.365 159.347 349.537 159.312C349.709 159.278 349.888 159.296 350.05 159.363C350.212 159.43 350.35 159.544 350.448 159.689C350.538 159.822 350.59 159.978 350.598 160.139C350.606 160.3 350.571 160.46 350.495 160.602C350.419 160.744 350.306 160.862 350.168 160.945C350.029 161.027 349.871 161.071 349.71 161.07ZM351.383 157.981C351.208 157.982 351.036 157.93 350.89 157.832C350.744 157.734 350.63 157.596 350.563 157.433C350.497 157.271 350.479 157.092 350.513 156.92C350.548 156.748 350.632 156.59 350.755 156.465C350.879 156.34 351.038 156.256 351.21 156.222C351.382 156.187 351.561 156.205 351.723 156.273C351.912 156.353 352.067 156.495 352.163 156.676C352.259 156.856 352.289 157.065 352.249 157.266C352.209 157.466 352.101 157.647 351.944 157.777C351.786 157.908 351.588 157.98 351.383 157.981Z" fill="white"/>
</g>
<g opacity="0.95">
<path d="M390.681 294.991L381.392 300.349V313.222L384.881 315.236V302.364L390.681 299.016V294.991Z" fill="white"/>
<path d="M394.389 294.991V305.242H390.68V301.417L387.189 303.431V316.565L390.68 318.584V308.362H394.389V312.162L397.878 310.147V297.005L394.389 294.991Z" fill="white"/>
<path d="M394.39 318.588L403.679 313.23V300.357L400.188 298.342V311.215L394.39 314.563V318.588Z" fill="white"/>
</g>
</g>
</g>
<defs>
<filter id="filter0_d_22926_42060" x="13.134" y="87.925" width="189.359" height="225.232" filterUnits="userSpaceOnUse" color-interpolation-filters="sRGB">
<feFlood flood-opacity="0" result="BackgroundImageFix"/>
<feColorMatrix in="SourceAlpha" type="matrix" values="0 0 0 0 0 0 0 0 0 0 0 0 0 0 0 0 0 0 127 0" result="hardAlpha"/>
<feOffset dy="6.933"/>
<feGaussianBlur stdDeviation="6.933"/>
<feColorMatrix type="matrix" values="0 0 0 0 0.170885 0 0 0 0 0.183125 0 0 0 0 0.2125 0 0 0 0.2 0"/>
<feBlend mode="normal" in2="BackgroundImageFix" result="effect1_dropShadow_22926_42060"/>
<feBlend mode="normal" in="SourceGraphic" in2="effect1_dropShadow_22926_42060" result="shape"/>
</filter>
<linearGradient id="paint0_linear_22926_42060" x1="426.059" y1="239.001" x2="464.619" y2="443.579" gradientUnits="userSpaceOnUse">
<stop stop-color="#922479"/>
<stop offset="1" stop-color="#96267A" stop-opacity="0"/>
</linearGradient>
<linearGradient id="paint1_linear_22926_42060" x1="383.863" y1="265.674" x2="315.162" y2="414.712" gradientUnits="userSpaceOnUse">
<stop stop-color="#E771A4"/>
<stop offset="1" stop-color="#F81696" stop-opacity="0.01"/>
</linearGradient>
<linearGradient id="paint2_linear_22926_42060" x1="300.895" y1="113.818" x2="333.429" y2="321.535" gradientUnits="userSpaceOnUse">
<stop stop-color="#532A7D"/>
<stop offset="1" stop-color="#33197C" stop-opacity="0"/>
</linearGradient>
<linearGradient id="paint3_linear_22926_42060" x1="249.884" y1="140.613" x2="189.245" y2="298.917" gradientUnits="userSpaceOnUse">
<stop stop-color="#76A0F3"/>
<stop offset="1" stop-color="#522AC2" stop-opacity="0"/>
</linearGradient>
<linearGradient id="paint4_linear_22926_42060" x1="140.278" y1="207.8" x2="154.285" y2="447.748" gradientUnits="userSpaceOnUse">
<stop stop-color="#9B7003"/>
<stop offset="1" stop-color="#DF706F" stop-opacity="0"/>
</linearGradient>
<linearGradient id="paint5_linear_22926_42060" x1="98" y1="225.786" x2="34.894" y2="434.008" gradientUnits="userSpaceOnUse">
<stop offset="0.19" stop-color="#FECA13" stop-opacity="0.76"/>
<stop offset="1" stop-color="#E36666" stop-opacity="0"/>
</linearGradient>
<clipPath id="clip0_22926_42060">
<rect width="498" height="528" fill="white"/>
</clipPath>
</defs>
</svg>
