<svg width="455" height="522" viewBox="0 0 455 522" fill="none" xmlns="http://www.w3.org/2000/svg">
<path d="M373.938 332.258L454.058 286L454.058 472.386L373.938 518.644L373.938 332.258Z" fill="url(#paint0_linear_16901_201478)" fill-opacity="0.6"/>
<path d="M373.939 332.258L293.819 286L293.819 475.742L373.939 522L373.939 332.258Z" fill="url(#paint1_linear_16901_201478)" fill-opacity="0.6"/>
<path d="M240.675 211.465L326.35 162L326.35 361.308L240.675 410.773L240.675 211.465Z" fill="url(#paint2_linear_16901_201478)" fill-opacity="0.6"/>
<path d="M240.676 211.465L155 162L155 364.897L240.676 414.362L240.676 211.465Z" fill="url(#paint3_linear_16901_201478)" fill-opacity="0.6"/>
<g clip-path="url(#clip0_16901_201478)">
<path d="M235.006 206.544L168.1 167.921L168.099 167.921L168.025 167.878L168.025 167.878C165.477 166.407 164.678 165.919 164.088 165.329C163.215 164.456 162.588 163.369 162.269 162.178L159.473 162.927L162.269 162.178C162.052 161.371 162.029 160.436 162.029 157.493V23.981C162.029 22.0149 162.031 20.6853 162.101 19.6534C162.17 18.6476 162.294 18.1378 162.438 17.7895C162.984 16.4724 164.03 15.4261 165.347 14.8805C165.695 14.7362 166.205 14.612 167.211 14.5433C168.243 14.4729 169.573 14.4714 171.539 14.4714H310.462C312.428 14.4714 313.757 14.4729 314.789 14.5433C315.795 14.612 316.305 14.7362 316.653 14.8805C317.97 15.4261 319.017 16.4724 319.562 17.7894C319.706 18.1379 319.831 18.6476 319.899 19.6535C319.97 20.6853 319.971 22.0149 319.971 23.981V157.493C319.971 160.436 319.948 161.371 319.732 162.178C319.412 163.369 318.785 164.456 317.912 165.329C317.322 165.919 316.524 166.407 313.976 167.878L313.976 167.878L313.895 167.924L313.895 167.924L246.995 206.544C244.447 208.015 243.626 208.462 242.819 208.678C241.628 208.997 240.373 208.997 239.181 208.678C238.375 208.462 237.553 208.015 235.006 206.544Z" fill="black" stroke="black" stroke-width="5.78846"/>
<g opacity="0.94">
<path d="M175.383 124.288V117.342H176.187V120.398H179.809V117.342H180.612V124.288H179.809V121.093H176.187V124.288H175.383ZM185.139 124.348C183.343 124.348 181.993 122.909 181.993 120.855C181.993 118.741 183.333 117.282 185.198 117.282C186.766 117.282 187.868 118.295 188.076 119.624H187.243C187.044 118.761 186.26 118.037 185.189 118.037C183.799 118.037 182.847 119.217 182.847 120.865C182.847 122.452 183.789 123.574 185.149 123.574C186.25 123.574 187.054 122.839 187.243 121.986H188.076C187.848 123.316 186.746 124.348 185.139 124.348ZM190.851 124.288V118.066H188.36V117.342H194.096V118.066H191.615V124.288H190.851ZM194.51 124.288L193.637 124.278L196.286 117.342H197.11L199.779 124.288H198.906L198.191 122.413H195.204L194.51 124.288ZM195.453 121.668H197.953L196.703 118.245L195.453 121.668ZM203.199 124.387C201.621 124.387 200.609 122.978 200.609 120.855C200.609 118.721 201.631 117.302 203.219 117.302C204.806 117.302 205.818 118.721 205.818 120.855C205.818 122.978 204.796 124.387 203.199 124.387ZM203.219 123.683C204.35 123.683 205.054 122.571 205.054 120.865C205.054 119.138 204.34 118.007 203.189 118.007C202.067 118.007 201.373 119.118 201.373 120.825C201.373 122.571 202.077 123.683 203.219 123.683ZM207.266 121.361V120.785H210.739V121.361H207.266Z" fill="#AC72F0"/>
<path d="M214.779 124.367C213.132 124.367 212.04 122.899 212.04 120.835C212.04 118.741 213.142 117.253 214.799 117.253C216.446 117.253 217.548 118.741 217.548 120.815C217.548 122.889 216.436 124.367 214.779 124.367ZM214.809 123.425C215.821 123.425 216.456 122.363 216.456 120.855C216.456 119.307 215.801 118.205 214.769 118.205C213.747 118.205 213.142 119.227 213.142 120.765C213.142 122.353 213.777 123.425 214.809 123.425ZM221.039 124.367C219.392 124.367 218.3 122.899 218.3 120.835C218.3 118.741 219.402 117.253 221.059 117.253C222.706 117.253 223.808 118.741 223.808 120.815C223.808 122.889 222.696 124.367 221.039 124.367ZM221.069 123.425C222.081 123.425 222.716 122.363 222.716 120.855C222.716 119.307 222.061 118.205 221.029 118.205C220.007 118.205 219.402 119.227 219.402 120.765C219.402 122.353 220.037 123.425 221.069 123.425ZM228.093 120.696C228.798 120.954 229.403 121.51 229.383 122.442C229.363 123.593 228.381 124.427 226.982 124.427C225.493 124.427 224.491 123.484 224.451 122.145H225.592C225.563 122.889 226.108 123.405 226.952 123.405C227.706 123.405 228.232 123.008 228.232 122.403C228.232 121.768 227.726 121.341 226.773 121.341H226.327V120.269H226.734C227.577 120.269 228.093 119.872 228.093 119.227C228.093 118.652 227.617 118.275 226.922 118.275C226.128 118.275 225.692 118.751 225.662 119.565H224.531C224.56 118.166 225.473 117.243 226.962 117.243C228.301 117.243 229.234 118.007 229.234 119.069C229.234 119.932 228.609 120.507 228.093 120.696Z" fill="white"/>
</g>
<path d="M306.827 75.9131L308.46 79.4537L312.332 79.9128L309.469 82.5601L310.229 86.3845L306.827 84.48L303.424 86.3845L304.184 82.5601L301.321 79.9128L305.193 79.4537L306.827 75.9131Z" fill="white"/>
<path d="M306.827 91.7881L308.46 95.3287L312.332 95.7878L309.469 98.4351L310.229 102.26L306.827 100.355L303.424 102.26L304.184 98.4351L301.321 95.7878L305.193 95.3287L306.827 91.7881Z" fill="black"/>
<path d="M306.827 107.663L308.46 111.204L312.332 111.663L309.469 114.31L310.229 118.135L306.827 116.23L303.424 118.135L304.184 114.31L301.321 111.663L305.193 111.204L306.827 107.663Z" fill="black"/>
<path opacity="0.95" d="M180.213 87.1251C177.303 87.1251 175.11 84.904 175.11 81.9941C175.11 79.1263 177.303 76.9192 180.199 76.9192C182.518 76.9192 184.233 78.2407 184.824 79.8854L183.727 80.1525C183.249 78.9295 181.956 77.9736 180.199 77.9736C177.809 77.9736 176.235 79.8151 176.235 81.98C176.235 84.2011 177.809 86.0708 180.199 86.0708C181.956 86.0708 183.235 85.1289 183.727 83.8919L184.796 84.173C184.191 85.8178 182.504 87.1251 180.213 87.1251ZM193.826 78.1282H188.006V81.4458H193.109V82.4299H188.006V85.9162H193.812V86.9424H186.896V77.102H193.826V78.1282ZM202.641 86.9424L200.069 83.0765H197.187V86.9424H196.076V77.102H200.631C202.655 77.102 203.752 78.6624 203.752 80.0963C203.752 81.4177 202.894 82.7251 201.292 83.0203L203.934 86.9424H202.641ZM197.187 78.1142V82.0784H200.589C201.896 82.0784 202.669 81.1366 202.669 80.0963C202.669 79.0701 201.882 78.1142 200.603 78.1142H197.187ZM213.547 77.102V78.1282H209.92V86.9424H208.795V78.1282H205.154V77.102H213.547ZM215.233 86.9424V77.102H216.358V86.9424H215.233ZM225.713 78.1282H220.019V81.5723H224.996V82.5704H220.019V86.9424H218.895V77.102H225.713V78.1282ZM227.457 86.9424V77.102H228.582V86.9424H227.457ZM238.049 78.1282H232.229V81.4458H237.332V82.4299H232.229V85.9162H238.035V86.9424H231.119V77.102H238.049V78.1282ZM244.038 77.102C247.089 77.102 248.874 79.1966 248.874 82.0222C248.874 84.8478 247.089 86.9424 244.038 86.9424H240.299V77.102H244.038ZM244.024 85.9162C246.428 85.9162 247.75 84.2292 247.75 81.9941C247.75 79.8292 246.428 78.1142 244.024 78.1142H241.41V85.9162H244.024ZM182.617 105.942L181.815 103.806H177.387L176.572 105.942H174.576L178.343 96.102H180.845L184.627 105.942H182.617ZM178.02 102.105H181.169L179.594 97.9436L178.02 102.105ZM189.65 106.139C187.246 106.139 185.658 104.691 185.109 103.159L186.951 102.597C187.345 103.623 188.343 104.438 189.762 104.438C190.915 104.438 191.632 103.848 191.632 103.201C191.632 102.681 191.281 102.33 190.339 102.02L187.823 101.233C186.529 100.825 185.587 99.996 185.601 98.7308C185.587 97.1985 187.077 95.9052 189.13 95.9052C191.253 95.9052 192.827 97.072 193.361 98.4356L191.576 98.9557C191.168 98.1544 190.254 97.6062 189.144 97.6062C188.174 97.6062 187.555 98.0982 187.555 98.6746C187.555 99.1103 187.851 99.4056 188.497 99.6024L190.943 100.39C192.447 100.853 193.586 101.486 193.586 103.089C193.586 104.776 192.012 106.139 189.65 106.139ZM199.283 106.139C196.88 106.139 195.291 104.691 194.743 103.159L196.584 102.597C196.978 103.623 197.976 104.438 199.396 104.438C200.549 104.438 201.266 103.848 201.266 103.201C201.266 102.681 200.914 102.33 199.972 102.02L197.456 101.233C196.163 100.825 195.221 99.996 195.235 98.7308C195.221 97.1985 196.711 95.9052 198.763 95.9052C200.886 95.9052 202.46 97.072 202.995 98.4356L201.209 98.9557C200.802 98.1544 199.888 97.6062 198.777 97.6062C197.807 97.6062 197.189 98.0982 197.189 98.6746C197.189 99.1103 197.484 99.4056 198.131 99.6024L200.577 100.39C202.081 100.853 203.22 101.486 203.22 103.089C203.22 104.776 201.645 106.139 199.283 106.139ZM209.648 106.139C206.668 106.139 204.475 103.918 204.475 101.008C204.475 98.1122 206.668 95.9052 209.648 95.9052C212.614 95.9052 214.807 98.1122 214.807 101.008C214.807 103.918 212.614 106.139 209.648 106.139ZM209.648 104.354C211.588 104.354 212.867 102.892 212.867 101.008C212.867 99.1666 211.588 97.6905 209.648 97.6905C207.694 97.6905 206.429 99.1666 206.429 101.008C206.429 102.892 207.694 104.354 209.648 104.354ZM221.409 106.139C218.443 106.139 216.236 103.918 216.236 101.008C216.236 98.1122 218.443 95.9052 221.367 95.9052C224.024 95.9052 225.683 97.5359 226.133 99.0963L224.249 99.5602C223.926 98.6043 222.871 97.7186 221.381 97.7186C219.441 97.7186 218.204 99.2228 218.204 100.994C218.204 102.765 219.441 104.326 221.381 104.326C222.871 104.326 223.926 103.468 224.249 102.498L226.119 102.976C225.669 104.551 224.01 106.139 221.409 106.139ZM227.897 105.942V96.102H229.851V105.942H227.897ZM239.278 105.942L238.476 103.806H234.048L233.233 105.942H231.237L235.004 96.102H237.506L241.288 105.942H239.278ZM234.681 102.105H237.83L236.255 97.9436L234.681 102.105ZM249.297 96.102V97.8452H245.993V105.942H244.067V97.8452H240.764V96.102H249.297ZM258.093 97.8452H252.723V100.094H257.376V101.781H252.723V104.199H258.079V105.942H250.839V96.102H258.093V97.8452Z" fill="white"/>
<path fill-rule="evenodd" clip-rule="evenodd" d="M323.366 23.98V57.8842H159.635V23.98C159.635 20.127 159.635 18.2006 160.264 16.6809C161.104 14.6547 162.713 13.0449 164.739 12.2056C166.259 11.5762 168.186 11.5762 172.039 11.5762H310.962C314.815 11.5762 316.741 11.5762 318.261 12.2056C320.287 13.0449 321.897 14.6547 322.736 16.6809C323.366 18.2006 323.366 20.127 323.366 23.98Z" fill="#7B42BC"/>
<g clip-path="url(#clip1_16901_201478)">
<path d="M207.827 32.6307H204.021V30.3574H214.211V32.6307H210.405V43.9971H207.827V32.6307Z" fill="white"/>
<path d="M216.903 42.147C217.936 42.1421 218.962 41.9836 219.948 41.6768L220.337 43.5576C219.159 43.9829 217.916 44.1981 216.663 44.1936C213.534 44.1936 212.448 42.739 212.448 40.3439V37.7053C212.448 35.5977 213.389 33.8184 216.582 33.8184C219.776 33.8184 220.493 35.6789 220.493 37.8271V39.9583H214.972V40.4691C214.972 41.6768 215.388 42.147 216.903 42.147ZM214.972 37.9522H218.145V37.4583C218.145 36.5179 217.857 35.865 216.629 35.865C215.401 35.865 214.972 36.5179 214.972 37.4583V37.9522Z" fill="white"/>
<path d="M227.177 36.1086C226.259 36.5233 225.376 37.0097 224.535 37.5632V43.9974H222.038V34.0213H224.146L224.311 35.1275C225.122 34.5769 226.003 34.1367 226.93 33.8184L227.177 36.1086Z" fill="white"/>
<path d="M233.273 36.1086C232.357 36.524 231.475 37.0104 230.634 37.5632V43.9974H228.138V34.0213H230.245L230.408 35.1275C231.22 34.577 232.101 34.1367 233.029 33.8184L233.273 36.1086Z" fill="white"/>
<path d="M241.622 43.9974H239.575L239.392 43.3208C238.509 43.8938 237.479 44.1992 236.426 44.2004C234.602 44.2004 233.824 42.9521 233.824 41.2336C233.824 39.2039 234.707 38.4292 236.73 38.4292H239.125V37.3771C239.125 36.2743 238.821 35.8853 237.224 35.8853C236.295 35.895 235.369 35.997 234.46 36.1897L234.152 34.2886C235.265 33.9804 236.414 33.8222 237.569 33.8184C240.702 33.8184 241.628 34.9212 241.628 37.4177L241.622 43.9974ZM239.125 40.2221H237.298C236.48 40.2221 236.253 40.4488 236.253 41.2065C236.253 41.8831 236.48 42.2214 237.268 42.2214C237.928 42.2109 238.574 42.0352 239.149 41.7106L239.125 40.2221Z" fill="white"/>
<path d="M249.298 31.7515C248.827 31.6481 248.346 31.5925 247.864 31.5858C246.883 31.5858 246.741 32.0154 246.741 32.7731V34.0214H249.278L249.139 36.0072H246.748V43.9975H244.251V36.0072H242.654V34.0214H244.251V32.6311C244.251 30.5641 245.212 29.5391 247.421 29.5391C248.147 29.5365 248.869 29.6332 249.569 29.8267L249.298 31.7515Z" fill="white"/>
<path d="M254.166 44.1936C250.749 44.1936 249.815 42.306 249.815 40.2763V37.7459C249.815 35.7161 250.736 33.8184 254.152 33.8184C257.569 33.8184 258.492 35.6992 258.492 37.7459V40.2763C258.506 42.306 257.596 44.1936 254.166 44.1936ZM254.166 35.9462C252.836 35.9462 252.326 36.5382 252.326 37.6647V40.3439C252.326 41.4704 252.836 42.0658 254.166 42.0658C255.495 42.0658 256.009 41.4704 256.009 40.3439V37.6647C256.009 36.5551 255.499 35.9462 254.166 35.9462Z" fill="white"/>
<path d="M264.93 36.1086C264.014 36.524 263.132 37.0104 262.291 37.5632V43.9974H259.795V34.0213H261.902L262.065 35.1275C262.882 34.5766 263.768 34.1363 264.7 33.8184L264.93 36.1086Z" fill="white"/>
<path d="M271.804 43.9974V37.0287C271.804 36.4976 271.577 36.2303 271.005 36.2303C270.434 36.2303 269.314 36.5991 268.407 37.0727V43.9974H265.907V34.0213H267.812L268.059 34.8603C269.302 34.24 270.66 33.8852 272.047 33.8184C273.011 33.8184 273.603 34.2074 273.931 34.8806C275.178 34.2444 276.546 33.8823 277.943 33.8184C279.601 33.8184 280.193 34.9821 280.193 36.7648V43.9974H277.697V37.0287C277.697 36.4976 277.47 36.2303 276.898 36.2303C275.983 36.326 275.098 36.613 274.3 37.0727V43.9974H271.804Z" fill="white"/>
<path fill-rule="evenodd" clip-rule="evenodd" d="M181.691 27.9248L188.153 31.6561V39.1187L181.691 35.3874V27.9248Z" fill="white"/>
<path fill-rule="evenodd" clip-rule="evenodd" d="M188.859 31.6561V39.1187L195.324 35.3874V27.9248L188.859 31.6561Z" fill="white"/>
<path fill-rule="evenodd" clip-rule="evenodd" d="M174.52 23.7607V31.2233L180.981 34.9546V27.492L174.52 23.7607Z" fill="white"/>
<path fill-rule="evenodd" clip-rule="evenodd" d="M181.691 43.6696L188.153 47.4009V39.9857V39.9383L181.691 36.207V43.6696Z" fill="white"/>
</g>
<g opacity="0.95">
<path d="M239.613 171.575L230.153 177.031V177.035V190.139L233.706 192.19V179.083L239.613 175.674V171.575Z" fill="white"/>
<path d="M243.389 171.575V182.013H239.613V178.118L236.058 180.17V193.543L239.613 195.599V185.191H243.389V189.06L246.942 187.009V173.627L243.389 171.575Z" fill="white"/>
<path d="M243.389 195.604L252.848 190.148V190.143V177.04L249.293 174.988V188.096L243.389 191.505V195.604Z" fill="white"/>
</g>
</g>
<path d="M86.5 288.147L167 254L167 441.591L86.5 475.739L86.5 288.147Z" fill="url(#paint4_linear_16901_201478)" fill-opacity="0.6"/>
<path d="M86.5 288.147L5.99983 254L5.99982 454.069L86.5 488.217L86.5 288.147Z" fill="url(#paint5_linear_16901_201478)" fill-opacity="0.6"/>
<g clip-path="url(#clip2_16901_201478)" filter="url(#filter0_d_16901_201478)">
<path d="M164.381 115.895V247.014C164.381 249.904 164.358 250.822 164.146 251.614L166.891 252.35L164.146 251.614C163.832 252.785 163.216 253.852 162.359 254.709C161.779 255.289 160.995 255.768 158.492 257.212L92.7125 295.185C90.2106 296.63 89.4037 297.069 88.6118 297.281C87.4415 297.595 86.2093 297.595 85.039 297.281C84.2471 297.069 83.4402 296.63 80.9383 295.185L15.1584 257.212C12.656 255.768 11.8719 255.289 11.2921 254.709C10.4352 253.852 9.81896 252.785 9.50531 251.614L6.75983 252.35L9.50531 251.614C9.29307 250.822 9.27008 249.904 9.27008 247.014V115.895C9.27008 113.965 9.27162 112.659 9.34076 111.645C9.40815 110.658 9.53017 110.157 9.67189 109.815C10.2076 108.521 11.2353 107.494 12.5287 106.958C12.8708 106.816 13.3714 106.694 14.3592 106.627C15.3726 106.558 16.6784 106.556 18.6092 106.556H155.042C156.972 106.556 158.278 106.558 159.292 106.627C160.279 106.694 160.78 106.816 161.122 106.958C162.416 107.494 163.443 108.521 163.979 109.815C164.121 110.157 164.243 110.658 164.31 111.645C164.379 112.659 164.381 113.964 164.381 115.895Z" fill="black" stroke="black" stroke-width="5.68468"/>
<g opacity="0.94">
<path d="M21.465 213.747H22.2544V210.609H25.8114V213.747H26.6007V206.925H25.8114V209.927H22.2544V206.925H21.465V213.747ZM31.0462 213.806C32.6249 213.806 33.7066 212.792 33.9308 211.486H33.1122C32.927 212.324 32.1377 213.045 31.0559 213.045C29.7209 213.045 28.7951 211.944 28.7951 210.385C28.7951 208.767 29.7306 207.608 31.0949 207.608C32.1474 207.608 32.9173 208.319 33.1122 209.167H33.9308C33.7261 207.861 32.6444 206.867 31.1047 206.867C29.2726 206.867 27.957 208.3 27.957 210.375C27.957 212.392 29.2823 213.806 31.0462 213.806ZM37.0971 213.747H37.9839L40.4787 206.925H39.6991L37.5551 212.87L35.3722 206.925H34.6024L37.0971 213.747ZM41.2865 213.747L41.9686 211.905H44.9019L45.6036 213.747H46.4612L43.8397 206.925H43.0309L40.4289 213.737L41.2865 213.747ZM42.2123 211.174L43.4402 207.812L44.6681 211.174H42.2123ZM49.8195 213.845C51.3885 213.845 52.3922 212.461 52.3922 210.375C52.3922 208.28 51.3982 206.886 49.839 206.886C48.2798 206.886 47.276 208.28 47.276 210.375C47.276 212.461 48.27 213.845 49.8195 213.845ZM49.839 213.153C48.7183 213.153 48.0264 212.061 48.0264 210.346C48.0264 208.67 48.7086 207.578 49.8098 207.578C50.9402 207.578 51.6419 208.689 51.6419 210.385C51.6419 212.061 50.95 213.153 49.839 213.153ZM53.8141 210.872H57.2249V210.307H53.8141V210.872Z" fill="#FFE959"/>
<path d="M61.1923 213.825C62.8197 213.825 63.9112 212.373 63.9112 210.336C63.9112 208.3 62.8295 206.838 61.2118 206.838C59.5843 206.838 58.5026 208.3 58.5026 210.356C58.5026 212.383 59.5746 213.825 61.1923 213.825ZM61.2215 212.899C60.208 212.899 59.5843 211.847 59.5843 210.288C59.5843 208.777 60.1788 207.773 61.1825 207.773C62.196 207.773 62.8392 208.855 62.8392 210.375C62.8392 211.857 62.2155 212.899 61.2215 212.899ZM67.3401 213.825C68.9676 213.825 70.059 212.373 70.059 210.336C70.059 208.3 68.9773 206.838 67.3596 206.838C65.7322 206.838 64.6505 208.3 64.6505 210.356C64.6505 212.383 65.7224 213.825 67.3401 213.825ZM67.3694 212.899C66.3559 212.899 65.7322 211.847 65.7322 210.288C65.7322 208.777 66.3266 207.773 67.3304 207.773C68.3439 207.773 68.9871 208.855 68.9871 210.375C68.9871 211.857 68.3634 212.899 67.3694 212.899ZM70.7593 213.747H75.4273V212.753H72.2503L73.2638 211.857C74.3943 210.853 75.3785 210.151 75.3785 208.943C75.3785 207.734 74.4138 206.838 73.1079 206.838C71.7143 206.838 70.7398 207.734 70.6814 209.069H71.802C71.8898 208.319 72.3965 207.832 73.0982 207.832C73.8193 207.832 74.2968 208.29 74.2968 208.991C74.2968 209.791 73.5464 210.307 72.3088 211.369L70.7593 212.704V213.747Z" fill="white"/>
</g>
<path d="M150.553 167.042L152.157 170.519L155.959 170.97L153.148 173.57L153.894 177.326L150.553 175.455L147.211 177.326L147.958 173.57L145.146 170.97L148.949 170.519L150.553 167.042Z" fill="white"/>
<path d="M150.554 182.632L152.158 186.109L155.96 186.56L153.149 189.16L153.895 192.916L150.554 191.045L147.212 192.916L147.959 189.16L145.147 186.56L148.95 186.109L150.554 182.632Z" fill="black"/>
<path d="M150.554 198.223L152.158 201.7L155.96 202.151L153.149 204.751L153.895 208.506L150.554 206.636L147.212 208.506L147.959 204.751L145.147 202.151L148.95 201.7L150.554 198.223Z" fill="black"/>
<path opacity="0.95" d="M26.2095 178.321C28.4598 178.321 30.1165 177.037 30.7101 175.422L29.6609 175.146C29.1777 176.361 27.9214 177.286 26.1957 177.286C23.8487 177.286 22.3025 175.449 22.3025 173.268C22.3025 171.142 23.8487 169.334 26.1957 169.334C27.9214 169.334 29.1915 170.272 29.6609 171.473L30.7377 171.211C30.1579 169.596 28.4736 168.298 26.1957 168.298C23.3517 168.298 21.198 170.466 21.198 173.282C21.198 176.14 23.3517 178.321 26.2095 178.321ZM39.5787 169.485V168.478H32.7725V178.142H39.5649V177.134H33.8632V173.71H38.8746V172.744H33.8632V169.485H39.5787ZM48.2355 178.142H49.5057L46.9102 174.29C48.484 174 49.3262 172.716 49.3262 171.418C49.3262 170.01 48.2493 168.478 46.2613 168.478H41.7883V178.142H42.8789V174.345H45.7091L48.2355 178.142ZM42.8789 169.472H46.2337C47.49 169.472 48.2631 170.41 48.2631 171.418C48.2631 172.44 47.5038 173.365 46.2199 173.365H42.8789V169.472ZM58.9457 168.478H50.7037V169.485H54.2794V178.142H55.3838V169.485H58.9457V168.478ZM60.6017 178.142H61.7062V168.478H60.6017V178.142ZM70.8934 169.485V168.478H64.1977V178.142H65.3021V173.848H70.1893V172.868H65.3021V169.485H70.8934ZM72.6067 178.142H73.7112V168.478H72.6067V178.142ZM83.0089 169.485V168.478H76.2027V178.142H82.9951V177.134H77.2933V173.71H82.3048V172.744H77.2933V169.485H83.0089ZM88.8907 168.478H85.2184V178.142H88.8907C91.8866 178.142 93.6399 176.085 93.6399 173.31C93.6399 170.535 91.8866 168.478 88.8907 168.478ZM88.8769 177.134H86.3091V169.472H88.8769C91.2377 169.472 92.5354 171.156 92.5354 173.282C92.5354 175.477 91.2377 177.134 88.8769 177.134ZM28.5702 196.142H30.5444L26.8307 186.478H24.3733L20.6734 196.142H22.6338L23.4345 194.043H27.7833L28.5702 196.142ZM24.0558 192.373L25.602 188.286L27.1482 192.373H24.0558ZM35.4774 196.335C37.7967 196.335 39.343 194.996 39.343 193.339C39.343 191.765 38.2247 191.144 36.7475 190.688L34.3453 189.915C33.7102 189.722 33.4203 189.432 33.4203 189.004C33.4203 188.438 34.0278 187.955 34.9804 187.955C36.071 187.955 36.9684 188.493 37.3687 189.28L39.1221 188.769C38.5975 187.43 37.0512 186.284 34.9666 186.284C32.9509 186.284 31.4875 187.554 31.5013 189.059C31.4875 190.302 32.4125 191.116 33.6826 191.517L36.1538 192.29C37.0788 192.594 37.424 192.939 37.424 193.449C37.424 194.085 36.7199 194.664 35.5878 194.664C34.1934 194.664 33.2132 193.864 32.8267 192.856L31.0181 193.408C31.5566 194.913 33.1166 196.335 35.4774 196.335ZM44.938 196.335C47.2574 196.335 48.8036 194.996 48.8036 193.339C48.8036 191.765 47.6854 191.144 46.2081 190.688L43.806 189.915C43.1709 189.722 42.881 189.432 42.881 189.004C42.881 188.438 43.4884 187.955 44.441 187.955C45.5317 187.955 46.429 188.493 46.8294 189.28L48.5827 188.769C48.0581 187.43 46.5119 186.284 44.4272 186.284C42.4116 186.284 40.9482 187.554 40.962 189.059C40.9482 190.302 41.8732 191.116 43.1433 191.517L45.6145 192.29C46.5395 192.594 46.8846 192.939 46.8846 193.449C46.8846 194.085 46.1805 194.664 45.0485 194.664C43.6541 194.664 42.6739 193.864 42.2873 192.856L40.4788 193.408C41.0172 194.913 42.5773 196.335 44.938 196.335ZM55.1169 196.335C58.0299 196.335 60.1836 194.154 60.1836 191.296C60.1836 188.452 58.0299 186.284 55.1169 186.284C52.1901 186.284 50.0364 188.452 50.0364 191.296C50.0364 194.154 52.1901 196.335 55.1169 196.335ZM55.1169 194.582C53.1979 194.582 51.9554 193.146 51.9554 191.296C51.9554 189.487 53.1979 188.038 55.1169 188.038C57.0221 188.038 58.2784 189.487 58.2784 191.296C58.2784 193.146 57.0221 194.582 55.1169 194.582ZM66.6673 196.335C69.2213 196.335 70.8504 194.775 71.2922 193.229L69.456 192.759C69.1385 193.712 68.1031 194.554 66.6397 194.554C64.7345 194.554 63.5196 193.022 63.5196 191.282C63.5196 189.542 64.7345 188.065 66.6397 188.065C68.1031 188.065 69.1385 188.935 69.456 189.874L71.306 189.418C70.8642 187.886 69.2351 186.284 66.6259 186.284C63.7543 186.284 61.5868 188.452 61.5868 191.296C61.5868 194.154 63.7543 196.335 66.6673 196.335ZM73.0387 196.142H74.9577V186.478H73.0387V196.142ZM84.2151 196.142H86.1893L82.4756 186.478H80.0182L76.3183 196.142H78.2787L79.0794 194.043H83.4282L84.2151 196.142ZM79.7007 192.373L81.2469 188.286L82.7932 192.373H79.7007ZM94.0547 186.478H85.6747V188.19H88.919V196.142H90.8104V188.19H94.0547V186.478ZM102.693 188.19V186.478H95.5694V196.142H102.679V194.43H97.4194V192.055H101.989V190.398H97.4194V188.19H102.693Z" fill="white"/>
<path fill-rule="evenodd" clip-rule="evenodd" d="M6 148H166.795V116.04C166.795 112.256 166.795 110.364 166.177 108.872C165.353 106.882 163.772 105.301 161.782 104.477C160.29 103.858 158.398 103.858 154.614 103.858H18.1815C14.3976 103.858 12.5056 103.858 11.0132 104.477C9.02335 105.301 7.4424 106.882 6.61817 108.872C6 110.364 6 112.256 6 116.04V148Z" fill="#FFE959"/>
<g clip-path="url(#clip3_16901_201478)">
<path d="M60.9064 121.911H63.6838L59.4757 136.036H55.506L51.2979 121.911H54.0752L57.4908 133.683L60.9064 121.911Z" fill="black"/>
<path d="M71.3928 136.047H69.2887L69.0958 135.346C68.1802 135.94 67.112 136.257 66.0204 136.257C64.1337 136.257 63.3271 134.963 63.3271 133.182C63.3271 131.078 64.2389 130.275 66.3395 130.275H68.8223V129.195C68.8223 128.048 68.5032 127.645 66.848 127.645C65.8858 127.654 64.9271 127.761 63.9864 127.964L63.6673 125.989C64.8212 125.671 66.0122 125.507 67.2092 125.502C70.4529 125.502 71.4173 126.649 71.4173 129.237L71.3928 136.047ZM68.8083 132.144H66.8971C66.0484 132.144 65.817 132.379 65.817 133.164C65.817 133.883 66.0484 134.216 66.869 134.216C67.5541 134.205 68.2255 134.023 68.8223 133.687L68.8083 132.144Z" fill="black"/>
<path d="M75.4669 125.709V132.919C75.4669 133.47 75.6984 133.747 76.2945 133.747C76.8907 133.747 78.0479 133.364 78.9877 132.877V125.709H81.5757V136.047H79.6014L79.3489 135.177C78.0604 135.823 76.6508 136.193 75.2109 136.261C73.4926 136.261 72.8789 135.051 72.8789 133.206V125.72L75.4669 125.709Z" fill="black"/>
<path d="M82.9541 136.047V121.497L85.5421 121.146V136.047H82.9541Z" fill="black"/>
<path d="M93.26 135.848C92.5301 136.103 91.7641 136.239 90.9911 136.251C89.1044 136.251 88.1471 135.36 88.1471 133.516V127.765H86.6006V125.71H88.1471V123.143L90.7351 122.792V125.72H93.3862L93.2179 127.775H90.7351V133.186C90.719 133.312 90.7323 133.439 90.7738 133.558C90.8153 133.678 90.884 133.786 90.9744 133.874C91.0648 133.963 91.1745 134.029 91.2948 134.068C91.4152 134.106 91.5429 134.117 91.6679 134.098C92.1069 134.085 92.5422 134.013 92.9619 133.884L93.26 135.848Z" fill="black"/>
<path d="M20.6172 118.093L31.8003 139.856L43.0606 118.093H20.6172ZM30.0469 126.733H28.2935V124.952H30.0469V126.733ZM30.0469 124.061H28.2935V122.28H30.0469V124.061ZM32.7191 129.406H30.9482V127.631H32.7296L32.7191 129.406ZM32.7191 126.733H30.9482V124.952H32.7296L32.7191 126.733ZM32.7191 124.061H30.9482V122.28H32.7296L32.7191 124.061ZM35.3772 126.733H33.6063V124.952H35.3878L35.3772 126.733ZM33.5958 124.061V122.28H35.3772V124.061H33.5958Z" fill="black"/>
</g>
<g opacity="0.95">
<path d="M84.5435 260.987L75.2539 266.345V266.35V279.218L78.7432 281.233V268.36L84.5435 265.013V260.987Z" fill="white"/>
<path d="M88.2515 260.987V271.238H84.5432V267.413L81.0518 269.428V282.562L84.5432 284.581V274.359H88.2515V278.159L91.7409 276.144V263.002L88.2515 260.987Z" fill="white"/>
<path d="M88.252 284.585L97.5416 279.226V279.222V266.354L94.0501 264.339V277.212L88.252 280.559V284.585Z" fill="white"/>
</g>
</g>
<g clip-path="url(#clip4_16901_201478)">
<path d="M451.517 155.897V287.016C451.517 289.906 451.494 290.824 451.282 291.616L454.028 292.352L451.282 291.616C450.969 292.787 450.352 293.854 449.495 294.711C448.916 295.291 448.132 295.77 445.629 297.214L379.849 335.187C377.347 336.632 376.54 337.071 375.749 337.283C374.578 337.597 373.346 337.597 372.176 337.283C371.384 337.071 370.577 336.632 368.075 335.187L302.295 297.214C299.793 295.77 299.009 295.291 298.429 294.711C297.572 293.854 296.956 292.787 296.642 291.616L293.897 292.352L296.642 291.616C296.43 290.824 296.407 289.906 296.407 287.016V155.897C296.407 153.966 296.408 152.661 296.477 151.647C296.545 150.66 296.667 150.159 296.809 149.817C297.344 148.523 298.372 147.496 299.665 146.96C300.008 146.818 300.508 146.696 301.496 146.629C302.509 146.56 303.815 146.558 305.746 146.558H442.178C444.109 146.558 445.415 146.56 446.428 146.629C447.416 146.696 447.917 146.818 448.259 146.96C449.552 147.496 450.58 148.523 451.116 149.817C451.257 150.159 451.379 150.66 451.447 151.647C451.516 152.661 451.517 153.966 451.517 155.897Z" fill="black" stroke="black" stroke-width="5.68468"/>
<g opacity="0.94">
<path d="M313.603 253.749H314.392V250.611H317.949V253.749H318.738V246.927H317.949V249.929H314.392V246.927H313.603V253.749ZM323.184 253.807C324.763 253.807 325.844 252.794 326.068 251.488H325.25C325.065 252.326 324.275 253.047 323.194 253.047C321.859 253.047 320.933 251.946 320.933 250.387C320.933 248.769 321.868 247.61 323.233 247.61C324.285 247.61 325.055 248.321 325.25 249.169H326.068C325.864 247.863 324.782 246.869 323.242 246.869C321.41 246.869 320.095 248.301 320.095 250.377C320.095 252.394 321.42 253.807 323.184 253.807ZM330.122 253.807C331.7 253.807 332.782 252.794 333.006 251.488H332.188C332.002 252.326 331.213 253.047 330.131 253.047C328.796 253.047 327.87 251.946 327.87 250.387C327.87 248.769 328.806 247.61 330.17 247.61C331.223 247.61 331.993 248.321 332.188 249.169H333.006C332.802 247.863 331.72 246.869 330.18 246.869C328.348 246.869 327.032 248.301 327.032 250.377C327.032 252.394 328.358 253.807 330.122 253.807ZM334.442 253.749L335.125 251.907H338.058L338.76 253.749H339.617L336.996 246.927H336.187L333.585 253.739L334.442 253.749ZM335.368 251.176L336.596 247.814L337.824 251.176H335.368ZM342.976 253.846C344.544 253.846 345.548 252.463 345.548 250.377C345.548 248.282 344.554 246.888 342.995 246.888C341.436 246.888 340.432 248.282 340.432 250.377C340.432 252.463 341.426 253.846 342.976 253.846ZM342.995 253.155C341.874 253.155 341.182 252.063 341.182 250.348C341.182 248.672 341.865 247.58 342.966 247.58C344.096 247.58 344.798 248.691 344.798 250.387C344.798 252.063 344.106 253.155 342.995 253.155ZM346.97 250.874H350.381V250.309H346.97V250.874Z" fill="#F85C94"/>
<path d="M354.348 253.827C355.976 253.827 357.067 252.375 357.067 250.338C357.067 248.301 355.985 246.84 354.368 246.84C352.74 246.84 351.659 248.301 351.659 250.358C351.659 252.385 352.731 253.827 354.348 253.827ZM354.378 252.901C353.364 252.901 352.74 251.849 352.74 250.289C352.74 248.779 353.335 247.775 354.339 247.775C355.352 247.775 355.995 248.857 355.995 250.377C355.995 251.858 355.372 252.901 354.378 252.901ZM360.496 253.827C362.124 253.827 363.215 252.375 363.215 250.338C363.215 248.301 362.133 246.84 360.516 246.84C358.888 246.84 357.806 248.301 357.806 250.358C357.806 252.385 358.878 253.827 360.496 253.827ZM360.525 252.901C359.512 252.901 358.888 251.849 358.888 250.289C358.888 248.779 359.483 247.775 360.486 247.775C361.5 247.775 362.143 248.857 362.143 250.377C362.143 251.858 361.519 252.901 360.525 252.901ZM363.915 253.749H368.583V252.755H365.406L366.42 251.858C367.55 250.855 368.535 250.153 368.535 248.945C368.535 247.736 367.57 246.84 366.264 246.84C364.87 246.84 363.896 247.736 363.837 249.071H364.958C365.046 248.321 365.552 247.834 366.254 247.834C366.975 247.834 367.453 248.292 367.453 248.993C367.453 249.792 366.702 250.309 365.465 251.371L363.915 252.706V253.749Z" fill="white"/>
</g>
<path d="M437.691 207.044L439.294 210.521L443.097 210.972L440.286 213.572L441.032 217.328L437.691 215.457L434.349 217.328L435.095 213.572L432.284 210.972L436.087 210.521L437.691 207.044Z" fill="white"/>
<path d="M437.691 222.635L439.294 226.112L443.097 226.563L440.286 229.163L441.032 232.918L437.691 231.048L434.349 232.918L435.095 229.163L432.284 226.563L436.087 226.112L437.691 222.635Z" fill="black"/>
<path d="M437.69 238.225L439.293 241.702L443.096 242.153L440.285 244.752L441.031 248.508L437.69 246.638L434.348 248.508L435.094 244.752L432.283 242.153L436.086 241.702L437.69 238.225Z" fill="black"/>
<path opacity="0.95" d="M318.345 218.323C320.596 218.323 322.252 217.039 322.846 215.424L321.797 215.148C321.313 216.363 320.057 217.288 318.331 217.288C315.984 217.288 314.438 215.451 314.438 213.27C314.438 211.144 315.984 209.336 318.331 209.336C320.057 209.336 321.327 210.274 321.797 211.475L322.873 211.213C322.294 209.598 320.609 208.3 318.331 208.3C315.487 208.3 313.334 210.468 313.334 213.284C313.334 216.142 315.487 218.323 318.345 218.323ZM331.714 209.487V208.48H324.908V218.144H331.701V217.136H325.999V213.712H331.01V212.746H325.999V209.487H331.714ZM340.371 218.144H341.641L339.046 214.292C340.62 214.002 341.462 212.718 341.462 211.42C341.462 210.012 340.385 208.48 338.397 208.48H333.924V218.144H335.015V214.347H337.845L340.371 218.144ZM335.015 209.474H338.369C339.626 209.474 340.399 210.412 340.399 211.42C340.399 212.442 339.64 213.367 338.356 213.367H335.015V209.474ZM351.081 208.48H342.839V209.487H346.415V218.144H347.52V209.487H351.081V208.48ZM352.737 218.144H353.842V208.48H352.737V218.144ZM363.029 209.487V208.48H356.333V218.144H357.438V213.85H362.325V212.87H357.438V209.487H363.029ZM364.742 218.144H365.847V208.48H364.742V218.144ZM375.145 209.487V208.48H368.338V218.144H375.131V217.136H369.429V213.712H374.441V212.746H369.429V209.487H375.145ZM381.026 208.48H377.354V218.144H381.026C384.022 218.144 385.776 216.087 385.776 213.312C385.776 210.537 384.022 208.48 381.026 208.48ZM381.013 217.136H378.445V209.474H381.013C383.373 209.474 384.671 211.158 384.671 213.284C384.671 215.479 383.373 217.136 381.013 217.136ZM320.706 236.144H322.68L318.966 226.48H316.509L312.809 236.144H314.77L315.57 234.045H319.919L320.706 236.144ZM316.192 232.375L317.738 228.288L319.284 232.375H316.192ZM327.613 236.337C329.932 236.337 331.479 234.998 331.479 233.341C331.479 231.767 330.36 231.146 328.883 230.69L326.481 229.917C325.846 229.724 325.556 229.434 325.556 229.006C325.556 228.44 326.164 227.957 327.116 227.957C328.207 227.957 329.104 228.495 329.504 229.282L331.258 228.771C330.733 227.432 329.187 226.286 327.102 226.286C325.087 226.286 323.623 227.556 323.637 229.061C323.623 230.304 324.548 231.118 325.818 231.519L328.29 232.292C329.215 232.595 329.56 232.941 329.56 233.451C329.56 234.087 328.856 234.666 327.724 234.666C326.329 234.666 325.349 233.866 324.962 232.858L323.154 233.41C323.692 234.915 325.252 236.337 327.613 236.337ZM337.074 236.337C339.393 236.337 340.939 234.998 340.939 233.341C340.939 231.767 339.821 231.146 338.344 230.69L335.942 229.917C335.307 229.724 335.017 229.434 335.017 229.006C335.017 228.44 335.624 227.957 336.577 227.957C337.667 227.957 338.565 228.495 338.965 229.282L340.718 228.771C340.194 227.432 338.648 226.286 336.563 226.286C334.547 226.286 333.084 227.556 333.098 229.061C333.084 230.304 334.009 231.118 335.279 231.519L337.75 232.292C338.675 232.595 339.02 232.941 339.02 233.451C339.02 234.087 338.316 234.666 337.184 234.666C335.79 234.666 334.81 233.866 334.423 232.858L332.615 233.41C333.153 234.915 334.713 236.337 337.074 236.337ZM347.253 236.337C350.166 236.337 352.319 234.156 352.319 231.298C352.319 228.454 350.166 226.286 347.253 226.286C344.326 226.286 342.172 228.454 342.172 231.298C342.172 234.156 344.326 236.337 347.253 236.337ZM347.253 234.584C345.334 234.584 344.091 233.148 344.091 231.298C344.091 229.489 345.334 228.04 347.253 228.04C349.158 228.04 350.414 229.489 350.414 231.298C350.414 233.148 349.158 234.584 347.253 234.584ZM358.803 236.337C361.357 236.337 362.986 234.777 363.428 233.231L361.592 232.761C361.274 233.714 360.239 234.556 358.775 234.556C356.87 234.556 355.655 233.023 355.655 231.284C355.655 229.544 356.87 228.067 358.775 228.067C360.239 228.067 361.274 228.937 361.592 229.876L363.442 229.42C363 227.888 361.371 226.286 358.762 226.286C355.89 226.286 353.723 228.454 353.723 231.298C353.723 234.156 355.89 236.337 358.803 236.337ZM365.174 236.144H367.093V226.48H365.174V236.144ZM376.351 236.144H378.325L374.611 226.48H372.154L368.454 236.144H370.414L371.215 234.045H375.564L376.351 236.144ZM371.836 232.375L373.383 228.288L374.929 232.375H371.836ZM386.19 226.48H377.81V228.191H381.055V236.144H382.946V228.191H386.19V226.48ZM394.829 228.191V226.48H387.705V236.144H394.815V234.432H389.555V232.057H394.125V230.4H389.555V228.191H394.829Z" fill="white"/>
<path fill-rule="evenodd" clip-rule="evenodd" d="M453.932 156.043V189.026H293.137V156.043C293.137 152.259 293.137 150.367 293.755 148.875C294.579 146.885 296.16 145.304 298.15 144.48C299.642 143.861 301.534 143.861 305.318 143.861H441.751C445.535 143.861 447.426 143.861 448.919 144.48C450.909 145.304 452.49 146.885 453.314 148.875C453.932 150.367 453.932 152.259 453.932 156.043ZM370.809 343.587C370.865 343.604 370.921 343.62 370.976 343.635C372.651 344.09 374.417 344.09 376.092 343.635C376.148 343.62 376.204 343.604 376.26 343.587H370.809Z" fill="#E03875"/>
<g clip-path="url(#clip5_16901_201478)">
<path d="M342.62 165.472C342.62 162.952 344.088 161.483 347.517 161.483C348.782 161.483 350.043 161.635 351.272 161.938L350.982 164.191C349.872 163.983 348.745 163.869 347.616 163.85C345.816 163.85 345.225 164.468 345.225 165.936V171.215C345.225 172.68 345.802 173.301 347.616 173.301C348.745 173.282 349.872 173.168 350.982 172.96L351.272 175.213C350.043 175.515 348.782 175.668 347.517 175.667C344.102 175.667 342.62 174.199 342.62 171.679V165.472Z" fill="white"/>
<path d="M356.834 175.657C353.382 175.657 352.457 173.752 352.457 171.703V169.149C352.457 167.101 353.386 165.182 356.838 165.182C360.29 165.182 361.215 167.084 361.215 169.149V171.703C361.212 173.752 360.283 175.657 356.834 175.657ZM356.834 167.329C355.489 167.329 354.974 167.93 354.974 169.067V171.772C354.974 172.909 355.489 173.506 356.834 173.506C358.18 173.506 358.692 172.909 358.692 171.772V169.067C358.692 167.947 358.176 167.329 356.834 167.329Z" fill="white"/>
<path d="M368.877 175.459V168.425C368.877 167.889 368.648 167.619 368.071 167.619C367.494 167.619 366.364 167.991 365.446 168.466V175.459H362.926V165.389H364.848L365.091 166.24C366.345 165.611 367.718 165.252 369.12 165.185C370.793 165.185 371.394 166.363 371.394 168.159V175.459H368.877Z" fill="white"/>
<path d="M376.58 175.657C375.402 175.637 374.232 175.442 373.111 175.076L373.453 173.157C374.427 173.435 375.434 173.581 376.447 173.591C377.564 173.591 377.728 173.342 377.728 172.567C377.728 171.949 377.605 171.638 375.973 171.245C373.514 170.648 373.224 170.026 373.224 168.084C373.224 166.059 374.112 165.171 376.98 165.171C377.995 165.168 379.007 165.283 379.995 165.512L379.773 167.537C378.859 167.369 377.933 167.272 377.004 167.247C375.908 167.247 375.723 167.496 375.723 168.114C375.723 168.92 375.785 168.982 377.151 169.333C379.957 170.078 380.224 170.45 380.224 172.516C380.217 174.458 379.619 175.657 376.58 175.657Z" fill="white"/>
<path d="M384.389 165.39V172.413C384.389 172.949 384.614 173.219 385.195 173.219C385.775 173.219 386.902 172.847 387.817 172.372V165.39H390.337V175.459H388.418L388.169 174.612C386.914 175.241 385.542 175.601 384.14 175.667C382.467 175.667 381.869 174.489 381.869 172.69V165.39H384.389Z" fill="white"/>
<path d="M392.506 175.459V161.279L395.026 160.938V175.459H392.506Z" fill="white"/>
<path d="M323.604 179.416C321.84 179.417 320.101 178.988 318.54 178.165C316.979 177.341 315.642 176.15 314.646 174.693C313.65 173.236 313.025 171.558 312.824 169.805C312.624 168.051 312.854 166.275 313.495 164.631C314.137 162.987 315.169 161.524 316.504 160.37C317.839 159.215 319.436 158.404 321.155 158.006C322.874 157.609 324.665 157.637 326.371 158.088C328.077 158.539 329.648 159.4 330.946 160.596L328.381 163.286C327.358 162.364 326.089 161.757 324.728 161.541C323.367 161.325 321.972 161.508 320.713 162.068C319.454 162.628 318.384 163.541 317.634 164.697C316.883 165.852 316.483 167.201 316.483 168.579C316.483 169.957 316.883 171.305 317.634 172.461C318.384 173.617 319.454 174.53 320.713 175.09C321.972 175.65 323.367 175.833 324.728 175.617C326.089 175.4 327.358 174.794 328.381 173.871L330.946 176.552C328.946 178.396 326.325 179.419 323.604 179.416Z" fill="white"/>
<path d="M332.332 173.99C332.157 173.99 331.985 173.938 331.839 173.841C331.693 173.743 331.579 173.605 331.512 173.442C331.445 173.28 331.427 173.102 331.461 172.929C331.496 172.757 331.58 172.599 331.704 172.475C331.829 172.351 331.987 172.266 332.159 172.232C332.331 172.198 332.51 172.215 332.672 172.282C332.834 172.35 332.973 172.463 333.07 172.609C333.168 172.755 333.22 172.927 333.22 173.103C333.22 173.338 333.126 173.564 332.96 173.73C332.793 173.897 332.568 173.99 332.332 173.99Z" fill="white"/>
<path d="M323.536 170.921C323.071 170.921 322.617 170.783 322.231 170.525C321.844 170.267 321.543 169.9 321.365 169.471C321.188 169.042 321.141 168.569 321.232 168.114C321.322 167.658 321.546 167.239 321.875 166.911C322.203 166.582 322.622 166.358 323.077 166.268C323.533 166.177 324.005 166.224 324.435 166.401C324.864 166.579 325.231 166.88 325.489 167.267C325.747 167.653 325.885 168.107 325.885 168.572C325.885 169.195 325.637 169.792 325.197 170.233C324.756 170.674 324.159 170.921 323.536 170.921Z" fill="white"/>
<path d="M333.353 170.955C333.177 170.955 333.005 170.903 332.859 170.806C332.713 170.708 332.6 170.569 332.532 170.407C332.465 170.245 332.448 170.066 332.482 169.894C332.516 169.722 332.601 169.564 332.725 169.44C332.849 169.316 333.007 169.231 333.179 169.197C333.352 169.162 333.53 169.18 333.692 169.247C333.855 169.314 333.993 169.428 334.091 169.574C334.188 169.72 334.24 169.892 334.24 170.067C334.239 170.303 334.146 170.528 333.979 170.694C333.813 170.861 333.588 170.954 333.353 170.955Z" fill="white"/>
<path d="M330.71 170.853C330.534 170.853 330.363 170.801 330.217 170.703C330.071 170.606 329.957 170.467 329.89 170.305C329.823 170.142 329.805 169.964 329.839 169.792C329.874 169.62 329.958 169.461 330.082 169.337C330.206 169.213 330.365 169.128 330.537 169.094C330.709 169.06 330.888 169.078 331.05 169.145C331.212 169.212 331.351 169.326 331.448 169.472C331.546 169.618 331.598 169.789 331.598 169.965C331.598 170.2 331.504 170.426 331.338 170.593C331.171 170.759 330.945 170.853 330.71 170.853Z" fill="white"/>
<path d="M333.353 167.968C333.177 167.968 333.005 167.916 332.859 167.818C332.713 167.721 332.6 167.582 332.532 167.42C332.465 167.258 332.448 167.079 332.482 166.907C332.516 166.735 332.601 166.577 332.725 166.452C332.849 166.328 333.007 166.244 333.179 166.209C333.352 166.175 333.53 166.193 333.692 166.26C333.855 166.327 333.993 166.441 334.091 166.587C334.188 166.733 334.24 166.905 334.24 167.08C334.239 167.315 334.146 167.541 333.979 167.707C333.813 167.873 333.588 167.967 333.353 167.968Z" fill="white"/>
<path d="M330.71 168.069C330.534 168.069 330.363 168.017 330.217 167.92C330.071 167.822 329.957 167.684 329.89 167.521C329.823 167.359 329.805 167.181 329.839 167.009C329.874 166.836 329.958 166.678 330.082 166.554C330.206 166.43 330.365 166.345 330.537 166.311C330.709 166.277 330.888 166.294 331.05 166.362C331.212 166.429 331.351 166.543 331.448 166.688C331.546 166.834 331.598 167.006 331.598 167.182C331.598 167.417 331.504 167.643 331.338 167.809C331.171 167.976 330.945 168.069 330.71 168.069Z" fill="white"/>
<path d="M332.383 164.98C332.207 164.98 332.036 164.928 331.89 164.83C331.744 164.732 331.63 164.594 331.563 164.432C331.496 164.269 331.478 164.091 331.512 163.919C331.546 163.746 331.631 163.588 331.755 163.464C331.879 163.34 332.037 163.255 332.21 163.221C332.382 163.187 332.56 163.204 332.723 163.272C332.885 163.339 333.023 163.453 333.121 163.599C333.219 163.745 333.271 163.916 333.271 164.092C333.271 164.327 333.177 164.553 333.011 164.72C332.844 164.886 332.618 164.98 332.383 164.98Z" fill="white"/>
</g>
<g opacity="0.95">
<path d="M371.68 300.99L362.391 306.348V306.353V319.221L365.88 321.236V308.363L371.68 305.016V300.99Z" fill="white"/>
<path d="M375.388 300.99V311.241H371.68V307.416L368.188 309.431V322.565L371.68 324.583V314.362H375.388V318.162L378.878 316.147V303.005L375.388 300.99Z" fill="white"/>
<path d="M375.389 324.587L384.678 319.229V319.225V306.357L381.187 304.342V317.215L375.389 320.562V324.587Z" fill="white"/>
</g>
</g>
<defs>
<filter id="filter0_d_16901_201478" x="0.80042" y="103.858" width="171.962" height="210.414" filterUnits="userSpaceOnUse" color-interpolation-filters="sRGB">
<feFlood flood-opacity="0" result="BackgroundImageFix"/>
<feColorMatrix in="SourceAlpha" type="matrix" values="0 0 0 0 0 0 0 0 0 0 0 0 0 0 0 0 0 0 127 0" result="hardAlpha"/>
<feMorphology radius="8.66597" operator="erode" in="SourceAlpha" result="effect1_dropShadow_16901_201478"/>
<feOffset dy="6.93277"/>
<feGaussianBlur stdDeviation="6.93277"/>
<feColorMatrix type="matrix" values="0 0 0 0 0.170885 0 0 0 0 0.183125 0 0 0 0 0.2125 0 0 0 0.2 0"/>
<feBlend mode="normal" in2="BackgroundImageFix" result="effect1_dropShadow_16901_201478"/>
<feBlend mode="normal" in="SourceGraphic" in2="effect1_dropShadow_16901_201478" result="shape"/>
</filter>
<linearGradient id="paint0_linear_16901_201478" x1="407.058" y1="252.762" x2="433.971" y2="424.587" gradientUnits="userSpaceOnUse">
<stop stop-color="#922479"/>
<stop offset="1" stop-color="#96267A" stop-opacity="0"/>
</linearGradient>
<linearGradient id="paint1_linear_16901_201478" x1="364.863" y1="274.926" x2="314.702" y2="405.877" gradientUnits="userSpaceOnUse">
<stop stop-color="#E771A4"/>
<stop offset="1" stop-color="#F81696" stop-opacity="0.14"/>
</linearGradient>
<linearGradient id="paint2_linear_16901_201478" x1="276.092" y1="126.457" x2="304.871" y2="310.196" gradientUnits="userSpaceOnUse">
<stop stop-color="#532A7D"/>
<stop offset="1" stop-color="#33197C" stop-opacity="0"/>
</linearGradient>
<linearGradient id="paint3_linear_16901_201478" x1="230.97" y1="150.158" x2="177.331" y2="290.188" gradientUnits="userSpaceOnUse">
<stop stop-color="#76A0F3"/>
<stop offset="1" stop-color="#522AC2" stop-opacity="0"/>
</linearGradient>
<linearGradient id="paint4_linear_16901_201478" x1="119.778" y1="229.463" x2="126.596" y2="397.016" gradientUnits="userSpaceOnUse">
<stop stop-color="#9B7003"/>
<stop offset="1" stop-color="#DF706F" stop-opacity="0"/>
</linearGradient>
<linearGradient id="paint5_linear_16901_201478" x1="77" y1="242" x2="50.2518" y2="388.102" gradientUnits="userSpaceOnUse">
<stop offset="0.19001" stop-color="#FECA13" stop-opacity="0.76"/>
<stop offset="1" stop-color="#E36666" stop-opacity="0.06"/>
</linearGradient>
<clipPath id="clip0_16901_201478">
<rect width="215" height="215" fill="white" transform="translate(134)"/>
</clipPath>
<clipPath id="clip1_16901_201478">
<rect width="105.884" height="29.7692" fill="white" transform="translate(174.52 22.3271)"/>
</clipPath>
<clipPath id="clip2_16901_201478">
<rect width="161.563" height="198.281" fill="white" transform="translate(6 103.858)"/>
</clipPath>
<clipPath id="clip3_16901_201478">
<rect width="72.9412" height="30.8597" fill="white" transform="translate(20.6172 113.604)"/>
</clipPath>
<clipPath id="clip4_16901_201478">
<rect width="161.563" height="198.281" fill="white" transform="translate(293.137 143.86)"/>
</clipPath>
<clipPath id="clip5_16901_201478">
<rect width="82.2895" height="30.0476" fill="white" transform="translate(312.754 153.606)"/>
</clipPath>
</defs>
</svg>
