<svg width="1945" height="1291" viewBox="0 0 1945 1291" fill="none" xmlns="http://www.w3.org/2000/svg">
<mask id="mask0_21399_283320" style="mask-type:alpha" maskUnits="userSpaceOnUse" x="0" y="0" width="1945" height="1291">
<rect width="1945" height="1291" fill="url(#paint0_angular_21399_283320)"/>
</mask>
<g mask="url(#mask0_21399_283320)">
<path d="M1714.52 -379.344L2662.42 -15.0272L1714.52 348.391L766.621 -15.0269L1714.52 -379.344Z" fill="#FFE27D"/>
<path d="M1714.52 -379.344L2662.42 -15.0272L1714.52 348.391L766.621 -15.0269L1714.52 -379.344Z" fill="url(#paint1_linear_21399_283320)" fill-opacity="0.7"/>
<mask id="mask1_21399_283320" style="mask-type:alpha" maskUnits="userSpaceOnUse" x="766" y="-380" width="1897" height="729">
<path d="M1714.52 -379.344L2662.42 -15.0268L1714.52 348.391L766.619 -15.0272L1714.52 -379.344Z" fill="#FFE27D"/>
<path d="M1714.52 -379.344L2662.42 -15.0268L1714.52 348.391L766.619 -15.0272L1714.52 -379.344Z" fill="url(#paint2_linear_21399_283320)" fill-opacity="0.7"/>
</mask>
<g mask="url(#mask1_21399_283320)">
<g filter="url(#filter0_f_21399_283320)">
<path d="M2553.86 36.799L1712.74 381.791L1365.59 244.683L2553.86 36.799Z" fill="#DE7226" fill-opacity="0.8"/>
</g>
</g>
<path opacity="0.9" fill-rule="evenodd" clip-rule="evenodd" d="M2662.42 -15.476L1715.84 1229.06L1715.84 341.058L2662.42 -15.476Z" fill="url(#paint3_radial_21399_283320)"/>
<path opacity="0.9" fill-rule="evenodd" clip-rule="evenodd" d="M766.621 -15.4761L1715.84 1229.06L1715.84 341.058L766.621 -15.4761Z" fill="url(#paint4_radial_21399_283320)"/>
<g filter="url(#filter1_f_21399_283320)">
<path d="M16 79H602H1958L1978 1379L16 1119V79Z" fill="url(#paint5_linear_21399_283320)" fill-opacity="0.1"/>
</g>
</g>
<defs>
<filter id="filter0_f_21399_283320" x="1246.94" y="-81.8533" width="1425.58" height="582.297" filterUnits="userSpaceOnUse" color-interpolation-filters="sRGB">
<feFlood flood-opacity="0" result="BackgroundImageFix"/>
<feBlend mode="normal" in="SourceGraphic" in2="BackgroundImageFix" result="shape"/>
<feGaussianBlur stdDeviation="59.3262" result="effect1_foregroundBlur_21399_283320"/>
</filter>
<filter id="filter1_f_21399_283320" x="-84" y="-21" width="2162" height="1500" filterUnits="userSpaceOnUse" color-interpolation-filters="sRGB">
<feFlood flood-opacity="0" result="BackgroundImageFix"/>
<feBlend mode="normal" in="SourceGraphic" in2="BackgroundImageFix" result="shape"/>
<feGaussianBlur stdDeviation="50" result="effect1_foregroundBlur_21399_283320"/>
</filter>
<radialGradient id="paint0_angular_21399_283320" cx="0" cy="0" r="1" gradientUnits="userSpaceOnUse" gradientTransform="translate(1042 463.654) rotate(88.364) scale(910.664 1372.14)">
<stop stop-color="#0C0C0E" stop-opacity="0"/>
<stop offset="0.695222" stop-color="#0C0C0E"/>
</radialGradient>
<linearGradient id="paint1_linear_21399_283320" x1="1986.99" y1="216.554" x2="1489.99" y2="-373.63" gradientUnits="userSpaceOnUse">
<stop offset="0.0170241" stop-color="#FFA24D"/>
<stop offset="1" stop-color="#F7D5AC"/>
</linearGradient>
<linearGradient id="paint2_linear_21399_283320" x1="1986.99" y1="216.555" x2="1489.99" y2="-373.63" gradientUnits="userSpaceOnUse">
<stop offset="0.0170241" stop-color="#FFA24D"/>
<stop offset="1" stop-color="#FDF5EA"/>
</linearGradient>
<radialGradient id="paint3_radial_21399_283320" cx="0" cy="0" r="1" gradientUnits="userSpaceOnUse" gradientTransform="translate(1753.02 327.844) rotate(1.64522) scale(3074.72 3359.53)">
<stop stop-color="#411D19"/>
<stop offset="0.384641" stop-color="#471D1A"/>
</radialGradient>
<radialGradient id="paint4_radial_21399_283320" cx="0" cy="0" r="1" gradientUnits="userSpaceOnUse" gradientTransform="translate(1678.55 327.844) rotate(150.126) scale(1735.26 2385.13)">
<stop stop-color="#502521"/>
<stop offset="0.384641" stop-color="#7B332D"/>
</radialGradient>
<linearGradient id="paint5_linear_21399_283320" x1="2.00011" y1="530.051" x2="1758.98" y2="530.051" gradientUnits="userSpaceOnUse">
<stop offset="0.201136" stop-color="#7B42BC"/>
<stop offset="0.274643" stop-color="#6F89DE"/>
<stop offset="0.48087" stop-color="#63D0FF"/>
<stop offset="0.61257" stop-color="#DC477D"/>
<stop offset="0.70037" stop-color="#EC585D"/>
<stop offset="0.789191" stop-color="#60DEA9"/>
<stop offset="0.906598" stop-color="#14C6CB"/>
<stop offset="1" stop-color="#2E71E5"/>
</linearGradient>
</defs>
</svg>
