<svg width="373" height="286" viewBox="0 0 373 286" fill="none" xmlns="http://www.w3.org/2000/svg">
<mask id="mask0_1_3621" style="mask-type:alpha" maskUnits="userSpaceOnUse" x="0" y="0" width="373" height="286">
<path d="M0.605 24.2C0.605 11.1688 11.1688 0.605 24.2 0.605H348.8C361.831 0.605 372.395 11.1688 372.395 24.2V261.8C372.395 274.831 361.831 285.395 348.8 285.395H24.2C11.1689 285.395 0.605 274.831 0.605 261.8V24.2Z" fill="#16181D" stroke="#5D5F65" stroke-width="1.21"/>
</mask>
<g mask="url(#mask0_1_3621)">
<path opacity="0.5" d="M197.125 175.904L260.696 139.202L260.696 287.086L197.125 323.788L197.125 175.904Z" fill="url(#paint0_linear_1_3621)" fill-opacity="0.6"/>
<path opacity="0.5" d="M197.126 175.904L133.556 139.202L133.556 289.749L197.126 326.451L197.126 175.904Z" fill="url(#paint1_linear_1_3621)" fill-opacity="0.6"/>
<g clip-path="url(#clip0_1_3621)">
<path d="M256.57 37.2662V136.331C256.57 138.514 256.553 139.208 256.392 139.806C256.155 140.691 255.69 141.497 255.042 142.144L256.561 143.663L255.042 142.144C254.604 142.582 254.012 142.944 252.121 144.036L202.422 172.726C200.532 173.817 199.922 174.149 199.324 174.309C198.44 174.546 197.509 174.546 196.625 174.309C196.026 174.149 195.417 173.817 193.527 172.726L143.828 144.036C141.937 142.944 141.345 142.582 140.907 142.144C140.259 141.497 139.794 140.691 139.557 139.806C139.396 139.208 139.379 138.514 139.379 136.331V37.2662C139.379 35.8074 139.38 34.8209 139.432 34.0553C139.483 33.3089 139.575 32.9307 139.683 32.6722C140.087 31.695 140.864 30.9186 141.841 30.5138C142.099 30.4067 142.478 30.3145 143.224 30.2636C143.99 30.2114 144.976 30.2102 146.435 30.2102H249.514C250.973 30.2102 251.959 30.2114 252.725 30.2636C253.471 30.3145 253.85 30.4067 254.108 30.5138C255.085 30.9186 255.862 31.695 256.266 32.6722C256.373 32.9307 256.466 33.3089 256.517 34.0553C256.569 34.8209 256.57 35.8074 256.57 37.2662Z" fill="black" stroke="black" stroke-width="4.29496"/>
<g opacity="0.94">
<path d="M148.68 111.059V105.905H149.276V108.172H151.964V105.905H152.56V111.059H151.964V108.688H149.276V111.059H148.68ZM155.919 111.103C154.586 111.103 153.585 110.035 153.585 108.511C153.585 106.943 154.579 105.86 155.963 105.86C157.126 105.86 157.944 106.611 158.098 107.598H157.48C157.332 106.958 156.751 106.42 155.956 106.42C154.925 106.42 154.218 107.296 154.218 108.518C154.218 109.696 154.917 110.528 155.926 110.528C156.743 110.528 157.34 109.984 157.48 109.35H158.098C157.929 110.337 157.112 111.103 155.919 111.103ZM160.157 111.059V106.442H158.309V105.905H162.565V106.442H160.724V111.059H160.157ZM162.872 111.059L162.224 111.051L164.19 105.905H164.801L166.782 111.059H166.134L165.603 109.667H163.387L162.872 111.059ZM163.571 109.115H165.427L164.499 106.575L163.571 109.115ZM169.319 111.132C168.148 111.132 167.397 110.087 167.397 108.511C167.397 106.928 168.156 105.875 169.334 105.875C170.512 105.875 171.263 106.928 171.263 108.511C171.263 110.087 170.504 111.132 169.319 111.132ZM169.334 110.609C170.173 110.609 170.696 109.785 170.696 108.518C170.696 107.237 170.166 106.398 169.311 106.398C168.48 106.398 167.964 107.223 167.964 108.489C167.964 109.785 168.487 110.609 169.334 110.609ZM172.337 108.887V108.46H174.914V108.887H172.337Z" fill="#AC72F0"/>
<path d="M177.911 111.117C176.689 111.117 175.879 110.028 175.879 108.496C175.879 106.943 176.696 105.838 177.926 105.838C179.148 105.838 179.966 106.943 179.966 108.482C179.966 110.02 179.141 111.117 177.911 111.117ZM177.933 110.418C178.684 110.418 179.156 109.63 179.156 108.511C179.156 107.362 178.67 106.545 177.904 106.545C177.146 106.545 176.696 107.304 176.696 108.445C176.696 109.623 177.168 110.418 177.933 110.418ZM182.556 111.117C181.334 111.117 180.524 110.028 180.524 108.496C180.524 106.943 181.341 105.838 182.571 105.838C183.793 105.838 184.61 106.943 184.61 108.482C184.61 110.02 183.786 111.117 182.556 111.117ZM182.578 110.418C183.329 110.418 183.801 109.63 183.801 108.511C183.801 107.362 183.315 106.545 182.549 106.545C181.791 106.545 181.341 107.304 181.341 108.445C181.341 109.623 181.813 110.418 182.578 110.418ZM187.79 108.393C188.313 108.585 188.762 108.997 188.747 109.689C188.733 110.543 188.004 111.162 186.966 111.162C185.861 111.162 185.117 110.462 185.088 109.468H185.935C185.913 110.02 186.318 110.403 186.943 110.403C187.503 110.403 187.893 110.109 187.893 109.66C187.893 109.188 187.518 108.872 186.811 108.872H186.48V108.077H186.781C187.407 108.077 187.79 107.782 187.79 107.304C187.79 106.877 187.437 106.597 186.921 106.597C186.332 106.597 186.008 106.95 185.986 107.554H185.147C185.169 106.516 185.846 105.831 186.951 105.831C187.945 105.831 188.637 106.398 188.637 107.186C188.637 107.826 188.173 108.253 187.79 108.393Z" fill="white"/>
</g>
<path d="M246.21 75.3269L246.212 79.6184L250.294 78.2946L246.214 79.6232L248.734 83.0966L246.21 79.6262L243.685 83.0966L246.205 79.6232L242.125 78.2946L246.207 79.6184L246.21 75.3269Z" fill="white"/>
<path d="M246.21 87.1057L246.212 91.3972L250.294 90.0735L246.214 91.402L248.734 94.8754L246.21 91.405L243.685 94.8754L246.205 91.402L242.125 90.0735L246.207 91.3972L246.21 87.1057Z" fill="black"/>
<path d="M246.21 98.8848L246.212 103.176L250.294 101.853L246.214 103.181L248.734 106.654L246.21 103.184L243.685 106.654L246.205 103.181L242.125 101.853L246.207 103.176L246.21 98.8848Z" fill="black"/>
<path opacity="0.95" d="M152.264 83.5155C150.105 83.5155 148.477 81.8674 148.477 79.7083C148.477 77.5805 150.105 75.9428 152.253 75.9428C153.974 75.9428 155.247 76.9233 155.685 78.1437L154.871 78.3419C154.517 77.4344 153.557 76.7251 152.253 76.7251C150.48 76.7251 149.312 78.0916 149.312 79.6979C149.312 81.3459 150.48 82.7332 152.253 82.7332C153.557 82.7332 154.506 82.0343 154.871 81.1164L155.664 81.3251C155.216 82.5454 153.964 83.5155 152.264 83.5155ZM162.365 76.8399H158.046V79.3015H161.833V80.0317H158.046V82.6184H162.354V83.3799H157.222V76.0784H162.365V76.8399ZM168.905 83.3799L166.996 80.5115H164.858V83.3799H164.034V76.0784H167.414C168.916 76.0784 169.729 77.2362 169.729 78.3002C169.729 79.2806 169.093 80.2507 167.904 80.4697L169.865 83.3799H168.905ZM164.858 76.8295V79.7709H167.382C168.352 79.7709 168.926 79.072 168.926 78.3002C168.926 77.5387 168.342 76.8295 167.393 76.8295H164.858ZM176.997 76.0784V76.8399H174.306V83.3799H173.471V76.8399H170.77V76.0784H176.997ZM178.248 83.3799V76.0784H179.083V83.3799H178.248ZM186.024 76.8399H181.799V79.3954H185.492V80.136H181.799V83.3799H180.965V76.0784H186.024V76.8399ZM187.318 83.3799V76.0784H188.153V83.3799H187.318ZM195.177 76.8399H190.859V79.3015H194.646V80.0317H190.859V82.6184H195.167V83.3799H190.035V76.0784H195.177V76.8399ZM199.621 76.0784C201.885 76.0784 203.21 77.6326 203.21 79.7292C203.21 81.8257 201.885 83.3799 199.621 83.3799H196.847V76.0784H199.621ZM199.611 82.6184C201.395 82.6184 202.375 81.3668 202.375 79.7083C202.375 78.102 201.395 76.8295 199.611 76.8295H197.671V82.6184H199.611ZM154.047 97.3799L153.453 95.7944H150.167L149.562 97.3799H148.081L150.876 90.0784H152.733L155.539 97.3799H154.047ZM150.637 94.5323H152.973L151.805 91.4449L150.637 94.5323ZM159.266 97.5259C157.482 97.5259 156.304 96.4516 155.897 95.3146L157.263 94.8974C157.555 95.6588 158.296 96.2638 159.349 96.2638C160.205 96.2638 160.737 95.8257 160.737 95.3459C160.737 94.96 160.476 94.6992 159.777 94.4697L157.91 93.8856C156.95 93.5831 156.251 92.9677 156.262 92.029C156.251 90.892 157.357 89.9324 158.88 89.9324C160.455 89.9324 161.623 90.7982 162.02 91.8099L160.695 92.1959C160.392 91.6013 159.714 91.1945 158.89 91.1945C158.171 91.1945 157.712 91.5596 157.712 91.9873C157.712 92.3106 157.931 92.5296 158.411 92.6757L160.226 93.2598C161.342 93.604 162.186 94.0734 162.186 95.2625C162.186 96.5141 161.018 97.5259 159.266 97.5259ZM166.414 97.5259C164.63 97.5259 163.451 96.4516 163.045 95.3146L164.411 94.8974C164.703 95.6588 165.444 96.2638 166.497 96.2638C167.352 96.2638 167.884 95.8257 167.884 95.3459C167.884 94.96 167.624 94.6992 166.925 94.4697L165.058 93.8856C164.098 93.5831 163.399 92.9677 163.41 92.029C163.399 90.892 164.505 89.9324 166.028 89.9324C167.603 89.9324 168.771 90.7982 169.167 91.8099L167.843 92.1959C167.54 91.6013 166.862 91.1945 166.038 91.1945C165.319 91.1945 164.86 91.5596 164.86 91.9873C164.86 92.3106 165.079 92.5296 165.558 92.6757L167.373 93.2598C168.489 93.604 169.334 94.0734 169.334 95.2625C169.334 96.5141 168.166 97.5259 166.414 97.5259ZM174.104 97.5259C171.893 97.5259 170.266 95.8779 170.266 93.7187C170.266 91.57 171.893 89.9324 174.104 89.9324C176.305 89.9324 177.932 91.57 177.932 93.7187C177.932 95.8779 176.305 97.5259 174.104 97.5259ZM174.104 96.2012C175.544 96.2012 176.493 95.1164 176.493 93.7187C176.493 92.3523 175.544 91.2571 174.104 91.2571C172.654 91.2571 171.716 92.3523 171.716 93.7187C171.716 95.1164 172.654 96.2012 174.104 96.2012ZM182.831 97.5259C180.63 97.5259 178.992 95.8779 178.992 93.7187C178.992 91.57 180.63 89.9324 182.8 89.9324C184.771 89.9324 186.002 91.1424 186.336 92.3002L184.938 92.6444C184.698 91.9351 183.916 91.278 182.81 91.278C181.371 91.278 180.453 92.394 180.453 93.7083C180.453 95.0226 181.371 96.1804 182.81 96.1804C183.916 96.1804 184.698 95.5441 184.938 94.8244L186.325 95.179C185.991 96.3473 184.761 97.5259 182.831 97.5259ZM187.645 97.3799V90.0784H189.095V97.3799H187.645ZM196.089 97.3799L195.494 95.7944H192.209L191.604 97.3799H190.123L192.918 90.0784H194.775L197.58 97.3799H196.089ZM192.678 94.5323H195.015L193.846 91.4449L192.678 94.5323ZM203.523 90.0784V91.3718H201.072V97.3799H199.643V91.3718H197.192V90.0784H203.523ZM210.05 91.3718H206.065V93.0407H209.518V94.2924H206.065V96.0865H210.039V97.3799H204.667V90.0784H210.05V91.3718Z" fill="white"/>
<path fill-rule="evenodd" clip-rule="evenodd" d="M136.995 139.819V61.9496H258.347V37.266C258.347 34.4071 258.347 32.9777 257.88 31.8501C257.257 30.3467 256.062 29.1523 254.559 28.5295C253.431 28.0625 252.002 28.0625 249.143 28.0625H146.064C143.205 28.0625 141.776 28.0625 140.648 28.5295C139.145 29.1523 137.95 30.3467 137.328 31.8501C136.861 32.9777 136.861 34.4071 136.861 37.266V136.33C136.861 138.007 136.861 139.002 136.995 139.819Z" fill="#7B42BC"/>
<path fill-rule="evenodd" clip-rule="evenodd" d="M154.587 40.5312L159.191 43.1961V48.5287L154.587 45.8624V40.5312Z" fill="#EFEFF1"/>
<path fill-rule="evenodd" clip-rule="evenodd" d="M159.695 43.1961V48.5287L164.296 45.8624V40.5312L159.695 43.1961Z" fill="#EFEFF1"/>
<path fill-rule="evenodd" clip-rule="evenodd" d="M149.481 37.5554V42.8866L154.083 45.5529V40.2217L149.481 37.5554Z" fill="#EFEFF1"/>
<path fill-rule="evenodd" clip-rule="evenodd" d="M154.587 51.778L159.189 54.4443V49.1481V49.1131L154.587 46.4468V51.778Z" fill="#EFEFF1"/>
<path d="M173.516 50H172.023V42.9051H169.454V41.6493H176.091V42.9051H173.516V50ZM180.507 48.2697H181.867C181.606 49.4097 180.547 50.1273 179.054 50.1273C177.191 50.1273 176.068 48.8889 176.068 46.8634C176.068 44.8322 177.208 43.5532 179.043 43.5532C180.848 43.5532 181.931 44.7512 181.931 46.7361V47.1933H177.509V47.2685C177.544 48.3391 178.152 49.0104 179.095 49.0104C179.807 49.0104 180.299 48.7442 180.507 48.2697ZM179.037 44.6701C178.181 44.6701 177.579 45.2894 177.515 46.2384H180.495C180.466 45.2778 179.899 44.6701 179.037 44.6701ZM183.372 50V43.6748H184.755V44.6586H184.853C185.027 44.0336 185.709 43.5706 186.525 43.5706C186.734 43.5706 186.988 43.5938 187.122 43.6285V44.9363C187.012 44.8958 186.63 44.8553 186.387 44.8553C185.455 44.8553 184.807 45.434 184.807 46.3252V50H183.372ZM188.383 50V43.6748H189.766V44.6586H189.865C190.038 44.0336 190.721 43.5706 191.537 43.5706C191.745 43.5706 192 43.5938 192.133 43.6285V44.9363C192.023 44.8958 191.641 44.8553 191.398 44.8553C190.466 44.8553 189.818 45.434 189.818 46.3252V50H188.383ZM194.975 50.1042C193.753 50.1042 192.88 49.3634 192.88 48.206C192.88 47.0718 193.742 46.4063 195.281 46.3194L196.913 46.2211V45.6771C196.913 45.0463 196.497 44.6933 195.721 44.6933C195.061 44.6933 194.61 44.9306 194.477 45.3646H193.123C193.238 44.2593 194.286 43.5532 195.79 43.5532C197.417 43.5532 198.331 44.3403 198.331 45.6771V50H196.948V49.1319H196.85C196.497 49.7454 195.802 50.1042 194.975 50.1042ZM195.397 48.9988C196.265 48.9988 196.913 48.4317 196.913 47.6794V47.1644L195.484 47.2627C194.679 47.3148 194.303 47.61 194.303 48.1366C194.303 48.6806 194.76 48.9988 195.397 48.9988ZM200.524 50V44.8322H199.488V43.7153H200.524V43.0498C200.524 41.7882 201.167 41.169 202.573 41.169C202.88 41.169 203.14 41.1863 203.372 41.2269V42.2627C203.256 42.2454 203.082 42.228 202.88 42.228C202.203 42.228 201.936 42.5289 201.936 43.1308V43.7153H203.314V44.8322H201.954V50H200.524ZM207.203 50.1273C205.304 50.1273 204.159 48.8889 204.159 46.8345C204.159 44.7975 205.322 43.5532 207.203 43.5532C209.089 43.5532 210.247 44.7917 210.247 46.8345C210.247 48.8889 209.095 50.1273 207.203 50.1273ZM207.203 48.9525C208.204 48.9525 208.771 48.1771 208.771 46.8403C208.771 45.5035 208.198 44.728 207.203 44.728C206.201 44.728 205.628 45.5035 205.628 46.8403C205.628 48.1771 206.201 48.9525 207.203 48.9525ZM211.693 50V43.6748H213.076V44.6586H213.175C213.348 44.0336 214.031 43.5706 214.847 43.5706C215.056 43.5706 215.31 43.5938 215.443 43.6285V44.9363C215.333 44.8958 214.951 44.8553 214.708 44.8553C213.777 44.8553 213.128 45.434 213.128 46.3252V50H211.693ZM216.705 50V43.6748H218.088V44.6933H218.186C218.458 43.9815 219.106 43.5532 219.946 43.5532C220.819 43.5532 221.427 43.9931 221.693 44.6933H221.792C222.104 44.0046 222.833 43.5532 223.713 43.5532C224.98 43.5532 225.744 44.3345 225.744 45.6481V50H224.315V46.0012C224.315 45.1794 223.927 44.7685 223.157 44.7685C222.411 44.7685 221.919 45.3241 221.919 46.0475V50H220.524V45.897C220.524 45.1968 220.084 44.7685 219.378 44.7685C218.667 44.7685 218.14 45.3646 218.14 46.1516V50H216.705Z" fill="#EFEFF1"/>
<g opacity="0.95">
<path d="M196.337 146.306L189.318 150.354V150.358V160.08L191.954 161.602V151.877L196.337 149.347V146.306Z" fill="white"/>
<path d="M199.138 146.306V154.051H196.337V151.161L193.699 152.683V162.606L196.337 164.132V156.409H199.138V159.28L201.775 157.757V147.828L199.138 146.306Z" fill="white"/>
<path d="M199.138 164.135L206.157 160.086V160.083V150.361L203.519 148.838V158.564L199.138 161.093V164.135Z" fill="white"/>
</g>
</g>
<path opacity="0.5" d="M82.73 232.802L142.46 207.464L142.46 346.655L82.73 371.992L82.73 232.802Z" fill="url(#paint2_linear_1_3621)" fill-opacity="0.6"/>
<path opacity="0.5" d="M82.73 232.802L22.9999 207.464L22.9999 355.913L82.73 381.25L82.73 232.802Z" fill="url(#paint3_linear_1_3621)" fill-opacity="0.6"/>
<g clip-path="url(#clip1_1_3621)" filter="url(#filter0_d_1_3621)">
<rect width="119.877" height="147.122" transform="translate(23 96.0615)" fill="url(#paint4_linear_1_3621)" fill-opacity="0.6"/>
<path d="M29.1947 210.317L29.1445 210.288L29.1445 210.288C27.2878 209.216 26.706 208.861 26.2758 208.431L24.7846 209.922L26.2758 208.431C25.64 207.795 25.1827 207.003 24.95 206.135C24.7925 205.547 24.7755 204.865 24.7755 202.721V105.433C24.7755 104 24.7766 103.031 24.8279 102.28C24.8779 101.547 24.9685 101.175 25.0736 100.921C25.4711 99.9616 26.2336 99.1992 27.1933 98.8017C27.4472 98.6965 27.8186 98.606 28.5516 98.556C29.3035 98.5047 30.2723 98.5035 31.705 98.5035H132.936C134.369 98.5035 135.338 98.5047 136.089 98.556C136.822 98.606 137.194 98.6965 137.448 98.8016L138.254 96.8562L137.448 98.8017C138.407 99.1992 139.17 99.9616 139.567 100.921L141.516 100.114L139.567 100.921C139.673 101.175 139.763 101.547 139.813 102.28C139.864 103.031 139.866 104 139.866 105.433V202.721C139.866 204.865 139.848 205.547 139.691 206.135C139.458 207.003 139.001 207.795 138.365 208.431C137.935 208.861 137.353 209.217 135.497 210.288L86.6887 238.464C84.8323 239.535 84.2336 239.861 83.646 240.019C82.7777 240.251 81.8634 240.251 80.9951 240.019C80.4075 239.861 79.8087 239.535 77.9524 238.464L29.1948 210.317L29.1947 210.317Z" fill="black" stroke="black" stroke-width="4.21796"/>
<g opacity="0.94">
<path d="M34.4748 178.177V173.116H35.0605V175.343H37.6997V173.116H38.2854V178.177H37.6997V175.849H35.0605V178.177H34.4748ZM41.5839 178.221C40.2751 178.221 39.2917 177.172 39.2917 175.676C39.2917 174.135 40.2679 173.073 41.6273 173.073C42.7697 173.073 43.5724 173.81 43.7242 174.779H43.1168C42.9722 174.15 42.401 173.622 41.62 173.622C40.6077 173.622 39.9136 174.483 39.9136 175.683C39.9136 176.84 40.6005 177.657 41.5911 177.657C42.3937 177.657 42.9794 177.122 43.1168 176.5H43.7242C43.5579 177.469 42.7553 178.221 41.5839 178.221ZM46.0736 178.177L44.2225 173.116H44.7937L46.4134 177.527L48.0042 173.116H48.5827L46.7316 178.177H46.0736ZM49.182 178.177L48.5457 178.17L50.4764 173.116H51.0765L53.0216 178.177H52.3853L51.8647 176.811H49.6882L49.182 178.177ZM49.869 176.269H51.6911L50.78 173.774L49.869 176.269ZM55.5134 178.25C54.3637 178.25 53.6262 177.223 53.6262 175.676C53.6262 174.121 54.371 173.087 55.5279 173.087C56.6848 173.087 57.4224 174.121 57.4224 175.676C57.4224 177.223 56.6776 178.25 55.5134 178.25ZM55.5279 177.736C56.3522 177.736 56.8656 176.927 56.8656 175.683C56.8656 174.425 56.345 173.6 55.5062 173.6C54.6891 173.6 54.183 174.41 54.183 175.654C54.183 176.927 54.6964 177.736 55.5279 177.736ZM58.4774 176.044V175.625H61.0082V176.044H58.4774Z" fill="#FFE959"/>
<path d="M63.9519 178.235C62.7516 178.235 61.9562 177.165 61.9562 175.661C61.9562 174.135 62.7588 173.051 63.9663 173.051C65.1667 173.051 65.9693 174.135 65.9693 175.647C65.9693 177.158 65.1594 178.235 63.9519 178.235ZM63.9736 177.548C64.7111 177.548 65.1739 176.775 65.1739 175.676C65.1739 174.548 64.6967 173.745 63.9447 173.745C63.1999 173.745 62.7588 174.49 62.7588 175.611C62.7588 176.767 63.2216 177.548 63.9736 177.548ZM68.5135 178.235C67.3132 178.235 66.5178 177.165 66.5178 175.661C66.5178 174.135 67.3204 173.051 68.528 173.051C69.7283 173.051 70.5309 174.135 70.5309 175.647C70.5309 177.158 69.721 178.235 68.5135 178.235ZM68.5352 177.548C69.2727 177.548 69.7355 176.775 69.7355 175.676C69.7355 174.548 69.2583 173.745 68.5063 173.745C67.7615 173.745 67.3204 174.49 67.3204 175.611C67.3204 176.767 67.7832 177.548 68.5352 177.548ZM71.0505 178.177V177.404L72.2002 176.413C73.1185 175.625 73.6753 175.242 73.6753 174.649C73.6753 174.128 73.321 173.788 72.7859 173.788C72.2653 173.788 71.8893 174.15 71.8242 174.707H70.9926C71.036 173.716 71.7591 173.051 72.7931 173.051C73.762 173.051 74.4779 173.716 74.4779 174.613C74.4779 175.509 73.7476 176.03 72.9088 176.775L72.1568 177.44H74.514V178.177H71.0505Z" fill="white"/>
</g>
<path d="M130.256 142.943L130.259 147.157L134.268 145.857L130.26 147.162L132.736 150.573L130.256 147.165L127.777 150.573L130.252 147.162L126.245 145.857L130.254 147.157L130.256 142.943Z" fill="white"/>
<path d="M130.257 154.51L130.26 158.725L134.269 157.425L130.261 158.73L132.736 162.141L130.257 158.732L127.778 162.141L130.253 158.73L126.246 157.425L130.255 158.725L130.257 154.51Z" fill="black"/>
<path d="M130.257 166.079L130.26 170.293L134.269 168.993L130.261 170.298L132.736 173.709L130.257 170.301L127.778 173.709L130.253 170.298L126.246 168.993L130.255 170.293L130.257 166.079Z" fill="black"/>
<path opacity="0.95" d="M37.9949 151.182C35.8744 151.182 34.2764 149.564 34.2764 147.443C34.2764 145.353 35.8744 143.745 37.9846 143.745C39.6748 143.745 40.9245 144.708 41.3548 145.907L40.5558 146.101C40.2075 145.21 39.2651 144.513 37.9846 144.513C36.2432 144.513 35.0959 145.855 35.0959 147.433C35.0959 149.051 36.2432 150.414 37.9846 150.414C39.2651 150.414 40.1972 149.727 40.5558 148.826L41.3343 149.031C40.8938 150.229 39.6646 151.182 37.9949 151.182ZM47.9147 144.626H43.6738V147.044H47.3923V147.761H43.6738V150.301H47.9044V151.049H42.8646V143.878H47.9147V144.626ZM54.3379 151.049L52.4633 148.232H50.3634V151.049H49.5541V143.878H52.8731C54.3482 143.878 55.1472 145.015 55.1472 146.06C55.1472 147.023 54.5223 147.976 53.3545 148.191L55.2803 151.049H54.3379ZM50.3634 144.616V147.505H52.8423C53.795 147.505 54.3584 146.818 54.3584 146.06C54.3584 145.312 53.7848 144.616 52.8526 144.616H50.3634ZM62.2847 143.878V144.626H59.6419V151.049H58.8224V144.626H56.1693V143.878H62.2847ZM63.5135 151.049V143.878H64.333V151.049H63.5135ZM71.1498 144.626H67.0011V147.136H70.6273V147.863H67.0011V151.049H66.1816V143.878H71.1498V144.626ZM72.421 151.049V143.878H73.2405V151.049H72.421ZM80.1393 144.626H75.8984V147.044H79.6168V147.761H75.8984V150.301H80.129V151.049H75.0892V143.878H80.1393V144.626ZM84.5035 143.878C86.7264 143.878 88.0273 145.405 88.0273 147.464C88.0273 149.523 86.7264 151.049 84.5035 151.049H81.7787V143.878H84.5035ZM84.4933 150.301C86.2449 150.301 87.2078 149.072 87.2078 147.443C87.2078 145.866 86.2449 144.616 84.4933 144.616H82.588V150.301H84.4933ZM39.7465 165.049L39.1626 163.492H35.9359L35.3418 165.049H33.8872L36.6325 157.878H38.4558L41.2114 165.049H39.7465ZM36.3969 162.252H38.6914L37.5441 159.22L36.3969 162.252ZM44.8715 165.192C43.1199 165.192 41.9623 164.137 41.5628 163.021L42.9048 162.611C43.1916 163.359 43.9189 163.953 44.9535 163.953C45.7935 163.953 46.3159 163.523 46.3159 163.051C46.3159 162.672 46.0598 162.416 45.3735 162.191L43.5399 161.617C42.5974 161.32 41.9111 160.716 41.9214 159.794C41.9111 158.677 42.9969 157.735 44.4925 157.735C46.0393 157.735 47.1866 158.585 47.5758 159.579L46.2749 159.958C45.9778 159.374 45.312 158.974 44.5028 158.974C43.7959 158.974 43.3452 159.333 43.3452 159.753C43.3452 160.07 43.5603 160.286 44.0315 160.429L45.8139 161.003C46.91 161.341 47.7397 161.802 47.7397 162.969C47.7397 164.199 46.5925 165.192 44.8715 165.192ZM51.8912 165.192C50.1395 165.192 48.982 164.137 48.5825 163.021L49.9244 162.611C50.2113 163.359 50.9385 163.953 51.9732 163.953C52.8131 163.953 53.3356 163.523 53.3356 163.051C53.3356 162.672 53.0795 162.416 52.3931 162.191L50.5595 161.617C49.6171 161.32 48.9308 160.716 48.941 159.794C48.9308 158.677 50.0166 157.735 51.5122 157.735C53.059 157.735 54.2063 158.585 54.5955 159.579L53.2946 159.958C52.9975 159.374 52.3317 158.974 51.5224 158.974C50.8156 158.974 50.3649 159.333 50.3649 159.753C50.3649 160.07 50.58 160.286 51.0512 160.429L52.8336 161.003C53.9297 161.341 54.7594 161.802 54.7594 162.969C54.7594 164.199 53.6121 165.192 51.8912 165.192ZM59.4438 165.192C57.2721 165.192 55.6741 163.574 55.6741 161.453C55.6741 159.343 57.2721 157.735 59.4438 157.735C61.6052 157.735 63.2032 159.343 63.2032 161.453C63.2032 163.574 61.6052 165.192 59.4438 165.192ZM59.4438 163.891C60.8574 163.891 61.7896 162.826 61.7896 161.453C61.7896 160.111 60.8574 159.036 59.4438 159.036C58.0199 159.036 57.098 160.111 57.098 161.453C57.098 162.826 58.0199 163.891 59.4438 163.891ZM68.014 165.192C65.8526 165.192 64.2444 163.574 64.2444 161.453C64.2444 159.343 65.8526 157.735 67.9833 157.735C69.9193 157.735 71.1281 158.923 71.4559 160.06L70.0832 160.398C69.8476 159.702 69.0794 159.056 67.9935 159.056C66.5799 159.056 65.6785 160.152 65.6785 161.443C65.6785 162.734 66.5799 163.871 67.9935 163.871C69.0794 163.871 69.8476 163.246 70.0832 162.539L71.4456 162.887C71.1178 164.035 69.9091 165.192 68.014 165.192ZM72.7415 165.049V157.878H74.1654V165.049H72.7415ZM81.0343 165.049L80.4504 163.492H77.2237L76.6295 165.049H75.1749L77.9202 157.878H79.7436L82.4991 165.049H81.0343ZM77.6846 162.252H79.9792L78.8319 159.22L77.6846 162.252ZM88.3351 157.878V159.149H85.9279V165.049H84.5245V159.149H82.1172V157.878H88.3351ZM94.7447 159.149H90.8317V160.787H94.2223V162.017H90.8317V163.779H94.7345V165.049H89.459V157.878H94.7447V159.149Z" fill="white"/>
<path fill-rule="evenodd" clip-rule="evenodd" d="M23 128.814H142.308V105.1C142.308 102.292 142.308 100.889 141.849 99.7813C141.238 98.3048 140.065 97.1318 138.588 96.5202C137.481 96.0615 136.077 96.0615 133.27 96.0615H32.0385C29.2309 96.0615 27.8271 96.0615 26.7197 96.5202C25.2433 97.1318 24.0702 98.3048 23.4587 99.7813C23 100.889 23 102.292 23 105.1V128.814Z" fill="#FFE959"/>
<path d="M34.7246 106.029L42.6669 121.489L50.6666 106.029H34.7246ZM41.4318 112.166H40.1664V110.901H41.4318V112.166ZM41.4318 110.267H40.1664V109.003H41.4318V110.267ZM43.329 114.063H42.0637V112.798H43.329V114.063ZM43.329 112.166H42.0637V110.901H43.329V112.166ZM43.329 110.267H42.0637V109.003H43.329V110.267ZM45.2162 112.166H43.9509V110.901H45.2162V112.166ZM43.9509 110.267V109.003H45.2162V110.267H43.9509Z" fill="#0D0E12"/>
<path d="M59.6714 118H57.99L55.1367 109.831H56.7502L58.8052 116.33H58.9014L60.9395 109.831H62.4963L59.6714 118ZM64.8061 118.102C63.6116 118.102 62.7567 117.377 62.7567 116.245C62.7567 115.135 63.6003 114.484 65.1061 114.399L66.7026 114.303V113.771C66.7026 113.154 66.295 112.809 65.5364 112.809C64.891 112.809 64.4494 113.041 64.3192 113.465H62.9945C63.1077 112.384 64.1324 111.693 65.6043 111.693C67.1951 111.693 68.0896 112.463 68.0896 113.771V118H66.7366V117.151H66.6403C66.295 117.751 65.6157 118.102 64.8061 118.102ZM65.2194 117.021C66.0686 117.021 66.7026 116.466 66.7026 115.73V115.226L65.3043 115.322C64.5174 115.373 64.1494 115.662 64.1494 116.177C64.1494 116.709 64.5966 117.021 65.2194 117.021ZM75.1718 111.812V118H73.8188V117.015H73.7225C73.4225 117.723 72.8167 118.125 71.8713 118.125C70.5183 118.125 69.7257 117.281 69.7257 115.832V111.812H71.1297V115.492C71.1297 116.454 71.5203 116.919 72.3582 116.919C73.2696 116.919 73.7678 116.353 73.7678 115.418V111.812H75.1718ZM76.9494 118V109.418H78.3534V118H76.9494ZM80.5783 110.295H81.9766V111.852H83.3013V112.945H81.9766V116.024C81.9766 116.641 82.237 116.919 82.8258 116.919C83.0239 116.919 83.1315 116.907 83.3013 116.89V117.966C83.0975 118.006 82.8371 118.028 82.5654 118.028C81.1444 118.028 80.5783 117.553 80.5783 116.358V112.945H79.5989V111.852H80.5783V110.295Z" fill="#0D0E12"/>
<g opacity="0.95">
<path d="M81.2783 212.649L74.3855 216.625V216.628V226.177L76.9745 227.671V218.12L81.2783 215.636V212.649Z" fill="white"/>
<path d="M84.0299 212.649V220.256H81.2783V217.417L78.6877 218.912V228.657L81.2783 230.155V222.571H84.0299V225.39L86.6189 223.895V214.144L84.0299 212.649Z" fill="white"/>
<path d="M84.0298 230.158L90.9226 226.183V226.18V216.631L88.332 215.136V224.688L84.0298 227.171V230.158Z" fill="white"/>
</g>
</g>
<path opacity="0.5" d="M295.5 254.531L355 220.208L355 358.504L295.5 392.827L295.5 254.531Z" fill="url(#paint5_linear_1_3621)" fill-opacity="0.6"/>
<path opacity="0.5" d="M295.5 254.531L236 220.208L236 360.994L295.5 395.317L295.5 254.531Z" fill="url(#paint6_linear_1_3621)" fill-opacity="0.6"/>
<g clip-path="url(#clip2_1_3621)">
<rect width="119.877" height="147.122" transform="translate(236.052 114.742)" fill="url(#paint7_linear_1_3621)" fill-opacity="0.6"/>
<path d="M242.246 228.998L242.196 228.969L242.196 228.969C240.34 227.897 239.758 227.542 239.328 227.112L237.836 228.603L239.328 227.112C238.692 226.476 238.235 225.684 238.002 224.816C237.844 224.228 237.827 223.546 237.827 221.402V124.114C237.827 122.681 237.828 121.712 237.88 120.961C237.93 120.228 238.02 119.856 238.125 119.602C238.523 118.643 239.285 117.88 240.245 117.483C240.499 117.377 240.87 117.287 241.603 117.237C242.355 117.186 243.324 117.184 244.757 117.184H345.988C347.42 117.184 348.389 117.186 349.141 117.237C349.874 117.287 350.246 117.377 350.499 117.483L351.305 115.537L350.499 117.483C351.459 117.88 352.222 118.643 352.619 119.602L354.568 118.795L352.619 119.602C352.724 119.856 352.815 120.228 352.865 120.961C352.916 121.712 352.917 122.681 352.917 124.114V221.402C352.917 223.546 352.9 224.228 352.743 224.816C352.51 225.684 352.053 226.476 351.417 227.112C350.987 227.542 350.405 227.897 348.548 228.969L299.74 257.145C297.884 258.216 297.285 258.542 296.698 258.7C295.829 258.932 294.915 258.932 294.047 258.7C293.459 258.542 292.86 258.216 291.004 257.145L242.247 228.998L242.246 228.998Z" fill="black" stroke="black" stroke-width="4.21796"/>
<g opacity="0.94">
<path d="M251.237 196.858V191.797H251.823V194.024H254.462V191.797H255.048V196.858H254.462V194.53H251.823V196.858H251.237ZM258.346 196.902C257.037 196.902 256.054 195.853 256.054 194.357C256.054 192.816 257.03 191.753 258.389 191.753C259.532 191.753 260.335 192.491 260.486 193.46H259.879C259.734 192.831 259.163 192.303 258.382 192.303C257.37 192.303 256.676 193.163 256.676 194.364C256.676 195.521 257.363 196.338 258.353 196.338C259.156 196.338 259.742 195.803 259.879 195.181H260.486C260.32 196.15 259.517 196.902 258.346 196.902ZM263.494 196.902C262.185 196.902 261.202 195.853 261.202 194.357C261.202 192.816 262.178 191.753 263.537 191.753C264.68 191.753 265.482 192.491 265.634 193.46H265.027C264.882 192.831 264.311 192.303 263.53 192.303C262.518 192.303 261.823 193.163 261.823 194.364C261.823 195.521 262.51 196.338 263.501 196.338C264.304 196.338 264.889 195.803 265.027 195.181H265.634C265.468 196.15 264.665 196.902 263.494 196.902ZM266.7 196.858L266.063 196.851L267.994 191.797H268.594L270.539 196.858H269.903L269.382 195.492H267.206L266.7 196.858ZM267.387 194.949H269.209L268.298 192.455L267.387 194.949ZM273.031 196.931C271.882 196.931 271.144 195.904 271.144 194.357C271.144 192.802 271.889 191.768 273.046 191.768C274.203 191.768 274.94 192.802 274.94 194.357C274.94 195.904 274.195 196.931 273.031 196.931ZM273.046 196.417C273.87 196.417 274.383 195.607 274.383 194.364C274.383 193.106 273.863 192.281 273.024 192.281C272.207 192.281 271.701 193.091 271.701 194.335C271.701 195.607 272.214 196.417 273.046 196.417ZM275.995 194.725V194.306H278.526V194.725H275.995Z" fill="#F85C94"/>
<path d="M281.47 196.916C280.269 196.916 279.474 195.846 279.474 194.342C279.474 192.816 280.277 191.732 281.484 191.732C282.684 191.732 283.487 192.816 283.487 194.328C283.487 195.839 282.677 196.916 281.47 196.916ZM281.491 196.229C282.229 196.229 282.692 195.456 282.692 194.357C282.692 193.229 282.214 192.426 281.462 192.426C280.718 192.426 280.277 193.171 280.277 194.291C280.277 195.448 280.739 196.229 281.491 196.229ZM286.031 196.916C284.831 196.916 284.036 195.846 284.036 194.342C284.036 192.816 284.838 191.732 286.046 191.732C287.246 191.732 288.049 192.816 288.049 194.328C288.049 195.839 287.239 196.916 286.031 196.916ZM286.053 196.229C286.791 196.229 287.253 195.456 287.253 194.357C287.253 193.229 286.776 192.426 286.024 192.426C285.279 192.426 284.838 193.171 284.838 194.291C284.838 195.448 285.301 196.229 286.053 196.229ZM288.568 196.858V196.085L289.718 195.094C290.636 194.306 291.193 193.923 291.193 193.33C291.193 192.809 290.839 192.469 290.304 192.469C289.783 192.469 289.407 192.831 289.342 193.388H288.51C288.554 192.397 289.277 191.732 290.311 191.732C291.28 191.732 291.996 192.397 291.996 193.294C291.996 194.19 291.265 194.711 290.427 195.456L289.675 196.121H292.032V196.858H288.568Z" fill="white"/>
</g>
<path d="M343.309 161.624L343.311 165.838L347.32 164.538L343.313 165.843L345.788 169.254L343.309 165.846L340.829 169.254L343.305 165.843L339.297 164.538L343.306 165.838L343.309 161.624Z" fill="white"/>
<path d="M343.309 173.192L343.311 177.406L347.32 176.106L343.313 177.411L345.788 180.822L343.309 177.414L340.829 180.822L343.305 177.411L339.297 176.106L343.306 177.406L343.309 173.192Z" fill="black"/>
<path d="M343.308 184.759L343.31 188.974L347.319 187.674L343.312 188.979L345.787 192.39L343.308 188.981L340.829 192.39L343.304 188.979L339.296 187.674L343.305 188.974L343.308 184.759Z" fill="black"/>
<path opacity="0.95" d="M254.756 169.863C252.635 169.863 251.037 168.244 251.037 166.124C251.037 164.034 252.635 162.426 254.746 162.426C256.436 162.426 257.686 163.389 258.116 164.587L257.317 164.782C256.968 163.891 256.026 163.194 254.746 163.194C253.004 163.194 251.857 164.536 251.857 166.114C251.857 167.732 253.004 169.095 254.746 169.095C256.026 169.095 256.958 168.408 257.317 167.507L258.095 167.712C257.655 168.91 256.426 169.863 254.756 169.863ZM264.676 163.307H260.435V165.724H264.153V166.442H260.435V168.982H264.665V169.73H259.626V162.559H264.676V163.307ZM271.099 169.73L269.224 166.913H267.124V169.73H266.315V162.559H269.634C271.109 162.559 271.908 163.696 271.908 164.741C271.908 165.704 271.283 166.657 270.116 166.872L272.041 169.73H271.099ZM267.124 163.297V166.185H269.603C270.556 166.185 271.119 165.499 271.119 164.741C271.119 163.993 270.546 163.297 269.614 163.297H267.124ZM279.046 162.559V163.307H276.403V169.73H275.583V163.307H272.93V162.559H279.046ZM280.274 169.73V162.559H281.094V169.73H280.274ZM287.911 163.307H283.762V165.817H287.388V166.544H283.762V169.73H282.943V162.559H287.911V163.307ZM289.182 169.73V162.559H290.001V169.73H289.182ZM296.9 163.307H292.659V165.724H296.378V166.442H292.659V168.982H296.89V169.73H291.85V162.559H296.9V163.307ZM301.265 162.559C303.487 162.559 304.788 164.086 304.788 166.144C304.788 168.203 303.487 169.73 301.265 169.73H298.54V162.559H301.265ZM301.254 168.982C303.006 168.982 303.969 167.753 303.969 166.124C303.969 164.546 303.006 163.297 301.254 163.297H299.349V168.982H301.254ZM256.508 183.73L255.924 182.173H252.697L252.103 183.73H250.648L253.393 176.559H255.217L257.972 183.73H256.508ZM253.158 180.933H255.452L254.305 177.901L253.158 180.933ZM261.633 183.873C259.881 183.873 258.723 182.818 258.324 181.702L259.666 181.292C259.953 182.04 260.68 182.634 261.714 182.634C262.554 182.634 263.077 182.203 263.077 181.732C263.077 181.353 262.821 181.097 262.134 180.872L260.301 180.298C259.358 180.001 258.672 179.397 258.682 178.475C258.672 177.358 259.758 176.416 261.253 176.416C262.8 176.416 263.948 177.266 264.337 178.26L263.036 178.639C262.739 178.055 262.073 177.655 261.264 177.655C260.557 177.655 260.106 178.014 260.106 178.434C260.106 178.751 260.321 178.966 260.793 179.11L262.575 179.684C263.671 180.022 264.501 180.483 264.501 181.65C264.501 182.88 263.353 183.873 261.633 183.873ZM268.652 183.873C266.901 183.873 265.743 182.818 265.344 181.702L266.685 181.292C266.972 182.04 267.7 182.634 268.734 182.634C269.574 182.634 270.097 182.203 270.097 181.732C270.097 181.353 269.84 181.097 269.154 180.872L267.321 180.298C266.378 180.001 265.692 179.397 265.702 178.475C265.692 177.358 266.778 176.416 268.273 176.416C269.82 176.416 270.967 177.266 271.357 178.26L270.056 178.639C269.759 178.055 269.093 177.655 268.283 177.655C267.577 177.655 267.126 178.014 267.126 178.434C267.126 178.751 267.341 178.966 267.812 179.11L269.595 179.684C270.691 180.022 271.52 180.483 271.52 181.65C271.52 182.88 270.373 183.873 268.652 183.873ZM276.205 183.873C274.033 183.873 272.435 182.255 272.435 180.134C272.435 178.024 274.033 176.416 276.205 176.416C278.366 176.416 279.964 178.024 279.964 180.134C279.964 182.255 278.366 183.873 276.205 183.873ZM276.205 182.572C277.618 182.572 278.551 181.507 278.551 180.134C278.551 178.792 277.618 177.717 276.205 177.717C274.781 177.717 273.859 178.792 273.859 180.134C273.859 181.507 274.781 182.572 276.205 182.572ZM284.775 183.873C282.614 183.873 281.005 182.255 281.005 180.134C281.005 178.024 282.614 176.416 284.744 176.416C286.68 176.416 287.889 177.604 288.217 178.741L286.844 179.079C286.609 178.383 285.84 177.737 284.755 177.737C283.341 177.737 282.439 178.833 282.439 180.124C282.439 181.415 283.341 182.552 284.755 182.552C285.84 182.552 286.609 181.927 286.844 181.22L288.207 181.568C287.879 182.716 286.67 183.873 284.775 183.873ZM289.503 183.73V176.559H290.926V183.73H289.503ZM297.795 183.73L297.211 182.173H293.985L293.391 183.73H291.936L294.681 176.559H296.505L299.26 183.73H297.795ZM294.446 180.933H296.74L295.593 177.901L294.446 180.933ZM305.096 176.559V177.829H302.689V183.73H301.285V177.829H298.878V176.559H305.096ZM311.506 177.829H307.593V179.468H310.983V180.698H307.593V182.46H311.495V183.73H306.22V176.559H311.506V177.829Z" fill="white"/>
<path fill-rule="evenodd" clip-rule="evenodd" d="M297.728 262.937H293.683C293.725 262.949 293.766 262.961 293.808 262.972C295.05 263.31 296.361 263.31 297.604 262.972C297.645 262.961 297.686 262.949 297.728 262.937ZM236.052 223.538C236.052 223.405 236.052 223.268 236.052 223.126V123.782C236.052 120.974 236.052 119.57 236.51 118.463C237.122 116.986 238.295 115.813 239.771 115.202C240.879 114.743 242.282 114.743 245.09 114.743H346.321C349.129 114.743 350.532 114.743 351.64 115.202C353.116 115.813 354.289 116.986 354.901 118.463C355.36 119.57 355.36 120.974 355.36 123.782V148.255H236.052V223.538Z" fill="#E03875"/>
<path d="M259.537 139.819C258.264 139.82 257.011 139.511 255.885 138.918C254.759 138.324 253.795 137.465 253.077 136.415C252.358 135.365 251.907 134.155 251.762 132.891C251.617 131.627 251.783 130.346 252.245 129.16C252.707 127.975 253.451 126.92 254.414 126.087C255.376 125.255 256.527 124.669 257.767 124.382C259.006 124.095 260.297 124.115 261.528 124.44C262.758 124.765 263.89 125.386 264.827 126.248L262.971 128.189C262.233 127.523 261.318 127.085 260.336 126.928C259.355 126.771 258.349 126.903 257.44 127.306C256.532 127.71 255.76 128.368 255.218 129.202C254.676 130.035 254.388 131.008 254.388 132.002C254.388 132.996 254.676 133.969 255.218 134.803C255.76 135.636 256.532 136.295 257.44 136.698C258.349 137.102 259.355 137.233 260.336 137.077C261.318 136.92 262.233 136.482 262.971 135.816L264.827 137.757C263.385 139.085 261.496 139.821 259.537 139.819Z" fill="#EFEFF1"/>
<path d="M265.829 135.908C265.702 135.908 265.578 135.871 265.473 135.8C265.367 135.73 265.285 135.63 265.237 135.513C265.188 135.396 265.175 135.267 265.2 135.142C265.225 135.018 265.286 134.904 265.375 134.814C265.465 134.725 265.579 134.664 265.704 134.639C265.828 134.614 265.957 134.627 266.074 134.675C266.191 134.724 266.291 134.806 266.362 134.911C266.432 135.017 266.47 135.141 266.47 135.267C266.469 135.437 266.402 135.6 266.281 135.72C266.161 135.84 265.999 135.908 265.829 135.908Z" fill="#EFEFF1"/>
<path d="M259.487 133.695C259.151 133.696 258.823 133.598 258.543 133.412C258.264 133.227 258.045 132.963 257.916 132.653C257.787 132.344 257.752 132.003 257.817 131.674C257.882 131.344 258.043 131.042 258.279 130.804C258.516 130.567 258.818 130.405 259.147 130.339C259.476 130.273 259.817 130.306 260.127 130.435C260.437 130.563 260.702 130.78 260.888 131.059C261.075 131.338 261.174 131.666 261.174 132.002C261.173 132.449 260.995 132.879 260.679 133.196C260.363 133.513 259.934 133.692 259.487 133.695Z" fill="#EFEFF1"/>
<path d="M266.564 133.724C266.437 133.724 266.313 133.687 266.208 133.616C266.102 133.546 266.02 133.446 265.972 133.329C265.923 133.212 265.91 133.083 265.935 132.958C265.96 132.834 266.021 132.72 266.111 132.63C266.2 132.541 266.314 132.48 266.439 132.455C266.563 132.43 266.692 132.443 266.809 132.491C266.926 132.54 267.026 132.622 267.097 132.727C267.167 132.833 267.205 132.957 267.205 133.084C267.204 133.253 267.137 133.416 267.017 133.536C266.896 133.656 266.734 133.724 266.564 133.724Z" fill="#EFEFF1"/>
<path d="M264.658 133.645C264.531 133.645 264.407 133.607 264.301 133.536C264.196 133.465 264.113 133.365 264.065 133.247C264.017 133.13 264.005 133.001 264.03 132.876C264.055 132.751 264.117 132.637 264.207 132.548C264.298 132.459 264.413 132.398 264.537 132.374C264.662 132.35 264.791 132.364 264.908 132.414C265.025 132.463 265.125 132.547 265.194 132.653C265.264 132.759 265.3 132.884 265.299 133.011C265.297 133.18 265.229 133.341 265.109 133.459C264.989 133.578 264.827 133.645 264.658 133.645Z" fill="#EFEFF1"/>
<path d="M266.564 131.565C266.437 131.565 266.313 131.527 266.208 131.457C266.102 131.386 266.02 131.286 265.972 131.169C265.923 131.052 265.91 130.923 265.935 130.799C265.96 130.675 266.021 130.56 266.111 130.471C266.2 130.381 266.314 130.32 266.439 130.295C266.563 130.271 266.692 130.283 266.809 130.332C266.926 130.38 267.026 130.462 267.097 130.568C267.167 130.673 267.205 130.797 267.205 130.924C267.204 131.094 267.137 131.257 267.017 131.377C266.896 131.497 266.734 131.564 266.564 131.565Z" fill="#EFEFF1"/>
<path d="M264.658 131.638C264.531 131.638 264.407 131.6 264.302 131.53C264.197 131.459 264.114 131.359 264.066 131.242C264.017 131.125 264.005 130.996 264.029 130.872C264.054 130.747 264.115 130.633 264.205 130.543C264.294 130.454 264.409 130.393 264.533 130.368C264.657 130.343 264.786 130.356 264.903 130.404C265.02 130.453 265.12 130.535 265.191 130.641C265.261 130.746 265.299 130.87 265.299 130.997C265.299 131.167 265.231 131.33 265.111 131.45C264.991 131.57 264.828 131.638 264.658 131.638Z" fill="#EFEFF1"/>
<path d="M265.866 129.409C265.739 129.41 265.615 129.372 265.509 129.302C265.404 129.232 265.321 129.132 265.273 129.015C265.224 128.898 265.211 128.769 265.236 128.644C265.26 128.52 265.321 128.406 265.411 128.316C265.5 128.226 265.614 128.165 265.739 128.14C265.863 128.115 265.992 128.128 266.109 128.176C266.226 128.225 266.327 128.307 266.397 128.412C266.468 128.518 266.505 128.642 266.505 128.769C266.505 128.938 266.438 129.101 266.318 129.221C266.198 129.341 266.035 129.409 265.866 129.409Z" fill="#EFEFF1"/>
<path d="M275.42 136.2C273.149 136.2 271.738 134.589 271.738 131.996C271.738 129.391 273.143 127.786 275.415 127.786C277.236 127.786 278.641 128.964 278.808 130.624H277.397C277.197 129.658 276.425 129.03 275.415 129.03C274.054 129.03 273.204 130.169 273.204 131.99C273.204 133.817 274.054 134.956 275.42 134.956C276.437 134.956 277.209 134.384 277.403 133.484H278.813C278.625 135.106 277.27 136.2 275.42 136.2ZM282.884 136.122C281.063 136.122 279.963 134.934 279.963 132.962C279.963 131.007 281.079 129.813 282.884 129.813C284.695 129.813 285.805 131.002 285.805 132.962C285.805 134.934 284.7 136.122 282.884 136.122ZM282.884 134.995C283.845 134.995 284.389 134.251 284.389 132.968C284.389 131.685 283.839 130.941 282.884 130.941C281.923 130.941 281.374 131.685 281.374 132.968C281.374 134.251 281.923 134.995 282.884 134.995ZM287.194 136V129.93H288.521V130.902H288.615C288.904 130.224 289.515 129.813 290.42 129.813C291.775 129.813 292.514 130.63 292.514 132.074V136H291.137V132.396C291.137 131.452 290.748 130.98 289.909 130.98C289.087 130.98 288.571 131.552 288.571 132.462V136H287.194ZM294.008 131.663C294.008 130.574 295.007 129.813 296.44 129.813C297.884 129.813 298.789 130.447 298.889 131.541H297.595C297.495 131.113 297.09 130.835 296.446 130.835C295.818 130.835 295.346 131.141 295.346 131.591C295.346 131.935 295.635 132.151 296.246 132.296L297.318 132.535C298.478 132.801 299.017 133.295 299.017 134.19C299.017 135.35 297.945 136.122 296.429 136.122C294.913 136.122 293.958 135.467 293.852 134.373H295.213C295.346 134.823 295.774 135.1 296.462 135.1C297.157 135.1 297.64 134.784 297.64 134.323C297.64 133.979 297.379 133.756 296.801 133.623L295.724 133.373C294.558 133.107 294.008 132.574 294.008 131.663ZM305.698 129.93V136H304.371V135.034H304.276C303.982 135.728 303.388 136.122 302.46 136.122C301.133 136.122 300.355 135.295 300.355 133.873V129.93H301.733V133.54C301.733 134.484 302.116 134.939 302.938 134.939C303.832 134.939 304.321 134.384 304.321 133.468V129.93H305.698ZM307.442 136V127.581H308.819V136H307.442Z" fill="#EFEFF1"/>
<g opacity="0.95">
<path d="M294.33 231.331L287.437 235.307V235.31V244.858L290.026 246.353V236.802L294.33 234.318V231.331Z" fill="white"/>
<path d="M297.081 231.331V238.937H294.33V236.099L291.739 237.594V247.339L294.33 248.837V241.252H297.081V244.072L299.67 242.577V232.826L297.081 231.331Z" fill="white"/>
<path d="M297.081 248.84L303.974 244.864V244.861V235.313L301.383 233.818V243.369L297.081 245.853V248.84Z" fill="white"/>
</g>
</g>
<rect x="2" y="247" width="369" height="43" fill="url(#paint8_linear_1_3621)"/>
</g>
<defs>
<filter id="filter0_d_1_3621" x="19.142" y="96.0615" width="127.593" height="156.124" filterUnits="userSpaceOnUse" color-interpolation-filters="sRGB">
<feFlood flood-opacity="0" result="BackgroundImageFix"/>
<feColorMatrix in="SourceAlpha" type="matrix" values="0 0 0 0 0 0 0 0 0 0 0 0 0 0 0 0 0 0 127 0" result="hardAlpha"/>
<feMorphology radius="6.43003" operator="erode" in="SourceAlpha" result="effect1_dropShadow_1_3621"/>
<feOffset dy="5.14403"/>
<feGaussianBlur stdDeviation="5.14403"/>
<feColorMatrix type="matrix" values="0 0 0 0 0.170885 0 0 0 0 0.183125 0 0 0 0 0.2125 0 0 0 0.2 0"/>
<feBlend mode="normal" in2="BackgroundImageFix" result="effect1_dropShadow_1_3621"/>
<feBlend mode="normal" in="SourceGraphic" in2="effect1_dropShadow_1_3621" result="shape"/>
</filter>
<linearGradient id="paint0_linear_1_3621" x1="223.405" y1="112.829" x2="244.758" y2="249.161" gradientUnits="userSpaceOnUse">
<stop stop-color="#532A7D"/>
<stop offset="1" stop-color="#33197C" stop-opacity="0"/>
</linearGradient>
<linearGradient id="paint1_linear_1_3621" x1="189.925" y1="130.416" x2="150.126" y2="234.316" gradientUnits="userSpaceOnUse">
<stop stop-color="#76A0F3"/>
<stop offset="1" stop-color="#522AC2" stop-opacity="0"/>
</linearGradient>
<linearGradient id="paint2_linear_1_3621" x1="107.422" y1="189.258" x2="112.481" y2="313.581" gradientUnits="userSpaceOnUse">
<stop stop-color="#9B7003"/>
<stop offset="1" stop-color="#DF706F" stop-opacity="0"/>
</linearGradient>
<linearGradient id="paint3_linear_1_3621" x1="75.6811" y1="198.561" x2="55.8343" y2="306.966" gradientUnits="userSpaceOnUse">
<stop offset="0.19001" stop-color="#FECA13" stop-opacity="0.76"/>
<stop offset="1" stop-color="#E36666" stop-opacity="0.06"/>
</linearGradient>
<linearGradient id="paint4_linear_1_3621" x1="13.5803" y1="-40.3904" x2="1.97406" y2="74.8756" gradientUnits="userSpaceOnUse">
<stop stop-color="#76A0F3"/>
<stop offset="1" stop-color="#522AC2" stop-opacity="0"/>
</linearGradient>
<linearGradient id="paint5_linear_1_3621" x1="320.096" y1="195.546" x2="340.049" y2="323.043" gradientUnits="userSpaceOnUse">
<stop stop-color="#922479"/>
<stop offset="1" stop-color="#96267A" stop-opacity="0"/>
</linearGradient>
<linearGradient id="paint6_linear_1_3621" x1="295.495" y1="192" x2="280.085" y2="316.131" gradientUnits="userSpaceOnUse">
<stop stop-color="#E771A4"/>
<stop offset="0.603067" stop-color="#F13A9B" stop-opacity="0.481363"/>
<stop offset="0.830498" stop-color="#F52598" stop-opacity="0.19"/>
<stop offset="1" stop-color="#F81696" stop-opacity="0"/>
</linearGradient>
<linearGradient id="paint7_linear_1_3621" x1="13.5803" y1="-40.3904" x2="1.97406" y2="74.8756" gradientUnits="userSpaceOnUse">
<stop stop-color="#76A0F3"/>
<stop offset="1" stop-color="#522AC2" stop-opacity="0"/>
</linearGradient>
<linearGradient id="paint8_linear_1_3621" x1="186.5" y1="247" x2="186.5" y2="290" gradientUnits="userSpaceOnUse">
<stop stop-color="#15181E" stop-opacity="0"/>
<stop offset="0.570651" stop-color="#15181E"/>
</linearGradient>
<clipPath id="clip0_1_3621">
<rect width="159.527" height="159.527" fill="white" transform="translate(117.974 19)"/>
</clipPath>
<clipPath id="clip1_1_3621">
<rect width="119.877" height="147.122" fill="white" transform="translate(23 96.0615)"/>
</clipPath>
<clipPath id="clip2_1_3621">
<rect width="119.877" height="147.122" fill="white" transform="translate(236.052 114.742)"/>
</clipPath>
</defs>
</svg>
