<svg width="498" height="528" viewBox="0 0 498 528" fill="none" xmlns="http://www.w3.org/2000/svg">
<path d="M391.938 338.258L472.059 292L472.059 478.386L391.938 524.644L391.938 338.258Z" fill="url(#paint0_linear_63_12798)" fill-opacity="0.6"/>
<path d="M391.939 338.258L311.819 292L311.819 481.742L391.939 528L391.939 338.258Z" fill="url(#paint1_linear_63_12798)" fill-opacity="0.6"/>
<path d="M260.855 223.92L357.712 168L357.712 393.318L260.855 449.238L260.855 223.92Z" fill="url(#paint2_linear_63_12798)" fill-opacity="0.6"/>
<path d="M260.856 223.92L164 168L164 397.376L260.856 453.296L260.856 223.92Z" fill="url(#paint3_linear_63_12798)" fill-opacity="0.6"/>
<path d="M336.8 176.51L336.8 176.51L336.716 176.559L266.635 217.015C263.966 218.555 263.105 219.024 262.261 219.25C261.012 219.585 259.698 219.585 258.45 219.25C257.605 219.024 256.744 218.555 254.076 217.015L183.91 176.51C181.241 174.969 180.405 174.458 179.786 173.84C178.872 172.926 178.215 171.787 177.88 170.539C177.654 169.694 177.629 168.714 177.629 165.632V25.7721C177.629 23.7126 177.631 22.3197 177.705 21.2388C177.777 20.1852 177.907 19.6512 178.058 19.2862C178.63 17.9066 179.726 16.8105 181.105 16.239C181.47 16.0878 182.004 15.9577 183.058 15.8858C184.139 15.812 185.532 15.8104 187.591 15.8104H333.119C335.179 15.8104 336.572 15.812 337.652 15.8858C338.706 15.9577 339.24 16.0878 339.605 16.239C340.985 16.8105 342.081 17.9066 342.652 19.2862C342.803 19.6512 342.934 20.1852 343.005 21.2388C343.079 22.3197 343.081 23.7126 343.081 25.7721V165.632C343.081 168.714 343.056 169.694 342.83 170.539C342.495 171.787 341.838 172.926 340.924 173.84C340.306 174.458 339.469 174.969 336.8 176.51Z" fill="black" stroke="black" stroke-width="6.06366"/>
<g opacity="0.94">
<path d="M236.974 130.631C238.71 130.631 239.875 129.082 239.875 126.91C239.875 124.737 238.721 123.178 236.995 123.178C235.259 123.178 234.105 124.737 234.105 126.93C234.105 129.093 235.249 130.631 236.974 130.631ZM237.006 129.644C235.925 129.644 235.259 128.521 235.259 126.858C235.259 125.246 235.893 124.176 236.964 124.176C238.045 124.176 238.731 125.33 238.731 126.951C238.731 128.531 238.066 129.644 237.006 129.644Z" fill="white"/>
<path d="M243.532 130.631C245.268 130.631 246.432 129.082 246.432 126.91C246.432 124.737 245.278 123.178 243.553 123.178C241.817 123.178 240.663 124.737 240.663 126.93C240.663 129.093 241.807 130.631 243.532 130.631ZM243.563 129.644C242.482 129.644 241.817 128.521 241.817 126.858C241.817 125.246 242.451 124.176 243.522 124.176C244.603 124.176 245.289 125.33 245.289 126.951C245.289 128.531 244.624 129.644 243.563 129.644Z" fill="white"/>
<path d="M247.179 130.548H252.158V129.488H248.77L249.851 128.531C251.057 127.461 252.106 126.712 252.106 125.423C252.106 124.134 251.077 123.178 249.684 123.178C248.198 123.178 247.158 124.134 247.096 125.558H248.292C248.385 124.758 248.926 124.238 249.674 124.238C250.443 124.238 250.953 124.727 250.953 125.475C250.953 126.328 250.152 126.878 248.832 128.012L247.179 129.436V130.548Z" fill="white"/>
</g>
<g opacity="0.94">
<path d="M195.705 130.548H196.547V127.201H200.341V130.548H201.183V123.271H200.341V126.473H196.547V123.271H195.705V130.548Z" fill="#AC72F0"/>
<path d="M205.925 130.61C207.609 130.61 208.763 129.529 209.002 128.136H208.129C207.931 129.03 207.089 129.799 205.935 129.799C204.511 129.799 203.524 128.625 203.524 126.962C203.524 125.236 204.522 123.999 205.977 123.999C207.1 123.999 207.921 124.758 208.129 125.662H209.002C208.784 124.269 207.63 123.209 205.987 123.209C204.033 123.209 202.63 124.737 202.63 126.951C202.63 129.103 204.044 130.61 205.925 130.61Z" fill="#AC72F0"/>
<path d="M211.909 130.548H212.709V124.03H215.308V123.271H209.3V124.03H211.909V130.548Z" fill="#AC72F0"/>
<path d="M215.741 130.548L216.469 128.583H219.598L220.346 130.548H221.261L218.465 123.271H217.602L214.827 130.537L215.741 130.548ZM216.729 127.804L218.039 124.217L219.348 127.804H216.729Z" fill="#AC72F0"/>
<path d="M224.843 130.652C226.517 130.652 227.588 129.176 227.588 126.951C227.588 124.716 226.527 123.23 224.864 123.23C223.201 123.23 222.13 124.716 222.13 126.951C222.13 129.176 223.191 130.652 224.843 130.652ZM224.864 129.914C223.669 129.914 222.931 128.75 222.931 126.92C222.931 125.132 223.658 123.968 224.833 123.968C226.039 123.968 226.787 125.153 226.787 126.962C226.787 128.75 226.049 129.914 224.864 129.914Z" fill="#AC72F0"/>
<path d="M229.104 127.481H232.743V126.878H229.104V127.481Z" fill="#AC72F0"/>
</g>
<path d="M328.4 80.3954L330.11 84.1044L334.166 84.5853L331.168 87.3585L331.964 91.3647L328.4 89.3696L324.835 91.3647L325.631 87.3585L322.633 84.5853L326.689 84.1044L328.4 80.3954Z" fill="white"/>
<g opacity="0.95">
<path d="M200.765 92.4268C203.166 92.4268 204.933 91.0573 205.566 89.3344L204.447 89.0398C203.932 90.3357 202.592 91.3224 200.751 91.3224C198.247 91.3224 196.598 89.3638 196.598 87.0371C196.598 84.7693 198.247 82.8402 200.751 82.8402C202.592 82.8402 203.946 83.8415 204.447 85.1227L205.596 84.8429C204.977 83.12 203.181 81.7357 200.751 81.7357C197.717 81.7357 195.42 84.0477 195.42 87.0518C195.42 90.1001 197.717 92.4268 200.765 92.4268Z" fill="white"/>
<path d="M215.026 83.0022V81.9272H207.766V92.2354H215.011V91.1604H208.929V87.5083H214.275V86.4775H208.929V83.0022H215.026Z" fill="white"/>
<path d="M224.26 92.2354H225.615L222.846 88.1268C224.525 87.8176 225.423 86.4481 225.423 85.0638C225.423 83.5617 224.275 81.9272 222.154 81.9272H217.383V92.2354H218.546V88.1857H221.565L224.26 92.2354ZM218.546 82.9874H222.125C223.465 82.9874 224.289 83.9888 224.289 85.0638C224.289 86.1535 223.479 87.1402 222.11 87.1402H218.546V82.9874Z" fill="white"/>
<path d="M235.684 81.9272H226.893V83.0022H230.707V92.2354H231.885V83.0022H235.684V81.9272Z" fill="white"/>
<path d="M237.451 92.2354H238.629V81.9272H237.451V92.2354Z" fill="white"/>
<path d="M248.428 83.0022V81.9272H241.286V92.2354H242.464V87.6556H247.677V86.61H242.464V83.0022H248.428Z" fill="white"/>
<path d="M250.256 92.2354H251.434V81.9272H250.256V92.2354Z" fill="white"/>
<path d="M261.352 83.0022V81.9272H254.092V92.2354H261.337V91.1604H255.255V87.5083H260.601V86.4775H255.255V83.0022H261.352Z" fill="white"/>
<path d="M267.626 81.9272H263.708V92.2354H267.626C270.821 92.2354 272.691 90.0412 272.691 87.0813C272.691 84.1213 270.821 81.9272 267.626 81.9272ZM267.611 91.1604H264.872V82.9874H267.611C270.129 82.9874 271.513 84.784 271.513 87.0518C271.513 89.3933 270.129 91.1604 267.611 91.1604Z" fill="white"/>
<path d="M203.284 112.235H205.389L201.428 101.927H198.807L194.86 112.235H196.951L197.806 109.997H202.444L203.284 112.235ZM198.468 108.215L200.118 103.856L201.767 108.215H198.468Z" fill="white"/>
<path d="M210.651 112.442C213.125 112.442 214.775 111.013 214.775 109.246C214.775 107.567 213.582 106.905 212.006 106.419L209.444 105.594C208.766 105.388 208.457 105.079 208.457 104.622C208.457 104.018 209.105 103.503 210.121 103.503C211.284 103.503 212.242 104.077 212.669 104.917L214.539 104.372C213.979 102.943 212.33 101.721 210.106 101.721C207.956 101.721 206.395 103.076 206.41 104.681C206.395 106.006 207.382 106.875 208.737 107.302L211.373 108.127C212.359 108.451 212.728 108.819 212.728 109.364C212.728 110.041 211.977 110.66 210.769 110.66C209.282 110.66 208.236 109.806 207.824 108.731L205.895 109.32C206.469 110.925 208.133 112.442 210.651 112.442Z" fill="white"/>
<path d="M220.743 112.442C223.217 112.442 224.866 111.013 224.866 109.246C224.866 107.567 223.673 106.905 222.097 106.419L219.535 105.594C218.858 105.388 218.548 105.079 218.548 104.622C218.548 104.018 219.196 103.503 220.212 103.503C221.376 103.503 222.333 104.077 222.76 104.917L224.63 104.372C224.071 102.943 222.421 101.721 220.198 101.721C218.048 101.721 216.487 103.076 216.502 104.681C216.487 106.006 217.473 106.875 218.828 107.302L221.464 108.127C222.451 108.451 222.819 108.819 222.819 109.364C222.819 110.041 222.068 110.66 220.86 110.66C219.373 110.66 218.328 109.806 217.915 108.731L215.986 109.32C216.56 110.925 218.224 112.442 220.743 112.442Z" fill="white"/>
<path d="M231.6 112.442C234.707 112.442 237.005 110.115 237.005 107.067C237.005 104.033 234.707 101.721 231.6 101.721C228.478 101.721 226.181 104.033 226.181 107.067C226.181 110.115 228.478 112.442 231.6 112.442ZM231.6 110.571C229.553 110.571 228.228 109.04 228.228 107.067C228.228 105.137 229.553 103.591 231.6 103.591C233.632 103.591 234.972 105.137 234.972 107.067C234.972 109.04 233.632 110.571 231.6 110.571Z" fill="white"/>
<path d="M243.921 112.442C246.645 112.442 248.382 110.778 248.854 109.128L246.895 108.628C246.556 109.644 245.452 110.542 243.891 110.542C241.859 110.542 240.563 108.907 240.563 107.052C240.563 105.196 241.859 103.621 243.891 103.621C245.452 103.621 246.556 104.548 246.895 105.55L248.868 105.064C248.397 103.429 246.66 101.721 243.876 101.721C240.813 101.721 238.501 104.033 238.501 107.067C238.501 110.115 240.813 112.442 243.921 112.442Z" fill="white"/>
<path d="M250.717 112.235H252.764V101.927H250.717V112.235Z" fill="white"/>
<path d="M262.638 112.235H264.744L260.783 101.927H258.162L254.215 112.235H256.306L257.16 109.997H261.799L262.638 112.235ZM257.823 108.215L259.472 103.856L261.121 108.215H257.823Z" fill="white"/>
<path d="M273.134 101.927H264.195V103.753H267.656V112.235H269.673V103.753H273.134V101.927Z" fill="white"/>
<path d="M282.348 103.753V101.927H274.749V112.235H282.333V110.409H276.723V107.876H281.597V106.109H276.723V103.753H282.348Z" fill="white"/>
</g>
<path fill-rule="evenodd" clip-rule="evenodd" d="M345.285 60V25.9936C345.285 21.9574 345.285 19.9393 344.625 18.3474C343.746 16.2249 342.06 14.5386 339.937 13.6594C338.345 13 336.327 13 332.291 13H186.763C182.727 13 180.709 13 179.117 13.6594C176.994 14.5386 175.308 16.2249 174.429 18.3474C173.77 19.9393 173.77 21.9574 173.77 25.9936V60H345.285Z" fill="#7B42BC"/>
<g clip-path="url(#clip0_63_12798)">
<path d="M229.692 35.055H225.705V32.6736H236.379V35.055H232.392V46.9618H229.692V35.055Z" fill="white"/>
<path d="M239.199 45.0234C240.281 45.0183 241.356 44.8523 242.389 44.5308L242.796 46.5011C241.562 46.9466 240.26 47.1721 238.948 47.1674C235.67 47.1674 234.532 45.6436 234.532 43.1346V40.3705C234.532 38.1628 235.517 36.2988 238.863 36.2988C242.208 36.2988 242.959 38.2479 242.959 40.4981V42.7306H237.176V43.2657C237.176 44.5308 237.612 45.0234 239.199 45.0234ZM237.176 40.6292H240.5V40.1118C240.5 39.1267 240.199 38.4428 238.912 38.4428C237.626 38.4428 237.176 39.1267 237.176 40.1118V40.6292Z" fill="white"/>
<path d="M249.962 38.6979C249.001 39.1324 248.075 39.6419 247.194 40.2217V46.9618H244.579V36.5114H246.787L246.96 37.6702C247.81 37.0935 248.732 36.6323 249.703 36.2988L249.962 38.6979Z" fill="white"/>
<path d="M256.348 38.6979C255.388 39.1332 254.464 39.6426 253.584 40.2217V46.9618H250.969V36.5114H253.176L253.347 37.6702C254.197 37.0935 255.121 36.6323 256.093 36.2988L256.348 38.6979Z" fill="white"/>
<path d="M265.094 46.9618H262.95L262.759 46.2531C261.833 46.8533 260.754 47.1732 259.651 47.1744C257.741 47.1744 256.926 45.8668 256.926 44.0666C256.926 41.9404 257.851 41.1289 259.97 41.1289H262.479V40.0268C262.479 38.8716 262.16 38.464 260.487 38.464C259.514 38.4742 258.544 38.581 257.592 38.783L257.27 36.7914C258.435 36.4685 259.639 36.3029 260.849 36.2988C264.13 36.2988 265.101 37.4541 265.101 40.0693L265.094 46.9618ZM262.479 43.0071H260.565C259.708 43.0071 259.47 43.2445 259.47 44.0383C259.47 44.747 259.708 45.1014 260.533 45.1014C261.224 45.0903 261.902 44.9064 262.504 44.5663L262.479 43.0071Z" fill="white"/>
<path d="M273.135 34.1336C272.641 34.0252 272.138 33.9671 271.632 33.96C270.604 33.96 270.456 34.41 270.456 35.2038V36.5114H273.113L272.968 38.5916H270.463V46.9618H267.847V38.5916H266.175V36.5114H267.847V35.055C267.847 32.8898 268.854 31.816 271.168 31.816C271.928 31.8132 272.685 31.9146 273.418 32.1173L273.135 34.1336Z" fill="white"/>
<path d="M278.234 47.1674C274.655 47.1674 273.677 45.19 273.677 43.0638V40.4131C273.677 38.2868 274.641 36.2988 278.22 36.2988C281.799 36.2988 282.766 38.2691 282.766 40.4131V43.0638C282.781 45.19 281.827 47.1674 278.234 47.1674ZM278.234 38.5278C276.841 38.5278 276.306 39.148 276.306 40.328V43.1346C276.306 44.3147 276.841 44.9384 278.234 44.9384C279.627 44.9384 280.165 44.3147 280.165 43.1346V40.328C280.165 39.1657 279.63 38.5278 278.234 38.5278Z" fill="white"/>
<path d="M289.51 38.6979C288.551 39.1332 287.626 39.6426 286.746 40.2217V46.9618H284.131V36.5114H286.339L286.509 37.6702C287.364 37.0931 288.292 36.6319 289.269 36.2988L289.51 38.6979Z" fill="white"/>
<path d="M296.71 46.9618V39.6618C296.71 39.1054 296.472 38.8255 295.874 38.8255C295.275 38.8255 294.102 39.2117 293.152 39.7079V46.9618H290.533V36.5114H292.528L292.787 37.3903C294.089 36.7405 295.512 36.3688 296.965 36.2988C297.975 36.2988 298.595 36.7064 298.939 37.4116C300.244 36.7452 301.677 36.3658 303.142 36.2988C304.878 36.2988 305.498 37.5179 305.498 39.3854V46.9618H302.883V39.6618C302.883 39.1054 302.646 38.8255 302.047 38.8255C301.088 38.9257 300.16 39.2263 299.325 39.7079V46.9618H296.71Z" fill="white"/>
<path fill-rule="evenodd" clip-rule="evenodd" d="M202.313 30.1257L209.082 34.0344V41.8518L202.313 37.9431V30.1257Z" fill="white"/>
<path fill-rule="evenodd" clip-rule="evenodd" d="M209.823 34.0344V41.8518L216.595 37.9431V30.1257L209.823 34.0344Z" fill="white"/>
<path fill-rule="evenodd" clip-rule="evenodd" d="M194.801 25.7634V33.5808L201.569 37.4895V29.6721L194.801 25.7634Z" fill="white"/>
<path fill-rule="evenodd" clip-rule="evenodd" d="M202.313 46.6181L209.082 50.5268V42.759V42.7094L202.313 38.8007V46.6181Z" fill="white"/>
</g>
<g opacity="0.95">
<path d="M257.989 180.606L248.08 186.321V186.326V200.052L251.802 202.201V188.47L257.989 184.899V180.606Z" fill="white"/>
<path d="M261.944 180.606V191.54H257.989V187.46L254.265 189.609V203.618L257.989 205.772V194.868H261.944V198.922L265.666 196.773V182.755L261.944 180.606Z" fill="white"/>
<path d="M261.944 205.776L271.853 200.061V200.057V186.33L268.129 184.181V197.912L261.944 201.483V205.776Z" fill="white"/>
</g>
<path d="M106.5 292.147L187 258L187 445.591L106.5 479.739L106.5 292.147Z" fill="url(#paint4_linear_63_12798)" fill-opacity="0.6"/>
<path d="M106.5 292.147L25.9998 258L25.9998 458.069L106.5 492.217L106.5 292.147Z" fill="url(#paint5_linear_63_12798)" fill-opacity="0.6"/>
<path d="M184.381 119.895V251.014C184.381 253.903 184.358 254.822 184.146 255.614L186.891 256.349L184.146 255.614C183.832 256.784 183.216 257.851 182.359 258.708C181.779 259.288 180.995 259.767 178.492 261.212L112.713 299.185C110.211 300.629 109.404 301.068 108.612 301.28C107.442 301.594 106.209 301.594 105.039 301.28C104.247 301.068 103.44 300.629 100.938 299.185L35.1584 261.212C32.656 259.767 31.8719 259.288 31.2921 258.708C30.4352 257.851 29.819 256.784 29.5053 255.614L26.7598 256.349L29.5053 255.614C29.2931 254.822 29.2701 253.903 29.2701 251.014V119.895C29.2701 117.964 29.2716 116.658 29.3408 115.645C29.4082 114.657 29.5302 114.156 29.6719 113.814C30.2076 112.521 31.2353 111.493 32.5287 110.957C32.8708 110.816 33.3714 110.694 34.3592 110.626C35.3726 110.557 36.6784 110.556 38.6092 110.556H175.042C176.972 110.556 178.278 110.557 179.292 110.626C180.279 110.694 180.78 110.816 181.122 110.957C182.416 111.493 183.443 112.521 183.979 113.814C184.121 114.156 184.243 114.657 184.31 115.645C184.379 116.658 184.381 117.964 184.381 119.895Z" fill="black" stroke="black" stroke-width="5.68468"/>
<g opacity="0.94">
<path d="M81.1921 217.825C82.8196 217.825 83.911 216.373 83.911 214.336C83.911 212.299 82.8293 210.838 81.2116 210.838C79.5842 210.838 78.5024 212.299 78.5024 214.356C78.5024 216.383 79.5744 217.825 81.1921 217.825ZM81.2213 216.899C80.2078 216.899 79.5842 215.847 79.5842 214.287C79.5842 212.777 80.1786 211.773 81.1824 211.773C82.1959 211.773 82.839 212.855 82.839 214.375C82.839 215.856 82.2154 216.899 81.2213 216.899Z" fill="white"/>
<path d="M87.34 217.825C88.9674 217.825 90.0589 216.373 90.0589 214.336C90.0589 212.299 88.9771 210.838 87.3594 210.838C85.732 210.838 84.6503 212.299 84.6503 214.356C84.6503 216.383 85.7223 217.825 87.34 217.825ZM87.3692 216.899C86.3557 216.899 85.732 215.847 85.732 214.287C85.732 212.777 86.3265 211.773 87.3302 211.773C88.3437 211.773 88.9869 212.855 88.9869 214.375C88.9869 215.856 88.3632 216.899 87.3692 216.899Z" fill="white"/>
<path d="M90.7591 217.747H95.4271V216.753H92.2501L93.2636 215.856C94.3941 214.853 95.3783 214.151 95.3783 212.943C95.3783 211.734 94.4136 210.838 93.1077 210.838C91.7142 210.838 90.7396 211.734 90.6812 213.069H91.8019C91.8896 212.319 92.3963 211.832 93.098 211.832C93.8191 211.832 94.2966 212.29 94.2966 212.991C94.2966 213.79 93.5463 214.307 92.3086 215.369L90.7591 216.704V217.747Z" fill="white"/>
</g>
<g opacity="0.94">
<path d="M41.4648 217.747H42.2542V214.609H45.8112V217.747H46.6006V210.925H45.8112V213.927H42.2542V210.925H41.4648V217.747Z" fill="#FFE959"/>
<path d="M51.046 217.805C52.6247 217.805 53.7065 216.792 53.9306 215.486H53.112C52.9268 216.324 52.1375 217.045 51.0558 217.045C49.7207 217.045 48.7949 215.944 48.7949 214.385C48.7949 212.767 49.7304 211.608 51.0948 211.608C52.1472 211.608 52.9171 212.319 53.112 213.167H53.9306C53.726 211.861 52.6442 210.867 51.1045 210.867C49.2724 210.867 47.9568 212.299 47.9568 214.375C47.9568 216.392 49.2821 217.805 51.046 217.805Z" fill="#FFE959"/>
<path d="M57.0969 217.747H57.9838L60.4785 210.925H59.6989L57.555 216.87L55.372 210.925H54.6022L57.0969 217.747Z" fill="#FFE959"/>
<path d="M61.2863 217.747L61.9685 215.905H64.9018L65.6034 217.747H66.461L63.8395 210.925H63.0307L60.4287 217.737L61.2863 217.747ZM62.2121 215.174L63.44 211.812L64.6679 215.174H62.2121Z" fill="#FFE959"/>
<path d="M69.8193 217.844C71.3883 217.844 72.3921 216.461 72.3921 214.375C72.3921 212.28 71.3981 210.886 69.8388 210.886C68.2796 210.886 67.2759 212.28 67.2759 214.375C67.2759 216.461 68.2699 217.844 69.8193 217.844ZM69.8388 217.153C68.7181 217.153 68.0262 216.061 68.0262 214.346C68.0262 212.67 68.7084 211.578 69.8096 211.578C70.94 211.578 71.6417 212.689 71.6417 214.385C71.6417 216.061 70.9498 217.153 69.8388 217.153Z" fill="#FFE959"/>
<path d="M73.814 214.872H77.2248V214.307H73.814V214.872Z" fill="#FFE959"/>
</g>
<path d="M170.553 171.042L172.157 174.519L175.959 174.97L173.148 177.57L173.894 181.326L170.553 179.455L167.211 181.326L167.958 177.57L165.146 174.97L168.949 174.519L170.553 171.042Z" fill="white"/>
<g opacity="0.95">
<path d="M46.2094 182.321C48.4597 182.321 50.1164 181.037 50.7101 179.422L49.6608 179.146C49.1776 180.361 47.9213 181.286 46.1956 181.286C43.8486 181.286 42.3024 179.449 42.3024 177.268C42.3024 175.142 43.8486 173.333 46.1956 173.333C47.9213 173.333 49.1914 174.272 49.6608 175.473L50.7377 175.211C50.1578 173.596 48.4735 172.298 46.1956 172.298C43.3516 172.298 41.198 174.466 41.198 177.282C41.198 180.14 43.3516 182.321 46.2094 182.321Z" fill="white"/>
<path d="M59.5787 173.485V172.478H52.7725V182.142H59.5649V181.134H53.8631V177.71H58.8746V176.743H53.8631V173.485H59.5787Z" fill="white"/>
<path d="M68.2355 182.142H69.5056L66.9101 178.29C68.484 178 69.3261 176.716 69.3261 175.418C69.3261 174.01 68.2493 172.478 66.2613 172.478H61.7882V182.142H62.8789V178.345H65.709L68.2355 182.142ZM62.8789 173.472H66.2337C67.49 173.472 68.2631 174.41 68.2631 175.418C68.2631 176.44 67.5038 177.365 66.2199 177.365H62.8789V173.472Z" fill="white"/>
<path d="M78.9457 172.478H70.7037V173.485H74.2793V182.142H75.3838V173.485H78.9457V172.478Z" fill="white"/>
<path d="M80.6017 182.142H81.7061V172.478H80.6017V182.142Z" fill="white"/>
<path d="M90.8934 173.485V172.478H84.1976V182.142H85.3021V177.848H90.1893V176.868H85.3021V173.485H90.8934Z" fill="white"/>
<path d="M92.6067 182.142H93.7111V172.478H92.6067V182.142Z" fill="white"/>
<path d="M103.009 173.485V172.478H96.2026V182.142H102.995V181.134H97.2933V177.71H102.305V176.743H97.2933V173.485H103.009Z" fill="white"/>
<path d="M108.891 172.478H105.218V182.142H108.891C111.887 182.142 113.64 180.084 113.64 177.31C113.64 174.535 111.887 172.478 108.891 172.478ZM108.877 181.134H106.309V173.472H108.877C111.238 173.472 112.535 175.156 112.535 177.282C112.535 179.477 111.238 181.134 108.877 181.134Z" fill="white"/>
<path d="M48.5702 200.142H50.5444L46.8307 190.478H44.3733L40.6733 200.142H42.6337L43.4345 198.043H47.7833L48.5702 200.142ZM44.0557 196.373L45.602 192.286L47.1482 196.373H44.0557Z" fill="white"/>
<path d="M55.4773 200.335C57.7967 200.335 59.3429 198.996 59.3429 197.339C59.3429 195.765 58.2247 195.144 56.7474 194.688L54.3453 193.915C53.7102 193.722 53.4203 193.432 53.4203 193.004C53.4203 192.438 54.0277 191.955 54.9803 191.955C56.071 191.955 56.9683 192.493 57.3687 193.28L59.122 192.769C58.5974 191.43 57.0512 190.284 54.9665 190.284C52.9509 190.284 51.4875 191.554 51.5013 193.059C51.4875 194.302 52.4125 195.116 53.6826 195.517L56.1538 196.29C57.0788 196.593 57.4239 196.939 57.4239 197.449C57.4239 198.084 56.7198 198.664 55.5878 198.664C54.1934 198.664 53.2132 197.864 52.8266 196.856L51.0181 197.408C51.5565 198.913 53.1166 200.335 55.4773 200.335Z" fill="white"/>
<path d="M64.938 200.335C67.2573 200.335 68.8036 198.996 68.8036 197.339C68.8036 195.765 67.6853 195.144 66.2081 194.688L63.8059 193.915C63.1709 193.722 62.8809 193.432 62.8809 193.004C62.8809 192.438 63.4884 191.955 64.441 191.955C65.5316 191.955 66.429 192.493 66.8294 193.28L68.5827 192.769C68.0581 191.43 66.5118 190.284 64.4272 190.284C62.4115 190.284 60.9481 191.554 60.9619 193.059C60.9481 194.302 61.8731 195.116 63.1432 195.517L65.6145 196.29C66.5394 196.593 66.8846 196.939 66.8846 197.449C66.8846 198.084 66.1805 198.664 65.0484 198.664C63.6541 198.664 62.6738 197.864 62.2873 196.856L60.4787 197.408C61.0172 198.913 62.5772 200.335 64.938 200.335Z" fill="white"/>
<path d="M75.1169 200.335C78.0298 200.335 80.1835 198.153 80.1835 195.296C80.1835 192.452 78.0298 190.284 75.1169 190.284C72.1901 190.284 70.0364 192.452 70.0364 195.296C70.0364 198.153 72.1901 200.335 75.1169 200.335ZM75.1169 198.581C73.1979 198.581 71.9554 197.146 71.9554 195.296C71.9554 193.487 73.1979 192.038 75.1169 192.038C77.022 192.038 78.2783 193.487 78.2783 195.296C78.2783 197.146 77.022 198.581 75.1169 198.581Z" fill="white"/>
<path d="M86.6672 200.335C89.2213 200.335 90.8503 198.775 91.2921 197.229L89.456 196.759C89.1384 197.712 88.103 198.554 86.6396 198.554C84.7344 198.554 83.5195 197.021 83.5195 195.282C83.5195 193.542 84.7344 192.065 86.6396 192.065C88.103 192.065 89.1384 192.935 89.456 193.874L91.3059 193.418C90.8641 191.886 89.2351 190.284 86.6258 190.284C83.7542 190.284 81.5867 192.452 81.5867 195.296C81.5867 198.153 83.7542 200.335 86.6672 200.335Z" fill="white"/>
<path d="M93.0387 200.142H94.9576V190.478H93.0387V200.142Z" fill="white"/>
<path d="M104.215 200.142H106.189L102.476 190.478H100.018L96.3182 200.142H98.2787L99.0794 198.043H103.428L104.215 200.142ZM99.7006 196.373L101.247 192.286L102.793 196.373H99.7006Z" fill="white"/>
<path d="M114.055 190.478H105.675V192.189H108.919V200.142H110.81V192.189H114.055V190.478Z" fill="white"/>
<path d="M122.693 192.189V190.478H115.569V200.142H122.679V198.43H117.419V196.055H121.989V194.398H117.419V192.189H122.693Z" fill="white"/>
</g>
<path fill-rule="evenodd" clip-rule="evenodd" d="M26 152H186.795V120.04C186.795 116.256 186.795 114.364 186.177 112.872C185.353 110.882 183.772 109.301 181.782 108.477C180.29 107.858 178.398 107.858 174.614 107.858H38.1815C34.3976 107.858 32.5056 107.858 31.0132 108.477C29.0233 109.301 27.4424 110.882 26.6182 112.872C26 114.364 26 116.256 26 120.04V152Z" fill="#FFE959"/>
<g clip-path="url(#clip1_63_12798)">
<path d="M80.9064 125.911H83.6838L79.4757 140.037H75.506L71.2979 125.911H74.0752L77.4908 137.684L80.9064 125.911Z" fill="black"/>
<path d="M91.3923 140.047H89.2882L89.0953 139.345C88.1797 139.94 87.1116 140.257 86.0199 140.257C84.1332 140.257 83.3267 138.963 83.3267 137.182C83.3267 135.078 84.2384 134.275 86.339 134.275H88.8218V133.195C88.8218 132.048 88.5027 131.645 86.8475 131.645C85.8853 131.654 84.9266 131.761 83.9859 131.964L83.6668 129.989C84.8208 129.671 86.0117 129.507 87.2087 129.502C90.4525 129.502 91.4168 130.649 91.4168 133.237L91.3923 140.047ZM88.8078 136.144H86.8966C86.0479 136.144 85.8165 136.379 85.8165 137.164C85.8165 137.883 86.0479 138.216 86.8685 138.216C87.5536 138.205 88.225 138.023 88.8218 137.687L88.8078 136.144Z" fill="black"/>
<path d="M95.4674 129.709V136.919C95.4674 137.47 95.6989 137.747 96.295 137.747C96.8912 137.747 98.0484 137.364 98.9882 136.877V129.709H101.576V140.047H99.6019L99.3494 139.177C98.0609 139.824 96.6513 140.193 95.2114 140.261C93.4931 140.261 92.8794 139.051 92.8794 137.207V129.72L95.4674 129.709Z" fill="black"/>
<path d="M102.954 140.047V125.497L105.542 125.147V140.047H102.954Z" fill="black"/>
<path d="M113.26 139.847C112.531 140.102 111.765 140.238 110.992 140.25C109.105 140.25 108.148 139.36 108.148 137.515V131.764H106.601V129.709H108.148V127.142L110.736 126.791V129.72H113.387L113.218 131.774H110.736V137.185C110.719 137.311 110.733 137.438 110.774 137.558C110.816 137.677 110.884 137.785 110.975 137.874C111.065 137.962 111.175 138.028 111.295 138.067C111.416 138.106 111.543 138.116 111.668 138.097C112.107 138.084 112.543 138.012 112.962 137.883L113.26 139.847Z" fill="black"/>
<path d="M40.6172 122.092L51.8003 143.855L63.0606 122.092H40.6172ZM50.0469 130.733H48.2935V128.951H50.0469V130.733ZM50.0469 128.061H48.2935V126.279H50.0469V128.061ZM52.7191 133.405H50.9482V131.631H52.7296L52.7191 133.405ZM52.7191 130.733H50.9482V128.951H52.7296L52.7191 130.733ZM52.7191 128.061H50.9482V126.279H52.7296L52.7191 128.061ZM55.3772 130.733H53.6063V128.951H55.3878L55.3772 130.733ZM53.5958 128.061V126.279H55.3772V128.061H53.5958Z" fill="black"/>
</g>
<g opacity="0.95">
<path d="M104.543 264.988L95.2534 270.346V270.35V283.219L98.7428 285.234V272.361L104.543 269.013V264.988Z" fill="white"/>
<path d="M108.252 264.988V275.239H104.543V271.414L101.052 273.429V286.562L104.543 288.581V278.359H108.252V282.159L111.741 280.145V267.003L108.252 264.988Z" fill="white"/>
<path d="M108.251 288.585L117.541 283.227V283.223V270.354L114.049 268.34V281.212L108.251 284.56V288.585Z" fill="white"/>
</g>
<path d="M469.517 161.897V293.015C469.517 295.905 469.494 296.823 469.282 297.616L472.028 298.351L469.282 297.616C468.969 298.786 468.352 299.853 467.495 300.71C466.916 301.29 466.132 301.769 463.629 303.214L397.849 341.187C395.347 342.631 394.54 343.07 393.749 343.282C392.578 343.596 391.346 343.596 390.176 343.282C389.384 343.07 388.577 342.631 386.075 341.187L320.295 303.214C317.793 301.769 317.009 301.29 316.429 300.71C315.572 299.853 314.956 298.786 314.642 297.616L311.897 298.351L314.642 297.616C314.43 296.824 314.407 295.905 314.407 293.015V161.897C314.407 159.966 314.408 158.66 314.477 157.647C314.545 156.659 314.667 156.158 314.809 155.816C315.344 154.523 316.372 153.495 317.665 152.959C318.008 152.818 318.508 152.696 319.496 152.628C320.509 152.559 321.815 152.557 323.746 152.557H460.178C462.109 152.557 463.415 152.559 464.428 152.628C465.416 152.696 465.917 152.818 466.259 152.959C467.552 153.495 468.58 154.523 469.116 155.816C469.257 156.158 469.379 156.659 469.447 157.647C469.516 158.66 469.517 159.966 469.517 161.897Z" fill="black" stroke="black" stroke-width="5.68468"/>
<g opacity="0.94">
<path d="M372.348 259.827C373.975 259.827 375.067 258.375 375.067 256.338C375.067 254.301 373.985 252.84 372.367 252.84C370.74 252.84 369.658 254.301 369.658 256.358C369.658 258.385 370.73 259.827 372.348 259.827ZM372.377 258.901C371.364 258.901 370.74 257.849 370.74 256.289C370.74 254.779 371.334 253.775 372.338 253.775C373.352 253.775 373.995 254.857 373.995 256.377C373.995 257.858 373.371 258.901 372.377 258.901Z" fill="white"/>
<path d="M378.496 259.827C380.123 259.827 381.215 258.375 381.215 256.338C381.215 254.301 380.133 252.84 378.515 252.84C376.888 252.84 375.806 254.301 375.806 256.358C375.806 258.385 376.878 259.827 378.496 259.827ZM378.525 258.901C377.511 258.901 376.888 257.849 376.888 256.289C376.888 254.779 377.482 253.775 378.486 253.775C379.499 253.775 380.143 254.857 380.143 256.377C380.143 257.858 379.519 258.901 378.525 258.901Z" fill="white"/>
<path d="M381.915 259.749H386.583V258.755H383.406L384.419 257.858C385.55 256.855 386.534 256.153 386.534 254.945C386.534 253.736 385.569 252.84 384.263 252.84C382.87 252.84 381.895 253.736 381.837 255.071H382.958C383.045 254.321 383.552 253.834 384.254 253.834C384.975 253.834 385.452 254.292 385.452 254.993C385.452 255.792 384.702 256.309 383.464 257.371L381.915 258.706V259.749Z" fill="white"/>
</g>
<g opacity="0.94">
<path d="M331.603 259.749H332.392V256.611H335.949V259.749H336.738V252.927H335.949V255.929H332.392V252.927H331.603V259.749Z" fill="#F85C94"/>
<path d="M341.184 259.807C342.762 259.807 343.844 258.794 344.068 257.488H343.25C343.065 258.326 342.275 259.047 341.193 259.047C339.858 259.047 338.933 257.946 338.933 256.387C338.933 254.769 339.868 253.61 341.232 253.61C342.285 253.61 343.055 254.321 343.25 255.169H344.068C343.864 253.863 342.782 252.869 341.242 252.869C339.41 252.869 338.095 254.301 338.095 256.377C338.095 258.394 339.42 259.807 341.184 259.807Z" fill="#F85C94"/>
<path d="M348.121 259.807C349.7 259.807 350.782 258.794 351.006 257.488H350.187C350.002 258.326 349.213 259.047 348.131 259.047C346.796 259.047 345.87 257.946 345.87 256.387C345.87 254.769 346.806 253.61 348.17 253.61C349.223 253.61 349.993 254.321 350.187 255.169H351.006C350.801 253.863 349.72 252.869 348.18 252.869C346.348 252.869 345.032 254.301 345.032 256.377C345.032 258.394 346.358 259.807 348.121 259.807Z" fill="#F85C94"/>
<path d="M352.442 259.749L353.124 257.907H356.058L356.759 259.749H357.617L354.996 252.927H354.187L351.585 259.739L352.442 259.749ZM353.368 257.176L354.596 253.814L355.824 257.176H353.368Z" fill="#F85C94"/>
<path d="M360.975 259.846C362.544 259.846 363.548 258.463 363.548 256.377C363.548 254.282 362.554 252.888 360.995 252.888C359.436 252.888 358.432 254.282 358.432 256.377C358.432 258.463 359.426 259.846 360.975 259.846ZM360.995 259.155C359.874 259.155 359.182 258.063 359.182 256.348C359.182 254.672 359.864 253.58 360.966 253.58C362.096 253.58 362.798 254.691 362.798 256.387C362.798 258.063 362.106 259.155 360.995 259.155Z" fill="#F85C94"/>
<path d="M364.97 256.874H368.381V256.309H364.97V256.874Z" fill="#F85C94"/>
</g>
<path d="M455.691 213.044L457.294 216.521L461.097 216.972L458.286 219.572L459.032 223.328L455.691 221.457L452.349 223.328L453.095 219.572L450.284 216.972L454.087 216.521L455.691 213.044Z" fill="white"/>
<path d="M455.691 228.635L457.294 232.112L461.097 232.563L458.286 235.163L459.032 238.918L455.691 237.048L452.349 238.918L453.095 235.163L450.284 232.563L454.087 232.112L455.691 228.635Z" fill="black"/>
<path d="M455.69 244.224L457.293 247.702L461.096 248.152L458.285 250.752L459.031 254.508L455.69 252.638L452.348 254.508L453.094 250.752L450.283 248.152L454.086 247.702L455.69 244.224Z" fill="black"/>
<path opacity="0.95" d="M336.346 224.323C338.596 224.323 340.253 223.039 340.847 221.424L339.798 221.148C339.314 222.363 338.058 223.288 336.332 223.288C333.985 223.288 332.439 221.451 332.439 219.27C332.439 217.144 333.985 215.336 336.332 215.336C338.058 215.336 339.328 216.274 339.798 217.475L340.874 217.213C340.295 215.598 338.61 214.3 336.332 214.3C333.488 214.3 331.335 216.468 331.335 219.284C331.335 222.142 333.488 224.323 336.346 224.323ZM349.715 215.487V214.48H342.909V224.144H349.702V223.136H344V219.712H349.011V218.746H344V215.487H349.715ZM358.372 224.144H359.642L357.047 220.292C358.621 220.002 359.463 218.718 359.463 217.42C359.463 216.012 358.386 214.48 356.398 214.48H351.925V224.144H353.016V220.347H355.846L358.372 224.144ZM353.016 215.474H356.37C357.627 215.474 358.4 216.412 358.4 217.42C358.4 218.442 357.641 219.367 356.357 219.367H353.016V215.474ZM369.082 214.48H360.84V215.487H364.416V224.144H365.521V215.487H369.082V214.48ZM370.738 224.144H371.843V214.48H370.738V224.144ZM381.03 215.487V214.48H374.334V224.144H375.439V219.85H380.326V218.87H375.439V215.487H381.03ZM382.743 224.144H383.848V214.48H382.743V224.144ZM393.146 215.487V214.48H386.339V224.144H393.132V223.136H387.43V219.712H392.441V218.746H387.43V215.487H393.146ZM399.027 214.48H395.355V224.144H399.027C402.023 224.144 403.777 222.087 403.777 219.312C403.777 216.537 402.023 214.48 399.027 214.48ZM399.014 223.136H396.446V215.474H399.014C401.374 215.474 402.672 217.158 402.672 219.284C402.672 221.479 401.374 223.136 399.014 223.136ZM338.707 242.144H340.681L336.967 232.48H334.51L330.81 242.144H332.771L333.571 240.045H337.92L338.707 242.144ZM334.192 238.375L335.739 234.288L337.285 238.375H334.192ZM345.614 242.337C347.933 242.337 349.48 240.998 349.48 239.341C349.48 237.767 348.361 237.146 346.884 236.69L344.482 235.917C343.847 235.724 343.557 235.434 343.557 235.006C343.557 234.44 344.164 233.957 345.117 233.957C346.208 233.957 347.105 234.495 347.505 235.282L349.259 234.771C348.734 233.432 347.188 232.286 345.103 232.286C343.088 232.286 341.624 233.556 341.638 235.061C341.624 236.304 342.549 237.118 343.819 237.519L346.291 238.292C347.216 238.595 347.561 238.941 347.561 239.451C347.561 240.087 346.857 240.666 345.725 240.666C344.33 240.666 343.35 239.866 342.963 238.858L341.155 239.41C341.693 240.915 343.253 242.337 345.614 242.337ZM355.075 242.337C357.394 242.337 358.94 240.998 358.94 239.341C358.94 237.767 357.822 237.146 356.345 236.69L353.943 235.917C353.308 235.724 353.018 235.434 353.018 235.006C353.018 234.44 353.625 233.957 354.578 233.957C355.668 233.957 356.566 234.495 356.966 235.282L358.719 234.771C358.195 233.432 356.649 232.286 354.564 232.286C352.548 232.286 351.085 233.556 351.099 235.061C351.085 236.304 352.01 237.118 353.28 237.519L355.751 238.292C356.676 238.595 357.021 238.941 357.021 239.451C357.021 240.087 356.317 240.666 355.185 240.666C353.791 240.666 352.811 239.866 352.424 238.858L350.616 239.41C351.154 240.915 352.714 242.337 355.075 242.337ZM365.254 242.337C368.167 242.337 370.32 240.156 370.32 237.298C370.32 234.454 368.167 232.286 365.254 232.286C362.327 232.286 360.173 234.454 360.173 237.298C360.173 240.156 362.327 242.337 365.254 242.337ZM365.254 240.584C363.335 240.584 362.092 239.148 362.092 237.298C362.092 235.489 363.335 234.04 365.254 234.04C367.159 234.04 368.415 235.489 368.415 237.298C368.415 239.148 367.159 240.584 365.254 240.584ZM376.804 242.337C379.358 242.337 380.987 240.777 381.429 239.231L379.593 238.761C379.275 239.714 378.24 240.556 376.776 240.556C374.871 240.556 373.656 239.023 373.656 237.284C373.656 235.544 374.871 234.067 376.776 234.067C378.24 234.067 379.275 234.937 379.593 235.876L381.443 235.42C381.001 233.888 379.372 232.286 376.763 232.286C373.891 232.286 371.724 234.454 371.724 237.298C371.724 240.156 373.891 242.337 376.804 242.337ZM383.175 242.144H385.094V232.48H383.175V242.144ZM394.352 242.144H396.326L392.612 232.48H390.155L386.455 242.144H388.415L389.216 240.045H393.565L394.352 242.144ZM389.837 238.375L391.384 234.288L392.93 238.375H389.837ZM404.191 232.48H395.811V234.191H399.056V242.144H400.947V234.191H404.191V232.48ZM412.83 234.191V232.48H405.706V242.144H412.816V240.432H407.556V238.057H412.126V236.4H407.556V234.191H412.83Z" fill="white"/>
<path fill-rule="evenodd" clip-rule="evenodd" d="M471.932 162.043V295.932C471.932 296.242 471.932 296.533 471.932 296.809V195.026H311.137V162.043C311.137 158.259 311.137 156.367 311.755 154.875C312.579 152.885 314.16 151.304 316.15 150.48C317.642 149.861 319.534 149.861 323.318 149.861H459.751C463.535 149.861 465.426 149.861 466.919 150.48C468.909 151.304 470.49 152.885 471.314 154.875C471.932 156.367 471.932 158.259 471.932 162.043ZM394.26 349.587H388.809C388.865 349.604 388.921 349.62 388.976 349.635C390.651 350.09 392.417 350.09 394.092 349.635C394.148 349.62 394.204 349.604 394.26 349.587Z" fill="#E03875"/>
<g clip-path="url(#clip2_63_12798)">
<path d="M360.62 171.472C360.62 168.952 362.088 167.484 365.517 167.484C366.782 167.483 368.043 167.636 369.272 167.938L368.982 170.191C367.872 169.983 366.745 169.869 365.616 169.85C363.816 169.85 363.225 170.468 363.225 171.936V177.215C363.225 178.68 363.802 179.301 365.616 179.301C366.745 179.282 367.872 179.168 368.982 178.96L369.272 181.214C368.043 181.516 366.782 181.668 365.517 181.668C362.102 181.668 360.62 180.199 360.62 177.68V171.472Z" fill="white"/>
<path d="M374.834 181.657C371.382 181.657 370.457 179.752 370.457 177.703V175.149C370.457 173.101 371.386 171.182 374.838 171.182C378.29 171.182 379.215 173.084 379.215 175.149V177.703C379.212 179.752 378.283 181.657 374.834 181.657ZM374.834 173.329C373.489 173.329 372.974 173.93 372.974 175.067V177.772C372.974 178.909 373.489 179.506 374.834 179.506C376.18 179.506 376.692 178.909 376.692 177.772V175.067C376.692 173.947 376.176 173.329 374.834 173.329Z" fill="white"/>
<path d="M386.877 181.459V174.425C386.877 173.889 386.648 173.62 386.071 173.62C385.494 173.62 384.364 173.992 383.446 174.466V181.459H380.926V171.39H382.848L383.091 172.24C384.345 171.612 385.718 171.252 387.12 171.185C388.793 171.185 389.394 172.363 389.394 174.159V181.459H386.877Z" fill="white"/>
<path d="M394.58 181.657C393.402 181.638 392.232 181.442 391.111 181.077L391.453 179.158C392.427 179.436 393.434 179.582 394.447 179.592C395.564 179.592 395.728 179.342 395.728 178.567C395.728 177.949 395.605 177.639 393.973 177.246C391.514 176.648 391.224 176.027 391.224 174.084C391.224 172.059 392.112 171.171 394.98 171.171C395.995 171.169 397.007 171.283 397.995 171.513L397.773 173.538C396.859 173.369 395.933 173.272 395.004 173.247C393.908 173.247 393.723 173.497 393.723 174.115C393.723 174.921 393.785 174.982 395.151 175.334C397.957 176.078 398.224 176.45 398.224 178.516C398.217 180.459 397.619 181.657 394.58 181.657Z" fill="white"/>
<path d="M402.389 171.39V178.414C402.389 178.95 402.614 179.219 403.195 179.219C403.775 179.219 404.902 178.847 405.817 178.373V171.39H408.337V181.459H406.418L406.169 180.613C404.914 181.242 403.542 181.601 402.14 181.668C400.467 181.668 399.869 180.49 399.869 178.69V171.39H402.389Z" fill="white"/>
<path d="M410.505 181.459V167.279L413.025 166.937V181.459H410.505Z" fill="white"/>
<path d="M341.604 185.417C339.84 185.418 338.101 184.988 336.54 184.165C334.979 183.342 333.642 182.15 332.646 180.693C331.65 179.236 331.025 177.558 330.824 175.805C330.624 174.052 330.854 172.276 331.495 170.632C332.137 168.987 333.169 167.525 334.504 166.37C335.839 165.216 337.436 164.404 339.155 164.007C340.874 163.609 342.665 163.637 344.371 164.088C346.077 164.54 347.648 165.4 348.946 166.596V166.596L346.381 169.287C345.358 168.364 344.089 167.758 342.728 167.541C341.367 167.325 339.972 167.508 338.713 168.068C337.454 168.628 336.384 169.541 335.634 170.697C334.883 171.853 334.483 173.201 334.483 174.579C334.483 175.957 334.883 177.306 335.634 178.461C336.384 179.617 337.454 180.53 338.713 181.09C339.972 181.65 341.367 181.833 342.728 181.617C344.089 181.401 345.358 180.794 346.381 179.872V179.872L348.946 182.552C346.946 184.397 344.325 185.42 341.604 185.417V185.417Z" fill="white"/>
<path d="M350.332 179.991C350.157 179.991 349.985 179.939 349.839 179.842C349.693 179.744 349.579 179.605 349.512 179.443C349.445 179.281 349.427 179.102 349.461 178.93C349.496 178.758 349.58 178.6 349.704 178.476C349.829 178.351 349.987 178.267 350.159 178.233C350.331 178.198 350.51 178.216 350.672 178.283C350.834 178.35 350.973 178.464 351.07 178.61C351.168 178.756 351.22 178.928 351.22 179.103C351.22 179.339 351.126 179.565 350.96 179.731C350.793 179.898 350.568 179.991 350.332 179.991V179.991Z" fill="white"/>
<path d="M341.536 176.921C341.071 176.921 340.617 176.784 340.231 176.526C339.844 176.267 339.543 175.901 339.365 175.471C339.188 175.042 339.141 174.57 339.232 174.114C339.322 173.658 339.546 173.24 339.875 172.911C340.203 172.583 340.622 172.359 341.077 172.268C341.533 172.178 342.005 172.224 342.435 172.402C342.864 172.58 343.231 172.881 343.489 173.267C343.747 173.653 343.885 174.108 343.885 174.572C343.885 175.195 343.637 175.793 343.197 176.233C342.756 176.674 342.159 176.921 341.536 176.921V176.921Z" fill="white"/>
<path d="M351.353 176.956C351.177 176.956 351.005 176.904 350.859 176.806C350.713 176.708 350.6 176.57 350.532 176.408C350.465 176.245 350.448 176.067 350.482 175.895C350.516 175.722 350.601 175.564 350.725 175.44C350.849 175.316 351.007 175.231 351.179 175.197C351.352 175.163 351.53 175.18 351.692 175.248C351.855 175.315 351.993 175.429 352.091 175.575C352.188 175.721 352.24 175.892 352.24 176.068C352.239 176.303 352.146 176.528 351.979 176.695C351.813 176.861 351.588 176.955 351.353 176.956Z" fill="white"/>
<path d="M348.71 176.853C348.534 176.853 348.363 176.801 348.217 176.704C348.071 176.606 347.957 176.467 347.89 176.305C347.823 176.143 347.805 175.964 347.839 175.792C347.874 175.62 347.958 175.462 348.082 175.338C348.206 175.214 348.365 175.129 348.537 175.095C348.709 175.06 348.888 175.078 349.05 175.145C349.212 175.212 349.351 175.326 349.448 175.472C349.546 175.618 349.598 175.79 349.598 175.965C349.598 176.201 349.504 176.427 349.338 176.593C349.171 176.76 348.945 176.853 348.71 176.853V176.853Z" fill="white"/>
<path d="M351.353 173.968C351.177 173.968 351.005 173.916 350.859 173.818C350.713 173.721 350.6 173.582 350.532 173.42C350.465 173.258 350.448 173.079 350.482 172.907C350.516 172.735 350.601 172.577 350.725 172.452C350.849 172.328 351.007 172.244 351.179 172.209C351.352 172.175 351.53 172.193 351.692 172.26C351.855 172.327 351.993 172.441 352.091 172.587C352.188 172.733 352.24 172.905 352.24 173.08C352.239 173.315 352.146 173.541 351.979 173.707C351.813 173.873 351.588 173.967 351.353 173.968V173.968Z" fill="white"/>
<path d="M348.71 174.07C348.534 174.07 348.363 174.018 348.217 173.921C348.071 173.823 347.957 173.684 347.89 173.522C347.823 173.36 347.805 173.182 347.839 173.009C347.874 172.837 347.958 172.679 348.082 172.555C348.206 172.431 348.365 172.346 348.537 172.312C348.709 172.278 348.888 172.295 349.05 172.362C349.212 172.43 349.351 172.543 349.448 172.689C349.546 172.835 349.598 173.007 349.598 173.183C349.598 173.418 349.504 173.644 349.338 173.81C349.171 173.977 348.945 174.07 348.71 174.07V174.07Z" fill="white"/>
<path d="M350.383 170.98C350.207 170.98 350.036 170.928 349.89 170.831C349.744 170.733 349.63 170.594 349.563 170.432C349.496 170.27 349.478 170.091 349.512 169.919C349.546 169.747 349.631 169.589 349.755 169.465C349.879 169.341 350.037 169.256 350.21 169.222C350.382 169.188 350.56 169.205 350.723 169.272C350.885 169.339 351.023 169.453 351.121 169.599C351.219 169.745 351.271 169.917 351.271 170.092C351.271 170.328 351.177 170.554 351.011 170.72C350.844 170.887 350.618 170.98 350.383 170.98V170.98Z" fill="white"/>
</g>
<g opacity="0.95">
<path d="M389.68 306.991L380.391 312.349V312.353V325.222L383.88 327.237V314.364L389.68 311.016V306.991Z" fill="white"/>
<path d="M393.389 306.991V317.242H389.681V313.417L386.189 315.432V328.565L389.681 330.584V320.362H393.389V324.162L396.879 322.147V309.006L393.389 306.991Z" fill="white"/>
<path d="M393.389 330.588L402.678 325.23V325.226V312.357L399.187 310.342V323.215L393.389 326.563V330.588Z" fill="white"/>
</g>
<defs>
<linearGradient id="paint0_linear_63_12798" x1="425.059" y1="258.761" x2="451.972" y2="430.587" gradientUnits="userSpaceOnUse">
<stop stop-color="#922479"/>
<stop offset="1" stop-color="#96267A" stop-opacity="0"/>
</linearGradient>
<linearGradient id="paint1_linear_63_12798" x1="382.863" y1="280.926" x2="332.702" y2="411.877" gradientUnits="userSpaceOnUse">
<stop stop-color="#E771A4"/>
<stop offset="1" stop-color="#F81696" stop-opacity="0.14"/>
</linearGradient>
<linearGradient id="paint2_linear_63_12798" x1="300.895" y1="127.818" x2="333.429" y2="335.535" gradientUnits="userSpaceOnUse">
<stop stop-color="#532A7D"/>
<stop offset="1" stop-color="#33197C" stop-opacity="0"/>
</linearGradient>
<linearGradient id="paint3_linear_63_12798" x1="249.884" y1="154.613" x2="189.245" y2="312.917" gradientUnits="userSpaceOnUse">
<stop stop-color="#76A0F3"/>
<stop offset="1" stop-color="#522AC2" stop-opacity="0"/>
</linearGradient>
<linearGradient id="paint4_linear_63_12798" x1="139.778" y1="233.463" x2="146.596" y2="401.016" gradientUnits="userSpaceOnUse">
<stop stop-color="#9B7003"/>
<stop offset="1" stop-color="#DF706F" stop-opacity="0"/>
</linearGradient>
<linearGradient id="paint5_linear_63_12798" x1="97" y1="246" x2="70.2518" y2="392.102" gradientUnits="userSpaceOnUse">
<stop offset="0.19001" stop-color="#FECA13" stop-opacity="0.76"/>
<stop offset="1" stop-color="#E36666" stop-opacity="0.06"/>
</linearGradient>
<clipPath id="clip0_63_12798">
<rect width="110.918" height="31.1846" fill="white" transform="translate(194.801 24.2607)"/>
</clipPath>
<clipPath id="clip1_63_12798">
<rect width="72.9412" height="30.8597" fill="white" transform="translate(40.6172 117.604)"/>
</clipPath>
<clipPath id="clip2_63_12798">
<rect width="82.2895" height="30.0476" fill="white" transform="translate(330.754 159.606)"/>
</clipPath>
</defs>
</svg>
