<svg width="373" height="286" viewBox="0 0 373 286" fill="none" xmlns="http://www.w3.org/2000/svg">
<mask id="mask0_20982_279471" style="mask-type:alpha" maskUnits="userSpaceOnUse" x="0" y="0" width="373" height="286">
<path d="M0.605 24.2C0.605 11.1688 11.1688 0.605 24.2 0.605H348.8C361.831 0.605 372.395 11.1688 372.395 24.2V261.8C372.395 274.831 361.831 285.395 348.8 285.395H24.2C11.1689 285.395 0.605 274.831 0.605 261.8V24.2Z" fill="#16181D" stroke="#5D5F65" stroke-width="1.21"/>
</mask>
<g mask="url(#mask0_20982_279471)">
<path d="M184.927 163.623L256.932 122.051L256.932 289.558L184.927 331.13L184.927 163.623Z" fill="url(#paint0_linear_20982_279471)" fill-opacity="0.6"/>
<path d="M184.928 163.623L112.923 122.051L112.923 292.575L184.928 334.147L184.928 163.623Z" fill="url(#paint1_linear_20982_279471)" fill-opacity="0.6"/>
<path d="M127.771 128.138L127.718 128.107L127.718 128.107C125.733 126.962 125.112 126.582 124.652 126.122C123.972 125.443 123.484 124.596 123.235 123.668L121.058 124.251L123.235 123.668C123.067 123.04 123.048 122.312 123.048 120.02V16.0449C123.048 14.5138 123.05 13.4783 123.104 12.6747C123.158 11.8914 123.255 11.4944 123.367 11.2231C123.792 10.1975 124.607 9.38259 125.632 8.95775C125.904 8.84536 126.301 8.74861 127.084 8.69516C127.888 8.64034 128.923 8.63911 130.454 8.63911H238.643C240.174 8.63911 241.21 8.64034 242.013 8.69516C242.797 8.74861 243.194 8.84536 243.465 8.95774L244.327 6.87538L243.465 8.95775C244.491 9.38259 245.305 10.1975 245.73 11.2231C245.843 11.4944 245.939 11.8914 245.993 12.6748C246.048 13.4783 246.049 14.5138 246.049 16.0449V120.02C246.049 122.312 246.031 123.04 245.862 123.668C245.614 124.596 245.125 125.443 244.445 126.122C243.986 126.582 243.364 126.962 241.38 128.107L241.38 128.107L241.363 128.117L189.217 158.219C187.233 159.365 186.593 159.713 185.965 159.881C185.037 160.13 184.06 160.13 183.132 159.881C182.504 159.713 181.864 159.365 179.88 158.219L127.771 128.138Z" fill="black" stroke="black" stroke-width="4.50787"/>
<g opacity="0.94">
<path d="M136.494 94.0301H137.12V91.5417H139.94V94.0301H140.566V88.6206H139.94V91.0008H137.12V88.6206H136.494V94.0301ZM144.091 94.0765C145.343 94.0765 146.201 93.2728 146.379 92.2372H145.73C145.583 92.9018 144.957 93.4737 144.099 93.4737C143.04 93.4737 142.306 92.6005 142.306 91.364C142.306 90.0812 143.048 89.1616 144.13 89.1616C144.965 89.1616 145.575 89.7257 145.73 90.398H146.379C146.216 89.3625 145.359 88.5743 144.138 88.5743C142.685 88.5743 141.642 89.7103 141.642 91.3563C141.642 92.9559 142.693 94.0765 144.091 94.0765ZM148.54 94.0301H149.135V89.1848H151.067V88.6206H146.6V89.1848H148.54V94.0301ZM151.389 94.0301L151.93 92.5695H154.256L154.813 94.0301H155.493L153.414 88.6206H152.772L150.709 94.0224L151.389 94.0301ZM152.123 91.99L153.097 89.3239L154.071 91.99H152.123ZM158.156 94.1074C159.4 94.1074 160.196 93.01 160.196 91.3563C160.196 89.6948 159.408 88.5897 158.171 88.5897C156.935 88.5897 156.139 89.6948 156.139 91.3563C156.139 93.01 156.927 94.1074 158.156 94.1074ZM158.171 93.5587C157.282 93.5587 156.734 92.6932 156.734 91.3331C156.734 90.0039 157.275 89.1384 158.148 89.1384C159.044 89.1384 159.601 90.0194 159.601 91.364C159.601 92.6932 159.052 93.5587 158.171 93.5587ZM161.323 91.7504H164.028V91.3022H161.323V91.7504Z" fill="#AC72F0"/>
<path d="M167.174 94.0919C168.465 94.0919 169.33 92.9405 169.33 91.3254C169.33 89.7103 168.472 88.5511 167.19 88.5511C165.899 88.5511 165.041 89.7103 165.041 91.3408C165.041 92.9482 165.891 94.0919 167.174 94.0919ZM167.197 93.3578C166.394 93.3578 165.899 92.5232 165.899 91.2867C165.899 90.0889 166.37 89.293 167.166 89.293C167.97 89.293 168.48 90.1507 168.48 91.3563C168.48 92.5309 167.986 93.3578 167.197 93.3578ZM172.049 94.0919C173.34 94.0919 174.205 92.9405 174.205 91.3254C174.205 89.7103 173.348 88.5511 172.065 88.5511C170.774 88.5511 169.916 89.7103 169.916 91.3408C169.916 92.9482 170.767 94.0919 172.049 94.0919ZM172.073 93.3578C171.269 93.3578 170.774 92.5232 170.774 91.2867C170.774 90.0889 171.246 89.293 172.042 89.293C172.845 89.293 173.355 90.1507 173.355 91.3563C173.355 92.5309 172.861 93.3578 172.073 93.3578ZM174.761 94.0301H178.462V93.2419H175.943L176.747 92.5309C177.643 91.7349 178.424 91.1785 178.424 90.2203C178.424 89.262 177.659 88.5511 176.623 88.5511C175.518 88.5511 174.745 89.262 174.699 90.3208H175.588C175.657 89.7257 176.059 89.3393 176.615 89.3393C177.187 89.3393 177.566 89.7025 177.566 90.2589C177.566 90.8926 176.971 91.3022 175.989 92.1445L174.761 93.2032V94.0301Z" fill="white"/>
</g>
<path d="M235.141 56.923L236.413 59.6803L239.428 60.0379L237.199 62.0995L237.791 65.0778L235.141 63.5946L232.492 65.0778L233.083 62.0995L230.854 60.0379L233.869 59.6803L235.141 56.923Z" fill="white"/>
<path d="M235.141 69.2867L236.413 72.0441L239.428 72.4016L237.199 74.4632L237.791 77.4415L235.141 75.9584L232.492 77.4415L233.083 74.4632L230.854 72.4016L233.869 72.0441L235.141 69.2867Z" fill="black"/>
<path d="M235.141 81.6488L236.413 84.4062L239.428 84.7637L237.199 86.8253L237.791 89.8036L235.141 88.3205L232.492 89.8036L233.083 86.8253L230.854 84.7637L233.869 84.4062L235.141 81.6488Z" fill="black"/>
<path opacity="0.95" d="M140.255 65.9727C142.04 65.9727 143.353 64.9546 143.824 63.6737L142.992 63.4547C142.609 64.4181 141.613 65.1516 140.244 65.1516C138.383 65.1516 137.157 63.6956 137.157 61.9659C137.157 60.2799 138.383 58.8458 140.244 58.8458C141.613 58.8458 142.62 59.5902 142.992 60.5427L143.846 60.3347C143.386 59.0538 142.051 58.0247 140.244 58.0247C137.989 58.0247 136.281 59.7435 136.281 61.9768C136.281 64.243 137.989 65.9727 140.255 65.9727ZM150.857 58.9662V58.167H145.46V65.8304H150.846V65.0312H146.324V62.3162H150.298V61.5499H146.324V58.9662H150.857ZM157.721 65.8304H158.729L156.67 62.776C157.919 62.5461 158.586 61.528 158.586 60.4989C158.586 59.3822 157.732 58.167 156.156 58.167H152.609V65.8304H153.474V62.8198H155.718L157.721 65.8304ZM153.474 58.9552H156.134C157.13 58.9552 157.743 59.6997 157.743 60.4989C157.743 61.309 157.141 62.0425 156.123 62.0425H153.474V58.9552ZM166.214 58.167H159.679V58.9662H162.514V65.8304H163.39V58.9662H166.214V58.167ZM167.528 65.8304H168.404V58.167H167.528V65.8304ZM175.689 58.9662V58.167H170.379V65.8304H171.255V62.4257H175.131V61.6484H171.255V58.9662H175.689ZM177.047 65.8304H177.923V58.167H177.047V65.8304ZM185.296 58.9662V58.167H179.899V65.8304H185.285V65.0312H180.764V62.3162H184.738V61.5499H180.764V58.9662H185.296ZM189.96 58.167H187.048V65.8304H189.96C192.336 65.8304 193.726 64.1992 193.726 61.9987C193.726 59.7982 192.336 58.167 189.96 58.167ZM189.95 65.0312H187.913V58.9552H189.95C191.822 58.9552 192.851 60.2909 192.851 61.9768C192.851 63.7175 191.822 65.0312 189.95 65.0312ZM142.127 79.8304H143.693L140.748 72.167H138.799L135.865 79.8304H137.42L138.055 78.1663H141.503L142.127 79.8304ZM138.547 76.8417L139.773 73.6012L141 76.8417H138.547ZM147.604 79.9837C149.444 79.9837 150.67 78.9217 150.67 77.608C150.67 76.36 149.783 75.8673 148.612 75.5061L146.707 74.893C146.203 74.7397 145.973 74.5098 145.973 74.1704C145.973 73.7216 146.455 73.3384 147.21 73.3384C148.075 73.3384 148.787 73.7654 149.104 74.3894L150.495 73.9843C150.079 72.9224 148.852 72.0137 147.199 72.0137C145.601 72.0137 144.441 73.0209 144.451 74.2142C144.441 75.1995 145.174 75.8454 146.181 76.1629L148.141 76.776C148.874 77.0168 149.148 77.2905 149.148 77.6956C149.148 78.1992 148.59 78.659 147.692 78.659C146.586 78.659 145.809 78.024 145.502 77.2248L144.068 77.6628C144.495 78.8561 145.732 79.9837 147.604 79.9837ZM155.107 79.9837C156.946 79.9837 158.172 78.9217 158.172 77.608C158.172 76.36 157.285 75.8673 156.114 75.5061L154.209 74.893C153.705 74.7397 153.475 74.5098 153.475 74.1704C153.475 73.7216 153.957 73.3384 154.712 73.3384C155.577 73.3384 156.289 73.7654 156.606 74.3894L157.997 73.9843C157.581 72.9224 156.355 72.0137 154.702 72.0137C153.103 72.0137 151.943 73.0209 151.954 74.2142C151.943 75.1995 152.676 75.8454 153.683 76.1629L155.643 76.776C156.377 77.0168 156.65 77.2905 156.65 77.6956C156.65 78.1992 156.092 78.659 155.194 78.659C154.088 78.659 153.311 78.024 153.005 77.2248L151.57 77.6628C151.997 78.8561 153.235 79.9837 155.107 79.9837ZM163.178 79.9837C165.488 79.9837 167.196 78.2539 167.196 75.9878C167.196 73.7325 165.488 72.0137 163.178 72.0137C160.857 72.0137 159.15 73.7325 159.15 75.9878C159.15 78.2539 160.857 79.9837 163.178 79.9837ZM163.178 78.5933C161.657 78.5933 160.671 77.4547 160.671 75.9878C160.671 74.5536 161.657 73.4041 163.178 73.4041C164.689 73.4041 165.685 74.5536 165.685 75.9878C165.685 77.4547 164.689 78.5933 163.178 78.5933ZM172.338 79.9837C174.363 79.9837 175.655 78.7466 176.005 77.5204L174.549 77.1482C174.297 77.9036 173.476 78.5714 172.316 78.5714C170.805 78.5714 169.842 77.3562 169.842 75.9768C169.842 74.5974 170.805 73.426 172.316 73.426C173.476 73.426 174.297 74.1157 174.549 74.8601L176.016 74.4989C175.666 73.2837 174.374 72.0137 172.305 72.0137C170.028 72.0137 168.309 73.7325 168.309 75.9878C168.309 78.2539 170.028 79.9837 172.338 79.9837ZM177.39 79.8304H178.912V72.167H177.39V79.8304ZM186.253 79.8304H187.818L184.873 72.167H182.925L179.991 79.8304H181.545L182.18 78.1663H185.629L186.253 79.8304ZM182.673 76.8417L183.899 73.6012L185.125 76.8417H182.673ZM194.055 72.167H187.41V73.5245H189.983V79.8304H191.483V73.5245H194.055V72.167ZM200.906 73.5245V72.167H195.257V79.8304H200.895V78.4729H196.724V76.5899H200.347V75.2762H196.724V73.5245H200.906Z" fill="white"/>
<path fill-rule="evenodd" clip-rule="evenodd" d="M247.694 41.7606V16.4797C247.694 13.4791 247.694 11.9789 247.204 10.7954C246.551 9.21746 245.297 7.9638 243.719 7.31019C242.536 6.81999 241.035 6.81999 238.035 6.81999H129.846C126.845 6.81999 125.345 6.81999 124.161 7.31019C122.584 7.9638 121.33 9.21746 120.676 10.7954C120.186 11.9789 120.186 13.4791 120.186 16.4797V41.7606H247.694Z" fill="#7B42BC"/>
<g clip-path="url(#clip0_20982_279471)">
<path d="M161.76 23.2172H158.796V21.4469H166.731V23.2172H163.768V32.0691H161.76V23.2172Z" fill="white"/>
<path d="M168.829 30.628C169.633 30.6243 170.432 30.5008 171.2 30.2618L171.503 31.7266C170.585 32.0578 169.617 32.2254 168.642 32.2219C166.205 32.2219 165.359 31.0891 165.359 29.2239V27.169C165.359 25.5277 166.092 24.142 168.578 24.142C171.065 24.142 171.624 25.5909 171.624 27.2638V28.9235H167.324V29.3213C167.324 30.2618 167.648 30.628 168.829 30.628ZM167.324 27.3613H169.796V26.9767C169.796 26.2443 169.572 25.7358 168.615 25.7358C167.659 25.7358 167.324 26.2443 167.324 26.9767V27.3613Z" fill="white"/>
<path d="M176.83 25.9255C176.115 26.2485 175.427 26.6273 174.772 27.0583V32.0691H172.828V24.3H174.469L174.598 25.1615C175.23 24.7327 175.915 24.3899 176.637 24.142L176.83 25.9255Z" fill="white"/>
<path d="M181.577 25.9255C180.863 26.2491 180.176 26.6278 179.522 27.0583V32.0691H177.578V24.3H179.219L179.345 25.1615C179.978 24.7328 180.664 24.3899 181.387 24.142L181.577 25.9255Z" fill="white"/>
<path d="M188.079 32.0691H186.485L186.343 31.5422C185.655 31.9884 184.852 32.2263 184.032 32.2272C182.612 32.2272 182.006 31.255 182.006 29.9167C182.006 28.336 182.694 27.7328 184.269 27.7328H186.135V26.9134C186.135 26.0546 185.897 25.7516 184.654 25.7516C183.93 25.7592 183.209 25.8386 182.502 25.9887L182.262 24.5082C183.129 24.2681 184.023 24.145 184.923 24.142C187.362 24.142 188.084 25.0008 188.084 26.945L188.079 32.0691ZM186.135 29.129H184.712C184.074 29.129 183.898 29.3055 183.898 29.8957C183.898 30.4225 184.074 30.686 184.688 30.686C185.202 30.6778 185.706 30.541 186.153 30.2882L186.135 29.129Z" fill="white"/>
<path d="M194.056 22.5323C193.689 22.4517 193.315 22.4085 192.939 22.4032C192.175 22.4032 192.065 22.7378 192.065 23.3279V24.3H194.041L193.933 25.8465H192.07V32.0691H190.126V25.8465H188.882V24.3H190.126V23.2173C190.126 21.6076 190.874 20.8094 192.594 20.8094C193.16 20.8073 193.722 20.8826 194.267 21.0333L194.056 22.5323Z" fill="white"/>
<path d="M197.847 32.2219C195.187 32.2219 194.459 30.7519 194.459 29.1712V27.2006C194.459 25.6199 195.176 24.142 197.837 24.142C200.498 24.142 201.217 25.6067 201.217 27.2006V29.1712C201.227 30.7519 200.519 32.2219 197.847 32.2219ZM197.847 25.799C196.812 25.799 196.414 26.2601 196.414 27.1374V29.2239C196.414 30.1011 196.812 30.5648 197.847 30.5648C198.883 30.5648 199.283 30.1011 199.283 29.2239V27.1374C199.283 26.2733 198.885 25.799 197.847 25.799Z" fill="white"/>
<path d="M206.23 25.9255C205.517 26.2491 204.83 26.6278 204.175 27.0583V32.0691H202.231V24.3H203.872L203.999 25.1615C204.635 24.7324 205.325 24.3896 206.051 24.142L206.23 25.9255Z" fill="white"/>
<path d="M211.583 32.0691V26.6421C211.583 26.2285 211.407 26.0203 210.962 26.0203C210.516 26.0203 209.644 26.3075 208.938 26.6763V32.0691H206.991V24.3H208.475L208.667 24.9534C209.635 24.4703 210.693 24.194 211.773 24.142C212.524 24.142 212.985 24.4449 213.24 24.9692C214.211 24.4738 215.276 24.1917 216.365 24.142C217.656 24.142 218.117 25.0482 218.117 26.4366V32.0691H216.173V26.6421C216.173 26.2285 215.996 26.0203 215.551 26.0203C214.838 26.0949 214.149 26.3183 213.528 26.6763V32.0691H211.583Z" fill="white"/>
<path fill-rule="evenodd" clip-rule="evenodd" d="M141.406 19.5527L146.438 22.4585V28.2701L141.406 25.3643V19.5527Z" fill="white"/>
<path fill-rule="evenodd" clip-rule="evenodd" d="M146.989 22.4585V28.2701L152.023 25.3643V19.5527L146.989 22.4585Z" fill="white"/>
<path fill-rule="evenodd" clip-rule="evenodd" d="M135.821 16.3096V22.1213L140.853 25.0271V19.2155L135.821 16.3096Z" fill="white"/>
<path fill-rule="evenodd" clip-rule="evenodd" d="M141.406 31.8136L146.438 34.7194V28.9446V28.9077L141.406 26.0019V31.8136Z" fill="white"/>
</g>
<g opacity="0.95">
<path d="M182.796 131.421L175.429 135.67V135.673V145.878L178.196 147.476V137.268L182.796 134.613V131.421Z" fill="white"/>
<path d="M185.736 131.421V139.55H182.796V136.517L180.027 138.115V148.529L182.796 150.13V142.024H185.736V145.038L188.503 143.44V133.019L185.736 131.421Z" fill="white"/>
<path d="M185.736 150.134L193.103 145.885V145.881V135.677L190.334 134.079V144.287L185.736 146.942V150.134Z" fill="white"/>
</g>
<path d="M80.8457 253.287L140.691 227.901L140.691 367.361L80.8457 392.747L80.8457 253.287Z" fill="url(#paint2_linear_20982_279471)" fill-opacity="0.6"/>
<path d="M80.8457 253.287L20.9999 227.901L20.9999 376.637L80.8457 402.023L80.8457 253.287Z" fill="url(#paint3_linear_20982_279471)" fill-opacity="0.6"/>
<g clip-path="url(#clip1_20982_279471)" filter="url(#filter0_d_20982_279471)">
<path d="M137.941 125.369V222.846C137.941 224.994 137.924 225.677 137.766 226.265L139.807 226.812L137.766 226.265C137.533 227.136 137.075 227.929 136.438 228.566C136.007 228.997 135.424 229.353 133.564 230.427L84.6613 258.657C82.8014 259.731 82.2015 260.057 81.6128 260.215C80.7427 260.448 79.8267 260.448 78.9567 260.215C78.3679 260.057 77.7681 259.731 75.9081 258.657L27.0057 230.427C25.1454 229.353 24.5625 228.997 24.1314 228.566L22.6373 230.06L24.1314 228.566C23.4944 227.929 23.0363 227.136 22.8031 226.265C22.6453 225.677 22.6282 224.994 22.6282 222.846V125.369C22.6282 123.933 22.6293 122.963 22.6807 122.209C22.7309 121.475 22.8216 121.103 22.9269 120.848C23.3252 119.887 24.0892 119.123 25.0507 118.724C25.3051 118.619 25.6773 118.528 26.4116 118.478C27.165 118.427 28.1357 118.426 29.5711 118.426H130.998C132.434 118.426 133.404 118.427 134.158 118.478C134.892 118.528 135.264 118.619 135.519 118.724L136.326 116.775L135.519 118.724C136.48 119.123 137.244 119.887 137.643 120.848C137.748 121.103 137.839 121.475 137.889 122.209C137.94 122.963 137.941 123.933 137.941 125.369Z" fill="black" stroke="black" stroke-width="4.22613"/>
<g opacity="0.94">
<path d="M32.497 198.543H33.0838V196.21H35.7282V198.543H36.315V193.471H35.7282V195.703H33.0838V193.471H32.497V198.543ZM39.6199 198.586C40.7935 198.586 41.5977 197.833 41.7643 196.862H41.1558C41.0181 197.485 40.4313 198.021 39.6271 198.021C38.6346 198.021 37.9463 197.202 37.9463 196.043C37.9463 194.841 38.6418 193.978 39.6561 193.978C40.4385 193.978 41.0109 194.507 41.1558 195.138H41.7643C41.6122 194.167 40.808 193.428 39.6633 193.428C38.3013 193.428 37.3233 194.493 37.3233 196.036C37.3233 197.536 38.3086 198.586 39.6199 198.586ZM44.1183 198.543H44.7776L46.6322 193.471H46.0526L44.4588 197.891L42.8359 193.471H42.2636L44.1183 198.543ZM47.2327 198.543L47.7399 197.173H49.9206L50.4422 198.543H51.0797L49.1309 193.471H48.5296L46.5952 198.535L47.2327 198.543ZM47.921 196.63L48.8338 194.131L49.7467 196.63H47.921ZM53.5764 198.615C54.7428 198.615 55.489 197.586 55.489 196.036C55.489 194.478 54.7501 193.442 53.5909 193.442C52.4317 193.442 51.6855 194.478 51.6855 196.036C51.6855 197.586 52.4245 198.615 53.5764 198.615ZM53.5909 198.101C52.7578 198.101 52.2434 197.289 52.2434 196.014C52.2434 194.768 52.7505 193.957 53.5692 193.957C54.4096 193.957 54.9312 194.783 54.9312 196.043C54.9312 197.289 54.4168 198.101 53.5909 198.101ZM56.5461 196.405H59.0818V195.985H56.5461V196.405Z" fill="#FFE959"/>
<path d="M62.0312 198.601C63.2411 198.601 64.0525 197.521 64.0525 196.007C64.0525 194.493 63.2483 193.406 62.0457 193.406C60.8358 193.406 60.0316 194.493 60.0316 196.021C60.0316 197.528 60.8286 198.601 62.0312 198.601ZM62.0529 197.912C61.2995 197.912 60.8358 197.13 60.8358 195.971C60.8358 194.848 61.2777 194.102 62.024 194.102C62.7774 194.102 63.2556 194.906 63.2556 196.036C63.2556 197.137 62.7919 197.912 62.0529 197.912ZM66.6017 198.601C67.8115 198.601 68.623 197.521 68.623 196.007C68.623 194.493 67.8188 193.406 66.6161 193.406C65.4063 193.406 64.6021 194.493 64.6021 196.021C64.6021 197.528 65.399 198.601 66.6017 198.601ZM66.6234 197.912C65.8699 197.912 65.4063 197.13 65.4063 195.971C65.4063 194.848 65.8482 194.102 66.5944 194.102C67.3479 194.102 67.826 194.906 67.826 196.036C67.826 197.137 67.3624 197.912 66.6234 197.912ZM69.1436 198.543H72.6138V197.804H70.252L71.0055 197.137C71.8459 196.391 72.5776 195.869 72.5776 194.971C72.5776 194.073 71.8604 193.406 70.8896 193.406C69.8535 193.406 69.1291 194.073 69.0856 195.065H69.9188C69.984 194.507 70.3607 194.145 70.8823 194.145C71.4184 194.145 71.7734 194.486 71.7734 195.007C71.7734 195.601 71.2156 195.985 70.2955 196.775L69.1436 197.767V198.543Z" fill="white"/>
</g>
<path d="M128.464 163.254L129.657 165.839L132.484 166.174L130.394 168.107L130.948 170.899L128.464 169.509L125.98 170.899L126.535 168.107L124.445 166.174L127.272 165.839L128.464 163.254Z" fill="white"/>
<path d="M128.465 174.845L129.657 177.43L132.484 177.765L130.394 179.698L130.949 182.49L128.465 181.099L125.981 182.49L126.536 179.698L124.446 177.765L127.273 177.43L128.465 174.845Z" fill="black"/>
<path d="M128.465 186.435L129.657 189.02L132.484 189.355L130.394 191.288L130.949 194.08L128.465 192.69L125.981 194.08L126.536 191.288L124.446 189.355L127.273 189.02L128.465 186.435Z" fill="black"/>
<path opacity="0.95" d="M36.0244 171.489C37.6973 171.489 38.9289 170.534 39.3703 169.334L38.5902 169.128C38.231 170.032 37.297 170.719 36.0141 170.719C34.2693 170.719 33.1198 169.354 33.1198 167.733C33.1198 166.152 34.2693 164.807 36.0141 164.807C37.297 164.807 38.2413 165.505 38.5902 166.398L39.3908 166.203C38.9597 165.002 37.7076 164.038 36.0141 164.038C33.8998 164.038 32.2987 165.649 32.2987 167.743C32.2987 169.867 33.8998 171.489 36.0244 171.489ZM45.9634 164.92V164.171H40.9035V171.356H45.9532V170.606H41.7143V168.061H45.44V167.342H41.7143V164.92H45.9634ZM52.3991 171.356H53.3433L51.4138 168.492C52.5838 168.276 53.2099 167.322 53.2099 166.357C53.2099 165.31 52.4094 164.171 50.9314 164.171H47.6061V171.356H48.4169V168.533H50.5209L52.3991 171.356ZM48.4169 164.91H50.9109C51.8449 164.91 52.4196 165.608 52.4196 166.357C52.4196 167.117 51.8551 167.804 50.9006 167.804H48.4169V164.91ZM60.3613 164.171H54.234V164.92H56.8922V171.356H57.7133V164.92H60.3613V164.171ZM61.5924 171.356H62.4135V164.171H61.5924V171.356ZM69.2435 164.92V164.171H64.2657V171.356H65.0868V168.164H68.7201V167.435H65.0868V164.92H69.2435ZM70.5172 171.356H71.3383V164.171H70.5172V171.356ZM78.2504 164.92V164.171H73.1905V171.356H78.2402V170.606H74.0014V168.061H77.727V167.342H74.0014V164.92H78.2504ZM82.6231 164.171H79.8931V171.356H82.6231C84.8503 171.356 86.1538 169.826 86.1538 167.763C86.1538 165.7 84.8503 164.171 82.6231 164.171ZM82.6129 170.606H80.7039V164.91H82.6129C84.3679 164.91 85.3327 166.162 85.3327 167.743C85.3327 169.375 84.3679 170.606 82.6129 170.606ZM37.7794 185.356H39.2471L36.4862 178.171H34.6593L31.9087 185.356H33.3661L33.9614 183.795H37.1944L37.7794 185.356ZM34.4233 182.554L35.5728 179.516L36.7223 182.554H34.4233ZM42.9144 185.499C44.6386 185.499 45.7881 184.504 45.7881 183.272C45.7881 182.102 44.9568 181.64 43.8586 181.301L42.0728 180.727C41.6006 180.583 41.3851 180.367 41.3851 180.049C41.3851 179.628 41.8367 179.269 42.5449 179.269C43.3557 179.269 44.0228 179.67 44.3205 180.255L45.6239 179.875C45.2339 178.879 44.0844 178.027 42.5346 178.027C41.0362 178.027 39.9482 178.972 39.9585 180.09C39.9482 181.014 40.6359 181.62 41.5801 181.917L43.4173 182.492C44.1049 182.718 44.3615 182.974 44.3615 183.354C44.3615 183.826 43.8381 184.257 42.9965 184.257C41.9599 184.257 41.2312 183.662 40.9438 182.913L39.5993 183.323C39.9995 184.442 41.1593 185.499 42.9144 185.499ZM49.9476 185.499C51.6719 185.499 52.8214 184.504 52.8214 183.272C52.8214 182.102 51.9901 181.64 50.8919 181.301L49.106 180.727C48.6339 180.583 48.4184 180.367 48.4184 180.049C48.4184 179.628 48.87 179.269 49.5782 179.269C50.389 179.269 51.0561 179.67 51.3537 180.255L52.6572 179.875C52.2672 178.879 51.1177 178.027 49.5679 178.027C48.0694 178.027 46.9815 178.972 46.9918 180.09C46.9815 181.014 47.6692 181.62 48.6134 181.917L50.4506 182.492C51.1382 182.718 51.3948 182.974 51.3948 183.354C51.3948 183.826 50.8714 184.257 50.0298 184.257C48.9931 184.257 48.2644 183.662 47.9771 182.913L46.6325 183.323C47.0328 184.442 48.1926 185.499 49.9476 185.499ZM57.5149 185.499C59.6805 185.499 61.2816 183.878 61.2816 181.753C61.2816 179.639 59.6805 178.027 57.5149 178.027C55.339 178.027 53.7379 179.639 53.7379 181.753C53.7379 183.878 55.339 185.499 57.5149 185.499ZM57.5149 184.196C56.0882 184.196 55.1645 183.128 55.1645 181.753C55.1645 180.409 56.0882 179.331 57.5149 179.331C58.9312 179.331 59.8652 180.409 59.8652 181.753C59.8652 183.128 58.9312 184.196 57.5149 184.196ZM66.1017 185.499C68.0004 185.499 69.2115 184.339 69.54 183.19L68.1749 182.841C67.9389 183.549 67.1691 184.175 66.0812 184.175C64.6648 184.175 63.7616 183.036 63.7616 181.743C63.7616 180.45 64.6648 179.351 66.0812 179.351C67.1691 179.351 67.9389 179.998 68.1749 180.696L69.5502 180.357C69.2218 179.218 68.0107 178.027 66.0709 178.027C63.9361 178.027 62.3247 179.639 62.3247 181.753C62.3247 183.878 63.9361 185.499 66.1017 185.499ZM70.8384 185.356H72.265V178.171H70.8384V185.356ZM79.1472 185.356H80.6149L77.854 178.171H76.0271L73.2765 185.356H74.7339L75.3292 183.795H78.5622L79.1472 185.356ZM75.791 182.554L76.9406 179.516L78.0901 182.554H75.791ZM86.4622 178.171H80.2322V179.444H82.6442V185.356H84.0502V179.444H86.4622V178.171ZM92.8842 179.444V178.171H87.5883V185.356H92.8739V184.083H88.9636V182.318H92.3608V181.086H88.9636V179.444H92.8842Z" fill="white"/>
<path fill-rule="evenodd" clip-rule="evenodd" d="M140.539 125.339V149.099H21.0002L21.0003 125.339C21.0003 122.526 21.0003 121.12 21.4598 120.01C22.0726 118.531 23.2479 117.356 24.7272 116.743C25.8367 116.283 27.2432 116.283 30.0563 116.283H131.483C134.296 116.283 135.703 116.283 136.812 116.743C138.292 117.356 139.467 118.531 140.08 120.01C140.539 121.12 140.539 122.526 140.539 125.339Z" fill="#FFE959"/>
<g clip-path="url(#clip2_20982_279471)">
<path d="M61.819 129.703H63.8838L60.7554 140.204H57.8042L54.6758 129.703H56.7405L59.2798 138.455L61.819 129.703Z" fill="black"/>
<path d="M69.6141 140.212H68.0499L67.9065 139.691C67.2258 140.133 66.4317 140.368 65.6201 140.368C64.2175 140.368 63.6179 139.406 63.6179 138.082C63.6179 136.518 64.2958 135.921 65.8574 135.921H67.7031V135.118C67.7031 134.265 67.4659 133.966 66.2354 133.966C65.5201 133.973 64.8074 134.052 64.108 134.203L63.8708 132.735C64.7287 132.499 65.6141 132.377 66.5039 132.373C68.9154 132.373 69.6323 133.225 69.6323 135.149L69.6141 140.212ZM67.6927 137.31H66.2719C65.641 137.31 65.4689 137.485 65.4689 138.069C65.4689 138.604 65.641 138.851 66.251 138.851C66.7603 138.843 67.2595 138.708 67.7031 138.458L67.6927 137.31Z" fill="black"/>
<path d="M72.6435 132.527V137.887C72.6435 138.296 72.8155 138.502 73.2587 138.502C73.7019 138.502 74.5622 138.218 75.2609 137.856V132.527H77.1849V140.212H75.7172L75.5295 139.566C74.5715 140.046 73.5236 140.32 72.4532 140.371C71.1757 140.371 70.7195 139.472 70.7195 138.101V132.535L72.6435 132.527Z" fill="black"/>
<path d="M78.2092 140.212V129.396L80.1332 129.135V140.212H78.2092Z" fill="black"/>
<path d="M85.8714 140.064C85.3288 140.253 84.7593 140.354 84.1847 140.363C82.7821 140.363 82.0704 139.701 82.0704 138.33V134.054H80.9207V132.527H82.0704V130.618L83.9943 130.358V132.535H85.9653L85.8401 134.062H83.9943V138.085C83.9824 138.178 83.9922 138.273 84.0231 138.362C84.054 138.45 84.105 138.531 84.1723 138.597C84.2395 138.662 84.321 138.711 84.4105 138.74C84.4999 138.769 84.5949 138.777 84.6878 138.763C85.0142 138.753 85.3378 138.7 85.6498 138.604L85.8714 140.064Z" fill="black"/>
<path d="M31.8667 126.864L40.1805 143.043L48.5517 126.864H31.8667ZM38.877 133.288H37.5735V131.963H38.877V133.288ZM38.877 131.301H37.5735V129.977H38.877V131.301ZM40.8636 135.274H39.547V133.955H40.8714L40.8636 135.274ZM40.8636 133.288H39.547V131.963H40.8714L40.8636 133.288ZM40.8636 131.301H39.547V129.977H40.8714L40.8636 131.301ZM42.8397 133.288H41.5231V131.963H42.8475L42.8397 133.288ZM41.5153 131.301V129.977H42.8397V131.301H41.5153Z" fill="black"/>
</g>
<g opacity="0.95">
<path d="M79.3912 233.096L72.4851 237.079V237.082V246.649L75.0792 248.147V238.577L79.3912 236.088V233.096Z" fill="white"/>
<path d="M82.1481 233.096V240.716H79.3913V237.873L76.7957 239.371V249.134L79.3913 250.635V243.036H82.1481V245.861L84.7422 244.363V234.593L82.1481 233.096Z" fill="white"/>
<path d="M82.1482 250.638L89.0543 246.655V246.652V237.085L86.4587 235.587V245.157L82.1482 247.646V250.638Z" fill="white"/>
</g>
</g>
<path d="M292.863 225.525L352.427 191.136L352.427 329.7L292.863 364.089L292.863 225.525Z" fill="url(#paint4_linear_20982_279471)" fill-opacity="0.6"/>
<path d="M292.864 225.525L233.3 191.136L233.3 332.195L292.864 366.584L292.864 225.525Z" fill="url(#paint5_linear_20982_279471)" fill-opacity="0.6"/>
<g clip-path="url(#clip3_20982_279471)">
<path d="M350.241 94.5507V192.028C350.241 194.176 350.224 194.859 350.066 195.447L352.107 195.994L350.066 195.447C349.833 196.318 349.375 197.111 348.738 197.748C348.307 198.179 347.724 198.535 345.864 199.609L296.961 227.839C295.101 228.913 294.501 229.24 293.913 229.397C293.043 229.63 292.126 229.63 291.256 229.397C290.668 229.24 290.068 228.913 288.208 227.839L239.306 199.609C237.445 198.535 236.862 198.179 236.431 197.748L234.937 199.242L236.431 197.748C235.794 197.111 235.336 196.318 235.103 195.447C234.945 194.859 234.928 194.176 234.928 192.028V94.5507C234.928 93.1153 234.929 92.1445 234.981 91.3912C235.031 90.6568 235.121 90.2847 235.227 90.0303C235.625 89.0687 236.389 88.3048 237.351 87.9065C237.605 87.8011 237.977 87.7104 238.711 87.6603C239.465 87.6089 240.436 87.6078 241.871 87.6078H343.298C344.734 87.6078 345.704 87.6089 346.458 87.6603C347.192 87.7104 347.564 87.8011 347.819 87.9065L348.626 85.9572L347.819 87.9065C348.78 88.3048 349.544 89.0687 349.942 90.0303C350.048 90.2847 350.138 90.6568 350.188 91.3912C350.24 92.1445 350.241 93.1153 350.241 94.5507Z" fill="black" stroke="black" stroke-width="4.22613"/>
<g opacity="0.94">
<path d="M248.515 167.724H249.101V165.392H251.746V167.724H252.333V162.653H251.746V164.884H249.101V162.653H248.515V167.724ZM255.637 167.768C256.811 167.768 257.615 167.014 257.782 166.044H257.173C257.036 166.667 256.449 167.203 255.645 167.203C254.652 167.203 253.964 166.384 253.964 165.225C253.964 164.022 254.659 163.16 255.674 163.16C256.456 163.16 257.028 163.689 257.173 164.319H257.782C257.63 163.349 256.826 162.61 255.681 162.61C254.319 162.61 253.341 163.675 253.341 165.218C253.341 166.717 254.326 167.768 255.637 167.768ZM260.795 167.768C261.969 167.768 262.773 167.014 262.94 166.044H262.331C262.193 166.667 261.607 167.203 260.802 167.203C259.81 167.203 259.122 166.384 259.122 165.225C259.122 164.022 259.817 163.16 260.831 163.16C261.614 163.16 262.186 163.689 262.331 164.319H262.94C262.787 163.349 261.983 162.61 260.839 162.61C259.477 162.61 258.499 163.675 258.499 165.218C258.499 166.717 259.484 167.768 260.795 167.768ZM264.007 167.724L264.514 166.355H266.695L267.217 167.724H267.854L265.905 162.653H265.304L263.37 167.717L264.007 167.724ZM264.696 165.812L265.608 163.312L266.521 165.812H264.696ZM270.351 167.797C271.517 167.797 272.264 166.768 272.264 165.218C272.264 163.66 271.525 162.624 270.366 162.624C269.206 162.624 268.46 163.66 268.46 165.218C268.46 166.768 269.199 167.797 270.351 167.797ZM270.366 167.282C269.532 167.282 269.018 166.471 269.018 165.196C269.018 163.95 269.525 163.138 270.344 163.138C271.184 163.138 271.706 163.964 271.706 165.225C271.706 166.471 271.191 167.282 270.366 167.282ZM273.321 165.587H275.856V165.167H273.321V165.587Z" fill="#F85C94"/>
<path d="M278.806 167.782C280.016 167.782 280.827 166.703 280.827 165.189C280.827 163.675 280.023 162.588 278.82 162.588C277.61 162.588 276.806 163.675 276.806 165.203C276.806 166.71 277.603 167.782 278.806 167.782ZM278.828 167.094C278.074 167.094 277.61 166.312 277.61 165.153C277.61 164.03 278.052 163.283 278.799 163.283C279.552 163.283 280.03 164.088 280.03 165.218C280.03 166.319 279.567 167.094 278.828 167.094ZM283.376 167.782C284.586 167.782 285.398 166.703 285.398 165.189C285.398 163.675 284.593 162.588 283.391 162.588C282.181 162.588 281.377 163.675 281.377 165.203C281.377 166.71 282.174 167.782 283.376 167.782ZM283.398 167.094C282.645 167.094 282.181 166.312 282.181 165.153C282.181 164.03 282.623 163.283 283.369 163.283C284.122 163.283 284.601 164.088 284.601 165.218C284.601 166.319 284.137 167.094 283.398 167.094ZM285.918 167.724H289.388V166.985H287.027L287.78 166.319C288.62 165.573 289.352 165.051 289.352 164.153C289.352 163.254 288.635 162.588 287.664 162.588C286.628 162.588 285.904 163.254 285.86 164.247H286.693C286.759 163.689 287.135 163.327 287.657 163.327C288.193 163.327 288.548 163.667 288.548 164.189C288.548 164.783 287.99 165.167 287.07 165.957L285.918 166.949V167.724Z" fill="white"/>
</g>
<path d="M340.765 132.438L341.957 135.023L344.784 135.358L342.694 137.291L343.249 140.083L340.765 138.692L338.281 140.083L338.836 137.291L336.746 135.358L339.573 135.023L340.765 132.438Z" fill="white"/>
<path d="M340.765 144.027L341.957 146.612L344.784 146.947L342.694 148.88L343.249 151.672L340.765 150.281L338.281 151.672L338.836 148.88L336.746 146.947L339.573 146.612L340.765 144.027Z" fill="black"/>
<path d="M340.764 155.617L341.957 158.202L344.784 158.537L342.693 160.47L343.248 163.262L340.764 161.872L338.28 163.262L338.835 160.47L336.745 158.537L339.572 158.202L340.764 155.617Z" fill="black"/>
<path opacity="0.95" d="M252.04 140.671C253.713 140.671 254.945 139.716 255.386 138.515L254.606 138.31C254.247 139.213 253.313 139.901 252.03 139.901C250.285 139.901 249.136 138.536 249.136 136.914C249.136 135.334 250.285 133.989 252.03 133.989C253.313 133.989 254.257 134.687 254.606 135.58L255.407 135.385C254.976 134.184 253.723 133.219 252.03 133.219C249.916 133.219 248.315 134.831 248.315 136.925C248.315 139.049 249.916 140.671 252.04 140.671ZM261.979 134.102V133.353H256.919V140.537H261.969V139.788H257.73V137.243H261.456V136.524H257.73V134.102H261.979ZM268.415 140.537H269.359L267.43 137.674C268.6 137.458 269.226 136.504 269.226 135.539C269.226 134.492 268.425 133.353 266.947 133.353H263.622V140.537H264.433V137.715H266.537L268.415 140.537ZM264.433 134.092H266.927C267.861 134.092 268.435 134.79 268.435 135.539C268.435 136.298 267.871 136.986 266.916 136.986H264.433V134.092ZM276.377 133.353H270.25V134.102H272.908V140.537H273.729V134.102H276.377V133.353ZM277.608 140.537H278.429V133.353H277.608V140.537ZM285.259 134.102V133.353H280.282V140.537H281.103V137.345H284.736V136.617H281.103V134.102H285.259ZM286.533 140.537H287.354V133.353H286.533V140.537ZM294.266 134.102V133.353H289.206V140.537H294.256V139.788H290.017V137.243H293.743V136.524H290.017V134.102H294.266ZM298.639 133.353H295.909V140.537H298.639C300.866 140.537 302.17 139.008 302.17 136.945C302.17 134.882 300.866 133.353 298.639 133.353ZM298.629 139.788H296.72V134.092H298.629C300.384 134.092 301.349 135.344 301.349 136.925C301.349 138.556 300.384 139.788 298.629 139.788ZM253.795 154.537H255.263L252.502 147.353H250.675L247.925 154.537H249.382L249.977 152.977H253.21L253.795 154.537ZM250.439 151.735L251.589 148.697L252.738 151.735H250.439ZM258.93 154.681C260.655 154.681 261.804 153.685 261.804 152.454C261.804 151.284 260.973 150.822 259.874 150.483L258.089 149.908C257.617 149.765 257.401 149.549 257.401 149.231C257.401 148.81 257.853 148.451 258.561 148.451C259.372 148.451 260.039 148.851 260.336 149.436L261.64 149.057C261.25 148.061 260.1 147.209 258.55 147.209C257.052 147.209 255.964 148.153 255.974 149.272C255.964 150.196 256.652 150.801 257.596 151.099L259.433 151.674C260.121 151.9 260.377 152.156 260.377 152.536C260.377 153.008 259.854 153.439 259.012 153.439C257.976 153.439 257.247 152.844 256.96 152.095L255.615 152.505C256.015 153.624 257.175 154.681 258.93 154.681ZM265.964 154.681C267.688 154.681 268.837 153.685 268.837 152.454C268.837 151.284 268.006 150.822 266.908 150.483L265.122 149.908C264.65 149.765 264.434 149.549 264.434 149.231C264.434 148.81 264.886 148.451 265.594 148.451C266.405 148.451 267.072 148.851 267.37 149.436L268.673 149.057C268.283 148.061 267.134 147.209 265.584 147.209C264.085 147.209 262.997 148.153 263.008 149.272C262.997 150.196 263.685 150.801 264.629 151.099L266.466 151.674C267.154 151.9 267.411 152.156 267.411 152.536C267.411 153.008 266.887 153.439 266.046 153.439C265.009 153.439 264.28 152.844 263.993 152.095L262.648 152.505C263.049 153.624 264.208 154.681 265.964 154.681ZM273.531 154.681C275.696 154.681 277.297 153.059 277.297 150.935C277.297 148.821 275.696 147.209 273.531 147.209C271.355 147.209 269.754 148.821 269.754 150.935C269.754 153.059 271.355 154.681 273.531 154.681ZM273.531 153.378C272.104 153.378 271.18 152.31 271.18 150.935C271.18 149.59 272.104 148.513 273.531 148.513C274.947 148.513 275.881 149.59 275.881 150.935C275.881 152.31 274.947 153.378 273.531 153.378ZM282.118 154.681C284.016 154.681 285.227 153.521 285.556 152.372L284.191 152.023C283.955 152.731 283.185 153.357 282.097 153.357C280.681 153.357 279.777 152.218 279.777 150.925C279.777 149.631 280.681 148.533 282.097 148.533C283.185 148.533 283.955 149.18 284.191 149.878L285.566 149.539C285.238 148.4 284.027 147.209 282.087 147.209C279.952 147.209 278.341 148.821 278.341 150.935C278.341 153.059 279.952 154.681 282.118 154.681ZM286.854 154.537H288.281V147.353H286.854V154.537ZM295.163 154.537H296.631L293.87 147.353H292.043L289.292 154.537H290.75L291.345 152.977H294.578L295.163 154.537ZM291.807 151.735L292.956 148.697L294.106 151.735H291.807ZM302.478 147.353H296.248V148.626H298.66V154.537H300.066V148.626H302.478V147.353ZM308.9 148.626V147.353H303.604V154.537H308.89V153.265H304.979V151.499H308.377V150.268H304.979V148.626H308.9Z" fill="white"/>
<path fill-rule="evenodd" clip-rule="evenodd" d="M352.839 94.52V194.057C352.839 194.213 352.839 194.364 352.839 194.509V119.039H233.3V94.52C233.3 91.707 233.3 90.3005 233.76 89.191C234.372 87.7117 235.548 86.5364 237.027 85.9236C238.136 85.464 239.543 85.464 242.356 85.464H343.783C346.596 85.464 348.003 85.464 349.112 85.9236C350.592 86.5364 351.767 87.7117 352.38 89.191C352.839 90.3005 352.839 91.707 352.839 94.52ZM295.1 233.943H291.039C291.082 233.956 291.125 233.969 291.168 233.98C292.413 234.319 293.726 234.319 294.971 233.98C295.014 233.969 295.057 233.956 295.1 233.943Z" fill="#E03875"/>
<g clip-path="url(#clip4_20982_279471)">
<path d="M270.087 101.532C270.087 99.6586 271.178 98.5671 273.727 98.5671C274.668 98.5667 275.605 98.68 276.519 98.9047L276.303 100.58C275.478 100.425 274.64 100.34 273.8 100.326C272.463 100.326 272.023 100.786 272.023 101.877V105.802C272.023 106.891 272.452 107.353 273.8 107.353C274.64 107.338 275.478 107.253 276.303 107.099L276.519 108.774C275.605 108.999 274.668 109.112 273.727 109.112C271.188 109.112 270.087 108.02 270.087 106.147V101.532Z" fill="white"/>
<path d="M280.654 109.104C278.088 109.104 277.4 107.688 277.4 106.165V104.266C277.4 102.743 278.09 101.316 280.656 101.316C283.223 101.316 283.911 102.73 283.911 104.266V106.165C283.908 107.688 283.218 109.104 280.654 109.104ZM280.654 102.913C279.654 102.913 279.27 103.36 279.27 104.205V106.215C279.27 107.061 279.654 107.505 280.654 107.505C281.654 107.505 282.035 107.061 282.035 106.215V104.205C282.035 103.372 281.652 102.913 280.654 102.913Z" fill="white"/>
<path d="M289.607 108.957V103.728C289.607 103.329 289.437 103.129 289.008 103.129C288.579 103.129 287.739 103.405 287.056 103.758V108.957H285.183V101.471H286.612L286.792 102.103C287.725 101.636 288.745 101.369 289.787 101.319C291.031 101.319 291.478 102.194 291.478 103.53V108.957H289.607Z" fill="white"/>
<path d="M295.334 109.104C294.457 109.09 293.588 108.944 292.755 108.673L293.008 107.246C293.733 107.453 294.482 107.561 295.235 107.568C296.065 107.568 296.187 107.383 296.187 106.807C296.187 106.347 296.095 106.116 294.882 105.825C293.054 105.38 292.838 104.918 292.838 103.474C292.838 101.969 293.498 101.309 295.631 101.309C296.385 101.307 297.137 101.392 297.872 101.563L297.707 103.068C297.028 102.942 296.339 102.87 295.648 102.852C294.834 102.852 294.697 103.037 294.697 103.497C294.697 104.096 294.742 104.142 295.758 104.403C297.844 104.956 298.042 105.233 298.042 106.769C298.037 108.213 297.593 109.104 295.334 109.104Z" fill="white"/>
<path d="M301.139 101.471V106.693C301.139 107.091 301.307 107.292 301.738 107.292C302.17 107.292 303.007 107.015 303.688 106.662V101.471H305.561V108.957H304.134L303.949 108.327C303.016 108.795 301.996 109.062 300.954 109.112C299.71 109.112 299.266 108.236 299.266 106.898V101.471H301.139Z" fill="white"/>
<path d="M307.173 108.957V98.4148L309.046 98.161V108.957H307.173Z" fill="white"/>
<path d="M255.95 111.899C254.638 111.9 253.346 111.58 252.185 110.968C251.025 110.356 250.031 109.47 249.29 108.387C248.55 107.304 248.085 106.057 247.936 104.753C247.787 103.45 247.958 102.129 248.435 100.907C248.911 99.6848 249.679 98.5973 250.672 97.7391C251.664 96.8808 252.851 96.2777 254.129 95.9821C255.407 95.6865 256.738 95.7073 258.007 96.0428C259.275 96.3782 260.443 97.0182 261.408 97.9071L259.501 99.9073C258.74 99.2213 257.797 98.7706 256.785 98.6099C255.773 98.4491 254.737 98.5851 253.801 99.0015C252.865 99.4179 252.069 100.097 251.511 100.956C250.953 101.815 250.656 102.817 250.656 103.842C250.656 104.866 250.953 105.869 251.511 106.728C252.069 107.587 252.865 108.266 253.801 108.682C254.737 109.099 255.773 109.235 256.785 109.074C257.797 108.913 258.74 108.462 259.501 107.776L261.408 109.769C259.921 111.14 257.972 111.901 255.95 111.899Z" fill="white"/>
<path d="M262.438 107.865C262.308 107.865 262.18 107.827 262.071 107.754C261.963 107.682 261.878 107.578 261.828 107.458C261.778 107.337 261.765 107.205 261.791 107.077C261.816 106.949 261.879 106.831 261.971 106.739C262.064 106.646 262.181 106.583 262.309 106.558C262.437 106.533 262.57 106.546 262.691 106.596C262.811 106.645 262.914 106.73 262.987 106.839C263.059 106.947 263.098 107.075 263.098 107.205C263.098 107.38 263.029 107.548 262.905 107.672C262.781 107.796 262.613 107.865 262.438 107.865Z" fill="white"/>
<path d="M255.899 105.583C255.554 105.583 255.216 105.481 254.929 105.289C254.642 105.097 254.418 104.824 254.286 104.505C254.154 104.186 254.119 103.835 254.186 103.496C254.254 103.157 254.42 102.846 254.664 102.602C254.909 102.358 255.22 102.191 255.559 102.124C255.897 102.057 256.248 102.091 256.568 102.223C256.887 102.356 257.159 102.579 257.351 102.867C257.543 103.154 257.646 103.491 257.646 103.837C257.646 104.3 257.462 104.744 257.134 105.072C256.807 105.399 256.362 105.583 255.899 105.583Z" fill="white"/>
<path d="M263.197 105.609C263.067 105.609 262.939 105.57 262.831 105.497C262.722 105.425 262.638 105.322 262.588 105.201C262.538 105.081 262.525 104.948 262.55 104.82C262.576 104.692 262.638 104.574 262.731 104.482C262.823 104.39 262.941 104.327 263.069 104.301C263.197 104.276 263.329 104.289 263.45 104.339C263.571 104.389 263.674 104.473 263.746 104.582C263.819 104.691 263.857 104.818 263.857 104.949C263.857 105.123 263.787 105.291 263.663 105.415C263.54 105.538 263.372 105.608 263.197 105.609Z" fill="white"/>
<path d="M261.233 105.533C261.102 105.533 260.974 105.494 260.866 105.421C260.757 105.349 260.673 105.246 260.623 105.125C260.573 105.005 260.56 104.872 260.585 104.744C260.611 104.616 260.674 104.498 260.766 104.406C260.858 104.314 260.976 104.251 261.104 104.225C261.232 104.2 261.364 104.213 261.485 104.263C261.606 104.313 261.709 104.397 261.781 104.506C261.854 104.614 261.892 104.742 261.892 104.873C261.892 105.048 261.823 105.216 261.699 105.339C261.575 105.463 261.408 105.533 261.233 105.533Z" fill="white"/>
<path d="M263.197 103.388C263.067 103.388 262.939 103.349 262.831 103.276C262.722 103.204 262.638 103.101 262.588 102.98C262.538 102.86 262.525 102.727 262.55 102.599C262.576 102.471 262.638 102.353 262.731 102.261C262.823 102.169 262.941 102.106 263.069 102.08C263.197 102.055 263.329 102.068 263.45 102.118C263.571 102.168 263.674 102.252 263.746 102.361C263.819 102.469 263.857 102.597 263.857 102.728C263.857 102.902 263.787 103.07 263.663 103.194C263.54 103.317 263.372 103.387 263.197 103.388Z" fill="white"/>
<path d="M261.233 103.464C261.102 103.464 260.974 103.425 260.866 103.353C260.757 103.28 260.673 103.177 260.623 103.056C260.573 102.936 260.56 102.803 260.585 102.675C260.611 102.547 260.674 102.429 260.766 102.337C260.858 102.245 260.976 102.182 261.104 102.156C261.232 102.131 261.364 102.144 261.485 102.194C261.606 102.244 261.709 102.329 261.781 102.437C261.854 102.546 261.892 102.673 261.892 102.804C261.892 102.979 261.823 103.147 261.699 103.27C261.575 103.394 261.408 103.464 261.233 103.464Z" fill="white"/>
<path d="M262.476 101.166C262.346 101.166 262.218 101.128 262.11 101.055C262.001 100.983 261.917 100.88 261.867 100.759C261.817 100.638 261.804 100.506 261.829 100.378C261.855 100.25 261.917 100.132 262.01 100.04C262.102 99.9475 262.22 99.8846 262.348 99.8591C262.476 99.8337 262.608 99.8467 262.729 99.8967C262.85 99.9466 262.953 100.031 263.025 100.14C263.098 100.248 263.136 100.376 263.136 100.506C263.136 100.681 263.067 100.849 262.943 100.973C262.819 101.097 262.651 101.166 262.476 101.166Z" fill="white"/>
</g>
<g opacity="0.95">
<path d="M291.691 202.279L284.785 206.263V206.266V215.833L287.379 217.33V207.76L291.691 205.272V202.279Z" fill="white"/>
<path d="M294.448 202.279V209.9H291.691V207.056L289.096 208.554V218.318L291.691 219.819V212.22H294.448V215.045L297.042 213.547V203.777L294.448 202.279Z" fill="white"/>
<path d="M294.448 219.822L301.354 215.839V215.836V206.269L298.759 204.771V214.341L294.448 216.83V219.822Z" fill="white"/>
</g>
</g>
</g>
<defs>
<filter id="filter0_d_20982_279471" x="17.1348" y="116.282" width="127.84" height="156.427" filterUnits="userSpaceOnUse" color-interpolation-filters="sRGB">
<feFlood flood-opacity="0" result="BackgroundImageFix"/>
<feColorMatrix in="SourceAlpha" type="matrix" values="0 0 0 0 0 0 0 0 0 0 0 0 0 0 0 0 0 0 127 0" result="hardAlpha"/>
<feMorphology radius="6.44249" operator="erode" in="SourceAlpha" result="effect1_dropShadow_20982_279471"/>
<feOffset dy="5.15399"/>
<feGaussianBlur stdDeviation="5.15399"/>
<feColorMatrix type="matrix" values="0 0 0 0 0.170885 0 0 0 0 0.183125 0 0 0 0 0.2125 0 0 0 0.2 0"/>
<feBlend mode="normal" in2="BackgroundImageFix" result="effect1_dropShadow_20982_279471"/>
<feBlend mode="normal" in="SourceGraphic" in2="effect1_dropShadow_20982_279471" result="shape"/>
</filter>
<linearGradient id="paint0_linear_20982_279471" x1="214.693" y1="92.179" x2="238.88" y2="246.601" gradientUnits="userSpaceOnUse">
<stop stop-color="#532A7D"/>
<stop offset="1" stop-color="#33197C" stop-opacity="0"/>
</linearGradient>
<linearGradient id="paint1_linear_20982_279471" x1="176.771" y1="112.099" x2="131.691" y2="229.786" gradientUnits="userSpaceOnUse">
<stop stop-color="#76A0F3"/>
<stop offset="1" stop-color="#522AC2" stop-opacity="0"/>
</linearGradient>
<linearGradient id="paint2_linear_20982_279471" x1="105.585" y1="209.66" x2="110.654" y2="334.223" gradientUnits="userSpaceOnUse">
<stop stop-color="#9B7003"/>
<stop offset="1" stop-color="#DF706F" stop-opacity="0"/>
</linearGradient>
<linearGradient id="paint3_linear_20982_279471" x1="73.7832" y1="218.98" x2="53.8979" y2="327.595" gradientUnits="userSpaceOnUse">
<stop offset="0.19001" stop-color="#FECA13" stop-opacity="0.76"/>
<stop offset="1" stop-color="#E36666" stop-opacity="0.06"/>
</linearGradient>
<linearGradient id="paint4_linear_20982_279471" x1="317.486" y1="166.426" x2="337.493" y2="294.165" gradientUnits="userSpaceOnUse">
<stop stop-color="#922479"/>
<stop offset="1" stop-color="#96267A" stop-opacity="0"/>
</linearGradient>
<linearGradient id="paint5_linear_20982_279471" x1="286.116" y1="182.904" x2="248.825" y2="280.256" gradientUnits="userSpaceOnUse">
<stop stop-color="#E771A4"/>
<stop offset="1" stop-color="#F81696" stop-opacity="0.14"/>
</linearGradient>
<clipPath id="clip0_20982_279471">
<rect width="82.459" height="23.1833" fill="white" transform="translate(135.821 15.1926)"/>
</clipPath>
<clipPath id="clip1_20982_279471">
<rect width="120.109" height="147.407" fill="white" transform="translate(21.0002 116.282)"/>
</clipPath>
<clipPath id="clip2_20982_279471">
<rect width="54.2262" height="22.9419" fill="white" transform="translate(31.8667 123.527)"/>
</clipPath>
<clipPath id="clip3_20982_279471">
<rect width="120.109" height="147.407" fill="white" transform="translate(233.3 85.4655)"/>
</clipPath>
<clipPath id="clip4_20982_279471">
<rect width="61.176" height="22.3381" fill="white" transform="translate(247.884 92.711)"/>
</clipPath>
</defs>
</svg>
