<svg width="373" height="286" viewBox="0 0 373 286" fill="none" xmlns="http://www.w3.org/2000/svg">
<mask id="mask0_304_984" style="mask-type:alpha" maskUnits="userSpaceOnUse" x="0" y="0" width="373" height="286">
<path d="M0.605 24.2C0.605 11.1688 11.1688 0.605 24.2 0.605H348.8C361.831 0.605 372.395 11.1688 372.395 24.2V261.8C372.395 274.831 361.831 285.395 348.8 285.395H24.2C11.1689 285.395 0.605 274.831 0.605 261.8V24.2Z" fill="#16181D" stroke="#5D5F65" stroke-width="1.21"/>
</mask>
<g mask="url(#mask0_304_984)">
<g clip-path="url(#clip0_304_984)">
<path opacity="0.5" d="M197.126 173.904L260.696 137.202L260.696 287.086L197.126 323.788L197.126 173.904Z" fill="url(#paint0_linear_304_984)" fill-opacity="0.6"/>
<path opacity="0.5" d="M197.126 173.904L133.556 137.202L133.556 289.749L197.126 326.451L197.126 173.904Z" fill="url(#paint1_linear_304_984)" fill-opacity="0.6"/>
<g clip-path="url(#clip1_304_984)">
<path d="M144.051 141.809L144.05 141.809C142.202 140.741 141.622 140.387 141.194 139.959C140.561 139.326 140.106 138.538 139.874 137.673C139.717 137.088 139.7 136.409 139.7 134.274V37.3999C139.7 35.9733 139.701 35.0086 139.752 34.2599C139.802 33.5301 139.892 33.1602 139.997 32.9074C140.393 31.9518 141.152 31.1926 142.108 30.7968C142.36 30.6921 142.73 30.6019 143.46 30.5521C144.209 30.501 145.174 30.4999 146.6 30.4999H247.4C248.827 30.4999 249.791 30.501 250.54 30.5521C251.27 30.6019 251.64 30.6921 251.893 30.7968C252.848 31.1926 253.607 31.9518 254.003 32.9074C254.108 33.1602 254.198 33.5301 254.248 34.2599C254.299 35.0086 254.3 35.9733 254.3 37.3999V134.274C254.3 136.409 254.283 137.088 254.126 137.673C253.895 138.538 253.439 139.326 252.806 139.959C252.378 140.387 251.799 140.741 249.95 141.809L201.358 169.86L201.35 169.864L201.349 169.864C199.501 170.931 198.905 171.256 198.32 171.413L198.863 173.441L198.32 171.413C197.455 171.644 196.545 171.644 195.68 171.413L195.137 173.441L195.68 171.413C195.095 171.256 194.499 170.931 192.651 169.864L192.651 169.864L192.612 169.842L192.612 169.842L144.092 141.833L144.092 141.833L144.051 141.809Z" fill="black" stroke="black" stroke-width="4.2"/>
<path opacity="0.95" d="M150.771 82.2962C148.976 82.2962 147.67 80.8274 147.67 78.8402C147.67 76.853 148.976 75.3842 150.762 75.3842C152.221 75.3842 153.334 76.277 153.68 77.5922L153.018 77.7554C152.73 76.6322 151.914 75.9506 150.762 75.9506C149.302 75.9506 148.333 77.237 148.333 78.8402C148.333 80.4434 149.302 81.7298 150.771 81.7298C151.914 81.7298 152.672 81.0578 153.027 79.8386L153.642 79.9634C153.296 81.413 152.211 82.2962 150.771 82.2962ZM155.043 82.2002V75.4802H159.353V76.0466H155.686V78.5234H158.672V79.0898H155.686V81.6338H159.353V82.2002H155.043ZM160.872 82.2002V75.4802H163.003C164.51 75.4802 165.374 76.1618 165.374 77.3042C165.374 78.3602 164.731 78.917 163.809 79.0226V79.109C164.174 79.2146 164.328 79.4738 164.596 80.0114L165.307 81.4226C165.412 81.6338 165.508 81.6722 165.681 81.6722H165.864V82.2002H165.566C165.048 82.2002 164.875 82.0082 164.712 81.6626L164.088 80.4338C163.742 79.7426 163.617 79.4066 162.888 79.4066H161.515V82.2002H160.872ZM161.515 76.0466V78.8306H162.993C164.116 78.8306 164.712 78.293 164.712 77.4002C164.712 76.517 164.136 76.0466 162.993 76.0466H161.515ZM168.477 82.2002V76.0466H166.125V75.4802H171.491V76.0466H169.149V82.2002H168.477ZM172.86 82.2002V75.4802H173.532V82.2002H172.86ZM175.47 82.2002V75.4802H179.675V76.0466H176.113V78.629H178.916V79.1954H176.113V82.2002H175.47ZM181.199 82.2002V75.4802H181.871V82.2002H181.199ZM183.809 82.2002V75.4802H188.119V76.0466H184.452V78.5234H187.437V79.0898H184.452V81.6338H188.119V82.2002H183.809ZM189.637 82.2002V75.4802H191.74C193.948 75.4802 195.148 76.9298 195.148 78.8402C195.148 80.7506 193.948 82.2002 191.74 82.2002H189.637ZM190.28 81.6338H191.74C193.612 81.6338 194.495 80.3762 194.495 78.8402C194.495 77.3042 193.612 76.0466 191.74 76.0466H190.28V81.6338ZM147.392 95.2002L149.504 88.4802H151.29L153.402 95.2002H152.307L151.722 93.309H149.014L148.429 95.2002H147.392ZM150.205 89.421L149.283 92.4162H151.453L150.531 89.421H150.205ZM156.982 95.3058C155.513 95.3058 154.476 94.5762 154.198 93.3282L155.244 93.0978C155.446 93.933 156.07 94.4226 156.982 94.4226C157.884 94.4226 158.47 93.981 158.47 93.357C158.47 92.6274 157.846 92.4642 156.828 92.2914C155.58 92.0706 154.313 91.8498 154.313 90.3426C154.313 89.1618 155.321 88.3746 156.809 88.3746C158.211 88.3746 159.209 89.0754 159.487 90.2658L158.431 90.4674C158.268 89.7378 157.635 89.2578 156.799 89.2578C155.935 89.2578 155.379 89.6514 155.379 90.2466C155.379 90.9858 156.003 91.1394 157.03 91.3218C158.278 91.5426 159.535 91.7538 159.535 93.2706C159.535 94.509 158.537 95.3058 156.982 95.3058ZM163.382 95.3058C161.914 95.3058 160.877 94.5762 160.598 93.3282L161.645 93.0978C161.846 93.933 162.47 94.4226 163.382 94.4226C164.285 94.4226 164.87 93.981 164.87 93.357C164.87 92.6274 164.246 92.4642 163.229 92.2914C161.981 92.0706 160.714 91.8498 160.714 90.3426C160.714 89.1618 161.722 88.3746 163.21 88.3746C164.611 88.3746 165.61 89.0754 165.888 90.2658L164.832 90.4674C164.669 89.7378 164.035 89.2578 163.2 89.2578C162.336 89.2578 161.779 89.6514 161.779 90.2466C161.779 90.9858 162.403 91.1394 163.43 91.3218C164.678 91.5426 165.936 91.7538 165.936 93.2706C165.936 94.509 164.938 95.3058 163.382 95.3058ZM170.275 95.3058C168.374 95.3058 167.021 93.8466 167.021 91.8402C167.021 89.8338 168.374 88.3746 170.275 88.3746C172.176 88.3746 173.539 89.8338 173.539 91.8402C173.539 93.8466 172.176 95.3058 170.275 95.3058ZM170.275 94.3938C171.581 94.3938 172.454 93.2898 172.454 91.8402C172.454 90.3906 171.581 89.2866 170.275 89.2866C168.96 89.2866 168.096 90.3906 168.096 91.8402C168.096 93.2898 168.96 94.3938 170.275 94.3938ZM177.856 95.3058C175.974 95.3058 174.659 93.8466 174.659 91.8402C174.659 89.8338 175.964 88.3746 177.846 88.3746C179.401 88.3746 180.505 89.2866 180.822 90.573L179.776 90.8226C179.516 89.853 178.844 89.2866 177.846 89.2866C176.56 89.2866 175.744 90.3714 175.744 91.8402C175.744 93.309 176.579 94.3938 177.875 94.3938C178.892 94.3938 179.536 93.8178 179.814 92.781L180.803 92.9154C180.486 94.3938 179.392 95.3058 177.856 95.3058ZM182.212 95.2002V88.4802H183.277V95.2002H182.212ZM184.548 95.2002L186.66 88.4802H188.446L190.558 95.2002H189.463L188.878 93.309H186.17L185.585 95.2002H184.548ZM187.361 89.421L186.439 92.4162H188.609L187.687 89.421H187.361ZM192.922 95.2002V89.373H190.705V88.4802H196.186V89.373H193.988V95.2002H192.922ZM197.351 95.2002V88.4802H201.892V89.373H198.398V91.3506H201.182V92.2434H198.398V94.3074H201.892V95.2002H197.351Z" fill="white"/>
<path fill-rule="evenodd" clip-rule="evenodd" d="M256.4 37.3999V134.274C256.4 134.423 256.4 134.567 256.4 134.705V62H137.6V37.3999C137.6 34.6042 137.6 33.2064 138.057 32.1038C138.666 30.6336 139.834 29.4656 141.304 28.8566C142.407 28.3999 143.804 28.3999 146.6 28.3999H247.4C250.196 28.3999 251.594 28.3999 252.696 28.8566C254.166 29.4656 255.334 30.6336 255.943 32.1038C256.4 33.2064 256.4 34.6043 256.4 37.3999Z" fill="#7B42BC"/>
<g opacity="0.95">
<path d="M195.63 144.492L188.767 148.45V148.453V157.961L191.345 159.45V149.939L195.63 147.466V144.492Z" fill="white"/>
<path d="M198.37 144.492V152.066H195.63V149.239L193.051 150.728V160.431L195.63 161.923V154.371H198.37V157.178L200.948 155.69V145.98L198.37 144.492Z" fill="white"/>
<path d="M198.37 161.926L205.233 157.968V157.965V148.457L202.654 146.968V156.479L198.37 158.952V161.926Z" fill="white"/>
</g>
</g>
<path d="M244.4 75.0815L245.585 77.6506L248.394 77.9837L246.317 79.9045L246.869 82.6794L244.4 81.2975L241.931 82.6794L242.483 79.9045L240.406 77.9837L243.215 77.6506L244.4 75.0815Z" fill="white"/>
<path fill-rule="evenodd" clip-rule="evenodd" d="M152.649 40.9995L157.425 43.7728V49.3194L152.649 46.5461V40.9995Z" fill="white"/>
<path fill-rule="evenodd" clip-rule="evenodd" d="M157.98 43.7728V49.3194L162.756 46.5461V40.9995L157.98 43.7728Z" fill="white"/>
<path fill-rule="evenodd" clip-rule="evenodd" d="M147.349 37.918V43.4646L152.125 46.2379V40.6913L147.349 37.918Z" fill="white"/>
<path fill-rule="evenodd" clip-rule="evenodd" d="M152.649 52.7092L157.425 55.4825V49.9359L152.649 47.1626V52.7092Z" fill="white"/>
<path d="M171.014 44.0131H168.244V42.6665H175.381V44.0131H172.623V51.3223H171.014V44.0131Z" fill="white"/>
<path d="M174.884 48.179C174.884 46.2131 176.194 44.8911 177.95 44.8911C179.707 44.8911 181.016 46.1391 181.016 48.0434V48.6135H176.404C176.49 49.5903 177.06 50.2713 178.012 50.2713C178.742 50.2713 179.149 49.9385 179.396 49.3315L180.816 49.5533C180.471 50.715 179.581 51.4577 178.009 51.4577C176.179 51.4577 174.881 50.0987 174.881 48.1821L174.884 48.179ZM176.428 47.5504H179.47C179.359 46.6229 178.801 46.0775 177.947 46.0775C177.143 46.0775 176.564 46.6475 176.425 47.5504H176.428Z" fill="white"/>
<path d="M182.104 45.0273H183.54V45.2862C183.54 45.6313 183.528 45.9056 183.429 46.3986L183.577 46.4356C183.811 45.6067 184.246 45.0273 185.26 45.0273H185.716V46.5372H185.084C184.156 46.5372 183.651 47.1073 183.651 48.1458V51.3227H182.104V45.0273Z" fill="white"/>
<path d="M186.507 45.0273H187.943V45.2862C187.943 45.6313 187.931 45.9056 187.832 46.3986L187.98 46.4356C188.215 45.6067 188.649 45.0273 189.663 45.0273H190.119V46.5372H189.487C188.56 46.5372 188.051 47.1073 188.051 48.1458V51.3227H186.504V45.0273H186.507Z" fill="white"/>
<path d="M190.329 49.6404C190.329 48.3432 191.256 47.921 192.356 47.6622L194.261 47.2184V47.0828C194.261 46.4265 193.829 46.0197 193.16 46.0197C192.492 46.0197 192.097 46.3895 191.962 46.9842L190.603 46.824C190.812 45.65 191.802 44.895 193.225 44.895C194.784 44.895 195.798 45.8718 195.798 47.3078V49.8931C195.798 50.0533 195.847 50.115 195.958 50.115H196.304V51.326H195.376C194.769 51.326 194.51 51.1411 194.51 50.6327C194.51 50.4847 194.535 50.2999 194.596 50.0749L194.461 50.0379C194.017 50.9901 193.361 51.4215 192.409 51.4215C191.161 51.4215 190.332 50.7282 190.332 49.6404H190.329ZM192.812 50.2968C193.666 50.2968 194.261 49.6774 194.261 48.7006V48.2199L192.865 48.5527C192.171 48.7129 191.875 48.9471 191.875 49.4925C191.875 49.9886 192.245 50.2968 192.815 50.2968H192.812Z" fill="white"/>
<path d="M197.857 46.2626H196.719V45.027H197.857V44.0502C197.857 42.9131 198.39 42.417 199.625 42.417H201.021V43.6403H199.896C199.527 43.6403 199.376 43.8129 199.376 44.2227V45.027H200.849V46.2626H199.4V51.3193H197.853V46.2626H197.857Z" fill="white"/>
<path d="M201.246 48.179C201.246 46.2624 202.568 44.8911 204.435 44.8911C206.303 44.8911 207.637 46.2624 207.637 48.179C207.637 50.0957 206.29 51.4546 204.435 51.4546C202.58 51.4546 201.246 50.0957 201.246 48.179ZM206.093 48.179C206.093 46.968 205.437 46.1514 204.435 46.1514C203.434 46.1514 202.778 46.968 202.778 48.179C202.778 49.39 203.446 50.2066 204.435 50.2066C205.425 50.2066 206.093 49.39 206.093 48.179Z" fill="white"/>
<path d="M208.691 45.0273H210.127V45.2862C210.127 45.6313 210.114 45.9056 210.016 46.3986L210.164 46.4356C210.398 45.6067 210.832 45.0273 211.846 45.0273H212.302V46.5372H211.671C210.743 46.5372 210.235 47.1073 210.235 48.1458V51.3227H208.688V45.0273H208.691Z" fill="white"/>
<path d="M213.091 45.0267H214.601V45.2979C214.601 45.6307 214.577 45.8556 214.49 46.2993L214.638 46.3363C214.959 45.3595 215.59 44.8911 216.579 44.8911C217.569 44.8911 218.237 45.3472 218.471 46.3117H218.607C218.94 45.3595 219.572 44.8911 220.511 44.8911C221.809 44.8911 222.502 45.7323 222.502 47.1775V51.319H221.041V47.2268C221.041 46.5089 220.684 46.1144 220.04 46.1144C219.199 46.1144 218.607 46.8201 218.607 47.8585V51.3221H217.06V47.2299C217.06 46.512 216.715 46.1175 216.071 46.1175C215.242 46.1175 214.638 46.8232 214.638 47.8616V51.3252H213.091V45.0298V45.0267Z" fill="white"/>
</g>
<path opacity="0.5" d="M82.7297 232.801L142.46 207.464L142.46 346.654L82.7297 371.992L82.7297 232.801Z" fill="url(#paint2_linear_304_984)" fill-opacity="0.6"/>
<path opacity="0.5" d="M82.7297 230.802L23.9997 205.464L23.9997 355.913L82.7297 381.25L82.7297 230.802Z" fill="url(#paint3_linear_304_984)" fill-opacity="0.6"/>
<g clip-path="url(#clip2_304_984)">
<path d="M30.0505 209.809L30.0505 209.809C28.2017 208.741 27.6224 208.387 27.194 207.959C26.5609 207.326 26.1056 206.538 25.8739 205.673C25.7171 205.088 25.7001 204.409 25.7001 202.274V105.4C25.7001 103.973 25.7012 103.009 25.7523 102.26C25.8021 101.53 25.8923 101.16 25.997 100.907C26.3928 99.9518 27.152 99.1926 28.1076 98.7968C28.3604 98.6921 28.7303 98.6019 29.4601 98.5521C30.2088 98.501 31.1735 98.4999 32.6001 98.4999H133.4C134.827 98.4999 135.791 98.501 136.54 98.5521C137.27 98.6019 137.64 98.6921 137.893 98.7968C138.848 99.1926 139.607 99.9518 140.003 100.907C140.108 101.16 140.198 101.53 140.248 102.26C140.299 103.009 140.3 103.973 140.3 105.4V202.274C140.3 204.409 140.283 205.088 140.126 205.673C139.895 206.538 139.439 207.326 138.806 207.959C138.378 208.387 137.799 208.741 135.95 209.809L87.3577 237.86L87.3497 237.864L87.3494 237.864C85.5011 238.931 84.905 239.256 84.32 239.413L84.8634 241.441L84.3199 239.413C83.4553 239.644 82.5449 239.644 81.6803 239.413L81.1368 241.441L81.6802 239.413C81.0952 239.256 80.4991 238.931 78.6508 237.864L78.6505 237.864L78.612 237.842L78.6116 237.842L30.0922 209.833L30.0921 209.833L30.0505 209.809Z" fill="black" stroke="black" stroke-width="4.2"/>
<path opacity="0.95" d="M36.7712 150.296C34.976 150.296 33.6704 148.827 33.6704 146.84C33.6704 144.853 34.976 143.384 36.7616 143.384C38.2208 143.384 39.3344 144.277 39.68 145.592L39.0176 145.755C38.7296 144.632 37.9136 143.951 36.7616 143.951C35.3024 143.951 34.3328 145.237 34.3328 146.84C34.3328 148.443 35.3024 149.73 36.7712 149.73C37.9136 149.73 38.672 149.058 39.0272 147.839L39.6416 147.963C39.296 149.413 38.2112 150.296 36.7712 150.296ZM41.043 150.2V143.48H45.3534V144.047H41.6862V146.523H44.6718V147.09H41.6862V149.634H45.3534V150.2H41.043ZM46.8716 150.2V143.48H49.0028C50.51 143.48 51.374 144.162 51.374 145.304C51.374 146.36 50.7308 146.917 49.8092 147.023V147.109C50.174 147.215 50.3276 147.474 50.5964 148.011L51.3068 149.423C51.4124 149.634 51.5084 149.672 51.6812 149.672H51.8636V150.2H51.566C51.0476 150.2 50.8748 150.008 50.7116 149.663L50.0876 148.434C49.742 147.743 49.6172 147.407 48.8876 147.407H47.5148V150.2H46.8716ZM47.5148 144.047V146.831H48.9932C50.1164 146.831 50.7116 146.293 50.7116 145.4C50.7116 144.517 50.1356 144.047 48.9932 144.047H47.5148ZM54.4767 150.2V144.047H52.1247V143.48H57.4911V144.047H55.1487V150.2H54.4767ZM58.8604 150.2V143.48H59.5324V150.2H58.8604ZM61.47 150.2V143.48H65.6748V144.047H62.1132V146.629H64.9164V147.195H62.1132V150.2H61.47ZM67.1989 150.2V143.48H67.8709V150.2H67.1989ZM69.8085 150.2V143.48H74.1189V144.047H70.4517V146.523H73.4373V147.09H70.4517V149.634H74.1189V150.2H69.8085ZM75.6371 150.2V143.48H77.7395C79.9475 143.48 81.1475 144.93 81.1475 146.84C81.1475 148.751 79.9475 150.2 77.7395 150.2H75.6371ZM76.2803 149.634H77.7395C79.6115 149.634 80.4947 148.376 80.4947 146.84C80.4947 145.304 79.6115 144.047 77.7395 144.047H76.2803V149.634ZM36.8768 163.306C34.976 163.306 33.6224 161.847 33.6224 159.84C33.6224 157.834 34.976 156.375 36.8768 156.375C38.7776 156.375 40.1408 157.834 40.1408 159.84C40.1408 161.847 38.7776 163.306 36.8768 163.306ZM36.8768 162.394C38.1824 162.394 39.056 161.29 39.056 159.84C39.056 158.391 38.1824 157.287 36.8768 157.287C35.5616 157.287 34.6976 158.391 34.6976 159.84C34.6976 161.29 35.5616 162.394 36.8768 162.394ZM41.5196 163.2V156.48H43.8044C45.398 156.48 46.3772 157.248 46.3772 158.631C46.3772 160.023 45.398 160.781 43.8044 160.781H42.566V163.2H41.5196ZM42.566 159.907H43.8044C44.7932 159.907 45.3212 159.466 45.3212 158.631C45.3212 157.805 44.7932 157.363 43.8044 157.363H42.566V159.907ZM47.6482 163.2V156.48H52.189V157.373H48.6946V159.351H51.4786V160.243H48.6946V162.307H52.189V163.2H47.6482ZM53.6362 163.2V156.48H56.0362C57.6394 156.48 58.4938 157.219 58.4938 158.343C58.4938 159.322 57.8986 159.85 57.0154 159.955V160.08C57.3514 160.205 57.5242 160.455 57.7738 160.963L58.369 162.173C58.4554 162.346 58.5322 162.384 58.6954 162.384H58.8874V163.2H58.3402C57.8218 163.2 57.6394 163.027 57.4474 162.643L56.8906 161.501C56.593 160.906 56.4586 160.647 55.7674 160.647H54.6826V163.2H53.6362ZM54.6826 157.363V159.773H55.969C56.929 159.773 57.4378 159.331 57.4378 158.554C57.4378 157.776 56.9482 157.363 55.969 157.363H54.6826ZM59.7908 163.2L61.9028 156.48H63.6884L65.8004 163.2H64.706L64.1204 161.309H61.4132L60.8276 163.2H59.7908ZM62.6036 157.421L61.682 160.416H63.8516L62.93 157.421H62.6036ZM68.1652 163.2V157.373H65.9476V156.48H71.4292V157.373H69.2308V163.2H68.1652ZM72.6995 163.2V156.48H73.7651V163.2H72.6995ZM78.5209 163.306C76.6201 163.306 75.2665 161.847 75.2665 159.84C75.2665 157.834 76.6201 156.375 78.5209 156.375C80.4217 156.375 81.7849 157.834 81.7849 159.84C81.7849 161.847 80.4217 163.306 78.5209 163.306ZM78.5209 162.394C79.8265 162.394 80.7001 161.29 80.7001 159.84C80.7001 158.391 79.8265 157.287 78.5209 157.287C77.2057 157.287 76.3417 158.391 76.3417 159.84C76.3417 161.29 77.2057 162.394 78.5209 162.394ZM83.1637 163.2V156.48H84.7285L87.5893 162.154L87.6949 162.125C87.5797 161.299 87.5701 161.002 87.5701 160.522V156.48H88.5589V163.2H86.9941L84.1237 157.527L84.0181 157.555C84.1429 158.381 84.1525 158.679 84.1525 159.159V163.2H83.1637ZM92.6015 163.306C91.1327 163.306 90.0959 162.576 89.8175 161.328L90.8639 161.098C91.0655 161.933 91.6895 162.423 92.6015 162.423C93.5039 162.423 94.0895 161.981 94.0895 161.357C94.0895 160.627 93.4655 160.464 92.4479 160.291C91.1999 160.071 89.9327 159.85 89.9327 158.343C89.9327 157.162 90.9407 156.375 92.4287 156.375C93.8303 156.375 94.8287 157.075 95.1071 158.266L94.0511 158.467C93.8879 157.738 93.2543 157.258 92.4191 157.258C91.5551 157.258 90.9983 157.651 90.9983 158.247C90.9983 158.986 91.6223 159.139 92.6495 159.322C93.8975 159.543 95.1551 159.754 95.1551 161.271C95.1551 162.509 94.1567 163.306 92.6015 163.306ZM33.8816 176.2V169.48H36.1664C37.76 169.48 38.7392 170.248 38.7392 171.631C38.7392 173.023 37.76 173.781 36.1664 173.781H34.928V176.2H33.8816ZM34.928 172.907H36.1664C37.1552 172.907 37.6832 172.466 37.6832 171.631C37.6832 170.805 37.1552 170.363 36.1664 170.363H34.928V172.907ZM40.0102 176.2V169.48H42.4102C44.0134 169.48 44.8678 170.219 44.8678 171.343C44.8678 172.322 44.2726 172.85 43.3894 172.955V173.08C43.7254 173.205 43.8982 173.455 44.1478 173.963L44.743 175.173C44.8294 175.346 44.9062 175.384 45.0694 175.384H45.2614V176.2H44.7142C44.1958 176.2 44.0134 176.027 43.8214 175.643L43.2646 174.501C42.967 173.906 42.8326 173.647 42.1414 173.647H41.0566V176.2H40.0102ZM41.0566 170.363V172.773H42.343C43.303 172.773 43.8118 172.331 43.8118 171.554C43.8118 170.776 43.3222 170.363 42.343 170.363H41.0566ZM49.2653 176.306C47.3645 176.306 46.0109 174.847 46.0109 172.84C46.0109 170.834 47.3645 169.375 49.2653 169.375C51.1661 169.375 52.5293 170.834 52.5293 172.84C52.5293 174.847 51.1661 176.306 49.2653 176.306ZM49.2653 175.394C50.5709 175.394 51.4445 174.29 51.4445 172.84C51.4445 171.391 50.5709 170.287 49.2653 170.287C47.9501 170.287 47.0861 171.391 47.0861 172.84C47.0861 174.29 47.9501 175.394 49.2653 175.394ZM53.9081 176.2V169.48H58.3145V170.373H54.9545V172.533H57.5849V173.435H54.9545V176.2H53.9081ZM59.6429 176.2V169.48H64.1837V170.373H60.6893V172.351H63.4733V173.243H60.6893V175.307H64.1837V176.2H59.6429ZM67.8713 176.306C66.4025 176.306 65.3657 175.576 65.0873 174.328L66.1337 174.098C66.3353 174.933 66.9593 175.423 67.8713 175.423C68.7737 175.423 69.3593 174.981 69.3593 174.357C69.3593 173.627 68.7353 173.464 67.7177 173.291C66.4697 173.071 65.2025 172.85 65.2025 171.343C65.2025 170.162 66.2105 169.375 67.6985 169.375C69.1001 169.375 70.0985 170.075 70.3769 171.266L69.3209 171.467C69.1577 170.738 68.5241 170.258 67.6889 170.258C66.8249 170.258 66.2681 170.651 66.2681 171.247C66.2681 171.986 66.8921 172.139 67.9193 172.322C69.1673 172.543 70.4249 172.754 70.4249 174.271C70.4249 175.509 69.4265 176.306 67.8713 176.306ZM74.2718 176.306C72.803 176.306 71.7662 175.576 71.4878 174.328L72.5342 174.098C72.7358 174.933 73.3598 175.423 74.2718 175.423C75.1742 175.423 75.7598 174.981 75.7598 174.357C75.7598 173.627 75.1358 173.464 74.1182 173.291C72.8702 173.071 71.603 172.85 71.603 171.343C71.603 170.162 72.611 169.375 74.099 169.375C75.5006 169.375 76.499 170.075 76.7774 171.266L75.7214 171.467C75.5582 170.738 74.9246 170.258 74.0894 170.258C73.2254 170.258 72.6686 170.651 72.6686 171.247C72.6686 171.986 73.2926 172.139 74.3198 172.322C75.5678 172.543 76.8254 172.754 76.8254 174.271C76.8254 175.509 75.827 176.306 74.2718 176.306ZM78.275 176.2V169.48H79.3406V176.2H78.275ZM84.0964 176.306C82.1956 176.306 80.842 174.847 80.842 172.84C80.842 170.834 82.1956 169.375 84.0964 169.375C85.9972 169.375 87.3604 170.834 87.3604 172.84C87.3604 174.847 85.9972 176.306 84.0964 176.306ZM84.0964 175.394C85.402 175.394 86.2756 174.29 86.2756 172.84C86.2756 171.391 85.402 170.287 84.0964 170.287C82.7812 170.287 81.9172 171.391 81.9172 172.84C81.9172 174.29 82.7812 175.394 84.0964 175.394ZM88.7392 176.2V169.48H90.304L93.1648 175.154L93.2704 175.125C93.1552 174.299 93.1456 174.002 93.1456 173.522V169.48H94.1344V176.2H92.5696L89.6992 170.527L89.5936 170.555C89.7184 171.381 89.728 171.679 89.728 172.159V176.2H88.7392ZM95.297 176.2L97.409 169.48H99.1946L101.307 176.2H100.212L99.6266 174.309H96.9194L96.3338 176.2H95.297ZM98.1098 170.421L97.1882 173.416H99.3578L98.4362 170.421H98.1098ZM102.468 176.2V169.48H103.515V175.307H106.606V176.2H102.468Z" fill="white"/>
<path fill-rule="evenodd" clip-rule="evenodd" d="M142.4 105.4V202.274C142.4 202.423 142.4 202.567 142.4 202.705V130H23.6001V105.4C23.6001 102.604 23.6001 101.206 24.0568 100.104C24.6658 98.6336 25.8338 97.4656 27.304 96.8566C28.4066 96.3999 29.8044 96.3999 32.6001 96.3999H133.4C136.196 96.3999 137.594 96.3999 138.696 96.8566C140.166 97.4656 141.334 98.6336 141.943 100.104C142.4 101.206 142.4 102.604 142.4 105.4Z" fill="#FFCF25"/>
<g opacity="0.95">
<path d="M81.63 212.492L74.7666 216.45V216.453V225.961L77.3446 227.45V217.939L81.63 215.466V212.492Z" fill="white"/>
<path d="M84.3699 212.492V220.066H81.6301V217.239L79.0505 218.728V228.431L81.6301 229.923V222.371H84.3699V225.178L86.9479 223.69V213.98L84.3699 212.492Z" fill="white"/>
<path d="M84.3699 229.926L91.2333 225.968V225.965V216.457L88.6537 214.968V224.479L84.3699 226.952V229.926Z" fill="white"/>
</g>
</g>
<path d="M130.4 154.6L131.585 157.169L134.394 157.502L132.317 159.423L132.869 162.198L130.4 160.816L127.931 162.198L128.483 159.423L126.406 157.502L129.215 157.169L130.4 154.6Z" fill="white"/>
<path d="M33.5398 106.804L41.6983 122.683L49.9154 106.804H33.5398ZM40.428 113.109H39.1268V111.811H40.428V113.109ZM40.428 111.16H39.1268V109.859H40.428V111.16ZM42.3797 115.058H41.0785V113.757H42.3797V115.058ZM42.3797 113.109H41.0785V111.811H42.3797V113.109ZM42.3797 111.16H41.0785V109.859H42.3797V111.16ZM44.316 113.109H43.0149V111.811H44.316V113.109ZM43.018 111.16V109.859H44.3191V111.16H43.018Z" fill="black"/>
<path d="M57.4697 119.322L54.9414 110.689H56.6064L58.6106 117.904H59.0422L61.0772 110.689H62.6497L60.1214 119.322H57.4697ZM64.7156 119.415C63.4514 119.415 62.6497 118.737 62.6497 117.627C62.6497 116.332 63.5747 115.9 64.6847 115.653L66.5656 115.222V115.098C66.5656 114.451 66.1339 114.05 65.4864 114.05C64.8389 114.05 64.4072 114.42 64.2839 115.006L62.9272 114.852C63.1431 113.68 64.1297 112.94 65.5481 112.94C67.0897 112.94 68.1072 113.927 68.1072 115.345V117.935C68.1072 118.089 68.1381 118.151 68.2614 118.151H68.6006V119.353H67.6756C67.0897 119.353 66.8122 119.168 66.8122 118.675C66.8122 118.521 66.8431 118.336 66.9047 118.12L66.7814 118.058C66.3189 118.983 65.6406 119.415 64.7156 119.415ZM64.1606 117.503C64.1606 117.997 64.5306 118.305 65.0856 118.305C65.9489 118.305 66.5347 117.688 66.5347 116.702V116.208L65.1472 116.547C64.4689 116.732 64.1606 116.948 64.1606 117.503ZM73.6881 116.486V113.032H75.2297V119.322H73.7189V119.076C73.7189 118.767 73.7497 118.521 73.8114 118.089L73.6881 118.027C73.3181 118.952 72.7014 119.477 71.6531 119.477C70.2964 119.477 69.5564 118.613 69.5564 117.164V113.032H71.0981V116.979C71.0981 117.812 71.4681 118.212 72.2389 118.212C73.0714 118.243 73.6881 117.596 73.6881 116.486ZM78.5289 110.442V117.812C78.5289 118.058 78.6214 118.12 78.7756 118.12H79.5156V119.322H78.0664C77.3264 119.322 76.9564 118.922 76.9564 118.182V111.676H76.0314V110.442H78.5289ZM82.6297 119.322C81.4272 119.322 80.9031 118.829 80.9031 117.75V114.266H79.7931V113.032H80.9031V111.429H82.4447V113.032H83.9864V114.266H82.4447V117.534C82.4447 117.935 82.5989 118.089 82.9072 118.089H83.9864V119.322H82.6297Z" fill="black"/>
<path d="M130.4 143.082L131.585 145.651L134.394 145.984L132.317 147.905L132.869 150.679L130.4 149.298L127.931 150.679L128.483 147.905L126.406 145.984L129.215 145.651L130.4 143.082Z" fill="white"/>
<path opacity="0.5" d="M295.499 254.531L355 220.209L355 358.505L295.499 392.827L295.499 254.531Z" fill="url(#paint4_linear_304_984)" fill-opacity="0.6"/>
<path opacity="0.5" d="M295.5 254.531L236 220.209L236 360.995L295.5 395.318L295.5 254.531Z" fill="url(#paint5_linear_304_984)" fill-opacity="0.6"/>
<g clip-path="url(#clip3_304_984)">
<path d="M242.551 230.809L242.55 230.809C240.702 229.741 240.122 229.387 239.694 228.959C239.061 228.326 238.606 227.538 238.374 226.673C238.217 226.088 238.2 225.409 238.2 223.274V126.4C238.2 124.973 238.201 124.009 238.252 123.26C238.302 122.53 238.392 122.16 238.497 121.907C238.893 120.952 239.652 120.193 240.608 119.797C240.86 119.692 241.23 119.602 241.96 119.552C242.709 119.501 243.674 119.5 245.1 119.5H345.9C347.327 119.5 348.291 119.501 349.04 119.552C349.77 119.602 350.14 119.692 350.393 119.797C351.348 120.193 352.107 120.952 352.503 121.907C352.608 122.16 352.698 122.53 352.748 123.26C352.799 124.009 352.8 124.973 352.8 126.4V223.274C352.8 225.409 352.783 226.088 352.626 226.673C352.395 227.538 351.939 228.326 351.306 228.959C350.878 229.387 350.299 229.741 348.45 230.809L299.858 258.86L299.85 258.864L299.849 258.864C298.001 259.931 297.405 260.256 296.82 260.413L297.363 262.441L296.82 260.413C295.955 260.644 295.045 260.644 294.18 260.413L293.637 262.441L294.18 260.413C293.595 260.256 292.999 259.931 291.151 258.864L291.151 258.864L291.112 258.842L291.112 258.842L242.592 230.833L242.592 230.833L242.551 230.809Z" fill="black" stroke="black" stroke-width="4.2"/>
<path opacity="0.95" d="M249.271 171.296C247.476 171.296 246.17 169.827 246.17 167.84C246.17 165.853 247.476 164.384 249.262 164.384C250.721 164.384 251.834 165.277 252.18 166.592L251.518 166.755C251.23 165.632 250.414 164.951 249.262 164.951C247.802 164.951 246.833 166.237 246.833 167.84C246.833 169.443 247.802 170.73 249.271 170.73C250.414 170.73 251.172 170.058 251.527 168.839L252.142 168.963C251.796 170.413 250.711 171.296 249.271 171.296ZM253.543 171.2V164.48H257.853V165.047H254.186V167.523H257.172V168.09H254.186V170.634H257.853V171.2H253.543ZM259.372 171.2V164.48H261.503C263.01 164.48 263.874 165.162 263.874 166.304C263.874 167.36 263.231 167.917 262.309 168.023V168.109C262.674 168.215 262.828 168.474 263.096 169.011L263.807 170.423C263.912 170.634 264.008 170.672 264.181 170.672H264.364V171.2H264.066C263.548 171.2 263.375 171.008 263.212 170.663L262.588 169.434C262.242 168.743 262.117 168.407 261.388 168.407H260.015V171.2H259.372ZM260.015 165.047V167.831H261.493C262.616 167.831 263.212 167.293 263.212 166.4C263.212 165.517 262.636 165.047 261.493 165.047H260.015ZM266.977 171.2V165.047H264.625V164.48H269.991V165.047H267.649V171.2H266.977ZM271.36 171.2V164.48H272.032V171.2H271.36ZM273.97 171.2V164.48H278.175V165.047H274.613V167.629H277.416V168.195H274.613V171.2H273.97ZM279.699 171.2V164.48H280.371V171.2H279.699ZM282.309 171.2V164.48H286.619V165.047H282.952V167.523H285.937V168.09H282.952V170.634H286.619V171.2H282.309ZM288.137 171.2V164.48H290.24C292.448 164.48 293.648 165.93 293.648 167.84C293.648 169.751 292.448 171.2 290.24 171.2H288.137ZM288.78 170.634H290.24C292.112 170.634 292.995 169.376 292.995 167.84C292.995 166.304 292.112 165.047 290.24 165.047H288.78V170.634ZM245.892 184.2L248.004 177.48H249.79L251.902 184.2H250.807L250.222 182.309H247.514L246.929 184.2H245.892ZM248.705 178.421L247.783 181.416H249.953L249.031 178.421H248.705ZM255.482 184.306C254.013 184.306 252.976 183.576 252.698 182.328L253.744 182.098C253.946 182.933 254.57 183.423 255.482 183.423C256.384 183.423 256.97 182.981 256.97 182.357C256.97 181.627 256.346 181.464 255.328 181.291C254.08 181.071 252.813 180.85 252.813 179.343C252.813 178.162 253.821 177.375 255.309 177.375C256.711 177.375 257.709 178.075 257.987 179.266L256.931 179.467C256.768 178.738 256.135 178.258 255.299 178.258C254.435 178.258 253.879 178.651 253.879 179.247C253.879 179.986 254.503 180.139 255.53 180.322C256.778 180.543 258.035 180.754 258.035 182.271C258.035 183.509 257.037 184.306 255.482 184.306ZM261.882 184.306C260.414 184.306 259.377 183.576 259.098 182.328L260.145 182.098C260.346 182.933 260.97 183.423 261.882 183.423C262.785 183.423 263.37 182.981 263.37 182.357C263.37 181.627 262.746 181.464 261.729 181.291C260.481 181.071 259.214 180.85 259.214 179.343C259.214 178.162 260.222 177.375 261.71 177.375C263.111 177.375 264.11 178.075 264.388 179.266L263.332 179.467C263.169 178.738 262.535 178.258 261.7 178.258C260.836 178.258 260.279 178.651 260.279 179.247C260.279 179.986 260.903 180.139 261.93 180.322C263.178 180.543 264.436 180.754 264.436 182.271C264.436 183.509 263.438 184.306 261.882 184.306ZM268.775 184.306C266.874 184.306 265.521 182.847 265.521 180.84C265.521 178.834 266.874 177.375 268.775 177.375C270.676 177.375 272.039 178.834 272.039 180.84C272.039 182.847 270.676 184.306 268.775 184.306ZM268.775 183.394C270.081 183.394 270.954 182.29 270.954 180.84C270.954 179.391 270.081 178.287 268.775 178.287C267.46 178.287 266.596 179.391 266.596 180.84C266.596 182.29 267.46 183.394 268.775 183.394ZM276.356 184.306C274.474 184.306 273.159 182.847 273.159 180.84C273.159 178.834 274.464 177.375 276.346 177.375C277.901 177.375 279.005 178.287 279.322 179.573L278.276 179.823C278.016 178.853 277.344 178.287 276.346 178.287C275.06 178.287 274.244 179.371 274.244 180.84C274.244 182.309 275.079 183.394 276.375 183.394C277.392 183.394 278.036 182.818 278.314 181.781L279.303 181.915C278.986 183.394 277.892 184.306 276.356 184.306ZM280.712 184.2V177.48H281.777V184.2H280.712ZM283.048 184.2L285.16 177.48H286.946L289.058 184.2H287.963L287.378 182.309H284.67L284.085 184.2H283.048ZM285.861 178.421L284.939 181.416H287.109L286.187 178.421H285.861ZM291.422 184.2V178.373H289.205V177.48H294.686V178.373H292.488V184.2H291.422ZM295.851 184.2V177.48H300.392V178.373H296.898V180.351H299.682V181.243H296.898V183.307H300.392V184.2H295.851Z" fill="white"/>
<path fill-rule="evenodd" clip-rule="evenodd" d="M354.9 126.4V223.274C354.9 223.423 354.9 223.567 354.9 223.705V151H236.1V126.4C236.1 123.604 236.1 122.206 236.557 121.104C237.166 119.634 238.334 118.466 239.804 117.857C240.907 117.4 242.304 117.4 245.1 117.4H345.9C348.696 117.4 350.094 117.4 351.196 117.857C352.666 118.466 353.834 119.634 354.443 121.104C354.9 122.206 354.9 123.604 354.9 126.4Z" fill="#DC477D"/>
<g opacity="0.95">
<path d="M294.13 233.492L287.267 237.45V237.453V246.961L289.845 248.45V238.939L294.13 236.466V233.492Z" fill="white"/>
<path d="M296.87 233.492V241.066H294.13V238.239L291.551 239.728V249.431L294.13 250.923V243.371H296.87V246.178L299.448 244.69V234.98L296.87 233.492Z" fill="white"/>
<path d="M296.87 250.926L303.733 246.968V246.965V237.457L301.154 235.968V245.479L296.87 247.952V250.926Z" fill="white"/>
</g>
</g>
<g clip-path="url(#clip4_304_984)">
<path d="M268.613 135.8C268.613 133.183 270.313 131.293 272.806 131.293C274.875 131.293 276.307 132.501 276.698 134.156L275.121 134.525C274.797 133.351 274.025 132.68 272.806 132.68C271.252 132.68 270.268 133.977 270.268 135.789C270.268 137.6 271.286 138.898 272.851 138.898C274.092 138.898 274.853 138.215 275.177 136.974L276.687 137.153C276.307 139.099 274.853 140.307 272.829 140.307C270.335 140.307 268.613 138.417 268.613 135.8Z" fill="white"/>
<path d="M277.402 136.998C277.402 135.063 278.733 133.688 280.612 133.688C282.49 133.688 283.832 135.074 283.832 136.998C283.832 138.921 282.479 140.296 280.612 140.296C278.744 140.296 277.402 138.932 277.402 136.998ZM282.278 136.998C282.278 135.779 281.618 134.951 280.612 134.951C279.605 134.951 278.946 135.767 278.946 136.998C278.946 138.228 279.616 139.044 280.612 139.044C281.607 139.044 282.278 138.228 282.278 136.998Z" fill="white"/>
<path d="M286.449 140.162H284.895V133.833H286.416V134.09C286.416 134.426 286.393 134.649 286.304 135.108L286.449 135.141C286.829 134.224 287.433 133.688 288.518 133.688C289.905 133.688 290.631 134.56 290.631 136.036V140.151H289.077V136.081C289.077 135.331 288.708 134.906 287.959 134.906C287.12 134.906 286.449 135.544 286.449 136.684V140.14V140.162Z" fill="white"/>
<path d="M291.615 138.44L293.069 138.138C293.226 138.831 293.796 139.178 294.512 139.178C295.227 139.178 295.652 138.865 295.652 138.384C295.652 137.87 295.172 137.769 294.243 137.601C293.136 137.422 291.671 137.232 291.671 135.667C291.671 134.481 292.678 133.676 294.299 133.676C295.742 133.676 296.86 134.291 297.128 135.51L295.664 135.745C295.518 135.119 294.993 134.783 294.31 134.783C293.561 134.783 293.192 135.108 293.192 135.533C293.192 136.047 293.695 136.159 294.601 136.315C295.719 136.494 297.173 136.707 297.173 138.261C297.173 139.48 296.178 140.285 294.523 140.285C293.002 140.285 291.895 139.67 291.627 138.429L291.615 138.44Z" fill="white"/>
<path d="M302.328 133.821H303.883V140.151H302.362V139.893C302.362 139.569 302.384 139.334 302.462 138.887L302.328 138.842C301.937 139.77 301.344 140.296 300.259 140.296C298.873 140.296 298.146 139.435 298.146 137.959V133.832H299.7V137.825C299.7 138.663 300.058 139.077 300.852 139.077C301.702 139.077 302.317 138.428 302.317 137.31V133.821H302.328Z" fill="white"/>
<path d="M307.182 138.63C307.182 138.865 307.271 138.943 307.439 138.943H308.199V140.162H306.745C306.007 140.162 305.627 139.759 305.627 139.021V132.435H304.71V131.205H307.182V138.63Z" fill="white"/>
<path d="M254.411 144.399C252.991 144.399 251.604 144.052 250.352 143.393C249.099 142.733 248.026 141.782 247.232 140.608C246.415 139.445 245.912 138.092 245.756 136.694C245.599 135.285 245.778 133.865 246.292 132.546C246.807 131.226 247.634 130.052 248.708 129.124C249.781 128.196 251.056 127.547 252.443 127.223C253.818 126.898 255.261 126.921 256.625 127.29C257.989 127.648 259.253 128.341 260.293 129.303L258.224 131.461C257.408 130.723 256.39 130.231 255.294 130.063C254.199 129.884 253.08 130.029 252.074 130.488C251.067 130.935 250.206 131.673 249.603 132.601C248.999 133.53 248.674 134.614 248.674 135.721C248.674 136.828 248.999 137.913 249.603 138.841C250.206 139.769 251.067 140.496 252.074 140.955C253.08 141.402 254.199 141.547 255.294 141.38C256.39 141.201 257.408 140.72 258.224 139.982L260.293 142.14C258.694 143.616 256.592 144.433 254.411 144.433V144.399Z" fill="white"/>
<path d="M261.411 140.051C261.266 140.051 261.132 140.006 261.02 139.928C260.908 139.849 260.808 139.737 260.763 139.603C260.707 139.469 260.696 139.335 260.718 139.19C260.74 139.055 260.819 138.921 260.908 138.821C261.009 138.72 261.132 138.653 261.277 138.63C261.411 138.608 261.557 138.619 261.691 138.675C261.825 138.731 261.937 138.821 262.015 138.932C262.094 139.044 262.138 139.19 262.138 139.324C262.138 139.514 262.06 139.693 261.926 139.827C261.792 139.961 261.613 140.039 261.423 140.039L261.411 140.051Z" fill="white"/>
<path d="M254.355 137.59C253.986 137.59 253.617 137.478 253.304 137.276C252.991 137.075 252.745 136.773 252.611 136.427C252.465 136.08 252.432 135.7 252.499 135.342C252.566 134.973 252.745 134.637 253.013 134.38C253.282 134.112 253.617 133.933 253.975 133.866C254.344 133.787 254.724 133.832 255.071 133.978C255.418 134.123 255.708 134.358 255.921 134.671C256.133 134.984 256.234 135.342 256.234 135.722C256.234 136.225 256.033 136.695 255.686 137.053C255.339 137.411 254.858 137.601 254.355 137.612V137.59Z" fill="white"/>
<path d="M262.228 137.624C262.082 137.624 261.948 137.579 261.836 137.501C261.725 137.423 261.624 137.311 261.579 137.177C261.523 137.042 261.512 136.908 261.534 136.763C261.557 136.629 261.635 136.494 261.725 136.394C261.814 136.293 261.948 136.226 262.094 136.204C262.228 136.181 262.373 136.192 262.507 136.248C262.642 136.304 262.753 136.394 262.832 136.506C262.91 136.617 262.955 136.763 262.955 136.897C262.955 137.087 262.876 137.266 262.742 137.4C262.608 137.534 262.429 137.613 262.239 137.613L262.228 137.624Z" fill="white"/>
<path d="M260.103 137.534C259.958 137.534 259.823 137.489 259.712 137.411C259.589 137.333 259.499 137.221 259.454 137.087C259.399 136.953 259.387 136.807 259.41 136.673C259.443 136.539 259.51 136.405 259.611 136.304C259.712 136.203 259.835 136.136 259.98 136.114C260.114 136.091 260.26 136.103 260.394 136.159C260.528 136.214 260.64 136.304 260.707 136.427C260.785 136.55 260.83 136.684 260.819 136.83C260.819 137.02 260.74 137.199 260.606 137.333C260.472 137.467 260.293 137.534 260.103 137.534Z" fill="white"/>
<path d="M262.228 135.22C262.082 135.22 261.948 135.175 261.836 135.097C261.725 135.018 261.624 134.906 261.579 134.772C261.523 134.638 261.512 134.504 261.534 134.358C261.557 134.224 261.635 134.09 261.725 133.989C261.825 133.889 261.948 133.822 262.094 133.799C262.228 133.777 262.373 133.788 262.507 133.844C262.642 133.9 262.753 133.989 262.832 134.101C262.91 134.213 262.955 134.358 262.955 134.493C262.955 134.683 262.876 134.862 262.742 134.996C262.608 135.13 262.429 135.208 262.239 135.208L262.228 135.22Z" fill="white"/>
<path d="M260.103 135.298C259.958 135.298 259.823 135.253 259.712 135.175C259.6 135.096 259.499 134.985 259.454 134.85C259.399 134.716 259.387 134.582 259.41 134.437C259.432 134.302 259.51 134.168 259.6 134.068C259.7 133.967 259.823 133.9 259.969 133.877C260.103 133.855 260.248 133.866 260.383 133.922C260.517 133.978 260.629 134.068 260.707 134.179C260.785 134.291 260.83 134.437 260.83 134.571C260.83 134.761 260.752 134.94 260.617 135.074C260.483 135.208 260.304 135.286 260.114 135.286L260.103 135.298Z" fill="white"/>
<path d="M261.445 132.814C261.3 132.814 261.165 132.77 261.054 132.691C260.931 132.613 260.841 132.501 260.785 132.367C260.729 132.233 260.718 132.099 260.741 131.953C260.763 131.819 260.841 131.685 260.931 131.584C261.031 131.484 261.154 131.416 261.3 131.394C261.434 131.372 261.579 131.383 261.713 131.439C261.848 131.495 261.959 131.584 262.038 131.696C262.116 131.808 262.161 131.953 262.161 132.087C262.161 132.278 262.082 132.456 261.948 132.591C261.814 132.725 261.635 132.803 261.445 132.803V132.814Z" fill="white"/>
</g>
<path d="M342.9 164.082L344.085 166.651L346.894 166.984L344.817 168.905L345.369 171.679L342.9 170.298L340.431 171.679L340.983 168.905L338.906 166.984L341.715 166.651L342.9 164.082Z" fill="white"/>
<rect x="2" y="247" width="369" height="43" fill="url(#paint6_linear_304_984)"/>
</g>
<defs>
<linearGradient id="paint0_linear_304_984" x1="223.405" y1="112.829" x2="244.758" y2="249.161" gradientUnits="userSpaceOnUse">
<stop stop-color="#532A7D"/>
<stop offset="1" stop-color="#33197C" stop-opacity="0"/>
</linearGradient>
<linearGradient id="paint1_linear_304_984" x1="189.925" y1="130.415" x2="150.126" y2="234.315" gradientUnits="userSpaceOnUse">
<stop stop-color="#76A0F3"/>
<stop offset="1" stop-color="#522AC2" stop-opacity="0"/>
</linearGradient>
<linearGradient id="paint2_linear_304_984" x1="107.421" y1="189.258" x2="112.48" y2="313.581" gradientUnits="userSpaceOnUse">
<stop stop-color="#9B7003"/>
<stop offset="1" stop-color="#DF706F" stop-opacity="0"/>
</linearGradient>
<linearGradient id="paint3_linear_304_984" x1="75.6809" y1="198.56" x2="55.8341" y2="306.966" gradientUnits="userSpaceOnUse">
<stop offset="0.19001" stop-color="#FECA13" stop-opacity="0.76"/>
<stop offset="1" stop-color="#E36666" stop-opacity="0.06"/>
</linearGradient>
<linearGradient id="paint4_linear_304_984" x1="320.096" y1="195.546" x2="340.048" y2="323.044" gradientUnits="userSpaceOnUse">
<stop stop-color="#922479"/>
<stop offset="1" stop-color="#96267A" stop-opacity="0"/>
</linearGradient>
<linearGradient id="paint5_linear_304_984" x1="295.494" y1="192.001" x2="280.084" y2="316.132" gradientUnits="userSpaceOnUse">
<stop stop-color="#E771A4"/>
<stop offset="0.603067" stop-color="#F13A9B" stop-opacity="0.481363"/>
<stop offset="0.830498" stop-color="#F52598" stop-opacity="0.19"/>
<stop offset="1" stop-color="#F81696" stop-opacity="0"/>
</linearGradient>
<linearGradient id="paint6_linear_304_984" x1="186.5" y1="247" x2="186.5" y2="290" gradientUnits="userSpaceOnUse">
<stop stop-color="#15181E" stop-opacity="0"/>
<stop offset="0.570651" stop-color="#15181E"/>
</linearGradient>
<clipPath id="clip0_304_984">
<rect width="160" height="243" fill="white" transform="translate(118 19)"/>
</clipPath>
<clipPath id="clip1_304_984">
<rect width="156" height="156" fill="white" transform="translate(119 20)"/>
</clipPath>
<clipPath id="clip2_304_984">
<rect width="156" height="156" fill="white" transform="translate(5 88)"/>
</clipPath>
<clipPath id="clip3_304_984">
<rect width="156" height="156" fill="white" transform="translate(217.5 109)"/>
</clipPath>
<clipPath id="clip4_304_984">
<rect width="62.4991" height="17.4" fill="white" transform="translate(245.7 127)"/>
</clipPath>
</defs>
</svg>
