<svg width="373" height="286" viewBox="0 0 373 286" fill="none" xmlns="http://www.w3.org/2000/svg">
<mask id="mask0_20982_279471" style="mask-type:alpha" maskUnits="userSpaceOnUse" x="0" y="0" width="373" height="286">
<path d="M0.605 24.2C0.605 11.1688 11.1688 0.605 24.2 0.605H348.8C361.831 0.605 372.395 11.1688 372.395 24.2V261.8C372.395 274.831 361.831 285.395 348.8 285.395H24.2C11.1689 285.395 0.605 274.831 0.605 261.8V24.2Z" fill="#16181D" stroke="#5D5F65" stroke-width="1.21"/>
</mask>
<g mask="url(#mask0_20982_279471)">
<path d="M197.125 147.904L260.696 111.202L260.696 259.086L197.125 295.788L197.125 147.904Z" fill="url(#paint0_linear_20982_279471)" fill-opacity="0.6"/>
<path d="M197.126 147.904L133.556 111.202L133.556 261.749L197.126 298.451L197.126 147.904Z" fill="url(#paint1_linear_20982_279471)" fill-opacity="0.6"/>
<g clip-path="url(#clip0_20982_279471)">
<path d="M254.435 113.671L255.953 115.19L254.435 113.671C253.997 114.109 253.404 114.472 251.514 115.563L201.815 144.253C199.925 145.344 199.315 145.676 198.717 145.836C197.833 146.073 196.902 146.073 196.017 145.836C195.419 145.676 194.809 145.344 192.919 144.253L143.22 115.563C141.33 114.472 140.737 114.109 140.299 113.671C139.652 113.024 139.186 112.218 138.949 111.333C138.789 110.735 138.772 110.041 138.772 107.858V8.79341C138.772 7.3346 138.773 6.34804 138.825 5.58243C138.876 4.83611 138.968 4.45787 139.075 4.19937C139.48 3.22215 140.256 2.44576 141.233 2.04098C141.492 1.93391 141.87 1.84172 142.617 1.7908C143.382 1.73856 144.369 1.7374 145.828 1.7374H248.907C250.365 1.7374 251.352 1.73856 252.118 1.7908C252.864 1.84172 253.242 1.93391 253.501 2.04098C254.478 2.44576 255.254 3.22215 255.659 4.19937C255.766 4.45787 255.858 4.83611 255.909 5.58243C255.961 6.34804 255.963 7.3346 255.963 8.79341V107.858C255.963 110.041 255.945 110.735 255.785 111.333C255.548 112.218 255.082 113.024 254.435 113.671Z" fill="black" stroke="black" stroke-width="4.29496"/>
<g opacity="0.94">
<path d="M148.68 83.0585V77.9045H149.276V80.1723H151.964V77.9045H152.56V83.0585H151.964V80.6877H149.276V83.0585H148.68ZM155.919 83.1026C154.586 83.1026 153.585 82.035 153.585 80.5109C153.585 78.9427 154.579 77.8603 155.963 77.8603C157.126 77.8603 157.944 78.6113 158.098 79.598H157.48C157.333 78.9574 156.751 78.4199 155.956 78.4199C154.925 78.4199 154.218 79.2961 154.218 80.5183C154.218 81.6964 154.918 82.5284 155.926 82.5284C156.744 82.5284 157.34 81.9835 157.48 81.3503H158.098C157.929 82.3369 157.112 83.1026 155.919 83.1026ZM160.157 83.0585V78.442H158.309V77.9045H162.565V78.442H160.724V83.0585H160.157ZM162.872 83.0585L162.224 83.0511L164.19 77.9045H164.801L166.782 83.0585H166.134L165.604 81.6669H163.388L162.872 83.0585ZM163.572 81.1147H165.427L164.499 78.5745L163.572 81.1147ZM169.319 83.1321C168.148 83.1321 167.397 82.0866 167.397 80.5109C167.397 78.9279 168.156 77.8751 169.334 77.8751C170.512 77.8751 171.263 78.9279 171.263 80.5109C171.263 82.0866 170.505 83.1321 169.319 83.1321ZM169.334 82.6093C170.173 82.6093 170.696 81.7847 170.696 80.5183C170.696 79.2372 170.166 78.3978 169.312 78.3978C168.48 78.3978 167.964 79.2225 167.964 80.4889C167.964 81.7847 168.487 82.6093 169.334 82.6093ZM172.337 80.8864V80.4594H174.914V80.8864H172.337Z" fill="#AC72F0"/>
<path d="M177.912 83.1174C176.689 83.1174 175.879 82.0277 175.879 80.4962C175.879 78.9427 176.697 77.8383 177.926 77.8383C179.149 77.8383 179.966 78.9427 179.966 80.4815C179.966 82.0203 179.141 83.1174 177.912 83.1174ZM177.934 82.4179C178.685 82.4179 179.156 81.6301 179.156 80.5109C179.156 79.3624 178.67 78.5451 177.904 78.5451C177.146 78.5451 176.697 79.3034 176.697 80.4447C176.697 81.6227 177.168 82.4179 177.934 82.4179ZM182.556 83.1174C181.334 83.1174 180.524 82.0277 180.524 80.4962C180.524 78.9427 181.342 77.8383 182.571 77.8383C183.793 77.8383 184.611 78.9427 184.611 80.4815C184.611 82.0203 183.786 83.1174 182.556 83.1174ZM182.579 82.4179C183.33 82.4179 183.801 81.6301 183.801 80.5109C183.801 79.3624 183.315 78.5451 182.549 78.5451C181.791 78.5451 181.342 79.3034 181.342 80.4447C181.342 81.6227 181.813 82.4179 182.579 82.4179ZM187.79 80.3931C188.313 80.5846 188.762 80.9969 188.748 81.689C188.733 82.5431 188.004 83.1616 186.966 83.1616C185.861 83.1616 185.118 82.4621 185.088 81.4681H185.935C185.913 82.0203 186.318 82.4032 186.944 82.4032C187.503 82.4032 187.893 82.1087 187.893 81.6595C187.893 81.1883 187.518 80.8717 186.811 80.8717H186.48V80.0765H186.782C187.408 80.0765 187.79 79.782 187.79 79.3034C187.79 78.8764 187.437 78.5966 186.922 78.5966C186.333 78.5966 186.009 78.95 185.987 79.5538H185.147C185.169 78.5156 185.847 77.8309 186.951 77.8309C187.945 77.8309 188.637 78.3978 188.637 79.1856C188.637 79.8262 188.173 80.2532 187.79 80.3931Z" fill="white"/>
</g>
<path d="M246.21 47.3268L247.421 49.9539L250.294 50.2945L248.17 52.2588L248.734 55.0964L246.21 53.6833L243.685 55.0964L244.249 52.2588L242.125 50.2945L244.998 49.9539L246.21 47.3268Z" fill="white"/>
<path d="M246.21 59.1058L247.421 61.7329L250.294 62.0735L248.17 64.0378L248.734 66.8754L246.21 65.4623L243.685 66.8754L244.249 64.0378L242.125 62.0735L244.998 61.7329L246.21 59.1058Z" fill="black"/>
<path d="M246.21 70.8847L247.421 73.5118L250.294 73.8525L248.17 75.8168L248.734 78.6544L246.21 77.2413L243.685 78.6544L244.249 75.8168L242.125 73.8525L244.998 73.5118L246.21 70.8847Z" fill="black"/>
<path opacity="0.95" d="M152.264 55.5156C150.105 55.5156 148.478 53.8675 148.478 51.7084C148.478 49.5805 150.105 47.9429 152.254 47.9429C153.975 47.9429 155.247 48.9234 155.685 50.1438L154.872 50.342C154.517 49.4345 153.557 48.7252 152.254 48.7252C150.48 48.7252 149.312 50.0916 149.312 51.698C149.312 53.346 150.48 54.7333 152.254 54.7333C153.557 54.7333 154.507 54.0344 154.872 53.1165L155.664 53.3251C155.216 54.5455 153.964 55.5156 152.264 55.5156ZM162.365 48.84H158.047V51.3016H161.833V52.0317H158.047V54.6185H162.354V55.38H157.223V48.0785H162.365V48.84ZM168.905 55.38L166.997 52.5116H164.858V55.38H164.034V48.0785H167.414C168.916 48.0785 169.729 49.2363 169.729 50.3003C169.729 51.2807 169.093 52.2508 167.904 52.4698L169.865 55.38H168.905ZM164.858 48.8295V51.771H167.382C168.353 51.771 168.926 51.0721 168.926 50.3003C168.926 49.5388 168.342 48.8295 167.393 48.8295H164.858ZM176.997 48.0785V48.84H174.306V55.38H173.472V48.84H170.77V48.0785H176.997ZM178.248 55.38V48.0785H179.083V55.38H178.248ZM186.024 48.84H181.8V51.3955H185.492V52.1361H181.8V55.38H180.965V48.0785H186.024V48.84ZM187.319 55.38V48.0785H188.153V55.38H187.319ZM195.178 48.84H190.859V51.3016H194.646V52.0317H190.859V54.6185H195.167V55.38H190.035V48.0785H195.178V48.84ZM199.622 48.0785C201.885 48.0785 203.21 49.6327 203.21 51.7293C203.21 53.8258 201.885 55.38 199.622 55.38H196.847V48.0785H199.622ZM199.611 54.6185C201.395 54.6185 202.375 53.3669 202.375 51.7084C202.375 50.1021 201.395 48.8295 199.611 48.8295H197.671V54.6185H199.611ZM154.048 69.38L153.453 67.7945H150.167L149.562 69.38H148.081L150.877 62.0785H152.733L155.539 69.38H154.048ZM150.637 66.5324H152.973L151.805 63.445L150.637 66.5324ZM159.266 69.526C157.483 69.526 156.304 68.4516 155.897 67.3147L157.263 66.8975C157.556 67.6589 158.296 68.2639 159.35 68.2639C160.205 68.2639 160.737 67.8258 160.737 67.346C160.737 66.9601 160.476 66.6993 159.777 66.4698L157.91 65.8857C156.951 65.5832 156.252 64.9678 156.262 64.0291C156.252 62.8921 157.357 61.9325 158.88 61.9325C160.455 61.9325 161.623 62.7983 162.02 63.81L160.695 64.196C160.393 63.6014 159.715 63.1946 158.891 63.1946C158.171 63.1946 157.712 63.5597 157.712 63.9873C157.712 64.3107 157.931 64.5297 158.411 64.6758L160.226 65.2599C161.342 65.6041 162.187 66.0735 162.187 67.2626C162.187 68.5142 161.019 69.526 159.266 69.526ZM166.414 69.526C164.63 69.526 163.452 68.4516 163.045 67.3147L164.411 66.8975C164.703 67.6589 165.444 68.2639 166.497 68.2639C167.353 68.2639 167.885 67.8258 167.885 67.346C167.885 66.9601 167.624 66.6993 166.925 66.4698L165.058 65.8857C164.098 65.5832 163.4 64.9678 163.41 64.0291C163.4 62.8921 164.505 61.9325 166.028 61.9325C167.603 61.9325 168.771 62.7983 169.168 63.81L167.843 64.196C167.54 63.6014 166.863 63.1946 166.038 63.1946C165.319 63.1946 164.86 63.5597 164.86 63.9873C164.86 64.3107 165.079 64.5297 165.559 64.6758L167.374 65.2599C168.49 65.6041 169.335 66.0735 169.335 67.2626C169.335 68.5142 168.166 69.526 166.414 69.526ZM174.104 69.526C171.893 69.526 170.266 67.878 170.266 65.7188C170.266 63.5701 171.893 61.9325 174.104 61.9325C176.305 61.9325 177.932 63.5701 177.932 65.7188C177.932 67.878 176.305 69.526 174.104 69.526ZM174.104 68.2013C175.544 68.2013 176.493 67.1165 176.493 65.7188C176.493 64.3524 175.544 63.2572 174.104 63.2572C172.655 63.2572 171.716 64.3524 171.716 65.7188C171.716 67.1165 172.655 68.2013 174.104 68.2013ZM182.831 69.526C180.63 69.526 178.993 67.878 178.993 65.7188C178.993 63.5701 180.63 61.9325 182.8 61.9325C184.771 61.9325 186.002 63.1425 186.336 64.3003L184.938 64.6445C184.698 63.9352 183.916 63.2781 182.81 63.2781C181.371 63.2781 180.453 64.3941 180.453 65.7084C180.453 67.0227 181.371 68.1805 182.81 68.1805C183.916 68.1805 184.698 67.5442 184.938 66.8245L186.325 67.1791C185.992 68.3473 184.761 69.526 182.831 69.526ZM187.645 69.38V62.0785H189.095V69.38H187.645ZM196.089 69.38L195.495 67.7945H192.209L191.604 69.38H190.123L192.918 62.0785H194.775L197.581 69.38H196.089ZM192.678 66.5324H195.015L193.847 63.445L192.678 66.5324ZM203.523 62.0785V63.3719H201.072V69.38H199.643V63.3719H197.192V62.0785H203.523ZM210.05 63.3719H206.065V65.0408H209.518V66.2925H206.065V68.0866H210.039V69.38H204.668V62.0785H210.05V63.3719Z" fill="white"/>
<path fill-rule="evenodd" clip-rule="evenodd" d="M136.995 111.819V33.9495H258.347V9.26593C258.347 6.40707 258.347 4.97764 257.88 3.85008C257.257 2.34667 256.062 1.15222 254.559 0.529488C253.431 0.062439 252.002 0.062439 249.143 0.062439H146.064C143.205 0.062439 141.776 0.062439 140.648 0.529488C139.145 1.15222 137.95 2.34667 137.328 3.85008C136.861 4.97764 136.861 6.40707 136.861 9.26593V108.33C136.861 110.007 136.861 111.002 136.995 111.819Z" fill="#7B42BC"/>
<g clip-path="url(#clip1_20982_279471)">
<path d="M172.753 15.2117H169.929V13.525H177.49V15.2117H174.666V23.6455H172.753V15.2117Z" fill="white"/>
<path d="M179.488 22.2722C180.254 22.2686 181.015 22.151 181.747 21.9233L182.035 23.3189C181.161 23.6344 180.239 23.7941 179.309 23.7908C176.988 23.7908 176.182 22.7115 176.182 20.9344V18.9765C176.182 17.4128 176.88 16.0925 179.249 16.0925C181.619 16.0925 182.151 17.473 182.151 19.0669V20.6482H178.054V21.0272C178.054 21.9233 178.363 22.2722 179.488 22.2722ZM178.054 19.1598H180.409V18.7933C180.409 18.0955 180.195 17.6111 179.284 17.6111C178.373 17.6111 178.054 18.0955 178.054 18.7933V19.1598Z" fill="white"/>
<path d="M187.111 17.7918C186.43 18.0995 185.774 18.4604 185.15 18.8711V23.6452H183.298V16.2431H184.862L184.985 17.0639C185.586 16.6553 186.24 16.3287 186.927 16.0925L187.111 17.7918Z" fill="white"/>
<path d="M191.634 17.7918C190.954 18.1001 190.299 18.4609 189.676 18.8711V23.6452H187.823V16.2431H189.387L189.508 17.0639C190.11 16.6554 190.764 16.3287 191.453 16.0925L191.634 17.7918Z" fill="white"/>
<path d="M197.829 23.6452H196.31L196.174 23.1432C195.519 23.5683 194.755 23.795 193.973 23.7958C192.62 23.7958 192.043 22.8696 192.043 21.5945C192.043 20.0885 192.698 19.5137 194.199 19.5137H195.976V18.733C195.976 17.9148 195.75 17.6261 194.566 17.6261C193.876 17.6333 193.189 17.709 192.515 17.852L192.286 16.4414C193.112 16.2127 193.965 16.0953 194.822 16.0925C197.146 16.0925 197.834 16.9108 197.834 18.7632L197.829 23.6452ZM195.976 20.844H194.621C194.013 20.844 193.845 21.0122 193.845 21.5744C193.845 22.0764 194.013 22.3274 194.598 22.3274C195.088 22.3196 195.568 22.1893 195.994 21.9484L195.976 20.844Z" fill="white"/>
<path d="M203.524 14.559C203.175 14.4822 202.818 14.441 202.46 14.436C201.732 14.436 201.627 14.7548 201.627 15.317V16.2432H203.509L203.406 17.7166H201.632V23.6454H199.779V17.7166H198.594V16.2432H199.779V15.2116C199.779 13.678 200.492 12.9174 202.131 12.9174C202.67 12.9155 203.206 12.9873 203.725 13.1308L203.524 14.559Z" fill="white"/>
<path d="M207.136 23.7908C204.601 23.7908 203.908 22.3902 203.908 20.8842V19.0066C203.908 17.5006 204.591 16.0925 207.126 16.0925C209.661 16.0925 210.346 17.4881 210.346 19.0066V20.8842C210.356 22.3902 209.681 23.7908 207.136 23.7908ZM207.136 17.6713C206.149 17.6713 205.77 18.1106 205.77 18.9464V20.9344C205.77 21.7702 206.149 22.212 207.136 22.212C208.122 22.212 208.504 21.7702 208.504 20.9344V18.9464C208.504 18.1231 208.125 17.6713 207.136 17.6713Z" fill="white"/>
<path d="M215.123 17.7918C214.443 18.1001 213.789 18.4609 213.165 18.8711V23.6452H211.313V16.2431H212.877L212.997 17.0639C213.603 16.6551 214.26 16.3284 214.952 16.0925L215.123 17.7918Z" fill="white"/>
<path d="M220.223 23.6452V18.4745C220.223 18.0804 220.055 17.8821 219.631 17.8821C219.206 17.8821 218.376 18.1557 217.703 18.5071V23.6452H215.848V16.2431H217.261L217.444 16.8656C218.366 16.4054 219.374 16.1421 220.404 16.0925C221.119 16.0925 221.558 16.3811 221.802 16.8806C222.726 16.4086 223.741 16.1399 224.779 16.0925C226.009 16.0925 226.448 16.9559 226.448 18.2787V23.6452H224.595V18.4745C224.595 18.0804 224.427 17.8821 224.003 17.8821C223.324 17.9531 222.667 18.1661 222.075 18.5071V23.6452H220.223Z" fill="white"/>
<path fill-rule="evenodd" clip-rule="evenodd" d="M153.361 11.7202L158.155 14.4888V20.026L153.361 17.2574V11.7202Z" fill="white"/>
<path fill-rule="evenodd" clip-rule="evenodd" d="M158.68 14.4888V20.026L163.476 17.2574V11.7202L158.68 14.4888Z" fill="white"/>
<path fill-rule="evenodd" clip-rule="evenodd" d="M148.039 8.63023V14.1674L152.833 16.936V11.3988L148.039 8.63023Z" fill="white"/>
<path fill-rule="evenodd" clip-rule="evenodd" d="M153.361 23.402L158.155 26.1706V20.6686V20.6334L153.361 17.8649V23.402Z" fill="white"/>
</g>
<g opacity="0.95">
<path d="M196.337 118.306L189.319 122.354V122.358V132.08L191.955 133.603V123.877L196.337 121.348V118.306Z" fill="white"/>
<path d="M199.139 118.306V126.051H196.337V123.161L193.699 124.684V134.606L196.337 136.132V128.409H199.139V131.28L201.775 129.758V119.828L199.139 118.306Z" fill="white"/>
<path d="M199.139 136.135L206.158 132.087V132.083V122.361L203.52 120.838V130.564L199.139 133.093V136.135Z" fill="white"/>
</g>
</g>
<path d="M82.73 204.802L142.46 179.464L142.46 318.655L82.73 343.992L82.73 204.802Z" fill="url(#paint2_linear_20982_279471)" fill-opacity="0.6"/>
<path d="M82.73 204.802L22.9999 179.464L22.9999 327.913L82.73 353.25L82.73 204.802Z" fill="url(#paint3_linear_20982_279471)" fill-opacity="0.6"/>
<g clip-path="url(#clip2_20982_279471)" filter="url(#filter0_d_20982_279471)">
<path d="M77.9524 210.464L29.1948 182.317L29.1947 182.317L29.1445 182.288L29.1445 182.288C27.2878 181.217 26.706 180.861 26.2758 180.431L24.7846 181.922L26.2758 180.431C25.64 179.795 25.1827 179.003 24.95 178.135C24.7925 177.547 24.7755 176.865 24.7755 174.722V77.4331C24.7755 76.0004 24.7766 75.0316 24.8279 74.2797C24.8779 73.5468 24.9685 73.1753 25.0736 72.9214C25.4711 71.9617 26.2336 71.1993 27.1933 70.8017C27.4472 70.6966 27.8186 70.606 28.5516 70.556C29.3035 70.5047 30.2723 70.5036 31.705 70.5036H132.936C134.369 70.5036 135.338 70.5047 136.089 70.556C136.822 70.606 137.194 70.6966 137.448 70.8017L138.254 68.8563L137.448 70.8017C138.407 71.1993 139.17 71.9617 139.567 72.9214L141.516 72.1144L139.567 72.9214C139.673 73.1753 139.763 73.5468 139.813 74.2797C139.864 75.0316 139.866 76.0004 139.866 77.4331V174.722C139.866 176.865 139.848 177.547 139.691 178.135C139.458 179.003 139.001 179.795 138.365 180.431C137.935 180.861 137.353 181.217 135.497 182.288L86.6887 210.464C84.8323 211.536 84.2336 211.861 83.646 212.019C82.7777 212.252 81.8634 212.252 80.9951 212.019C80.4075 211.861 79.8087 211.536 77.9524 210.464Z" fill="black" stroke="black" stroke-width="4.21796"/>
<g opacity="0.94">
<path d="M34.4748 150.178V145.116H35.0605V147.343H37.6997V145.116H38.2854V150.178H37.6997V147.849H35.0605V150.178H34.4748ZM41.5839 150.221C40.2751 150.221 39.2917 149.173 39.2917 147.676C39.2917 146.136 40.2679 145.073 41.6273 145.073C42.7697 145.073 43.5724 145.81 43.7242 146.779H43.1168C42.9722 146.15 42.401 145.622 41.62 145.622C40.6077 145.622 39.9136 146.483 39.9136 147.683C39.9136 148.84 40.6005 149.657 41.5911 149.657C42.3937 149.657 42.9794 149.122 43.1168 148.5H43.7242C43.5579 149.469 42.7553 150.221 41.5839 150.221ZM46.0736 150.178L44.2225 145.116H44.7937L46.4134 149.527L48.0042 145.116H48.5827L46.7316 150.178H46.0736ZM49.182 150.178L48.5457 150.17L50.4764 145.116H51.0765L53.0216 150.178H52.3853L51.8647 148.811H49.6882L49.182 150.178ZM49.869 148.269H51.6911L50.78 145.774L49.869 148.269ZM55.5134 150.25C54.3637 150.25 53.6262 149.223 53.6262 147.676C53.6262 146.121 54.371 145.087 55.5279 145.087C56.6848 145.087 57.4224 146.121 57.4224 147.676C57.4224 149.223 56.6776 150.25 55.5134 150.25ZM55.5279 149.737C56.3522 149.737 56.8656 148.927 56.8656 147.683C56.8656 146.425 56.345 145.601 55.5062 145.601C54.6891 145.601 54.183 146.41 54.183 147.654C54.183 148.927 54.6964 149.737 55.5279 149.737ZM58.4774 148.045V147.625H61.0082V148.045H58.4774Z" fill="#FFE959"/>
<path d="M63.9519 150.235C62.7516 150.235 61.9562 149.165 61.9562 147.661C61.9562 146.136 62.7588 145.051 63.9663 145.051C65.1667 145.051 65.9693 146.136 65.9693 147.647C65.9693 149.158 65.1594 150.235 63.9519 150.235ZM63.9736 149.549C64.7111 149.549 65.1739 148.775 65.1739 147.676C65.1739 146.548 64.6967 145.745 63.9447 145.745C63.1999 145.745 62.7588 146.49 62.7588 147.611C62.7588 148.768 63.2216 149.549 63.9736 149.549ZM68.5135 150.235C67.3132 150.235 66.5178 149.165 66.5178 147.661C66.5178 146.136 67.3204 145.051 68.528 145.051C69.7283 145.051 70.5309 146.136 70.5309 147.647C70.5309 149.158 69.721 150.235 68.5135 150.235ZM68.5352 149.549C69.2727 149.549 69.7355 148.775 69.7355 147.676C69.7355 146.548 69.2583 145.745 68.5063 145.745C67.7615 145.745 67.3204 146.49 67.3204 147.611C67.3204 148.768 67.7832 149.549 68.5352 149.549ZM71.0505 150.178V149.404L72.2002 148.413C73.1185 147.625 73.6753 147.242 73.6753 146.649C73.6753 146.128 73.321 145.789 72.7859 145.789C72.2653 145.789 71.8893 146.15 71.8242 146.707H70.9926C71.036 145.716 71.7591 145.051 72.7931 145.051C73.762 145.051 74.4779 145.716 74.4779 146.613C74.4779 147.509 73.7476 148.03 72.9088 148.775L72.1568 149.44H74.514V150.178H71.0505Z" fill="white"/>
</g>
<path d="M130.256 114.943L131.446 117.523L134.268 117.857L132.182 119.787L132.736 122.573L130.256 121.185L127.777 122.573L128.331 119.787L126.245 117.857L129.066 117.523L130.256 114.943Z" fill="white"/>
<path d="M130.257 126.51L131.447 129.09L134.269 129.425L132.183 131.354L132.736 134.141L130.257 132.753L127.778 134.141L128.331 131.354L126.246 129.425L129.067 129.09L130.257 126.51Z" fill="black"/>
<path d="M130.257 138.079L131.447 140.659L134.269 140.993L132.183 142.922L132.736 145.709L130.257 144.321L127.778 145.709L128.331 142.922L126.246 140.993L129.067 140.659L130.257 138.079Z" fill="black"/>
<path opacity="0.95" d="M37.9949 123.182C35.8744 123.182 34.2764 121.563 34.2764 119.443C34.2764 117.353 35.8744 115.745 37.9846 115.745C39.6748 115.745 40.9245 116.708 41.3548 117.907L40.5558 118.101C40.2075 117.21 39.2651 116.513 37.9846 116.513C36.2432 116.513 35.0959 117.855 35.0959 119.433C35.0959 121.051 36.2432 122.414 37.9846 122.414C39.2651 122.414 40.1972 121.727 40.5558 120.826L41.3343 121.031C40.8938 122.229 39.6646 123.182 37.9949 123.182ZM47.9147 116.626H43.6738V119.044H47.3923V119.761H43.6738V122.301H47.9044V123.049H42.8646V115.878H47.9147V116.626ZM54.3379 123.049L52.4633 120.232H50.3634V123.049H49.5541V115.878H52.8731C54.3482 115.878 55.1472 117.015 55.1472 118.06C55.1472 119.023 54.5223 119.976 53.3545 120.191L55.2803 123.049H54.3379ZM50.3634 116.616V119.505H52.8423C53.795 119.505 54.3584 118.818 54.3584 118.06C54.3584 117.312 53.7848 116.616 52.8526 116.616H50.3634ZM62.2847 115.878V116.626H59.6419V123.049H58.8224V116.626H56.1693V115.878H62.2847ZM63.5135 123.049V115.878H64.333V123.049H63.5135ZM71.1498 116.626H67.0011V119.136H70.6273V119.863H67.0011V123.049H66.1816V115.878H71.1498V116.626ZM72.421 123.049V115.878H73.2405V123.049H72.421ZM80.1393 116.626H75.8984V119.044H79.6168V119.761H75.8984V122.301H80.129V123.049H75.0892V115.878H80.1393V116.626ZM84.5035 115.878C86.7264 115.878 88.0273 117.405 88.0273 119.464C88.0273 121.523 86.7264 123.049 84.5035 123.049H81.7787V115.878H84.5035ZM84.4933 122.301C86.2449 122.301 87.2078 121.072 87.2078 119.443C87.2078 117.866 86.2449 116.616 84.4933 116.616H82.588V122.301H84.4933ZM39.7465 137.049L39.1626 135.492H35.9359L35.3418 137.049H33.8872L36.6325 129.878H38.4558L41.2114 137.049H39.7465ZM36.3969 134.252H38.6914L37.5441 131.22L36.3969 134.252ZM44.8715 137.192C43.1199 137.192 41.9623 136.137 41.5628 135.021L42.9048 134.611C43.1916 135.359 43.9189 135.953 44.9535 135.953C45.7935 135.953 46.3159 135.523 46.3159 135.051C46.3159 134.672 46.0598 134.416 45.3735 134.191L43.5399 133.617C42.5974 133.32 41.9111 132.716 41.9214 131.794C41.9111 130.677 42.9969 129.735 44.4925 129.735C46.0393 129.735 47.1866 130.585 47.5758 131.579L46.2749 131.958C45.9778 131.374 45.312 130.974 44.5028 130.974C43.7959 130.974 43.3452 131.333 43.3452 131.753C43.3452 132.07 43.5603 132.286 44.0315 132.429L45.8139 133.003C46.91 133.341 47.7397 133.802 47.7397 134.969C47.7397 136.199 46.5925 137.192 44.8715 137.192ZM51.8912 137.192C50.1395 137.192 48.982 136.137 48.5825 135.021L49.9244 134.611C50.2113 135.359 50.9385 135.953 51.9732 135.953C52.8131 135.953 53.3356 135.523 53.3356 135.051C53.3356 134.672 53.0795 134.416 52.3931 134.191L50.5595 133.617C49.6171 133.32 48.9308 132.716 48.941 131.794C48.9308 130.677 50.0166 129.735 51.5122 129.735C53.059 129.735 54.2063 130.585 54.5955 131.579L53.2946 131.958C52.9975 131.374 52.3317 130.974 51.5224 130.974C50.8156 130.974 50.3649 131.333 50.3649 131.753C50.3649 132.07 50.58 132.286 51.0512 132.429L52.8336 133.003C53.9297 133.341 54.7594 133.802 54.7594 134.969C54.7594 136.199 53.6121 137.192 51.8912 137.192ZM59.4438 137.192C57.2721 137.192 55.6741 135.574 55.6741 133.453C55.6741 131.343 57.2721 129.735 59.4438 129.735C61.6052 129.735 63.2032 131.343 63.2032 133.453C63.2032 135.574 61.6052 137.192 59.4438 137.192ZM59.4438 135.891C60.8574 135.891 61.7896 134.826 61.7896 133.453C61.7896 132.111 60.8574 131.036 59.4438 131.036C58.0199 131.036 57.098 132.111 57.098 133.453C57.098 134.826 58.0199 135.891 59.4438 135.891ZM68.014 137.192C65.8526 137.192 64.2444 135.574 64.2444 133.453C64.2444 131.343 65.8526 129.735 67.9833 129.735C69.9193 129.735 71.1281 130.923 71.4559 132.06L70.0832 132.398C69.8476 131.702 69.0794 131.056 67.9935 131.056C66.5799 131.056 65.6785 132.152 65.6785 133.443C65.6785 134.734 66.5799 135.871 67.9935 135.871C69.0794 135.871 69.8476 135.246 70.0832 134.539L71.4456 134.887C71.1178 136.035 69.9091 137.192 68.014 137.192ZM72.7415 137.049V129.878H74.1654V137.049H72.7415ZM81.0343 137.049L80.4504 135.492H77.2237L76.6295 137.049H75.1749L77.9202 129.878H79.7436L82.4991 137.049H81.0343ZM77.6846 134.252H79.9792L78.8319 131.22L77.6846 134.252ZM88.3351 129.878V131.148H85.9279V137.049H84.5245V131.148H82.1172V129.878H88.3351ZM94.7447 131.148H90.8317V132.787H94.2223V134.017H90.8317V135.779H94.7345V137.049H89.459V129.878H94.7447V131.148Z" fill="white"/>
<path fill-rule="evenodd" clip-rule="evenodd" d="M23 100.814H142.308V77.1C142.308 74.2924 142.308 72.8886 141.849 71.7813C141.238 70.3048 140.065 69.1318 138.588 68.5202C137.481 68.0615 136.077 68.0615 133.27 68.0615H32.0385C29.2309 68.0615 27.8271 68.0615 26.7197 68.5202C25.2433 69.1318 24.0702 70.3048 23.4587 71.7813C23 72.8886 23 74.2924 23 77.1V100.814Z" fill="#FFE959"/>
<g clip-path="url(#clip3_20982_279471)">
<path d="M63.74 81.4565H65.8008L62.6784 91.9373H59.733L56.6106 81.4565H58.6714L61.2057 90.1914L63.74 81.4565Z" fill="black"/>
<path d="M71.5202 91.9449H69.959L69.8159 91.4245C69.1366 91.8657 68.344 92.1006 67.534 92.1011C66.1341 92.1011 65.5356 91.1409 65.5356 89.8191C65.5356 88.2579 66.2122 87.6621 67.7708 87.6621H69.613V86.8607C69.613 86.0098 69.3762 85.7106 68.148 85.7106C67.4341 85.7178 66.7228 85.7971 66.0248 85.9474L65.788 84.4824C66.6442 84.2465 67.5279 84.1248 68.416 84.1208C70.8229 84.1208 71.5384 84.9716 71.5384 86.8919L71.5202 91.9449ZM69.6026 89.0489H68.1845C67.5548 89.0489 67.3831 89.2233 67.3831 89.8061C67.3831 90.3395 67.5548 90.5867 68.1637 90.5867C68.672 90.5786 69.1702 90.4435 69.613 90.1938L69.6026 89.0489Z" fill="black"/>
<path d="M74.5438 84.2745V89.6242C74.5438 90.0327 74.7155 90.2383 75.1579 90.2383C75.6002 90.2383 76.4589 89.9546 77.1562 89.593V84.2745H79.0765V91.9452H77.6115L77.4242 91.2999C76.4681 91.7793 75.4222 92.0532 74.3539 92.1039C73.0789 92.1039 72.6235 91.2062 72.6235 89.8375V84.2823L74.5438 84.2745Z" fill="black"/>
<path d="M80.0986 91.945V81.1493L82.0189 80.8891V91.945H80.0986Z" fill="black"/>
<path d="M87.7459 91.7967C87.2043 91.9858 86.6359 92.0869 86.0624 92.096C84.6625 92.096 83.9522 91.4351 83.9522 90.0664V85.7992H82.8047V84.2744H83.9522V82.3697L85.8724 82.1096V84.2822H87.8395L87.7146 85.807H85.8724V89.8218C85.8605 89.9149 85.8703 90.0094 85.9011 90.0981C85.932 90.1867 85.9829 90.2669 86.05 90.3325C86.1171 90.3981 86.1985 90.4472 86.2878 90.476C86.3771 90.5047 86.4718 90.5124 86.5646 90.4984C86.8903 90.4889 87.2132 90.4355 87.5247 90.3396L87.7459 91.7967Z" fill="black"/>
<path d="M33.8457 78.6228L42.1434 94.7707L50.4984 78.6228H33.8457ZM40.8425 85.0341H39.5415V83.7123H40.8425V85.0341ZM40.8425 83.0514H39.5415V81.7296H40.8425V83.0514ZM42.8252 87.0168H41.5112V85.7002H42.833L42.8252 87.0168ZM42.8252 85.0341H41.5112V83.7123H42.833L42.8252 85.0341ZM42.8252 83.0514H41.5112V81.7296H42.833L42.8252 83.0514ZM44.7975 85.0341H43.4835V83.7123H44.8053L44.7975 85.0341ZM43.4757 83.0514V81.7296H44.7975V83.0514H43.4757Z" fill="black"/>
</g>
<g opacity="0.95">
<path d="M81.2783 184.65L74.3855 188.625V188.628V198.177L76.9745 199.672V190.12L81.2783 187.636V184.65Z" fill="white"/>
<path d="M84.0299 184.65V192.256H81.2783V189.418L78.6877 190.912V200.657L81.2783 202.155V194.571H84.0299V197.39L86.6189 195.896V186.144L84.0299 184.65Z" fill="white"/>
<path d="M84.0298 202.158L90.9226 198.183V198.18V188.631L88.332 187.136V196.688L84.0298 199.172V202.158Z" fill="white"/>
</g>
</g>
<path d="M295.5 226.531L355 192.208L355 330.504L295.5 364.827L295.5 226.531Z" fill="url(#paint4_linear_20982_279471)" fill-opacity="0.6"/>
<path d="M295.5 226.531L236 192.208L236 332.994L295.5 367.317L295.5 226.531Z" fill="url(#paint5_linear_20982_279471)" fill-opacity="0.6"/>
<g clip-path="url(#clip4_20982_279471)">
<path d="M291.004 229.145L242.247 200.998L242.246 200.998L242.196 200.969L242.196 200.969C240.34 199.897 239.758 199.542 239.328 199.112L237.836 200.603L239.328 199.112C238.692 198.476 238.235 197.684 238.002 196.816C237.844 196.228 237.827 195.546 237.827 193.402V96.114C237.827 94.6813 237.828 93.7125 237.88 92.9606C237.93 92.2277 238.02 91.8562 238.125 91.6023C238.523 90.6426 239.285 89.8802 240.245 89.4826C240.499 89.3775 240.87 89.2869 241.603 89.2369C242.355 89.1856 243.324 89.1845 244.757 89.1845H345.988C347.42 89.1845 348.389 89.1856 349.141 89.2369C349.874 89.2869 350.246 89.3775 350.499 89.4826L351.305 87.5372L350.499 89.4826C351.459 89.8802 352.222 90.6426 352.619 91.6023L354.568 90.7953L352.619 91.6023C352.724 91.8562 352.815 92.2277 352.865 92.9606C352.916 93.7125 352.917 94.6813 352.917 96.114V193.402C352.917 195.546 352.9 196.228 352.743 196.816C352.51 197.684 352.053 198.476 351.417 199.112C350.987 199.542 350.405 199.897 348.548 200.969L299.74 229.145C297.884 230.216 297.285 230.542 296.698 230.7C295.829 230.932 294.915 230.932 294.047 230.7C293.459 230.542 292.86 230.216 291.004 229.145Z" fill="black" stroke="black" stroke-width="4.21796"/>
<g opacity="0.94">
<path d="M251.237 168.859V163.797H251.823V166.024H254.462V163.797H255.048V168.859H254.462V166.53H251.823V168.859H251.237ZM258.346 168.902C257.037 168.902 256.054 167.853 256.054 166.357C256.054 164.816 257.03 163.754 258.389 163.754C259.532 163.754 260.335 164.491 260.486 165.46H259.879C259.734 164.831 259.163 164.303 258.382 164.303C257.37 164.303 256.676 165.164 256.676 166.364C256.676 167.521 257.363 168.338 258.353 168.338C259.156 168.338 259.742 167.803 259.879 167.181H260.486C260.32 168.15 259.517 168.902 258.346 168.902ZM263.494 168.902C262.185 168.902 261.202 167.853 261.202 166.357C261.202 164.816 262.178 163.754 263.537 163.754C264.68 163.754 265.482 164.491 265.634 165.46H265.027C264.882 164.831 264.311 164.303 263.53 164.303C262.518 164.303 261.823 165.164 261.823 166.364C261.823 167.521 262.51 168.338 263.501 168.338C264.304 168.338 264.889 167.803 265.027 167.181H265.634C265.468 168.15 264.665 168.902 263.494 168.902ZM266.7 168.859L266.063 168.851L267.994 163.797H268.594L270.539 168.859H269.903L269.382 167.492H267.206L266.7 168.859ZM267.387 166.95H269.209L268.298 164.455L267.387 166.95ZM273.031 168.931C271.882 168.931 271.144 167.904 271.144 166.357C271.144 164.802 271.889 163.768 273.046 163.768C274.203 163.768 274.94 164.802 274.94 166.357C274.94 167.904 274.195 168.931 273.031 168.931ZM273.046 168.417C273.87 168.417 274.383 167.608 274.383 166.364C274.383 165.106 273.863 164.281 273.024 164.281C272.207 164.281 271.701 165.091 271.701 166.335C271.701 167.608 272.214 168.417 273.046 168.417ZM275.995 166.725V166.306H278.526V166.725H275.995Z" fill="#F85C94"/>
<path d="M281.47 168.916C280.269 168.916 279.474 167.846 279.474 166.342C279.474 164.816 280.277 163.732 281.484 163.732C282.684 163.732 283.487 164.816 283.487 166.328C283.487 167.839 282.677 168.916 281.47 168.916ZM281.491 168.229C282.229 168.229 282.692 167.456 282.692 166.357C282.692 165.229 282.214 164.426 281.462 164.426C280.718 164.426 280.277 165.171 280.277 166.292C280.277 167.449 280.739 168.229 281.491 168.229ZM286.031 168.916C284.831 168.916 284.036 167.846 284.036 166.342C284.036 164.816 284.838 163.732 286.046 163.732C287.246 163.732 288.049 164.816 288.049 166.328C288.049 167.839 287.239 168.916 286.031 168.916ZM286.053 168.229C286.791 168.229 287.253 167.456 287.253 166.357C287.253 165.229 286.776 164.426 286.024 164.426C285.279 164.426 284.838 165.171 284.838 166.292C284.838 167.449 285.301 168.229 286.053 168.229ZM288.568 168.859V168.085L289.718 167.094C290.636 166.306 291.193 165.923 291.193 165.33C291.193 164.809 290.839 164.469 290.304 164.469C289.783 164.469 289.407 164.831 289.342 165.388H288.51C288.554 164.397 289.277 163.732 290.311 163.732C291.28 163.732 291.996 164.397 291.996 165.294C291.996 166.19 291.265 166.711 290.427 167.456L289.675 168.121H292.032V168.859H288.568Z" fill="white"/>
</g>
<path d="M343.309 133.624L344.499 136.204L347.32 136.538L345.234 138.467L345.788 141.254L343.309 139.866L340.829 141.254L341.383 138.467L339.297 136.538L342.118 136.204L343.309 133.624Z" fill="white"/>
<path d="M343.309 145.192L344.499 147.772L347.32 148.107L345.234 150.036L345.788 152.822L343.309 151.435L340.829 152.822L341.383 150.036L339.297 148.107L342.118 147.772L343.309 145.192Z" fill="black"/>
<path d="M343.308 156.759L344.498 159.339L347.319 159.674L345.233 161.603L345.787 164.39L343.308 163.002L340.829 164.39L341.382 161.603L339.296 159.674L342.118 159.339L343.308 156.759Z" fill="black"/>
<path opacity="0.95" d="M254.756 141.863C252.635 141.863 251.037 140.244 251.037 138.124C251.037 136.034 252.635 134.426 254.746 134.426C256.436 134.426 257.686 135.389 258.116 136.587L257.317 136.782C256.968 135.891 256.026 135.194 254.746 135.194C253.004 135.194 251.857 136.536 251.857 138.114C251.857 139.732 253.004 141.095 254.746 141.095C256.026 141.095 256.958 140.408 257.317 139.507L258.095 139.712C257.655 140.91 256.426 141.863 254.756 141.863ZM264.676 135.307H260.435V137.725H264.153V138.442H260.435V140.982H264.665V141.73H259.626V134.559H264.676V135.307ZM271.099 141.73L269.224 138.913H267.124V141.73H266.315V134.559H269.634C271.109 134.559 271.908 135.696 271.908 136.741C271.908 137.704 271.283 138.657 270.116 138.872L272.041 141.73H271.099ZM267.124 135.297V138.185H269.603C270.556 138.185 271.119 137.499 271.119 136.741C271.119 135.993 270.546 135.297 269.614 135.297H267.124ZM279.046 134.559V135.307H276.403V141.73H275.583V135.307H272.93V134.559H279.046ZM280.274 141.73V134.559H281.094V141.73H280.274ZM287.911 135.307H283.762V137.817H287.388V138.544H283.762V141.73H282.943V134.559H287.911V135.307ZM289.182 141.73V134.559H290.001V141.73H289.182ZM296.9 135.307H292.659V137.725H296.378V138.442H292.659V140.982H296.89V141.73H291.85V134.559H296.9V135.307ZM301.265 134.559C303.487 134.559 304.788 136.086 304.788 138.145C304.788 140.203 303.487 141.73 301.265 141.73H298.54V134.559H301.265ZM301.254 140.982C303.006 140.982 303.969 139.753 303.969 138.124C303.969 136.547 303.006 135.297 301.254 135.297H299.349V140.982H301.254ZM256.508 155.73L255.924 154.173H252.697L252.103 155.73H250.648L253.393 148.559H255.217L257.972 155.73H256.508ZM253.158 152.933H255.452L254.305 149.901L253.158 152.933ZM261.633 155.873C259.881 155.873 258.723 154.818 258.324 153.702L259.666 153.292C259.953 154.04 260.68 154.634 261.714 154.634C262.554 154.634 263.077 154.203 263.077 153.732C263.077 153.353 262.821 153.097 262.134 152.872L260.301 152.298C259.358 152.001 258.672 151.397 258.682 150.475C258.672 149.358 259.758 148.416 261.253 148.416C262.8 148.416 263.948 149.266 264.337 150.26L263.036 150.639C262.739 150.055 262.073 149.655 261.264 149.655C260.557 149.655 260.106 150.014 260.106 150.434C260.106 150.751 260.321 150.967 260.793 151.11L262.575 151.684C263.671 152.022 264.501 152.483 264.501 153.65C264.501 154.88 263.353 155.873 261.633 155.873ZM268.652 155.873C266.901 155.873 265.743 154.818 265.344 153.702L266.685 153.292C266.972 154.04 267.7 154.634 268.734 154.634C269.574 154.634 270.097 154.203 270.097 153.732C270.097 153.353 269.84 153.097 269.154 152.872L267.321 152.298C266.378 152.001 265.692 151.397 265.702 150.475C265.692 149.358 266.778 148.416 268.273 148.416C269.82 148.416 270.967 149.266 271.357 150.26L270.056 150.639C269.759 150.055 269.093 149.655 268.283 149.655C267.577 149.655 267.126 150.014 267.126 150.434C267.126 150.751 267.341 150.967 267.812 151.11L269.595 151.684C270.691 152.022 271.52 152.483 271.52 153.65C271.52 154.88 270.373 155.873 268.652 155.873ZM276.205 155.873C274.033 155.873 272.435 154.255 272.435 152.134C272.435 150.024 274.033 148.416 276.205 148.416C278.366 148.416 279.964 150.024 279.964 152.134C279.964 154.255 278.366 155.873 276.205 155.873ZM276.205 154.572C277.618 154.572 278.551 153.507 278.551 152.134C278.551 150.792 277.618 149.717 276.205 149.717C274.781 149.717 273.859 150.792 273.859 152.134C273.859 153.507 274.781 154.572 276.205 154.572ZM284.775 155.873C282.614 155.873 281.005 154.255 281.005 152.134C281.005 150.024 282.614 148.416 284.744 148.416C286.68 148.416 287.889 149.604 288.217 150.741L286.844 151.079C286.609 150.383 285.84 149.737 284.755 149.737C283.341 149.737 282.439 150.833 282.439 152.124C282.439 153.415 283.341 154.552 284.755 154.552C285.84 154.552 286.609 153.927 286.844 153.22L288.207 153.568C287.879 154.716 286.67 155.873 284.775 155.873ZM289.503 155.73V148.559H290.926V155.73H289.503ZM297.795 155.73L297.211 154.173H293.985L293.391 155.73H291.936L294.681 148.559H296.505L299.26 155.73H297.795ZM294.446 152.933H296.74L295.593 149.901L294.446 152.933ZM305.096 148.559V149.829H302.689V155.73H301.285V149.829H298.878V148.559H305.096ZM311.506 149.829H307.593V151.468H310.983V152.698H307.593V154.46H311.495V155.73H306.22V148.559H311.506V149.829Z" fill="white"/>
<path fill-rule="evenodd" clip-rule="evenodd" d="M297.728 234.937H293.683C293.725 234.949 293.766 234.961 293.808 234.972C295.05 235.31 296.361 235.31 297.604 234.972C297.645 234.961 297.686 234.949 297.728 234.937ZM236.052 195.538C236.052 195.405 236.052 195.268 236.052 195.126V95.7817C236.052 92.9741 236.052 91.5703 236.51 90.4629C237.122 88.9865 238.295 87.8134 239.771 87.2018C240.879 86.7432 242.282 86.7432 245.09 86.7432H346.321C349.129 86.7432 350.532 86.7432 351.64 87.2018C353.116 87.8134 354.289 88.9865 354.901 90.4629C355.36 91.5703 355.36 92.9741 355.36 95.7817V120.255H236.052V195.538Z" fill="#E03875"/>
<g clip-path="url(#clip5_20982_279471)">
<path d="M272.767 102.778C272.767 100.908 273.857 99.8188 276.4 99.8188C277.339 99.8184 278.275 99.9316 279.187 100.156L278.972 101.828C278.148 101.674 277.312 101.589 276.474 101.575C275.138 101.575 274.7 102.033 274.7 103.123V107.039C274.7 108.126 275.128 108.587 276.474 108.587C277.312 108.573 278.148 108.488 278.972 108.334L279.187 110.006C278.275 110.23 277.339 110.343 276.4 110.343C273.867 110.343 272.767 109.254 272.767 107.384V102.778Z" fill="white"/>
<path d="M283.314 110.335C280.753 110.335 280.066 108.922 280.066 107.402V105.507C280.066 103.986 280.755 102.563 283.317 102.563C285.878 102.563 286.565 103.974 286.565 105.507V107.402C286.562 108.922 285.873 110.335 283.314 110.335ZM283.314 104.156C282.316 104.156 281.933 104.602 281.933 105.446V107.452C281.933 108.296 282.316 108.739 283.314 108.739C284.312 108.739 284.692 108.296 284.692 107.452V105.446C284.692 104.615 284.31 104.156 283.314 104.156Z" fill="white"/>
<path d="M292.25 110.188V104.969C292.25 104.572 292.08 104.372 291.652 104.372C291.224 104.372 290.385 104.648 289.704 105V110.188H287.834V102.717H289.26L289.44 103.348C290.371 102.882 291.39 102.615 292.43 102.565C293.671 102.565 294.117 103.439 294.117 104.772V110.188H292.25Z" fill="white"/>
<path d="M297.966 110.335C297.091 110.321 296.223 110.176 295.392 109.905L295.645 108.481C296.368 108.687 297.115 108.795 297.867 108.803C298.695 108.803 298.817 108.618 298.817 108.043C298.817 107.584 298.726 107.353 297.515 107.062C295.691 106.619 295.475 106.158 295.475 104.716C295.475 103.214 296.134 102.555 298.262 102.555C299.015 102.553 299.766 102.638 300.499 102.808L300.334 104.311C299.656 104.186 298.969 104.114 298.28 104.095C297.467 104.095 297.33 104.28 297.33 104.739C297.33 105.337 297.375 105.382 298.389 105.643C300.471 106.196 300.669 106.472 300.669 108.005C300.664 109.446 300.22 110.335 297.966 110.335Z" fill="white"/>
<path d="M303.76 102.717V107.929C303.76 108.326 303.927 108.526 304.358 108.526C304.788 108.526 305.624 108.25 306.303 107.898V102.717H308.173V110.188H306.749L306.564 109.56C305.633 110.027 304.615 110.294 303.575 110.343C302.333 110.343 301.89 109.469 301.89 108.134V102.717H303.76Z" fill="white"/>
<path d="M309.782 110.188V99.6668L311.651 99.4134V110.188H309.782Z" fill="white"/>
<path d="M258.658 113.125C257.349 113.126 256.059 112.807 254.9 112.196C253.742 111.585 252.75 110.701 252.011 109.62C251.272 108.539 250.808 107.294 250.659 105.993C250.51 104.692 250.681 103.374 251.157 102.154C251.633 100.934 252.4 99.849 253.39 98.9924C254.38 98.1358 255.565 97.5339 256.841 97.2388C258.116 96.9438 259.445 96.9646 260.711 97.2994C261.977 97.6342 263.142 98.2729 264.105 99.1601V99.1601L262.202 101.157C261.443 100.472 260.501 100.022 259.492 99.8615C258.482 99.7011 257.447 99.8368 256.513 100.252C255.579 100.668 254.785 101.346 254.228 102.203C253.671 103.06 253.374 104.061 253.374 105.083C253.374 106.106 253.671 107.107 254.228 107.964C254.785 108.821 255.579 109.499 256.513 109.915C257.447 110.33 258.482 110.466 259.492 110.305C260.501 110.145 261.443 109.695 262.202 109.01V109.01L264.105 110.999C262.622 112.368 260.677 113.127 258.658 113.125V113.125Z" fill="white"/>
<path d="M265.134 109.099C265.004 109.099 264.876 109.06 264.768 108.988C264.66 108.916 264.575 108.813 264.525 108.692C264.475 108.572 264.462 108.44 264.488 108.312C264.513 108.184 264.576 108.067 264.668 107.975C264.76 107.882 264.878 107.82 265.005 107.794C265.133 107.769 265.266 107.782 265.386 107.832C265.506 107.882 265.609 107.966 265.682 108.074C265.754 108.183 265.793 108.31 265.793 108.44C265.793 108.615 265.723 108.783 265.6 108.906C265.476 109.03 265.309 109.099 265.134 109.099V109.099Z" fill="white"/>
<path d="M258.607 106.821C258.263 106.821 257.926 106.719 257.639 106.528C257.352 106.336 257.129 106.064 256.997 105.745C256.865 105.427 256.83 105.076 256.898 104.738C256.965 104.4 257.131 104.09 257.375 103.846C257.619 103.602 257.929 103.436 258.267 103.369C258.605 103.302 258.956 103.336 259.274 103.468C259.593 103.6 259.865 103.823 260.057 104.11C260.248 104.397 260.35 104.734 260.35 105.078C260.35 105.541 260.167 105.984 259.84 106.311C259.513 106.638 259.07 106.821 258.607 106.821V106.821Z" fill="white"/>
<path d="M265.891 106.847C265.761 106.847 265.633 106.808 265.525 106.736C265.417 106.663 265.332 106.561 265.283 106.44C265.233 106.32 265.22 106.187 265.245 106.06C265.27 105.932 265.333 105.814 265.425 105.722C265.517 105.63 265.635 105.567 265.763 105.542C265.89 105.517 266.023 105.53 266.143 105.58C266.264 105.629 266.366 105.714 266.439 105.822C266.511 105.93 266.55 106.058 266.55 106.188C266.549 106.363 266.48 106.53 266.356 106.653C266.233 106.777 266.066 106.846 265.891 106.847Z" fill="white"/>
<path d="M263.93 106.771C263.8 106.771 263.673 106.732 263.564 106.66C263.456 106.587 263.371 106.485 263.322 106.364C263.272 106.244 263.259 106.111 263.284 105.984C263.31 105.856 263.372 105.738 263.464 105.646C263.557 105.554 263.674 105.491 263.802 105.466C263.929 105.441 264.062 105.454 264.182 105.503C264.303 105.553 264.406 105.638 264.478 105.746C264.55 105.854 264.589 105.982 264.589 106.112C264.589 106.287 264.52 106.454 264.396 106.578C264.272 106.701 264.105 106.771 263.93 106.771V106.771Z" fill="white"/>
<path d="M265.891 104.63C265.761 104.63 265.633 104.591 265.525 104.519C265.417 104.447 265.332 104.344 265.283 104.223C265.233 104.103 265.22 103.971 265.245 103.843C265.27 103.715 265.333 103.598 265.425 103.505C265.517 103.413 265.635 103.351 265.763 103.325C265.89 103.3 266.023 103.313 266.143 103.363C266.264 103.413 266.366 103.497 266.439 103.605C266.511 103.714 266.55 103.841 266.55 103.971C266.549 104.146 266.48 104.313 266.356 104.436C266.233 104.56 266.066 104.629 265.891 104.63V104.63Z" fill="white"/>
<path d="M263.93 104.706C263.8 104.706 263.673 104.667 263.564 104.595C263.456 104.523 263.371 104.42 263.322 104.299C263.272 104.179 263.259 104.046 263.284 103.919C263.31 103.791 263.372 103.674 263.464 103.581C263.557 103.489 263.674 103.427 263.802 103.401C263.929 103.376 264.062 103.389 264.182 103.439C264.303 103.488 264.406 103.573 264.478 103.681C264.55 103.79 264.589 103.917 264.589 104.047C264.589 104.222 264.52 104.389 264.396 104.513C264.272 104.637 264.105 104.706 263.93 104.706V104.706Z" fill="white"/>
<path d="M265.172 102.413C265.042 102.413 264.914 102.375 264.806 102.302C264.698 102.23 264.613 102.127 264.563 102.007C264.513 101.886 264.5 101.754 264.526 101.626C264.551 101.498 264.614 101.381 264.706 101.289C264.798 101.197 264.916 101.134 265.043 101.108C265.171 101.083 265.304 101.096 265.424 101.146C265.544 101.196 265.647 101.28 265.72 101.388C265.792 101.497 265.831 101.624 265.831 101.754C265.831 101.929 265.761 102.097 265.638 102.22C265.514 102.344 265.347 102.413 265.172 102.413V102.413Z" fill="white"/>
</g>
<g opacity="0.95">
<path d="M294.33 203.331L287.437 207.307V207.31V216.858L290.026 218.353V208.802L294.33 206.318V203.331Z" fill="white"/>
<path d="M297.081 203.331V210.937H294.33V208.099L291.739 209.594V219.339L294.33 220.837V213.252H297.081V216.072L299.67 214.577V204.826L297.081 203.331Z" fill="white"/>
<path d="M297.081 220.84L303.974 216.864V216.861V207.313L301.383 205.818V215.37L297.081 217.853V220.84Z" fill="white"/>
</g>
</g>
</g>
<defs>
<filter id="filter0_d_20982_279471" x="19.142" y="68.0615" width="127.593" height="156.124" filterUnits="userSpaceOnUse" color-interpolation-filters="sRGB">
<feFlood flood-opacity="0" result="BackgroundImageFix"/>
<feColorMatrix in="SourceAlpha" type="matrix" values="0 0 0 0 0 0 0 0 0 0 0 0 0 0 0 0 0 0 127 0" result="hardAlpha"/>
<feMorphology radius="6.43003" operator="erode" in="SourceAlpha" result="effect1_dropShadow_20982_279471"/>
<feOffset dy="5.14403"/>
<feGaussianBlur stdDeviation="5.14403"/>
<feColorMatrix type="matrix" values="0 0 0 0 0.170885 0 0 0 0 0.183125 0 0 0 0 0.2125 0 0 0 0.2 0"/>
<feBlend mode="normal" in2="BackgroundImageFix" result="effect1_dropShadow_20982_279471"/>
<feBlend mode="normal" in="SourceGraphic" in2="effect1_dropShadow_20982_279471" result="shape"/>
</filter>
<linearGradient id="paint0_linear_20982_279471" x1="223.405" y1="84.8293" x2="244.758" y2="221.161" gradientUnits="userSpaceOnUse">
<stop stop-color="#532A7D"/>
<stop offset="1" stop-color="#33197C" stop-opacity="0"/>
</linearGradient>
<linearGradient id="paint1_linear_20982_279471" x1="189.925" y1="102.415" x2="150.126" y2="206.316" gradientUnits="userSpaceOnUse">
<stop stop-color="#76A0F3"/>
<stop offset="1" stop-color="#522AC2" stop-opacity="0"/>
</linearGradient>
<linearGradient id="paint2_linear_20982_279471" x1="107.422" y1="161.258" x2="112.481" y2="285.581" gradientUnits="userSpaceOnUse">
<stop stop-color="#9B7003"/>
<stop offset="1" stop-color="#DF706F" stop-opacity="0"/>
</linearGradient>
<linearGradient id="paint3_linear_20982_279471" x1="75.6811" y1="170.561" x2="55.8343" y2="278.966" gradientUnits="userSpaceOnUse">
<stop offset="0.19001" stop-color="#FECA13" stop-opacity="0.76"/>
<stop offset="1" stop-color="#E36666" stop-opacity="0.06"/>
</linearGradient>
<linearGradient id="paint4_linear_20982_279471" x1="320.096" y1="167.546" x2="340.049" y2="295.043" gradientUnits="userSpaceOnUse">
<stop stop-color="#922479"/>
<stop offset="1" stop-color="#96267A" stop-opacity="0"/>
</linearGradient>
<linearGradient id="paint5_linear_20982_279471" x1="295.495" y1="164" x2="280.085" y2="288.131" gradientUnits="userSpaceOnUse">
<stop stop-color="#E771A4"/>
<stop offset="0.603067" stop-color="#F13A9B" stop-opacity="0.481363"/>
<stop offset="0.830498" stop-color="#F52598" stop-opacity="0.19"/>
<stop offset="1" stop-color="#F81696" stop-opacity="0"/>
</linearGradient>
<clipPath id="clip0_20982_279471">
<rect width="159.527" height="159.527" fill="white" transform="translate(117.974 -9)"/>
</clipPath>
<clipPath id="clip1_20982_279471">
<rect width="78.5643" height="22.0884" fill="white" transform="translate(148.039 7.56645)"/>
</clipPath>
<clipPath id="clip2_20982_279471">
<rect width="119.877" height="147.122" fill="white" transform="translate(23 68.0615)"/>
</clipPath>
<clipPath id="clip3_20982_279471">
<rect width="54.1214" height="22.8975" fill="white" transform="translate(33.8457 75.2923)"/>
</clipPath>
<clipPath id="clip4_20982_279471">
<rect width="119.877" height="147.122" fill="white" transform="translate(236.052 86.7425)"/>
</clipPath>
<clipPath id="clip5_20982_279471">
<rect width="61.0577" height="22.2949" fill="white" transform="translate(250.607 93.9739)"/>
</clipPath>
</defs>
</svg>
