<svg width="498" height="528" viewBox="0 0 498 528" fill="none" xmlns="http://www.w3.org/2000/svg">
<g clip-path="url(#clip0_501_1889)">
<path d="M391.938 347.666L472.059 292V516.295L391.938 571.961V347.666Z" fill="url(#paint0_linear_501_1889)" fill-opacity="0.6"/>
<path d="M391.938 347.666L311.818 292V520.334L391.938 576V347.666Z" fill="url(#paint1_linear_501_1889)" fill-opacity="0.6"/>
<path d="M259.855 222.92L356.712 167V392.318L259.855 448.238V222.92Z" fill="url(#paint2_linear_501_1889)" fill-opacity="0.6"/>
<path d="M259.856 222.92L163 167V396.376L259.856 452.296V222.92Z" fill="url(#paint3_linear_501_1889)" fill-opacity="0.6"/>
<path d="M336.801 177.51V177.511L336.716 177.559L266.635 218.015C263.967 219.556 263.106 220.024 262.261 220.25C261.013 220.585 259.698 220.585 258.45 220.25C257.605 220.024 256.745 219.556 254.076 218.015L183.911 177.511C181.242 175.97 180.405 175.459 179.787 174.84C178.873 173.926 178.215 172.788 177.881 171.539C177.655 170.694 177.63 169.715 177.63 166.632V26.772C177.63 24.712 177.632 23.32 177.705 22.239C177.777 21.185 177.907 20.651 178.059 20.286C178.342 19.6029 178.756 18.9822 179.279 18.4594C179.802 17.9366 180.423 17.5219 181.106 17.239C181.471 17.089 182.005 16.958 183.058 16.886C184.139 16.812 185.532 16.811 187.592 16.811H333.12C335.179 16.811 336.572 16.812 337.653 16.886C338.707 16.958 339.241 17.088 339.606 17.239C340.985 17.8108 342.081 18.9067 342.653 20.286C342.804 20.651 342.934 21.186 343.006 22.239C343.08 23.32 343.081 24.713 343.081 26.772V166.632C343.081 169.715 343.057 170.694 342.83 171.539C342.496 172.788 341.839 173.926 340.925 174.84C340.306 175.459 339.47 175.97 336.801 177.51Z" fill="black" stroke="black" stroke-width="6.064"/>
<g opacity="0.94">
<g opacity="0.94">
<path d="M233.189 131.132C231.584 131.132 230.52 129.701 230.52 127.69C230.52 125.65 231.594 124.2 233.208 124.2C234.813 124.2 235.886 125.65 235.886 127.671C235.886 129.691 234.804 131.132 233.189 131.132ZM233.218 130.213C234.204 130.213 234.823 129.179 234.823 127.709C234.823 126.201 234.185 125.128 233.179 125.128C232.183 125.128 231.594 126.124 231.594 127.622C231.594 129.169 232.212 130.213 233.218 130.213Z" fill="white"/>
<path d="M239.288 131.132C237.683 131.132 236.62 129.701 236.62 127.69C236.62 125.65 237.693 124.2 239.308 124.2C240.913 124.2 241.986 125.65 241.986 127.671C241.986 129.691 240.903 131.132 239.288 131.132ZM239.317 130.213C240.304 130.213 240.922 129.179 240.922 127.709C240.922 126.201 240.284 125.128 239.279 125.128C238.283 125.128 237.693 126.124 237.693 127.622C237.693 129.169 238.312 130.213 239.317 130.213Z" fill="white"/>
<path d="M246.161 127.555C246.848 127.806 247.438 128.347 247.418 129.256C247.399 130.378 246.442 131.19 245.078 131.19C243.628 131.19 242.652 130.271 242.613 128.966H243.725C243.696 129.691 244.228 130.194 245.049 130.194C245.784 130.194 246.297 129.807 246.297 129.218C246.297 128.599 245.804 128.183 244.875 128.183H244.44V127.139H244.837C245.659 127.139 246.161 126.752 246.161 126.124C246.161 125.563 245.697 125.195 245.02 125.195C244.247 125.195 243.822 125.66 243.793 126.452H242.69C242.719 125.089 243.609 124.19 245.059 124.19C246.364 124.19 247.273 124.934 247.273 125.969C247.273 126.81 246.664 127.371 246.161 127.555Z" fill="white"/>
<path d="M194.957 131.055V124.287H195.74V127.265H199.269V124.287H200.052V131.055H199.269V127.941H195.74V131.055H194.957Z" fill="#AC72F0"/>
<path d="M204.463 131.113C202.713 131.113 201.398 129.711 201.398 127.709C201.398 125.65 202.703 124.229 204.521 124.229C206.048 124.229 207.122 125.215 207.325 126.51H206.513C206.319 125.669 205.555 124.963 204.511 124.963C203.158 124.963 202.229 126.114 202.229 127.719C202.229 129.266 203.148 130.358 204.473 130.358C205.546 130.358 206.329 129.643 206.513 128.811H207.325C207.102 130.107 206.029 131.113 204.463 131.113Z" fill="#AC72F0"/>
<path d="M210.028 131.055V124.992H207.602V124.287H213.19V124.992H210.773V131.055H210.028Z" fill="#AC72F0"/>
<path d="M213.593 131.055L212.743 131.045L215.324 124.287H216.127L218.727 131.055H217.877L217.18 129.227H214.27L213.593 131.055ZM214.512 128.502H216.948L215.73 125.166L214.512 128.502Z" fill="#AC72F0"/>
<path d="M222.059 131.151C220.522 131.151 219.536 129.778 219.536 127.709C219.536 125.631 220.532 124.248 222.079 124.248C223.626 124.248 224.612 125.631 224.612 127.709C224.612 129.778 223.616 131.151 222.059 131.151ZM222.079 130.465C223.181 130.465 223.867 129.382 223.867 127.719C223.867 126.037 223.171 124.934 222.05 124.934C220.957 124.934 220.28 126.017 220.28 127.68C220.28 129.382 220.967 130.465 222.079 130.465Z" fill="#AC72F0"/>
<path d="M226.022 128.202V127.642H229.406V128.202H226.022Z" fill="#AC72F0"/>
</g>
</g>
<path d="M328.4 81.395L330.11 85.105L334.166 85.585L331.168 88.359L331.964 92.365L328.4 90.37L324.835 92.365L325.631 88.359L322.633 85.585L326.689 85.105L328.4 81.395Z" fill="white"/>
<path d="M328.4 98.0249L330.11 101.734L334.166 102.215L331.168 104.988L331.964 108.995L328.4 107L324.835 108.995L325.631 104.988L322.633 102.215L326.689 101.734L328.4 98.0249ZM328.4 114.654L330.11 118.363L334.166 118.844L331.168 121.617L331.964 125.624L328.4 123.629L324.835 125.624L325.631 121.617L322.633 118.844L326.689 118.363L328.4 114.654Z" fill="black"/>
<path opacity="0.95" d="M200.764 93.4268C203.164 93.4268 204.931 92.0568 205.565 90.3338L204.445 90.0398C203.93 91.3358 202.59 92.3218 200.749 92.3218C198.246 92.3218 196.596 90.3638 196.596 88.0368C196.596 85.7688 198.246 83.8398 200.749 83.8398C202.59 83.8398 203.945 84.8408 204.445 86.1228L205.594 85.8428C204.975 84.1198 203.179 82.7358 200.749 82.7358C197.716 82.7358 195.418 85.0478 195.418 88.0518C195.418 91.0998 197.716 93.4268 200.764 93.4268ZM215.024 84.0018V82.9268H207.764V93.2348H215.01V92.1598H208.928V88.5078H214.273V87.4778H208.928V84.0018H215.024ZM224.258 93.2348H225.613L222.845 89.1268C224.523 88.8168 225.422 87.4478 225.422 86.0638C225.422 84.5618 224.273 82.9268 222.152 82.9268H217.381V93.2348H218.545V89.1848H221.563L224.258 93.2348ZM218.545 83.9868H222.123C223.463 83.9868 224.288 84.9888 224.288 86.0638C224.288 87.1538 223.478 88.1398 222.108 88.1398H218.545V83.9868ZM235.682 82.9268H226.891V84.0018H230.705V93.2348H231.883V84.0018H235.682V82.9268ZM237.449 93.2348H238.627V82.9268H237.449V93.2348ZM248.427 84.0018V82.9268H241.285V93.2348H242.463V88.6548H247.676V87.6098H242.463V84.0018H248.427ZM250.254 93.2348H251.432V82.9268H250.254V93.2348ZM261.35 84.0018V82.9268H254.09V93.2348H261.335V92.1598H255.253V88.5078H260.599V87.4778H255.253V84.0018H261.35ZM267.624 82.9268H263.707V93.2348H267.624C270.819 93.2348 272.69 91.0408 272.69 88.0808C272.69 85.1208 270.819 82.9268 267.624 82.9268ZM267.609 92.1598H264.87V83.9868H267.609C270.127 83.9868 271.512 85.7838 271.512 88.0518C271.512 90.3928 270.127 92.1598 267.609 92.1598ZM203.282 113.235H205.388L201.427 102.927H198.805L194.859 113.235H196.95L197.804 110.997H202.443L203.282 113.235ZM198.467 109.215L200.116 104.856L201.765 109.215H198.467ZM210.65 113.442C213.124 113.442 214.773 112.013 214.773 110.246C214.773 108.567 213.58 107.905 212.004 107.419L209.442 106.594C208.765 106.388 208.455 106.078 208.455 105.622C208.455 105.018 209.103 104.503 210.119 104.503C211.283 104.503 212.24 105.077 212.667 105.917L214.537 105.372C213.978 103.943 212.328 102.721 210.105 102.721C207.955 102.721 206.394 104.076 206.409 105.681C206.394 107.006 207.38 107.875 208.735 108.302L211.371 109.127C212.358 109.451 212.726 109.819 212.726 110.364C212.726 111.041 211.975 111.66 210.767 111.66C209.28 111.66 208.235 110.806 207.822 109.731L205.893 110.32C206.467 111.925 208.131 113.442 210.65 113.442ZM220.741 113.442C223.215 113.442 224.864 112.013 224.864 110.246C224.864 108.567 223.671 107.905 222.096 107.419L219.533 106.594C218.856 106.388 218.547 106.078 218.547 105.622C218.547 105.018 219.195 104.503 220.211 104.503C221.374 104.503 222.331 105.077 222.758 105.917L224.629 105.372C224.069 103.943 222.42 102.721 220.196 102.721C218.046 102.721 216.485 104.076 216.5 105.681C216.485 107.006 217.472 107.875 218.827 108.302L221.463 109.127C222.449 109.451 222.817 109.819 222.817 110.364C222.817 111.041 222.066 111.66 220.859 111.66C219.371 111.66 218.326 110.806 217.914 109.731L215.984 110.32C216.559 111.925 218.223 113.442 220.741 113.442ZM231.598 113.442C234.706 113.442 237.003 111.115 237.003 108.067C237.003 105.033 234.706 102.721 231.598 102.721C228.477 102.721 226.179 105.033 226.179 108.067C226.179 111.115 228.477 113.442 231.598 113.442ZM231.598 111.571C229.552 111.571 228.226 110.04 228.226 108.067C228.226 106.137 229.552 104.591 231.598 104.591C233.631 104.591 234.971 106.137 234.971 108.067C234.971 110.04 233.631 111.571 231.598 111.571ZM243.919 113.442C246.643 113.442 248.381 111.777 248.852 110.128L246.893 109.627C246.555 110.644 245.45 111.542 243.889 111.542C241.857 111.542 240.561 109.907 240.561 108.052C240.561 106.196 241.857 104.621 243.889 104.621C245.45 104.621 246.555 105.548 246.893 106.55L248.867 106.064C248.396 104.429 246.658 102.721 243.875 102.721C240.812 102.721 238.5 105.033 238.5 108.067C238.5 111.115 240.812 113.442 243.919 113.442ZM250.715 113.235H252.762V102.927H250.715V113.235ZM262.637 113.235H264.742L260.781 102.927H258.16L254.213 113.235H256.304L257.158 110.997H261.797L262.637 113.235ZM257.821 109.215L259.47 104.856L261.12 109.215H257.821ZM273.132 102.927H264.193V104.753H267.654V113.235H269.671V104.753H273.132V102.927ZM282.346 104.753V102.927H274.748V113.235H282.332V111.409H276.721V108.876H281.595V107.109H276.721V104.753H282.346Z" fill="white"/>
<path fill-rule="evenodd" clip-rule="evenodd" d="M346.285 60V25.994C346.285 21.957 346.285 19.939 345.625 18.347C345.189 17.296 344.551 16.341 343.747 15.5366C342.943 14.7322 341.988 14.0942 340.937 13.659C339.345 13 337.327 13 333.291 13H187.763C183.727 13 181.709 13 180.117 13.66C179.066 14.0951 178.111 14.733 177.306 15.5372C176.502 16.3414 175.864 17.2962 175.429 18.347C174.77 19.939 174.77 21.957 174.77 25.994V60H346.285Z" fill="#7B42BC"/>
<mask id="mask0_501_1889" style="mask-type:luminance" maskUnits="userSpaceOnUse" x="194" y="22" width="112" height="32">
<path d="M194.801 22.2598H305.719V53.4448H194.801V22.2598Z" fill="white"/>
</mask>
<g mask="url(#mask0_501_1889)">
<path d="M229.692 33.0548H225.706V30.6738H236.379V33.0548H232.393V44.9618H229.692V33.0548Z" fill="white"/>
<path d="M239.2 43.0225C240.282 43.0175 241.356 42.8517 242.389 42.5305L242.797 44.5005C241.563 44.9459 240.26 45.1713 238.948 45.1665C235.67 45.1665 234.533 43.6435 234.533 41.1345V38.3695C234.533 36.1615 235.518 34.2975 238.863 34.2975C242.208 34.2975 242.96 36.2465 242.96 38.4975V40.7295H237.176V41.2645C237.176 42.5295 237.612 43.0225 239.2 43.0225ZM237.176 38.6285H240.5V38.1115C240.5 37.1265 240.199 36.4415 238.913 36.4415C237.626 36.4415 237.176 37.1265 237.176 38.1115V38.6285ZM249.962 36.6975C249.001 37.1315 248.075 37.6415 247.194 38.2215V44.9615H244.579V34.5115H246.787L246.96 35.6695C247.81 35.093 248.732 34.632 249.703 34.2985L249.962 36.6975ZM256.348 36.6975C255.389 37.1327 254.464 37.6422 253.584 38.2215V44.9615H250.968V34.5115H253.176L253.346 35.6695C254.197 35.093 255.12 34.632 256.092 34.2985L256.348 36.6975ZM265.094 44.9615H262.95L262.758 44.2525C261.833 44.8525 260.753 45.1725 259.65 45.1735C257.74 45.1735 256.925 43.8665 256.925 42.0665C256.925 39.9395 257.85 39.1285 259.969 39.1285H262.478V38.0265C262.478 36.8715 262.159 36.4635 260.487 36.4635C259.513 36.4735 258.544 36.5805 257.592 36.7825L257.269 34.7905C258.435 34.4679 259.639 34.3024 260.848 34.2985C264.13 34.2985 265.101 35.4535 265.101 38.0685L265.094 44.9615ZM262.478 41.0065H260.565C259.707 41.0065 259.47 41.2445 259.47 42.0375C259.47 42.7465 259.707 43.1005 260.533 43.1005C261.224 43.0894 261.901 42.9055 262.503 42.5655L262.478 41.0065ZM273.134 32.1335C272.641 32.025 272.137 31.9667 271.632 31.9595C270.604 31.9595 270.455 32.4095 270.455 33.2035V34.5105H273.113L272.968 36.5905H270.462V44.9605H267.847V36.5905H266.174V34.5105H267.847V33.0545C267.847 30.8895 268.853 29.8155 271.167 29.8155C271.928 29.8126 272.685 29.9138 273.418 30.1165L273.134 32.1335ZM278.233 45.1665C274.654 45.1665 273.676 43.1895 273.676 41.0635V38.4135C273.676 36.2865 274.64 34.2985 278.219 34.2985C281.798 34.2985 282.766 36.2685 282.766 38.4125V41.0625C282.78 43.1895 281.827 45.1665 278.233 45.1665ZM278.233 36.5265C276.841 36.5265 276.306 37.1475 276.306 38.3275V41.1345C276.306 42.3145 276.841 42.9375 278.233 42.9375C279.626 42.9375 280.165 42.3145 280.165 41.1345V38.3275C280.165 37.1655 279.63 36.5265 278.233 36.5265ZM289.51 36.6975C288.551 37.1327 287.626 37.6422 286.746 38.2215V44.9615H284.13V34.5115H286.338L286.508 35.6695C287.364 35.0925 288.292 34.6315 289.269 34.2985L289.51 36.6975ZM296.71 44.9615V37.6615C296.71 37.1045 296.473 36.8245 295.874 36.8245C295.275 36.8245 294.102 37.2115 293.152 37.7075V44.9615H290.534V34.5115H292.529L292.787 35.3895C294.089 34.7398 295.513 34.3683 296.966 34.2985C297.975 34.2985 298.596 34.7055 298.939 35.4115C300.245 34.7451 301.678 34.3656 303.142 34.2985C304.879 34.2985 305.499 35.5175 305.499 37.3845V44.9615H302.883V37.6615C302.883 37.1045 302.646 36.8245 302.047 36.8245C301.088 36.9245 300.161 37.2255 299.326 37.7075V44.9615H296.71Z" fill="white"/>
<path fill-rule="evenodd" clip-rule="evenodd" d="M202.313 28.1257L209.082 32.0347V39.8517L202.313 35.9427V28.1257ZM209.823 32.0347V39.8517L216.595 35.9427V28.1257L209.823 32.0347ZM194.801 23.7637V31.5807L201.569 35.4897V27.6717L194.801 23.7637ZM202.313 44.6177L209.082 48.5267V40.7087L202.313 36.8007V44.6177Z" fill="white"/>
</g>
<g opacity="0.95">
<path d="M257.989 181.606L248.08 187.321V201.052L251.802 203.201V189.47L257.989 185.9V181.606Z" fill="white"/>
<path d="M261.944 181.606V192.54H257.988V188.46L254.264 190.609V204.619L257.988 206.772V195.869H261.944V199.922L265.666 197.773V183.755L261.944 181.606Z" fill="white"/>
<path d="M261.944 206.776L271.853 201.061V187.33L268.129 185.181V198.912L261.944 202.482V206.776Z" fill="white"/>
</g>
<path d="M106 304.987L186.5 256V525.113L106 574.1V304.987Z" fill="url(#paint4_linear_501_1889)" fill-opacity="0.6"/>
<path d="M106.5 304.987L26 256V543.013L106.5 592V304.987Z" fill="url(#paint5_linear_501_1889)" fill-opacity="0.6"/>
<mask id="mask1_501_1889" style="mask-type:luminance" maskUnits="userSpaceOnUse" x="26" y="92" width="162" height="231">
<path d="M26 92.9971H187.563V323H26V92.9971Z" fill="white"/>
</mask>
<g mask="url(#mask1_501_1889)">
<g filter="url(#filter0_d_501_1889)">
<path d="M184.381 120.894V252.013C184.381 254.903 184.358 255.821 184.146 256.613C183.832 257.783 183.216 258.851 182.359 259.708C181.779 260.288 180.995 260.767 178.492 262.211L112.712 300.184C110.211 301.629 109.404 302.068 108.612 302.28C107.441 302.594 106.209 302.594 105.039 302.28C104.247 302.068 103.44 301.629 100.939 300.184L35.1588 262.211C32.6558 260.767 31.8718 260.288 31.2918 259.708C30.4347 258.851 29.8184 257.783 29.5048 256.613C29.2928 255.821 29.2698 254.903 29.2698 252.013V120.894C29.2698 118.964 29.2718 117.658 29.3398 116.644C29.4078 115.657 29.5298 115.156 29.6718 114.814C29.937 114.173 30.3258 113.591 30.8161 113.101C31.3063 112.611 31.8883 112.222 32.5288 111.957C32.8708 111.815 33.3708 111.693 34.3588 111.626C35.3728 111.557 36.6788 111.555 38.6088 111.555H175.042C176.972 111.555 178.278 111.557 179.292 111.626C180.279 111.693 180.78 111.815 181.122 111.957C181.762 112.222 182.344 112.611 182.835 113.101C183.325 113.591 183.714 114.173 183.979 114.814C184.121 115.156 184.243 115.657 184.31 116.644C184.379 117.658 184.381 118.964 184.381 120.894Z" fill="black"/>
<path d="M184.146 256.613C184.358 255.821 184.381 254.903 184.381 252.013V120.894C184.381 118.964 184.379 117.658 184.31 116.644C184.243 115.657 184.121 115.156 183.979 114.814C183.714 114.173 183.325 113.591 182.835 113.101C182.344 112.611 181.762 112.222 181.122 111.957C180.78 111.815 180.279 111.693 179.292 111.626C178.278 111.557 176.972 111.555 175.042 111.555H38.6088C36.6788 111.555 35.3728 111.557 34.3588 111.626C33.3708 111.693 32.8708 111.815 32.5288 111.957C31.8883 112.222 31.3063 112.611 30.8161 113.101C30.3258 113.591 29.937 114.173 29.6718 114.814C29.5298 115.156 29.4078 115.657 29.3398 116.644C29.2718 117.658 29.2698 118.964 29.2698 120.894V252.013C29.2698 254.903 29.2928 255.821 29.5048 256.613M184.146 256.613L186.891 257.349M184.146 256.613C183.832 257.783 183.216 258.851 182.359 259.708C181.779 260.288 180.995 260.767 178.492 262.211L112.712 300.184C110.211 301.629 109.404 302.068 108.612 302.28C107.441 302.594 106.209 302.594 105.039 302.28C104.247 302.068 103.44 301.629 100.939 300.184L35.1588 262.211C32.6558 260.767 31.8718 260.288 31.2918 259.708C30.4347 258.851 29.8184 257.783 29.5048 256.613M29.5048 256.613L26.7598 257.349" stroke="black" stroke-width="5.685"/>
<g opacity="0.94">
<path d="M41.4648 218.747H42.2548V215.609H45.8108V218.747H46.6008V211.925H45.8108V214.927H42.2538V211.925H41.4648V218.747ZM51.0458 218.806C52.6248 218.806 53.7058 217.792 53.9308 216.486H53.1118C52.9268 217.324 52.1378 218.045 51.0558 218.045C49.7208 218.045 48.7958 216.944 48.7958 215.385C48.7958 213.767 49.7308 212.608 51.0948 212.608C52.1468 212.608 52.9168 213.319 53.1118 214.167H53.9308C53.7258 212.861 52.6438 211.867 51.1048 211.867C49.2728 211.867 47.9568 213.3 47.9568 215.375C47.9568 217.392 49.2818 218.806 51.0468 218.806H51.0458ZM57.0968 218.747H57.9838L60.4788 211.925H59.6988L57.5548 217.87L55.3718 211.925H54.6018L57.0968 218.747ZM61.2868 218.747L61.9688 216.905H64.9018L65.6038 218.747H66.4608L63.8398 211.925H63.0298L60.4288 218.737L61.2868 218.747ZM62.2118 216.174L63.4398 212.812L64.6678 216.174H62.2118ZM69.8188 218.845C71.3888 218.845 72.3918 217.461 72.3918 215.375C72.3918 213.28 71.3978 211.886 69.8388 211.886C68.2788 211.886 67.2758 213.28 67.2758 215.375C67.2758 217.461 68.2698 218.845 69.8188 218.845ZM69.8388 218.153C68.7188 218.153 68.0258 217.061 68.0258 215.346C68.0258 213.67 68.7088 212.578 69.8098 212.578C70.9398 212.578 71.6418 213.689 71.6418 215.385C71.6418 217.061 70.9498 218.153 69.8388 218.153ZM73.8138 215.872H77.2238V215.307H73.8138V215.872Z" fill="#FFE959"/>
<path d="M81.192 218.825C82.82 218.825 83.912 217.373 83.912 215.336C83.912 213.3 82.83 211.838 81.212 211.838C79.584 211.838 78.502 213.3 78.502 215.356C78.502 217.383 79.575 218.825 81.192 218.825ZM81.222 217.899C80.208 217.899 79.584 216.847 79.584 215.288C79.584 213.777 80.179 212.773 81.182 212.773C82.196 212.773 82.839 213.855 82.839 215.375C82.839 216.857 82.216 217.899 81.222 217.899ZM87.34 218.825C88.968 218.825 90.059 217.373 90.059 215.336C90.059 213.3 88.977 211.838 87.359 211.838C85.732 211.838 84.65 213.3 84.65 215.356C84.65 217.383 85.722 218.825 87.34 218.825ZM87.37 217.899C86.356 217.899 85.732 216.847 85.732 215.288C85.732 213.777 86.327 212.773 87.33 212.773C88.344 212.773 88.987 213.855 88.987 215.375C88.987 216.857 88.364 217.899 87.37 217.899ZM90.76 218.747H95.427V217.753H92.25L93.264 216.857C94.394 215.853 95.379 215.151 95.379 213.943C95.379 212.734 94.414 211.838 93.108 211.838C91.714 211.838 90.74 212.734 90.681 214.069H91.802C91.89 213.319 92.396 212.832 93.098 212.832C93.819 212.832 94.297 213.29 94.297 213.991C94.297 214.791 93.547 215.307 92.309 216.369L90.759 217.704L90.76 218.747Z" fill="white"/>
</g>
<path d="M170.553 172.042L172.157 175.519L175.959 175.97L173.148 178.57L173.894 182.326L170.553 180.455L167.211 182.326L167.958 178.57L165.146 175.97L168.949 175.519L170.553 172.042Z" fill="white"/>
<path d="M170.554 187.632L172.158 191.109L175.96 191.56L173.149 194.16L173.895 197.916L170.554 196.045L167.212 197.916L167.959 194.16L165.147 191.56L168.95 191.109L170.554 187.632ZM170.554 203.223L172.158 206.7L175.96 207.151L173.149 209.751L173.895 213.506L170.554 211.636L167.212 213.506L167.959 209.751L165.147 207.151L168.95 206.7L170.554 203.223Z" fill="black"/>
<path opacity="0.95" d="M46.2099 183.321C48.4599 183.321 50.1159 182.037 50.7099 180.422L49.6599 180.146C49.1779 181.361 47.9209 182.286 46.1959 182.286C43.8489 182.286 42.3019 180.449 42.3019 178.268C42.3019 176.142 43.8489 174.334 46.1959 174.334C47.9209 174.334 49.1909 175.272 49.6609 176.473L50.7379 176.211C50.1579 174.596 48.4739 173.298 46.1959 173.298C43.3519 173.298 41.1979 175.466 41.1979 178.282C41.1979 181.14 43.3529 183.321 46.2099 183.321ZM59.5788 174.485V173.478H52.7729V183.142H59.5648V182.134H53.8629V178.71H58.8749V177.744H53.8629V174.485H59.5788ZM68.2359 183.142H69.5059L66.9099 179.29C68.4839 179 69.3259 177.716 69.3259 176.418C69.3259 175.01 68.2489 173.478 66.2609 173.478H61.7878V183.142H62.8778V179.345H65.7089L68.2359 183.142ZM62.8789 174.472H66.2339C67.4899 174.472 68.2639 175.41 68.2639 176.418C68.2639 177.44 67.5039 178.365 66.2199 178.365H62.8789V174.472ZM78.9459 173.478H70.7038V174.485H74.2789V183.142H75.3839V174.485H78.9459V173.478ZM80.6019 183.142H81.7059V173.478H80.6019V183.142ZM90.8928 174.485V173.478H84.1978V183.142H85.3019V178.848H90.1889V177.868H85.3019V174.485H90.8928ZM92.6069 183.142H93.7108V173.478H92.6069V183.142ZM103.009 174.485V173.478H96.2029V183.142H102.995V182.134H97.2929V178.71H102.305V177.744H97.2929V174.485H103.009ZM108.891 173.478H105.218V183.142H108.891C111.887 183.142 113.64 181.085 113.64 178.31C113.64 175.535 111.887 173.478 108.89 173.478H108.891ZM108.877 182.134H106.309V174.472H108.877C111.237 174.472 112.535 176.156 112.535 178.282C112.535 180.477 111.238 182.134 108.877 182.134ZM48.5699 201.142H50.5439L46.8309 191.478H44.3729L40.6729 201.142H42.6329L43.4349 199.043H47.7829L48.5699 201.142ZM44.0559 197.373L45.6019 193.286L47.1479 197.373H44.0559ZM55.4769 201.335C57.7969 201.335 59.3428 199.996 59.3428 198.339C59.3428 196.765 58.2249 196.144 56.7469 195.688L54.3449 194.915C53.7099 194.722 53.4198 194.432 53.4198 194.004C53.4198 193.438 54.0279 192.955 54.9799 192.955C56.0709 192.955 56.9679 193.493 57.3689 194.28L59.1219 193.769C58.5969 192.43 57.0519 191.284 54.9669 191.284C52.9509 191.284 51.4869 192.554 51.5009 194.059C51.4869 195.302 52.4128 196.116 53.6828 196.517L56.1529 197.29C57.0789 197.594 57.4239 197.939 57.4239 198.449C57.4239 199.085 56.7199 199.664 55.5879 199.664C54.1929 199.664 53.2129 198.864 52.8269 197.856L51.0179 198.408C51.5569 199.913 53.1159 201.335 55.4769 201.335ZM64.9379 201.335C67.2579 201.335 68.8039 199.996 68.8039 198.339C68.8039 196.765 67.6849 196.144 66.2079 195.688L63.8059 194.915C63.1709 194.722 62.8809 194.432 62.8809 194.004C62.8809 193.438 63.4879 192.955 64.4409 192.955C65.5309 192.955 66.4288 193.493 66.8288 194.28L68.5829 193.769C68.0579 192.43 66.5118 191.284 64.4268 191.284C62.4118 191.284 60.9479 192.554 60.9619 194.059C60.9479 195.302 61.8729 196.116 63.1429 196.517L65.6138 197.29C66.5388 197.594 66.8839 197.939 66.8839 198.449C66.8839 199.085 66.1809 199.664 65.0479 199.664C63.6539 199.664 62.6738 198.864 62.2878 197.856L60.4779 198.408C61.0179 199.913 62.5779 201.335 64.9379 201.335ZM75.1169 201.335C78.0299 201.335 80.1838 199.154 80.1838 196.296C80.1838 193.452 78.0299 191.284 75.1169 191.284C72.1899 191.284 70.0368 193.452 70.0368 196.296C70.0368 199.154 72.1899 201.335 75.1169 201.335ZM75.1169 199.582C73.1969 199.582 71.9549 198.146 71.9549 196.296C71.9549 194.487 73.1979 193.038 75.1169 193.038C77.0219 193.038 78.2779 194.487 78.2779 196.296C78.2779 198.146 77.0219 199.582 75.1169 199.582ZM86.6669 201.335C89.2209 201.335 90.8499 199.775 91.2919 198.229L89.4559 197.759C89.1379 198.712 88.1029 199.554 86.6399 199.554C84.7339 199.554 83.5199 198.022 83.5199 196.282C83.5199 194.542 84.7339 193.065 86.6399 193.065C88.1029 193.065 89.1379 193.935 89.4559 194.874L91.3059 194.418C90.8639 192.886 89.2359 191.284 86.6259 191.284C83.7539 191.284 81.5858 193.452 81.5858 196.296C81.5858 199.154 83.7539 201.335 86.6669 201.335ZM93.0389 201.142H94.9579V191.478H93.0379L93.0389 201.142ZM104.215 201.142H106.189L102.476 191.478H100.018L96.3179 201.142H98.2779L99.0789 199.043H103.429L104.215 201.142ZM99.7008 197.373L101.247 193.286L102.793 197.373H99.7008ZM114.055 191.478H105.675V193.19H108.919V201.142H110.81V193.19H114.055V191.478ZM122.693 193.19V191.478H115.569V201.142H122.679V199.43H117.419V197.055H121.989V195.398H117.419V193.19H122.693Z" fill="white"/>
<path fill-rule="evenodd" clip-rule="evenodd" d="M26 152H186.795V120.04C186.795 116.256 186.795 114.364 186.177 112.872C185.769 111.887 185.171 110.991 184.417 110.237C183.663 109.483 182.767 108.885 181.782 108.477C180.29 107.858 178.398 107.858 174.614 107.858H38.181C34.398 107.858 32.506 107.858 31.013 108.477C30.0277 108.885 29.1324 109.483 28.3783 110.237C27.6242 110.991 27.0261 111.887 26.618 112.872C26 114.364 26 116.256 26 120.04V152Z" fill="#FFE959"/>
<mask id="mask2_501_1889" style="mask-type:luminance" maskUnits="userSpaceOnUse" x="40" y="116" width="74" height="32">
<path d="M40.6172 116.604H113.558V147.464H40.6172V116.604Z" fill="white"/>
</mask>
<g mask="url(#mask2_501_1889)">
<path d="M80.9072 124.911H83.6842L79.4762 139.036H75.5062L71.2982 124.911H74.0762L77.4912 136.683L80.9072 124.911ZM91.3922 139.047H89.2882L89.0952 138.346C88.1797 138.94 87.1117 139.256 86.0202 139.257C84.1332 139.257 83.3272 137.963 83.3272 136.182C83.3272 134.078 84.2382 133.275 86.3392 133.275H88.8222V132.195C88.8222 131.048 88.5022 130.645 86.8472 130.645C85.8852 130.654 84.9272 130.761 83.9862 130.964L83.6662 128.989C84.8205 128.671 86.0119 128.507 87.2092 128.502C90.4522 128.502 91.4172 129.649 91.4172 132.237L91.3922 139.047ZM88.8082 135.144H86.8972C86.0472 135.144 85.8172 135.379 85.8172 136.164C85.8172 136.883 86.0472 137.216 86.8692 137.216C87.5541 137.205 88.2253 137.023 88.8222 136.687L88.8082 135.144ZM95.4672 128.709V135.919C95.4672 136.47 95.6992 136.747 96.2952 136.747C96.8912 136.747 98.0482 136.365 98.9882 135.877V128.709H101.576V139.047H99.6022L99.3492 138.178C98.0606 138.824 96.651 139.193 95.2112 139.261C93.4932 139.261 92.8792 138.052 92.8792 136.207V128.72L95.4672 128.709ZM102.954 139.047V124.497L105.542 124.146V139.047H102.954ZM113.26 138.847C112.531 139.102 111.765 139.238 110.992 139.25C109.105 139.25 108.148 138.359 108.148 136.515V130.764H106.6V128.709H108.147V126.142L110.735 125.791V128.719H113.385L113.217 130.774H110.735V136.185C110.719 136.31 110.732 136.438 110.773 136.557C110.815 136.676 110.884 136.785 110.974 136.873C111.064 136.961 111.174 137.028 111.294 137.067C111.415 137.106 111.542 137.116 111.667 137.097C112.106 137.084 112.541 137.012 112.961 136.883L113.259 138.847H113.26ZM40.6172 121.092L51.8002 142.855L63.0602 121.092H40.6172ZM50.0472 129.733H48.2942V127.952H50.0472V129.733ZM50.0472 127.061H48.2942V125.279H50.0472V127.061ZM52.7192 132.405H50.9492V130.631H52.7292L52.7192 132.405ZM52.7192 129.733H50.9492V127.952H52.7292L52.7192 129.733ZM52.7192 127.061H50.9492V125.279H52.7292L52.7192 127.061ZM55.3772 129.733H53.6072V127.952H55.3872L55.3772 129.733ZM53.5962 127.061V125.279H55.3772V127.061H53.5962Z" fill="black"/>
</g>
<g opacity="0.95">
<path d="M104.543 265.988L95.2529 271.346V284.219L98.7429 286.233V273.361L104.543 270.013V265.988Z" fill="white"/>
<path d="M108.252 265.988V276.239H104.544V272.414L101.052 274.429V287.562L104.544 289.581V279.359H108.252V283.159L111.742 281.144V268.003L108.252 265.988Z" fill="white"/>
<path d="M108.252 289.585L117.542 284.227V271.354L114.05 269.339V282.212L108.252 285.56V289.585Z" fill="white"/>
</g>
</g>
</g>
<mask id="mask3_501_1889" style="mask-type:luminance" maskUnits="userSpaceOnUse" x="311" y="150" width="162" height="200">
<path d="M311.137 150.86H472.7V349.141H311.137V150.86Z" fill="white"/>
</mask>
<g mask="url(#mask3_501_1889)">
<path d="M469.516 162.896V294.015C469.516 296.905 469.493 297.823 469.281 298.615C468.968 299.785 468.352 300.853 467.494 301.71C466.915 302.29 466.131 302.769 463.628 304.213L397.848 342.186C395.346 343.631 394.539 344.07 393.748 344.282C392.578 344.596 391.346 344.596 390.175 344.282C389.383 344.07 388.576 343.631 386.074 342.186L320.294 304.213C317.792 302.769 317.008 302.29 316.428 301.71C315.572 300.853 314.955 299.785 314.641 298.615C314.429 297.823 314.406 296.905 314.406 294.015V162.896C314.406 160.965 314.407 159.66 314.476 158.646C314.544 157.659 314.666 157.158 314.808 156.816C315.073 156.175 315.462 155.593 315.952 155.103C316.442 154.613 317.024 154.224 317.664 153.959C318.007 153.817 318.507 153.695 319.495 153.628C320.508 153.559 321.814 153.557 323.745 153.557H460.177C462.108 153.557 463.414 153.559 464.427 153.628C465.415 153.695 465.916 153.817 466.258 153.959C467.552 154.495 468.58 155.522 469.115 156.816C469.256 157.158 469.378 157.659 469.446 158.646C469.515 159.66 469.516 160.965 469.516 162.896Z" fill="black"/>
<path d="M469.281 298.615C469.493 297.823 469.516 296.905 469.516 294.015V162.896C469.516 160.965 469.515 159.66 469.446 158.646C469.378 157.659 469.256 157.158 469.115 156.816C468.58 155.522 467.552 154.495 466.258 153.959C465.916 153.817 465.415 153.695 464.427 153.628C463.414 153.559 462.108 153.557 460.177 153.557H323.745C321.814 153.557 320.508 153.559 319.495 153.628C318.507 153.695 318.007 153.817 317.664 153.959C317.024 154.224 316.442 154.613 315.952 155.103C315.462 155.593 315.073 156.175 314.808 156.816C314.666 157.158 314.544 157.659 314.476 158.646C314.407 159.66 314.406 160.965 314.406 162.896V294.015C314.406 296.905 314.429 297.823 314.641 298.615M469.281 298.615L472.027 299.351M469.281 298.615C468.968 299.785 468.352 300.853 467.494 301.71C466.915 302.29 466.131 302.769 463.628 304.213L397.848 342.186C395.346 343.631 394.539 344.07 393.748 344.282C392.578 344.596 391.346 344.596 390.175 344.282C389.383 344.07 388.576 343.631 386.074 342.186L320.294 304.213C317.792 302.769 317.008 302.29 316.428 301.71C315.572 300.853 314.955 299.785 314.641 298.615M314.641 298.615L311.896 299.351" stroke="black" stroke-width="5.685"/>
<g opacity="0.94">
<path d="M331.603 260.749H332.392V257.611H335.949V260.749H336.738V253.927H335.949V256.929H332.392V253.927H331.603V260.749ZM341.184 260.807C342.763 260.807 343.844 259.794 344.068 258.488H343.25C343.065 259.326 342.275 260.047 341.194 260.047C339.859 260.047 338.933 258.946 338.933 257.387C338.933 255.769 339.868 254.61 341.233 254.61C342.285 254.61 343.055 255.321 343.25 256.169H344.068C343.864 254.863 342.782 253.869 341.242 253.869C339.41 253.869 338.095 255.301 338.095 257.377C338.095 259.394 339.42 260.807 341.184 260.807ZM348.122 260.807C349.7 260.807 350.782 259.794 351.006 258.488H350.188C350.002 259.326 349.213 260.047 348.131 260.047C346.796 260.047 345.87 258.946 345.87 257.387C345.87 255.769 346.806 254.61 348.17 254.61C349.223 254.61 349.993 255.321 350.188 256.169H351.006C350.802 254.863 349.72 253.869 348.18 253.869C346.348 253.869 345.032 255.301 345.032 257.377C345.032 259.394 346.358 260.807 348.122 260.807ZM352.442 260.749L353.125 258.907H356.058L356.76 260.749H357.617L354.996 253.927H354.187L351.585 260.739L352.442 260.749ZM353.368 258.176L354.596 254.814L355.824 258.176H353.368ZM360.976 260.846C362.544 260.846 363.548 259.463 363.548 257.377C363.548 255.282 362.554 253.888 360.995 253.888C359.436 253.888 358.432 255.282 358.432 257.377C358.432 259.463 359.426 260.846 360.976 260.846ZM360.995 260.155C359.874 260.155 359.182 259.063 359.182 257.348C359.182 255.672 359.865 254.58 360.966 254.58C362.096 254.58 362.798 255.691 362.798 257.387C362.798 259.063 362.106 260.155 360.995 260.155ZM364.97 257.874H368.381V257.309H364.97V257.874Z" fill="#F85C94"/>
<path d="M372.347 260.827C373.975 260.827 375.066 259.375 375.066 257.338C375.066 255.301 373.984 253.84 372.367 253.84C370.739 253.84 369.658 255.301 369.658 257.358C369.658 259.385 370.73 260.827 372.347 260.827ZM372.377 259.901C371.363 259.901 370.739 258.849 370.739 257.289C370.739 255.779 371.334 254.775 372.338 254.775C373.351 254.775 373.994 255.857 373.994 257.377C373.994 258.858 373.371 259.901 372.377 259.901ZM378.495 260.827C380.123 260.827 381.214 259.375 381.214 257.338C381.214 255.301 380.132 253.84 378.515 253.84C376.887 253.84 375.805 255.301 375.805 257.358C375.805 259.385 376.877 260.827 378.495 260.827ZM378.524 259.901C377.511 259.901 376.887 258.849 376.887 257.289C376.887 255.779 377.482 254.775 378.485 254.775C379.499 254.775 380.142 255.857 380.142 257.377C380.142 258.858 379.518 259.901 378.524 259.901ZM381.914 260.749H386.582V259.755H383.405L384.419 258.858C385.549 257.855 386.534 257.153 386.534 255.945C386.534 254.736 385.569 253.84 384.263 253.84C382.869 253.84 381.895 254.736 381.836 256.071H382.957C383.045 255.321 383.551 254.834 384.253 254.834C384.974 254.834 385.452 255.292 385.452 255.993C385.452 256.792 384.701 257.309 383.464 258.371L381.914 259.706V260.749Z" fill="white"/>
</g>
<path d="M455.69 214.044L457.293 217.521L461.096 217.972L458.285 220.572L459.031 224.328L455.69 222.457L452.348 224.328L453.094 220.572L450.283 217.972L454.086 217.521L455.69 214.044Z" fill="white"/>
<path d="M455.69 229.635L457.293 233.112L461.096 233.563L458.285 236.163L459.031 239.918L455.69 238.048L452.348 239.918L453.094 236.163L450.283 233.563L454.086 233.112L455.69 229.635ZM455.689 245.225L457.292 248.702L461.095 249.153L458.284 251.752L459.03 255.508L455.689 253.638L452.347 255.508L453.093 251.752L450.282 249.153L454.085 248.702L455.689 245.225Z" fill="black"/>
<path opacity="0.95" d="M336.345 225.323C338.596 225.323 340.252 224.039 340.846 222.424L339.797 222.148C339.313 223.363 338.057 224.288 336.331 224.288C333.984 224.288 332.438 222.451 332.438 220.27C332.438 218.144 333.984 216.336 336.331 216.336C338.057 216.336 339.327 217.274 339.797 218.475L340.873 218.213C340.294 216.598 338.609 215.3 336.331 215.3C333.487 215.3 331.334 217.468 331.334 220.284C331.334 223.142 333.487 225.323 336.345 225.323ZM349.714 216.487V215.48H342.908V225.144H349.701V224.136H343.999V220.712H349.01V219.746H343.999V216.487H349.714ZM358.371 225.144H359.641L357.046 221.292C358.62 221.002 359.462 219.718 359.462 218.42C359.462 217.012 358.385 215.48 356.397 215.48H351.924V225.144H353.015V221.347H355.845L358.371 225.144ZM353.015 216.474H356.369C357.626 216.474 358.399 217.412 358.399 218.42C358.399 219.442 357.64 220.367 356.356 220.367H353.015V216.474ZM369.081 215.48H360.839V216.487H364.415V225.144H365.52V216.487H369.081V215.48ZM370.737 225.144H371.842V215.48H370.737V225.144ZM381.029 216.487V215.48H374.333V225.144H375.438V220.85H380.325V219.87H375.438V216.487H381.029ZM382.742 225.144H383.847V215.48H382.742V225.144ZM393.145 216.487V215.48H386.338V225.144H393.131V224.136H387.429V220.712H392.441V219.746H387.429V216.487H393.145ZM399.026 215.48H395.354V225.144H399.026C402.022 225.144 403.776 223.087 403.776 220.312C403.776 217.537 402.022 215.48 399.026 215.48ZM399.013 224.136H396.445V216.474H399.013C401.373 216.474 402.671 218.158 402.671 220.284C402.671 222.479 401.373 224.136 399.013 224.136ZM338.706 243.144H340.68L336.966 233.48H334.509L330.809 243.144H332.77L333.57 241.045H337.919L338.706 243.144ZM334.192 239.375L335.738 235.288L337.284 239.375H334.192ZM345.613 243.337C347.932 243.337 349.479 241.998 349.479 240.341C349.479 238.767 348.36 238.146 346.883 237.69L344.481 236.917C343.846 236.724 343.556 236.434 343.556 236.006C343.556 235.44 344.164 234.957 345.116 234.957C346.207 234.957 347.104 235.495 347.504 236.282L349.258 235.771C348.733 234.432 347.187 233.286 345.102 233.286C343.087 233.286 341.623 234.556 341.637 236.061C341.623 237.304 342.548 238.118 343.818 238.519L346.29 239.292C347.215 239.595 347.56 239.941 347.56 240.451C347.56 241.087 346.856 241.666 345.724 241.666C344.329 241.666 343.349 240.866 342.962 239.858L341.154 240.41C341.692 241.915 343.252 243.337 345.613 243.337ZM355.074 243.337C357.393 243.337 358.939 241.998 358.939 240.341C358.939 238.767 357.821 238.146 356.344 237.69L353.942 236.917C353.307 236.724 353.017 236.434 353.017 236.006C353.017 235.44 353.624 234.957 354.577 234.957C355.667 234.957 356.565 235.495 356.965 236.282L358.718 235.771C358.194 234.432 356.648 233.286 354.563 233.286C352.547 233.286 351.084 234.556 351.098 236.061C351.084 237.304 352.009 238.118 353.279 238.519L355.75 239.292C356.675 239.595 357.02 239.941 357.02 240.451C357.02 241.087 356.316 241.666 355.184 241.666C353.79 241.666 352.81 240.866 352.423 239.858L350.615 240.41C351.153 241.915 352.713 243.337 355.074 243.337ZM365.253 243.337C368.166 243.337 370.319 241.156 370.319 238.298C370.319 235.454 368.166 233.286 365.253 233.286C362.326 233.286 360.172 235.454 360.172 238.298C360.172 241.156 362.326 243.337 365.253 243.337ZM365.253 241.584C363.334 241.584 362.091 240.148 362.091 238.298C362.091 236.489 363.334 235.04 365.253 235.04C367.158 235.04 368.414 236.489 368.414 238.298C368.414 240.148 367.158 241.584 365.253 241.584ZM376.803 243.337C379.357 243.337 380.986 241.777 381.428 240.231L379.592 239.761C379.274 240.714 378.239 241.556 376.775 241.556C374.87 241.556 373.655 240.023 373.655 238.284C373.655 236.544 374.87 235.067 376.775 235.067C378.239 235.067 379.274 235.937 379.592 236.876L381.442 236.42C381 234.888 379.371 233.286 376.762 233.286C373.89 233.286 371.723 235.454 371.723 238.298C371.723 241.156 373.89 243.337 376.803 243.337ZM383.174 243.144H385.093V233.48H383.174V243.144ZM394.351 243.144H396.325L392.611 233.48H390.154L386.454 243.144H388.414L389.215 241.045H393.564L394.351 243.144ZM389.836 239.375L391.383 235.288L392.929 239.375H389.836ZM404.19 233.48H395.81V235.191H399.055V243.144H400.946V235.191H404.19V233.48ZM412.829 235.191V233.48H405.705V243.144H412.815V241.432H407.555V239.057H412.125V237.4H407.555V235.191H412.829Z" fill="white"/>
<path fill-rule="evenodd" clip-rule="evenodd" d="M472.494 163.043V196.026H311.699V163.043C311.699 159.259 311.699 157.367 312.317 155.875C312.725 154.889 313.323 153.994 314.077 153.24C314.832 152.486 315.727 151.888 316.712 151.48C318.204 150.861 320.096 150.861 323.88 150.861H460.313C464.097 150.861 465.988 150.861 467.481 151.48C468.467 151.888 469.362 152.486 470.116 153.24C470.87 153.994 471.468 154.889 471.876 155.875C472.494 157.367 472.494 159.259 472.494 163.043ZM389.371 350.587L389.538 350.635C391.27 351.105 393.099 351.089 394.822 350.587H389.371Z" fill="#E03875"/>
<mask id="mask4_501_1889" style="mask-type:luminance" maskUnits="userSpaceOnUse" x="330" y="159" width="84" height="31">
<path d="M330.754 159.606H413.044V189.654H330.754V159.606Z" fill="white"/>
</mask>
<g mask="url(#mask4_501_1889)">
<path d="M360.62 171.472C360.62 168.952 362.088 167.484 365.516 167.484C366.781 167.483 368.043 167.636 369.272 167.938L368.982 170.192C367.871 169.984 366.745 169.869 365.615 169.85C363.816 169.85 363.225 170.468 363.225 171.936V177.215C363.225 178.68 363.802 179.301 365.615 179.301C366.745 179.282 367.871 179.168 368.982 178.96L369.272 181.214C368.043 181.516 366.782 181.668 365.516 181.668C362.102 181.668 360.62 180.199 360.62 177.68V171.472ZM374.834 181.657C371.382 181.657 370.457 179.752 370.457 177.703V175.149C370.457 173.101 371.386 171.182 374.838 171.182C378.29 171.182 379.215 173.084 379.215 175.149V177.703C379.212 179.752 378.283 181.657 374.834 181.657ZM374.834 173.329C373.489 173.329 372.974 173.93 372.974 175.067V177.772C372.974 178.909 373.489 179.506 374.834 179.506C376.18 179.506 376.692 178.909 376.692 177.772V175.067C376.692 173.947 376.176 173.329 374.834 173.329ZM386.877 181.459V174.425C386.877 173.889 386.648 173.62 386.071 173.62C385.494 173.62 384.364 173.992 383.446 174.466V181.459H380.926V171.39H382.848L383.091 172.24C384.345 171.611 385.718 171.252 387.12 171.185C388.793 171.185 389.394 172.363 389.394 174.159V181.459H386.877ZM394.58 181.657C393.401 181.638 392.232 181.442 391.111 181.077L391.453 179.158C392.427 179.436 393.434 179.582 394.447 179.592C395.564 179.592 395.728 179.342 395.728 178.567C395.728 177.949 395.605 177.639 393.973 177.246C391.514 176.648 391.224 176.027 391.224 174.084C391.224 172.059 392.112 171.171 394.98 171.171C395.995 171.169 397.006 171.283 397.995 171.513L397.773 173.538C396.859 173.369 395.933 173.272 395.004 173.247C393.908 173.247 393.723 173.497 393.723 174.115C393.723 174.921 393.785 174.982 395.151 175.334C397.957 176.078 398.224 176.45 398.224 178.516C398.217 180.459 397.619 181.657 394.58 181.657ZM402.389 171.39V178.413C402.389 178.949 402.614 179.219 403.195 179.219C403.775 179.219 404.902 178.847 405.817 178.372V171.39H408.337V181.459H406.418L406.169 180.612C404.914 181.241 403.542 181.601 402.14 181.667C400.467 181.667 399.869 180.489 399.869 178.69V171.39H402.389ZM410.505 181.459V167.279L413.025 166.938V181.459H410.505ZM341.604 185.417C338.94 185.418 336.369 184.439 334.381 182.666C332.393 180.893 331.127 178.451 330.824 175.805C330.624 174.052 330.855 172.276 331.496 170.632C332.137 168.988 333.17 167.525 334.504 166.37C335.839 165.217 337.436 164.406 339.155 164.008C340.874 163.611 342.664 163.638 344.371 164.088C346.077 164.54 347.647 165.401 348.946 166.596L346.381 169.287C345.616 168.596 344.71 168.08 343.726 167.773C342.742 167.467 341.704 167.377 340.682 167.512C339.66 167.646 338.679 168 337.808 168.55C336.936 169.1 336.195 169.832 335.634 170.697C334.689 172.147 334.305 173.891 334.553 175.604C334.8 177.316 335.662 178.88 336.978 180.004C338.294 181.127 339.974 181.734 341.704 181.709C343.434 181.685 345.097 181.032 346.381 179.872L348.946 182.552C346.946 184.397 344.324 185.42 341.604 185.417ZM350.332 179.991C350.201 179.99 350.072 179.96 349.953 179.904C349.835 179.848 349.731 179.766 349.648 179.665C349.564 179.563 349.505 179.445 349.472 179.318C349.44 179.191 349.436 179.059 349.461 178.93C349.486 178.801 349.54 178.68 349.618 178.574C349.696 178.468 349.796 178.382 349.912 178.32C350.028 178.258 350.156 178.222 350.287 178.216C350.419 178.21 350.549 178.233 350.671 178.283C350.833 178.351 350.971 178.465 351.068 178.611C351.166 178.757 351.218 178.929 351.219 179.104C351.219 179.221 351.196 179.336 351.152 179.444C351.108 179.552 351.042 179.65 350.96 179.732C350.877 179.815 350.779 179.88 350.672 179.924C350.564 179.969 350.448 179.991 350.332 179.991Z" fill="white"/>
<path d="M341.536 176.922C340.953 176.921 340.392 176.703 339.96 176.312C339.529 175.92 339.259 175.382 339.202 174.802C339.145 174.222 339.305 173.642 339.652 173.174C339.998 172.705 340.507 172.383 341.078 172.268C341.418 172.201 341.77 172.21 342.106 172.295C342.443 172.379 342.757 172.537 343.025 172.758C343.293 172.978 343.51 173.255 343.658 173.568C343.807 173.882 343.884 174.225 343.885 174.572C343.885 174.881 343.825 175.186 343.707 175.471C343.589 175.757 343.416 176.016 343.198 176.234C342.98 176.452 342.72 176.626 342.435 176.744C342.15 176.862 341.844 176.922 341.536 176.922ZM351.353 176.956C351.221 176.956 351.092 176.927 350.973 176.871C350.854 176.815 350.749 176.734 350.666 176.632C350.582 176.531 350.522 176.412 350.491 176.284C350.459 176.157 350.456 176.024 350.482 175.895C350.528 175.682 350.651 175.492 350.827 175.364C351.003 175.235 351.221 175.176 351.438 175.197C351.655 175.219 351.857 175.319 352.005 175.48C352.153 175.64 352.236 175.85 352.24 176.068C352.239 176.303 352.146 176.529 351.979 176.695C351.813 176.861 351.588 176.955 351.353 176.956ZM348.71 176.853C348.579 176.853 348.449 176.823 348.331 176.767C348.212 176.711 348.107 176.629 348.024 176.528C347.941 176.426 347.881 176.308 347.849 176.181C347.817 176.053 347.814 175.921 347.839 175.792C347.874 175.62 347.959 175.462 348.083 175.338C348.207 175.214 348.365 175.13 348.537 175.095C348.709 175.06 348.888 175.077 349.05 175.144C349.212 175.212 349.351 175.326 349.448 175.472C349.562 175.643 349.614 175.848 349.594 176.052C349.574 176.257 349.483 176.448 349.338 176.593C349.255 176.675 349.157 176.741 349.05 176.785C348.942 176.83 348.826 176.853 348.71 176.853ZM351.353 173.968C351.221 173.968 351.092 173.939 350.973 173.883C350.854 173.827 350.749 173.746 350.666 173.644C350.582 173.543 350.522 173.424 350.491 173.296C350.459 173.169 350.456 173.036 350.482 172.907C350.517 172.735 350.601 172.577 350.725 172.453C350.849 172.329 351.007 172.244 351.179 172.209C351.307 172.184 351.44 172.188 351.567 172.22C351.694 172.252 351.813 172.312 351.914 172.395C352.015 172.478 352.097 172.583 352.153 172.701C352.21 172.819 352.239 172.949 352.24 173.08C352.239 173.315 352.146 173.541 351.98 173.707C351.813 173.874 351.588 173.967 351.353 173.968ZM348.71 174.07C348.579 174.07 348.449 174.04 348.331 173.984C348.212 173.928 348.107 173.846 348.024 173.745C347.941 173.643 347.881 173.525 347.849 173.398C347.817 173.27 347.814 173.138 347.839 173.009C347.874 172.837 347.959 172.679 348.083 172.555C348.207 172.431 348.365 172.347 348.537 172.312C348.709 172.278 348.887 172.296 349.049 172.363C349.211 172.43 349.35 172.544 349.448 172.689C349.538 172.822 349.59 172.978 349.598 173.139C349.606 173.3 349.57 173.46 349.494 173.602C349.418 173.744 349.305 173.862 349.167 173.945C349.029 174.027 348.871 174.071 348.71 174.07ZM350.383 170.981C350.207 170.982 350.035 170.93 349.889 170.832C349.743 170.734 349.629 170.596 349.563 170.433C349.496 170.271 349.479 170.092 349.513 169.92C349.547 169.748 349.631 169.59 349.755 169.465C349.879 169.34 350.037 169.256 350.21 169.222C350.382 169.187 350.561 169.205 350.723 169.273C350.911 169.353 351.067 169.495 351.162 169.676C351.258 169.856 351.289 170.065 351.249 170.266C351.209 170.466 351.101 170.647 350.943 170.777C350.785 170.908 350.587 170.98 350.383 170.981Z" fill="white"/>
</g>
<g opacity="0.95">
<path d="M389.68 307.991L380.391 313.349V326.222L383.88 328.236V315.364L389.68 312.016V307.991Z" fill="white"/>
<path d="M393.388 307.991V318.242H389.679V314.417L386.188 316.431V329.565L389.679 331.584V321.362H393.388V325.162L396.877 323.147V310.005L393.388 307.991Z" fill="white"/>
<path d="M393.389 331.588L402.678 326.23V313.357L399.187 311.342V324.215L393.389 327.563V331.588Z" fill="white"/>
</g>
</g>
</g>
<defs>
<filter id="filter0_d_501_1889" x="12.134" y="100.925" width="189.359" height="225.232" filterUnits="userSpaceOnUse" color-interpolation-filters="sRGB">
<feFlood flood-opacity="0" result="BackgroundImageFix"/>
<feColorMatrix in="SourceAlpha" type="matrix" values="0 0 0 0 0 0 0 0 0 0 0 0 0 0 0 0 0 0 127 0" result="hardAlpha"/>
<feOffset dy="6.933"/>
<feGaussianBlur stdDeviation="6.933"/>
<feColorMatrix type="matrix" values="0 0 0 0 0.170885 0 0 0 0 0.183125 0 0 0 0 0.2125 0 0 0 0.2 0"/>
<feBlend mode="normal" in2="BackgroundImageFix" result="effect1_dropShadow_501_1889"/>
<feBlend mode="normal" in="SourceGraphic" in2="effect1_dropShadow_501_1889" result="shape"/>
</filter>
<linearGradient id="paint0_linear_501_1889" x1="425.059" y1="252.001" x2="463.619" y2="456.579" gradientUnits="userSpaceOnUse">
<stop stop-color="#922479"/>
<stop offset="1" stop-color="#96267A" stop-opacity="0"/>
</linearGradient>
<linearGradient id="paint1_linear_501_1889" x1="382.862" y1="278.674" x2="314.161" y2="427.712" gradientUnits="userSpaceOnUse">
<stop stop-color="#E771A4"/>
<stop offset="1" stop-color="#F81696" stop-opacity="0.01"/>
</linearGradient>
<linearGradient id="paint2_linear_501_1889" x1="299.895" y1="126.818" x2="332.429" y2="334.535" gradientUnits="userSpaceOnUse">
<stop stop-color="#532A7D"/>
<stop offset="1" stop-color="#33197C" stop-opacity="0"/>
</linearGradient>
<linearGradient id="paint3_linear_501_1889" x1="248.884" y1="153.613" x2="188.245" y2="311.917" gradientUnits="userSpaceOnUse">
<stop stop-color="#76A0F3"/>
<stop offset="1" stop-color="#522AC2" stop-opacity="0"/>
</linearGradient>
<linearGradient id="paint4_linear_501_1889" x1="139.278" y1="220.8" x2="153.285" y2="460.748" gradientUnits="userSpaceOnUse">
<stop stop-color="#9B7003"/>
<stop offset="1" stop-color="#DF706F" stop-opacity="0"/>
</linearGradient>
<linearGradient id="paint5_linear_501_1889" x1="97" y1="238.786" x2="33.894" y2="447.008" gradientUnits="userSpaceOnUse">
<stop offset="0.19" stop-color="#FECA13" stop-opacity="0.76"/>
<stop offset="1" stop-color="#E36666" stop-opacity="0"/>
</linearGradient>
<clipPath id="clip0_501_1889">
<rect width="498" height="528" fill="white"/>
</clipPath>
</defs>
</svg>
