<svg width="984" height="414" viewBox="0 0 984 414" fill="none" xmlns="http://www.w3.org/2000/svg">
<g clip-path="url(#clip0_22110_229011)">
<path d="M984 0H-1V414H984V0Z" fill="#E5E5E5"/>
<mask id="mask0_22110_229011" style="mask-type:luminance" maskUnits="userSpaceOnUse" x="-1" y="0" width="985" height="414">
<path d="M984 0H-1V414H984V0Z" fill="white"/>
</mask>
<g mask="url(#mask0_22110_229011)">
<path d="M984 0H0V414H984V0Z" fill="#0C0C0E"/>
<g filter="url(#filter0_f_22110_229011)">
<path d="M515.73 48.1805L481.107 68.0733C475.597 71.2391 475.597 76.3718 481.107 79.5375L515.73 99.4304C521.24 102.596 530.174 102.596 535.684 99.4304L570.308 79.5375C575.818 76.3718 575.818 71.2391 570.308 68.0733L535.684 48.1805C530.174 45.0147 521.24 45.0147 515.73 48.1805Z" fill="#51579B"/>
</g>
<g filter="url(#filter1_f_22110_229011)">
<path d="M452.73 84.0084L418.107 103.901C412.597 107.067 412.597 112.2 418.107 115.365L452.73 135.258C458.24 138.424 467.174 138.424 472.684 135.258L507.308 115.365C512.818 112.2 512.818 107.067 507.308 103.901L472.684 84.0084C467.174 80.8426 458.24 80.8426 452.73 84.0084Z" fill="#51579B"/>
</g>
<g opacity="0.2">
<path d="M113.605 308.673L83.1737 326.157C78.452 328.87 78.452 333.268 83.1737 335.981L113.605 353.465C118.326 356.178 125.982 356.178 130.704 353.465L161.135 335.981C165.856 333.268 165.856 328.87 161.135 326.157L130.704 308.673C125.982 305.96 118.326 305.96 113.605 308.673Z" fill="#1A1B26" stroke="#1A1B26" stroke-width="0.50625"/>
<mask id="mask1_22110_229011" style="mask-type:luminance" maskUnits="userSpaceOnUse" x="93" y="314" width="58" height="34">
<path d="M122.154 314.616L93.5161 331.069L122.154 347.523L150.792 331.069L122.154 314.616Z" fill="white"/>
</mask>
<g mask="url(#mask1_22110_229011)">
<path fill-rule="evenodd" clip-rule="evenodd" d="M111.115 328.493L121.452 326.9L129.021 331.25L118.682 332.841L111.115 328.493Z" fill="#633691"/>
<path fill-rule="evenodd" clip-rule="evenodd" d="M122.17 326.487L129.739 330.836L132.507 324.897L124.94 320.55L122.17 326.487Z" fill="#633691"/>
<path fill-rule="evenodd" clip-rule="evenodd" d="M99.6201 330.243L107.187 334.592L117.524 333.001L109.957 328.653L99.6201 330.243Z" fill="#633691"/>
<path fill-rule="evenodd" clip-rule="evenodd" d="M127.078 337.665L137.416 336.074L129.898 331.755L129.848 331.726L119.511 333.317L127.078 337.665Z" fill="#633691"/>
</g>
<path d="M283.283 275.355L252.852 292.839C248.13 295.552 248.13 299.95 252.852 302.663L283.283 320.147C288.005 322.86 295.66 322.86 300.382 320.147L330.813 302.663C335.535 299.95 335.535 295.552 330.813 292.839L300.382 275.355C295.66 272.642 288.005 272.642 283.283 275.355Z" fill="#1A1B26" stroke="#1A1B26" stroke-width="0.50625"/>
<mask id="mask2_22110_229011" style="mask-type:luminance" maskUnits="userSpaceOnUse" x="263" y="281" width="58" height="34">
<path d="M291.833 281.298L263.195 297.751L291.833 314.205L320.471 297.751L291.833 281.298Z" fill="white"/>
</mask>
<g mask="url(#mask2_22110_229011)">
<path fill-rule="evenodd" clip-rule="evenodd" d="M280.794 295.175L291.131 293.582L298.7 297.93L288.361 299.523L280.794 295.175Z" fill="#633691"/>
<path fill-rule="evenodd" clip-rule="evenodd" d="M291.849 293.169L299.418 297.518L302.187 291.579L294.62 287.23L291.849 293.169Z" fill="#633691"/>
<path fill-rule="evenodd" clip-rule="evenodd" d="M269.299 296.925L276.866 301.272L287.203 299.682L279.636 295.335L269.299 296.925Z" fill="#633691"/>
<path fill-rule="evenodd" clip-rule="evenodd" d="M296.757 304.346L307.095 302.756L299.577 298.437L299.528 298.408L289.19 299.998L296.757 304.346Z" fill="#633691"/>
</g>
<path d="M170.522 275.972L140.091 293.456C135.369 296.168 135.369 300.567 140.091 303.28L170.522 320.764C175.244 323.476 182.899 323.476 187.621 320.764L218.052 303.28C222.774 300.567 222.774 296.168 218.052 293.456L187.621 275.972C182.899 273.259 175.244 273.259 170.522 275.972Z" fill="#1A1B26" stroke="#1A1B26" stroke-width="0.50625"/>
<mask id="mask3_22110_229011" style="mask-type:luminance" maskUnits="userSpaceOnUse" x="150" y="281" width="58" height="34">
<path d="M179.072 281.914L150.434 298.368L179.072 314.822L207.71 298.368L179.072 281.914Z" fill="white"/>
</mask>
<g mask="url(#mask3_22110_229011)">
<path fill-rule="evenodd" clip-rule="evenodd" d="M162.659 297.373L174.939 295.486L191.521 305.013L179.241 306.899L162.659 297.373Z" fill="#237FA7"/>
<path d="M176.234 291.8L162.899 293.861L166.28 295.803L175.361 294.407L185.513 300.24L189.775 299.579C192.416 299.172 193.217 298.057 191.533 297.09L184.083 292.809C182.407 291.849 178.873 291.397 176.234 291.8Z" fill="#237FA7"/>
</g>
<path d="M340.201 242.654L309.77 260.138C305.048 262.85 305.048 267.249 309.77 269.962L340.201 287.446C344.923 290.158 352.578 290.158 357.3 287.446L387.731 269.962C392.453 267.249 392.453 262.85 387.731 260.138L357.3 242.654C352.578 239.941 344.923 239.941 340.201 242.654Z" fill="#1A1B26" stroke="#1A1B26" stroke-width="0.50625"/>
<mask id="mask4_22110_229011" style="mask-type:luminance" maskUnits="userSpaceOnUse" x="320" y="248" width="58" height="34">
<path d="M348.751 248.595L320.113 265.049L348.751 281.503L377.389 265.049L348.751 248.595Z" fill="white"/>
</mask>
<g mask="url(#mask4_22110_229011)">
<path fill-rule="evenodd" clip-rule="evenodd" d="M332.338 264.054L344.618 262.168L361.2 271.694L348.92 273.581L332.338 264.054Z" fill="#237FA7"/>
<path d="M345.913 258.482L332.578 260.542L335.959 262.485L345.04 261.089L355.192 266.922L359.454 266.26C362.095 265.853 362.897 264.739 361.212 263.772L353.762 259.491C352.086 258.53 348.552 258.079 345.913 258.482Z" fill="#237FA7"/>
</g>
<path d="M227.439 243.27L197.008 260.754C192.286 263.467 192.286 267.865 197.008 270.578L227.439 288.062C232.161 290.775 239.816 290.775 244.538 288.062L274.969 270.578C279.691 267.865 279.691 263.467 274.969 260.754L244.538 243.27C239.816 240.557 232.161 240.557 227.439 243.27Z" fill="#1A1B26" stroke="#1A1B26" stroke-width="0.50625"/>
<mask id="mask5_22110_229011" style="mask-type:luminance" maskUnits="userSpaceOnUse" x="207" y="249" width="58" height="34">
<path d="M235.989 249.212L207.351 265.666L235.989 282.12L264.627 265.666L235.989 249.212Z" fill="white"/>
</mask>
<g mask="url(#mask5_22110_229011)">
<path d="M246.945 271.84C245.173 272.859 242.996 273.615 240.601 274.041C238.206 274.468 235.666 274.551 233.201 274.286C230.737 274.02 228.423 273.413 226.459 272.517C224.496 271.621 222.943 270.464 221.935 269.144C220.927 267.826 220.494 266.385 220.675 264.948C220.856 263.511 221.644 262.122 222.971 260.9C224.298 259.678 226.125 258.66 228.292 257.935C230.459 257.21 232.901 256.8 235.406 256.742L235.526 259.78C233.569 259.838 231.684 260.22 230.098 260.88C228.512 261.541 227.293 262.451 226.59 263.501C225.886 264.551 225.728 265.697 226.135 266.797C226.541 267.898 227.495 268.908 228.88 269.704C230.265 270.5 232.022 271.047 233.938 271.281C235.854 271.515 237.847 271.423 239.675 271.019C241.504 270.615 243.088 269.916 244.238 269.004C245.387 268.093 246.052 267.009 246.151 265.886L251.442 265.955C251.283 268.171 249.678 270.272 246.945 271.84Z" fill="#830833"/>
<path d="M250.262 263.672C250.086 263.774 249.861 263.843 249.616 263.87C249.371 263.899 249.117 263.884 248.886 263.83C248.655 263.775 248.458 263.681 248.319 263.562C248.181 263.444 248.107 263.303 248.107 263.159C248.107 263.016 248.181 262.875 248.319 262.756C248.458 262.636 248.655 262.544 248.886 262.489C249.117 262.434 249.371 262.419 249.616 262.447C249.861 262.476 250.086 262.545 250.262 262.646C250.498 262.783 250.631 262.967 250.631 263.159C250.631 263.352 250.498 263.536 250.262 263.672Z" fill="#830833"/>
<path d="M238.342 266.977C237.876 267.246 237.282 267.43 236.634 267.506C235.986 267.582 235.314 267.545 234.703 267.401C234.091 267.256 233.568 267.01 233.2 266.696C232.831 266.38 232.634 266.009 232.633 265.629C232.631 265.25 232.827 264.879 233.193 264.562C233.56 264.247 234.082 264 234.692 263.855C235.303 263.709 235.975 263.67 236.623 263.745C237.271 263.819 237.867 264.002 238.334 264.271C238.956 264.63 239.307 265.117 239.308 265.623C239.31 266.13 238.962 266.616 238.342 266.977Z" fill="#830833"/>
<path d="M248.244 261.336C248.067 261.437 247.842 261.506 247.597 261.535C247.352 261.562 247.098 261.548 246.867 261.493C246.637 261.438 246.439 261.344 246.301 261.226C246.162 261.107 246.088 260.966 246.088 260.822C246.088 260.679 246.162 260.538 246.301 260.419C246.439 260.3 246.637 260.207 246.867 260.152C247.098 260.097 247.352 260.083 247.597 260.11C247.842 260.139 248.067 260.208 248.244 260.309C248.48 260.446 248.612 260.63 248.612 260.822C248.612 261.015 248.48 261.199 248.244 261.336Z" fill="#830833"/>
<path d="M245.477 262.798C245.3 262.899 245.074 262.968 244.829 262.996C244.583 263.024 244.329 263.009 244.098 262.954C243.867 262.898 243.67 262.805 243.531 262.684C243.393 262.565 243.32 262.423 243.321 262.28C243.323 262.136 243.399 261.996 243.539 261.877C243.68 261.758 243.879 261.665 244.111 261.611C244.343 261.558 244.598 261.545 244.843 261.574C245.088 261.603 245.312 261.674 245.487 261.777C245.72 261.913 245.849 262.097 245.847 262.288C245.845 262.479 245.712 262.662 245.477 262.798Z" fill="#830833"/>
<path d="M245.234 259.607C245.058 259.709 244.833 259.777 244.588 259.805C244.343 259.834 244.089 259.819 243.858 259.764C243.628 259.71 243.43 259.616 243.292 259.497C243.153 259.378 243.079 259.238 243.079 259.093C243.079 258.95 243.153 258.81 243.292 258.69C243.43 258.572 243.628 258.478 243.858 258.424C244.089 258.369 244.343 258.354 244.588 258.382C244.833 258.411 245.058 258.479 245.234 258.581C245.471 258.717 245.603 258.901 245.603 259.093C245.603 259.287 245.471 259.471 245.234 259.607Z" fill="#830833"/>
<path d="M242.681 261.19C242.505 261.292 242.28 261.362 242.035 261.39C241.79 261.417 241.536 261.402 241.305 261.348C241.074 261.293 240.877 261.2 240.738 261.081C240.6 260.962 240.526 260.821 240.526 260.678C240.526 260.535 240.6 260.394 240.738 260.275C240.877 260.155 241.074 260.062 241.305 260.007C241.536 259.952 241.79 259.939 242.035 259.966C242.28 259.994 242.505 260.063 242.681 260.164C242.918 260.301 243.051 260.485 243.051 260.678C243.051 260.87 242.918 261.055 242.681 261.19Z" fill="#830833"/>
<path d="M241.259 258.44C241.083 258.542 240.858 258.612 240.613 258.64C240.368 258.667 240.114 258.653 239.883 258.599C239.652 258.544 239.454 258.451 239.315 258.332C239.176 258.213 239.102 258.072 239.101 257.929C239.101 257.786 239.175 257.645 239.314 257.526C239.452 257.406 239.65 257.313 239.88 257.258C240.111 257.203 240.365 257.188 240.61 257.216C240.855 257.244 241.081 257.314 241.257 257.415C241.494 257.551 241.627 257.735 241.627 257.927C241.627 258.12 241.495 258.304 241.259 258.44Z" fill="#830833"/>
</g>
<path d="M397.119 209.952L366.688 227.436C361.966 230.148 361.966 234.547 366.688 237.26L397.119 254.744C401.841 257.456 409.496 257.456 414.218 254.744L444.649 237.26C449.371 234.547 449.371 230.148 444.649 227.436L414.218 209.952C409.496 207.239 401.841 207.239 397.119 209.952Z" fill="#1A1B26" stroke="#1A1B26" stroke-width="0.50625"/>
<mask id="mask6_22110_229011" style="mask-type:luminance" maskUnits="userSpaceOnUse" x="377" y="215" width="58" height="34">
<path d="M405.669 215.894L377.031 232.348L405.669 248.802L434.307 232.348L405.669 215.894Z" fill="white"/>
</mask>
<g mask="url(#mask6_22110_229011)">
<path d="M416.624 238.521C414.853 239.541 412.675 240.297 410.28 240.723C407.885 241.15 405.345 241.233 402.881 240.967C400.416 240.702 398.102 240.095 396.139 239.199C394.175 238.303 392.622 237.145 391.614 235.826C390.606 234.507 390.174 233.066 390.354 231.63C390.535 230.193 391.323 228.803 392.65 227.581C393.978 226.359 395.804 225.341 397.971 224.617C400.138 223.892 402.58 223.482 405.086 223.423L405.205 226.462C403.249 226.52 401.363 226.901 399.777 227.562C398.191 228.223 396.973 229.132 396.269 230.183C395.566 231.233 395.408 232.379 395.814 233.479C396.221 234.58 397.174 235.589 398.559 236.385C399.944 237.182 401.701 237.729 403.618 237.963C405.534 238.196 407.527 238.105 409.355 237.701C411.183 237.297 412.768 236.597 413.917 235.686C415.067 234.774 415.731 233.691 415.831 232.568L421.121 232.635C420.962 234.853 419.357 236.954 416.624 238.521Z" fill="#830833"/>
<path d="M419.942 230.354C419.765 230.456 419.54 230.524 419.295 230.552C419.05 230.58 418.796 230.566 418.565 230.512C418.335 230.456 418.137 230.363 417.999 230.244C417.86 230.124 417.786 229.984 417.786 229.841C417.786 229.697 417.86 229.557 417.999 229.438C418.137 229.318 418.335 229.226 418.565 229.171C418.796 229.115 419.05 229.101 419.295 229.129C419.54 229.157 419.765 229.227 419.942 229.328C420.178 229.465 420.31 229.649 420.31 229.841C420.31 230.033 420.178 230.218 419.942 230.354Z" fill="#830833"/>
<path d="M408.021 233.658C407.555 233.928 406.961 234.112 406.313 234.188C405.665 234.264 404.993 234.227 404.382 234.082C403.77 233.938 403.247 233.692 402.879 233.377C402.51 233.062 402.313 232.691 402.312 232.311C402.311 231.932 402.506 231.56 402.872 231.244C403.239 230.928 403.761 230.682 404.371 230.536C404.982 230.39 405.654 230.352 406.302 230.427C406.95 230.501 407.546 230.684 408.013 230.952C408.636 231.312 408.986 231.797 408.988 232.305C408.989 232.812 408.641 233.298 408.021 233.658Z" fill="#830833"/>
<path d="M417.923 228.018C417.746 228.119 417.521 228.188 417.276 228.216C417.031 228.244 416.777 228.23 416.547 228.175C416.316 228.12 416.119 228.027 415.98 227.907C415.841 227.788 415.767 227.647 415.767 227.504C415.767 227.361 415.841 227.22 415.98 227.101C416.119 226.982 416.316 226.889 416.547 226.834C416.777 226.78 417.031 226.765 417.276 226.793C417.521 226.82 417.746 226.89 417.923 226.992C418.159 227.128 418.291 227.312 418.291 227.504C418.291 227.696 418.159 227.881 417.923 228.018Z" fill="#830833"/>
<path d="M415.156 229.478C414.979 229.58 414.754 229.65 414.508 229.677C414.262 229.705 414.008 229.69 413.777 229.635C413.546 229.58 413.349 229.486 413.21 229.366C413.072 229.246 412.999 229.105 413.001 228.962C413.002 228.818 413.078 228.677 413.218 228.558C413.359 228.439 413.558 228.347 413.79 228.293C414.022 228.239 414.277 228.226 414.522 228.255C414.767 228.285 414.991 228.356 415.166 228.458C415.399 228.595 415.528 228.779 415.526 228.97C415.524 229.161 415.391 229.344 415.156 229.478Z" fill="#830833"/>
<path d="M414.914 226.289C414.737 226.39 414.512 226.459 414.267 226.487C414.022 226.515 413.768 226.501 413.537 226.446C413.307 226.391 413.11 226.298 412.971 226.178C412.832 226.059 412.758 225.919 412.758 225.775C412.758 225.632 412.832 225.492 412.971 225.372C413.11 225.253 413.307 225.16 413.537 225.106C413.768 225.05 414.022 225.036 414.267 225.064C414.512 225.092 414.737 225.161 414.914 225.263C415.15 225.399 415.282 225.583 415.282 225.775C415.282 225.967 415.15 226.153 414.914 226.289Z" fill="#830833"/>
<path d="M412.36 227.872C412.184 227.974 411.959 228.043 411.714 228.07C411.469 228.099 411.215 228.084 410.984 228.03C410.754 227.975 410.556 227.881 410.418 227.762C410.279 227.643 410.205 227.503 410.205 227.359C410.205 227.216 410.279 227.075 410.418 226.956C410.556 226.837 410.754 226.744 410.984 226.689C411.215 226.634 411.469 226.619 411.714 226.647C411.959 226.676 412.184 226.745 412.36 226.846C412.597 226.983 412.73 227.167 412.73 227.359C412.73 227.552 412.597 227.736 412.36 227.872Z" fill="#830833"/>
<path d="M410.938 225.122C410.762 225.224 410.537 225.293 410.292 225.322C410.047 225.349 409.793 225.336 409.562 225.281C409.331 225.226 409.134 225.134 408.994 225.014C408.855 224.895 408.781 224.754 408.781 224.611C408.78 224.468 408.854 224.327 408.993 224.207C409.132 224.088 409.329 223.995 409.56 223.94C409.79 223.885 410.044 223.871 410.289 223.898C410.535 223.926 410.76 223.996 410.936 224.097C411.173 224.233 411.306 224.417 411.306 224.609C411.307 224.801 411.174 224.986 410.938 225.122Z" fill="#830833"/>
</g>
<path d="M284.357 210.568L253.926 228.052C249.204 230.765 249.204 235.164 253.926 237.876L284.357 255.36C289.079 258.073 296.734 258.073 301.456 255.36L331.887 237.876C336.609 235.164 336.609 230.765 331.887 228.052L301.456 210.568C296.734 207.856 289.079 207.856 284.357 210.568Z" fill="#1A1B26" stroke="#1A1B26" stroke-width="0.50625"/>
<mask id="mask7_22110_229011" style="mask-type:luminance" maskUnits="userSpaceOnUse" x="264" y="216" width="58" height="34">
<path d="M292.907 216.511L264.269 232.965L292.907 249.418L321.545 232.965L292.907 216.511Z" fill="white"/>
</mask>
<g mask="url(#mask7_22110_229011)">
<path d="M271.826 233.536L304.23 239.516L293.901 220.853L271.826 233.536ZM289.611 233.082L287.859 234.088L286.107 233.082L287.859 232.075L289.611 233.082ZM286.982 231.571L285.23 232.578L283.48 231.572L285.232 230.566L286.982 231.571ZM294.865 233.082L293.113 234.088L291.361 233.082L293.113 232.075L294.865 233.082ZM292.238 231.572L290.486 232.579L288.734 231.572L290.486 230.566L292.238 231.572ZM289.609 230.062L287.857 231.069L286.107 230.063L287.859 229.056L289.609 230.062ZM294.852 230.071L293.099 231.078L291.347 230.071L293.099 229.064L294.852 230.071ZM290.47 229.567L288.72 228.562L290.472 227.555L292.222 228.561L290.47 229.567Z" fill="#8F7D09"/>
</g>
<path d="M454.037 177.25L423.606 194.734C418.884 197.447 418.884 201.845 423.606 204.558L454.037 222.042C458.759 224.755 466.414 224.755 471.136 222.042L501.567 204.558C506.289 201.845 506.289 197.447 501.567 194.734L471.136 177.25C466.414 174.537 458.759 174.537 454.037 177.25Z" fill="#1A1B26" stroke="#1A1B26" stroke-width="0.50625"/>
<mask id="mask8_22110_229011" style="mask-type:luminance" maskUnits="userSpaceOnUse" x="433" y="183" width="59" height="34">
<path d="M462.586 183.193L433.948 199.647L462.586 216.1L491.224 199.647L462.586 183.193Z" fill="white"/>
</mask>
<g mask="url(#mask8_22110_229011)">
<path d="M441.506 200.218L473.91 206.198L463.581 187.535L441.506 200.218ZM459.291 199.764L457.539 200.77L455.787 199.764L457.539 198.757L459.291 199.764ZM456.662 198.253L454.91 199.26L453.16 198.254L454.912 197.248L456.662 198.253ZM464.545 199.764L462.793 200.77L461.041 199.764L462.793 198.757L464.545 199.764ZM461.918 198.254L460.166 199.261L458.414 198.254L460.166 197.248L461.918 198.254ZM459.289 196.744L457.537 197.751L455.787 196.745L457.539 195.738L459.289 196.744ZM464.531 196.753L462.779 197.76L461.027 196.753L462.779 195.746L464.531 196.753ZM460.15 196.249L458.4 195.244L460.152 194.238L461.902 195.243L460.15 196.249Z" fill="#8F7D09"/>
</g>
<path d="M341.275 177.867L310.844 195.351C306.122 198.064 306.122 202.463 310.844 205.175L341.275 222.659C345.997 225.372 353.652 225.372 358.374 222.659L388.805 205.175C393.527 202.463 393.527 198.064 388.805 195.351L358.374 177.867C353.652 175.155 345.997 175.155 341.275 177.867Z" fill="#1A1B26" stroke="#1A1B26" stroke-width="0.50625"/>
<mask id="mask9_22110_229011" style="mask-type:luminance" maskUnits="userSpaceOnUse" x="321" y="183" width="58" height="34">
<path d="M349.825 183.809L321.187 200.263L349.825 216.716L378.463 200.263L349.825 183.809Z" fill="white"/>
</mask>
<g mask="url(#mask9_22110_229011)">
<path d="M355.126 209.518L353.482 208.574L356.898 206.61L355.882 206.027L354.226 206.978L352.571 206.028L360.393 201.533L350.467 200.006L347.806 194.302L339.789 198.908L348.518 203.923L344.202 206.402L331.16 198.909L346.01 190.377L352.78 191.419L355.451 197.143L365.613 198.708L367.373 202.482L355.126 209.518Z" fill="#731316"/>
<path d="M351.475 206.657L349.82 207.608L351.475 208.559L353.13 207.608L351.475 206.657Z" fill="#731316"/>
<path d="M352.374 209.196L350.719 210.147L352.374 211.097L354.029 210.147L352.374 209.196Z" fill="#731316"/>
</g>
<path d="M510.954 144.548L480.523 162.032C475.801 164.745 475.801 169.143 480.523 171.856L510.954 189.34C515.676 192.053 523.331 192.053 528.053 189.34L558.484 171.856C563.206 169.143 563.206 164.745 558.484 162.032L528.053 144.548C523.331 141.835 515.676 141.835 510.954 144.548Z" fill="#1A1B26" stroke="#1A1B26" stroke-width="0.50625"/>
<mask id="mask10_22110_229011" style="mask-type:luminance" maskUnits="userSpaceOnUse" x="490" y="150" width="59" height="34">
<path d="M519.504 150.491L490.866 166.944L519.504 183.398L548.142 166.944L519.504 150.491Z" fill="white"/>
</mask>
<g mask="url(#mask10_22110_229011)">
<path d="M524.805 176.199L523.161 175.255L526.577 173.291L525.561 172.708L523.904 173.659L522.25 172.709L530.072 168.214L520.146 166.687L517.485 160.983L509.468 165.589L518.197 170.604L513.881 173.084L500.839 165.59L515.689 157.058L522.459 158.1L525.13 163.823L535.292 165.389L537.052 169.163L524.805 176.199Z" fill="#731316"/>
<path d="M521.154 173.339L519.499 174.289L521.154 175.24L522.809 174.289L521.154 173.339Z" fill="#731316"/>
<path d="M522.053 175.877L520.398 176.828L522.053 177.778L523.708 176.828L522.053 175.877Z" fill="#731316"/>
</g>
<path d="M338.769 310.113L308.338 327.597C303.617 330.31 303.617 334.708 308.338 337.421L338.769 354.905C343.491 357.618 351.146 357.618 355.868 354.905L386.299 337.421C391.021 334.708 391.021 330.31 386.299 327.597L355.868 310.113C351.146 307.4 343.491 307.4 338.769 310.113Z" fill="#1A1B26" stroke="#1A1B26" stroke-width="0.50625"/>
<mask id="mask11_22110_229011" style="mask-type:luminance" maskUnits="userSpaceOnUse" x="318" y="316" width="58" height="33">
<path d="M347.319 316.056L318.681 332.509L347.319 348.963L375.957 332.509L347.319 316.056Z" fill="white"/>
</mask>
<g mask="url(#mask11_22110_229011)">
<path d="M352.621 341.765L350.976 340.819L354.393 338.857L353.376 338.272L351.72 339.225L350.065 338.273L357.887 333.78L347.961 332.252L345.3 326.549L337.283 331.155L346.012 336.17L341.696 338.649L328.654 331.156L343.504 322.624L350.274 323.666L352.945 329.389L363.107 330.955L364.867 334.729L352.621 341.765Z" fill="#731316"/>
<path d="M348.969 338.903L347.314 339.854L348.969 340.804L350.624 339.854L348.969 338.903Z" fill="#731316"/>
<path d="M349.868 341.442L348.214 342.393L349.868 343.343L351.523 342.393L349.868 341.442Z" fill="#731316"/>
</g>
<path d="M398.193 145.165L367.762 162.649C363.041 165.362 363.041 169.76 367.762 172.473L398.193 189.957C402.915 192.67 410.57 192.67 415.292 189.957L445.723 172.473C450.445 169.76 450.445 165.362 445.723 162.649L415.292 145.165C410.57 142.452 402.915 142.452 398.193 145.165Z" fill="#1A1B26" stroke="#1A1B26" stroke-width="0.50625"/>
<mask id="mask12_22110_229011" style="mask-type:luminance" maskUnits="userSpaceOnUse" x="378" y="151" width="58" height="34">
<path d="M406.743 151.108L378.105 167.562L406.743 184.015L435.381 167.562L406.743 151.108Z" fill="white"/>
</mask>
<g mask="url(#mask12_22110_229011)">
<path d="M395.208 160.934L390.986 169.987L402.521 176.614L418.277 174.188L422.499 165.135L410.965 158.508L395.208 160.934ZM412.343 165.664L411.219 168.076L406.253 168.918L409.929 171.03L408.823 173.868L401.138 169.453L402.069 167.232L407.15 166.328L403.398 164.172L404.672 161.248L412.343 165.664Z" fill="#237FA7"/>
</g>
<path d="M567.872 111.846L537.441 129.33C532.72 132.043 532.72 136.441 537.441 139.154L567.872 156.638C572.594 159.351 580.249 159.351 584.971 156.638L615.402 139.154C620.124 136.441 620.124 132.043 615.402 129.33L584.971 111.846C580.249 109.133 572.594 109.133 567.872 111.846Z" fill="#1A1B26" stroke="#1A1B26" stroke-width="0.50625"/>
<mask id="mask13_22110_229011" style="mask-type:luminance" maskUnits="userSpaceOnUse" x="547" y="117" width="59" height="34">
<path d="M576.422 117.789L547.784 134.242L576.422 150.696L605.06 134.242L576.422 117.789Z" fill="white"/>
</mask>
<g mask="url(#mask13_22110_229011)">
<path d="M564.887 127.615L560.665 136.668L572.2 143.295L587.956 140.869L592.179 131.817L580.644 125.19L564.887 127.615ZM582.022 132.345L580.898 134.758L575.933 135.6L579.608 137.712L578.502 140.549L570.818 136.134L571.748 133.913L576.83 133.009L573.077 130.854L574.352 127.93L582.022 132.345Z" fill="#237FA7"/>
</g>
<path d="M395.687 277.412L365.256 294.896C360.535 297.609 360.535 302.007 365.256 304.72L395.687 322.204C400.409 324.917 408.064 324.917 412.786 322.204L443.217 304.72C447.939 302.007 447.939 297.609 443.217 294.896L412.786 277.412C408.064 274.699 400.409 274.699 395.687 277.412Z" fill="#1A1B26" stroke="#1A1B26" stroke-width="0.50625"/>
<mask id="mask14_22110_229011" style="mask-type:luminance" maskUnits="userSpaceOnUse" x="375" y="283" width="58" height="34">
<path d="M404.237 283.353L375.599 299.807L404.237 316.261L432.875 299.807L404.237 283.353Z" fill="white"/>
</mask>
<g mask="url(#mask14_22110_229011)">
<path d="M392.702 293.18L388.48 302.233L400.014 308.861L415.771 306.434L419.993 297.382L408.459 290.754L392.702 293.18ZM409.837 297.91L408.713 300.323L403.747 301.164L407.422 303.276L406.317 306.115L398.632 301.7L399.563 299.479L404.644 298.575L400.891 296.418L402.166 293.494L409.837 297.91Z" fill="#237FA7"/>
</g>
<path d="M624.79 79.1448L594.359 96.6287C589.638 99.3416 589.638 103.74 594.359 106.453L624.79 123.937C629.512 126.65 637.167 126.65 641.889 123.937L672.32 106.453C677.042 103.74 677.042 99.3416 672.32 96.6287L641.889 79.1448C637.167 76.432 629.512 76.432 624.79 79.1448Z" fill="#1A1B26" stroke="#1A1B26" stroke-width="0.50625"/>
<mask id="mask15_22110_229011" style="mask-type:luminance" maskUnits="userSpaceOnUse" x="608" y="87" width="51" height="30">
<path d="M633.697 87.3491L608.639 101.746L633.697 116.143L658.755 101.746L633.697 87.3491Z" fill="white"/>
</mask>
<g mask="url(#mask15_22110_229011)">
<path d="M638.376 90.1914L640.642 95.0501L632.185 93.7483L638.376 90.1914Z" fill="#1D7177"/>
<path d="M625.43 101.743L623.364 102.93L637.471 105.103L638.984 108.344L613.586 104.435L623.916 98.4996L638.027 100.672L637.27 99.052L625.981 97.3133L630.112 94.9397L635.759 95.8085L641.402 96.6774L645.182 104.783L625.43 101.743Z" fill="#1D7177"/>
</g>
<path d="M452.605 244.71L422.174 262.194C417.452 264.907 417.452 269.305 422.174 272.018L452.605 289.502C457.327 292.215 464.982 292.215 469.704 289.502L500.135 272.018C504.857 269.305 504.857 264.907 500.135 262.194L469.704 244.71C464.982 241.997 457.327 241.997 452.605 244.71Z" fill="#1A1B26" stroke="#1A1B26" stroke-width="0.50625"/>
<mask id="mask16_22110_229011" style="mask-type:luminance" maskUnits="userSpaceOnUse" x="436" y="252" width="51" height="30">
<path d="M461.512 252.915L436.454 267.312L461.512 281.709L486.57 267.312L461.512 252.915Z" fill="white"/>
</mask>
<g mask="url(#mask16_22110_229011)">
<path d="M466.191 255.757L468.457 260.616L460 259.314L466.191 255.757Z" fill="#1D7177"/>
<path d="M453.245 267.309L451.179 268.495L465.286 270.668L466.799 273.91L441.401 270L451.731 264.065L465.841 266.238L465.085 264.617L453.796 262.878L457.927 260.504L463.574 261.373L469.217 262.242L472.997 270.349L453.245 267.309Z" fill="#1D7177"/>
</g>
<path d="M681.707 46.4434L651.276 63.9273C646.555 66.6402 646.555 71.0386 651.276 73.7514L681.707 91.2353C686.429 93.9482 694.084 93.9482 698.806 91.2353L729.237 73.7514C733.959 71.0386 733.959 66.6402 729.237 63.9273L698.806 46.4434C694.084 43.7305 686.429 43.7305 681.707 46.4434Z" fill="#1A1B26" stroke="#1A1B26" stroke-width="0.50625"/>
<mask id="mask17_22110_229011" style="mask-type:luminance" maskUnits="userSpaceOnUse" x="665" y="54" width="51" height="30">
<path d="M690.614 54.6479L665.556 69.0449L690.614 83.4419L715.672 69.0449L690.614 54.6479Z" fill="white"/>
</mask>
<g mask="url(#mask17_22110_229011)">
<path d="M687.886 59.725L686.114 63.5243L687.601 64.3781L691.053 69.297L682.491 67.3134L681.005 66.4596L674.393 67.4774L673.317 69.7889L675.028 70.7717L694.613 75.4998L700.319 74.621L701.849 71.3426L693.62 60.09L691.909 59.1072L687.886 59.725Z" fill="#2354AA"/>
<path d="M691.909 59.1072L690.136 62.9054L691.624 63.7602L695.828 70.0868L695.109 71.6275L700.319 74.6209L701.849 71.3426L693.62 60.09L691.909 59.1072Z" fill="#0850C5"/>
<path d="M682.491 67.3133L681.005 66.4595L679.927 68.771L681.414 69.6258L692.428 72.0403L693.146 70.4996L691.053 69.2969L682.491 67.3133Z" fill="#0850C5"/>
</g>
<path d="M509.522 212.009L479.091 229.492C474.369 232.205 474.369 236.604 479.091 239.317L509.522 256.801C514.244 259.513 521.899 259.513 526.621 256.801L557.052 239.317C561.774 236.604 561.774 232.205 557.052 229.492L526.621 212.009C521.899 209.296 514.244 209.296 509.522 212.009Z" fill="#1A1B26" stroke="#1A1B26" stroke-width="0.50625"/>
<mask id="mask18_22110_229011" style="mask-type:luminance" maskUnits="userSpaceOnUse" x="493" y="220" width="51" height="30">
<path d="M518.43 220.214L493.372 234.611L518.43 249.008L543.488 234.611L518.43 220.214Z" fill="white"/>
</mask>
<g mask="url(#mask18_22110_229011)">
<path d="M515.701 225.29L513.93 229.089L515.416 229.943L518.868 234.862L510.307 232.879L508.821 232.025L502.208 233.043L501.133 235.354L502.843 236.337L522.428 241.065L528.134 240.186L529.664 236.908L521.435 225.656L519.724 224.672L515.701 225.29Z" fill="#2354AA"/>
<path d="M519.724 224.672L517.951 228.471L519.439 229.326L523.643 235.653L522.924 237.193L528.134 240.186L529.664 236.908L521.435 225.656L519.724 224.672Z" fill="#0850C5"/>
<path d="M510.307 232.879L508.821 232.025L507.742 234.336L509.23 235.191L520.243 237.605L520.962 236.065L518.868 234.863L510.307 232.879Z" fill="#0850C5"/>
</g>
<path d="M57.0449 341.581L26.6139 359.065C21.8922 361.778 21.8922 366.176 26.6139 368.889L57.0449 386.373C61.7666 389.086 69.4221 389.086 74.1438 386.373L104.575 368.889C109.296 366.176 109.296 361.778 104.575 359.065L74.1438 341.581C69.4221 338.868 61.7666 338.868 57.0449 341.581Z" fill="#1A1B26" stroke="#1A1B26" stroke-width="0.50625"/>
<mask id="mask19_22110_229011" style="mask-type:luminance" maskUnits="userSpaceOnUse" x="36" y="347" width="59" height="34">
<path d="M65.5941 347.524L36.9563 363.978L65.5941 380.431L94.2319 363.978L65.5941 347.524Z" fill="white"/>
</mask>
<g mask="url(#mask19_22110_229011)">
<path d="M52.9356 358.682L49.2871 366.491L49.291 366.493L61.2331 373.354L66.3409 372.568L54.3949 365.705L56.6711 360.828L52.9356 358.682Z" fill="#B2B6BD"/>
<path d="M56.3767 356.704L65.8897 362.17L62.4484 364.148L58.8987 362.107L57.5283 365.043L69.7162 372.046L74.8299 371.26L65.3439 365.811L68.7853 363.834L72.3118 365.859L73.6802 362.925L61.4845 355.918L56.3767 356.704Z" fill="#B2B6BD"/>
<path d="M78.2752 369.286L81.9236 361.476L81.9197 361.473L69.9776 354.612L64.8679 355.4L76.8139 362.264L74.5396 367.139L78.2752 369.286Z" fill="#B2B6BD"/>
</g>
<path d="M226.724 308.263L196.293 325.747C191.571 328.46 191.571 332.858 196.293 335.571L226.724 353.055C231.446 355.768 239.101 355.768 243.823 353.055L274.254 335.571C278.976 332.858 278.976 328.46 274.254 325.747L243.823 308.263C239.101 305.55 231.446 305.55 226.724 308.263Z" fill="#1A1B26" stroke="#1A1B26" stroke-width="0.50625"/>
<mask id="mask20_22110_229011" style="mask-type:luminance" maskUnits="userSpaceOnUse" x="206" y="314" width="58" height="34">
<path d="M235.273 314.205L206.635 330.658L235.273 347.112L263.911 330.658L235.273 314.205Z" fill="white"/>
</mask>
<g mask="url(#mask20_22110_229011)">
<path d="M222.615 325.362L218.966 333.172L218.97 333.175L230.912 340.036L236.02 339.25L224.074 332.386L226.35 327.509L222.615 325.362Z" fill="#B2B6BD"/>
<path d="M226.056 323.386L235.569 328.851L232.128 330.828L228.578 328.789L227.208 331.725L239.395 338.727L244.509 337.942L235.023 332.492L238.464 330.515L241.991 332.541L243.359 329.606L231.164 322.6L226.056 323.386Z" fill="#B2B6BD"/>
<path d="M247.954 335.967L251.603 328.157L251.599 328.155L239.657 321.294L234.547 322.081L246.493 328.944L244.219 333.821L247.954 335.967Z" fill="#B2B6BD"/>
</g>
<path d="M624.205 145.165L593.774 162.649C589.053 165.362 589.053 169.76 593.774 172.473L624.205 189.957C628.927 192.67 636.582 192.67 641.304 189.957L671.735 172.473C676.457 169.76 676.457 165.362 671.735 162.649L641.304 145.165C636.582 142.452 628.927 142.452 624.205 145.165Z" fill="#1A1B26" stroke="#1A1B26" stroke-width="0.50625"/>
<mask id="mask21_22110_229011" style="mask-type:luminance" maskUnits="userSpaceOnUse" x="604" y="151" width="58" height="34">
<path d="M632.755 151.108L604.117 167.562L632.755 184.015L661.393 167.562L632.755 151.108Z" fill="white"/>
</mask>
<g mask="url(#mask21_22110_229011)">
<path fill-rule="evenodd" clip-rule="evenodd" d="M621.715 164.985L632.053 163.393L639.622 167.742L629.282 169.333L621.715 164.985Z" fill="#633691"/>
<path fill-rule="evenodd" clip-rule="evenodd" d="M632.771 162.98L640.34 167.329L643.108 161.389L635.541 157.042L632.771 162.98Z" fill="#633691"/>
<path fill-rule="evenodd" clip-rule="evenodd" d="M610.22 166.736L617.787 171.084L628.125 169.493L620.558 165.145L610.22 166.736Z" fill="#633691"/>
<path fill-rule="evenodd" clip-rule="evenodd" d="M637.679 174.157L648.016 172.566L640.499 168.247L640.449 168.218L630.112 169.81L637.679 174.157Z" fill="#633691"/>
</g>
<path d="M793.884 111.847L763.453 129.331C758.732 132.044 758.732 136.442 763.453 139.155L793.884 156.639C798.606 159.352 806.261 159.352 810.983 156.639L841.414 139.155C846.136 136.442 846.136 132.044 841.414 129.331L810.983 111.847C806.261 109.134 798.606 109.134 793.884 111.847Z" fill="#1A1B26" stroke="#1A1B26" stroke-width="0.50625"/>
<mask id="mask22_22110_229011" style="mask-type:luminance" maskUnits="userSpaceOnUse" x="773" y="117" width="59" height="34">
<path d="M802.434 117.789L773.796 134.242L802.434 150.696L831.072 134.242L802.434 117.789Z" fill="white"/>
</mask>
<g mask="url(#mask22_22110_229011)">
<path fill-rule="evenodd" clip-rule="evenodd" d="M791.394 131.667L801.732 130.073L809.301 134.423L798.961 136.014L791.394 131.667Z" fill="#633691"/>
<path fill-rule="evenodd" clip-rule="evenodd" d="M802.45 129.661L810.019 134.009L812.787 128.07L805.22 123.723L802.45 129.661Z" fill="#633691"/>
<path fill-rule="evenodd" clip-rule="evenodd" d="M779.899 133.416L787.467 137.764L797.804 136.174L790.237 131.826L779.899 133.416Z" fill="#633691"/>
<path fill-rule="evenodd" clip-rule="evenodd" d="M807.358 140.838L817.695 139.247L810.178 134.928L810.128 134.9L799.791 136.491L807.358 140.838Z" fill="#633691"/>
</g>
<path d="M623.606 211.378L593.175 228.862C588.453 231.575 588.453 235.974 593.175 238.686L623.606 256.17C628.328 258.883 635.983 258.883 640.705 256.17L671.136 238.686C675.858 235.974 675.858 231.575 671.136 228.862L640.705 211.378C635.983 208.666 628.328 208.666 623.606 211.378Z" fill="#1A1B26" stroke="#1A1B26" stroke-width="0.50625"/>
<mask id="mask23_22110_229011" style="mask-type:luminance" maskUnits="userSpaceOnUse" x="603" y="217" width="58" height="34">
<path d="M632.156 217.321L603.518 233.775L632.156 250.229L660.794 233.775L632.156 217.321Z" fill="white"/>
</mask>
<g mask="url(#mask23_22110_229011)">
<path fill-rule="evenodd" clip-rule="evenodd" d="M621.116 231.198L631.454 229.606L639.023 233.955L628.684 235.546L621.116 231.198Z" fill="#633691"/>
<path fill-rule="evenodd" clip-rule="evenodd" d="M632.172 229.193L639.741 233.542L642.509 227.603L634.942 223.255L632.172 229.193Z" fill="#633691"/>
<path fill-rule="evenodd" clip-rule="evenodd" d="M609.622 232.949L617.189 237.297L627.526 235.707L619.959 231.359L609.622 232.949Z" fill="#633691"/>
<path fill-rule="evenodd" clip-rule="evenodd" d="M637.08 240.37L647.418 238.78L639.9 234.461L639.85 234.432L629.513 236.023L637.08 240.37Z" fill="#633691"/>
</g>
<path d="M681.123 112.464L650.692 129.948C645.971 132.661 645.971 137.059 650.692 139.772L681.123 157.256C685.845 159.969 693.5 159.969 698.222 157.256L728.653 139.772C733.375 137.059 733.375 132.661 728.653 129.948L698.222 112.464C693.5 109.751 685.845 109.751 681.123 112.464Z" fill="#1A1B26" stroke="#1A1B26" stroke-width="0.50625"/>
<mask id="mask24_22110_229011" style="mask-type:luminance" maskUnits="userSpaceOnUse" x="661" y="118" width="58" height="34">
<path d="M689.672 118.406L661.034 134.859L689.672 151.313L718.31 134.859L689.672 118.406Z" fill="white"/>
</mask>
<g mask="url(#mask24_22110_229011)">
<path fill-rule="evenodd" clip-rule="evenodd" d="M673.259 133.864L685.54 131.978L702.122 141.504L689.841 143.391L673.259 133.864Z" fill="#237FA7"/>
<path d="M686.834 128.293L673.5 130.353L676.881 132.296L685.961 130.899L696.114 136.732L700.376 136.071C703.017 135.663 703.818 134.55 702.134 133.582L694.684 129.302C693.007 128.341 689.473 127.89 686.834 128.293Z" fill="#237FA7"/>
</g>
<path d="M850.802 79.1448L820.371 96.6287C815.65 99.3416 815.65 103.74 820.371 106.453L850.802 123.937C855.524 126.65 863.179 126.65 867.901 123.937L898.332 106.453C903.054 103.74 903.054 99.3416 898.332 96.6287L867.901 79.1448C863.179 76.432 855.524 76.432 850.802 79.1448Z" fill="#1A1B26" stroke="#1A1B26" stroke-width="0.50625"/>
<mask id="mask25_22110_229011" style="mask-type:luminance" maskUnits="userSpaceOnUse" x="830" y="85" width="58" height="33">
<path d="M859.352 85.0873L830.714 101.541L859.352 117.995L887.99 101.541L859.352 85.0873Z" fill="white"/>
</mask>
<g mask="url(#mask25_22110_229011)">
<path fill-rule="evenodd" clip-rule="evenodd" d="M842.939 100.546L855.219 98.6587L871.801 108.186L859.521 110.072L842.939 100.546Z" fill="#237FA7"/>
<path d="M856.514 94.9734L843.179 97.0345L846.56 98.9762L855.641 97.5798L865.793 103.413L870.055 102.752C872.696 102.345 873.498 101.23 871.813 100.263L864.363 95.9825C862.687 95.0221 859.153 94.5703 856.514 94.9734Z" fill="#237FA7"/>
</g>
<path d="M680.524 178.678L650.093 196.161C645.371 198.874 645.371 203.273 650.093 205.986L680.524 223.469C685.246 226.182 692.901 226.182 697.623 223.469L728.054 205.986C732.776 203.273 732.776 198.874 728.054 196.161L697.623 178.678C692.901 175.965 685.246 175.965 680.524 178.678Z" fill="#1A1B26" stroke="#1A1B26" stroke-width="0.50625"/>
<mask id="mask26_22110_229011" style="mask-type:luminance" maskUnits="userSpaceOnUse" x="660" y="184" width="58" height="34">
<path d="M689.074 184.62L660.436 201.074L689.074 217.527L717.712 201.074L689.074 184.62Z" fill="white"/>
</mask>
<g mask="url(#mask26_22110_229011)">
<path fill-rule="evenodd" clip-rule="evenodd" d="M672.66 200.078L684.941 198.191L701.523 207.719L689.242 209.606L672.66 200.078Z" fill="#237FA7"/>
<path d="M686.235 194.507L672.901 196.567L676.282 198.51L685.362 197.114L695.515 202.947L699.777 202.285C702.418 201.878 703.219 200.764 701.535 199.796L694.085 195.516C692.408 194.555 688.874 194.103 686.235 194.507Z" fill="#237FA7"/>
</g>
<path d="M738.041 79.762L707.61 97.2459C702.889 99.9588 702.889 104.357 707.61 107.07L738.041 124.554C742.763 127.267 750.418 127.267 755.14 124.554L785.571 107.07C790.293 104.357 790.293 99.9588 785.571 97.2459L755.14 79.762C750.418 77.0491 742.763 77.0491 738.041 79.762Z" fill="#1A1B26" stroke="#1A1B26" stroke-width="0.50625"/>
<mask id="mask27_22110_229011" style="mask-type:luminance" maskUnits="userSpaceOnUse" x="717" y="85" width="59" height="34">
<path d="M746.59 85.7045L717.952 102.158L746.59 118.612L775.228 102.158L746.59 85.7045Z" fill="white"/>
</mask>
<g mask="url(#mask27_22110_229011)">
<path d="M757.546 108.331C755.775 109.351 753.597 110.107 751.202 110.533C748.807 110.959 746.267 111.043 743.802 110.778C741.338 110.512 739.024 109.905 737.06 109.009C735.097 108.113 733.544 106.955 732.536 105.636C731.528 104.317 731.095 102.877 731.276 101.44C731.457 100.003 732.245 98.6131 733.572 97.391C734.9 96.1688 736.726 95.1517 738.893 94.4272C741.06 93.7027 743.502 93.2926 746.007 93.2329L746.127 96.2723C744.17 96.3291 742.285 96.7112 740.699 97.3721C739.113 98.0319 737.894 98.9425 737.191 99.9935C736.488 101.043 736.33 102.188 736.736 103.29C737.143 104.39 738.096 105.4 739.481 106.196C740.866 106.991 742.623 107.539 744.539 107.773C746.456 108.006 748.448 107.915 750.277 107.511C752.105 107.107 753.69 106.407 754.839 105.496C755.988 104.584 756.653 103.502 756.753 102.377L762.043 102.446C761.884 104.663 760.279 106.764 757.546 108.331Z" fill="#830833"/>
<path d="M760.863 100.164C760.687 100.265 760.462 100.335 760.217 100.363C759.972 100.391 759.718 100.377 759.487 100.321C759.256 100.266 759.059 100.174 758.92 100.054C758.782 99.935 758.708 99.7946 758.708 99.6513C758.708 99.508 758.782 99.3677 758.92 99.2483C759.059 99.1288 759.256 99.0363 759.487 98.9806C759.718 98.9258 759.972 98.9119 760.217 98.9398C760.462 98.9676 760.687 99.0363 760.863 99.1378C761.1 99.2741 761.232 99.4593 761.232 99.6513C761.232 99.8434 761.1 100.028 760.863 100.164Z" fill="#830833"/>
<path d="M748.943 103.469C748.477 103.739 747.883 103.923 747.235 103.999C746.587 104.073 745.915 104.036 745.304 103.892C744.692 103.748 744.169 103.503 743.801 103.187C743.432 102.872 743.235 102.502 743.234 102.122C743.233 101.741 743.428 101.37 743.794 101.055C744.161 100.738 744.683 100.492 745.293 100.346C745.904 100.201 746.576 100.163 747.224 100.237C747.872 100.311 748.468 100.494 748.935 100.763C749.558 101.122 749.908 101.608 749.909 102.115C749.911 102.622 749.563 103.109 748.943 103.469Z" fill="#830833"/>
<path d="M758.845 97.8282C758.668 97.9287 758.443 97.9984 758.198 98.0263C757.953 98.0541 757.699 98.0402 757.468 97.9855C757.238 97.9297 757.04 97.8372 756.902 97.7177C756.763 97.5983 756.689 97.458 756.689 97.3147C756.689 97.1714 756.763 97.031 756.902 96.9116C757.04 96.7922 757.238 96.6996 757.468 96.6439C757.699 96.5891 757.953 96.5752 758.198 96.6031C758.443 96.6309 758.668 96.7006 758.845 96.8021C759.081 96.9375 759.213 97.1226 759.213 97.3147C759.213 97.5067 759.081 97.6919 758.845 97.8282Z" fill="#830833"/>
<path d="M756.078 99.2891C755.901 99.3906 755.675 99.4603 755.43 99.4881C755.184 99.516 754.93 99.5011 754.699 99.4453C754.468 99.3906 754.271 99.2961 754.132 99.1766C753.994 99.0562 753.921 98.9159 753.923 98.7716C753.924 98.6283 754 98.4879 754.14 98.3685C754.281 98.2501 754.48 98.1575 754.712 98.1038C754.944 98.049 755.199 98.0361 755.444 98.066C755.689 98.0948 755.913 98.1655 756.088 98.269C756.321 98.4053 756.45 98.5894 756.448 98.7805C756.446 98.9716 756.313 99.1537 756.078 99.2891Z" fill="#830833"/>
<path d="M755.836 96.0982C755.659 96.1997 755.434 96.2694 755.189 96.2973C754.944 96.3251 754.69 96.3112 754.459 96.2555C754.229 96.2007 754.031 96.1082 753.893 95.9887C753.754 95.8693 753.68 95.729 753.68 95.5857C753.68 95.4423 753.754 95.302 753.893 95.1826C754.031 95.0632 754.229 94.9706 754.459 94.9149C754.69 94.8601 754.944 94.8462 755.189 94.8741C755.434 94.9019 755.659 94.9706 755.836 95.0721C756.072 95.2085 756.204 95.3936 756.204 95.5857C756.204 95.7777 756.072 95.9629 755.836 96.0982Z" fill="#830833"/>
<path d="M753.282 97.6827C753.106 97.7842 752.881 97.8529 752.636 97.8807C752.391 97.9086 752.137 97.8947 751.906 97.8399C751.675 97.7852 751.478 97.6916 751.339 97.5722C751.201 97.4528 751.127 97.3125 751.127 97.1692C751.127 97.0258 751.201 96.8855 751.339 96.7661C751.478 96.6467 751.675 96.5541 751.906 96.4994C752.137 96.4446 752.391 96.4297 752.636 96.4576C752.881 96.4854 753.106 96.5551 753.282 96.6566C753.519 96.792 753.652 96.9771 753.652 97.1692C753.652 97.3622 753.519 97.5463 753.282 97.6827Z" fill="#830833"/>
<path d="M751.86 94.9317C751.684 95.0332 751.459 95.1029 751.214 95.1317C750.969 95.1596 750.715 95.1457 750.484 95.0909C750.253 95.0362 750.055 94.9436 749.916 94.8242C749.777 94.7048 749.703 94.5644 749.703 94.4211C749.702 94.2768 749.776 94.1365 749.915 94.0171C750.053 93.8976 750.251 93.8051 750.481 93.7494C750.712 93.6946 750.966 93.6807 751.211 93.7086C751.456 93.7364 751.682 93.8051 751.858 93.9066C752.095 94.043 752.228 94.2271 752.228 94.4191C752.229 94.6112 752.096 94.7953 751.86 94.9317Z" fill="#830833"/>
</g>
<path d="M907.72 46.4434L877.289 63.9273C872.567 66.6402 872.567 71.0386 877.289 73.7514L907.72 91.2353C912.442 93.9482 920.097 93.9482 924.819 91.2353L955.25 73.7514C959.972 71.0386 959.972 66.6402 955.25 63.9273L924.819 46.4434C920.097 43.7305 912.442 43.7305 907.72 46.4434Z" fill="#1A1B26" stroke="#1A1B26" stroke-width="0.50625"/>
<mask id="mask28_22110_229011" style="mask-type:luminance" maskUnits="userSpaceOnUse" x="887" y="52" width="58" height="34">
<path d="M916.269 52.3857L887.631 68.8394L916.269 85.2931L944.907 68.8394L916.269 52.3857Z" fill="white"/>
</mask>
<g mask="url(#mask28_22110_229011)">
<path d="M927.225 75.0129C925.454 76.0323 923.276 76.788 920.881 77.2142C918.486 77.6405 915.946 77.7245 913.482 77.4589C911.017 77.1933 908.703 76.5861 906.74 75.6902C904.776 74.7942 903.223 73.6365 902.215 72.3175C901.207 70.9984 900.775 69.5581 900.955 68.1211C901.136 66.6843 901.924 65.2946 903.251 64.0725C904.579 62.8503 906.405 61.8328 908.572 61.1082C910.739 60.3836 913.181 59.9737 915.687 59.9143L915.806 62.9536C913.85 63.0108 911.964 63.3927 910.378 64.0532C908.792 64.7135 907.574 65.6241 906.87 66.6744C906.167 67.7247 906.009 68.8698 906.415 69.9707C906.822 71.0716 907.775 72.0811 909.16 72.8768C910.545 73.6726 912.302 74.2205 914.219 74.4541C916.135 74.6877 918.128 74.5968 919.956 74.1926C921.784 73.7886 923.369 73.0884 924.518 72.1771C925.668 71.2659 926.332 70.1827 926.432 69.0587L931.722 69.1272C931.564 71.3441 929.958 73.4453 927.225 75.0129Z" fill="#830833"/>
<path d="M930.543 66.8452C930.366 66.9468 930.141 67.0158 929.896 67.0438C929.651 67.0719 929.397 67.0574 929.166 67.0026C928.936 66.9477 928.738 66.8546 928.6 66.7354C928.461 66.616 928.387 66.4757 928.387 66.3322C928.387 66.1887 928.461 66.0485 928.6 65.9291C928.738 65.8098 928.936 65.7169 929.166 65.6619C929.397 65.607 929.651 65.5927 929.896 65.6206C930.141 65.6487 930.366 65.7178 930.543 65.8192C930.779 65.9555 930.911 66.1399 930.911 66.3322C930.911 66.5246 930.779 66.709 930.543 66.8452Z" fill="#830833"/>
<path d="M918.622 70.1497C918.157 70.4194 917.562 70.6036 916.915 70.6791C916.267 70.7545 915.595 70.7177 914.983 70.5734C914.372 70.4291 913.849 70.1837 913.48 69.8685C913.112 69.5533 912.914 69.1822 912.913 68.8025C912.912 68.4227 913.107 68.0513 913.474 67.7353C913.84 67.4192 914.362 67.1729 914.973 67.0274C915.583 66.882 916.255 66.8439 916.904 66.918C917.552 66.9922 918.147 67.1753 918.614 67.444C919.237 67.8031 919.587 68.289 919.589 68.7959C919.59 69.3029 919.243 69.7895 918.622 70.1497Z" fill="#830833"/>
<path d="M928.524 64.5086C928.347 64.6101 928.122 64.6792 927.877 64.7071C927.632 64.7352 927.378 64.7208 927.148 64.6659C926.917 64.611 926.72 64.5179 926.581 64.3987C926.442 64.2794 926.368 64.139 926.368 63.9955C926.368 63.852 926.442 63.7118 926.581 63.5925C926.72 63.4731 926.917 63.3802 927.148 63.3253C927.378 63.2703 927.632 63.256 927.877 63.2839C928.122 63.3119 928.347 63.3811 928.524 63.4825C928.76 63.6188 928.893 63.8033 928.893 63.9955C928.893 64.1879 928.76 64.3723 928.524 64.5086Z" fill="#830833"/>
<path d="M925.758 65.9701C925.581 66.0718 925.355 66.141 925.109 66.1688C924.864 66.1967 924.609 66.182 924.378 66.1265C924.147 66.0711 923.95 65.9775 923.812 65.8575C923.674 65.7376 923.601 65.5968 923.602 65.453C923.603 65.3091 923.679 65.1687 923.82 65.0497C923.96 64.9307 924.159 64.8383 924.391 64.7844C924.623 64.7304 924.878 64.7174 925.123 64.7468C925.368 64.7762 925.593 64.8469 925.768 64.9497C926 65.0862 926.129 65.27 926.128 65.461C926.126 65.6521 925.993 65.8349 925.758 65.9701Z" fill="#830833"/>
<path d="M925.515 62.7799C925.338 62.8813 925.113 62.9504 924.868 62.9784C924.623 63.0064 924.37 62.992 924.139 62.9371C923.908 62.8822 923.711 62.7892 923.572 62.6699C923.433 62.5506 923.359 62.4103 923.359 62.2668C923.359 62.1233 923.433 61.983 923.572 61.8638C923.711 61.7444 923.908 61.6514 924.139 61.5964C924.37 61.5416 924.623 61.5272 924.868 61.5552C925.113 61.5832 925.338 61.6523 925.515 61.7538C925.751 61.89 925.884 62.0745 925.884 62.2668C925.884 62.4591 925.751 62.6435 925.515 62.7799Z" fill="#830833"/>
<path d="M922.962 64.3636C922.785 64.465 922.56 64.5342 922.315 64.5621C922.07 64.5901 921.816 64.5758 921.585 64.5208C921.355 64.4659 921.157 64.373 921.019 64.2536C920.88 64.1343 920.806 63.9941 920.806 63.8506C920.806 63.707 920.88 63.5667 921.019 63.4475C921.157 63.3282 921.355 63.2351 921.585 63.1803C921.816 63.1253 922.07 63.1109 922.315 63.139C922.56 63.1669 922.785 63.236 922.962 63.3375C923.198 63.4736 923.331 63.6581 923.331 63.8506C923.331 64.0429 923.198 64.2276 922.962 64.3636Z" fill="#830833"/>
<path d="M921.539 61.6132C921.363 61.7149 921.138 61.7842 920.893 61.8126C920.648 61.8409 920.394 61.8267 920.163 61.772C919.932 61.7173 919.735 61.6244 919.596 61.5052C919.456 61.386 919.382 61.2456 919.382 61.102C919.381 60.9585 919.455 60.8181 919.594 60.6987C919.733 60.5792 919.93 60.4861 920.161 60.4311C920.391 60.3761 920.645 60.3617 920.891 60.3896C921.136 60.4176 921.361 60.4867 921.537 60.5882C921.774 60.7241 921.907 60.9083 921.907 61.1004C921.908 61.2926 921.775 61.477 921.539 61.6132Z" fill="#830833"/>
</g>
<path d="M735.534 212.009L705.103 229.492C700.381 232.205 700.381 236.604 705.103 239.317L735.534 256.801C740.256 259.513 747.911 259.513 752.633 256.801L783.064 239.317C787.786 236.604 787.786 232.205 783.064 229.492L752.633 212.009C747.911 209.296 740.256 209.296 735.534 212.009Z" fill="#1A1B26" stroke="#1A1B26" stroke-width="0.50625"/>
<mask id="mask29_22110_229011" style="mask-type:luminance" maskUnits="userSpaceOnUse" x="715" y="217" width="58" height="34">
<path d="M744.084 217.951L715.446 234.405L744.084 250.858L772.722 234.405L744.084 217.951Z" fill="white"/>
</mask>
<g mask="url(#mask29_22110_229011)">
<path d="M755.04 240.578C753.268 241.598 751.091 242.354 748.696 242.78C746.301 243.206 743.761 243.29 741.296 243.024C738.832 242.759 736.518 242.152 734.554 241.256C732.591 240.36 731.038 239.202 730.03 237.883C729.022 236.564 728.589 235.123 728.77 233.687C728.95 232.25 729.739 230.86 731.066 229.638C732.393 228.415 734.22 227.398 736.387 226.674C738.554 225.949 740.996 225.539 743.501 225.479L743.621 228.519C741.664 228.577 739.779 228.958 738.193 229.619C736.607 230.279 735.388 231.19 734.685 232.24C733.981 233.29 733.823 234.436 734.23 235.536C734.636 236.637 735.59 237.647 736.975 238.442C738.36 239.238 740.117 239.786 742.033 240.02C743.949 240.254 745.942 240.162 747.77 239.758C749.599 239.354 751.183 238.654 752.333 237.743C753.482 236.831 754.147 235.748 754.246 234.625L759.536 234.693C759.378 236.91 757.773 239.011 755.04 240.578Z" fill="#830833"/>
<path d="M758.357 232.411C758.181 232.513 757.956 232.582 757.711 232.61C757.466 232.637 757.212 232.623 756.981 232.569C756.75 232.514 756.553 232.42 756.414 232.301C756.276 232.182 756.202 232.041 756.202 231.898C756.202 231.755 756.276 231.614 756.414 231.495C756.553 231.375 756.75 231.283 756.981 231.228C757.212 231.173 757.466 231.158 757.711 231.186C757.956 231.214 758.181 231.284 758.357 231.385C758.593 231.522 758.726 231.706 758.726 231.898C758.726 232.09 758.593 232.275 758.357 232.411Z" fill="#830833"/>
<path d="M746.437 235.716C745.971 235.985 745.377 236.169 744.729 236.245C744.081 236.321 743.409 236.284 742.798 236.14C742.186 235.995 741.663 235.749 741.294 235.434C740.926 235.119 740.729 234.748 740.728 234.368C740.726 233.989 740.922 233.617 741.288 233.301C741.655 232.985 742.177 232.739 742.787 232.594C743.398 232.448 744.07 232.409 744.718 232.484C745.366 232.558 745.962 232.741 746.429 233.01C747.051 233.369 747.402 233.855 747.403 234.362C747.405 234.869 747.057 235.355 746.437 235.716Z" fill="#830833"/>
<path d="M756.338 230.075C756.162 230.176 755.937 230.245 755.692 230.273C755.447 230.301 755.193 230.287 754.962 230.232C754.732 230.177 754.534 230.084 754.396 229.964C754.257 229.845 754.183 229.706 754.183 229.561C754.183 229.418 754.257 229.278 754.396 229.158C754.534 229.039 754.732 228.946 754.962 228.891C755.193 228.837 755.447 228.822 755.692 228.85C755.937 228.878 756.162 228.947 756.338 229.049C756.575 229.185 756.707 229.369 756.707 229.561C756.707 229.754 756.575 229.938 756.338 230.075Z" fill="#830833"/>
<path d="M753.572 231.535C753.395 231.638 753.169 231.707 752.924 231.735C752.678 231.762 752.424 231.747 752.193 231.693C751.962 231.637 751.764 231.543 751.626 231.423C751.488 231.304 751.415 231.162 751.416 231.019C751.418 230.875 751.494 230.734 751.634 230.616C751.775 230.496 751.974 230.404 752.206 230.35C752.438 230.296 752.693 230.283 752.938 230.312C753.183 230.342 753.407 230.413 753.582 230.515C753.815 230.652 753.944 230.836 753.942 231.027C753.94 231.218 753.807 231.401 753.572 231.535Z" fill="#830833"/>
<path d="M753.329 228.346C753.153 228.447 752.928 228.516 752.683 228.544C752.438 228.572 752.184 228.558 751.953 228.503C751.723 228.448 751.525 228.355 751.387 228.235C751.248 228.116 751.174 227.976 751.174 227.832C751.174 227.689 751.248 227.549 751.387 227.429C751.525 227.31 751.723 227.217 751.953 227.162C752.184 227.108 752.438 227.093 752.683 227.121C752.928 227.149 753.153 227.218 753.329 227.32C753.566 227.456 753.698 227.64 753.698 227.832C753.698 228.025 753.566 228.209 753.329 228.346Z" fill="#830833"/>
<path d="M750.776 229.929C750.6 230.031 750.375 230.099 750.13 230.128C749.885 230.156 749.631 230.141 749.4 230.086C749.169 230.032 748.972 229.939 748.833 229.82C748.695 229.7 748.62 229.56 748.62 229.417C748.62 229.272 748.695 229.132 748.833 229.014C748.972 228.894 749.169 228.801 749.4 228.746C749.631 228.691 749.885 228.676 750.13 228.705C750.375 228.733 750.6 228.802 750.776 228.903C751.013 229.039 751.146 229.224 751.146 229.417C751.146 229.609 751.013 229.793 750.776 229.929Z" fill="#830833"/>
<path d="M749.354 227.178C749.178 227.281 748.953 227.349 748.708 227.378C748.463 227.406 748.209 227.392 747.978 227.337C747.747 227.283 747.549 227.19 747.41 227.071C747.271 226.951 747.197 226.811 747.196 226.668C747.196 226.524 747.27 226.384 747.409 226.265C747.547 226.145 747.745 226.052 747.975 225.997C748.206 225.941 748.46 225.927 748.705 225.955C748.95 225.983 749.175 226.053 749.352 226.154C749.589 226.289 749.722 226.474 749.722 226.666C749.722 226.858 749.59 227.043 749.354 227.178Z" fill="#830833"/>
</g>
<path d="M794.958 47.0603L764.527 64.5442C759.806 67.2571 759.806 71.6555 764.527 74.3683L794.958 91.8523C799.68 94.5651 807.335 94.5651 812.057 91.8523L842.488 74.3683C847.21 71.6555 847.21 67.2571 842.488 64.5442L812.057 47.0603C807.335 44.3475 799.68 44.3475 794.958 47.0603Z" fill="#1A1B26" stroke="#1A1B26" stroke-width="0.50625"/>
<mask id="mask30_22110_229011" style="mask-type:luminance" maskUnits="userSpaceOnUse" x="774" y="53" width="59" height="33">
<path d="M803.508 53.0028L774.87 69.4565L803.508 85.9102L832.146 69.4565L803.508 53.0028Z" fill="white"/>
</mask>
<g mask="url(#mask30_22110_229011)">
<path d="M782.427 70.0276L814.831 76.0081L804.502 57.3445L782.427 70.0276ZM800.212 69.5739L798.46 70.5806L796.708 69.5739L798.46 68.5674L800.212 69.5739ZM797.583 68.0634L795.831 69.07L794.081 68.0646L795.833 67.0579L797.583 68.0634ZM805.466 69.5739L803.714 70.5806L801.962 69.5739L803.714 68.5674L805.466 69.5739ZM802.839 68.0646L801.087 69.0712L799.335 68.0646L801.087 67.0579L802.839 68.0646ZM800.21 66.554L798.458 67.5607L796.708 66.5552L798.46 65.5485L800.21 66.554ZM805.452 66.5632L803.7 67.5698L801.948 66.5632L803.7 65.5565L805.452 66.5632ZM801.071 66.0593L799.321 65.0537L801.073 64.0471L802.823 65.0526L801.071 66.0593Z" fill="#8F7D09"/>
</g>
<path d="M792.452 179.307L762.021 196.791C757.299 199.503 757.299 203.902 762.021 206.615L792.452 224.099C797.174 226.811 804.829 226.811 809.551 224.099L839.982 206.615C844.704 203.902 844.704 199.503 839.982 196.791L809.551 179.307C804.829 176.594 797.174 176.594 792.452 179.307Z" fill="#1A1B26" stroke="#1A1B26" stroke-width="0.50625"/>
<mask id="mask31_22110_229011" style="mask-type:luminance" maskUnits="userSpaceOnUse" x="772" y="185" width="58" height="34">
<path d="M801.002 185.249L772.364 201.703L801.002 218.157L829.64 201.703L801.002 185.249Z" fill="white"/>
</mask>
<g mask="url(#mask31_22110_229011)">
<path d="M779.921 202.274L812.326 208.255L801.996 189.591L779.921 202.274ZM797.706 201.821L795.954 202.827L794.202 201.821L795.954 200.814L797.706 201.821ZM795.077 200.31L793.325 201.316L791.575 200.311L793.327 199.304L795.077 200.31ZM802.961 201.821L801.209 202.827L799.457 201.821L801.209 200.814L802.961 201.821ZM800.334 200.311L798.581 201.317L796.829 200.311L798.581 199.304L800.334 200.311ZM797.704 198.8L795.952 199.808L794.202 198.801L795.954 197.795L797.704 198.8ZM802.947 198.809L801.195 199.817L799.443 198.809L801.195 197.803L802.947 198.809ZM798.566 198.306L796.815 197.301L798.568 196.293L800.318 197.3L798.566 198.306Z" fill="#8F7D09"/>
</g>
<path d="M851.876 14.3587L821.445 31.8426C816.723 34.5554 816.723 38.9538 821.445 41.6667L851.876 59.1506C856.598 61.8635 864.253 61.8635 868.975 59.1506L899.406 41.6667C904.128 38.9538 904.128 34.5554 899.406 31.8426L868.975 14.3587C864.253 11.6458 856.598 11.6458 851.876 14.3587Z" fill="#1A1B26" stroke="#1A1B26" stroke-width="0.50625"/>
<mask id="mask32_22110_229011" style="mask-type:luminance" maskUnits="userSpaceOnUse" x="831" y="20" width="59" height="34">
<path d="M860.426 20.3012L831.788 36.7549L860.426 53.2086L889.064 36.7549L860.426 20.3012Z" fill="white"/>
</mask>
<g mask="url(#mask32_22110_229011)">
<path d="M865.727 46.01L864.083 45.0651L867.499 43.102L866.483 42.5182L864.826 43.47L863.172 42.5193L870.993 38.0254L861.068 36.4977L858.407 30.7938L850.39 35.3997L859.119 40.4146L854.803 42.8941L841.761 35.4009L856.611 26.8689L863.381 27.911L866.051 33.6343L876.214 35.1997L877.974 38.9738L865.727 46.01Z" fill="#731316"/>
<path d="M862.076 43.1489L860.421 44.0996L862.076 45.0503L863.73 44.0996L862.076 43.1489Z" fill="#731316"/>
<path d="M862.975 45.6877L861.32 46.6385L862.975 47.5891L864.63 46.6385L862.975 45.6877Z" fill="#731316"/>
</g>
<path d="M849.37 146.605L818.939 164.089C814.217 166.802 814.217 171.2 818.939 173.913L849.37 191.397C854.092 194.11 861.747 194.11 866.469 191.397L896.9 173.913C901.622 171.2 901.622 166.802 896.9 164.089L866.469 146.605C861.747 143.892 854.092 143.892 849.37 146.605Z" fill="#1A1B26" stroke="#1A1B26" stroke-width="0.50625"/>
<mask id="mask33_22110_229011" style="mask-type:luminance" maskUnits="userSpaceOnUse" x="829" y="152" width="58" height="34">
<path d="M857.92 152.548L829.282 169.001L857.92 185.455L886.558 169.001L857.92 152.548Z" fill="white"/>
</mask>
<g mask="url(#mask33_22110_229011)">
<path d="M863.222 178.256L861.577 177.311L864.994 175.348L863.977 174.765L862.321 175.716L860.666 174.766L868.488 170.271L858.562 168.744L855.901 163.04L847.885 167.646L856.613 172.661L852.298 175.14L839.255 167.647L854.105 159.115L860.875 160.157L863.546 165.88L873.708 167.446L875.468 171.22L863.222 178.256Z" fill="#731316"/>
<path d="M859.57 175.395L857.916 176.346L859.57 177.296L861.225 176.346L859.57 175.395Z" fill="#731316"/>
<path d="M860.469 177.933L858.815 178.885L860.469 179.835L862.124 178.885L860.469 177.933Z" fill="#731316"/>
</g>
<path d="M906.288 113.903L875.857 131.387C871.135 134.1 871.135 138.498 875.857 141.211L906.288 158.695C911.01 161.408 918.665 161.408 923.387 158.695L953.818 141.211C958.54 138.498 958.54 134.1 953.818 131.387L923.387 113.903C918.665 111.19 911.01 111.19 906.288 113.903Z" fill="#1A1B26" stroke="#1A1B26" stroke-width="0.50625"/>
<mask id="mask34_22110_229011" style="mask-type:luminance" maskUnits="userSpaceOnUse" x="886" y="119" width="58" height="34">
<path d="M914.838 119.846L886.2 136.299L914.838 152.753L943.476 136.299L914.838 119.846Z" fill="white"/>
</mask>
<g mask="url(#mask34_22110_229011)">
<path d="M903.303 129.672L899.081 138.726L910.615 145.352L926.372 142.926L930.594 133.874L919.06 127.247L903.303 129.672ZM920.438 134.402L919.314 136.815L914.348 137.657L918.024 139.769L916.918 142.607L909.233 138.191L910.164 135.97L915.245 135.066L911.493 132.91L912.767 129.986L920.438 134.402Z" fill="#237FA7"/>
</g>
<path d="M567.646 178.073L537.215 195.556C532.494 198.269 532.494 202.668 537.215 205.381L567.646 222.864C572.368 225.577 580.023 225.577 584.745 222.864L615.176 205.381C619.898 202.668 619.898 198.269 615.176 195.556L584.745 178.073C580.023 175.36 572.368 175.36 567.646 178.073Z" fill="#1A1B26" stroke="#1A1B26" stroke-width="0.50625"/>
<mask id="mask35_22110_229011" style="mask-type:luminance" maskUnits="userSpaceOnUse" x="547" y="184" width="58" height="33">
<path d="M576.195 184.015L547.557 200.469L576.195 216.922L604.833 200.469L576.195 184.015Z" fill="white"/>
</mask>
<g mask="url(#mask35_22110_229011)">
<path d="M563.536 195.173L559.888 202.982L559.892 202.984L571.834 209.846L576.942 209.06L564.996 202.196L567.272 197.319L563.536 195.173Z" fill="#B2B6BD"/>
<path d="M566.978 193.195L576.491 198.661L573.049 200.639L569.499 198.599L568.129 201.534L580.317 208.538L585.431 207.753L575.945 202.302L579.386 200.325L582.913 202.351L584.281 199.417L572.085 192.409L566.978 193.195Z" fill="#B2B6BD"/>
<path d="M588.876 205.777L592.524 197.968L592.52 197.966L580.578 191.104L575.469 191.892L587.415 198.755L585.14 203.631L588.876 205.777Z" fill="#B2B6BD"/>
</g>
<path d="M737.324 144.754L706.893 162.238C702.171 164.951 702.171 169.349 706.893 172.062L737.324 189.546C742.046 192.259 749.701 192.259 754.423 189.546L784.854 172.062C789.576 169.349 789.576 164.951 784.854 162.238L754.423 144.754C749.701 142.041 742.046 142.041 737.324 144.754Z" fill="#1A1B26" stroke="#1A1B26" stroke-width="0.50625"/>
<mask id="mask36_22110_229011" style="mask-type:luminance" maskUnits="userSpaceOnUse" x="717" y="150" width="58" height="34">
<path d="M745.874 150.697L717.236 167.15L745.874 183.604L774.512 167.15L745.874 150.697Z" fill="white"/>
</mask>
<g mask="url(#mask36_22110_229011)">
<path d="M733.215 161.854L729.567 169.664L729.571 169.666L741.513 176.527L746.621 175.741L734.675 168.878L736.951 164L733.215 161.854Z" fill="#B2B6BD"/>
<path d="M736.657 159.877L746.17 165.343L742.728 167.321L739.179 165.28L737.808 168.216L749.996 175.219L755.11 174.433L745.624 168.984L749.065 167.007L752.592 169.032L753.96 166.098L741.765 159.091L736.657 159.877Z" fill="#B2B6BD"/>
<path d="M758.555 172.459L762.204 164.649L762.2 164.646L750.258 157.785L745.148 158.572L757.094 165.436L754.82 170.312L758.555 172.459Z" fill="#B2B6BD"/>
</g>
<path d="M564.946 244.555L534.515 262.039C529.794 264.751 529.794 269.15 534.515 271.863L564.946 289.347C569.668 292.06 577.323 292.059 582.045 289.347L612.476 271.863C617.198 269.15 617.198 264.751 612.476 262.039L582.045 244.555C577.323 241.842 569.668 241.842 564.946 244.555Z" fill="#1A1B26" stroke="#1A1B26" stroke-width="0.50625"/>
<mask id="mask37_22110_229011" style="mask-type:luminance" maskUnits="userSpaceOnUse" x="544" y="250" width="59" height="34">
<path d="M573.495 250.497L544.857 266.951L573.495 283.405L602.133 266.951L573.495 250.497Z" fill="white"/>
</mask>
<g mask="url(#mask37_22110_229011)">
<path d="M560.837 261.654L557.188 269.465L557.192 269.467L569.134 276.328L574.242 275.541L562.296 268.678L564.572 263.801L560.837 261.654Z" fill="#B2B6BD"/>
<path d="M564.278 259.678L573.791 265.143L570.35 267.12L566.8 265.081L565.429 268.017L577.617 275.019L582.731 274.234L573.245 268.784L576.686 266.806L580.213 268.833L581.581 265.898L569.386 258.891L564.278 259.678Z" fill="#B2B6BD"/>
<path d="M586.176 272.259L589.825 264.45L589.821 264.447L577.879 257.586L572.769 258.373L584.715 265.237L582.441 270.113L586.176 272.259Z" fill="#B2B6BD"/>
</g>
</g>
<path d="M516.834 48.324L482.226 68.2073C476.854 71.2939 476.854 76.2983 482.226 79.385L516.834 99.2683C522.206 102.355 530.916 102.355 536.288 99.2683L570.895 79.385C576.268 76.2983 576.268 71.2939 570.895 68.2073L536.288 48.324C530.916 45.2374 522.206 45.2374 516.834 48.324Z" fill="#0C0C0E" stroke="#1A1B26" stroke-width="0.576"/>
<path fill-rule="evenodd" clip-rule="evenodd" d="M526.5 103.371V241.631L576 213.349V76.3928C575.618 78.1038 574.276 79.7583 571.976 81.0724L537.071 101.013C534.165 102.674 530.307 103.46 526.5 103.371Z" fill="url(#paint0_linear_22110_229011)" fill-opacity="0.6"/>
<path fill-rule="evenodd" clip-rule="evenodd" d="M526.5 103.371V241.631L477 213.349V76.3928C477.382 78.1038 478.724 79.7583 481.024 81.0724L515.929 101.013C518.835 102.674 522.693 103.46 526.5 103.371Z" fill="url(#paint1_linear_22110_229011)" fill-opacity="0.6"/>
<path fill-rule="evenodd" clip-rule="evenodd" d="M465.5 139.093V277.353L515 249.07V112.114C514.618 113.825 513.276 115.48 510.976 116.794L476.071 136.735C473.165 138.396 469.307 139.181 465.5 139.093Z" fill="url(#paint2_linear_22110_229011)" fill-opacity="0.6"/>
<path fill-rule="evenodd" clip-rule="evenodd" d="M465.5 139.093V277.353L416 249.07V112.114C416.382 113.825 417.724 115.48 420.024 116.794L454.929 136.735C457.835 138.396 461.693 139.181 465.5 139.093Z" fill="url(#paint3_linear_22110_229011)" fill-opacity="0.6"/>
<path d="M455.834 84.1516L421.226 104.035C415.854 107.122 415.854 112.126 421.226 115.213L455.834 135.096C461.206 138.183 469.916 138.183 475.288 135.096L509.895 115.213C515.268 112.126 515.268 107.122 509.895 104.035L475.288 84.1516C469.916 81.065 461.206 81.065 455.834 84.1516Z" fill="#0C0C0E" stroke="#1A1B26" stroke-width="0.576"/>
<path fill-rule="evenodd" clip-rule="evenodd" d="M455.791 108.292L457.246 109.128L460.907 107.025L459.453 106.189C457.685 105.173 457.755 103.487 459.609 102.422C461.462 101.357 464.398 101.316 466.165 102.332C467.933 103.347 467.863 105.034 466.009 106.099L464.483 106.976L467.975 108.981L469.5 108.104C471.354 107.039 474.289 107 476.057 108.015C477.824 109.03 477.754 110.717 475.9 111.782C474.047 112.847 471.111 112.887 469.344 111.871L467.889 111.036L464.228 113.139L465.682 113.975C467.45 114.99 467.38 116.677 465.526 117.742C463.673 118.807 460.737 118.848 458.97 117.832C457.202 116.817 457.272 115.13 459.126 114.065L460.652 113.189L457.16 111.183L455.635 112.059C453.781 113.124 450.846 113.164 449.078 112.149C447.311 111.134 447.381 109.447 449.235 108.382C451.088 107.317 454.024 107.276 455.791 108.292ZM450.98 109.385C450.138 109.869 450.106 110.635 450.909 111.097C451.712 111.559 453.047 111.541 453.889 111.056L455.415 110.179L453.96 109.344C453.157 108.883 451.823 108.901 450.98 109.385ZM469.72 109.984L471.175 110.819C471.978 111.281 473.312 111.263 474.155 110.779C474.998 110.295 475.029 109.529 474.226 109.067C473.423 108.605 472.088 108.624 471.246 109.108L469.72 109.984ZM466.144 110.033L462.653 108.027L458.991 110.131L462.482 112.137L466.144 110.033ZM460.871 115.068L462.397 114.191L463.852 115.027C464.655 115.489 464.623 116.255 463.781 116.739C462.938 117.224 461.604 117.242 460.8 116.78C459.997 116.319 460.029 115.552 460.871 115.068ZM462.738 105.973L464.264 105.096C465.106 104.612 465.138 103.845 464.335 103.384C463.531 102.922 462.197 102.94 461.354 103.425C460.512 103.909 460.48 104.675 461.283 105.137L462.738 105.973Z" fill="#EFEFF1"/>
<path d="M533.532 79.1386L528.101 76.0186L527.853 73.7741L540.825 74.9482L543.986 73.1319L527.92 71.7633L527.153 64.083L524.161 65.802L525.12 74.0985L524.94 74.2023L517.24 69.7783L514.711 71.2313L531.003 80.5916L533.532 79.1386Z" fill="#EFEFF1"/>
</g>
</g>
<defs>
<filter id="filter0_f_22110_229011" x="451.974" y="20.8062" width="147.466" height="105.999" filterUnits="userSpaceOnUse" color-interpolation-filters="sRGB">
<feFlood flood-opacity="0" result="BackgroundImageFix"/>
<feBlend mode="normal" in="SourceGraphic" in2="BackgroundImageFix" result="shape"/>
<feGaussianBlur stdDeviation="12.5" result="effect1_foregroundBlur_22110_229011"/>
</filter>
<filter id="filter1_f_22110_229011" x="388.974" y="56.634" width="147.466" height="105.999" filterUnits="userSpaceOnUse" color-interpolation-filters="sRGB">
<feFlood flood-opacity="0" result="BackgroundImageFix"/>
<feBlend mode="normal" in="SourceGraphic" in2="BackgroundImageFix" result="shape"/>
<feGaussianBlur stdDeviation="12.5" result="effect1_foregroundBlur_22110_229011"/>
</filter>
<linearGradient id="paint0_linear_22110_229011" x1="546.963" y1="46.7278" x2="547.127" y2="117.59" gradientUnits="userSpaceOnUse">
<stop offset="0.574973" stop-color="#1D3672"/>
<stop offset="1" stop-color="#0C0C0E" stop-opacity="0"/>
</linearGradient>
<linearGradient id="paint1_linear_22110_229011" x1="506.037" y1="46.7278" x2="506.377" y2="112.112" gradientUnits="userSpaceOnUse">
<stop offset="0.200926" stop-color="#2F59EF"/>
<stop offset="1" stop-color="#3059E9" stop-opacity="0"/>
</linearGradient>
<linearGradient id="paint2_linear_22110_229011" x1="485.963" y1="82.4493" x2="486.127" y2="153.312" gradientUnits="userSpaceOnUse">
<stop offset="0.574973" stop-color="#1D3672"/>
<stop offset="1" stop-color="#0C0C0E" stop-opacity="0"/>
</linearGradient>
<linearGradient id="paint3_linear_22110_229011" x1="445.037" y1="82.4493" x2="445.377" y2="147.834" gradientUnits="userSpaceOnUse">
<stop offset="0.200926" stop-color="#2F59EF"/>
<stop offset="1" stop-color="#3059E9" stop-opacity="0"/>
</linearGradient>
<clipPath id="clip0_22110_229011">
<rect width="984" height="414" fill="white"/>
</clipPath>
</defs>
</svg>
