<svg width="985" height="428" viewBox="0 0 985 428" fill="none" xmlns="http://www.w3.org/2000/svg">
<g clip-path="url(#clip0_22107_228988)">
<g filter="url(#filter0_f_22107_228988)">
<rect width="63.0191" height="63.0191" rx="11.52" transform="matrix(0.866044 -0.499967 0.866044 0.499967 472.13 67.1597)" fill="#51579B"/>
</g>
<g filter="url(#filter1_f_22107_228988)">
<rect width="63.0191" height="63.0191" rx="11.52" transform="matrix(0.866044 -0.499967 0.866044 0.499967 409.13 103.16)" fill="#51579B"/>
</g>
<g opacity="0.2">
<rect x="0.438435" width="54.8816" height="54.8816" rx="9.87187" transform="matrix(0.866044 -0.499967 0.866044 0.499967 75.2445 325.876)" fill="#1A1B26" stroke="#1A1B26" stroke-width="0.50625"/>
<g clip-path="url(#clip1_22107_228988)">
<path fill-rule="evenodd" clip-rule="evenodd" d="M112.115 323.068L122.452 321.468L130.021 325.838L119.682 327.437L112.115 323.068Z" fill="#633691"/>
<path fill-rule="evenodd" clip-rule="evenodd" d="M123.17 321.053L130.739 325.423L133.507 319.455L125.94 315.087L123.17 321.053Z" fill="#633691"/>
<path fill-rule="evenodd" clip-rule="evenodd" d="M100.62 324.827L108.187 329.196L118.524 327.598L110.957 323.229L100.62 324.827Z" fill="#633691"/>
<path fill-rule="evenodd" clip-rule="evenodd" d="M128.078 332.284L138.416 330.686L130.898 326.346L130.848 326.317L120.511 327.916L128.078 332.284Z" fill="#633691"/>
</g>
<rect x="0.438435" width="54.8816" height="54.8816" rx="9.87187" transform="matrix(0.866044 -0.499967 0.866044 0.499967 244.923 292.398)" fill="#1A1B26" stroke="#1A1B26" stroke-width="0.50625"/>
<g clip-path="url(#clip2_22107_228988)">
<path fill-rule="evenodd" clip-rule="evenodd" d="M281.794 289.59L292.131 287.99L299.7 292.359L289.361 293.959L281.794 289.59Z" fill="#633691"/>
<path fill-rule="evenodd" clip-rule="evenodd" d="M292.849 287.575L300.418 291.945L303.187 285.977L295.62 281.608L292.849 287.575Z" fill="#633691"/>
<path fill-rule="evenodd" clip-rule="evenodd" d="M270.299 291.349L277.866 295.717L288.203 294.119L280.636 289.751L270.299 291.349Z" fill="#633691"/>
<path fill-rule="evenodd" clip-rule="evenodd" d="M297.757 298.806L308.095 297.208L300.577 292.868L300.528 292.839L290.19 294.437L297.757 298.806Z" fill="#633691"/>
</g>
<rect x="0.438435" width="54.8816" height="54.8816" rx="9.87187" transform="matrix(0.866044 -0.499967 0.866044 0.499967 132.162 293.018)" fill="#1A1B26" stroke="#1A1B26" stroke-width="0.50625"/>
<g clip-path="url(#clip3_22107_228988)">
<path fill-rule="evenodd" clip-rule="evenodd" d="M163.659 291.799L175.939 289.903L192.521 299.476L180.241 301.371L163.659 291.799Z" fill="#237FA7"/>
<path d="M177.234 286.2L163.899 288.271L167.28 290.222L176.361 288.819L186.513 294.68L190.775 294.016C193.416 293.607 194.217 292.487 192.533 291.515L185.083 287.214C183.407 286.249 179.873 285.795 177.234 286.2Z" fill="#237FA7"/>
</g>
<rect x="0.438435" width="54.8816" height="54.8816" rx="9.87187" transform="matrix(0.866044 -0.499967 0.866044 0.499967 301.841 259.54)" fill="#1A1B26" stroke="#1A1B26" stroke-width="0.50625"/>
<g clip-path="url(#clip4_22107_228988)">
<path fill-rule="evenodd" clip-rule="evenodd" d="M333.338 258.32L345.618 256.425L362.2 265.997L349.92 267.893L333.338 258.32Z" fill="#237FA7"/>
<path d="M346.913 252.722L333.578 254.792L336.959 256.744L346.04 255.341L356.192 261.202L360.454 260.537C363.095 260.128 363.897 259.009 362.212 258.037L354.762 253.736C353.086 252.77 349.552 252.317 346.913 252.722Z" fill="#237FA7"/>
</g>
<rect x="0.438435" width="54.8816" height="54.8816" rx="9.87187" transform="matrix(0.866044 -0.499967 0.866044 0.499967 189.079 260.159)" fill="#1A1B26" stroke="#1A1B26" stroke-width="0.50625"/>
<g clip-path="url(#clip5_22107_228988)">
<path d="M247.945 266.144C246.173 267.168 243.996 267.927 241.601 268.355C239.206 268.784 236.666 268.868 234.201 268.601C231.737 268.334 229.423 267.724 227.459 266.824C225.496 265.924 223.943 264.761 222.935 263.435C221.927 262.11 221.494 260.663 221.675 259.219C221.856 257.775 222.644 256.379 223.971 255.151C225.298 253.923 227.125 252.9 229.292 252.172C231.459 251.444 233.901 251.032 236.406 250.973V250.973L236.526 254.026C234.569 254.084 232.684 254.468 231.098 255.131C229.512 255.795 228.293 256.71 227.59 257.765C226.886 258.82 226.728 259.971 227.135 261.077C227.541 262.183 228.495 263.198 229.88 263.997C231.265 264.797 233.022 265.347 234.938 265.582C236.854 265.817 238.847 265.725 240.675 265.319C242.504 264.913 244.088 264.21 245.238 263.294C246.387 262.379 247.052 261.29 247.151 260.161L252.442 260.23C252.283 262.457 250.678 264.568 247.945 266.144V266.144Z" fill="#830833"/>
<path d="M251.262 257.937C251.086 258.039 250.861 258.108 250.616 258.136C250.371 258.165 250.117 258.15 249.886 258.095C249.655 258.04 249.458 257.946 249.319 257.826C249.181 257.707 249.107 257.566 249.107 257.421C249.107 257.277 249.181 257.136 249.319 257.016C249.458 256.896 249.655 256.803 249.886 256.748C250.117 256.693 250.371 256.678 250.616 256.706C250.861 256.735 251.086 256.804 251.262 256.906C251.498 257.043 251.631 257.228 251.631 257.421C251.631 257.615 251.498 257.8 251.262 257.937V257.937Z" fill="#830833"/>
<path d="M239.342 261.257C238.876 261.528 238.282 261.713 237.634 261.789C236.986 261.865 236.314 261.828 235.703 261.683C235.091 261.538 234.568 261.291 234.2 260.975C233.831 260.658 233.634 260.285 233.633 259.903C233.631 259.522 233.827 259.149 234.193 258.831C234.56 258.514 235.082 258.266 235.692 258.12C236.303 257.974 236.975 257.935 237.623 258.01C238.271 258.084 238.867 258.268 239.334 258.538C239.956 258.899 240.307 259.388 240.308 259.897C240.31 260.406 239.962 260.895 239.342 261.257V261.257Z" fill="#830833"/>
<path d="M249.244 255.589C249.067 255.691 248.842 255.76 248.597 255.789C248.352 255.817 248.098 255.802 247.867 255.747C247.637 255.692 247.439 255.598 247.301 255.479C247.162 255.359 247.088 255.218 247.088 255.073C247.088 254.929 247.162 254.788 247.301 254.668C247.439 254.549 247.637 254.455 247.867 254.4C248.098 254.345 248.352 254.33 248.597 254.358C248.842 254.387 249.067 254.456 249.244 254.558C249.48 254.695 249.612 254.88 249.612 255.073C249.612 255.267 249.48 255.452 249.244 255.589Z" fill="#830833"/>
<path d="M246.477 257.058C246.3 257.16 246.074 257.229 245.829 257.257C245.583 257.285 245.329 257.27 245.098 257.215C244.867 257.159 244.67 257.065 244.531 256.944C244.393 256.824 244.32 256.682 244.321 256.538C244.323 256.393 244.399 256.252 244.539 256.133C244.68 256.013 244.879 255.92 245.111 255.866C245.343 255.812 245.598 255.799 245.843 255.828C246.088 255.858 246.312 255.929 246.487 256.032C246.72 256.169 246.849 256.354 246.847 256.546C246.845 256.738 246.712 256.922 246.477 257.058V257.058Z" fill="#830833"/>
<path d="M246.234 253.852C246.058 253.954 245.833 254.023 245.588 254.051C245.343 254.08 245.089 254.065 244.858 254.01C244.628 253.955 244.43 253.861 244.292 253.741C244.153 253.622 244.079 253.481 244.079 253.336C244.079 253.192 244.153 253.051 244.292 252.931C244.43 252.812 244.628 252.718 244.858 252.663C245.089 252.608 245.343 252.593 245.588 252.621C245.833 252.65 246.058 252.719 246.234 252.821C246.471 252.958 246.603 253.143 246.603 253.336C246.603 253.53 246.471 253.715 246.234 253.852Z" fill="#830833"/>
<path d="M243.681 255.443C243.505 255.545 243.28 255.615 243.035 255.643C242.79 255.671 242.536 255.656 242.305 255.601C242.074 255.546 241.877 255.453 241.738 255.333C241.6 255.213 241.526 255.072 241.526 254.928C241.526 254.784 241.6 254.643 241.738 254.523C241.877 254.403 242.074 254.309 242.305 254.254C242.536 254.199 242.79 254.185 243.035 254.213C243.28 254.241 243.505 254.31 243.681 254.412C243.918 254.549 244.051 254.734 244.051 254.928C244.051 255.121 243.918 255.307 243.681 255.443V255.443Z" fill="#830833"/>
<path d="M242.259 252.68C242.083 252.782 241.858 252.852 241.613 252.88C241.368 252.908 241.114 252.894 240.883 252.839C240.652 252.784 240.454 252.691 240.315 252.571C240.176 252.451 240.102 252.31 240.101 252.166C240.101 252.022 240.175 251.881 240.314 251.761C240.452 251.641 240.65 251.547 240.88 251.492C241.111 251.437 241.365 251.422 241.61 251.45C241.855 251.478 242.081 251.548 242.257 251.65C242.494 251.786 242.627 251.971 242.627 252.164C242.627 252.358 242.495 252.543 242.259 252.68Z" fill="#830833"/>
</g>
<rect x="0.438435" width="54.8816" height="54.8816" rx="9.87187" transform="matrix(0.866044 -0.499967 0.866044 0.499967 358.759 226.681)" fill="#1A1B26" stroke="#1A1B26" stroke-width="0.50625"/>
<g clip-path="url(#clip6_22107_228988)">
<path d="M417.624 232.665C415.853 233.69 413.675 234.449 411.28 234.877C408.885 235.306 406.345 235.39 403.881 235.123C401.416 234.856 399.102 234.246 397.139 233.346C395.175 232.446 393.622 231.282 392.614 229.957C391.606 228.632 391.174 227.184 391.354 225.741C391.535 224.297 392.323 222.9 393.65 221.672C394.978 220.444 396.804 219.422 398.971 218.694C401.138 217.966 403.58 217.554 406.086 217.494V217.494L406.205 220.548C404.249 220.606 402.363 220.989 400.777 221.653C399.191 222.317 397.973 223.231 397.269 224.287C396.566 225.342 396.408 226.493 396.814 227.599C397.221 228.705 398.174 229.719 399.559 230.519C400.944 231.319 402.701 231.869 404.618 232.104C406.534 232.338 408.527 232.247 410.355 231.841C412.183 231.435 413.768 230.732 414.917 229.816C416.067 228.9 416.731 227.812 416.831 226.683L422.121 226.751C421.962 228.979 420.357 231.09 417.624 232.665V232.665Z" fill="#830833"/>
<path d="M420.942 224.459C420.765 224.561 420.54 224.63 420.295 224.658C420.05 224.686 419.796 224.672 419.565 224.617C419.335 224.561 419.137 224.468 418.999 224.348C418.86 224.228 418.786 224.087 418.786 223.943C418.786 223.799 418.86 223.658 418.999 223.538C419.137 223.418 419.335 223.325 419.565 223.27C419.796 223.214 420.05 223.2 420.295 223.228C420.54 223.256 420.765 223.326 420.942 223.428C421.178 223.565 421.31 223.75 421.31 223.943C421.31 224.136 421.178 224.322 420.942 224.459V224.459Z" fill="#830833"/>
<path d="M409.021 227.779C408.555 228.05 407.961 228.235 407.313 228.311C406.665 228.387 405.993 228.35 405.382 228.205C404.77 228.06 404.247 227.813 403.879 227.496C403.51 227.18 403.313 226.807 403.312 226.425C403.311 226.044 403.506 225.67 403.872 225.353C404.239 225.035 404.761 224.788 405.371 224.642C405.982 224.495 406.654 224.457 407.302 224.532C407.95 224.606 408.546 224.79 409.013 225.06C409.636 225.421 409.986 225.909 409.988 226.419C409.989 226.928 409.641 227.417 409.021 227.779V227.779Z" fill="#830833"/>
<path d="M418.923 222.111C418.746 222.213 418.521 222.282 418.276 222.31C418.031 222.338 417.777 222.324 417.547 222.269C417.316 222.214 417.119 222.12 416.98 222C416.841 221.88 416.767 221.739 416.767 221.595C416.767 221.451 416.841 221.31 416.98 221.19C417.119 221.07 417.316 220.977 417.547 220.922C417.777 220.867 418.031 220.852 418.276 220.88C418.521 220.908 418.746 220.978 418.923 221.08C419.159 221.217 419.291 221.402 419.291 221.595C419.291 221.788 419.159 221.974 418.923 222.111Z" fill="#830833"/>
<path d="M416.156 223.579C415.979 223.681 415.754 223.751 415.508 223.779C415.262 223.807 415.008 223.792 414.777 223.736C414.546 223.681 414.349 223.587 414.21 223.466C414.072 223.346 413.999 223.204 414.001 223.06C414.002 222.915 414.078 222.774 414.218 222.654C414.359 222.535 414.558 222.442 414.79 222.388C415.022 222.334 415.277 222.321 415.522 222.35C415.767 222.38 415.991 222.451 416.166 222.554C416.399 222.691 416.528 222.876 416.526 223.068C416.524 223.26 416.391 223.444 416.156 223.579V223.579Z" fill="#830833"/>
<path d="M415.914 220.374C415.737 220.476 415.512 220.545 415.267 220.573C415.022 220.601 414.768 220.587 414.537 220.532C414.307 220.477 414.11 220.383 413.971 220.263C413.832 220.143 413.758 220.002 413.758 219.858C413.758 219.714 413.832 219.573 413.971 219.453C414.11 219.333 414.307 219.24 414.537 219.185C414.768 219.129 415.022 219.115 415.267 219.143C415.512 219.171 415.737 219.241 415.914 219.343C416.15 219.48 416.282 219.665 416.282 219.858C416.282 220.051 416.15 220.237 415.914 220.374Z" fill="#830833"/>
<path d="M413.36 221.965C413.184 222.067 412.959 222.136 412.714 222.164C412.469 222.193 412.215 222.178 411.984 222.123C411.754 222.068 411.556 221.974 411.418 221.854C411.279 221.735 411.205 221.594 411.205 221.449C411.205 221.305 411.279 221.164 411.418 221.044C411.556 220.925 411.754 220.831 411.984 220.776C412.215 220.721 412.469 220.706 412.714 220.734C412.959 220.763 413.184 220.832 413.36 220.934C413.597 221.071 413.73 221.256 413.73 221.449C413.73 221.643 413.597 221.828 413.36 221.965V221.965Z" fill="#830833"/>
<path d="M411.938 219.201C411.762 219.304 411.537 219.373 411.292 219.402C411.047 219.43 410.793 219.416 410.562 219.361C410.331 219.306 410.134 219.213 409.994 219.093C409.855 218.973 409.781 218.832 409.781 218.688C409.78 218.544 409.854 218.403 409.993 218.282C410.132 218.162 410.329 218.069 410.56 218.014C410.79 217.958 411.044 217.944 411.289 217.972C411.535 218 411.76 218.07 411.936 218.172C412.173 218.308 412.306 218.493 412.306 218.686C412.307 218.879 412.174 219.065 411.938 219.201Z" fill="#830833"/>
</g>
<rect x="0.438435" width="54.8816" height="54.8816" rx="9.87187" transform="matrix(0.866044 -0.499967 0.866044 0.499967 245.997 227.301)" fill="#1A1B26" stroke="#1A1B26" stroke-width="0.50625"/>
<g clip-path="url(#clip7_22107_228988)">
<path d="M272.826 227.656L305.23 233.665L294.901 214.912L272.826 227.656ZM290.611 227.2L288.859 228.211L287.107 227.2L288.859 226.188L290.611 227.2ZM287.982 225.682L286.23 226.694L284.48 225.683L286.232 224.672L287.982 225.682ZM295.865 227.2L294.113 228.211L292.361 227.2L294.113 226.188L295.865 227.2ZM293.238 225.683L291.486 226.695L289.734 225.683L291.486 224.672L293.238 225.683ZM290.609 224.166L288.857 225.177L287.107 224.167L288.859 223.155L290.609 224.166ZM295.852 224.175L294.099 225.186L292.347 224.175L294.099 223.163L295.852 224.175ZM291.47 223.668L289.72 222.658L291.472 221.647L293.222 222.657L291.47 223.668Z" fill="#8F7D09"/>
</g>
<rect x="0.438435" width="54.8816" height="54.8816" rx="9.87187" transform="matrix(0.866044 -0.499967 0.866044 0.499967 415.677 193.823)" fill="#1A1B26" stroke="#1A1B26" stroke-width="0.50625"/>
<g clip-path="url(#clip8_22107_228988)">
<path d="M442.506 194.178L474.91 200.187L464.581 181.434L442.506 194.178ZM460.291 193.722L458.539 194.733L456.787 193.722L458.539 192.71L460.291 193.722ZM457.662 192.204L455.91 193.216L454.16 192.205L455.912 191.194L457.662 192.204ZM465.545 193.722L463.793 194.733L462.041 193.722L463.793 192.71L465.545 193.722ZM462.918 192.205L461.166 193.217L459.414 192.205L461.166 191.194L462.918 192.205ZM460.289 190.688L458.537 191.699L456.787 190.689L458.539 189.677L460.289 190.688ZM465.531 190.697L463.779 191.708L462.027 190.697L463.779 189.685L465.531 190.697ZM461.15 190.19L459.4 189.18L461.152 188.169L462.902 189.179L461.15 190.19Z" fill="#8F7D09"/>
</g>
<rect x="0.438435" width="54.8816" height="54.8816" rx="9.87187" transform="matrix(0.866044 -0.499967 0.866044 0.499967 302.915 194.443)" fill="#1A1B26" stroke="#1A1B26" stroke-width="0.50625"/>
<g clip-path="url(#clip9_22107_228988)">
<path d="M356.126 203.523L354.482 202.574L357.898 200.601L356.882 200.015L355.226 200.971L353.571 200.016L361.393 195.5L351.467 193.965L348.806 188.234L340.789 192.862L349.518 197.901L345.202 200.392L332.16 192.863L347.01 184.29L353.78 185.337L356.451 191.088L366.613 192.661L368.373 196.453L356.126 203.523Z" fill="#731316"/>
<path d="M352.475 200.648L350.82 201.604L352.475 202.559L354.13 201.604L352.475 200.648Z" fill="#731316"/>
<path d="M353.374 203.199L351.719 204.155L353.374 205.11L355.029 204.155L353.374 203.199Z" fill="#731316"/>
</g>
<rect x="0.438435" width="54.8816" height="54.8816" rx="9.87187" transform="matrix(0.866044 -0.499967 0.866044 0.499967 472.594 160.964)" fill="#1A1B26" stroke="#1A1B26" stroke-width="0.50625"/>
<g clip-path="url(#clip10_22107_228988)">
<path d="M525.805 170.044L524.161 169.095L527.577 167.122L526.561 166.536L524.904 167.492L523.25 166.537L531.072 162.021L521.146 160.486L518.485 154.755L510.468 159.383L519.197 164.422L514.881 166.914L501.839 159.384L516.689 150.811L523.459 151.858L526.13 157.609L536.292 159.182L538.052 162.974L525.805 170.044Z" fill="#731316"/>
<path d="M522.154 167.17L520.499 168.125L522.154 169.08L523.809 168.125L522.154 167.17Z" fill="#731316"/>
<path d="M523.053 169.721L521.398 170.676L523.053 171.631L524.708 170.676L523.053 169.721Z" fill="#731316"/>
</g>
<rect x="0.438435" width="54.8816" height="54.8816" rx="9.87187" transform="matrix(0.866044 -0.499967 0.866044 0.499967 300.409 327.323)" fill="#1A1B26" stroke="#1A1B26" stroke-width="0.50625"/>
<g clip-path="url(#clip11_22107_228988)">
<path d="M353.621 336.404L351.976 335.454L355.393 333.482L354.376 332.895L352.72 333.852L351.065 332.896L358.887 328.381L348.961 326.846L346.3 321.115L338.283 325.743L347.012 330.782L342.696 333.273L329.654 325.744L344.504 317.171L351.274 318.218L353.945 323.969L364.107 325.542L365.867 329.334L353.621 336.404Z" fill="#731316"/>
<path d="M349.969 333.529L348.314 334.484L349.969 335.439L351.624 334.484L349.969 333.529Z" fill="#731316"/>
<path d="M350.868 336.08L349.214 337.035L350.868 337.99L352.523 337.035L350.868 336.08Z" fill="#731316"/>
</g>
<rect x="0.438435" width="54.8816" height="54.8816" rx="9.87187" transform="matrix(0.866044 -0.499967 0.866044 0.499967 359.833 161.584)" fill="#1A1B26" stroke="#1A1B26" stroke-width="0.50625"/>
<g clip-path="url(#clip12_22107_228988)">
<path d="M396.208 154.706L391.986 163.802L403.521 170.461L419.277 168.023L423.499 158.927L411.965 152.268L396.208 154.706ZM413.343 159.459L412.219 161.882L407.253 162.728L410.929 164.85L409.823 167.702L402.138 163.266L403.069 161.034L408.15 160.126L404.398 157.959L405.672 155.021L413.343 159.459Z" fill="#237FA7"/>
</g>
<rect x="0.438435" width="54.8816" height="54.8816" rx="9.87187" transform="matrix(0.866044 -0.499967 0.866044 0.499967 529.512 128.105)" fill="#1A1B26" stroke="#1A1B26" stroke-width="0.50625"/>
<g clip-path="url(#clip13_22107_228988)">
<path d="M565.887 121.227L561.665 130.323L573.2 136.982L588.956 134.545L593.179 125.449L581.644 118.79L565.887 121.227ZM583.022 125.98L581.898 128.404L576.933 129.25L580.608 131.372L579.502 134.223L571.818 129.787L572.748 127.555L577.83 126.647L574.077 124.481L575.352 121.543L583.022 125.98Z" fill="#237FA7"/>
</g>
<rect x="0.438435" width="54.8816" height="54.8816" rx="9.87187" transform="matrix(0.866044 -0.499967 0.866044 0.499967 357.327 294.465)" fill="#1A1B26" stroke="#1A1B26" stroke-width="0.50625"/>
<g clip-path="url(#clip14_22107_228988)">
<path d="M393.702 287.586L389.48 296.683L401.014 303.342L416.771 300.904L420.993 291.808L409.459 285.149L393.702 287.586ZM410.837 292.339L409.713 294.763L404.747 295.609L408.422 297.731L407.317 300.583L399.632 296.147L400.563 293.915L405.644 293.007L401.891 290.84L403.166 287.902L410.837 292.339Z" fill="#237FA7"/>
</g>
<rect x="0.438435" width="54.8816" height="54.8816" rx="9.87187" transform="matrix(0.866044 -0.499967 0.866044 0.499967 586.43 95.2468)" fill="#1A1B26" stroke="#1A1B26" stroke-width="0.50625"/>
<g clip-path="url(#clip15_22107_228988)">
<path d="M639.376 83.6242L641.642 88.5065L633.185 87.1985L639.376 83.6242Z" fill="#1D7177"/>
<path d="M626.43 95.2312L624.364 96.4236L638.471 98.6066L639.984 101.864L614.586 97.9355L624.916 91.9723L639.027 94.1553L638.27 92.5269L626.981 90.7799L631.112 88.395L636.759 89.268L642.402 90.141L646.182 98.2861L626.43 95.2312Z" fill="#1D7177"/>
</g>
<rect x="0.438435" width="54.8816" height="54.8816" rx="9.87187" transform="matrix(0.866044 -0.499967 0.866044 0.499967 414.245 261.606)" fill="#1A1B26" stroke="#1A1B26" stroke-width="0.50625"/>
<g clip-path="url(#clip16_22107_228988)">
<path d="M467.191 249.984L469.457 254.866L461 253.558L467.191 249.984Z" fill="#1D7177"/>
<path d="M454.245 261.591L452.179 262.783L466.286 264.966L467.799 268.224L442.401 264.295L452.731 258.332L466.841 260.515L466.085 258.886L454.796 257.139L458.927 254.754L464.574 255.627L470.217 256.5L473.997 264.646L454.245 261.591Z" fill="#1D7177"/>
</g>
<rect x="0.438435" width="54.8816" height="54.8816" rx="9.87187" transform="matrix(0.866044 -0.499967 0.866044 0.499967 643.347 62.3886)" fill="#1A1B26" stroke="#1A1B26" stroke-width="0.50625"/>
<g clip-path="url(#clip17_22107_228988)">
<path d="M688.886 53.0114L687.114 56.8289L688.601 57.6868L692.053 62.6293L683.491 60.6362L682.005 59.7783L675.393 60.801L674.317 63.1236L676.028 64.1111L695.613 68.8618L701.319 67.9788L702.849 64.6847L694.62 53.3781L692.909 52.3906L688.886 53.0114Z" fill="#2354AA"/>
<path d="M692.909 52.3906L691.136 56.207L692.624 57.0659L696.828 63.4229L696.109 64.971L701.319 67.9787L702.849 64.6847L694.62 53.3781L692.909 52.3906Z" fill="#0850C5"/>
<path d="M683.491 60.6362L682.005 59.7783L680.927 62.1009L682.414 62.9598L693.428 65.3859L694.146 63.8378L692.053 62.6293L683.491 60.6362Z" fill="#0850C5"/>
</g>
<rect x="0.438435" width="54.8816" height="54.8816" rx="9.87187" transform="matrix(0.866044 -0.499967 0.866044 0.499967 471.162 228.748)" fill="#1A1B26" stroke="#1A1B26" stroke-width="0.50625"/>
<g clip-path="url(#clip18_22107_228988)">
<path d="M516.701 219.371L514.93 223.188L516.416 224.046L519.868 228.989L511.307 226.996L509.821 226.138L503.208 227.161L502.133 229.483L503.843 230.471L523.428 235.221L529.134 234.338L530.664 231.044L522.435 219.738L520.724 218.75L516.701 219.371Z" fill="#2354AA"/>
<path d="M520.724 218.75L518.951 222.567L520.439 223.426L524.643 229.783L523.924 231.331L529.134 234.338L530.664 231.044L522.435 219.738L520.724 218.75Z" fill="#0850C5"/>
<path d="M511.307 226.996L509.821 226.138L508.742 228.46L510.23 229.319L521.243 231.745L521.962 230.197L519.868 228.989L511.307 226.996Z" fill="#0850C5"/>
</g>
<rect x="0.438435" width="54.8816" height="54.8816" rx="9.87187" transform="matrix(0.866044 -0.499967 0.866044 0.499967 18.6847 358.942)" fill="#1A1B26" stroke="#1A1B26" stroke-width="0.50625"/>
<g clip-path="url(#clip19_22107_228988)">
<path d="M53.9355 353.402L50.287 361.249L50.2909 361.251L62.233 368.145L67.3408 367.355L55.3948 360.459L57.671 355.558L53.9355 353.402Z" fill="#B2B6BD"/>
<path d="M57.3767 351.415L66.8897 356.907L63.4484 358.894L59.8987 356.844L58.5283 359.794L70.7162 366.83L75.8299 366.041L66.3439 360.565L69.7853 358.579L73.3118 360.614L74.6802 357.666L62.4845 350.625L57.3767 351.415Z" fill="#B2B6BD"/>
<path d="M79.2751 364.057L82.9235 356.21L82.9196 356.207L70.9775 349.313L65.8678 350.104L77.8138 357.001L75.5395 361.9L79.2751 364.057Z" fill="#B2B6BD"/>
</g>
<rect x="0.438435" width="54.8816" height="54.8816" rx="9.87187" transform="matrix(0.866044 -0.499967 0.866044 0.499967 188.364 325.464)" fill="#1A1B26" stroke="#1A1B26" stroke-width="0.50625"/>
<g clip-path="url(#clip20_22107_228988)">
<path d="M223.615 319.923L219.966 327.77L219.97 327.773L231.912 334.667L237.02 333.877L225.074 326.98L227.35 322.08L223.615 319.923Z" fill="#B2B6BD"/>
<path d="M227.056 317.937L236.569 323.428L233.128 325.415L229.578 323.366L228.208 326.316L240.395 333.352L245.509 332.563L236.023 327.087L239.464 325.1L242.991 327.136L244.359 324.187L232.164 317.147L227.056 317.937Z" fill="#B2B6BD"/>
<path d="M248.954 330.578L252.603 322.731L252.599 322.729L240.657 315.835L235.547 316.626L247.493 323.522L245.219 328.422L248.954 330.578Z" fill="#B2B6BD"/>
</g>
<rect x="0.438435" width="54.8816" height="54.8816" rx="9.87187" transform="matrix(0.866044 -0.499967 0.866044 0.499967 585.845 161.584)" fill="#1A1B26" stroke="#1A1B26" stroke-width="0.50625"/>
<g clip-path="url(#clip21_22107_228988)">
<path fill-rule="evenodd" clip-rule="evenodd" d="M622.715 158.776L633.053 157.176L640.622 161.546L630.282 163.145L622.715 158.776Z" fill="#633691"/>
<path fill-rule="evenodd" clip-rule="evenodd" d="M633.771 156.761L641.34 161.131L644.108 155.163L636.541 150.795L633.771 156.761Z" fill="#633691"/>
<path fill-rule="evenodd" clip-rule="evenodd" d="M611.22 160.535L618.787 164.904L629.125 163.306L621.558 158.937L611.22 160.535Z" fill="#633691"/>
<path fill-rule="evenodd" clip-rule="evenodd" d="M638.679 167.992L649.016 166.394L641.499 162.054L641.449 162.025L631.112 163.624L638.679 167.992Z" fill="#633691"/>
</g>
<rect x="0.438435" width="54.8816" height="54.8816" rx="9.87187" transform="matrix(0.866044 -0.499967 0.866044 0.499967 755.524 128.106)" fill="#1A1B26" stroke="#1A1B26" stroke-width="0.50625"/>
<g clip-path="url(#clip22_22107_228988)">
<path fill-rule="evenodd" clip-rule="evenodd" d="M792.394 125.298L802.732 123.697L810.301 128.067L799.961 129.666L792.394 125.298Z" fill="#633691"/>
<path fill-rule="evenodd" clip-rule="evenodd" d="M803.45 123.283L811.019 127.652L813.787 121.684L806.22 117.316L803.45 123.283Z" fill="#633691"/>
<path fill-rule="evenodd" clip-rule="evenodd" d="M780.899 127.056L788.467 131.425L798.804 129.827L791.237 125.458L780.899 127.056Z" fill="#633691"/>
<path fill-rule="evenodd" clip-rule="evenodd" d="M808.358 134.513L818.695 132.915L811.178 128.575L811.128 128.547L800.791 130.145L808.358 134.513Z" fill="#633691"/>
</g>
<rect x="0.438435" width="54.8816" height="54.8816" rx="9.87187" transform="matrix(0.866044 -0.499967 0.866044 0.499967 585.246 228.115)" fill="#1A1B26" stroke="#1A1B26" stroke-width="0.50625"/>
<g clip-path="url(#clip23_22107_228988)">
<path fill-rule="evenodd" clip-rule="evenodd" d="M622.116 225.307L632.454 223.707L640.023 228.077L629.684 229.676L622.116 225.307Z" fill="#633691"/>
<path fill-rule="evenodd" clip-rule="evenodd" d="M633.172 223.292L640.741 227.662L643.509 221.694L635.942 217.326L633.172 223.292Z" fill="#633691"/>
<path fill-rule="evenodd" clip-rule="evenodd" d="M610.622 227.066L618.189 231.435L628.526 229.837L620.959 225.468L610.622 227.066Z" fill="#633691"/>
<path fill-rule="evenodd" clip-rule="evenodd" d="M638.08 234.523L648.418 232.925L640.9 228.585L640.85 228.556L630.513 230.155L638.08 234.523Z" fill="#633691"/>
</g>
<rect x="0.438435" width="54.8816" height="54.8816" rx="9.87187" transform="matrix(0.866044 -0.499967 0.866044 0.499967 642.763 128.726)" fill="#1A1B26" stroke="#1A1B26" stroke-width="0.50625"/>
<g clip-path="url(#clip24_22107_228988)">
<path fill-rule="evenodd" clip-rule="evenodd" d="M674.259 127.506L686.54 125.611L703.122 135.183L690.841 137.079L674.259 127.506Z" fill="#237FA7"/>
<path d="M687.834 121.908L674.5 123.978L677.881 125.93L686.961 124.527L697.114 130.388L701.376 129.723C704.017 129.314 704.818 128.195 703.134 127.223L695.684 122.922C694.007 121.956 690.473 121.503 687.834 121.908Z" fill="#237FA7"/>
</g>
<rect x="0.438435" width="54.8816" height="54.8816" rx="9.87187" transform="matrix(0.866044 -0.499967 0.866044 0.499967 812.442 95.247)" fill="#1A1B26" stroke="#1A1B26" stroke-width="0.50625"/>
<g clip-path="url(#clip25_22107_228988)">
<path fill-rule="evenodd" clip-rule="evenodd" d="M843.939 94.0276L856.219 92.1321L872.801 101.705L860.521 103.6L843.939 94.0276Z" fill="#237FA7"/>
<path d="M857.514 88.4295L844.179 90.4995L847.56 92.4513L856.641 91.0483L866.793 96.9093L871.055 96.2446C873.696 95.8359 874.498 94.7165 872.813 93.744L865.363 89.4433C863.687 88.4777 860.153 88.0242 857.514 88.4295Z" fill="#237FA7"/>
</g>
<rect x="0.438435" width="54.8816" height="54.8816" rx="9.87187" transform="matrix(0.866044 -0.499967 0.866044 0.499967 642.164 195.257)" fill="#1A1B26" stroke="#1A1B26" stroke-width="0.50625"/>
<g clip-path="url(#clip26_22107_228988)">
<path fill-rule="evenodd" clip-rule="evenodd" d="M673.66 194.038L685.941 192.142L702.523 201.715L690.242 203.611L673.66 194.038Z" fill="#237FA7"/>
<path d="M687.235 188.44L673.901 190.51L677.282 192.462L686.362 191.059L696.515 196.92L700.777 196.255C703.418 195.846 704.219 194.727 702.535 193.754L695.085 189.454C693.408 188.488 689.874 188.034 687.235 188.44Z" fill="#237FA7"/>
</g>
<rect x="0.438435" width="54.8816" height="54.8816" rx="9.87187" transform="matrix(0.866044 -0.499967 0.866044 0.499967 699.681 95.8669)" fill="#1A1B26" stroke="#1A1B26" stroke-width="0.50625"/>
<g clip-path="url(#clip27_22107_228988)">
<path d="M758.546 101.851C756.775 102.875 754.597 103.635 752.202 104.063C749.807 104.491 747.267 104.576 744.802 104.309C742.338 104.042 740.024 103.432 738.06 102.532C736.097 101.631 734.544 100.468 733.536 99.1427C732.528 97.8174 732.095 96.37 732.276 94.9263C732.457 93.4826 733.245 92.0861 734.572 90.8581C735.9 89.6301 737.726 88.6077 739.893 87.8796C742.06 87.1515 744.502 86.7398 747.007 86.6801V86.6801L747.127 89.734C745.17 89.7914 743.285 90.1751 741.699 90.8387C740.113 91.5023 738.894 92.4172 738.191 93.4726C737.488 94.528 737.33 95.6785 737.736 96.7847C738.143 97.8908 739.096 98.9052 740.481 99.7048C741.866 100.504 743.623 101.055 745.539 101.29C747.456 101.524 749.448 101.433 751.277 101.027C753.105 100.621 754.69 99.9173 755.839 99.0017C756.988 98.0861 757.653 96.9976 757.753 95.8683L763.043 95.9372C762.884 98.1646 761.279 100.276 758.546 101.851V101.851Z" fill="#830833"/>
<path d="M761.863 93.6444C761.687 93.7464 761.462 93.8158 761.217 93.8439C760.972 93.8721 760.718 93.8576 760.487 93.8024C760.256 93.7473 760.059 93.6538 759.92 93.5339C759.782 93.414 759.708 93.2731 759.708 93.1289C759.708 92.9847 759.782 92.8438 759.92 92.7239C760.059 92.604 760.256 92.5106 760.487 92.4554C760.718 92.4002 760.972 92.3858 761.217 92.4139C761.462 92.442 761.687 92.5115 761.863 92.6134C762.1 92.7503 762.232 92.9357 762.232 93.1289C762.232 93.3221 762.1 93.5075 761.863 93.6444V93.6444Z" fill="#830833"/>
<path d="M749.943 96.9647C749.477 97.2357 748.883 97.4208 748.235 97.4966C747.587 97.5723 746.915 97.5354 746.304 97.3904C745.692 97.2454 745.169 96.9989 744.801 96.6821C744.432 96.3653 744.235 95.9925 744.234 95.6109C744.233 95.2293 744.428 94.8561 744.794 94.5386C745.161 94.2211 745.683 93.9736 746.293 93.8274C746.904 93.6812 747.576 93.643 748.224 93.7175C748.872 93.792 749.468 93.976 749.935 94.246C750.558 94.6068 750.908 95.0951 750.909 95.6044C750.911 96.1137 750.563 96.6027 749.943 96.9647V96.9647Z" fill="#830833"/>
<path d="M759.845 91.2965C759.668 91.3985 759.443 91.4679 759.198 91.496C758.953 91.5241 758.699 91.5097 758.468 91.4545C758.238 91.3994 758.04 91.3059 757.902 91.186C757.763 91.0661 757.689 90.9252 757.689 90.781C757.689 90.6368 757.763 90.4959 757.902 90.376C758.04 90.2561 758.238 90.1627 758.468 90.1075C758.699 90.0523 758.953 90.0379 759.198 90.066C759.443 90.0941 759.668 90.1636 759.845 90.2655C760.081 90.4024 760.213 90.5878 760.213 90.781C760.213 90.9742 760.081 91.1596 759.845 91.2965Z" fill="#830833"/>
<path d="M757.078 92.765C756.901 92.8672 756.675 92.9367 756.43 92.9647C756.184 92.9927 755.93 92.9779 755.699 92.9222C755.468 92.8666 755.271 92.7725 755.132 92.652C754.994 92.5315 754.921 92.39 754.923 92.2454C754.924 92.1009 755 91.9599 755.14 91.8403C755.281 91.7207 755.48 91.6279 755.712 91.5737C755.944 91.5195 756.199 91.5063 756.444 91.5359C756.689 91.5655 756.913 91.6365 757.088 91.7398C757.321 91.877 757.45 92.0616 757.448 92.2536C757.446 92.4455 757.313 92.6293 757.078 92.765V92.765Z" fill="#830833"/>
<path d="M756.836 89.5594C756.659 89.6614 756.434 89.7308 756.189 89.759C755.944 89.7871 755.69 89.7727 755.459 89.7175C755.229 89.6623 755.031 89.5689 754.893 89.449C754.754 89.3291 754.68 89.1881 754.68 89.0439C754.68 88.8998 754.754 88.7588 754.893 88.6389C755.031 88.519 755.229 88.4256 755.459 88.3704C755.69 88.3152 755.944 88.3008 756.189 88.3289C756.434 88.3571 756.659 88.4265 756.836 88.5284C757.072 88.6654 757.204 88.8507 757.204 89.0439C757.204 89.2372 757.072 89.4225 756.836 89.5594Z" fill="#830833"/>
<path d="M754.282 91.1507C754.106 91.2527 753.881 91.3221 753.636 91.3503C753.391 91.3784 753.137 91.364 752.906 91.3088C752.675 91.2536 752.478 91.1602 752.339 91.0403C752.201 90.9204 752.127 90.7794 752.127 90.6353C752.127 90.4911 752.201 90.3501 752.339 90.2302C752.478 90.1103 752.675 90.0169 752.906 89.9617C753.137 89.9065 753.391 89.8921 753.636 89.9202C753.881 89.9484 754.106 90.0178 754.282 90.1198C754.519 90.2565 754.652 90.4419 754.652 90.6353C754.652 90.8286 754.519 91.014 754.282 91.1507V91.1507Z" fill="#830833"/>
<path d="M752.86 88.3871C752.684 88.4894 752.459 88.5591 752.214 88.5875C751.969 88.616 751.715 88.6018 751.484 88.5468C751.253 88.4918 751.055 88.3985 750.916 88.2787C750.777 88.1588 750.703 88.0179 750.703 87.8736C750.702 87.7294 750.776 87.5883 750.915 87.4683C751.053 87.3483 751.251 87.2547 751.481 87.1994C751.712 87.1442 751.966 87.1296 752.211 87.1577C752.456 87.1859 752.682 87.2553 752.858 87.3573C753.095 87.4938 753.228 87.6789 753.228 87.872C753.229 88.0651 753.096 88.2503 752.86 88.3871Z" fill="#830833"/>
</g>
<rect x="0.438435" width="54.8816" height="54.8816" rx="9.87187" transform="matrix(0.866044 -0.499967 0.866044 0.499967 869.36 62.3886)" fill="#1A1B26" stroke="#1A1B26" stroke-width="0.50625"/>
<g clip-path="url(#clip28_22107_228988)">
<path d="M928.225 68.3728C926.454 69.3971 924.276 70.1564 921.881 70.5847C919.486 71.013 916.946 71.0974 914.482 70.8305C912.017 70.5637 909.703 69.9536 907.74 69.0534C905.776 68.1531 904.223 66.9898 903.215 65.6645C902.207 64.3391 901.775 62.8918 901.955 61.448C902.136 60.0043 902.924 58.6079 904.251 57.3799C905.579 56.1519 907.405 55.1295 909.572 54.4014C911.739 53.6733 914.181 53.2615 916.687 53.2018V53.2018L916.806 56.2557C914.85 56.3131 912.964 56.6969 911.378 57.3605C909.792 58.024 908.574 58.939 907.87 59.9943C907.167 61.0497 907.009 62.2002 907.415 63.3064C907.822 64.4126 908.775 65.4269 910.16 66.2265C911.545 67.0261 913.302 67.5766 915.219 67.8113C917.135 68.046 919.128 67.9547 920.956 67.5486C922.784 67.1426 924.369 66.4391 925.518 65.5234C926.668 64.6078 927.332 63.5194 927.432 62.39L932.722 62.4589C932.564 64.6864 930.958 66.7977 928.225 68.3728V68.3728Z" fill="#830833"/>
<path d="M931.543 60.1661C931.366 60.2681 931.141 60.3375 930.896 60.3656C930.651 60.3938 930.397 60.3793 930.166 60.3242C929.936 60.269 929.738 60.1755 929.6 60.0557C929.461 59.9358 929.387 59.7948 929.387 59.6506C929.387 59.5064 929.461 59.3655 929.6 59.2456C929.738 59.1257 929.936 59.0323 930.166 58.9771C930.397 58.9219 930.651 58.9075 930.896 58.9356C931.141 58.9638 931.366 59.0332 931.543 59.1351C931.779 59.2721 931.911 59.4574 931.911 59.6506C931.911 59.8439 931.779 60.0292 931.543 60.1661V60.1661Z" fill="#830833"/>
<path d="M919.622 63.4864C919.157 63.7574 918.562 63.9425 917.915 64.0183C917.267 64.0941 916.595 64.0571 915.983 63.9121C915.372 63.7671 914.849 63.5206 914.48 63.2038C914.112 62.8871 913.914 62.5142 913.913 62.1327C913.912 61.7511 914.107 61.3779 914.474 61.0604C914.84 60.7428 915.362 60.4953 915.973 60.3491C916.583 60.203 917.255 60.1647 917.904 60.2392C918.552 60.3137 919.147 60.4977 919.614 60.7677C920.237 61.1285 920.587 61.6168 920.589 62.1261C920.59 62.6355 920.243 63.1245 919.622 63.4864V63.4864Z" fill="#830833"/>
<path d="M929.524 57.8182C929.347 57.9202 929.122 57.9896 928.877 58.0177C928.632 58.0459 928.378 58.0314 928.148 57.9763C927.917 57.9211 927.72 57.8276 927.581 57.7078C927.442 57.5879 927.368 57.4469 927.368 57.3027C927.368 57.1585 927.442 57.0176 927.581 56.8977C927.72 56.7778 927.917 56.6844 928.148 56.6292C928.378 56.574 928.632 56.5596 928.877 56.5877C929.122 56.6158 929.347 56.6853 929.524 56.7872C929.76 56.9242 929.893 57.1095 929.893 57.3027C929.893 57.496 929.76 57.6813 929.524 57.8182Z" fill="#830833"/>
<path d="M926.758 59.2868C926.581 59.389 926.355 59.4585 926.109 59.4865C925.864 59.5145 925.609 59.4997 925.378 59.444C925.147 59.3883 924.95 59.2942 924.812 59.1737C924.674 59.0532 924.601 58.9117 924.602 58.7672C924.603 58.6226 924.679 58.4816 924.82 58.362C924.96 58.2424 925.159 58.1496 925.391 58.0954C925.623 58.0412 925.878 58.0281 926.123 58.0576C926.368 58.0872 926.593 58.1582 926.768 58.2615C927 58.3987 927.129 58.5834 927.128 58.7753C927.126 58.9673 926.993 59.151 926.758 59.2868V59.2868Z" fill="#830833"/>
<path d="M926.515 56.0812C926.338 56.1831 926.113 56.2526 925.868 56.2807C925.623 56.3088 925.37 56.2944 925.139 56.2392C924.908 56.184 924.711 56.0906 924.572 55.9707C924.433 55.8508 924.359 55.7099 924.359 55.5657C924.359 55.4215 924.433 55.2805 924.572 55.1607C924.711 55.0408 924.908 54.9473 925.139 54.8921C925.37 54.837 925.623 54.8225 925.868 54.8507C926.113 54.8788 926.338 54.9482 926.515 55.0502C926.751 55.1871 926.884 55.3725 926.884 55.5657C926.884 55.7589 926.751 55.9442 926.515 56.0812Z" fill="#830833"/>
<path d="M923.962 57.6725C923.785 57.7744 923.56 57.8439 923.315 57.872C923.07 57.9001 922.816 57.8857 922.585 57.8305C922.355 57.7753 922.157 57.6819 922.019 57.562C921.88 57.4421 921.806 57.3012 921.806 57.157C921.806 57.0128 921.88 56.8718 922.019 56.752C922.157 56.6321 922.355 56.5386 922.585 56.4835C922.816 56.4283 923.07 56.4138 923.315 56.442C923.56 56.4701 923.785 56.5395 923.962 56.6415C924.198 56.7782 924.331 56.9636 924.331 57.157C924.331 57.3503 924.198 57.5358 923.962 57.6725V57.6725Z" fill="#830833"/>
<path d="M922.539 54.9089C922.363 55.0111 922.138 55.0808 921.893 55.1093C921.648 55.1377 921.394 55.1235 921.163 55.0685C920.932 55.0135 920.735 54.9202 920.596 54.8004C920.456 54.6806 920.382 54.5396 920.382 54.3953C920.381 54.2511 920.455 54.11 920.594 53.99C920.733 53.87 920.93 53.7764 921.161 53.7212C921.391 53.6659 921.645 53.6514 921.891 53.6795C922.136 53.7076 922.361 53.777 922.537 53.879C922.774 54.0156 922.907 54.2007 922.907 54.3937C922.908 54.5868 922.775 54.7721 922.539 54.9089Z" fill="#830833"/>
</g>
<rect x="0.438435" width="54.8816" height="54.8816" rx="9.87187" transform="matrix(0.866044 -0.499967 0.866044 0.499967 697.174 228.748)" fill="#1A1B26" stroke="#1A1B26" stroke-width="0.50625"/>
<g clip-path="url(#clip29_22107_228988)">
<path d="M756.04 234.732C754.268 235.757 752.091 236.516 749.696 236.944C747.301 237.373 744.761 237.457 742.296 237.19C739.832 236.923 737.518 236.313 735.554 235.413C733.591 234.513 732.038 233.349 731.03 232.024C730.022 230.699 729.589 229.251 729.77 227.808C729.95 226.364 730.739 224.967 732.066 223.739C733.393 222.511 735.22 221.489 737.387 220.761C739.554 220.033 741.996 219.621 744.501 219.561V219.561L744.621 222.615C742.664 222.673 740.779 223.056 739.193 223.72C737.607 224.384 736.388 225.299 735.685 226.354C734.981 227.409 734.823 228.56 735.23 229.666C735.636 230.772 736.59 231.787 737.975 232.586C739.36 233.386 741.117 233.936 743.033 234.171C744.949 234.406 746.942 234.314 748.77 233.908C750.599 233.502 752.183 232.799 753.333 231.883C754.482 230.967 755.147 229.879 755.246 228.75L760.536 228.819C760.378 231.046 758.773 233.157 756.04 234.732V234.732Z" fill="#830833"/>
<path d="M759.357 226.526C759.181 226.628 758.956 226.697 758.711 226.725C758.466 226.753 758.212 226.739 757.981 226.684C757.75 226.629 757.553 226.535 757.414 226.415C757.276 226.295 757.202 226.154 757.202 226.01C757.202 225.866 757.276 225.725 757.414 225.605C757.553 225.485 757.75 225.392 757.981 225.337C758.212 225.282 758.466 225.267 758.711 225.295C758.956 225.323 759.181 225.393 759.357 225.495C759.593 225.632 759.726 225.817 759.726 226.01C759.726 226.203 759.593 226.389 759.357 226.526V226.526Z" fill="#830833"/>
<path d="M747.437 229.846C746.971 230.117 746.377 230.302 745.729 230.378C745.081 230.454 744.409 230.417 743.798 230.272C743.186 230.127 742.663 229.88 742.294 229.563C741.926 229.247 741.729 228.874 741.728 228.492C741.726 228.111 741.922 227.737 742.288 227.42C742.655 227.102 743.177 226.855 743.787 226.709C744.398 226.563 745.07 226.524 745.718 226.599C746.366 226.673 746.962 226.857 747.429 227.127C748.051 227.488 748.402 227.976 748.403 228.486C748.405 228.995 748.057 229.484 747.437 229.846V229.846Z" fill="#830833"/>
<path d="M757.338 224.178C757.162 224.28 756.937 224.349 756.692 224.377C756.447 224.405 756.193 224.391 755.962 224.336C755.732 224.281 755.534 224.187 755.396 224.067C755.257 223.947 755.183 223.807 755.183 223.662C755.183 223.518 755.257 223.377 755.396 223.257C755.534 223.137 755.732 223.044 755.962 222.989C756.193 222.934 756.447 222.919 756.692 222.947C756.937 222.975 757.162 223.045 757.338 223.147C757.575 223.284 757.707 223.469 757.707 223.662C757.707 223.856 757.575 224.041 757.338 224.178Z" fill="#830833"/>
<path d="M754.572 225.646C754.395 225.749 754.169 225.818 753.924 225.846C753.678 225.874 753.424 225.859 753.193 225.804C752.962 225.748 752.764 225.654 752.626 225.533C752.488 225.413 752.415 225.271 752.416 225.127C752.418 224.982 752.494 224.841 752.634 224.722C752.775 224.602 752.974 224.509 753.206 224.455C753.438 224.401 753.693 224.388 753.938 224.417C754.183 224.447 754.407 224.518 754.582 224.621C754.815 224.758 754.944 224.943 754.942 225.135C754.94 225.327 754.807 225.511 754.572 225.646V225.646Z" fill="#830833"/>
<path d="M754.329 222.441C754.153 222.543 753.928 222.612 753.683 222.64C753.438 222.668 753.184 222.654 752.953 222.599C752.723 222.544 752.525 222.45 752.387 222.33C752.248 222.21 752.174 222.069 752.174 221.925C752.174 221.781 752.248 221.64 752.387 221.52C752.525 221.4 752.723 221.307 752.953 221.252C753.184 221.197 753.438 221.182 753.683 221.21C753.928 221.238 754.153 221.308 754.329 221.41C754.566 221.547 754.698 221.732 754.698 221.925C754.698 222.119 754.566 222.304 754.329 222.441Z" fill="#830833"/>
<path d="M751.776 224.032C751.6 224.134 751.375 224.203 751.13 224.232C750.885 224.26 750.631 224.245 750.4 224.19C750.169 224.135 749.972 224.042 749.833 223.922C749.695 223.802 749.62 223.661 749.62 223.517C749.62 223.372 749.695 223.231 749.833 223.112C749.972 222.992 750.169 222.898 750.4 222.843C750.631 222.788 750.885 222.773 751.13 222.802C751.375 222.83 751.6 222.899 751.776 223.001C752.013 223.138 752.146 223.323 752.146 223.517C752.146 223.71 752.013 223.895 751.776 224.032V224.032Z" fill="#830833"/>
<path d="M750.354 221.268C750.178 221.371 749.953 221.44 749.708 221.469C749.463 221.497 749.209 221.483 748.978 221.428C748.747 221.373 748.549 221.28 748.41 221.16C748.271 221.04 748.197 220.899 748.196 220.755C748.196 220.611 748.27 220.47 748.409 220.35C748.547 220.23 748.745 220.136 748.975 220.081C749.206 220.025 749.46 220.011 749.705 220.039C749.95 220.067 750.175 220.137 750.352 220.239C750.589 220.375 750.722 220.56 750.722 220.753C750.722 220.946 750.59 221.132 750.354 221.268Z" fill="#830833"/>
</g>
<rect x="0.438435" width="54.8816" height="54.8816" rx="9.87187" transform="matrix(0.866044 -0.499967 0.866044 0.499967 756.598 63.0085)" fill="#1A1B26" stroke="#1A1B26" stroke-width="0.50625"/>
<g clip-path="url(#clip30_22107_228988)">
<path d="M783.427 63.3635L815.831 69.3727L805.502 50.6196L783.427 63.3635ZM801.212 62.9077L799.46 63.9192L797.708 62.9077L799.46 61.8963L801.212 62.9077ZM798.583 61.3899L796.831 62.4014L795.081 61.3911L796.833 60.3796L798.583 61.3899ZM806.466 62.9077L804.714 63.9192L802.962 62.9077L804.714 61.8963L806.466 62.9077ZM803.839 61.3911L802.087 62.4026L800.335 61.3911L802.087 60.3796L803.839 61.3911ZM801.21 59.8733L799.458 60.8848L797.708 59.8745L799.46 58.863L801.21 59.8733ZM806.452 59.8825L804.7 60.894L802.948 59.8825L804.7 58.871L806.452 59.8825ZM802.071 59.3762L800.321 58.3658L802.073 57.3544L803.823 58.3647L802.071 59.3762Z" fill="#8F7D09"/>
</g>
<rect x="0.438435" width="54.8816" height="54.8816" rx="9.87187" transform="matrix(0.866044 -0.499967 0.866044 0.499967 754.092 195.889)" fill="#1A1B26" stroke="#1A1B26" stroke-width="0.50625"/>
<g clip-path="url(#clip31_22107_228988)">
<path d="M780.921 196.244L813.326 202.254L802.996 183.5L780.921 196.244ZM798.706 195.789L796.954 196.8L795.202 195.789L796.954 194.777L798.706 195.789ZM796.077 194.271L794.325 195.282L792.575 194.272L794.327 193.26L796.077 194.271ZM803.961 195.789L802.209 196.8L800.457 195.789L802.209 194.777L803.961 195.789ZM801.334 194.272L799.581 195.283L797.829 194.272L799.581 193.26L801.334 194.272ZM798.704 192.754L796.952 193.766L795.202 192.755L796.954 191.744L798.704 192.754ZM803.947 192.763L802.195 193.775L800.443 192.763L802.195 191.752L803.947 192.763ZM799.566 192.257L797.815 191.247L799.568 190.235L801.318 191.246L799.566 192.257Z" fill="#8F7D09"/>
</g>
<rect x="0.438435" width="54.8816" height="54.8816" rx="9.87187" transform="matrix(0.866044 -0.499967 0.866044 0.499967 813.516 30.1501)" fill="#1A1B26" stroke="#1A1B26" stroke-width="0.50625"/>
<g clip-path="url(#clip32_22107_228988)">
<path d="M866.727 39.2306L865.083 38.2812L868.499 36.3087L867.483 35.7221L865.826 36.6784L864.172 35.7232L871.993 31.2077L862.068 29.6727L859.407 23.9414L851.39 28.5694L860.119 33.6084L855.803 36.0998L842.761 28.5706L857.611 19.9977L864.381 21.0448L867.051 26.7956L877.214 28.3685L878.974 32.1607L866.727 39.2306Z" fill="#731316"/>
<path d="M863.076 36.3558L861.421 37.311L863.076 38.2663L864.73 37.311L863.076 36.3558Z" fill="#731316"/>
<path d="M863.975 38.9068L862.32 39.8621L863.975 40.8173L865.63 39.8621L863.975 38.9068Z" fill="#731316"/>
</g>
<rect x="0.438435" width="54.8816" height="54.8816" rx="9.87187" transform="matrix(0.866044 -0.499967 0.866044 0.499967 811.01 163.031)" fill="#1A1B26" stroke="#1A1B26" stroke-width="0.50625"/>
<g clip-path="url(#clip33_22107_228988)">
<path d="M864.222 172.111L862.577 171.162L865.994 169.189L864.977 168.603L863.321 169.559L861.666 168.604L869.488 164.088L859.562 162.553L856.901 156.822L848.885 161.45L857.613 166.489L853.298 168.98L840.255 161.451L855.105 152.878L861.875 153.925L864.546 159.676L874.708 161.249L876.468 165.041L864.222 172.111Z" fill="#731316"/>
<path d="M860.57 169.236L858.916 170.192L860.57 171.147L862.225 170.192L860.57 169.236Z" fill="#731316"/>
<path d="M861.469 171.787L859.815 172.743L861.469 173.698L863.124 172.743L861.469 171.787Z" fill="#731316"/>
</g>
<rect x="0.438435" width="54.8816" height="54.8816" rx="9.87187" transform="matrix(0.866044 -0.499967 0.866044 0.499967 867.928 130.172)" fill="#1A1B26" stroke="#1A1B26" stroke-width="0.50625"/>
<g clip-path="url(#clip34_22107_228988)">
<path d="M904.303 123.294L900.081 132.391L911.615 139.049L927.372 136.612L931.594 127.516L920.06 120.857L904.303 123.294ZM921.438 128.047L920.314 130.471L915.348 131.317L919.024 133.439L917.918 136.291L910.233 131.854L911.164 129.622L916.245 128.714L912.493 126.548L913.767 123.61L921.438 128.047Z" fill="#237FA7"/>
</g>
<rect x="0.438435" width="54.8816" height="54.8816" rx="9.87187" transform="matrix(0.866044 -0.499967 0.866044 0.499967 529.286 194.649)" fill="#1A1B26" stroke="#1A1B26" stroke-width="0.50625"/>
<g clip-path="url(#clip35_22107_228988)">
<path d="M564.536 189.109L560.888 196.956L560.892 196.958L572.834 203.853L577.942 203.063L565.996 196.166L568.272 191.265L564.536 189.109Z" fill="#B2B6BD"/>
<path d="M567.978 187.122L577.491 192.614L574.049 194.601L570.499 192.552L569.129 195.501L581.317 202.538L586.431 201.749L576.945 196.272L580.386 194.286L583.913 196.322L585.281 193.373L573.085 186.332L567.978 187.122Z" fill="#B2B6BD"/>
<path d="M589.876 199.764L593.524 191.917L593.52 191.915L581.578 185.021L576.469 185.812L588.415 192.708L586.14 197.608L589.876 199.764Z" fill="#B2B6BD"/>
</g>
<rect x="0.438435" width="54.8816" height="54.8816" rx="9.87187" transform="matrix(0.866044 -0.499967 0.866044 0.499967 698.964 161.171)" fill="#1A1B26" stroke="#1A1B26" stroke-width="0.50625"/>
<g clip-path="url(#clip36_22107_228988)">
<path d="M734.215 155.631L730.567 163.478L730.571 163.48L742.513 170.374L747.621 169.584L735.675 162.688L737.951 157.787L734.215 155.631Z" fill="#B2B6BD"/>
<path d="M737.657 153.644L747.17 159.136L743.728 161.123L740.179 159.073L738.808 162.023L750.996 169.059L756.11 168.27L746.624 162.794L750.065 160.808L753.592 162.843L754.96 159.895L742.765 152.854L737.657 153.644Z" fill="#B2B6BD"/>
<path d="M759.555 166.286L763.204 158.439L763.2 158.436L751.258 151.542L746.148 152.333L758.094 159.23L755.82 164.129L759.555 166.286Z" fill="#B2B6BD"/>
</g>
<rect x="0.438435" width="54.8816" height="54.8816" rx="9.87187" transform="matrix(0.866044 -0.499967 0.866044 0.499967 526.586 261.45)" fill="#1A1B26" stroke="#1A1B26" stroke-width="0.50625"/>
<g clip-path="url(#clip37_22107_228988)">
<path d="M561.837 255.909L558.188 263.757L558.192 263.759L570.134 270.653L575.242 269.863L563.296 262.967L565.572 258.066L561.837 255.909Z" fill="#B2B6BD"/>
<path d="M565.278 253.923L574.791 259.415L571.35 261.401L567.8 259.352L566.429 262.302L578.617 269.338L583.731 268.549L574.245 263.073L577.686 261.086L581.213 263.122L582.581 260.173L570.386 253.133L565.278 253.923Z" fill="#B2B6BD"/>
<path d="M587.176 266.565L590.825 258.718L590.821 258.715L578.879 251.821L573.769 252.612L585.715 259.509L583.441 264.408L587.176 266.565Z" fill="#B2B6BD"/>
</g>
</g>
<rect x="0.498842" width="62.424" height="62.424" rx="11.232" transform="matrix(0.866044 -0.499967 0.866044 0.499967 473.067 67.3998)" fill="#0C0C0E" stroke="#1A1B26" stroke-width="0.576"/>
<path fill-rule="evenodd" clip-rule="evenodd" d="M527.5 96.8674L527.5 235.79L577 207.372L577 69.7595C576.618 71.4788 575.276 73.1412 572.976 74.4616L538.071 94.4986C535.165 96.1671 531.307 96.9567 527.5 96.8674Z" fill="url(#paint0_linear_22107_228988)" fill-opacity="0.6"/>
<path fill-rule="evenodd" clip-rule="evenodd" d="M527.5 96.8674L527.5 235.79L478 207.372L478 69.7595C478.382 71.4788 479.724 73.1412 482.024 74.4616L516.929 94.4986C519.835 96.1671 523.693 96.9567 527.5 96.8674Z" fill="url(#paint1_linear_22107_228988)" fill-opacity="0.6"/>
<path fill-rule="evenodd" clip-rule="evenodd" d="M466.5 132.76L466.5 271.683L516 243.265L516 105.652C515.618 107.372 514.276 109.034 511.976 110.354L477.071 130.391C474.165 132.06 470.307 132.85 466.5 132.76Z" fill="url(#paint2_linear_22107_228988)" fill-opacity="0.6"/>
<path fill-rule="evenodd" clip-rule="evenodd" d="M466.5 132.76L466.5 271.683L417 243.265L417 105.652C417.382 107.372 418.724 109.034 421.024 110.354L455.929 130.391C458.835 132.06 462.693 132.85 466.5 132.76Z" fill="url(#paint3_linear_22107_228988)" fill-opacity="0.6"/>
<rect x="0.498842" width="62.424" height="62.424" rx="11.232" transform="matrix(0.866044 -0.499967 0.866044 0.499967 412.067 103.399)" fill="#0C0C0E" stroke="#1A1B26" stroke-width="0.576"/>
<path fill-rule="evenodd" clip-rule="evenodd" d="M456.791 101.812L458.246 102.652L461.907 100.538L460.453 99.6983C458.685 98.678 458.755 96.9833 460.609 95.9132C462.462 94.8431 465.398 94.8027 467.165 95.823C468.933 96.8433 468.863 98.538 467.009 99.6081L465.483 100.489L468.975 102.504L470.5 101.624C472.354 100.553 475.289 100.513 477.057 101.533C478.824 102.554 478.754 104.248 476.9 105.318C475.047 106.389 472.111 106.429 470.344 105.409L468.889 104.569L465.228 106.683L466.682 107.522C468.45 108.543 468.38 110.237 466.526 111.307C464.673 112.378 461.737 112.418 459.97 111.398C458.202 110.377 458.272 108.683 460.126 107.613L461.652 106.732L458.16 104.716L456.635 105.597C454.781 106.667 451.846 106.708 450.078 105.687C448.311 104.667 448.381 102.972 450.235 101.902C452.088 100.832 455.024 100.792 456.791 101.812ZM451.98 102.91C451.138 103.396 451.106 104.167 451.909 104.63C452.712 105.094 454.047 105.076 454.889 104.589L456.415 103.709L454.96 102.869C454.157 102.405 452.823 102.424 451.98 102.91ZM470.72 103.512L472.175 104.352C472.978 104.815 474.312 104.797 475.155 104.311C475.998 103.824 476.029 103.054 475.226 102.59C474.423 102.126 473.088 102.145 472.246 102.631L470.72 103.512ZM467.144 103.561L463.653 101.546L459.991 103.66L463.482 105.675L467.144 103.561ZM461.871 108.62L463.397 107.739L464.852 108.579C465.655 109.043 465.623 109.813 464.781 110.3C463.938 110.786 462.604 110.805 461.8 110.341C460.997 109.877 461.029 109.107 461.871 108.62ZM463.738 99.4811L465.264 98.6004C466.106 98.114 466.138 97.3437 465.335 96.8799C464.531 96.4161 463.197 96.4345 462.354 96.9209C461.512 97.4073 461.48 98.1776 462.283 98.6414L463.738 99.4811Z" fill="#EFEFF1"/>
<path d="M534.532 72.5185L529.101 69.3834L528.853 67.1282L541.825 68.308L544.986 66.483L528.92 65.1077L528.153 57.3906L525.161 59.1178L526.12 67.4541L525.94 67.5584L518.24 63.1132L515.711 64.5732L532.003 73.9785L534.532 72.5185Z" fill="#EFEFF1"/>
</g>
<defs>
<filter id="filter0_f_22107_228988" x="452.975" y="14.0261" width="147.466" height="106.267" filterUnits="userSpaceOnUse" color-interpolation-filters="sRGB">
<feFlood flood-opacity="0" result="BackgroundImageFix"/>
<feBlend mode="normal" in="SourceGraphic" in2="BackgroundImageFix" result="shape"/>
<feGaussianBlur stdDeviation="12.5" result="effect1_foregroundBlur_22107_228988"/>
</filter>
<filter id="filter1_f_22107_228988" x="389.975" y="50.0261" width="147.466" height="106.267" filterUnits="userSpaceOnUse" color-interpolation-filters="sRGB">
<feFlood flood-opacity="0" result="BackgroundImageFix"/>
<feBlend mode="normal" in="SourceGraphic" in2="BackgroundImageFix" result="shape"/>
<feGaussianBlur stdDeviation="12.5" result="effect1_foregroundBlur_22107_228988"/>
</filter>
<linearGradient id="paint0_linear_22107_228988" x1="547.963" y1="39.9522" x2="548.129" y2="111.154" gradientUnits="userSpaceOnUse">
<stop offset="0.574973" stop-color="#1D3672"/>
<stop offset="1" stop-color="#0C0C0E" stop-opacity="0"/>
</linearGradient>
<linearGradient id="paint1_linear_22107_228988" x1="507.037" y1="39.9522" x2="507.38" y2="105.651" gradientUnits="userSpaceOnUse">
<stop offset="0.200926" stop-color="#2F59EF"/>
<stop offset="1" stop-color="#3059E9" stop-opacity="0"/>
</linearGradient>
<linearGradient id="paint2_linear_22107_228988" x1="486.963" y1="75.8451" x2="487.129" y2="147.047" gradientUnits="userSpaceOnUse">
<stop offset="0.574973" stop-color="#1D3672"/>
<stop offset="1" stop-color="#0C0C0E" stop-opacity="0"/>
</linearGradient>
<linearGradient id="paint3_linear_22107_228988" x1="446.037" y1="75.8451" x2="446.38" y2="141.543" gradientUnits="userSpaceOnUse">
<stop offset="0.200926" stop-color="#2F59EF"/>
<stop offset="1" stop-color="#3059E9" stop-opacity="0"/>
</linearGradient>
<clipPath id="clip0_22107_228988">
<rect width="985" height="428" fill="white"/>
</clipPath>
<clipPath id="clip1_22107_228988">
<rect width="33.0674" height="33.0674" fill="white" transform="matrix(0.866044 -0.499967 0.866044 0.499967 94.5161 325.657)"/>
</clipPath>
<clipPath id="clip2_22107_228988">
<rect width="33.0674" height="33.0674" fill="white" transform="matrix(0.866044 -0.499967 0.866044 0.499967 264.195 292.179)"/>
</clipPath>
<clipPath id="clip3_22107_228988">
<rect width="33.0674" height="33.0674" fill="white" transform="matrix(0.866044 -0.499967 0.866044 0.499967 151.434 292.799)"/>
</clipPath>
<clipPath id="clip4_22107_228988">
<rect width="33.0674" height="33.0674" fill="white" transform="matrix(0.866044 -0.499967 0.866044 0.499967 321.113 259.32)"/>
</clipPath>
<clipPath id="clip5_22107_228988">
<rect width="33.0674" height="33.0674" fill="white" transform="matrix(0.866044 -0.499967 0.866044 0.499967 208.351 259.94)"/>
</clipPath>
<clipPath id="clip6_22107_228988">
<rect width="33.0674" height="33.0674" fill="white" transform="matrix(0.866044 -0.499967 0.866044 0.499967 378.031 226.462)"/>
</clipPath>
<clipPath id="clip7_22107_228988">
<rect width="33.0674" height="33.0674" fill="white" transform="matrix(0.866044 -0.499967 0.866044 0.499967 265.269 227.082)"/>
</clipPath>
<clipPath id="clip8_22107_228988">
<rect width="33.0674" height="33.0674" fill="white" transform="matrix(0.866044 -0.499967 0.866044 0.499967 434.948 193.604)"/>
</clipPath>
<clipPath id="clip9_22107_228988">
<rect width="33.0674" height="33.0674" fill="white" transform="matrix(0.866044 -0.499967 0.866044 0.499967 322.187 194.223)"/>
</clipPath>
<clipPath id="clip10_22107_228988">
<rect width="33.0674" height="33.0674" fill="white" transform="matrix(0.866044 -0.499967 0.866044 0.499967 491.866 160.745)"/>
</clipPath>
<clipPath id="clip11_22107_228988">
<rect width="33.0674" height="33.0674" fill="white" transform="matrix(0.866044 -0.499967 0.866044 0.499967 319.681 327.104)"/>
</clipPath>
<clipPath id="clip12_22107_228988">
<rect width="33.0674" height="33.0674" fill="white" transform="matrix(0.866044 -0.499967 0.866044 0.499967 379.105 161.365)"/>
</clipPath>
<clipPath id="clip13_22107_228988">
<rect width="33.0674" height="33.0674" fill="white" transform="matrix(0.866044 -0.499967 0.866044 0.499967 548.784 127.886)"/>
</clipPath>
<clipPath id="clip14_22107_228988">
<rect width="33.0674" height="33.0674" fill="white" transform="matrix(0.866044 -0.499967 0.866044 0.499967 376.599 294.245)"/>
</clipPath>
<clipPath id="clip15_22107_228988">
<rect width="28.934" height="28.934" fill="white" transform="matrix(0.866044 -0.499967 0.866044 0.499967 609.639 95.2341)"/>
</clipPath>
<clipPath id="clip16_22107_228988">
<rect width="28.934" height="28.934" fill="white" transform="matrix(0.866044 -0.499967 0.866044 0.499967 437.454 261.594)"/>
</clipPath>
<clipPath id="clip17_22107_228988">
<rect width="28.934" height="28.934" fill="white" transform="matrix(0.866044 -0.499967 0.866044 0.499967 666.556 62.376)"/>
</clipPath>
<clipPath id="clip18_22107_228988">
<rect width="28.934" height="28.934" fill="white" transform="matrix(0.866044 -0.499967 0.866044 0.499967 494.372 228.736)"/>
</clipPath>
<clipPath id="clip19_22107_228988">
<rect width="33.0674" height="33.0674" fill="white" transform="matrix(0.866044 -0.499967 0.866044 0.499967 37.9563 358.723)"/>
</clipPath>
<clipPath id="clip20_22107_228988">
<rect width="33.0674" height="33.0674" fill="white" transform="matrix(0.866044 -0.499967 0.866044 0.499967 207.635 325.244)"/>
</clipPath>
<clipPath id="clip21_22107_228988">
<rect width="33.0674" height="33.0674" fill="white" transform="matrix(0.866044 -0.499967 0.866044 0.499967 605.117 161.365)"/>
</clipPath>
<clipPath id="clip22_22107_228988">
<rect width="33.0674" height="33.0674" fill="white" transform="matrix(0.866044 -0.499967 0.866044 0.499967 774.796 127.886)"/>
</clipPath>
<clipPath id="clip23_22107_228988">
<rect width="33.0674" height="33.0674" fill="white" transform="matrix(0.866044 -0.499967 0.866044 0.499967 604.518 227.896)"/>
</clipPath>
<clipPath id="clip24_22107_228988">
<rect width="33.0674" height="33.0674" fill="white" transform="matrix(0.866044 -0.499967 0.866044 0.499967 662.034 128.506)"/>
</clipPath>
<clipPath id="clip25_22107_228988">
<rect width="33.0674" height="33.0674" fill="white" transform="matrix(0.866044 -0.499967 0.866044 0.499967 831.714 95.0278)"/>
</clipPath>
<clipPath id="clip26_22107_228988">
<rect width="33.0674" height="33.0674" fill="white" transform="matrix(0.866044 -0.499967 0.866044 0.499967 661.436 195.038)"/>
</clipPath>
<clipPath id="clip27_22107_228988">
<rect width="33.0674" height="33.0674" fill="white" transform="matrix(0.866044 -0.499967 0.866044 0.499967 718.952 95.6477)"/>
</clipPath>
<clipPath id="clip28_22107_228988">
<rect width="33.0674" height="33.0674" fill="white" transform="matrix(0.866044 -0.499967 0.866044 0.499967 888.631 62.1694)"/>
</clipPath>
<clipPath id="clip29_22107_228988">
<rect width="33.0674" height="33.0674" fill="white" transform="matrix(0.866044 -0.499967 0.866044 0.499967 716.446 228.529)"/>
</clipPath>
<clipPath id="clip30_22107_228988">
<rect width="33.0674" height="33.0674" fill="white" transform="matrix(0.866044 -0.499967 0.866044 0.499967 775.87 62.7893)"/>
</clipPath>
<clipPath id="clip31_22107_228988">
<rect width="33.0674" height="33.0674" fill="white" transform="matrix(0.866044 -0.499967 0.866044 0.499967 773.364 195.67)"/>
</clipPath>
<clipPath id="clip32_22107_228988">
<rect width="33.0674" height="33.0674" fill="white" transform="matrix(0.866044 -0.499967 0.866044 0.499967 832.788 29.9309)"/>
</clipPath>
<clipPath id="clip33_22107_228988">
<rect width="33.0674" height="33.0674" fill="white" transform="matrix(0.866044 -0.499967 0.866044 0.499967 830.282 162.812)"/>
</clipPath>
<clipPath id="clip34_22107_228988">
<rect width="33.0674" height="33.0674" fill="white" transform="matrix(0.866044 -0.499967 0.866044 0.499967 887.2 129.953)"/>
</clipPath>
<clipPath id="clip35_22107_228988">
<rect width="33.0674" height="33.0674" fill="white" transform="matrix(0.866044 -0.499967 0.866044 0.499967 548.557 194.43)"/>
</clipPath>
<clipPath id="clip36_22107_228988">
<rect width="33.0674" height="33.0674" fill="white" transform="matrix(0.866044 -0.499967 0.866044 0.499967 718.236 160.952)"/>
</clipPath>
<clipPath id="clip37_22107_228988">
<rect width="33.0674" height="33.0674" fill="white" transform="matrix(0.866044 -0.499967 0.866044 0.499967 545.857 261.231)"/>
</clipPath>
</defs>
</svg>
