<svg width="985" height="417" viewBox="0 0 985 417" fill="none" xmlns="http://www.w3.org/2000/svg">
<g clip-path="url(#clip0_22110_229011)">
<path d="M985 0H0V428H985V0Z" fill="#E5E5E5"/>
<mask id="mask0_22110_229011" style="mask-type:luminance" maskUnits="userSpaceOnUse" x="0" y="0" width="985" height="419">
<path d="M985 0H0V419H985V0Z" fill="white"/>
</mask>
<g mask="url(#mask0_22110_229011)">
<path d="M986 -12.3479H0V416.652H986V-12.3479Z" fill="#0C0C0E"/>
<g filter="url(#filter0_f_22110_229011)">
<path d="M516.73 48.4116L482.107 68.3998C476.597 71.5808 476.597 76.7381 482.107 79.919L516.73 99.9073C522.24 103.088 531.174 103.088 536.684 99.9073L571.308 79.919C576.818 76.7381 576.818 71.5808 571.308 68.3998L536.684 48.4116C531.174 45.2306 522.24 45.2306 516.73 48.4116Z" fill="#51579B"/>
</g>
<g filter="url(#filter1_f_22110_229011)">
<path d="M453.73 84.4113L419.107 104.4C413.597 107.581 413.597 112.738 419.107 115.919L453.73 135.907C459.24 139.088 468.174 139.088 473.684 135.907L508.308 115.919C513.818 112.738 513.818 107.581 508.308 104.4L473.684 84.4113C468.174 81.2304 459.24 81.2304 453.73 84.4113Z" fill="#51579B"/>
</g>
<g opacity="0.2">
<path d="M114.605 310.153L84.1737 327.721C79.452 330.447 79.452 334.866 84.1737 337.592L114.605 355.16C119.326 357.886 126.982 357.886 131.704 355.16L162.135 337.592C166.856 334.866 166.856 330.447 162.135 327.721L131.704 310.153C126.982 307.427 119.326 307.427 114.605 310.153Z" fill="#1A1B26" stroke="#1A1B26" stroke-width="0.50625"/>
<mask id="mask1_22110_229011" style="mask-type:luminance" maskUnits="userSpaceOnUse" x="94" y="316" width="58" height="34">
<path d="M123.154 316.125L94.5161 332.657L123.154 349.19L151.792 332.657L123.154 316.125Z" fill="white"/>
</mask>
<g mask="url(#mask1_22110_229011)">
<path fill-rule="evenodd" clip-rule="evenodd" d="M112.115 330.068L122.452 328.468L130.021 332.838L119.682 334.437L112.115 330.068Z" fill="#633691"/>
<path fill-rule="evenodd" clip-rule="evenodd" d="M123.17 328.053L130.739 332.423L133.507 326.455L125.94 322.087L123.17 328.053Z" fill="#633691"/>
<path fill-rule="evenodd" clip-rule="evenodd" d="M100.62 331.827L108.187 336.196L118.524 334.598L110.957 330.229L100.62 331.827Z" fill="#633691"/>
<path fill-rule="evenodd" clip-rule="evenodd" d="M128.078 339.284L138.416 337.686L130.898 333.346L130.848 333.317L120.511 334.916L128.078 339.284Z" fill="#633691"/>
</g>
<path d="M284.283 276.675L253.852 294.243C249.13 296.969 249.13 301.388 253.852 304.114L284.283 321.682C289.005 324.408 296.66 324.408 301.382 321.682L331.813 304.114C336.535 301.388 336.535 296.969 331.813 294.243L301.382 276.675C296.66 273.949 289.005 273.949 284.283 276.675Z" fill="#1A1B26" stroke="#1A1B26" stroke-width="0.50625"/>
<mask id="mask2_22110_229011" style="mask-type:luminance" maskUnits="userSpaceOnUse" x="264" y="282" width="58" height="34">
<path d="M292.833 282.647L264.195 299.179L292.833 315.712L321.471 299.179L292.833 282.647Z" fill="white"/>
</mask>
<g mask="url(#mask2_22110_229011)">
<path fill-rule="evenodd" clip-rule="evenodd" d="M281.794 296.59L292.131 294.99L299.7 299.359L289.361 300.959L281.794 296.59Z" fill="#633691"/>
<path fill-rule="evenodd" clip-rule="evenodd" d="M292.849 294.575L300.418 298.945L303.187 292.977L295.62 288.608L292.849 294.575Z" fill="#633691"/>
<path fill-rule="evenodd" clip-rule="evenodd" d="M270.299 298.349L277.866 302.717L288.203 301.119L280.636 296.751L270.299 298.349Z" fill="#633691"/>
<path fill-rule="evenodd" clip-rule="evenodd" d="M297.757 305.806L308.095 304.208L300.577 299.868L300.528 299.839L290.19 301.437L297.757 305.806Z" fill="#633691"/>
</g>
<path d="M171.522 277.295L141.091 294.863C136.369 297.589 136.369 302.009 141.091 304.734L171.522 322.302C176.244 325.028 183.899 325.028 188.621 322.302L219.052 304.734C223.774 302.009 223.774 297.589 219.052 294.863L188.621 277.295C183.899 274.57 176.244 274.57 171.522 277.295Z" fill="#1A1B26" stroke="#1A1B26" stroke-width="0.50625"/>
<mask id="mask3_22110_229011" style="mask-type:luminance" maskUnits="userSpaceOnUse" x="151" y="283" width="58" height="34">
<path d="M180.072 283.266L151.434 299.799L180.072 316.332L208.71 299.799L180.072 283.266Z" fill="white"/>
</mask>
<g mask="url(#mask3_22110_229011)">
<path fill-rule="evenodd" clip-rule="evenodd" d="M163.659 298.799L175.939 296.903L192.521 306.476L180.241 308.371L163.659 298.799Z" fill="#237FA7"/>
<path d="M177.234 293.2L163.899 295.271L167.28 297.222L176.361 295.819L186.513 301.68L190.775 301.016C193.416 300.607 194.217 299.487 192.533 298.515L185.083 294.214C183.407 293.249 179.873 292.795 177.234 293.2Z" fill="#237FA7"/>
</g>
<path d="M341.201 243.817L310.77 261.385C306.048 264.111 306.048 268.531 310.77 271.256L341.201 288.824C345.923 291.55 353.578 291.55 358.3 288.824L388.731 271.256C393.453 268.531 393.453 264.111 388.731 261.385L358.3 243.817C353.578 241.092 345.923 241.092 341.201 243.817Z" fill="#1A1B26" stroke="#1A1B26" stroke-width="0.50625"/>
<mask id="mask4_22110_229011" style="mask-type:luminance" maskUnits="userSpaceOnUse" x="321" y="249" width="58" height="34">
<path d="M349.751 249.787L321.113 266.32L349.751 282.853L378.389 266.32L349.751 249.787Z" fill="white"/>
</mask>
<g mask="url(#mask4_22110_229011)">
<path fill-rule="evenodd" clip-rule="evenodd" d="M333.338 265.32L345.618 263.425L362.2 272.997L349.92 274.893L333.338 265.32Z" fill="#237FA7"/>
<path d="M346.913 259.722L333.578 261.792L336.959 263.744L346.04 262.341L356.192 268.202L360.454 267.537C363.095 267.128 363.897 266.009 362.212 265.037L354.762 260.736C353.086 259.77 349.552 259.317 346.913 259.722Z" fill="#237FA7"/>
</g>
<path d="M228.439 244.437L198.008 262.004C193.286 264.73 193.286 269.15 198.008 271.876L228.439 289.443C233.161 292.169 240.816 292.169 245.538 289.443L275.969 271.876C280.691 269.15 280.691 264.73 275.969 262.004L245.538 244.437C240.816 241.711 233.161 241.711 228.439 244.437Z" fill="#1A1B26" stroke="#1A1B26" stroke-width="0.50625"/>
<mask id="mask5_22110_229011" style="mask-type:luminance" maskUnits="userSpaceOnUse" x="208" y="250" width="58" height="34">
<path d="M236.989 250.408L208.351 266.94L236.989 283.473L265.627 266.94L236.989 250.408Z" fill="white"/>
</mask>
<g mask="url(#mask5_22110_229011)">
<path d="M247.945 273.144C246.173 274.168 243.996 274.927 241.601 275.355C239.206 275.784 236.666 275.868 234.201 275.601C231.737 275.334 229.423 274.724 227.459 273.824C225.496 272.924 223.943 271.761 222.935 270.435C221.927 269.11 221.494 267.663 221.675 266.219C221.856 264.775 222.644 263.379 223.971 262.151C225.298 260.923 227.125 259.9 229.292 259.172C231.459 258.444 233.901 258.032 236.406 257.973L236.526 261.026C234.569 261.084 232.684 261.468 231.098 262.131C229.512 262.795 228.293 263.71 227.59 264.765C226.886 265.82 226.728 266.971 227.135 268.077C227.541 269.183 228.495 270.198 229.88 270.997C231.265 271.797 233.022 272.347 234.938 272.582C236.854 272.817 238.847 272.725 240.675 272.319C242.504 271.913 244.088 271.21 245.238 270.294C246.387 269.379 247.052 268.29 247.151 267.161L252.442 267.23C252.283 269.457 250.678 271.568 247.945 273.144Z" fill="#830833"/>
<path d="M251.262 264.937C251.086 265.039 250.861 265.108 250.616 265.136C250.371 265.165 250.117 265.15 249.886 265.095C249.655 265.04 249.458 264.946 249.319 264.826C249.181 264.707 249.107 264.566 249.107 264.421C249.107 264.277 249.181 264.136 249.319 264.016C249.458 263.896 249.655 263.803 249.886 263.748C250.117 263.693 250.371 263.678 250.616 263.706C250.861 263.735 251.086 263.804 251.262 263.906C251.498 264.043 251.631 264.228 251.631 264.421C251.631 264.615 251.498 264.8 251.262 264.937Z" fill="#830833"/>
<path d="M239.342 268.257C238.876 268.528 238.282 268.713 237.634 268.789C236.986 268.865 236.314 268.828 235.703 268.683C235.091 268.538 234.568 268.291 234.2 267.975C233.831 267.658 233.634 267.285 233.633 266.903C233.631 266.522 233.827 266.149 234.193 265.831C234.56 265.514 235.082 265.266 235.692 265.12C236.303 264.974 236.975 264.935 237.623 265.01C238.271 265.084 238.867 265.268 239.334 265.538C239.956 265.899 240.307 266.388 240.308 266.897C240.31 267.406 239.962 267.895 239.342 268.257Z" fill="#830833"/>
<path d="M249.244 262.589C249.067 262.691 248.842 262.76 248.597 262.789C248.352 262.817 248.098 262.802 247.867 262.747C247.637 262.692 247.439 262.598 247.301 262.479C247.162 262.359 247.088 262.218 247.088 262.073C247.088 261.929 247.162 261.788 247.301 261.668C247.439 261.549 247.637 261.455 247.867 261.4C248.098 261.345 248.352 261.33 248.597 261.358C248.842 261.387 249.067 261.456 249.244 261.558C249.48 261.695 249.612 261.88 249.612 262.073C249.612 262.267 249.48 262.452 249.244 262.589Z" fill="#830833"/>
<path d="M246.477 264.058C246.3 264.16 246.074 264.229 245.829 264.257C245.583 264.285 245.329 264.27 245.098 264.215C244.867 264.159 244.67 264.065 244.531 263.944C244.393 263.824 244.32 263.682 244.321 263.538C244.323 263.393 244.399 263.252 244.539 263.133C244.68 263.013 244.879 262.92 245.111 262.866C245.343 262.812 245.598 262.799 245.843 262.828C246.088 262.858 246.312 262.929 246.487 263.032C246.72 263.169 246.849 263.354 246.847 263.546C246.845 263.738 246.712 263.922 246.477 264.058Z" fill="#830833"/>
<path d="M246.234 260.852C246.058 260.954 245.833 261.023 245.588 261.051C245.343 261.08 245.089 261.065 244.858 261.01C244.628 260.955 244.43 260.861 244.292 260.741C244.153 260.622 244.079 260.481 244.079 260.336C244.079 260.192 244.153 260.051 244.292 259.931C244.43 259.812 244.628 259.718 244.858 259.663C245.089 259.608 245.343 259.593 245.588 259.621C245.833 259.65 246.058 259.719 246.234 259.821C246.471 259.958 246.603 260.143 246.603 260.336C246.603 260.53 246.471 260.715 246.234 260.852Z" fill="#830833"/>
<path d="M243.681 262.443C243.505 262.545 243.28 262.615 243.035 262.643C242.79 262.671 242.536 262.656 242.305 262.601C242.074 262.546 241.877 262.453 241.738 262.333C241.6 262.213 241.526 262.072 241.526 261.928C241.526 261.784 241.6 261.643 241.738 261.523C241.877 261.403 242.074 261.309 242.305 261.254C242.536 261.199 242.79 261.185 243.035 261.213C243.28 261.241 243.505 261.31 243.681 261.412C243.918 261.549 244.051 261.734 244.051 261.928C244.051 262.121 243.918 262.307 243.681 262.443Z" fill="#830833"/>
<path d="M242.259 259.68C242.083 259.782 241.858 259.852 241.613 259.88C241.368 259.908 241.114 259.894 240.883 259.839C240.652 259.784 240.454 259.691 240.315 259.571C240.176 259.451 240.102 259.31 240.101 259.166C240.101 259.022 240.175 258.881 240.314 258.761C240.452 258.641 240.65 258.547 240.88 258.492C241.111 258.437 241.365 258.422 241.61 258.45C241.855 258.478 242.081 258.548 242.257 258.65C242.494 258.786 242.627 258.971 242.627 259.164C242.627 259.358 242.495 259.543 242.259 259.68Z" fill="#830833"/>
</g>
<path d="M398.119 210.959L367.688 228.526C362.966 231.252 362.966 235.672 367.688 238.398L398.119 255.965C402.841 258.691 410.496 258.691 415.218 255.965L445.649 238.398C450.371 235.672 450.371 231.252 445.649 228.526L415.218 210.959C410.496 208.233 402.841 208.233 398.119 210.959Z" fill="#1A1B26" stroke="#1A1B26" stroke-width="0.50625"/>
<mask id="mask6_22110_229011" style="mask-type:luminance" maskUnits="userSpaceOnUse" x="378" y="216" width="58" height="34">
<path d="M406.669 216.93L378.031 233.462L406.669 249.995L435.307 233.462L406.669 216.93Z" fill="white"/>
</mask>
<g mask="url(#mask6_22110_229011)">
<path d="M417.624 239.665C415.853 240.69 413.675 241.449 411.28 241.877C408.885 242.306 406.345 242.39 403.881 242.123C401.416 241.856 399.102 241.246 397.139 240.346C395.175 239.446 393.622 238.282 392.614 236.957C391.606 235.632 391.174 234.184 391.354 232.741C391.535 231.297 392.323 229.9 393.65 228.672C394.978 227.444 396.804 226.422 398.971 225.694C401.138 224.966 403.58 224.554 406.086 224.494L406.205 227.548C404.249 227.606 402.363 227.989 400.777 228.653C399.191 229.317 397.973 230.231 397.269 231.287C396.566 232.342 396.408 233.493 396.814 234.599C397.221 235.705 398.174 236.719 399.559 237.519C400.944 238.319 402.701 238.869 404.618 239.104C406.534 239.338 408.527 239.247 410.355 238.841C412.183 238.435 413.768 237.732 414.917 236.816C416.067 235.9 416.731 234.812 416.831 233.683L422.121 233.751C421.962 235.979 420.357 238.09 417.624 239.665Z" fill="#830833"/>
<path d="M420.942 231.459C420.765 231.561 420.54 231.63 420.295 231.658C420.05 231.686 419.796 231.672 419.565 231.617C419.335 231.561 419.137 231.468 418.999 231.348C418.86 231.228 418.786 231.087 418.786 230.943C418.786 230.799 418.86 230.658 418.999 230.538C419.137 230.418 419.335 230.325 419.565 230.27C419.796 230.214 420.05 230.2 420.295 230.228C420.54 230.256 420.765 230.326 420.942 230.428C421.178 230.565 421.31 230.75 421.31 230.943C421.31 231.136 421.178 231.322 420.942 231.459Z" fill="#830833"/>
<path d="M409.021 234.779C408.555 235.05 407.961 235.235 407.313 235.311C406.665 235.387 405.993 235.35 405.382 235.205C404.77 235.06 404.247 234.813 403.879 234.496C403.51 234.18 403.313 233.807 403.312 233.425C403.311 233.044 403.506 232.67 403.872 232.353C404.239 232.035 404.761 231.788 405.371 231.642C405.982 231.495 406.654 231.457 407.302 231.532C407.95 231.606 408.546 231.79 409.013 232.06C409.636 232.421 409.986 232.909 409.988 233.419C409.989 233.928 409.641 234.417 409.021 234.779Z" fill="#830833"/>
<path d="M418.923 229.111C418.746 229.213 418.521 229.282 418.276 229.31C418.031 229.338 417.777 229.324 417.547 229.269C417.316 229.214 417.119 229.12 416.98 229C416.841 228.88 416.767 228.739 416.767 228.595C416.767 228.451 416.841 228.31 416.98 228.19C417.119 228.07 417.316 227.977 417.547 227.922C417.777 227.867 418.031 227.852 418.276 227.88C418.521 227.908 418.746 227.978 418.923 228.08C419.159 228.217 419.291 228.402 419.291 228.595C419.291 228.788 419.159 228.974 418.923 229.111Z" fill="#830833"/>
<path d="M416.156 230.579C415.979 230.681 415.754 230.751 415.508 230.779C415.262 230.807 415.008 230.792 414.777 230.736C414.546 230.681 414.349 230.587 414.21 230.466C414.072 230.346 413.999 230.204 414.001 230.06C414.002 229.915 414.078 229.774 414.218 229.654C414.359 229.535 414.558 229.442 414.79 229.388C415.022 229.334 415.277 229.321 415.522 229.35C415.767 229.38 415.991 229.451 416.166 229.554C416.399 229.691 416.528 229.876 416.526 230.068C416.524 230.26 416.391 230.444 416.156 230.579Z" fill="#830833"/>
<path d="M415.914 227.374C415.737 227.476 415.512 227.545 415.267 227.573C415.022 227.601 414.768 227.587 414.537 227.532C414.307 227.477 414.11 227.383 413.971 227.263C413.832 227.143 413.758 227.002 413.758 226.858C413.758 226.714 413.832 226.573 413.971 226.453C414.11 226.333 414.307 226.24 414.537 226.185C414.768 226.129 415.022 226.115 415.267 226.143C415.512 226.171 415.737 226.241 415.914 226.343C416.15 226.48 416.282 226.665 416.282 226.858C416.282 227.051 416.15 227.237 415.914 227.374Z" fill="#830833"/>
<path d="M413.36 228.965C413.184 229.067 412.959 229.136 412.714 229.164C412.469 229.193 412.215 229.178 411.984 229.123C411.754 229.068 411.556 228.974 411.418 228.854C411.279 228.735 411.205 228.594 411.205 228.449C411.205 228.305 411.279 228.164 411.418 228.044C411.556 227.925 411.754 227.831 411.984 227.776C412.215 227.721 412.469 227.706 412.714 227.734C412.959 227.763 413.184 227.832 413.36 227.934C413.597 228.071 413.73 228.256 413.73 228.449C413.73 228.643 413.597 228.828 413.36 228.965Z" fill="#830833"/>
<path d="M411.938 226.201C411.762 226.304 411.537 226.373 411.292 226.402C411.047 226.43 410.793 226.416 410.562 226.361C410.331 226.306 410.134 226.213 409.994 226.093C409.855 225.973 409.781 225.832 409.781 225.688C409.78 225.544 409.854 225.403 409.993 225.282C410.132 225.162 410.329 225.069 410.56 225.014C410.79 224.958 411.044 224.944 411.289 224.972C411.535 225 411.76 225.07 411.936 225.172C412.173 225.308 412.306 225.493 412.306 225.686C412.307 225.879 412.174 226.065 411.938 226.201Z" fill="#830833"/>
</g>
<path d="M285.357 211.578L254.926 229.146C250.204 231.872 250.204 236.292 254.926 239.017L285.357 256.585C290.079 259.311 297.734 259.311 302.456 256.585L332.887 239.017C337.609 236.292 337.609 231.872 332.887 229.146L302.456 211.578C297.734 208.853 290.079 208.853 285.357 211.578Z" fill="#1A1B26" stroke="#1A1B26" stroke-width="0.50625"/>
<mask id="mask7_22110_229011" style="mask-type:luminance" maskUnits="userSpaceOnUse" x="265" y="217" width="58" height="34">
<path d="M293.907 217.549L265.269 234.082L293.907 250.615L322.545 234.082L293.907 217.549Z" fill="white"/>
</mask>
<g mask="url(#mask7_22110_229011)">
<path d="M272.826 234.656L305.23 240.665L294.901 221.912L272.826 234.656ZM290.611 234.2L288.859 235.211L287.107 234.2L288.859 233.188L290.611 234.2ZM287.982 232.682L286.23 233.694L284.48 232.683L286.232 231.672L287.982 232.682ZM295.865 234.2L294.113 235.211L292.361 234.2L294.113 233.188L295.865 234.2ZM293.238 232.683L291.486 233.695L289.734 232.683L291.486 231.672L293.238 232.683ZM290.609 231.166L288.857 232.177L287.107 231.167L288.859 230.155L290.609 231.166ZM295.852 231.175L294.099 232.186L292.347 231.175L294.099 230.163L295.852 231.175ZM291.47 230.668L289.72 229.658L291.472 228.647L293.222 229.657L291.47 230.668Z" fill="#8F7D09"/>
</g>
<path d="M455.037 178.1L424.606 195.668C419.884 198.394 419.884 202.814 424.606 205.539L455.037 223.107C459.759 225.833 467.414 225.833 472.136 223.107L502.567 205.539C507.289 202.814 507.289 198.394 502.567 195.668L472.136 178.1C467.414 175.375 459.759 175.375 455.037 178.1Z" fill="#1A1B26" stroke="#1A1B26" stroke-width="0.50625"/>
<mask id="mask8_22110_229011" style="mask-type:luminance" maskUnits="userSpaceOnUse" x="434" y="184" width="59" height="34">
<path d="M463.586 184.072L434.948 200.604L463.586 217.137L492.224 200.604L463.586 184.072Z" fill="white"/>
</mask>
<g mask="url(#mask8_22110_229011)">
<path d="M442.506 201.178L474.91 207.187L464.581 188.434L442.506 201.178ZM460.291 200.722L458.539 201.733L456.787 200.722L458.539 199.71L460.291 200.722ZM457.662 199.204L455.91 200.216L454.16 199.205L455.912 198.194L457.662 199.204ZM465.545 200.722L463.793 201.733L462.041 200.722L463.793 199.71L465.545 200.722ZM462.918 199.205L461.166 200.217L459.414 199.205L461.166 198.194L462.918 199.205ZM460.289 197.688L458.537 198.699L456.787 197.689L458.539 196.677L460.289 197.688ZM465.531 197.697L463.779 198.708L462.027 197.697L463.779 196.685L465.531 197.697ZM461.15 197.19L459.4 196.18L461.152 195.169L462.902 196.179L461.15 197.19Z" fill="#8F7D09"/>
</g>
<path d="M342.275 178.72L311.844 196.288C307.122 199.014 307.122 203.434 311.844 206.159L342.275 223.727C346.997 226.453 354.652 226.453 359.374 223.727L389.805 206.159C394.527 203.434 394.527 199.014 389.805 196.288L359.374 178.72C354.652 175.995 346.997 175.995 342.275 178.72Z" fill="#1A1B26" stroke="#1A1B26" stroke-width="0.50625"/>
<mask id="mask9_22110_229011" style="mask-type:luminance" maskUnits="userSpaceOnUse" x="322" y="184" width="58" height="34">
<path d="M350.825 184.691L322.187 201.223L350.825 217.756L379.463 201.223L350.825 184.691Z" fill="white"/>
</mask>
<g mask="url(#mask9_22110_229011)">
<path d="M356.126 210.523L354.482 209.574L357.898 207.601L356.882 207.015L355.226 207.971L353.571 207.016L361.393 202.5L351.467 200.965L348.806 195.234L340.789 199.862L349.518 204.901L345.202 207.392L332.16 199.863L347.01 191.29L353.78 192.337L356.451 198.088L366.613 199.661L368.373 203.453L356.126 210.523Z" fill="#731316"/>
<path d="M352.475 207.648L350.82 208.604L352.475 209.559L354.13 208.604L352.475 207.648Z" fill="#731316"/>
<path d="M353.374 210.199L351.719 211.155L353.374 212.11L355.029 211.155L353.374 210.199Z" fill="#731316"/>
</g>
<path d="M511.954 145.241L481.523 162.809C476.801 165.535 476.801 169.955 481.523 172.68L511.954 190.248C516.676 192.974 524.331 192.974 529.053 190.248L559.484 172.68C564.206 169.955 564.206 165.535 559.484 162.809L529.053 145.241C524.331 142.516 516.676 142.516 511.954 145.241Z" fill="#1A1B26" stroke="#1A1B26" stroke-width="0.50625"/>
<mask id="mask10_22110_229011" style="mask-type:luminance" maskUnits="userSpaceOnUse" x="491" y="151" width="59" height="34">
<path d="M520.504 151.213L491.866 167.745L520.504 184.278L549.142 167.745L520.504 151.213Z" fill="white"/>
</mask>
<g mask="url(#mask10_22110_229011)">
<path d="M525.805 177.044L524.161 176.095L527.577 174.122L526.561 173.536L524.904 174.492L523.25 173.537L531.072 169.021L521.146 167.486L518.485 161.755L510.468 166.383L519.197 171.422L514.881 173.914L501.839 166.384L516.689 157.811L523.459 158.858L526.13 164.609L536.292 166.182L538.052 169.974L525.805 177.044Z" fill="#731316"/>
<path d="M522.154 174.17L520.499 175.125L522.154 176.08L523.809 175.125L522.154 174.17Z" fill="#731316"/>
<path d="M523.053 176.721L521.398 177.676L523.053 178.631L524.708 177.676L523.053 176.721Z" fill="#731316"/>
</g>
<path d="M339.769 311.6L309.338 329.168C304.617 331.894 304.617 336.314 309.338 339.039L339.769 356.607C344.491 359.333 352.146 359.333 356.868 356.607L387.299 339.039C392.021 336.314 392.021 331.894 387.299 329.168L356.868 311.6C352.146 308.875 344.491 308.875 339.769 311.6Z" fill="#1A1B26" stroke="#1A1B26" stroke-width="0.50625"/>
<mask id="mask11_22110_229011" style="mask-type:luminance" maskUnits="userSpaceOnUse" x="319" y="317" width="58" height="34">
<path d="M348.319 317.571L319.681 334.104L348.319 350.637L376.957 334.104L348.319 317.571Z" fill="white"/>
</mask>
<g mask="url(#mask11_22110_229011)">
<path d="M353.621 343.404L351.976 342.454L355.393 340.482L354.376 339.895L352.72 340.852L351.065 339.896L358.887 335.381L348.961 333.846L346.3 328.115L338.283 332.743L347.012 337.782L342.696 340.273L329.654 332.744L344.504 324.171L351.274 325.218L353.945 330.969L364.107 332.542L365.867 336.334L353.621 343.404Z" fill="#731316"/>
<path d="M349.969 340.529L348.314 341.484L349.969 342.439L351.624 341.484L349.969 340.529Z" fill="#731316"/>
<path d="M350.868 343.08L349.214 344.035L350.868 344.99L352.523 344.035L350.868 343.08Z" fill="#731316"/>
</g>
<path d="M399.193 145.861L368.762 163.429C364.041 166.155 364.041 170.574 368.762 173.3L399.193 190.868C403.915 193.594 411.57 193.594 416.292 190.868L446.723 173.3C451.445 170.574 451.445 166.155 446.723 163.429L416.292 145.861C411.57 143.136 403.915 143.136 399.193 145.861Z" fill="#1A1B26" stroke="#1A1B26" stroke-width="0.50625"/>
<mask id="mask12_22110_229011" style="mask-type:luminance" maskUnits="userSpaceOnUse" x="379" y="151" width="58" height="34">
<path d="M407.743 151.833L379.105 168.365L407.743 184.898L436.381 168.365L407.743 151.833Z" fill="white"/>
</mask>
<g mask="url(#mask12_22110_229011)">
<path d="M396.208 161.706L391.986 170.802L403.521 177.461L419.277 175.023L423.499 165.927L411.965 159.268L396.208 161.706ZM413.343 166.459L412.219 168.882L407.253 169.728L410.929 171.85L409.823 174.702L402.138 170.266L403.069 168.034L408.15 167.126L404.398 164.959L405.672 162.021L413.343 166.459Z" fill="#237FA7"/>
</g>
<path d="M568.872 112.382L538.441 129.95C533.72 132.676 533.72 137.095 538.441 139.821L568.872 157.389C573.594 160.115 581.249 160.115 585.971 157.389L616.402 139.821C621.124 137.095 621.124 132.676 616.402 129.95L585.971 112.382C581.249 109.657 573.594 109.656 568.872 112.382Z" fill="#1A1B26" stroke="#1A1B26" stroke-width="0.50625"/>
<mask id="mask13_22110_229011" style="mask-type:luminance" maskUnits="userSpaceOnUse" x="548" y="118" width="59" height="34">
<path d="M577.422 118.354L548.784 134.886L577.422 151.419L606.06 134.886L577.422 118.354Z" fill="white"/>
</mask>
<g mask="url(#mask13_22110_229011)">
<path d="M565.887 128.227L561.665 137.323L573.2 143.982L588.956 141.545L593.179 132.449L581.644 125.79L565.887 128.227ZM583.022 132.98L581.898 135.404L576.933 136.25L580.608 138.372L579.502 141.223L571.818 136.787L572.748 134.555L577.83 133.647L574.077 131.481L575.352 128.543L583.022 132.98Z" fill="#237FA7"/>
</g>
<path d="M396.687 278.742L366.256 296.31C361.535 299.036 361.535 303.456 366.256 306.181L396.687 323.749C401.409 326.475 409.064 326.475 413.786 323.749L444.217 306.181C448.939 303.456 448.939 299.036 444.217 296.31L413.786 278.742C409.064 276.017 401.409 276.017 396.687 278.742Z" fill="#1A1B26" stroke="#1A1B26" stroke-width="0.50625"/>
<mask id="mask14_22110_229011" style="mask-type:luminance" maskUnits="userSpaceOnUse" x="376" y="284" width="58" height="34">
<path d="M405.237 284.713L376.599 301.245L405.237 317.778L433.875 301.245L405.237 284.713Z" fill="white"/>
</mask>
<g mask="url(#mask14_22110_229011)">
<path d="M393.702 294.586L389.48 303.683L401.014 310.342L416.771 307.904L420.993 298.808L409.459 292.149L393.702 294.586ZM410.837 299.339L409.713 301.763L404.747 302.609L408.422 304.731L407.317 307.583L399.632 303.147L400.563 300.915L405.644 300.007L401.891 297.84L403.166 294.902L410.837 299.339Z" fill="#237FA7"/>
</g>
<path d="M625.79 79.5245L595.359 97.0922C590.638 99.8181 590.638 104.238 595.359 106.963L625.79 124.531C630.512 127.257 638.167 127.257 642.889 124.531L673.32 106.963C678.042 104.238 678.042 99.8181 673.32 97.0922L642.889 79.5245C638.167 76.7986 630.512 76.7986 625.79 79.5245Z" fill="#1A1B26" stroke="#1A1B26" stroke-width="0.50625"/>
<mask id="mask15_22110_229011" style="mask-type:luminance" maskUnits="userSpaceOnUse" x="609" y="87" width="51" height="30">
<path d="M634.697 87.7681L609.639 102.234L634.697 116.7L659.755 102.234L634.697 87.7681Z" fill="white"/>
</mask>
<g mask="url(#mask15_22110_229011)">
<path d="M639.376 90.624L641.642 95.506L633.185 94.198L639.376 90.624Z" fill="#1D7177"/>
<path d="M626.43 102.231L624.364 103.424L638.471 105.607L639.984 108.864L614.586 104.936L624.916 98.972L639.027 101.155L638.27 99.527L626.981 97.78L631.112 95.395L636.759 96.268L642.402 97.141L646.182 105.286L626.43 102.231Z" fill="#1D7177"/>
</g>
<path d="M453.605 245.883L423.174 263.451C418.452 266.177 418.452 270.596 423.174 273.322L453.605 290.89C458.327 293.616 465.982 293.616 470.704 290.89L501.135 273.322C505.857 270.596 505.857 266.177 501.135 263.451L470.704 245.883C465.982 243.157 458.327 243.157 453.605 245.883Z" fill="#1A1B26" stroke="#1A1B26" stroke-width="0.50625"/>
<mask id="mask16_22110_229011" style="mask-type:luminance" maskUnits="userSpaceOnUse" x="437" y="254" width="51" height="30">
<path d="M462.512 254.128L437.454 268.594L462.512 283.06L487.57 268.594L462.512 254.128Z" fill="white"/>
</mask>
<g mask="url(#mask16_22110_229011)">
<path d="M467.191 256.984L469.457 261.866L461 260.558L467.191 256.984Z" fill="#1D7177"/>
<path d="M454.245 268.591L452.179 269.783L466.286 271.966L467.799 275.224L442.401 271.295L452.731 265.332L466.841 267.515L466.085 265.886L454.796 264.139L458.927 261.754L464.574 262.627L470.217 263.5L473.997 271.646L454.245 268.591Z" fill="#1D7177"/>
</g>
<path d="M682.707 46.6661L652.276 64.2338C647.555 66.9597 647.555 71.3792 652.276 74.105L682.707 91.6728C687.429 94.3987 695.084 94.3987 699.806 91.6728L730.237 74.105C734.959 71.3792 734.959 66.9597 730.237 64.2338L699.806 46.6661C695.084 43.9402 687.429 43.9402 682.707 46.6661Z" fill="#1A1B26" stroke="#1A1B26" stroke-width="0.50625"/>
<mask id="mask17_22110_229011" style="mask-type:luminance" maskUnits="userSpaceOnUse" x="666" y="54" width="51" height="30">
<path d="M691.614 54.9099L666.556 69.376L691.614 83.842L716.672 69.376L691.614 54.9099Z" fill="white"/>
</mask>
<g mask="url(#mask17_22110_229011)">
<path d="M688.886 60.0114L687.114 63.8289L688.601 64.6868L692.053 69.6293L683.491 67.6362L682.005 66.7783L675.393 67.801L674.317 70.1236L676.028 71.1111L695.613 75.8618L701.319 74.9788L702.849 71.6847L694.62 60.3781L692.909 59.3906L688.886 60.0114Z" fill="#2354AA"/>
<path d="M692.909 59.3906L691.136 63.207L692.624 64.0659L696.828 70.4229L696.109 71.971L701.319 74.9787L702.849 71.6847L694.62 60.3781L692.909 59.3906Z" fill="#0850C5"/>
<path d="M683.491 67.6362L682.005 66.7783L680.927 69.1009L682.414 69.9598L693.428 72.3859L694.146 70.8378L692.053 69.6293L683.491 67.6362Z" fill="#0850C5"/>
</g>
<path d="M510.522 213.025L480.091 230.593C475.369 233.319 475.369 237.739 480.091 240.464L510.522 258.032C515.244 260.758 522.899 260.758 527.621 258.032L558.052 240.464C562.774 237.739 562.774 233.319 558.052 230.593L527.621 213.025C522.899 210.3 515.244 210.3 510.522 213.025Z" fill="#1A1B26" stroke="#1A1B26" stroke-width="0.50625"/>
<mask id="mask18_22110_229011" style="mask-type:luminance" maskUnits="userSpaceOnUse" x="494" y="221" width="51" height="30">
<path d="M519.43 221.27L494.372 235.736L519.43 250.202L544.488 235.736L519.43 221.27Z" fill="white"/>
</mask>
<g mask="url(#mask18_22110_229011)">
<path d="M516.701 226.371L514.93 230.188L516.416 231.046L519.868 235.989L511.307 233.996L509.821 233.138L503.208 234.161L502.133 236.483L503.843 237.471L523.428 242.221L529.134 241.338L530.664 238.044L522.435 226.738L520.724 225.75L516.701 226.371Z" fill="#2354AA"/>
<path d="M520.724 225.75L518.951 229.567L520.439 230.426L524.643 236.783L523.924 238.331L529.134 241.338L530.664 238.044L522.435 226.738L520.724 225.75Z" fill="#0850C5"/>
<path d="M511.307 233.996L509.821 233.138L508.742 235.46L510.23 236.319L521.243 238.745L521.962 237.197L519.868 235.989L511.307 233.996Z" fill="#0850C5"/>
</g>
<path d="M58.0449 343.22L27.6139 360.787C22.8922 363.513 22.8922 367.933 27.6139 370.659L58.0449 388.226C62.7666 390.952 70.4221 390.952 75.1438 388.226L105.575 370.659C110.296 367.933 110.296 363.513 105.575 360.787L75.1438 343.22C70.4221 340.494 62.7666 340.494 58.0449 343.22Z" fill="#1A1B26" stroke="#1A1B26" stroke-width="0.50625"/>
<mask id="mask19_22110_229011" style="mask-type:luminance" maskUnits="userSpaceOnUse" x="37" y="349" width="59" height="34">
<path d="M66.5941 349.191L37.9563 365.723L66.5941 382.256L95.2319 365.723L66.5941 349.191Z" fill="white"/>
</mask>
<g mask="url(#mask19_22110_229011)">
<path d="M53.9356 360.402L50.2871 368.249L50.291 368.251L62.2331 375.145L67.3409 374.355L55.3949 367.459L57.6711 362.558L53.9356 360.402Z" fill="#B2B6BD"/>
<path d="M57.3767 358.415L66.8897 363.907L63.4484 365.894L59.8987 363.844L58.5283 366.794L70.7162 373.83L75.8299 373.041L66.3439 367.565L69.7853 365.579L73.3118 367.614L74.6802 364.666L62.4845 357.625L57.3767 358.415Z" fill="#B2B6BD"/>
<path d="M79.2752 371.057L82.9236 363.21L82.9197 363.207L70.9776 356.313L65.8679 357.104L77.8139 364.001L75.5396 368.9L79.2752 371.057Z" fill="#B2B6BD"/>
</g>
<path d="M227.724 309.741L197.293 327.309C192.571 330.035 192.571 334.455 197.293 337.18L227.724 354.748C232.446 357.474 240.101 357.474 244.823 354.748L275.254 337.18C279.976 334.455 279.976 330.035 275.254 327.309L244.823 309.741C240.101 307.016 232.446 307.016 227.724 309.741Z" fill="#1A1B26" stroke="#1A1B26" stroke-width="0.50625"/>
<mask id="mask20_22110_229011" style="mask-type:luminance" maskUnits="userSpaceOnUse" x="207" y="315" width="58" height="34">
<path d="M236.273 315.712L207.635 332.244L236.273 348.777L264.911 332.244L236.273 315.712Z" fill="white"/>
</mask>
<g mask="url(#mask20_22110_229011)">
<path d="M223.615 326.923L219.966 334.77L219.97 334.773L231.912 341.667L237.02 340.877L225.074 333.98L227.35 329.08L223.615 326.923Z" fill="#B2B6BD"/>
<path d="M227.056 324.937L236.569 330.428L233.128 332.415L229.578 330.366L228.208 333.316L240.395 340.352L245.509 339.563L236.023 334.087L239.464 332.1L242.991 334.136L244.359 331.187L232.164 324.147L227.056 324.937Z" fill="#B2B6BD"/>
<path d="M248.954 337.578L252.603 329.731L252.599 329.729L240.657 322.835L235.547 323.626L247.493 330.522L245.219 335.422L248.954 337.578Z" fill="#B2B6BD"/>
</g>
<path d="M625.205 145.861L594.774 163.429C590.053 166.155 590.053 170.574 594.774 173.3L625.205 190.868C629.927 193.594 637.582 193.594 642.304 190.868L672.735 173.3C677.457 170.574 677.457 166.155 672.735 163.429L642.304 145.861C637.582 143.136 629.927 143.136 625.205 145.861Z" fill="#1A1B26" stroke="#1A1B26" stroke-width="0.50625"/>
<mask id="mask21_22110_229011" style="mask-type:luminance" maskUnits="userSpaceOnUse" x="605" y="151" width="58" height="34">
<path d="M633.755 151.833L605.117 168.365L633.755 184.898L662.393 168.365L633.755 151.833Z" fill="white"/>
</mask>
<g mask="url(#mask21_22110_229011)">
<path fill-rule="evenodd" clip-rule="evenodd" d="M622.715 165.776L633.053 164.176L640.622 168.546L630.282 170.145L622.715 165.776Z" fill="#633691"/>
<path fill-rule="evenodd" clip-rule="evenodd" d="M633.771 163.761L641.34 168.131L644.108 162.163L636.541 157.795L633.771 163.761Z" fill="#633691"/>
<path fill-rule="evenodd" clip-rule="evenodd" d="M611.22 167.535L618.787 171.904L629.125 170.306L621.558 165.937L611.22 167.535Z" fill="#633691"/>
<path fill-rule="evenodd" clip-rule="evenodd" d="M638.679 174.992L649.016 173.394L641.499 169.054L641.449 169.025L631.112 170.624L638.679 174.992Z" fill="#633691"/>
</g>
<path d="M794.884 112.383L764.453 129.951C759.732 132.677 759.732 137.096 764.453 139.822L794.884 157.39C799.606 160.116 807.261 160.116 811.983 157.39L842.414 139.822C847.136 137.096 847.136 132.677 842.414 129.951L811.983 112.383C807.261 109.657 799.606 109.657 794.884 112.383Z" fill="#1A1B26" stroke="#1A1B26" stroke-width="0.50625"/>
<mask id="mask22_22110_229011" style="mask-type:luminance" maskUnits="userSpaceOnUse" x="774" y="118" width="59" height="34">
<path d="M803.434 118.354L774.796 134.886L803.434 151.419L832.072 134.886L803.434 118.354Z" fill="white"/>
</mask>
<g mask="url(#mask22_22110_229011)">
<path fill-rule="evenodd" clip-rule="evenodd" d="M792.394 132.298L802.732 130.697L810.301 135.067L799.961 136.666L792.394 132.298Z" fill="#633691"/>
<path fill-rule="evenodd" clip-rule="evenodd" d="M803.45 130.283L811.019 134.652L813.787 128.684L806.22 124.316L803.45 130.283Z" fill="#633691"/>
<path fill-rule="evenodd" clip-rule="evenodd" d="M780.899 134.056L788.467 138.425L798.804 136.827L791.237 132.458L780.899 134.056Z" fill="#633691"/>
<path fill-rule="evenodd" clip-rule="evenodd" d="M808.358 141.513L818.695 139.915L811.178 135.575L811.128 135.547L800.791 137.145L808.358 141.513Z" fill="#633691"/>
</g>
<path d="M624.606 212.392L594.175 229.96C589.453 232.686 589.453 237.105 594.175 239.831L624.606 257.399C629.328 260.125 636.983 260.125 641.705 257.399L672.136 239.831C676.858 237.105 676.858 232.686 672.136 229.96L641.705 212.392C636.983 209.667 629.328 209.667 624.606 212.392Z" fill="#1A1B26" stroke="#1A1B26" stroke-width="0.50625"/>
<mask id="mask23_22110_229011" style="mask-type:luminance" maskUnits="userSpaceOnUse" x="604" y="218" width="58" height="34">
<path d="M633.156 218.364L604.518 234.896L633.156 251.429L661.794 234.896L633.156 218.364Z" fill="white"/>
</mask>
<g mask="url(#mask23_22110_229011)">
<path fill-rule="evenodd" clip-rule="evenodd" d="M622.116 232.307L632.454 230.707L640.023 235.077L629.684 236.676L622.116 232.307Z" fill="#633691"/>
<path fill-rule="evenodd" clip-rule="evenodd" d="M633.172 230.292L640.741 234.662L643.509 228.694L635.942 224.326L633.172 230.292Z" fill="#633691"/>
<path fill-rule="evenodd" clip-rule="evenodd" d="M610.622 234.066L618.189 238.435L628.526 236.837L620.959 232.468L610.622 234.066Z" fill="#633691"/>
<path fill-rule="evenodd" clip-rule="evenodd" d="M638.08 241.523L648.418 239.925L640.9 235.585L640.85 235.556L630.513 237.155L638.08 241.523Z" fill="#633691"/>
</g>
<path d="M682.123 113.003L651.692 130.571C646.971 133.297 646.971 137.717 651.692 140.442L682.123 158.01C686.845 160.736 694.5 160.736 699.222 158.01L729.653 140.442C734.375 137.717 734.375 133.297 729.653 130.571L699.222 113.003C694.5 110.278 686.845 110.278 682.123 113.003Z" fill="#1A1B26" stroke="#1A1B26" stroke-width="0.50625"/>
<mask id="mask24_22110_229011" style="mask-type:luminance" maskUnits="userSpaceOnUse" x="662" y="118" width="58" height="35">
<path d="M690.672 118.973L662.034 135.506L690.672 152.039L719.31 135.506L690.672 118.973Z" fill="white"/>
</mask>
<g mask="url(#mask24_22110_229011)">
<path fill-rule="evenodd" clip-rule="evenodd" d="M674.259 134.506L686.54 132.611L703.122 142.183L690.841 144.079L674.259 134.506Z" fill="#237FA7"/>
<path d="M687.834 128.908L674.5 130.978L677.881 132.93L686.961 131.527L697.114 137.388L701.376 136.723C704.017 136.314 704.818 135.195 703.134 134.223L695.684 129.922C694.007 128.956 690.473 128.503 687.834 128.908Z" fill="#237FA7"/>
</g>
<path d="M851.802 79.5245L821.371 97.0922C816.65 99.8181 816.65 104.238 821.371 106.963L851.802 124.531C856.524 127.257 864.179 127.257 868.901 124.531L899.332 106.963C904.054 104.238 904.054 99.8181 899.332 97.0922L868.901 79.5245C864.179 76.7986 856.524 76.7986 851.802 79.5245Z" fill="#1A1B26" stroke="#1A1B26" stroke-width="0.50625"/>
<mask id="mask25_22110_229011" style="mask-type:luminance" maskUnits="userSpaceOnUse" x="831" y="85" width="58" height="34">
<path d="M860.352 85.4955L831.714 102.028L860.352 118.561L888.99 102.028L860.352 85.4955Z" fill="white"/>
</mask>
<g mask="url(#mask25_22110_229011)">
<path fill-rule="evenodd" clip-rule="evenodd" d="M843.939 101.028L856.219 99.1318L872.801 108.705L860.521 110.6L843.939 101.028Z" fill="#237FA7"/>
<path d="M857.514 95.4289L844.179 97.4999L847.56 99.4509L856.641 98.0479L866.793 103.909L871.055 103.245C873.696 102.836 874.498 101.716 872.813 100.744L865.363 96.4429C863.687 95.4779 860.153 95.0239 857.514 95.4289Z" fill="#237FA7"/>
</g>
<path d="M681.524 179.534L651.093 197.102C646.371 199.828 646.371 204.248 651.093 206.973L681.524 224.541C686.246 227.267 693.901 227.267 698.623 224.541L729.054 206.973C733.776 204.248 733.776 199.828 729.054 197.102L698.623 179.534C693.901 176.809 686.246 176.809 681.524 179.534Z" fill="#1A1B26" stroke="#1A1B26" stroke-width="0.50625"/>
<mask id="mask26_22110_229011" style="mask-type:luminance" maskUnits="userSpaceOnUse" x="661" y="185" width="58" height="34">
<path d="M690.074 185.505L661.436 202.038L690.074 218.571L718.712 202.038L690.074 185.505Z" fill="white"/>
</mask>
<g mask="url(#mask26_22110_229011)">
<path fill-rule="evenodd" clip-rule="evenodd" d="M673.66 201.038L685.941 199.142L702.523 208.715L690.242 210.611L673.66 201.038Z" fill="#237FA7"/>
<path d="M687.235 195.44L673.901 197.51L677.282 199.462L686.362 198.059L696.515 203.92L700.777 203.255C703.418 202.846 704.219 201.727 702.535 200.754L695.085 196.454C693.408 195.488 689.874 195.034 687.235 195.44Z" fill="#237FA7"/>
</g>
<path d="M739.041 80.1446L708.61 97.7123C703.889 100.438 703.889 104.858 708.61 107.584L739.041 125.151C743.763 127.877 751.418 127.877 756.14 125.151L786.571 107.584C791.293 104.858 791.293 100.438 786.571 97.7123L756.14 80.1446C751.418 77.4187 743.763 77.4187 739.041 80.1446Z" fill="#1A1B26" stroke="#1A1B26" stroke-width="0.50625"/>
<mask id="mask27_22110_229011" style="mask-type:luminance" maskUnits="userSpaceOnUse" x="718" y="86" width="59" height="34">
<path d="M747.59 86.1156L718.952 102.648L747.59 119.181L776.228 102.648L747.59 86.1156Z" fill="white"/>
</mask>
<g mask="url(#mask27_22110_229011)">
<path d="M758.546 108.851C756.775 109.875 754.597 110.635 752.202 111.063C749.807 111.491 747.267 111.576 744.802 111.309C742.338 111.042 740.024 110.432 738.06 109.532C736.097 108.631 734.544 107.468 733.536 106.143C732.528 104.817 732.095 103.37 732.276 101.926C732.457 100.483 733.245 99.0862 734.572 97.8582C735.9 96.6302 737.726 95.6082 739.893 94.8802C742.06 94.1522 744.502 93.7402 747.007 93.6802L747.127 96.7342C745.17 96.7912 743.285 97.1752 741.699 97.8392C740.113 98.5022 738.894 99.4172 738.191 100.473C737.488 101.528 737.33 102.678 737.736 103.785C738.143 104.891 739.096 105.905 740.481 106.705C741.866 107.504 743.623 108.055 745.539 108.29C747.456 108.524 749.448 108.433 751.277 108.027C753.105 107.621 754.69 106.917 755.839 106.002C756.988 105.086 757.653 103.998 757.753 102.868L763.043 102.937C762.884 105.165 761.279 107.276 758.546 108.851Z" fill="#830833"/>
<path d="M761.863 100.644C761.687 100.746 761.462 100.816 761.217 100.844C760.972 100.872 760.718 100.858 760.487 100.802C760.256 100.747 760.059 100.654 759.92 100.534C759.782 100.414 759.708 100.273 759.708 100.129C759.708 99.9852 759.782 99.8442 759.92 99.7242C760.059 99.6042 760.256 99.5112 760.487 99.4552C760.718 99.4002 760.972 99.3862 761.217 99.4142C761.462 99.4422 761.687 99.5112 761.863 99.6132C762.1 99.7502 762.232 99.9362 762.232 100.129C762.232 100.322 762.1 100.507 761.863 100.644Z" fill="#830833"/>
<path d="M749.943 103.965C749.477 104.236 748.883 104.421 748.235 104.497C747.587 104.572 746.915 104.535 746.304 104.39C745.692 104.245 745.169 103.999 744.801 103.682C744.432 103.365 744.235 102.993 744.234 102.611C744.233 102.229 744.428 101.856 744.794 101.539C745.161 101.221 745.683 100.974 746.293 100.827C746.904 100.681 747.576 100.643 748.224 100.717C748.872 100.792 749.468 100.976 749.935 101.246C750.558 101.607 750.908 102.095 750.909 102.604C750.911 103.114 750.563 103.603 749.943 103.965Z" fill="#830833"/>
<path d="M759.845 98.2973C759.668 98.3983 759.443 98.4683 759.198 98.4963C758.953 98.5243 758.699 98.5103 758.468 98.4553C758.238 98.3993 758.04 98.3063 757.902 98.1863C757.763 98.0663 757.689 97.9253 757.689 97.7813C757.689 97.6373 757.763 97.4963 757.902 97.3763C758.04 97.2563 758.238 97.1633 758.468 97.1073C758.699 97.0523 758.953 97.0383 759.198 97.0663C759.443 97.0943 759.668 97.1643 759.845 97.2663C760.081 97.4023 760.213 97.5883 760.213 97.7813C760.213 97.9743 760.081 98.1603 759.845 98.2973Z" fill="#830833"/>
<path d="M757.078 99.7652C756.901 99.8672 756.675 99.9372 756.43 99.9652C756.184 99.9932 755.93 99.9782 755.699 99.9222C755.468 99.8672 755.271 99.7722 755.132 99.6522C754.994 99.5312 754.921 99.3902 754.923 99.2452C754.924 99.1012 755 98.9602 755.14 98.8402C755.281 98.7212 755.48 98.6282 755.712 98.5742C755.944 98.5192 756.199 98.5062 756.444 98.5362C756.689 98.5652 756.913 98.6362 757.088 98.7402C757.321 98.8772 757.45 99.0622 757.448 99.2542C757.446 99.4462 757.313 99.6292 757.078 99.7652Z" fill="#830833"/>
<path d="M756.836 96.5592C756.659 96.6612 756.434 96.7312 756.189 96.7592C755.944 96.7872 755.69 96.7732 755.459 96.7172C755.229 96.6622 755.031 96.5692 754.893 96.4492C754.754 96.3292 754.68 96.1882 754.68 96.0442C754.68 95.9002 754.754 95.7592 754.893 95.6392C755.031 95.5192 755.229 95.4262 755.459 95.3702C755.69 95.3152 755.944 95.3012 756.189 95.3292C756.434 95.3572 756.659 95.4262 756.836 95.5282C757.072 95.6652 757.204 95.8512 757.204 96.0442C757.204 96.2372 757.072 96.4232 756.836 96.5592Z" fill="#830833"/>
<path d="M754.282 98.1513C754.106 98.2533 753.881 98.3223 753.636 98.3503C753.391 98.3783 753.137 98.3643 752.906 98.3093C752.675 98.2543 752.478 98.1603 752.339 98.0403C752.201 97.9203 752.127 97.7793 752.127 97.6353C752.127 97.4913 752.201 97.3503 752.339 97.2303C752.478 97.1103 752.675 97.0173 752.906 96.9623C753.137 96.9073 753.391 96.8923 753.636 96.9203C753.881 96.9483 754.106 97.0183 754.282 97.1203C754.519 97.2563 754.652 97.4423 754.652 97.6353C754.652 97.8293 754.519 98.0143 754.282 98.1513Z" fill="#830833"/>
<path d="M752.86 95.3871C752.684 95.4891 752.459 95.5591 752.214 95.5881C751.969 95.6161 751.715 95.6021 751.484 95.5471C751.253 95.4921 751.055 95.3991 750.916 95.2791C750.777 95.1591 750.703 95.0181 750.703 94.8741C750.702 94.7291 750.776 94.5881 750.915 94.4681C751.053 94.3481 751.251 94.2551 751.481 94.1991C751.712 94.1441 751.966 94.1301 752.211 94.1581C752.456 94.1861 752.682 94.2551 752.858 94.3571C753.095 94.4941 753.228 94.6791 753.228 94.8721C753.229 95.0651 753.096 95.2501 752.86 95.3871Z" fill="#830833"/>
</g>
<path d="M908.72 46.6661L878.289 64.2338C873.567 66.9597 873.567 71.3792 878.289 74.105L908.72 91.6728C913.442 94.3987 921.097 94.3987 925.819 91.6728L956.25 74.105C960.972 71.3792 960.972 66.9597 956.25 64.2338L925.819 46.6661C921.097 43.9402 913.442 43.9402 908.72 46.6661Z" fill="#1A1B26" stroke="#1A1B26" stroke-width="0.50625"/>
<mask id="mask28_22110_229011" style="mask-type:luminance" maskUnits="userSpaceOnUse" x="888" y="52" width="58" height="34">
<path d="M917.269 52.6368L888.631 69.1694L917.269 85.702L945.907 69.1694L917.269 52.6368Z" fill="white"/>
</mask>
<g mask="url(#mask28_22110_229011)">
<path d="M928.225 75.3727C926.454 76.397 924.276 77.1563 921.881 77.5846C919.486 78.0129 916.946 78.0973 914.482 77.8304C912.017 77.5636 909.703 76.9535 907.74 76.0533C905.776 75.153 904.223 73.9897 903.215 72.6644C902.207 71.339 901.775 69.8917 901.955 68.4479C902.136 67.0042 902.924 65.6078 904.251 64.3798C905.579 63.1518 907.405 62.1294 909.572 61.4013C911.739 60.6732 914.181 60.2614 916.687 60.2017L916.806 63.2556C914.85 63.313 912.964 63.6968 911.378 64.3604C909.792 65.0239 908.574 65.9389 907.87 66.9942C907.167 68.0496 907.009 69.2001 907.415 70.3063C907.822 71.4125 908.775 72.4268 910.16 73.2264C911.545 74.026 913.302 74.5765 915.219 74.8112C917.135 75.0459 919.128 74.9546 920.956 74.5485C922.784 74.1425 924.369 73.439 925.518 72.5233C926.668 71.6077 927.332 70.5193 927.432 69.3899L932.722 69.4588C932.564 71.6863 930.958 73.7976 928.225 75.3727Z" fill="#830833"/>
<path d="M931.543 67.1659C931.366 67.2679 931.141 67.3373 930.896 67.3654C930.651 67.3936 930.397 67.3791 930.166 67.324C929.936 67.2688 929.738 67.1753 929.6 67.0555C929.461 66.9356 929.387 66.7946 929.387 66.6504C929.387 66.5062 929.461 66.3653 929.6 66.2454C929.738 66.1255 929.936 66.0321 930.166 65.9769C930.397 65.9217 930.651 65.9073 930.896 65.9354C931.141 65.9636 931.366 66.033 931.543 66.1349C931.779 66.2719 931.911 66.4572 931.911 66.6504C931.911 66.8437 931.779 67.029 931.543 67.1659Z" fill="#830833"/>
<path d="M919.622 70.4862C919.157 70.7572 918.562 70.9423 917.915 71.0181C917.267 71.0939 916.595 71.0569 915.983 70.9119C915.372 70.7669 914.849 70.5204 914.48 70.2036C914.112 69.8869 913.914 69.514 913.913 69.1325C913.912 68.7509 914.107 68.3777 914.474 68.0602C914.84 67.7426 915.362 67.4951 915.973 67.3489C916.583 67.2028 917.255 67.1645 917.904 67.239C918.552 67.3135 919.147 67.4975 919.614 67.7675C920.237 68.1283 920.587 68.6166 920.589 69.1259C920.59 69.6353 920.243 70.1243 919.622 70.4862Z" fill="#830833"/>
<path d="M929.524 64.818C929.347 64.92 929.122 64.9894 928.877 65.0175C928.632 65.0457 928.378 65.0312 928.148 64.9761C927.917 64.9209 927.72 64.8274 927.581 64.7076C927.442 64.5877 927.368 64.4467 927.368 64.3025C927.368 64.1583 927.442 64.0174 927.581 63.8975C927.72 63.7776 927.917 63.6842 928.148 63.629C928.378 63.5738 928.632 63.5594 928.877 63.5875C929.122 63.6156 929.347 63.6851 929.524 63.787C929.76 63.924 929.893 64.1093 929.893 64.3025C929.893 64.4958 929.76 64.6811 929.524 64.818Z" fill="#830833"/>
<path d="M926.758 66.2866C926.581 66.3888 926.355 66.4583 926.109 66.4863C925.864 66.5143 925.609 66.4995 925.378 66.4438C925.147 66.3881 924.95 66.294 924.812 66.1735C924.674 66.053 924.601 65.9115 924.602 65.767C924.603 65.6224 924.679 65.4814 924.82 65.3618C924.96 65.2422 925.159 65.1494 925.391 65.0952C925.623 65.041 925.878 65.0279 926.123 65.0574C926.368 65.087 926.593 65.158 926.768 65.2613C927 65.3985 927.129 65.5832 927.128 65.7751C927.126 65.9671 926.993 66.1508 926.758 66.2866Z" fill="#830833"/>
<path d="M926.515 63.081C926.338 63.1829 926.113 63.2524 925.868 63.2805C925.623 63.3086 925.37 63.2942 925.139 63.239C924.908 63.1838 924.711 63.0904 924.572 62.9705C924.433 62.8506 924.359 62.7097 924.359 62.5655C924.359 62.4213 924.433 62.2803 924.572 62.1605C924.711 62.0406 924.908 61.9471 925.139 61.8919C925.37 61.8368 925.623 61.8223 925.868 61.8505C926.113 61.8786 926.338 61.948 926.515 62.05C926.751 62.1869 926.884 62.3723 926.884 62.5655C926.884 62.7587 926.751 62.944 926.515 63.081Z" fill="#830833"/>
<path d="M923.962 64.6723C923.785 64.7742 923.56 64.8437 923.315 64.8718C923.07 64.8999 922.816 64.8855 922.585 64.8303C922.355 64.7751 922.157 64.6817 922.019 64.5618C921.88 64.4419 921.806 64.301 921.806 64.1568C921.806 64.0126 921.88 63.8716 922.019 63.7518C922.157 63.6319 922.355 63.5384 922.585 63.4833C922.816 63.4281 923.07 63.4136 923.315 63.4418C923.56 63.4699 923.785 63.5393 923.962 63.6413C924.198 63.778 924.331 63.9634 924.331 64.1568C924.331 64.3501 924.198 64.5356 923.962 64.6723Z" fill="#830833"/>
<path d="M922.539 61.9087C922.363 62.0109 922.138 62.0806 921.893 62.1091C921.648 62.1375 921.394 62.1232 921.163 62.0682C920.932 62.0132 920.735 61.92 920.596 61.8002C920.456 61.6804 920.382 61.5394 920.382 61.3951C920.381 61.2509 920.455 61.1098 920.594 60.9898C920.733 60.8698 920.93 60.7762 921.161 60.721C921.391 60.6657 921.645 60.6511 921.891 60.6792C922.136 60.7073 922.361 60.7768 922.537 60.8788C922.774 61.0154 922.907 61.2005 922.907 61.3935C922.908 61.5866 922.775 61.7719 922.539 61.9087Z" fill="#830833"/>
</g>
<path d="M736.534 213.025L706.103 230.593C701.381 233.319 701.381 237.739 706.103 240.464L736.534 258.032C741.256 260.758 748.911 260.758 753.633 258.032L784.064 240.464C788.786 237.739 788.786 233.319 784.064 230.593L753.633 213.025C748.911 210.3 741.256 210.3 736.534 213.025Z" fill="#1A1B26" stroke="#1A1B26" stroke-width="0.50625"/>
<mask id="mask29_22110_229011" style="mask-type:luminance" maskUnits="userSpaceOnUse" x="716" y="218" width="58" height="35">
<path d="M745.084 218.996L716.446 235.529L745.084 252.062L773.722 235.529L745.084 218.996Z" fill="white"/>
</mask>
<g mask="url(#mask29_22110_229011)">
<path d="M756.04 241.732C754.268 242.757 752.091 243.516 749.696 243.944C747.301 244.373 744.761 244.457 742.296 244.19C739.832 243.923 737.518 243.313 735.554 242.413C733.591 241.513 732.038 240.349 731.03 239.024C730.022 237.699 729.589 236.251 729.77 234.808C729.95 233.364 730.739 231.967 732.066 230.739C733.393 229.511 735.22 228.489 737.387 227.761C739.554 227.033 741.996 226.621 744.501 226.561L744.621 229.615C742.664 229.673 740.779 230.056 739.193 230.72C737.607 231.384 736.388 232.299 735.685 233.354C734.981 234.409 734.823 235.56 735.23 236.666C735.636 237.772 736.59 238.787 737.975 239.586C739.36 240.386 741.117 240.936 743.033 241.171C744.949 241.406 746.942 241.314 748.77 240.908C750.599 240.502 752.183 239.799 753.333 238.883C754.482 237.967 755.147 236.879 755.246 235.75L760.536 235.819C760.378 238.046 758.773 240.157 756.04 241.732Z" fill="#830833"/>
<path d="M759.357 233.526C759.181 233.628 758.956 233.697 758.711 233.725C758.466 233.753 758.212 233.739 757.981 233.684C757.75 233.629 757.553 233.535 757.414 233.415C757.276 233.295 757.202 233.154 757.202 233.01C757.202 232.866 757.276 232.725 757.414 232.605C757.553 232.485 757.75 232.392 757.981 232.337C758.212 232.282 758.466 232.267 758.711 232.295C758.956 232.323 759.181 232.393 759.357 232.495C759.593 232.632 759.726 232.817 759.726 233.01C759.726 233.203 759.593 233.389 759.357 233.526Z" fill="#830833"/>
<path d="M747.437 236.846C746.971 237.117 746.377 237.302 745.729 237.378C745.081 237.454 744.409 237.417 743.798 237.272C743.186 237.127 742.663 236.88 742.294 236.563C741.926 236.247 741.729 235.874 741.728 235.492C741.726 235.111 741.922 234.737 742.288 234.42C742.655 234.102 743.177 233.855 743.787 233.709C744.398 233.563 745.07 233.524 745.718 233.599C746.366 233.673 746.962 233.857 747.429 234.127C748.051 234.488 748.402 234.976 748.403 235.486C748.405 235.995 748.057 236.484 747.437 236.846Z" fill="#830833"/>
<path d="M757.338 231.178C757.162 231.28 756.937 231.349 756.692 231.377C756.447 231.405 756.193 231.391 755.962 231.336C755.732 231.281 755.534 231.187 755.396 231.067C755.257 230.947 755.183 230.807 755.183 230.662C755.183 230.518 755.257 230.377 755.396 230.257C755.534 230.137 755.732 230.044 755.962 229.989C756.193 229.934 756.447 229.919 756.692 229.947C756.937 229.975 757.162 230.045 757.338 230.147C757.575 230.284 757.707 230.469 757.707 230.662C757.707 230.856 757.575 231.041 757.338 231.178Z" fill="#830833"/>
<path d="M754.572 232.646C754.395 232.749 754.169 232.818 753.924 232.846C753.678 232.874 753.424 232.859 753.193 232.804C752.962 232.748 752.764 232.654 752.626 232.533C752.488 232.413 752.415 232.271 752.416 232.127C752.418 231.982 752.494 231.841 752.634 231.722C752.775 231.602 752.974 231.509 753.206 231.455C753.438 231.401 753.693 231.388 753.938 231.417C754.183 231.447 754.407 231.518 754.582 231.621C754.815 231.758 754.944 231.943 754.942 232.135C754.94 232.327 754.807 232.511 754.572 232.646Z" fill="#830833"/>
<path d="M754.329 229.441C754.153 229.543 753.928 229.612 753.683 229.64C753.438 229.668 753.184 229.654 752.953 229.599C752.723 229.544 752.525 229.45 752.387 229.33C752.248 229.21 752.174 229.069 752.174 228.925C752.174 228.781 752.248 228.64 752.387 228.52C752.525 228.4 752.723 228.307 752.953 228.252C753.184 228.197 753.438 228.182 753.683 228.21C753.928 228.238 754.153 228.308 754.329 228.41C754.566 228.547 754.698 228.732 754.698 228.925C754.698 229.119 754.566 229.304 754.329 229.441Z" fill="#830833"/>
<path d="M751.776 231.032C751.6 231.134 751.375 231.203 751.13 231.232C750.885 231.26 750.631 231.245 750.4 231.19C750.169 231.135 749.972 231.042 749.833 230.922C749.695 230.802 749.62 230.661 749.62 230.517C749.62 230.372 749.695 230.231 749.833 230.112C749.972 229.992 750.169 229.898 750.4 229.843C750.631 229.788 750.885 229.773 751.13 229.802C751.375 229.83 751.6 229.899 751.776 230.001C752.013 230.138 752.146 230.323 752.146 230.517C752.146 230.71 752.013 230.895 751.776 231.032Z" fill="#830833"/>
<path d="M750.354 228.268C750.178 228.371 749.953 228.44 749.708 228.469C749.463 228.497 749.209 228.483 748.978 228.428C748.747 228.373 748.549 228.28 748.41 228.16C748.271 228.04 748.197 227.899 748.196 227.755C748.196 227.611 748.27 227.47 748.409 227.35C748.547 227.23 748.745 227.136 748.975 227.081C749.206 227.025 749.46 227.011 749.705 227.039C749.95 227.067 750.175 227.137 750.352 227.239C750.589 227.375 750.722 227.56 750.722 227.753C750.722 227.946 750.59 228.132 750.354 228.268Z" fill="#830833"/>
</g>
<path d="M795.958 47.2859L765.527 64.8537C760.806 67.5796 760.806 71.9991 765.527 74.7249L795.958 92.2927C800.68 95.0185 808.335 95.0185 813.057 92.2927L843.488 74.7249C848.21 71.9991 848.21 67.5796 843.488 64.8537L813.057 47.2859C808.335 44.5601 800.68 44.5601 795.958 47.2859Z" fill="#1A1B26" stroke="#1A1B26" stroke-width="0.50625"/>
<mask id="mask30_22110_229011" style="mask-type:luminance" maskUnits="userSpaceOnUse" x="775" y="53" width="59" height="34">
<path d="M804.508 53.2569L775.87 69.7896L804.508 86.3222L833.146 69.7896L804.508 53.2569Z" fill="white"/>
</mask>
<g mask="url(#mask30_22110_229011)">
<path d="M783.427 70.3635L815.831 76.3727L805.502 57.6196L783.427 70.3635ZM801.212 69.9077L799.46 70.9192L797.708 69.9077L799.46 68.8963L801.212 69.9077ZM798.583 68.3899L796.831 69.4014L795.081 68.3911L796.833 67.3796L798.583 68.3899ZM806.466 69.9077L804.714 70.9192L802.962 69.9077L804.714 68.8963L806.466 69.9077ZM803.839 68.3911L802.087 69.4026L800.335 68.3911L802.087 67.3796L803.839 68.3911ZM801.21 66.8733L799.458 67.8848L797.708 66.8745L799.46 65.863L801.21 66.8733ZM806.452 66.8825L804.7 67.894L802.948 66.8825L804.7 65.871L806.452 66.8825ZM802.071 66.3762L800.321 65.3658L802.073 64.3544L803.823 65.3647L802.071 66.3762Z" fill="#8F7D09"/>
</g>
<path d="M793.452 180.167L763.021 197.734C758.299 200.46 758.299 204.88 763.021 207.606L793.452 225.173C798.174 227.899 805.829 227.899 810.551 225.173L840.982 207.606C845.704 204.88 845.704 200.46 840.982 197.734L810.551 180.167C805.829 177.441 798.174 177.441 793.452 180.167Z" fill="#1A1B26" stroke="#1A1B26" stroke-width="0.50625"/>
<mask id="mask31_22110_229011" style="mask-type:luminance" maskUnits="userSpaceOnUse" x="773" y="186" width="58" height="34">
<path d="M802.002 186.138L773.364 202.67L802.002 219.203L830.64 202.67L802.002 186.138Z" fill="white"/>
</mask>
<g mask="url(#mask31_22110_229011)">
<path d="M780.921 203.244L813.326 209.254L802.996 190.5L780.921 203.244ZM798.706 202.789L796.954 203.8L795.202 202.789L796.954 201.777L798.706 202.789ZM796.077 201.271L794.325 202.282L792.575 201.272L794.327 200.26L796.077 201.271ZM803.961 202.789L802.209 203.8L800.457 202.789L802.209 201.777L803.961 202.789ZM801.334 201.272L799.581 202.283L797.829 201.272L799.581 200.26L801.334 201.272ZM798.704 199.754L796.952 200.766L795.202 199.755L796.954 198.744L798.704 199.754ZM803.947 199.763L802.195 200.775L800.443 199.763L802.195 198.752L803.947 199.763ZM799.566 199.257L797.815 198.247L799.568 197.235L801.318 198.246L799.566 199.257Z" fill="#8F7D09"/>
</g>
<path d="M852.876 14.4275L822.445 31.9953C817.723 34.7212 817.723 39.1407 822.445 41.8665L852.876 59.4343C857.598 62.1602 865.253 62.1601 869.975 59.4343L900.406 41.8665C905.128 39.1407 905.128 34.7212 900.406 31.9953L869.975 14.4275C865.253 11.7017 857.598 11.7017 852.876 14.4275Z" fill="#1A1B26" stroke="#1A1B26" stroke-width="0.50625"/>
<mask id="mask32_22110_229011" style="mask-type:luminance" maskUnits="userSpaceOnUse" x="832" y="20" width="59" height="34">
<path d="M861.426 20.3985L832.788 36.9312L861.426 53.4638L890.064 36.9312L861.426 20.3985Z" fill="white"/>
</mask>
<g mask="url(#mask32_22110_229011)">
<path d="M866.727 46.2307L865.083 45.2813L868.499 43.3088L867.483 42.7222L865.826 43.6785L864.172 42.7233L871.993 38.2078L862.068 36.6728L859.407 30.9415L851.39 35.5695L860.119 40.6085L855.803 43.0999L842.761 35.5707L857.611 26.9978L864.381 28.0449L867.051 33.7957L877.214 35.3686L878.974 39.1608L866.727 46.2307Z" fill="#731316"/>
<path d="M863.076 43.356L861.421 44.3112L863.076 45.2665L864.73 44.3112L863.076 43.356Z" fill="#731316"/>
<path d="M863.975 45.907L862.32 46.8623L863.975 47.8175L865.63 46.8623L863.975 45.907Z" fill="#731316"/>
</g>
<path d="M850.37 147.308L819.939 164.876C815.217 167.602 815.217 172.022 819.939 174.747L850.37 192.315C855.092 195.041 862.747 195.041 867.469 192.315L897.9 174.747C902.622 172.022 902.622 167.602 897.9 164.876L867.469 147.308C862.747 144.583 855.092 144.583 850.37 147.308Z" fill="#1A1B26" stroke="#1A1B26" stroke-width="0.50625"/>
<mask id="mask33_22110_229011" style="mask-type:luminance" maskUnits="userSpaceOnUse" x="830" y="153" width="58" height="34">
<path d="M858.92 153.279L830.282 169.812L858.92 186.345L887.558 169.812L858.92 153.279Z" fill="white"/>
</mask>
<g mask="url(#mask33_22110_229011)">
<path d="M864.222 179.111L862.577 178.162L865.994 176.189L864.977 175.603L863.321 176.559L861.666 175.604L869.488 171.088L859.562 169.553L856.901 163.822L848.885 168.45L857.613 173.489L853.298 175.98L840.255 168.451L855.105 159.878L861.875 160.925L864.546 166.676L874.708 168.249L876.468 172.041L864.222 179.111Z" fill="#731316"/>
<path d="M860.57 176.236L858.916 177.192L860.57 178.147L862.225 177.192L860.57 176.236Z" fill="#731316"/>
<path d="M861.469 178.787L859.815 179.743L861.469 180.698L863.124 179.743L861.469 178.787Z" fill="#731316"/>
</g>
<path d="M907.288 114.45L876.857 132.017C872.135 134.743 872.135 139.163 876.857 141.888L907.288 159.456C912.01 162.182 919.665 162.182 924.387 159.456L954.818 141.888C959.54 139.163 959.54 134.743 954.818 132.017L924.387 114.45C919.665 111.724 912.01 111.724 907.288 114.45Z" fill="#1A1B26" stroke="#1A1B26" stroke-width="0.50625"/>
<mask id="mask34_22110_229011" style="mask-type:luminance" maskUnits="userSpaceOnUse" x="887" y="120" width="58" height="34">
<path d="M915.838 120.421L887.2 136.953L915.838 153.486L944.476 136.953L915.838 120.421Z" fill="white"/>
</mask>
<g mask="url(#mask34_22110_229011)">
<path d="M904.303 130.294L900.081 139.391L911.615 146.049L927.372 143.612L931.594 134.516L920.06 127.857L904.303 130.294ZM921.438 135.047L920.314 137.471L915.348 138.317L919.024 140.439L917.918 143.291L910.233 138.854L911.164 136.622L916.245 135.714L912.493 133.548L913.767 130.61L921.438 135.047Z" fill="#237FA7"/>
</g>
<path d="M568.646 178.927L538.215 196.494C533.494 199.22 533.494 203.64 538.215 206.366L568.646 223.933C573.368 226.659 581.023 226.659 585.745 223.933L616.176 206.366C620.898 203.64 620.898 199.22 616.176 196.494L585.745 178.927C581.023 176.201 573.368 176.201 568.646 178.927Z" fill="#1A1B26" stroke="#1A1B26" stroke-width="0.50625"/>
<mask id="mask35_22110_229011" style="mask-type:luminance" maskUnits="userSpaceOnUse" x="548" y="184" width="58" height="34">
<path d="M577.195 184.898L548.557 201.43L577.195 217.963L605.833 201.43L577.195 184.898Z" fill="white"/>
</mask>
<g mask="url(#mask35_22110_229011)">
<path d="M564.536 196.109L560.888 203.956L560.892 203.958L572.834 210.853L577.942 210.063L565.996 203.166L568.272 198.265L564.536 196.109Z" fill="#B2B6BD"/>
<path d="M567.978 194.122L577.491 199.614L574.049 201.601L570.499 199.552L569.129 202.501L581.317 209.538L586.431 208.749L576.945 203.272L580.386 201.286L583.913 203.322L585.281 200.373L573.085 193.332L567.978 194.122Z" fill="#B2B6BD"/>
<path d="M589.876 206.764L593.524 198.917L593.52 198.915L581.578 192.021L576.469 192.812L588.415 199.708L586.14 204.608L589.876 206.764Z" fill="#B2B6BD"/>
</g>
<path d="M738.324 145.449L707.893 163.016C703.171 165.742 703.171 170.162 707.893 172.888L738.324 190.455C743.046 193.181 750.701 193.181 755.423 190.455L785.854 172.888C790.576 170.162 790.576 165.742 785.854 163.016L755.423 145.449C750.701 142.723 743.046 142.723 738.324 145.449Z" fill="#1A1B26" stroke="#1A1B26" stroke-width="0.50625"/>
<mask id="mask36_22110_229011" style="mask-type:luminance" maskUnits="userSpaceOnUse" x="718" y="151" width="58" height="34">
<path d="M746.874 151.42L718.236 167.952L746.874 184.485L775.512 167.952L746.874 151.42Z" fill="white"/>
</mask>
<g mask="url(#mask36_22110_229011)">
<path d="M734.215 162.631L730.567 170.478L730.571 170.48L742.513 177.374L747.621 176.584L735.675 169.688L737.951 164.787L734.215 162.631Z" fill="#B2B6BD"/>
<path d="M737.657 160.644L747.17 166.136L743.728 168.123L740.179 166.073L738.808 169.023L750.996 176.059L756.11 175.27L746.624 169.794L750.065 167.808L753.592 169.843L754.96 166.895L742.765 159.854L737.657 160.644Z" fill="#B2B6BD"/>
<path d="M759.555 173.286L763.204 165.439L763.2 165.436L751.258 158.542L746.148 159.333L758.094 166.23L755.82 171.129L759.555 173.286Z" fill="#B2B6BD"/>
</g>
<path d="M565.946 245.728L535.515 263.295C530.794 266.021 530.794 270.441 535.515 273.167L565.946 290.734C570.668 293.46 578.323 293.46 583.045 290.734L613.476 273.167C618.198 270.441 618.198 266.021 613.476 263.295L583.045 245.728C578.323 243.002 570.668 243.002 565.946 245.728Z" fill="#1A1B26" stroke="#1A1B26" stroke-width="0.50625"/>
<mask id="mask37_22110_229011" style="mask-type:luminance" maskUnits="userSpaceOnUse" x="545" y="251" width="59" height="34">
<path d="M574.495 251.699L545.857 268.231L574.495 284.764L603.133 268.231L574.495 251.699Z" fill="white"/>
</mask>
<g mask="url(#mask37_22110_229011)">
<path d="M561.837 262.909L558.188 270.757L558.192 270.759L570.134 277.653L575.242 276.863L563.296 269.967L565.572 265.066L561.837 262.909Z" fill="#B2B6BD"/>
<path d="M565.278 260.923L574.791 266.415L571.35 268.401L567.8 266.352L566.429 269.302L578.617 276.338L583.731 275.549L574.245 270.073L577.686 268.086L581.213 270.122L582.581 267.173L570.386 260.133L565.278 260.923Z" fill="#B2B6BD"/>
<path d="M587.176 273.565L590.825 265.718L590.821 265.715L578.879 258.821L573.769 259.612L585.715 266.509L583.441 271.408L587.176 273.565Z" fill="#B2B6BD"/>
</g>
</g>
<path d="M517.834 48.5558L483.226 68.5345C477.854 71.6359 477.854 76.6643 483.226 79.7658L517.834 99.7445C523.206 102.846 531.916 102.846 537.288 99.7445L571.895 79.7658C577.268 76.6643 577.268 71.6359 571.895 68.5345L537.288 48.5558C531.916 45.4544 523.206 45.4544 517.834 48.5558Z" fill="#0C0C0E" stroke="#1A1B26" stroke-width="0.576"/>
<path fill-rule="evenodd" clip-rule="evenodd" d="M527.5 103.867V242.79L577 214.372V76.7593C576.618 78.4785 575.276 80.1409 572.976 81.4613L538.071 101.498C535.165 103.167 531.307 103.956 527.5 103.867Z" fill="url(#paint0_linear_22110_229011)" fill-opacity="0.6"/>
<path fill-rule="evenodd" clip-rule="evenodd" d="M527.5 103.867V242.79L478 214.372V76.7593C478.382 78.4785 479.724 80.1409 482.024 81.4613L516.929 101.498C519.835 103.167 523.693 103.956 527.5 103.867Z" fill="url(#paint1_linear_22110_229011)" fill-opacity="0.6"/>
<path fill-rule="evenodd" clip-rule="evenodd" d="M466.5 139.76V278.683L516 250.265V112.652C515.618 114.371 514.276 116.034 511.976 117.354L477.071 137.391C474.165 139.06 470.307 139.849 466.5 139.76Z" fill="url(#paint2_linear_22110_229011)" fill-opacity="0.6"/>
<path fill-rule="evenodd" clip-rule="evenodd" d="M466.5 139.76V278.683L417 250.265V112.652C417.382 114.371 418.724 116.034 421.024 117.354L455.929 137.391C458.835 139.06 462.693 139.849 466.5 139.76Z" fill="url(#paint3_linear_22110_229011)" fill-opacity="0.6"/>
<path d="M456.834 84.5553L422.226 104.534C416.854 107.635 416.854 112.664 422.226 115.765L456.834 135.744C462.206 138.845 470.916 138.845 476.288 135.744L510.895 115.765C516.268 112.664 516.268 107.635 510.895 104.534L476.288 84.5553C470.916 81.4539 462.206 81.4539 456.834 84.5553Z" fill="#0C0C0E" stroke="#1A1B26" stroke-width="0.576"/>
<path fill-rule="evenodd" clip-rule="evenodd" d="M456.791 108.812L458.246 109.652L461.907 107.538L460.453 106.698C458.685 105.678 458.755 103.983 460.609 102.913C462.462 101.843 465.398 101.802 467.165 102.823C468.933 103.843 468.863 105.538 467.009 106.608L465.483 107.489L468.975 109.504L470.5 108.623C472.354 107.553 475.289 107.513 477.057 108.533C478.824 109.553 478.754 111.248 476.9 112.318C475.047 113.388 472.111 113.429 470.344 112.408L468.889 111.569L465.228 113.682L466.682 114.522C468.45 115.542 468.38 117.237 466.526 118.307C464.673 119.377 461.737 119.418 459.97 118.397C458.202 117.377 458.272 115.682 460.126 114.612L461.652 113.732L458.16 111.716L456.635 112.597C454.781 113.667 451.846 113.707 450.078 112.687C448.311 111.667 448.381 109.972 450.235 108.902C452.088 107.832 455.024 107.791 456.791 108.812ZM451.98 109.91C451.138 110.396 451.106 111.166 451.909 111.63C452.712 112.094 454.047 112.076 454.889 111.589L456.415 110.708L454.96 109.869C454.157 109.405 452.823 109.423 451.98 109.91ZM470.72 110.512L472.175 111.351C472.978 111.815 474.312 111.797 475.155 111.31C475.998 110.824 476.029 110.054 475.226 109.59C474.423 109.126 473.088 109.145 472.246 109.631L470.72 110.512ZM467.144 110.561L463.653 108.545L459.991 110.659L463.482 112.675L467.144 110.561ZM461.871 115.62L463.397 114.739L464.852 115.579C465.655 116.043 465.623 116.813 464.781 117.299C463.938 117.786 462.604 117.804 461.8 117.34C460.997 116.877 461.029 116.106 461.871 115.62ZM463.738 106.481L465.264 105.6C466.106 105.114 466.138 104.343 465.335 103.88C464.531 103.416 463.197 103.434 462.354 103.921C461.512 104.407 461.48 105.177 462.283 105.641L463.738 106.481Z" fill="#EFEFF1"/>
<path d="M534.532 79.5182L529.101 76.3832L528.853 74.128L541.825 75.3077L544.986 73.4827L528.92 72.1075L528.153 64.3904L525.161 66.1176L526.12 74.4539L525.94 74.5582L518.24 70.113L515.711 71.573L532.003 80.9782L534.532 79.5182Z" fill="#EFEFF1"/>
</g>
</g>
<defs>
<filter id="filter0_f_22110_229011" x="452.974" y="21.0259" width="147.466" height="106.267" filterUnits="userSpaceOnUse" color-interpolation-filters="sRGB">
<feFlood flood-opacity="0" result="BackgroundImageFix"/>
<feBlend mode="normal" in="SourceGraphic" in2="BackgroundImageFix" result="shape"/>
<feGaussianBlur stdDeviation="12.5" result="effect1_foregroundBlur_22110_229011"/>
</filter>
<filter id="filter1_f_22110_229011" x="389.974" y="57.0256" width="147.466" height="106.267" filterUnits="userSpaceOnUse" color-interpolation-filters="sRGB">
<feFlood flood-opacity="0" result="BackgroundImageFix"/>
<feBlend mode="normal" in="SourceGraphic" in2="BackgroundImageFix" result="shape"/>
<feGaussianBlur stdDeviation="12.5" result="effect1_foregroundBlur_22110_229011"/>
</filter>
<linearGradient id="paint0_linear_22110_229011" x1="547.963" y1="46.952" x2="548.129" y2="118.154" gradientUnits="userSpaceOnUse">
<stop offset="0.574973" stop-color="#1D3672"/>
<stop offset="1" stop-color="#0C0C0E" stop-opacity="0"/>
</linearGradient>
<linearGradient id="paint1_linear_22110_229011" x1="507.037" y1="46.952" x2="507.38" y2="112.65" gradientUnits="userSpaceOnUse">
<stop offset="0.200926" stop-color="#2F59EF"/>
<stop offset="1" stop-color="#3059E9" stop-opacity="0"/>
</linearGradient>
<linearGradient id="paint2_linear_22110_229011" x1="486.963" y1="82.8449" x2="487.129" y2="154.047" gradientUnits="userSpaceOnUse">
<stop offset="0.574973" stop-color="#1D3672"/>
<stop offset="1" stop-color="#0C0C0E" stop-opacity="0"/>
</linearGradient>
<linearGradient id="paint3_linear_22110_229011" x1="446.037" y1="82.8449" x2="446.38" y2="148.543" gradientUnits="userSpaceOnUse">
<stop offset="0.200926" stop-color="#2F59EF"/>
<stop offset="1" stop-color="#3059E9" stop-opacity="0"/>
</linearGradient>
<clipPath id="clip0_22110_229011">
<rect width="985" height="417" fill="white"/>
</clipPath>
</defs>
</svg>
