<svg width="988" height="431" viewBox="0 0 988 431" fill="none" xmlns="http://www.w3.org/2000/svg">
<g clip-path="url(#clip0_8_797)">
<rect x="1" y="0.6521" width="986" height="429" fill="#0C0C0E"/>
<g filter="url(#filter0_f_8_797)">
<rect width="63.0191" height="63.0191" rx="11.52" transform="matrix(0.866044 -0.499967 0.866044 0.499967 473.13 87.1593)" fill="#51579B"/>
</g>
<g filter="url(#filter1_f_8_797)">
<rect width="63.0191" height="63.0191" rx="11.52" transform="matrix(0.866044 -0.499967 0.866044 0.499967 410.13 123.159)" fill="#51579B"/>
</g>
<g opacity="0.4">
<rect x="0.438435" width="54.8816" height="54.8816" rx="9.87187" transform="matrix(0.866044 -0.499967 0.866044 0.499967 76.2445 345.877)" fill="#1A1B26" stroke="#1A1B26" stroke-width="0.50625"/>
<g clip-path="url(#clip1_8_797)">
<path fill-rule="evenodd" clip-rule="evenodd" d="M113.115 343.069L123.452 341.468L131.021 345.838L120.682 347.437L113.115 343.069Z" fill="#633691"/>
<path fill-rule="evenodd" clip-rule="evenodd" d="M124.17 341.054L131.739 345.423L134.507 339.456L126.94 335.087L124.17 341.054Z" fill="#633691"/>
<path fill-rule="evenodd" clip-rule="evenodd" d="M101.62 344.828L109.187 349.196L119.524 347.598L111.957 343.229L101.62 344.828Z" fill="#633691"/>
<path fill-rule="evenodd" clip-rule="evenodd" d="M129.078 352.284L139.416 350.686L131.898 346.346L131.848 346.318L121.511 347.916L129.078 352.284Z" fill="#633691"/>
</g>
<rect x="0.438435" width="54.8816" height="54.8816" rx="9.87187" transform="matrix(0.866044 -0.499967 0.866044 0.499967 245.923 312.398)" fill="#1A1B26" stroke="#1A1B26" stroke-width="0.50625"/>
<g clip-path="url(#clip2_8_797)">
<path fill-rule="evenodd" clip-rule="evenodd" d="M282.794 309.59L293.131 307.99L300.7 312.359L290.361 313.958L282.794 309.59Z" fill="#633691"/>
<path fill-rule="evenodd" clip-rule="evenodd" d="M293.849 307.575L301.418 311.945L304.186 305.977L296.619 301.608L293.849 307.575Z" fill="#633691"/>
<path fill-rule="evenodd" clip-rule="evenodd" d="M271.299 311.349L278.866 315.717L289.203 314.119L281.636 309.751L271.299 311.349Z" fill="#633691"/>
<path fill-rule="evenodd" clip-rule="evenodd" d="M298.757 318.806L309.095 317.208L301.577 312.868L301.527 312.839L291.19 314.437L298.757 318.806Z" fill="#633691"/>
</g>
<rect x="0.438435" width="54.8816" height="54.8816" rx="9.87187" transform="matrix(0.866044 -0.499967 0.866044 0.499967 133.162 313.018)" fill="#1A1B26" stroke="#1A1B26" stroke-width="0.50625"/>
<g clip-path="url(#clip3_8_797)">
<path fill-rule="evenodd" clip-rule="evenodd" d="M164.659 311.799L176.939 309.903L193.521 319.476L181.241 321.372L164.659 311.799Z" fill="#237FA7"/>
<path d="M178.234 306.201L164.899 308.271L168.28 310.223L177.361 308.82L187.513 314.681L191.775 314.016C194.416 313.607 195.217 312.488 193.533 311.515L186.083 307.215C184.407 306.249 180.873 305.795 178.234 306.201Z" fill="#237FA7"/>
</g>
<rect x="0.438435" width="54.8816" height="54.8816" rx="9.87187" transform="matrix(0.866044 -0.499967 0.866044 0.499967 302.841 279.54)" fill="#1A1B26" stroke="#1A1B26" stroke-width="0.50625"/>
<g clip-path="url(#clip4_8_797)">
<path fill-rule="evenodd" clip-rule="evenodd" d="M334.338 278.32L346.618 276.425L363.2 285.998L350.92 287.893L334.338 278.32Z" fill="#237FA7"/>
<path d="M347.913 272.722L334.578 274.792L337.959 276.744L347.04 275.341L357.192 281.202L361.454 280.537C364.095 280.129 364.897 279.009 363.212 278.037L355.763 273.736C354.086 272.771 350.552 272.317 347.913 272.722Z" fill="#237FA7"/>
</g>
<rect x="0.438435" width="54.8816" height="54.8816" rx="9.87187" transform="matrix(0.866044 -0.499967 0.866044 0.499967 190.08 280.16)" fill="#1A1B26" stroke="#1A1B26" stroke-width="0.50625"/>
<g clip-path="url(#clip5_8_797)">
<path d="M248.945 286.144C247.174 287.168 244.996 287.927 242.601 288.356C240.206 288.784 237.666 288.868 235.202 288.601C232.737 288.334 230.423 287.724 228.46 286.824C226.496 285.924 224.943 284.761 223.935 283.435C222.927 282.11 222.495 280.663 222.675 279.219C222.856 277.775 223.644 276.379 224.971 275.151C226.299 273.923 228.125 272.9 230.292 272.172C232.459 271.444 234.901 271.032 237.407 270.973V270.973L237.526 274.027C235.57 274.084 233.684 274.468 232.098 275.131C230.512 275.795 229.293 276.71 228.59 277.765C227.887 278.821 227.729 279.971 228.135 281.077C228.542 282.183 229.495 283.198 230.88 283.997C232.265 284.797 234.022 285.347 235.939 285.582C237.855 285.817 239.848 285.726 241.676 285.319C243.504 284.913 245.089 284.21 246.238 283.294C247.388 282.379 248.052 281.29 248.152 280.161L253.442 280.23C253.283 282.457 251.678 284.569 248.945 286.144V286.144Z" fill="#830833"/>
<path d="M252.262 277.937C252.086 278.039 251.861 278.108 251.616 278.136C251.371 278.165 251.117 278.15 250.886 278.095C250.656 278.04 250.458 277.946 250.32 277.826C250.181 277.707 250.107 277.566 250.107 277.421C250.107 277.277 250.181 277.136 250.32 277.016C250.458 276.897 250.655 276.803 250.886 276.748C251.117 276.693 251.371 276.678 251.616 276.706C251.861 276.735 252.086 276.804 252.262 276.906C252.499 277.043 252.631 277.228 252.631 277.421C252.631 277.615 252.499 277.8 252.262 277.937V277.937Z" fill="#830833"/>
<path d="M240.342 281.257C239.876 281.528 239.282 281.713 238.634 281.789C237.987 281.865 237.314 281.828 236.703 281.683C236.091 281.538 235.568 281.292 235.2 280.975C234.831 280.658 234.634 280.285 234.633 279.904C234.632 279.522 234.827 279.149 235.194 278.831C235.56 278.514 236.082 278.266 236.692 278.12C237.303 277.974 237.975 277.936 238.623 278.01C239.272 278.085 239.867 278.269 240.334 278.539C240.957 278.899 241.307 279.388 241.309 279.897C241.31 280.406 240.963 280.895 240.342 281.257V281.257Z" fill="#830833"/>
<path d="M250.244 275.589C250.067 275.691 249.842 275.761 249.597 275.789C249.352 275.817 249.098 275.802 248.868 275.747C248.637 275.692 248.44 275.599 248.301 275.479C248.162 275.359 248.088 275.218 248.088 275.074C248.088 274.929 248.162 274.789 248.301 274.669C248.44 274.549 248.637 274.455 248.868 274.4C249.098 274.345 249.352 274.331 249.597 274.359C249.842 274.387 250.067 274.456 250.244 274.558C250.48 274.695 250.612 274.88 250.612 275.074C250.612 275.267 250.48 275.452 250.244 275.589Z" fill="#830833"/>
<path d="M247.477 277.058C247.3 277.16 247.075 277.229 246.829 277.257C246.583 277.285 246.329 277.27 246.098 277.215C245.867 277.159 245.67 277.065 245.532 276.944C245.393 276.824 245.32 276.682 245.322 276.538C245.323 276.393 245.399 276.252 245.539 276.133C245.68 276.013 245.879 275.92 246.111 275.866C246.343 275.812 246.598 275.799 246.843 275.828C247.088 275.858 247.312 275.929 247.487 276.032C247.72 276.169 247.849 276.354 247.847 276.546C247.845 276.738 247.713 276.922 247.477 277.058V277.058Z" fill="#830833"/>
<path d="M247.235 273.852C247.058 273.954 246.833 274.023 246.588 274.052C246.343 274.08 246.089 274.065 245.859 274.01C245.628 273.955 245.431 273.862 245.292 273.742C245.153 273.622 245.079 273.481 245.079 273.337C245.079 273.192 245.153 273.051 245.292 272.932C245.431 272.812 245.628 272.718 245.859 272.663C246.089 272.608 246.343 272.593 246.588 272.622C246.833 272.65 247.058 272.719 247.235 272.821C247.471 272.958 247.604 273.143 247.604 273.337C247.604 273.53 247.471 273.715 247.235 273.852Z" fill="#830833"/>
<path d="M244.681 275.443C244.505 275.545 244.28 275.615 244.035 275.643C243.79 275.671 243.536 275.657 243.305 275.601C243.074 275.546 242.877 275.453 242.738 275.333C242.6 275.213 242.526 275.072 242.526 274.928C242.526 274.784 242.6 274.643 242.738 274.523C242.877 274.403 243.074 274.309 243.305 274.254C243.536 274.199 243.79 274.185 244.035 274.213C244.28 274.241 244.505 274.31 244.681 274.412C244.918 274.549 245.051 274.734 245.051 274.928C245.051 275.121 244.918 275.307 244.681 275.443V275.443Z" fill="#830833"/>
<path d="M243.259 272.68C243.083 272.782 242.858 272.852 242.613 272.88C242.368 272.909 242.114 272.894 241.883 272.839C241.652 272.784 241.455 272.691 241.315 272.571C241.176 272.452 241.102 272.311 241.102 272.166C241.101 272.022 241.175 271.881 241.314 271.761C241.453 271.641 241.65 271.547 241.881 271.492C242.111 271.437 242.365 271.422 242.611 271.45C242.856 271.479 243.081 271.548 243.257 271.65C243.494 271.786 243.627 271.972 243.627 272.165C243.628 272.358 243.495 272.543 243.259 272.68Z" fill="#830833"/>
</g>
<rect x="0.438435" width="54.8816" height="54.8816" rx="9.87187" transform="matrix(0.866044 -0.499967 0.866044 0.499967 359.759 246.681)" fill="#1A1B26" stroke="#1A1B26" stroke-width="0.50625"/>
<g clip-path="url(#clip6_8_797)">
<path d="M418.624 252.665C416.853 253.69 414.675 254.449 412.28 254.877C409.885 255.306 407.345 255.39 404.881 255.123C402.416 254.856 400.102 254.246 398.139 253.346C396.175 252.446 394.622 251.282 393.614 249.957C392.606 248.632 392.174 247.184 392.354 245.741C392.535 244.297 393.323 242.901 394.651 241.673C395.978 240.445 397.804 239.422 399.971 238.694C402.138 237.966 404.581 237.554 407.086 237.494V237.494L407.205 240.548C405.249 240.606 403.363 240.99 401.777 241.653C400.191 242.317 398.973 243.232 398.269 244.287C397.566 245.342 397.408 246.493 397.814 247.599C398.221 248.705 399.174 249.72 400.56 250.519C401.945 251.319 403.702 251.869 405.618 252.104C407.534 252.339 409.527 252.247 411.355 251.841C413.183 251.435 414.768 250.732 415.917 249.816C417.067 248.9 417.731 247.812 417.831 246.683L423.121 246.752C422.963 248.979 421.357 251.09 418.624 252.665V252.665Z" fill="#830833"/>
<path d="M421.942 244.459C421.765 244.561 421.54 244.63 421.295 244.658C421.05 244.686 420.796 244.672 420.566 244.617C420.335 244.562 420.138 244.468 419.999 244.348C419.86 244.228 419.786 244.087 419.786 243.943C419.786 243.799 419.86 243.658 419.999 243.538C420.138 243.418 420.335 243.325 420.566 243.27C420.796 243.215 421.05 243.2 421.295 243.228C421.54 243.256 421.765 243.326 421.942 243.428C422.178 243.565 422.31 243.75 422.31 243.943C422.31 244.137 422.178 244.322 421.942 244.459V244.459Z" fill="#830833"/>
<path d="M410.021 247.779C409.556 248.05 408.961 248.235 408.314 248.311C407.666 248.387 406.994 248.35 406.382 248.205C405.771 248.06 405.248 247.813 404.879 247.497C404.511 247.18 404.313 246.807 404.312 246.425C404.311 246.044 404.506 245.671 404.873 245.353C405.239 245.036 405.761 244.788 406.372 244.642C406.982 244.496 407.654 244.457 408.303 244.532C408.951 244.606 409.546 244.79 410.013 245.06C410.636 245.421 410.986 245.91 410.988 246.419C410.989 246.928 410.642 247.417 410.021 247.779V247.779Z" fill="#830833"/>
<path d="M419.923 242.111C419.746 242.213 419.521 242.282 419.276 242.311C419.031 242.339 418.778 242.324 418.547 242.269C418.316 242.214 418.119 242.12 417.98 242.001C417.841 241.881 417.767 241.74 417.767 241.596C417.767 241.451 417.841 241.31 417.98 241.19C418.119 241.071 418.316 240.977 418.547 240.922C418.778 240.867 419.031 240.852 419.276 240.881C419.521 240.909 419.746 240.978 419.923 241.08C420.159 241.217 420.292 241.402 420.292 241.596C420.292 241.789 420.159 241.974 419.923 242.111Z" fill="#830833"/>
<path d="M417.157 243.579C416.98 243.682 416.754 243.751 416.508 243.779C416.263 243.807 416.008 243.792 415.777 243.737C415.546 243.681 415.349 243.587 415.211 243.466C415.073 243.346 415 243.204 415.001 243.06C415.002 242.915 415.078 242.774 415.219 242.655C415.359 242.535 415.558 242.442 415.79 242.388C416.022 242.334 416.277 242.321 416.522 242.35C416.767 242.38 416.992 242.451 417.167 242.554C417.399 242.691 417.528 242.876 417.527 243.068C417.525 243.26 417.392 243.444 417.157 243.579V243.579Z" fill="#830833"/>
<path d="M416.914 240.374C416.737 240.476 416.512 240.545 416.267 240.573C416.023 240.602 415.769 240.587 415.538 240.532C415.307 240.477 415.11 240.383 414.971 240.263C414.832 240.144 414.758 240.003 414.758 239.858C414.758 239.714 414.832 239.573 414.971 239.453C415.11 239.334 415.307 239.24 415.538 239.185C415.769 239.13 416.023 239.115 416.267 239.143C416.512 239.172 416.737 239.241 416.914 239.343C417.15 239.48 417.283 239.665 417.283 239.858C417.283 240.052 417.15 240.237 416.914 240.374Z" fill="#830833"/>
<path d="M414.361 241.965C414.184 242.067 413.959 242.137 413.714 242.165C413.469 242.193 413.215 242.178 412.984 242.123C412.754 242.068 412.556 241.975 412.418 241.855C412.279 241.735 412.205 241.594 412.205 241.45C412.205 241.305 412.279 241.165 412.418 241.045C412.556 240.925 412.754 240.831 412.984 240.776C413.215 240.721 413.469 240.707 413.714 240.735C413.959 240.763 414.184 240.832 414.361 240.934C414.597 241.071 414.73 241.256 414.73 241.45C414.73 241.643 414.597 241.828 414.361 241.965V241.965Z" fill="#830833"/>
<path d="M412.939 239.202C412.762 239.304 412.538 239.374 412.293 239.402C412.048 239.43 411.793 239.416 411.562 239.361C411.331 239.306 411.134 239.213 410.995 239.093C410.856 238.973 410.781 238.832 410.781 238.688C410.781 238.544 410.855 238.403 410.993 238.283C411.132 238.163 411.329 238.069 411.56 238.014C411.791 237.959 412.045 237.944 412.29 237.972C412.535 238 412.76 238.07 412.937 238.172C413.173 238.308 413.306 238.493 413.307 238.687C413.307 238.88 413.175 239.065 412.939 239.202Z" fill="#830833"/>
</g>
<rect x="0.438435" width="54.8816" height="54.8816" rx="9.87187" transform="matrix(0.866044 -0.499967 0.866044 0.499967 246.997 247.301)" fill="#1A1B26" stroke="#1A1B26" stroke-width="0.50625"/>
<g clip-path="url(#clip7_8_797)">
<path d="M273.826 247.656L306.231 253.665L295.901 234.912L273.826 247.656ZM291.612 247.2L289.859 248.212L288.107 247.2L289.859 246.189L291.612 247.2ZM288.982 245.682L287.23 246.694L285.48 245.683L287.232 244.672L288.982 245.682ZM296.866 247.2L295.114 248.212L293.362 247.2L295.114 246.189L296.866 247.2ZM294.239 245.683L292.487 246.695L290.734 245.683L292.487 244.672L294.239 245.683ZM291.61 244.166L289.857 245.177L288.107 244.167L289.859 243.155L291.61 244.166ZM296.852 244.175L295.1 245.186L293.348 244.175L295.1 243.163L296.852 244.175ZM292.471 243.669L290.721 242.658L292.473 241.647L294.223 242.657L292.471 243.669Z" fill="#8F7D09"/>
</g>
<rect x="0.438435" width="54.8816" height="54.8816" rx="9.87187" transform="matrix(0.866044 -0.499967 0.866044 0.499967 416.677 213.823)" fill="#1A1B26" stroke="#1A1B26" stroke-width="0.50625"/>
<g clip-path="url(#clip8_8_797)">
<path d="M443.506 214.177L475.91 220.187L465.581 201.434L443.506 214.177ZM461.291 213.722L459.539 214.733L457.787 213.722L459.539 212.71L461.291 213.722ZM458.662 212.204L456.91 213.215L455.16 212.205L456.912 211.194L458.662 212.204ZM466.545 213.722L464.793 214.733L463.041 213.722L464.793 212.71L466.545 213.722ZM463.918 212.205L462.166 213.217L460.414 212.205L462.166 211.194L463.918 212.205ZM461.289 210.687L459.537 211.699L457.787 210.688L459.539 209.677L461.289 210.687ZM466.531 210.696L464.779 211.708L463.027 210.696L464.779 209.685L466.531 210.696ZM462.15 210.19L460.4 209.18L462.152 208.168L463.902 209.179L462.15 210.19Z" fill="#8F7D09"/>
</g>
<rect x="0.438435" width="54.8816" height="54.8816" rx="9.87187" transform="matrix(0.866044 -0.499967 0.866044 0.499967 303.915 214.443)" fill="#1A1B26" stroke="#1A1B26" stroke-width="0.50625"/>
<g clip-path="url(#clip9_8_797)">
<path d="M357.127 223.523L355.482 222.573L358.899 220.601L357.883 220.014L356.226 220.971L354.571 220.015L362.393 215.5L352.467 213.965L349.806 208.234L341.79 212.862L350.518 217.901L346.203 220.392L333.161 212.863L348.01 204.29L354.78 205.337L357.451 211.088L367.613 212.661L369.374 216.453L357.127 223.523Z" fill="#731316"/>
<path d="M353.475 220.648L351.821 221.603L353.475 222.558L355.13 221.603L353.475 220.648Z" fill="#731316"/>
<path d="M354.374 223.199L352.72 224.154L354.374 225.11L356.029 224.154L354.374 223.199Z" fill="#731316"/>
</g>
<rect x="0.438435" width="54.8816" height="54.8816" rx="9.87187" transform="matrix(0.866044 -0.499967 0.866044 0.499967 473.594 180.964)" fill="#1A1B26" stroke="#1A1B26" stroke-width="0.50625"/>
<g clip-path="url(#clip10_8_797)">
<path d="M526.806 190.044L525.161 189.095L528.578 187.122L527.561 186.536L525.905 187.492L524.25 186.537L532.072 182.021L522.146 180.486L519.485 174.755L511.468 179.383L520.197 184.422L515.881 186.914L502.839 179.384L517.689 170.811L524.459 171.858L527.13 177.609L537.292 179.182L539.052 182.974L526.806 190.044Z" fill="#731316"/>
<path d="M523.154 187.17L521.5 188.125L523.154 189.08L524.809 188.125L523.154 187.17Z" fill="#731316"/>
<path d="M524.053 189.721L522.399 190.676L524.053 191.631L525.708 190.676L524.053 189.721Z" fill="#731316"/>
</g>
<rect x="0.438435" width="54.8816" height="54.8816" rx="9.87187" transform="matrix(0.866044 -0.499967 0.866044 0.499967 301.409 347.323)" fill="#1A1B26" stroke="#1A1B26" stroke-width="0.50625"/>
<g clip-path="url(#clip11_8_797)">
<path d="M354.621 356.404L352.976 355.454L356.393 353.482L355.377 352.895L353.72 353.852L352.065 352.896L359.887 348.381L349.961 346.846L347.3 341.115L339.284 345.743L348.012 350.782L343.697 353.273L330.655 345.744L345.505 337.171L352.274 338.218L354.945 343.969L365.107 345.542L366.868 349.334L354.621 356.404Z" fill="#731316"/>
<path d="M350.969 353.529L349.315 354.484L350.969 355.439L352.624 354.484L350.969 353.529Z" fill="#731316"/>
<path d="M351.868 356.08L350.214 357.035L351.868 357.99L353.523 357.035L351.868 356.08Z" fill="#731316"/>
</g>
<rect x="0.438435" width="54.8816" height="54.8816" rx="9.87187" transform="matrix(0.866044 -0.499967 0.866044 0.499967 360.833 181.584)" fill="#1A1B26" stroke="#1A1B26" stroke-width="0.50625"/>
<g clip-path="url(#clip12_8_797)">
<path d="M397.208 174.706L392.986 183.802L404.52 190.461L420.277 188.024L424.499 178.927L412.965 172.268L397.208 174.706ZM414.343 179.459L413.219 181.882L408.253 182.729L411.928 184.85L410.823 187.702L403.138 183.266L404.069 181.034L409.15 180.126L405.397 177.959L406.672 175.021L414.343 179.459Z" fill="#237FA7"/>
</g>
<rect x="0.438435" width="54.8816" height="54.8816" rx="9.87187" transform="matrix(0.866044 -0.499967 0.866044 0.499967 530.512 148.105)" fill="#1A1B26" stroke="#1A1B26" stroke-width="0.50625"/>
<g clip-path="url(#clip13_8_797)">
<path d="M566.887 141.227L562.665 150.324L574.199 156.983L589.956 154.545L594.178 145.449L582.644 138.79L566.887 141.227ZM584.022 145.98L582.898 148.404L577.932 149.25L581.608 151.372L580.502 154.224L572.817 149.788L573.748 147.556L578.829 146.647L575.077 144.481L576.351 141.543L584.022 145.98Z" fill="#237FA7"/>
</g>
<rect x="0.438435" width="54.8816" height="54.8816" rx="9.87187" transform="matrix(0.866044 -0.499967 0.866044 0.499967 358.327 314.465)" fill="#1A1B26" stroke="#1A1B26" stroke-width="0.50625"/>
<g clip-path="url(#clip14_8_797)">
<path d="M394.702 307.587L390.48 316.683L402.014 323.342L417.771 320.905L421.993 311.808L410.459 305.149L394.702 307.587ZM411.837 312.34L410.713 314.763L405.747 315.61L409.423 317.731L408.317 320.583L400.632 316.147L401.563 313.915L406.644 313.007L402.892 310.84L404.166 307.902L411.837 312.34Z" fill="#237FA7"/>
</g>
<rect x="0.438435" width="54.8816" height="54.8816" rx="9.87187" transform="matrix(0.866044 -0.499967 0.866044 0.499967 587.43 115.247)" fill="#1A1B26" stroke="#1A1B26" stroke-width="0.50625"/>
<g clip-path="url(#clip15_8_797)">
<path d="M640.376 103.624L642.642 108.506L634.185 107.198L640.376 103.624Z" fill="#1D7177"/>
<path d="M627.43 115.231L625.364 116.423L639.471 118.606L640.984 121.864L615.586 117.935L625.916 111.972L640.027 114.155L639.27 112.527L627.981 110.78L632.112 108.395L637.759 109.268L643.402 110.141L647.182 118.286L627.43 115.231Z" fill="#1D7177"/>
</g>
<rect x="0.438435" width="54.8816" height="54.8816" rx="9.87187" transform="matrix(0.866044 -0.499967 0.866044 0.499967 415.245 281.606)" fill="#1A1B26" stroke="#1A1B26" stroke-width="0.50625"/>
<g clip-path="url(#clip16_8_797)">
<path d="M468.191 269.983L470.457 274.866L462 273.558L468.191 269.983Z" fill="#1D7177"/>
<path d="M455.245 281.59L453.179 282.783L467.286 284.966L468.799 288.224L443.401 284.295L453.731 278.332L467.842 280.514L467.085 278.886L455.796 277.139L459.927 274.754L465.574 275.627L471.217 276.5L474.997 284.645L455.245 281.59Z" fill="#1D7177"/>
</g>
<rect x="0.438435" width="54.8816" height="54.8816" rx="9.87187" transform="matrix(0.866044 -0.499967 0.866044 0.499967 644.347 82.3887)" fill="#1A1B26" stroke="#1A1B26" stroke-width="0.50625"/>
<g clip-path="url(#clip17_8_797)">
<path d="M689.886 73.0112L688.115 76.8287L689.601 77.6866L693.053 82.6291L684.492 80.6361L683.005 79.7781L676.393 80.8008L675.318 83.1234L677.028 84.1109L696.613 88.8616L702.319 87.9786L703.849 84.6845L695.62 73.3779L693.909 72.3904L689.886 73.0112Z" fill="#2354AA"/>
<path d="M693.909 72.3904L692.136 76.2068L693.624 77.0657L697.828 83.4228L697.109 84.9708L702.319 87.9786L703.849 84.6845L695.62 73.3779L693.909 72.3904Z" fill="#0850C5"/>
<path d="M684.492 80.636L683.006 79.7781L681.927 82.1007L683.414 82.9597L694.428 85.3857L695.147 83.8377L693.053 82.6291L684.492 80.636Z" fill="#0850C5"/>
</g>
<rect x="0.438435" width="54.8816" height="54.8816" rx="9.87187" transform="matrix(0.866044 -0.499967 0.866044 0.499967 472.162 248.748)" fill="#1A1B26" stroke="#1A1B26" stroke-width="0.50625"/>
<g clip-path="url(#clip18_8_797)">
<path d="M517.701 239.371L515.93 243.188L517.416 244.046L520.868 248.989L512.307 246.996L510.821 246.138L504.208 247.16L503.133 249.483L504.843 250.47L524.429 255.221L530.135 254.338L531.664 251.044L523.435 239.737L521.724 238.75L517.701 239.371Z" fill="#2354AA"/>
<path d="M521.724 238.75L519.951 242.566L521.439 243.425L525.643 249.782L524.925 251.33L530.135 254.338L531.664 251.044L523.435 239.737L521.724 238.75Z" fill="#0850C5"/>
<path d="M512.307 246.996L510.821 246.138L509.742 248.46L511.23 249.319L522.243 251.745L522.962 250.197L520.868 248.989L512.307 246.996Z" fill="#0850C5"/>
</g>
<rect x="0.438435" width="54.8816" height="54.8816" rx="9.87187" transform="matrix(0.866044 -0.499967 0.866044 0.499967 19.6847 378.942)" fill="#1A1B26" stroke="#1A1B26" stroke-width="0.50625"/>
<g clip-path="url(#clip19_8_797)">
<path d="M54.9355 373.402L51.2871 381.249L51.291 381.251L63.2331 388.146L68.3409 387.356L56.3949 380.459L58.6711 375.558L54.9355 373.402Z" fill="#B2B6BD"/>
<path d="M58.3769 371.415L67.8899 376.907L64.4486 378.894L60.8989 376.844L59.5285 379.794L71.7164 386.83L76.83 386.042L67.3441 380.565L70.7854 378.579L74.3119 380.614L75.6804 377.666L63.4847 370.625L58.3769 371.415Z" fill="#B2B6BD"/>
<path d="M80.2753 384.057L83.9237 376.21L83.9198 376.208L71.9777 369.313L66.868 370.104L78.8139 377.001L76.5397 381.901L80.2753 384.057Z" fill="#B2B6BD"/>
</g>
<rect x="0.438435" width="54.8816" height="54.8816" rx="9.87187" transform="matrix(0.866044 -0.499967 0.866044 0.499967 189.364 345.464)" fill="#1A1B26" stroke="#1A1B26" stroke-width="0.50625"/>
<g clip-path="url(#clip20_8_797)">
<path d="M224.615 339.923L220.966 347.771L220.97 347.773L232.912 354.667L238.02 353.877L226.074 346.981L228.35 342.08L224.615 339.923Z" fill="#B2B6BD"/>
<path d="M228.056 337.937L237.569 343.429L234.128 345.415L230.578 343.366L229.208 346.316L241.396 353.352L246.509 352.563L237.023 347.087L240.465 345.1L243.991 347.136L245.36 344.187L233.164 337.147L228.056 337.937Z" fill="#B2B6BD"/>
<path d="M249.954 350.579L253.603 342.731L253.599 342.729L241.657 335.835L236.547 336.626L248.493 343.522L246.219 348.422L249.954 350.579Z" fill="#B2B6BD"/>
</g>
<rect x="0.438435" width="54.8816" height="54.8816" rx="9.87187" transform="matrix(0.866044 -0.499967 0.866044 0.499967 586.845 181.584)" fill="#1A1B26" stroke="#1A1B26" stroke-width="0.50625"/>
<g clip-path="url(#clip21_8_797)">
<path fill-rule="evenodd" clip-rule="evenodd" d="M623.715 178.776L634.053 177.176L641.622 181.545L631.282 183.145L623.715 178.776Z" fill="#633691"/>
<path fill-rule="evenodd" clip-rule="evenodd" d="M634.771 176.761L642.34 181.131L645.108 175.163L637.541 170.795L634.771 176.761Z" fill="#633691"/>
<path fill-rule="evenodd" clip-rule="evenodd" d="M612.22 180.535L619.787 184.904L630.125 183.305L622.558 178.937L612.22 180.535Z" fill="#633691"/>
<path fill-rule="evenodd" clip-rule="evenodd" d="M639.679 187.992L650.016 186.394L642.499 182.054L642.449 182.025L632.112 183.623L639.679 187.992Z" fill="#633691"/>
</g>
<rect x="0.438435" width="54.8816" height="54.8816" rx="9.87187" transform="matrix(0.866044 -0.499967 0.866044 0.499967 756.524 148.106)" fill="#1A1B26" stroke="#1A1B26" stroke-width="0.50625"/>
<g clip-path="url(#clip22_8_797)">
<path fill-rule="evenodd" clip-rule="evenodd" d="M793.395 145.298L803.732 143.697L811.301 148.067L800.962 149.666L793.395 145.298Z" fill="#633691"/>
<path fill-rule="evenodd" clip-rule="evenodd" d="M804.45 143.283L812.019 147.652L814.787 141.685L807.22 137.316L804.45 143.283Z" fill="#633691"/>
<path fill-rule="evenodd" clip-rule="evenodd" d="M781.9 147.057L789.467 151.425L799.804 149.827L792.237 145.458L781.9 147.057Z" fill="#633691"/>
<path fill-rule="evenodd" clip-rule="evenodd" d="M809.358 154.513L819.696 152.915L812.178 148.575L812.128 148.547L801.791 150.145L809.358 154.513Z" fill="#633691"/>
</g>
<rect x="0.438435" width="54.8816" height="54.8816" rx="9.87187" transform="matrix(0.866044 -0.499967 0.866044 0.499967 586.246 248.116)" fill="#1A1B26" stroke="#1A1B26" stroke-width="0.50625"/>
<g clip-path="url(#clip23_8_797)">
<path fill-rule="evenodd" clip-rule="evenodd" d="M623.117 245.308L633.454 243.707L641.023 248.077L630.684 249.676L623.117 245.308Z" fill="#633691"/>
<path fill-rule="evenodd" clip-rule="evenodd" d="M634.172 243.293L641.741 247.662L644.509 241.695L636.942 237.326L634.172 243.293Z" fill="#633691"/>
<path fill-rule="evenodd" clip-rule="evenodd" d="M611.622 247.067L619.189 251.435L629.526 249.837L621.959 245.468L611.622 247.067Z" fill="#633691"/>
<path fill-rule="evenodd" clip-rule="evenodd" d="M639.08 254.523L649.418 252.925L641.9 248.585L641.85 248.557L631.513 250.155L639.08 254.523Z" fill="#633691"/>
</g>
<rect x="0.438435" width="54.8816" height="54.8816" rx="9.87187" transform="matrix(0.866044 -0.499967 0.866044 0.499967 643.763 148.726)" fill="#1A1B26" stroke="#1A1B26" stroke-width="0.50625"/>
<g clip-path="url(#clip24_8_797)">
<path fill-rule="evenodd" clip-rule="evenodd" d="M675.259 147.506L687.54 145.611L704.122 155.184L691.841 157.079L675.259 147.506Z" fill="#237FA7"/>
<path d="M688.834 141.908L675.5 143.978L678.881 145.93L687.961 144.527L698.114 150.388L702.376 149.723C705.017 149.315 705.818 148.195 704.134 147.223L696.684 142.922C695.007 141.957 691.473 141.503 688.834 141.908Z" fill="#237FA7"/>
</g>
<rect x="0.438435" width="54.8816" height="54.8816" rx="9.87187" transform="matrix(0.866044 -0.499967 0.866044 0.499967 813.442 115.247)" fill="#1A1B26" stroke="#1A1B26" stroke-width="0.50625"/>
<g clip-path="url(#clip25_8_797)">
<path fill-rule="evenodd" clip-rule="evenodd" d="M844.938 114.028L857.219 112.133L873.801 121.706L861.521 123.601L844.938 114.028Z" fill="#237FA7"/>
<path d="M858.514 108.43L845.179 110.5L848.56 112.452L857.641 111.049L867.793 116.91L872.055 116.245C874.696 115.836 875.497 114.717 873.813 113.745L866.363 109.444C864.687 108.478 861.153 108.025 858.514 108.43Z" fill="#237FA7"/>
</g>
<rect x="0.438435" width="54.8816" height="54.8816" rx="9.87187" transform="matrix(0.866044 -0.499967 0.866044 0.499967 643.164 215.257)" fill="#1A1B26" stroke="#1A1B26" stroke-width="0.50625"/>
<g clip-path="url(#clip26_8_797)">
<path fill-rule="evenodd" clip-rule="evenodd" d="M674.66 214.038L686.941 212.143L703.523 221.715L691.242 223.611L674.66 214.038Z" fill="#237FA7"/>
<path d="M688.235 208.44L674.901 210.51L678.282 212.462L687.362 211.059L697.515 216.92L701.777 216.255C704.418 215.846 705.219 214.727 703.535 213.755L696.085 209.454C694.408 208.488 690.874 208.035 688.235 208.44Z" fill="#237FA7"/>
</g>
<rect x="0.438435" width="54.8816" height="54.8816" rx="9.87187" transform="matrix(0.866044 -0.499967 0.866044 0.499967 700.68 115.867)" fill="#1A1B26" stroke="#1A1B26" stroke-width="0.50625"/>
<g clip-path="url(#clip27_8_797)">
<path d="M759.546 121.851C757.774 122.876 755.597 123.635 753.202 124.063C750.807 124.491 748.267 124.576 745.802 124.309C743.338 124.042 741.024 123.432 739.06 122.532C737.097 121.632 735.544 120.468 734.536 119.143C733.528 117.818 733.095 116.37 733.276 114.926C733.456 113.483 734.245 112.086 735.572 110.858C736.899 109.63 738.726 108.608 740.893 107.88C743.06 107.152 745.502 106.74 748.007 106.68V106.68L748.127 109.734C746.17 109.792 744.285 110.175 742.699 110.839C741.113 111.502 739.894 112.417 739.191 113.473C738.487 114.528 738.329 115.679 738.736 116.785C739.142 117.891 740.096 118.905 741.481 119.705C742.866 120.505 744.623 121.055 746.539 121.29C748.455 121.524 750.448 121.433 752.276 121.027C754.105 120.621 755.689 119.918 756.839 119.002C757.988 118.086 758.653 116.998 758.752 115.868L764.042 115.937C763.884 118.165 762.279 120.276 759.546 121.851V121.851Z" fill="#830833"/>
<path d="M762.863 113.645C762.687 113.747 762.462 113.816 762.217 113.844C761.972 113.872 761.718 113.858 761.487 113.803C761.256 113.747 761.059 113.654 760.92 113.534C760.781 113.414 760.707 113.273 760.707 113.129C760.707 112.985 760.781 112.844 760.92 112.724C761.059 112.604 761.256 112.511 761.487 112.456C761.718 112.4 761.972 112.386 762.217 112.414C762.462 112.442 762.687 112.512 762.863 112.614C763.099 112.751 763.232 112.936 763.232 113.129C763.232 113.322 763.099 113.508 762.863 113.645V113.645Z" fill="#830833"/>
<path d="M750.943 116.965C750.477 117.236 749.883 117.421 749.235 117.497C748.587 117.573 747.915 117.536 747.304 117.391C746.692 117.246 746.169 116.999 745.801 116.682C745.432 116.366 745.235 115.993 745.234 115.611C745.233 115.23 745.428 114.856 745.794 114.539C746.161 114.221 746.683 113.974 747.293 113.828C747.904 113.681 748.576 113.643 749.224 113.718C749.872 113.792 750.468 113.976 750.935 114.246C751.558 114.607 751.908 115.095 751.909 115.605C751.911 116.114 751.563 116.603 750.943 116.965V116.965Z" fill="#830833"/>
<path d="M760.844 111.297C760.668 111.399 760.443 111.468 760.198 111.496C759.953 111.524 759.699 111.51 759.468 111.455C759.238 111.4 759.04 111.306 758.902 111.186C758.763 111.066 758.689 110.925 758.689 110.781C758.689 110.637 758.763 110.496 758.902 110.376C759.04 110.256 759.238 110.163 759.468 110.108C759.699 110.053 759.953 110.038 760.198 110.066C760.443 110.094 760.668 110.164 760.844 110.266C761.081 110.403 761.213 110.588 761.213 110.781C761.213 110.975 761.081 111.16 760.844 111.297Z" fill="#830833"/>
<path d="M758.078 112.765C757.901 112.867 757.675 112.937 757.43 112.965C757.184 112.993 756.93 112.978 756.699 112.922C756.468 112.867 756.271 112.773 756.132 112.652C755.994 112.532 755.921 112.39 755.923 112.246C755.924 112.101 756 111.96 756.14 111.84C756.281 111.721 756.48 111.628 756.712 111.574C756.944 111.52 757.199 111.506 757.444 111.536C757.689 111.566 757.913 111.637 758.088 111.74C758.321 111.877 758.45 112.062 758.448 112.254C758.446 112.446 758.313 112.629 758.078 112.765V112.765Z" fill="#830833"/>
<path d="M757.836 109.56C757.659 109.662 757.434 109.731 757.189 109.759C756.944 109.787 756.69 109.773 756.459 109.718C756.229 109.663 756.031 109.569 755.893 109.449C755.754 109.329 755.68 109.188 755.68 109.044C755.68 108.9 755.754 108.759 755.893 108.639C756.031 108.519 756.229 108.426 756.459 108.371C756.69 108.316 756.944 108.301 757.189 108.329C757.434 108.357 757.659 108.427 757.836 108.529C758.072 108.666 758.204 108.851 758.204 109.044C758.204 109.237 758.072 109.423 757.836 109.56Z" fill="#830833"/>
<path d="M755.282 111.151C755.105 111.253 754.88 111.322 754.636 111.35C754.391 111.379 754.137 111.364 753.906 111.309C753.675 111.254 753.478 111.16 753.339 111.04C753.2 110.921 753.126 110.78 753.126 110.635C753.126 110.491 753.2 110.35 753.339 110.23C753.478 110.111 753.675 110.017 753.906 109.962C754.137 109.907 754.391 109.892 754.636 109.92C754.88 109.949 755.105 110.018 755.282 110.12C755.519 110.257 755.652 110.442 755.652 110.635C755.652 110.829 755.519 111.014 755.282 111.151V111.151Z" fill="#830833"/>
<path d="M753.86 108.387C753.684 108.49 753.459 108.559 753.214 108.588C752.969 108.616 752.715 108.602 752.484 108.547C752.253 108.492 752.055 108.399 751.916 108.279C751.777 108.159 751.703 108.018 751.703 107.874C751.702 107.73 751.776 107.589 751.915 107.469C752.053 107.349 752.251 107.255 752.481 107.2C752.712 107.144 752.966 107.13 753.211 107.158C753.456 107.186 753.682 107.256 753.858 107.358C754.095 107.494 754.228 107.679 754.228 107.872C754.229 108.065 754.096 108.251 753.86 108.387Z" fill="#830833"/>
</g>
<rect x="0.438435" width="54.8816" height="54.8816" rx="9.87187" transform="matrix(0.866044 -0.499967 0.866044 0.499967 870.36 82.3887)" fill="#1A1B26" stroke="#1A1B26" stroke-width="0.50625"/>
<g clip-path="url(#clip28_8_797)">
<path d="M929.225 88.3727C927.454 89.3971 925.276 90.1563 922.881 90.5847C920.486 91.013 917.946 91.0973 915.481 90.8305C913.017 90.5636 910.703 89.9536 908.739 89.0533C906.776 88.153 905.223 86.9897 904.215 85.6644C903.207 84.339 902.774 82.8917 902.955 81.448C903.136 80.0043 903.924 78.6078 905.251 77.3798C906.579 76.1518 908.405 75.1294 910.572 74.4013C912.739 73.6732 915.181 73.2614 917.686 73.2017V73.2017L917.806 76.2557C915.85 76.3131 913.964 76.6968 912.378 77.3604C910.792 78.024 909.573 78.9389 908.87 79.9943C908.167 81.0496 908.009 82.2001 908.415 83.3063C908.822 84.4125 909.775 85.4269 911.16 86.2265C912.545 87.0261 914.302 87.5766 916.218 87.8112C918.135 88.0459 920.128 87.9547 921.956 87.5486C923.784 87.1425 925.369 86.439 926.518 85.5234C927.667 84.6078 928.332 83.5193 928.432 82.39L933.722 82.4589C933.563 84.6863 931.958 86.7977 929.225 88.3727V88.3727Z" fill="#830833"/>
<path d="M932.542 80.1661C932.366 80.268 932.141 80.3375 931.896 80.3656C931.651 80.3937 931.397 80.3793 931.166 80.3241C930.935 80.2689 930.738 80.1755 930.599 80.0556C930.461 79.9357 930.387 79.7948 930.387 79.6506C930.387 79.5064 930.461 79.3654 930.599 79.2456C930.738 79.1257 930.935 79.0322 931.166 78.977C931.397 78.9219 931.651 78.9074 931.896 78.9356C932.141 78.9637 932.366 79.0331 932.542 79.1351C932.778 79.272 932.911 79.4574 932.911 79.6506C932.911 79.8438 932.778 80.0291 932.542 80.1661V80.1661Z" fill="#830833"/>
<path d="M920.622 83.4864C920.156 83.7574 919.562 83.9425 918.914 84.0183C918.266 84.0941 917.594 84.0571 916.983 83.9121C916.371 83.7671 915.848 83.5206 915.48 83.2038C915.111 82.8871 914.914 82.5142 914.913 82.1327C914.912 81.7511 915.107 81.3779 915.474 81.0604C915.84 80.7428 916.362 80.4953 916.972 80.3491C917.583 80.203 918.255 80.1647 918.903 80.2392C919.552 80.3137 920.147 80.4977 920.614 80.7677C921.237 81.1285 921.587 81.6168 921.589 82.1261C921.59 82.6355 921.243 83.1245 920.622 83.4864V83.4864Z" fill="#830833"/>
<path d="M930.524 77.8183C930.347 77.9202 930.122 77.9897 929.877 78.0178C929.632 78.0459 929.378 78.0315 929.147 77.9763C928.917 77.9211 928.72 77.8277 928.581 77.7078C928.442 77.5879 928.368 77.447 928.368 77.3028C928.368 77.1586 928.442 77.0177 928.581 76.8978C928.72 76.7779 928.917 76.6844 929.147 76.6293C929.378 76.5741 929.632 76.5597 929.877 76.5878C930.122 76.6159 930.347 76.6853 930.524 76.7873C930.76 76.9242 930.892 77.1096 930.892 77.3028C930.892 77.496 930.76 77.6814 930.524 77.8183Z" fill="#830833"/>
<path d="M927.757 79.2866C927.58 79.3888 927.355 79.4583 927.109 79.4863C926.863 79.5143 926.609 79.4995 926.378 79.4439C926.147 79.3882 925.95 79.2941 925.812 79.1736C925.673 79.0531 925.6 78.9116 925.602 78.767C925.603 78.6225 925.679 78.4815 925.819 78.3619C925.96 78.2423 926.159 78.1495 926.391 78.0953C926.623 78.0411 926.878 78.0279 927.123 78.0575C927.368 78.0871 927.592 78.1581 927.767 78.2614C928 78.3986 928.129 78.5833 928.127 78.7752C928.125 78.9671 927.993 79.1509 927.757 79.2866V79.2866Z" fill="#830833"/>
<path d="M927.515 76.0812C927.338 76.1832 927.113 76.2526 926.868 76.2807C926.623 76.3089 926.369 76.2944 926.139 76.2393C925.908 76.1841 925.711 76.0906 925.572 75.9708C925.433 75.8509 925.359 75.7099 925.359 75.5657C925.359 75.4215 925.433 75.2806 925.572 75.1607C925.711 75.0408 925.908 74.9474 926.139 74.8922C926.369 74.837 926.623 74.8226 926.868 74.8507C927.113 74.8789 927.338 74.9483 927.515 75.0502C927.751 75.1872 927.883 75.3725 927.883 75.5657C927.883 75.759 927.751 75.9443 927.515 76.0812Z" fill="#830833"/>
<path d="M924.961 77.6724C924.785 77.7744 924.56 77.8438 924.315 77.8719C924.07 77.9001 923.816 77.8856 923.585 77.8304C923.354 77.7753 923.157 77.6818 923.018 77.5619C922.88 77.4421 922.806 77.3011 922.806 77.1569C922.806 77.0127 922.88 76.8718 923.018 76.7519C923.157 76.632 923.354 76.5386 923.585 76.4834C923.816 76.4282 924.07 76.4138 924.315 76.4419C924.56 76.47 924.785 76.5395 924.961 76.6414C925.198 76.7781 925.331 76.9636 925.331 77.1569C925.331 77.3503 925.198 77.5357 924.961 77.6724V77.6724Z" fill="#830833"/>
<path d="M923.539 74.9089C923.363 75.0112 923.138 75.0809 922.893 75.1093C922.648 75.1377 922.394 75.1236 922.163 75.0686C921.932 75.0136 921.735 74.9203 921.596 74.8005C921.456 74.6806 921.382 74.5397 921.382 74.3954C921.381 74.2511 921.455 74.1101 921.594 73.9901C921.733 73.8701 921.93 73.7765 922.161 73.7212C922.391 73.6659 922.645 73.6514 922.891 73.6795C923.136 73.7076 923.361 73.7771 923.537 73.8791C923.774 74.0156 923.907 74.2007 923.907 74.3938C923.908 74.5868 923.775 74.7721 923.539 74.9089Z" fill="#830833"/>
</g>
<rect x="0.438435" width="54.8816" height="54.8816" rx="9.87187" transform="matrix(0.866044 -0.499967 0.866044 0.499967 698.175 248.748)" fill="#1A1B26" stroke="#1A1B26" stroke-width="0.50625"/>
<g clip-path="url(#clip29_8_797)">
<path d="M757.04 254.732C755.269 255.757 753.091 256.516 750.696 256.944C748.301 257.373 745.761 257.457 743.297 257.19C740.832 256.923 738.518 256.313 736.555 255.413C734.591 254.513 733.038 253.349 732.03 252.024C731.022 250.699 730.59 249.251 730.77 247.808C730.951 246.364 731.739 244.967 733.066 243.739C734.394 242.511 736.22 241.489 738.387 240.761C740.554 240.033 742.996 239.621 745.502 239.561V239.561L745.621 242.615C743.665 242.673 741.779 243.056 740.193 243.72C738.607 244.384 737.389 245.298 736.685 246.354C735.982 247.409 735.824 248.56 736.23 249.666C736.637 250.772 737.59 251.786 738.975 252.586C740.36 253.386 742.117 253.936 744.034 254.171C745.95 254.405 747.943 254.314 749.771 253.908C751.599 253.502 753.184 252.799 754.333 251.883C755.483 250.967 756.147 249.879 756.247 248.75L761.537 248.818C761.378 251.046 759.773 253.157 757.04 254.732V254.732Z" fill="#830833"/>
<path d="M760.357 246.526C760.181 246.628 759.956 246.697 759.711 246.725C759.466 246.753 759.212 246.739 758.981 246.684C758.75 246.628 758.553 246.535 758.414 246.415C758.276 246.295 758.202 246.154 758.202 246.01C758.202 245.866 758.276 245.725 758.414 245.605C758.553 245.485 758.75 245.392 758.981 245.337C759.212 245.281 759.466 245.267 759.711 245.295C759.956 245.323 760.181 245.393 760.357 245.495C760.594 245.632 760.726 245.817 760.726 246.01C760.726 246.203 760.594 246.389 760.357 246.526V246.526Z" fill="#830833"/>
<path d="M748.437 249.846C747.971 250.117 747.377 250.302 746.729 250.378C746.082 250.454 745.409 250.417 744.798 250.272C744.186 250.127 743.663 249.88 743.295 249.563C742.926 249.247 742.729 248.874 742.728 248.492C742.727 248.111 742.922 247.737 743.289 247.42C743.655 247.102 744.177 246.855 744.787 246.709C745.398 246.563 746.07 246.524 746.718 246.599C747.367 246.673 747.962 246.857 748.429 247.127C749.052 247.488 749.402 247.976 749.404 248.486C749.405 248.995 749.058 249.484 748.437 249.846V249.846Z" fill="#830833"/>
<path d="M758.339 244.178C758.162 244.28 757.937 244.349 757.692 244.377C757.447 244.405 757.193 244.391 756.963 244.336C756.732 244.281 756.535 244.187 756.396 244.067C756.257 243.947 756.183 243.807 756.183 243.662C756.183 243.518 756.257 243.377 756.396 243.257C756.535 243.137 756.732 243.044 756.963 242.989C757.193 242.934 757.447 242.919 757.692 242.947C757.937 242.975 758.162 243.045 758.339 243.147C758.575 243.284 758.707 243.469 758.707 243.662C758.707 243.856 758.575 244.041 758.339 244.178Z" fill="#830833"/>
<path d="M755.572 245.646C755.395 245.748 755.17 245.818 754.924 245.846C754.679 245.874 754.424 245.859 754.193 245.803C753.962 245.748 753.765 245.654 753.627 245.533C753.488 245.413 753.415 245.271 753.417 245.127C753.418 244.982 753.494 244.841 753.634 244.721C753.775 244.602 753.974 244.509 754.206 244.455C754.438 244.401 754.693 244.388 754.938 244.417C755.183 244.447 755.407 244.518 755.582 244.621C755.815 244.758 755.944 244.943 755.942 245.135C755.94 245.327 755.808 245.51 755.572 245.646V245.646Z" fill="#830833"/>
<path d="M755.33 242.441C755.153 242.543 754.928 242.612 754.683 242.64C754.438 242.668 754.184 242.654 753.954 242.599C753.723 242.544 753.526 242.45 753.387 242.33C753.248 242.21 753.174 242.069 753.174 241.925C753.174 241.781 753.248 241.64 753.387 241.52C753.526 241.4 753.723 241.307 753.954 241.252C754.184 241.197 754.438 241.182 754.683 241.21C754.928 241.238 755.153 241.308 755.33 241.41C755.566 241.547 755.699 241.732 755.699 241.925C755.699 242.119 755.566 242.304 755.33 242.441Z" fill="#830833"/>
<path d="M752.776 244.032C752.6 244.134 752.375 244.203 752.13 244.231C751.885 244.26 751.631 244.245 751.4 244.19C751.169 244.135 750.972 244.041 750.833 243.922C750.695 243.802 750.621 243.661 750.621 243.516C750.621 243.372 750.695 243.231 750.833 243.111C750.972 242.992 751.169 242.898 751.4 242.843C751.631 242.788 751.885 242.773 752.13 242.801C752.375 242.83 752.6 242.899 752.776 243.001C753.013 243.138 753.146 243.323 753.146 243.516C753.146 243.71 753.013 243.895 752.776 244.032V244.032Z" fill="#830833"/>
<path d="M751.355 241.268C751.178 241.371 750.953 241.44 750.708 241.469C750.463 241.497 750.209 241.483 749.978 241.428C749.747 241.373 749.55 241.28 749.411 241.16C749.271 241.04 749.197 240.899 749.197 240.755C749.197 240.611 749.27 240.47 749.409 240.35C749.548 240.23 749.745 240.136 749.976 240.081C750.206 240.025 750.461 240.011 750.706 240.039C750.951 240.067 751.176 240.137 751.353 240.239C751.589 240.375 751.722 240.56 751.722 240.753C751.723 240.946 751.59 241.132 751.355 241.268Z" fill="#830833"/>
</g>
<rect x="0.438435" width="54.8816" height="54.8816" rx="9.87187" transform="matrix(0.866044 -0.499967 0.866044 0.499967 757.598 83.0085)" fill="#1A1B26" stroke="#1A1B26" stroke-width="0.50625"/>
<g clip-path="url(#clip30_8_797)">
<path d="M784.427 83.3633L816.831 89.3724L806.502 70.6194L784.427 83.3633ZM802.212 82.9075L800.46 83.919L798.708 82.9075L800.46 81.896L802.212 82.9075ZM799.583 81.3897L797.831 82.4012L796.081 81.3908L797.833 80.3794L799.583 81.3897ZM807.467 82.9075L805.714 83.919L803.962 82.9075L805.714 81.896L807.467 82.9075ZM804.839 81.3908L803.087 82.4023L801.335 81.3908L803.087 80.3794L804.839 81.3908ZM802.21 79.8731L800.458 80.8845L798.708 79.8742L800.46 78.8627L802.21 79.8731ZM807.453 79.8822L805.701 80.8937L803.948 79.8822L805.701 78.8708L807.453 79.8822ZM803.071 79.3759L801.321 78.3656L803.073 77.3541L804.823 78.3645L803.071 79.3759Z" fill="#8F7D09"/>
</g>
<rect x="0.438435" width="54.8816" height="54.8816" rx="9.87187" transform="matrix(0.866044 -0.499967 0.866044 0.499967 755.092 215.889)" fill="#1A1B26" stroke="#1A1B26" stroke-width="0.50625"/>
<g clip-path="url(#clip31_8_797)">
<path d="M781.921 216.244L814.326 222.254L803.996 203.5L781.921 216.244ZM799.706 215.789L797.954 216.8L796.202 215.789L797.954 214.777L799.706 215.789ZM797.077 214.271L795.325 215.282L793.575 214.272L795.327 213.26L797.077 214.271ZM804.961 215.789L803.209 216.8L801.457 215.789L803.209 214.777L804.961 215.789ZM802.334 214.272L800.581 215.283L798.829 214.272L800.581 213.26L802.334 214.272ZM799.704 212.754L797.952 213.766L796.202 212.755L797.954 211.744L799.704 212.754ZM804.947 212.763L803.195 213.775L801.443 212.763L803.195 211.752L804.947 212.763ZM800.566 212.257L798.815 211.247L800.568 210.235L802.318 211.246L800.566 212.257Z" fill="#8F7D09"/>
</g>
<rect x="0.438435" width="54.8816" height="54.8816" rx="9.87187" transform="matrix(0.866044 -0.499967 0.866044 0.499967 814.516 50.1502)" fill="#1A1B26" stroke="#1A1B26" stroke-width="0.50625"/>
<g clip-path="url(#clip32_8_797)">
<path d="M867.728 59.2305L866.083 58.281L869.5 56.3086L868.483 55.7219L866.827 56.6783L865.172 55.7231L872.994 51.2076L863.068 49.6726L860.407 43.9413L852.39 48.5693L861.119 53.6083L856.803 56.0997L843.761 48.5704L858.611 39.9976L865.381 41.0447L868.052 46.7955L878.214 48.3684L879.974 52.1605L867.728 59.2305Z" fill="#731316"/>
<path d="M864.076 56.3557L862.422 57.3109L864.076 58.2661L865.731 57.3109L864.076 56.3557Z" fill="#731316"/>
<path d="M864.975 58.9067L863.321 59.8619L864.975 60.8172L866.63 59.8619L864.975 58.9067Z" fill="#731316"/>
</g>
<rect x="0.438435" width="54.8816" height="54.8816" rx="9.87187" transform="matrix(0.866044 -0.499967 0.866044 0.499967 812.01 183.031)" fill="#1A1B26" stroke="#1A1B26" stroke-width="0.50625"/>
<g clip-path="url(#clip33_8_797)">
<path d="M865.222 192.111L863.577 191.162L866.994 189.189L865.977 188.603L864.321 189.559L862.666 188.604L870.488 184.088L860.562 182.553L857.901 176.822L849.885 181.45L858.613 186.489L854.298 188.981L841.255 181.451L856.105 172.878L862.875 173.926L865.546 179.676L875.708 181.249L877.468 185.041L865.222 192.111Z" fill="#731316"/>
<path d="M861.57 189.237L859.916 190.192L861.57 191.147L863.225 190.192L861.57 189.237Z" fill="#731316"/>
<path d="M862.469 191.788L860.815 192.743L862.469 193.698L864.124 192.743L862.469 191.788Z" fill="#731316"/>
</g>
<rect x="0.438435" width="54.8816" height="54.8816" rx="9.87187" transform="matrix(0.866044 -0.499967 0.866044 0.499967 868.928 150.172)" fill="#1A1B26" stroke="#1A1B26" stroke-width="0.50625"/>
<g clip-path="url(#clip34_8_797)">
<path d="M905.303 143.294L901.081 152.39L912.615 159.049L928.372 156.612L932.594 147.516L921.06 140.857L905.303 143.294ZM922.438 148.047L921.314 150.471L916.348 151.317L920.023 153.439L918.918 156.291L911.233 151.854L912.164 149.622L917.245 148.714L913.492 146.548L914.767 143.61L922.438 148.047Z" fill="#237FA7"/>
</g>
<rect x="0.438435" width="54.8816" height="54.8816" rx="9.87187" transform="matrix(0.866044 -0.499967 0.866044 0.499967 530.286 214.65)" fill="#1A1B26" stroke="#1A1B26" stroke-width="0.50625"/>
<g clip-path="url(#clip35_8_797)">
<path d="M565.536 209.109L561.888 216.957L561.892 216.959L573.834 223.853L578.942 223.063L566.996 216.167L569.272 211.266L565.536 209.109Z" fill="#B2B6BD"/>
<path d="M568.978 207.123L578.491 212.614L575.049 214.601L571.5 212.552L570.129 215.502L582.317 222.538L587.431 221.749L577.945 216.273L581.386 214.286L584.913 216.322L586.281 213.373L574.085 206.333L568.978 207.123Z" fill="#B2B6BD"/>
<path d="M590.876 219.764L594.525 211.917L594.521 211.915L582.579 205.021L577.469 205.812L589.415 212.708L587.141 217.608L590.876 219.764Z" fill="#B2B6BD"/>
</g>
<rect x="0.438435" width="54.8816" height="54.8816" rx="9.87187" transform="matrix(0.866044 -0.499967 0.866044 0.499967 699.965 181.171)" fill="#1A1B26" stroke="#1A1B26" stroke-width="0.50625"/>
<g clip-path="url(#clip36_8_797)">
<path d="M735.216 175.631L731.567 183.478L731.571 183.48L743.513 190.374L748.621 189.584L736.675 182.688L738.951 177.787L735.216 175.631Z" fill="#B2B6BD"/>
<path d="M738.657 173.644L748.17 179.136L744.729 181.123L741.179 179.073L739.809 182.023L751.997 189.059L757.11 188.27L747.624 182.794L751.066 180.808L754.592 182.843L755.96 179.895L743.765 172.854L738.657 173.644Z" fill="#B2B6BD"/>
<path d="M760.555 186.286L764.204 178.439L764.2 178.436L752.258 171.542L747.148 172.333L759.094 179.23L756.82 184.129L760.555 186.286Z" fill="#B2B6BD"/>
</g>
<rect x="0.438435" width="54.8816" height="54.8816" rx="9.87187" transform="matrix(0.866044 -0.499967 0.866044 0.499967 527.585 281.45)" fill="#1A1B26" stroke="#1A1B26" stroke-width="0.50625"/>
<g clip-path="url(#clip37_8_797)">
<path d="M562.837 275.91L559.188 283.757L559.192 283.759L571.134 290.653L576.242 289.863L564.296 282.967L566.572 278.066L562.837 275.91Z" fill="#B2B6BD"/>
<path d="M566.278 273.923L575.791 279.415L572.35 281.401L568.8 279.352L567.429 282.302L579.617 289.338L584.731 288.549L575.245 283.073L578.686 281.086L582.213 283.122L583.581 280.173L571.386 273.133L566.278 273.923Z" fill="#B2B6BD"/>
<path d="M588.176 286.565L591.825 278.717L591.821 278.715L579.879 271.821L574.769 272.612L586.715 279.509L584.441 284.408L588.176 286.565Z" fill="#B2B6BD"/>
</g>
</g>
<rect x="0.498842" width="62.424" height="62.424" rx="11.232" transform="matrix(0.866044 -0.499967 0.866044 0.499967 474.067 87.3994)" fill="#0C0C0E" stroke="#1A1B26" stroke-width="0.576"/>
<path fill-rule="evenodd" clip-rule="evenodd" d="M528.5 116.867L528.5 255.79L578 227.372L578 89.7592C577.618 91.4784 576.276 93.1408 573.976 94.4612L539.071 114.498C536.165 116.167 532.307 116.956 528.5 116.867Z" fill="url(#paint0_linear_8_797)" fill-opacity="0.6"/>
<path fill-rule="evenodd" clip-rule="evenodd" d="M528.5 116.867L528.5 255.79L479 227.372L479 89.7592C479.382 91.4784 480.724 93.1408 483.024 94.4612L517.929 114.498C520.835 116.167 524.693 116.956 528.5 116.867Z" fill="url(#paint1_linear_8_797)" fill-opacity="0.6"/>
<path fill-rule="evenodd" clip-rule="evenodd" d="M467.5 152.76L467.5 291.683L517 263.265L517 125.652C516.618 127.371 515.276 129.034 512.976 130.354L478.071 150.391C475.165 152.06 471.307 152.849 467.5 152.76Z" fill="url(#paint2_linear_8_797)" fill-opacity="0.6"/>
<path fill-rule="evenodd" clip-rule="evenodd" d="M467.5 152.76L467.5 291.683L418 263.265L418 125.652C418.382 127.371 419.724 129.034 422.024 130.354L456.929 150.391C459.835 152.06 463.693 152.849 467.5 152.76Z" fill="url(#paint3_linear_8_797)" fill-opacity="0.6"/>
<rect x="0.498842" width="62.424" height="62.424" rx="11.232" transform="matrix(0.866044 -0.499967 0.866044 0.499967 413.067 123.399)" fill="#0C0C0E" stroke="#1A1B26" stroke-width="0.576"/>
<path fill-rule="evenodd" clip-rule="evenodd" d="M457.791 121.812L459.246 122.651L462.907 120.538L461.453 119.698C459.685 118.678 459.755 116.983 461.609 115.913C463.462 114.843 466.398 114.802 468.165 115.823C469.933 116.843 469.863 118.538 468.009 119.608L466.483 120.488L469.975 122.504L471.5 121.623C473.354 120.553 476.289 120.513 478.057 121.533C479.824 122.553 479.754 124.248 477.9 125.318C476.047 126.388 473.111 126.429 471.344 125.408L469.889 124.568L466.228 126.682L467.682 127.522C469.45 128.542 469.38 130.237 467.526 131.307C465.673 132.377 462.737 132.418 460.97 131.397C459.202 130.377 459.272 128.682 461.126 127.612L462.652 126.731L459.16 124.716L457.635 125.597C455.781 126.667 452.846 126.707 451.078 125.687C449.311 124.667 449.381 122.972 451.235 121.902C453.088 120.832 456.024 120.791 457.791 121.812ZM452.98 122.91C452.138 123.396 452.106 124.166 452.909 124.63C453.712 125.094 455.047 125.075 455.889 124.589L457.415 123.708L455.96 122.869C455.157 122.405 453.823 122.423 452.98 122.91ZM471.72 123.512L473.175 124.351C473.978 124.815 475.312 124.797 476.155 124.31C476.998 123.824 477.029 123.054 476.226 122.59C475.423 122.126 474.088 122.144 473.246 122.631L471.72 123.512ZM468.144 123.561L464.653 121.545L460.991 123.659L464.482 125.675L468.144 123.561ZM462.871 128.62L464.397 127.739L465.852 128.579C466.655 129.043 466.623 129.813 465.781 130.299C464.938 130.786 463.604 130.804 462.8 130.34C461.997 129.877 462.029 129.106 462.871 128.62ZM464.738 119.481L466.264 118.6C467.106 118.114 467.138 117.343 466.335 116.88C465.531 116.416 464.197 116.434 463.354 116.921C462.512 117.407 462.48 118.177 463.283 118.641L464.738 119.481Z" fill="#EFEFF1"/>
<path d="M535.532 92.5181L530.101 89.383L529.853 87.1279L542.825 88.3076L545.986 86.4826L529.92 85.1073L529.153 77.3902L526.161 79.1175L527.12 87.4538L526.94 87.558L519.24 83.1129L516.711 84.5729L533.003 93.9781L535.532 92.5181Z" fill="#EFEFF1"/>
</g>
<rect x="0.5" y="0.5" width="987" height="430" stroke="black"/>
<defs>
<filter id="filter0_f_8_797" x="453.975" y="34.0257" width="147.466" height="106.267" filterUnits="userSpaceOnUse" color-interpolation-filters="sRGB">
<feFlood flood-opacity="0" result="BackgroundImageFix"/>
<feBlend mode="normal" in="SourceGraphic" in2="BackgroundImageFix" result="shape"/>
<feGaussianBlur stdDeviation="12.5" result="effect1_foregroundBlur_8_797"/>
</filter>
<filter id="filter1_f_8_797" x="390.975" y="70.0257" width="147.466" height="106.267" filterUnits="userSpaceOnUse" color-interpolation-filters="sRGB">
<feFlood flood-opacity="0" result="BackgroundImageFix"/>
<feBlend mode="normal" in="SourceGraphic" in2="BackgroundImageFix" result="shape"/>
<feGaussianBlur stdDeviation="12.5" result="effect1_foregroundBlur_8_797"/>
</filter>
<linearGradient id="paint0_linear_8_797" x1="548.963" y1="59.9519" x2="549.129" y2="131.154" gradientUnits="userSpaceOnUse">
<stop offset="0.574973" stop-color="#1D3672"/>
<stop offset="1" stop-color="#0C0C0E" stop-opacity="0"/>
</linearGradient>
<linearGradient id="paint1_linear_8_797" x1="508.037" y1="59.9519" x2="508.38" y2="125.65" gradientUnits="userSpaceOnUse">
<stop offset="0.200926" stop-color="#2F59EF"/>
<stop offset="1" stop-color="#3059E9" stop-opacity="0"/>
</linearGradient>
<linearGradient id="paint2_linear_8_797" x1="487.963" y1="95.8447" x2="488.129" y2="167.046" gradientUnits="userSpaceOnUse">
<stop offset="0.574973" stop-color="#1D3672"/>
<stop offset="1" stop-color="#0C0C0E" stop-opacity="0"/>
</linearGradient>
<linearGradient id="paint3_linear_8_797" x1="447.037" y1="95.8447" x2="447.38" y2="161.543" gradientUnits="userSpaceOnUse">
<stop offset="0.200926" stop-color="#2F59EF"/>
<stop offset="1" stop-color="#3059E9" stop-opacity="0"/>
</linearGradient>
<clipPath id="clip0_8_797">
<rect x="1" y="1" width="986" height="429" fill="white"/>
</clipPath>
<clipPath id="clip1_8_797">
<rect width="33.0674" height="33.0674" fill="white" transform="matrix(0.866044 -0.499967 0.866044 0.499967 95.5162 345.658)"/>
</clipPath>
<clipPath id="clip2_8_797">
<rect width="33.0674" height="33.0674" fill="white" transform="matrix(0.866044 -0.499967 0.866044 0.499967 265.195 312.179)"/>
</clipPath>
<clipPath id="clip3_8_797">
<rect width="33.0674" height="33.0674" fill="white" transform="matrix(0.866044 -0.499967 0.866044 0.499967 152.434 312.799)"/>
</clipPath>
<clipPath id="clip4_8_797">
<rect width="33.0674" height="33.0674" fill="white" transform="matrix(0.866044 -0.499967 0.866044 0.499967 322.113 279.32)"/>
</clipPath>
<clipPath id="clip5_8_797">
<rect width="33.0674" height="33.0674" fill="white" transform="matrix(0.866044 -0.499967 0.866044 0.499967 209.351 279.94)"/>
</clipPath>
<clipPath id="clip6_8_797">
<rect width="33.0674" height="33.0674" fill="white" transform="matrix(0.866044 -0.499967 0.866044 0.499967 379.031 246.462)"/>
</clipPath>
<clipPath id="clip7_8_797">
<rect width="33.0674" height="33.0674" fill="white" transform="matrix(0.866044 -0.499967 0.866044 0.499967 266.269 247.082)"/>
</clipPath>
<clipPath id="clip8_8_797">
<rect width="33.0674" height="33.0674" fill="white" transform="matrix(0.866044 -0.499967 0.866044 0.499967 435.948 213.603)"/>
</clipPath>
<clipPath id="clip9_8_797">
<rect width="33.0674" height="33.0674" fill="white" transform="matrix(0.866044 -0.499967 0.866044 0.499967 323.187 214.223)"/>
</clipPath>
<clipPath id="clip10_8_797">
<rect width="33.0674" height="33.0674" fill="white" transform="matrix(0.866044 -0.499967 0.866044 0.499967 492.866 180.745)"/>
</clipPath>
<clipPath id="clip11_8_797">
<rect width="33.0674" height="33.0674" fill="white" transform="matrix(0.866044 -0.499967 0.866044 0.499967 320.681 347.104)"/>
</clipPath>
<clipPath id="clip12_8_797">
<rect width="33.0674" height="33.0674" fill="white" transform="matrix(0.866044 -0.499967 0.866044 0.499967 380.105 181.365)"/>
</clipPath>
<clipPath id="clip13_8_797">
<rect width="33.0674" height="33.0674" fill="white" transform="matrix(0.866044 -0.499967 0.866044 0.499967 549.784 147.886)"/>
</clipPath>
<clipPath id="clip14_8_797">
<rect width="33.0674" height="33.0674" fill="white" transform="matrix(0.866044 -0.499967 0.866044 0.499967 377.599 314.246)"/>
</clipPath>
<clipPath id="clip15_8_797">
<rect width="28.934" height="28.934" fill="white" transform="matrix(0.866044 -0.499967 0.866044 0.499967 610.639 115.234)"/>
</clipPath>
<clipPath id="clip16_8_797">
<rect width="28.934" height="28.934" fill="white" transform="matrix(0.866044 -0.499967 0.866044 0.499967 438.454 281.593)"/>
</clipPath>
<clipPath id="clip17_8_797">
<rect width="28.934" height="28.934" fill="white" transform="matrix(0.866044 -0.499967 0.866044 0.499967 667.557 82.376)"/>
</clipPath>
<clipPath id="clip18_8_797">
<rect width="28.934" height="28.934" fill="white" transform="matrix(0.866044 -0.499967 0.866044 0.499967 495.372 248.736)"/>
</clipPath>
<clipPath id="clip19_8_797">
<rect width="33.0674" height="33.0674" fill="white" transform="matrix(0.866044 -0.499967 0.866044 0.499967 38.9564 378.723)"/>
</clipPath>
<clipPath id="clip20_8_797">
<rect width="33.0674" height="33.0674" fill="white" transform="matrix(0.866044 -0.499967 0.866044 0.499967 208.636 345.245)"/>
</clipPath>
<clipPath id="clip21_8_797">
<rect width="33.0674" height="33.0674" fill="white" transform="matrix(0.866044 -0.499967 0.866044 0.499967 606.117 181.365)"/>
</clipPath>
<clipPath id="clip22_8_797">
<rect width="33.0674" height="33.0674" fill="white" transform="matrix(0.866044 -0.499967 0.866044 0.499967 775.796 147.887)"/>
</clipPath>
<clipPath id="clip23_8_797">
<rect width="33.0674" height="33.0674" fill="white" transform="matrix(0.866044 -0.499967 0.866044 0.499967 605.518 247.897)"/>
</clipPath>
<clipPath id="clip24_8_797">
<rect width="33.0674" height="33.0674" fill="white" transform="matrix(0.866044 -0.499967 0.866044 0.499967 663.035 148.506)"/>
</clipPath>
<clipPath id="clip25_8_797">
<rect width="33.0674" height="33.0674" fill="white" transform="matrix(0.866044 -0.499967 0.866044 0.499967 832.714 115.028)"/>
</clipPath>
<clipPath id="clip26_8_797">
<rect width="33.0674" height="33.0674" fill="white" transform="matrix(0.866044 -0.499967 0.866044 0.499967 662.435 215.038)"/>
</clipPath>
<clipPath id="clip27_8_797">
<rect width="33.0674" height="33.0674" fill="white" transform="matrix(0.866044 -0.499967 0.866044 0.499967 719.952 115.648)"/>
</clipPath>
<clipPath id="clip28_8_797">
<rect width="33.0674" height="33.0674" fill="white" transform="matrix(0.866044 -0.499967 0.866044 0.499967 889.631 82.1694)"/>
</clipPath>
<clipPath id="clip29_8_797">
<rect width="33.0674" height="33.0674" fill="white" transform="matrix(0.866044 -0.499967 0.866044 0.499967 717.446 248.529)"/>
</clipPath>
<clipPath id="clip30_8_797">
<rect width="33.0674" height="33.0674" fill="white" transform="matrix(0.866044 -0.499967 0.866044 0.499967 776.87 82.7892)"/>
</clipPath>
<clipPath id="clip31_8_797">
<rect width="33.0674" height="33.0674" fill="white" transform="matrix(0.866044 -0.499967 0.866044 0.499967 774.364 215.67)"/>
</clipPath>
<clipPath id="clip32_8_797">
<rect width="33.0674" height="33.0674" fill="white" transform="matrix(0.866044 -0.499967 0.866044 0.499967 833.788 49.9309)"/>
</clipPath>
<clipPath id="clip33_8_797">
<rect width="33.0674" height="33.0674" fill="white" transform="matrix(0.866044 -0.499967 0.866044 0.499967 831.282 182.812)"/>
</clipPath>
<clipPath id="clip34_8_797">
<rect width="33.0674" height="33.0674" fill="white" transform="matrix(0.866044 -0.499967 0.866044 0.499967 888.2 149.953)"/>
</clipPath>
<clipPath id="clip35_8_797">
<rect width="33.0674" height="33.0674" fill="white" transform="matrix(0.866044 -0.499967 0.866044 0.499967 549.557 214.43)"/>
</clipPath>
<clipPath id="clip36_8_797">
<rect width="33.0674" height="33.0674" fill="white" transform="matrix(0.866044 -0.499967 0.866044 0.499967 719.237 180.952)"/>
</clipPath>
<clipPath id="clip37_8_797">
<rect width="33.0674" height="33.0674" fill="white" transform="matrix(0.866044 -0.499967 0.866044 0.499967 546.857 281.231)"/>
</clipPath>
</defs>
</svg>
