<svg width="986" height="429" viewBox="0 0 986 429" fill="none" xmlns="http://www.w3.org/2000/svg">
<g clip-path="url(#clip0_8_797)">
<g filter="url(#filter0_f_8_797)">
<rect width="63.0191" height="63.0191" rx="11.52" transform="matrix(0.866044 -0.499967 0.866044 0.499967 472.13 86.1593)" fill="#51579B"/>
</g>
<g filter="url(#filter1_f_8_797)">
<rect width="63.0191" height="63.0191" rx="11.52" transform="matrix(0.866044 -0.499967 0.866044 0.499967 409.13 122.159)" fill="#51579B"/>
</g>
<g opacity="0.4">
<rect x="0.438435" width="54.8816" height="54.8816" rx="9.87187" transform="matrix(0.866044 -0.499967 0.866044 0.499967 75.2445 344.877)" fill="#1A1B26" stroke="#1A1B26" stroke-width="0.50625"/>
<g clip-path="url(#clip1_8_797)">
<path fill-rule="evenodd" clip-rule="evenodd" d="M112.115 342.069L122.452 340.468L130.021 344.838L119.682 346.437L112.115 342.069Z" fill="#633691"/>
<path fill-rule="evenodd" clip-rule="evenodd" d="M123.17 340.054L130.739 344.423L133.507 338.456L125.94 334.087L123.17 340.054Z" fill="#633691"/>
<path fill-rule="evenodd" clip-rule="evenodd" d="M100.62 343.828L108.187 348.196L118.524 346.598L110.957 342.229L100.62 343.828Z" fill="#633691"/>
<path fill-rule="evenodd" clip-rule="evenodd" d="M128.078 351.284L138.416 349.686L130.898 345.346L130.848 345.318L120.511 346.916L128.078 351.284Z" fill="#633691"/>
</g>
<rect x="0.438435" width="54.8816" height="54.8816" rx="9.87187" transform="matrix(0.866044 -0.499967 0.866044 0.499967 244.923 311.398)" fill="#1A1B26" stroke="#1A1B26" stroke-width="0.50625"/>
<g clip-path="url(#clip2_8_797)">
<path fill-rule="evenodd" clip-rule="evenodd" d="M281.794 308.59L292.131 306.99L299.7 311.359L289.361 312.958L281.794 308.59Z" fill="#633691"/>
<path fill-rule="evenodd" clip-rule="evenodd" d="M292.849 306.575L300.418 310.945L303.186 304.977L295.619 300.608L292.849 306.575Z" fill="#633691"/>
<path fill-rule="evenodd" clip-rule="evenodd" d="M270.299 310.349L277.866 314.717L288.203 313.119L280.636 308.751L270.299 310.349Z" fill="#633691"/>
<path fill-rule="evenodd" clip-rule="evenodd" d="M297.757 317.806L308.095 316.208L300.577 311.868L300.527 311.839L290.19 313.437L297.757 317.806Z" fill="#633691"/>
</g>
<rect x="0.438435" width="54.8816" height="54.8816" rx="9.87187" transform="matrix(0.866044 -0.499967 0.866044 0.499967 132.162 312.018)" fill="#1A1B26" stroke="#1A1B26" stroke-width="0.50625"/>
<g clip-path="url(#clip3_8_797)">
<path fill-rule="evenodd" clip-rule="evenodd" d="M163.658 310.799L175.939 308.903L192.521 318.476L180.241 320.372L163.658 310.799Z" fill="#237FA7"/>
<path d="M177.234 305.201L163.899 307.271L167.28 309.223L176.361 307.82L186.513 313.681L190.775 313.016C193.416 312.607 194.217 311.488 192.533 310.515L185.083 306.215C183.407 305.249 179.873 304.795 177.234 305.201Z" fill="#237FA7"/>
</g>
<rect x="0.438435" width="54.8816" height="54.8816" rx="9.87187" transform="matrix(0.866044 -0.499967 0.866044 0.499967 301.841 278.54)" fill="#1A1B26" stroke="#1A1B26" stroke-width="0.50625"/>
<g clip-path="url(#clip4_8_797)">
<path fill-rule="evenodd" clip-rule="evenodd" d="M333.338 277.32L345.618 275.425L362.2 284.998L349.92 286.893L333.338 277.32Z" fill="#237FA7"/>
<path d="M346.913 271.722L333.578 273.792L336.959 275.744L346.04 274.341L356.192 280.202L360.454 279.537C363.095 279.129 363.897 278.009 362.212 277.037L354.762 272.736C353.086 271.771 349.552 271.317 346.913 271.722Z" fill="#237FA7"/>
</g>
<rect x="0.438435" width="54.8816" height="54.8816" rx="9.87187" transform="matrix(0.866044 -0.499967 0.866044 0.499967 189.08 279.16)" fill="#1A1B26" stroke="#1A1B26" stroke-width="0.50625"/>
<g clip-path="url(#clip5_8_797)">
<path d="M247.945 285.144C246.174 286.168 243.996 286.927 241.601 287.356C239.206 287.784 236.666 287.868 234.201 287.601C231.737 287.334 229.423 286.724 227.459 285.824C225.496 284.924 223.943 283.761 222.935 282.435C221.927 281.11 221.494 279.663 221.675 278.219C221.856 276.775 222.644 275.379 223.971 274.151C225.299 272.923 227.125 271.9 229.292 271.172C231.459 270.444 233.901 270.032 236.406 269.973L236.526 273.027C234.57 273.084 232.684 273.468 231.098 274.131C229.512 274.795 228.293 275.71 227.59 276.765C226.887 277.821 226.729 278.971 227.135 280.077C227.542 281.183 228.495 282.198 229.88 282.997C231.265 283.797 233.022 284.347 234.938 284.582C236.855 284.817 238.847 284.726 240.676 284.319C242.504 283.913 244.089 283.21 245.238 282.294C246.387 281.379 247.052 280.29 247.152 279.161L252.442 279.23C252.283 281.457 250.678 283.569 247.945 285.144Z" fill="#830833"/>
<path d="M251.262 276.937C251.086 277.039 250.861 277.108 250.616 277.136C250.371 277.165 250.117 277.15 249.886 277.095C249.655 277.04 249.458 276.946 249.319 276.826C249.181 276.707 249.107 276.566 249.107 276.421C249.107 276.277 249.181 276.136 249.319 276.016C249.458 275.897 249.655 275.803 249.886 275.748C250.117 275.693 250.371 275.678 250.616 275.706C250.861 275.735 251.086 275.804 251.262 275.906C251.499 276.043 251.631 276.228 251.631 276.421C251.631 276.615 251.499 276.8 251.262 276.937Z" fill="#830833"/>
<path d="M239.342 280.257C238.876 280.528 238.282 280.713 237.634 280.789C236.986 280.865 236.314 280.828 235.703 280.683C235.091 280.538 234.568 280.292 234.2 279.975C233.831 279.658 233.634 279.285 233.633 278.904C233.632 278.522 233.827 278.149 234.193 277.831C234.56 277.514 235.082 277.266 235.692 277.12C236.303 276.974 236.975 276.936 237.623 277.01C238.271 277.085 238.867 277.269 239.334 277.539C239.957 277.899 240.307 278.388 240.309 278.897C240.31 279.406 239.963 279.895 239.342 280.257Z" fill="#830833"/>
<path d="M249.244 274.589C249.067 274.691 248.842 274.761 248.597 274.789C248.352 274.817 248.098 274.802 247.867 274.747C247.637 274.692 247.439 274.599 247.301 274.479C247.162 274.359 247.088 274.218 247.088 274.074C247.088 273.929 247.162 273.789 247.301 273.669C247.439 273.549 247.637 273.455 247.867 273.4C248.098 273.345 248.352 273.331 248.597 273.359C248.842 273.387 249.067 273.456 249.244 273.558C249.48 273.695 249.612 273.88 249.612 274.074C249.612 274.267 249.48 274.452 249.244 274.589Z" fill="#830833"/>
<path d="M246.477 276.058C246.3 276.16 246.075 276.229 245.829 276.257C245.583 276.285 245.329 276.27 245.098 276.215C244.867 276.159 244.67 276.065 244.532 275.944C244.393 275.824 244.32 275.682 244.322 275.538C244.323 275.393 244.399 275.252 244.539 275.133C244.68 275.013 244.879 274.92 245.111 274.866C245.343 274.812 245.598 274.799 245.843 274.828C246.088 274.858 246.312 274.929 246.487 275.032C246.72 275.169 246.849 275.354 246.847 275.546C246.845 275.738 246.712 275.922 246.477 276.058Z" fill="#830833"/>
<path d="M246.235 272.852C246.058 272.954 245.833 273.023 245.588 273.052C245.343 273.08 245.089 273.065 244.859 273.01C244.628 272.955 244.431 272.862 244.292 272.742C244.153 272.622 244.079 272.481 244.079 272.337C244.079 272.192 244.153 272.051 244.292 271.932C244.431 271.812 244.628 271.718 244.859 271.663C245.089 271.608 245.343 271.593 245.588 271.622C245.833 271.65 246.058 271.719 246.235 271.821C246.471 271.958 246.603 272.143 246.603 272.337C246.603 272.53 246.471 272.715 246.235 272.852Z" fill="#830833"/>
<path d="M243.681 274.443C243.505 274.545 243.28 274.615 243.035 274.643C242.79 274.671 242.536 274.657 242.305 274.601C242.074 274.546 241.877 274.453 241.738 274.333C241.6 274.213 241.526 274.072 241.526 273.928C241.526 273.784 241.6 273.643 241.738 273.523C241.877 273.403 242.074 273.309 242.305 273.254C242.536 273.199 242.79 273.185 243.035 273.213C243.28 273.241 243.505 273.31 243.681 273.412C243.918 273.549 244.051 273.734 244.051 273.928C244.051 274.121 243.918 274.307 243.681 274.443Z" fill="#830833"/>
<path d="M242.259 271.68C242.083 271.782 241.858 271.852 241.613 271.88C241.368 271.909 241.114 271.894 240.883 271.839C240.652 271.784 240.455 271.691 240.315 271.571C240.176 271.452 240.102 271.311 240.102 271.166C240.101 271.022 240.175 270.881 240.314 270.761C240.453 270.641 240.65 270.547 240.881 270.492C241.111 270.437 241.365 270.422 241.61 270.45C241.856 270.479 242.081 270.548 242.257 270.65C242.494 270.786 242.627 270.972 242.627 271.165C242.628 271.358 242.495 271.543 242.259 271.68Z" fill="#830833"/>
</g>
<rect x="0.438435" width="54.8816" height="54.8816" rx="9.87187" transform="matrix(0.866044 -0.499967 0.866044 0.499967 358.759 245.681)" fill="#1A1B26" stroke="#1A1B26" stroke-width="0.50625"/>
<g clip-path="url(#clip6_8_797)">
<path d="M417.624 251.665C415.853 252.69 413.675 253.449 411.28 253.877C408.885 254.306 406.345 254.39 403.881 254.123C401.416 253.856 399.102 253.246 397.139 252.346C395.175 251.446 393.622 250.282 392.614 248.957C391.606 247.632 391.174 246.184 391.354 244.741C391.535 243.297 392.323 241.901 393.65 240.673C394.978 239.445 396.804 238.422 398.971 237.694C401.138 236.966 403.581 236.554 406.086 236.494L406.205 239.548C404.249 239.606 402.363 239.99 400.777 240.653C399.191 241.317 397.973 242.232 397.269 243.287C396.566 244.342 396.408 245.493 396.814 246.599C397.221 247.705 398.174 248.72 399.559 249.519C400.945 250.319 402.702 250.869 404.618 251.104C406.534 251.339 408.527 251.247 410.355 250.841C412.183 250.435 413.768 249.732 414.917 248.816C416.067 247.9 416.731 246.812 416.831 245.683L422.121 245.752C421.963 247.979 420.357 250.09 417.624 251.665Z" fill="#830833"/>
<path d="M420.942 243.459C420.765 243.561 420.54 243.63 420.295 243.658C420.05 243.686 419.796 243.672 419.565 243.617C419.335 243.562 419.137 243.468 418.999 243.348C418.86 243.228 418.786 243.087 418.786 242.943C418.786 242.799 418.86 242.658 418.999 242.538C419.137 242.418 419.335 242.325 419.565 242.27C419.796 242.215 420.05 242.2 420.295 242.228C420.54 242.256 420.765 242.326 420.942 242.428C421.178 242.565 421.31 242.75 421.31 242.943C421.31 243.137 421.178 243.322 420.942 243.459Z" fill="#830833"/>
<path d="M409.021 246.779C408.556 247.05 407.961 247.235 407.313 247.311C406.666 247.387 405.993 247.35 405.382 247.205C404.771 247.06 404.247 246.813 403.879 246.497C403.51 246.18 403.313 245.807 403.312 245.425C403.311 245.044 403.506 244.671 403.873 244.353C404.239 244.036 404.761 243.788 405.372 243.642C405.982 243.496 406.654 243.457 407.302 243.532C407.951 243.606 408.546 243.79 409.013 244.06C409.636 244.421 409.986 244.91 409.988 245.419C409.989 245.928 409.642 246.417 409.021 246.779Z" fill="#830833"/>
<path d="M418.923 241.111C418.746 241.213 418.521 241.282 418.276 241.311C418.031 241.339 417.778 241.324 417.547 241.269C417.316 241.214 417.119 241.12 416.98 241.001C416.841 240.881 416.767 240.74 416.767 240.596C416.767 240.451 416.841 240.31 416.98 240.19C417.119 240.071 417.316 239.977 417.547 239.922C417.778 239.867 418.031 239.852 418.276 239.881C418.521 239.909 418.746 239.978 418.923 240.08C419.159 240.217 419.292 240.402 419.292 240.596C419.292 240.789 419.159 240.974 418.923 241.111Z" fill="#830833"/>
<path d="M416.157 242.579C415.98 242.682 415.754 242.751 415.508 242.779C415.263 242.807 415.008 242.792 414.777 242.737C414.546 242.681 414.349 242.587 414.211 242.466C414.073 242.346 413.999 242.204 414.001 242.06C414.002 241.915 414.078 241.774 414.219 241.655C414.359 241.535 414.558 241.442 414.79 241.388C415.022 241.334 415.277 241.321 415.522 241.35C415.767 241.38 415.991 241.451 416.167 241.554C416.399 241.691 416.528 241.876 416.526 242.068C416.525 242.26 416.392 242.444 416.157 242.579Z" fill="#830833"/>
<path d="M415.914 239.374C415.737 239.476 415.512 239.545 415.267 239.573C415.022 239.602 414.768 239.587 414.538 239.532C414.307 239.477 414.11 239.383 413.971 239.263C413.832 239.144 413.758 239.003 413.758 238.858C413.758 238.714 413.832 238.573 413.971 238.453C414.11 238.334 414.307 238.24 414.538 238.185C414.768 238.13 415.022 238.115 415.267 238.143C415.512 238.172 415.737 238.241 415.914 238.343C416.15 238.48 416.283 238.665 416.283 238.858C416.283 239.052 416.15 239.237 415.914 239.374Z" fill="#830833"/>
<path d="M413.361 240.965C413.184 241.067 412.959 241.137 412.714 241.165C412.469 241.193 412.215 241.178 411.984 241.123C411.754 241.068 411.556 240.975 411.418 240.855C411.279 240.735 411.205 240.594 411.205 240.45C411.205 240.305 411.279 240.165 411.418 240.045C411.556 239.925 411.754 239.831 411.984 239.776C412.215 239.721 412.469 239.707 412.714 239.735C412.959 239.763 413.184 239.832 413.361 239.934C413.597 240.071 413.73 240.256 413.73 240.45C413.73 240.643 413.597 240.828 413.361 240.965Z" fill="#830833"/>
<path d="M411.939 238.202C411.762 238.304 411.537 238.374 411.292 238.402C411.047 238.43 410.793 238.416 410.562 238.361C410.331 238.306 410.134 238.213 409.995 238.093C409.856 237.973 409.781 237.832 409.781 237.688C409.781 237.544 409.854 237.403 409.993 237.283C410.132 237.163 410.329 237.069 410.56 237.014C410.791 236.959 411.045 236.944 411.29 236.972C411.535 237 411.76 237.07 411.937 237.172C412.173 237.308 412.306 237.493 412.307 237.687C412.307 237.88 412.175 238.065 411.939 238.202Z" fill="#830833"/>
</g>
<rect x="0.438435" width="54.8816" height="54.8816" rx="9.87187" transform="matrix(0.866044 -0.499967 0.866044 0.499967 245.997 246.301)" fill="#1A1B26" stroke="#1A1B26" stroke-width="0.50625"/>
<g clip-path="url(#clip7_8_797)">
<path d="M272.826 246.656L305.231 252.665L294.901 233.912L272.826 246.656ZM290.612 246.2L288.859 247.212L287.107 246.2L288.859 245.189L290.612 246.2ZM287.982 244.682L286.23 245.694L284.48 244.683L286.232 243.672L287.982 244.682ZM295.866 246.2L294.114 247.212L292.362 246.2L294.114 245.189L295.866 246.2ZM293.239 244.683L291.487 245.695L289.734 244.683L291.487 243.672L293.239 244.683ZM290.61 243.166L288.857 244.177L287.107 243.167L288.859 242.155L290.61 243.166ZM295.852 243.175L294.1 244.186L292.348 243.175L294.1 242.163L295.852 243.175ZM291.471 242.669L289.721 241.658L291.473 240.647L293.223 241.657L291.471 242.669Z" fill="#8F7D09"/>
</g>
<rect x="0.438435" width="54.8816" height="54.8816" rx="9.87187" transform="matrix(0.866044 -0.499967 0.866044 0.499967 415.677 212.823)" fill="#1A1B26" stroke="#1A1B26" stroke-width="0.50625"/>
<g clip-path="url(#clip8_8_797)">
<path d="M442.505 213.177L474.91 219.187L464.58 200.434L442.505 213.177ZM460.291 212.722L458.539 213.733L456.787 212.722L458.539 211.71L460.291 212.722ZM457.662 211.204L455.91 212.215L454.159 211.205L455.912 210.194L457.662 211.204ZM465.545 212.722L463.793 213.733L462.041 212.722L463.793 211.71L465.545 212.722ZM462.918 211.205L461.166 212.217L459.414 211.205L461.166 210.194L462.918 211.205ZM460.289 209.687L458.537 210.699L456.787 209.688L458.539 208.677L460.289 209.687ZM465.531 209.696L463.779 210.708L462.027 209.696L463.779 208.685L465.531 209.696ZM461.15 209.19L459.4 208.18L461.152 207.168L462.902 208.179L461.15 209.19Z" fill="#8F7D09"/>
</g>
<rect x="0.438435" width="54.8816" height="54.8816" rx="9.87187" transform="matrix(0.866044 -0.499967 0.866044 0.499967 302.915 213.443)" fill="#1A1B26" stroke="#1A1B26" stroke-width="0.50625"/>
<g clip-path="url(#clip9_8_797)">
<path d="M356.127 222.523L354.482 221.573L357.899 219.601L356.883 219.014L355.226 219.971L353.571 219.015L361.393 214.5L351.467 212.965L348.806 207.234L340.79 211.862L349.518 216.901L345.203 219.392L332.161 211.863L347.01 203.29L353.78 204.337L356.451 210.088L366.613 211.661L368.373 215.453L356.127 222.523Z" fill="#731316"/>
<path d="M352.475 219.648L350.821 220.603L352.475 221.558L354.13 220.603L352.475 219.648Z" fill="#731316"/>
<path d="M353.374 222.199L351.72 223.154L353.374 224.11L355.029 223.154L353.374 222.199Z" fill="#731316"/>
</g>
<rect x="0.438435" width="54.8816" height="54.8816" rx="9.87187" transform="matrix(0.866044 -0.499967 0.866044 0.499967 472.594 179.964)" fill="#1A1B26" stroke="#1A1B26" stroke-width="0.50625"/>
<g clip-path="url(#clip10_8_797)">
<path d="M525.806 189.044L524.161 188.095L527.577 186.122L526.561 185.536L524.905 186.492L523.25 185.537L531.072 181.021L521.146 179.486L518.485 173.755L510.468 178.383L519.197 183.422L514.881 185.914L501.839 178.384L516.689 169.811L523.459 170.858L526.13 176.609L536.292 178.182L538.052 181.974L525.806 189.044Z" fill="#731316"/>
<path d="M522.154 186.17L520.5 187.125L522.154 188.08L523.809 187.125L522.154 186.17Z" fill="#731316"/>
<path d="M523.053 188.721L521.398 189.676L523.053 190.631L524.708 189.676L523.053 188.721Z" fill="#731316"/>
</g>
<rect x="0.438435" width="54.8816" height="54.8816" rx="9.87187" transform="matrix(0.866044 -0.499967 0.866044 0.499967 300.409 346.323)" fill="#1A1B26" stroke="#1A1B26" stroke-width="0.50625"/>
<g clip-path="url(#clip11_8_797)">
<path d="M353.621 355.404L351.976 354.454L355.393 352.482L354.377 351.895L352.72 352.852L351.065 351.896L358.887 347.381L348.961 345.846L346.3 340.115L338.284 344.743L347.012 349.782L342.697 352.273L329.655 344.744L344.504 336.171L351.274 337.218L353.945 342.969L364.107 344.542L365.867 348.334L353.621 355.404Z" fill="#731316"/>
<path d="M349.969 352.529L348.315 353.484L349.969 354.439L351.624 353.484L349.969 352.529Z" fill="#731316"/>
<path d="M350.868 355.08L349.214 356.035L350.868 356.99L352.523 356.035L350.868 355.08Z" fill="#731316"/>
</g>
<rect x="0.438435" width="54.8816" height="54.8816" rx="9.87187" transform="matrix(0.866044 -0.499967 0.866044 0.499967 359.833 180.584)" fill="#1A1B26" stroke="#1A1B26" stroke-width="0.50625"/>
<g clip-path="url(#clip12_8_797)">
<path d="M396.208 173.706L391.986 182.802L403.52 189.461L419.277 187.024L423.499 177.927L411.965 171.268L396.208 173.706ZM413.343 178.459L412.219 180.882L407.253 181.729L410.928 183.85L409.823 186.702L402.138 182.266L403.069 180.034L408.15 179.126L404.397 176.959L405.672 174.021L413.343 178.459Z" fill="#237FA7"/>
</g>
<rect x="0.438435" width="54.8816" height="54.8816" rx="9.87187" transform="matrix(0.866044 -0.499967 0.866044 0.499967 529.512 147.105)" fill="#1A1B26" stroke="#1A1B26" stroke-width="0.50625"/>
<g clip-path="url(#clip13_8_797)">
<path d="M565.887 140.227L561.665 149.324L573.199 155.983L588.956 153.545L593.178 144.449L581.644 137.79L565.887 140.227ZM583.022 144.98L581.898 147.404L576.932 148.25L580.608 150.372L579.502 153.224L571.817 148.788L572.748 146.556L577.829 145.647L574.077 143.481L575.351 140.543L583.022 144.98Z" fill="#237FA7"/>
</g>
<rect x="0.438435" width="54.8816" height="54.8816" rx="9.87187" transform="matrix(0.866044 -0.499967 0.866044 0.499967 357.327 313.465)" fill="#1A1B26" stroke="#1A1B26" stroke-width="0.50625"/>
<g clip-path="url(#clip14_8_797)">
<path d="M393.702 306.587L389.48 315.683L401.014 322.342L416.771 319.905L420.993 310.808L409.459 304.149L393.702 306.587ZM410.837 311.34L409.713 313.763L404.747 314.61L408.423 316.731L407.317 319.583L399.632 315.147L400.563 312.915L405.644 312.007L401.892 309.84L403.166 306.902L410.837 311.34Z" fill="#237FA7"/>
</g>
<rect x="0.438435" width="54.8816" height="54.8816" rx="9.87187" transform="matrix(0.866044 -0.499967 0.866044 0.499967 586.43 114.247)" fill="#1A1B26" stroke="#1A1B26" stroke-width="0.50625"/>
<g clip-path="url(#clip15_8_797)">
<path d="M639.376 102.624L641.642 107.506L633.185 106.198L639.376 102.624Z" fill="#1D7177"/>
<path d="M626.43 114.231L624.364 115.423L638.471 117.606L639.984 120.864L614.586 116.935L624.916 110.972L639.027 113.155L638.27 111.527L626.981 109.78L631.112 107.395L636.759 108.268L642.402 109.141L646.182 117.286L626.43 114.231Z" fill="#1D7177"/>
</g>
<rect x="0.438435" width="54.8816" height="54.8816" rx="9.87187" transform="matrix(0.866044 -0.499967 0.866044 0.499967 414.245 280.606)" fill="#1A1B26" stroke="#1A1B26" stroke-width="0.50625"/>
<g clip-path="url(#clip16_8_797)">
<path d="M467.191 268.983L469.457 273.866L461 272.558L467.191 268.983Z" fill="#1D7177"/>
<path d="M454.245 280.59L452.179 281.783L466.286 283.966L467.799 287.224L442.401 283.295L452.731 277.332L466.841 279.514L466.085 277.886L454.796 276.139L458.927 273.754L464.574 274.627L470.217 275.5L473.997 283.645L454.245 280.59Z" fill="#1D7177"/>
</g>
<rect x="0.438435" width="54.8816" height="54.8816" rx="9.87187" transform="matrix(0.866044 -0.499967 0.866044 0.499967 643.347 81.3887)" fill="#1A1B26" stroke="#1A1B26" stroke-width="0.50625"/>
<g clip-path="url(#clip17_8_797)">
<path d="M688.886 72.0112L687.115 75.8287L688.601 76.6866L692.053 81.6292L683.492 79.6361L682.005 78.7781L675.393 79.8008L674.318 82.1234L676.028 83.1109L695.613 87.8616L701.319 86.9786L702.849 83.6845L694.62 72.3779L692.909 71.3904L688.886 72.0112Z" fill="#2354AA"/>
<path d="M692.909 71.3904L691.136 75.2068L692.624 76.0657L696.828 82.4228L696.109 83.9708L701.319 86.9786L702.849 83.6845L694.62 72.3779L692.909 71.3904Z" fill="#0850C5"/>
<path d="M683.492 79.636L682.006 78.7781L680.927 81.1007L682.414 81.9597L693.428 84.3857L694.147 82.8377L692.053 81.6291L683.492 79.636Z" fill="#0850C5"/>
</g>
<rect x="0.438435" width="54.8816" height="54.8816" rx="9.87187" transform="matrix(0.866044 -0.499967 0.866044 0.499967 471.162 247.748)" fill="#1A1B26" stroke="#1A1B26" stroke-width="0.50625"/>
<g clip-path="url(#clip18_8_797)">
<path d="M516.701 238.371L514.93 242.188L516.416 243.046L519.868 247.989L511.307 245.996L509.821 245.138L503.208 246.16L502.133 248.483L503.843 249.47L523.429 254.221L529.135 253.338L530.664 250.044L522.435 238.737L520.724 237.75L516.701 238.371Z" fill="#2354AA"/>
<path d="M520.724 237.75L518.951 241.566L520.439 242.425L524.643 248.782L523.925 250.33L529.135 253.338L530.664 250.044L522.435 238.737L520.724 237.75Z" fill="#0850C5"/>
<path d="M511.307 245.996L509.821 245.138L508.742 247.46L510.23 248.319L521.243 250.745L521.962 249.197L519.868 247.989L511.307 245.996Z" fill="#0850C5"/>
</g>
<rect x="0.438435" width="54.8816" height="54.8816" rx="9.87187" transform="matrix(0.866044 -0.499967 0.866044 0.499967 18.6847 377.942)" fill="#1A1B26" stroke="#1A1B26" stroke-width="0.50625"/>
<g clip-path="url(#clip19_8_797)">
<path d="M53.9355 372.402L50.2871 380.249L50.291 380.251L62.2331 387.145L67.3409 386.355L55.3949 379.459L57.6711 374.558L53.9355 372.402Z" fill="#B2B6BD"/>
<path d="M57.3768 370.415L66.8899 375.907L63.4485 377.894L59.8988 375.844L58.5284 378.794L70.7164 385.83L75.83 385.041L66.344 379.565L69.7854 377.579L73.3119 379.614L74.6803 376.666L62.4846 369.625L57.3768 370.415Z" fill="#B2B6BD"/>
<path d="M79.2752 383.057L82.9236 375.21L82.9198 375.207L70.9777 368.313L65.8679 369.104L77.8139 376.001L75.5397 380.9L79.2752 383.057Z" fill="#B2B6BD"/>
</g>
<rect x="0.438435" width="54.8816" height="54.8816" rx="9.87187" transform="matrix(0.866044 -0.499967 0.866044 0.499967 188.364 344.464)" fill="#1A1B26" stroke="#1A1B26" stroke-width="0.50625"/>
<g clip-path="url(#clip20_8_797)">
<path d="M223.615 338.923L219.966 346.771L219.97 346.773L231.912 353.667L237.02 352.877L225.074 345.981L227.35 341.08L223.615 338.923Z" fill="#B2B6BD"/>
<path d="M227.056 336.937L236.569 342.429L233.128 344.415L229.578 342.366L228.208 345.316L240.396 352.352L245.509 351.563L236.023 346.087L239.465 344.1L242.991 346.136L244.359 343.187L232.164 336.147L227.056 336.937Z" fill="#B2B6BD"/>
<path d="M248.954 349.579L252.603 341.731L252.599 341.729L240.657 334.835L235.547 335.626L247.493 342.523L245.219 347.422L248.954 349.579Z" fill="#B2B6BD"/>
</g>
<rect x="0.438435" width="54.8816" height="54.8816" rx="9.87187" transform="matrix(0.866044 -0.499967 0.866044 0.499967 585.845 180.584)" fill="#1A1B26" stroke="#1A1B26" stroke-width="0.50625"/>
<g clip-path="url(#clip21_8_797)">
<path fill-rule="evenodd" clip-rule="evenodd" d="M622.715 177.776L633.053 176.176L640.622 180.545L630.282 182.145L622.715 177.776Z" fill="#633691"/>
<path fill-rule="evenodd" clip-rule="evenodd" d="M633.771 175.761L641.34 180.131L644.108 174.163L636.541 169.795L633.771 175.761Z" fill="#633691"/>
<path fill-rule="evenodd" clip-rule="evenodd" d="M611.22 179.535L618.787 183.904L629.125 182.305L621.558 177.937L611.22 179.535Z" fill="#633691"/>
<path fill-rule="evenodd" clip-rule="evenodd" d="M638.679 186.992L649.016 185.394L641.499 181.054L641.449 181.025L631.112 182.623L638.679 186.992Z" fill="#633691"/>
</g>
<rect x="0.438435" width="54.8816" height="54.8816" rx="9.87187" transform="matrix(0.866044 -0.499967 0.866044 0.499967 755.524 147.106)" fill="#1A1B26" stroke="#1A1B26" stroke-width="0.50625"/>
<g clip-path="url(#clip22_8_797)">
<path fill-rule="evenodd" clip-rule="evenodd" d="M792.395 144.298L802.732 142.697L810.301 147.067L799.962 148.666L792.395 144.298Z" fill="#633691"/>
<path fill-rule="evenodd" clip-rule="evenodd" d="M803.45 142.283L811.019 146.652L813.787 140.685L806.22 136.316L803.45 142.283Z" fill="#633691"/>
<path fill-rule="evenodd" clip-rule="evenodd" d="M780.9 146.057L788.467 150.425L798.804 148.827L791.237 144.458L780.9 146.057Z" fill="#633691"/>
<path fill-rule="evenodd" clip-rule="evenodd" d="M808.358 153.513L818.696 151.915L811.178 147.575L811.128 147.547L800.791 149.145L808.358 153.513Z" fill="#633691"/>
</g>
<rect x="0.438435" width="54.8816" height="54.8816" rx="9.87187" transform="matrix(0.866044 -0.499967 0.866044 0.499967 585.246 247.116)" fill="#1A1B26" stroke="#1A1B26" stroke-width="0.50625"/>
<g clip-path="url(#clip23_8_797)">
<path fill-rule="evenodd" clip-rule="evenodd" d="M622.117 244.308L632.454 242.707L640.023 247.077L629.684 248.676L622.117 244.308Z" fill="#633691"/>
<path fill-rule="evenodd" clip-rule="evenodd" d="M633.172 242.293L640.741 246.662L643.509 240.695L635.942 236.326L633.172 242.293Z" fill="#633691"/>
<path fill-rule="evenodd" clip-rule="evenodd" d="M610.622 246.067L618.189 250.435L628.526 248.837L620.959 244.468L610.622 246.067Z" fill="#633691"/>
<path fill-rule="evenodd" clip-rule="evenodd" d="M638.08 253.523L648.418 251.925L640.9 247.585L640.85 247.557L630.513 249.155L638.08 253.523Z" fill="#633691"/>
</g>
<rect x="0.438435" width="54.8816" height="54.8816" rx="9.87187" transform="matrix(0.866044 -0.499967 0.866044 0.499967 642.763 147.726)" fill="#1A1B26" stroke="#1A1B26" stroke-width="0.50625"/>
<g clip-path="url(#clip24_8_797)">
<path fill-rule="evenodd" clip-rule="evenodd" d="M674.259 146.506L686.54 144.611L703.122 154.184L690.841 156.079L674.259 146.506Z" fill="#237FA7"/>
<path d="M687.834 140.908L674.5 142.978L677.881 144.93L686.961 143.527L697.114 149.388L701.376 148.723C704.017 148.315 704.818 147.195 703.134 146.223L695.684 141.922C694.007 140.957 690.473 140.503 687.834 140.908Z" fill="#237FA7"/>
</g>
<rect x="0.438435" width="54.8816" height="54.8816" rx="9.87187" transform="matrix(0.866044 -0.499967 0.866044 0.499967 812.442 114.247)" fill="#1A1B26" stroke="#1A1B26" stroke-width="0.50625"/>
<g clip-path="url(#clip25_8_797)">
<path fill-rule="evenodd" clip-rule="evenodd" d="M843.938 113.028L856.219 111.133L872.801 120.706L860.521 122.601L843.938 113.028Z" fill="#237FA7"/>
<path d="M857.514 107.43L844.179 109.5L847.56 111.452L856.641 110.049L866.793 115.91L871.055 115.245C873.696 114.836 874.497 113.717 872.813 112.745L865.363 108.444C863.687 107.478 860.153 107.025 857.514 107.43Z" fill="#237FA7"/>
</g>
<rect x="0.438435" width="54.8816" height="54.8816" rx="9.87187" transform="matrix(0.866044 -0.499967 0.866044 0.499967 642.164 214.257)" fill="#1A1B26" stroke="#1A1B26" stroke-width="0.50625"/>
<g clip-path="url(#clip26_8_797)">
<path fill-rule="evenodd" clip-rule="evenodd" d="M673.66 213.038L685.941 211.143L702.523 220.715L690.242 222.611L673.66 213.038Z" fill="#237FA7"/>
<path d="M687.235 207.44L673.901 209.51L677.282 211.462L686.362 210.059L696.515 215.92L700.777 215.255C703.418 214.846 704.219 213.727 702.535 212.755L695.085 208.454C693.408 207.488 689.874 207.035 687.235 207.44Z" fill="#237FA7"/>
</g>
<rect x="0.438435" width="54.8816" height="54.8816" rx="9.87187" transform="matrix(0.866044 -0.499967 0.866044 0.499967 699.68 114.867)" fill="#1A1B26" stroke="#1A1B26" stroke-width="0.50625"/>
<g clip-path="url(#clip27_8_797)">
<path d="M758.546 120.851C756.774 121.876 754.597 122.635 752.202 123.063C749.807 123.491 747.267 123.576 744.802 123.309C742.338 123.042 740.024 122.432 738.06 121.532C736.097 120.632 734.544 119.468 733.536 118.143C732.528 116.818 732.095 115.37 732.276 113.926C732.456 112.483 733.245 111.086 734.572 109.858C735.899 108.63 737.726 107.608 739.893 106.88C742.06 106.152 744.502 105.74 747.007 105.68L747.127 108.734C745.17 108.792 743.285 109.175 741.699 109.839C740.113 110.502 738.894 111.417 738.191 112.473C737.487 113.528 737.329 114.679 737.736 115.785C738.142 116.891 739.096 117.905 740.481 118.705C741.866 119.505 743.623 120.055 745.539 120.29C747.455 120.524 749.448 120.433 751.276 120.027C753.105 119.621 754.689 118.918 755.839 118.002C756.988 117.086 757.653 115.998 757.752 114.868L763.042 114.937C762.884 117.165 761.279 119.276 758.546 120.851Z" fill="#830833"/>
<path d="M761.863 112.645C761.687 112.747 761.462 112.816 761.217 112.844C760.972 112.872 760.718 112.858 760.487 112.803C760.256 112.747 760.059 112.654 759.92 112.534C759.781 112.414 759.707 112.273 759.707 112.129C759.707 111.985 759.781 111.844 759.92 111.724C760.059 111.604 760.256 111.511 760.487 111.456C760.718 111.4 760.972 111.386 761.217 111.414C761.462 111.442 761.687 111.512 761.863 111.614C762.099 111.751 762.232 111.936 762.232 112.129C762.232 112.322 762.099 112.508 761.863 112.645Z" fill="#830833"/>
<path d="M749.943 115.965C749.477 116.236 748.883 116.421 748.235 116.497C747.587 116.573 746.915 116.536 746.304 116.391C745.692 116.246 745.169 115.999 744.801 115.682C744.432 115.366 744.235 114.993 744.234 114.611C744.233 114.23 744.428 113.856 744.794 113.539C745.161 113.221 745.683 112.974 746.293 112.828C746.904 112.681 747.576 112.643 748.224 112.718C748.872 112.792 749.468 112.976 749.935 113.246C750.558 113.607 750.908 114.095 750.909 114.605C750.911 115.114 750.563 115.603 749.943 115.965Z" fill="#830833"/>
<path d="M759.844 110.297C759.668 110.399 759.443 110.468 759.198 110.496C758.953 110.524 758.699 110.51 758.468 110.455C758.238 110.4 758.04 110.306 757.902 110.186C757.763 110.066 757.689 109.925 757.689 109.781C757.689 109.637 757.763 109.496 757.902 109.376C758.04 109.256 758.238 109.163 758.468 109.108C758.699 109.053 758.953 109.038 759.198 109.066C759.443 109.094 759.668 109.164 759.844 109.266C760.081 109.403 760.213 109.588 760.213 109.781C760.213 109.975 760.081 110.16 759.844 110.297Z" fill="#830833"/>
<path d="M757.078 111.765C756.901 111.867 756.675 111.937 756.43 111.965C756.184 111.993 755.93 111.978 755.699 111.922C755.468 111.867 755.271 111.773 755.132 111.652C754.994 111.532 754.921 111.39 754.923 111.246C754.924 111.101 755 110.96 755.14 110.84C755.281 110.721 755.48 110.628 755.712 110.574C755.944 110.52 756.199 110.506 756.444 110.536C756.689 110.566 756.913 110.637 757.088 110.74C757.321 110.877 757.45 111.062 757.448 111.254C757.446 111.446 757.313 111.629 757.078 111.765Z" fill="#830833"/>
<path d="M756.836 108.56C756.659 108.662 756.434 108.731 756.189 108.759C755.944 108.787 755.69 108.773 755.459 108.718C755.229 108.663 755.031 108.569 754.893 108.449C754.754 108.329 754.68 108.188 754.68 108.044C754.68 107.9 754.754 107.759 754.893 107.639C755.031 107.519 755.229 107.426 755.459 107.371C755.69 107.316 755.944 107.301 756.189 107.329C756.434 107.357 756.659 107.427 756.836 107.529C757.072 107.666 757.204 107.851 757.204 108.044C757.204 108.237 757.072 108.423 756.836 108.56Z" fill="#830833"/>
<path d="M754.282 110.151C754.105 110.253 753.88 110.322 753.636 110.35C753.391 110.379 753.137 110.364 752.906 110.309C752.675 110.254 752.478 110.16 752.339 110.04C752.2 109.921 752.126 109.78 752.126 109.635C752.126 109.491 752.2 109.35 752.339 109.23C752.478 109.111 752.675 109.017 752.906 108.962C753.137 108.907 753.391 108.892 753.636 108.92C753.88 108.949 754.105 109.018 754.282 109.12C754.519 109.257 754.652 109.442 754.652 109.635C754.652 109.829 754.519 110.014 754.282 110.151Z" fill="#830833"/>
<path d="M752.86 107.387C752.684 107.49 752.459 107.559 752.214 107.588C751.969 107.616 751.715 107.602 751.484 107.547C751.253 107.492 751.055 107.399 750.916 107.279C750.777 107.159 750.703 107.018 750.703 106.874C750.702 106.73 750.776 106.589 750.915 106.469C751.053 106.349 751.251 106.255 751.481 106.2C751.712 106.144 751.966 106.13 752.211 106.158C752.456 106.186 752.682 106.256 752.858 106.358C753.095 106.494 753.228 106.679 753.228 106.872C753.229 107.065 753.096 107.251 752.86 107.387Z" fill="#830833"/>
</g>
<rect x="0.438435" width="54.8816" height="54.8816" rx="9.87187" transform="matrix(0.866044 -0.499967 0.866044 0.499967 869.36 81.3887)" fill="#1A1B26" stroke="#1A1B26" stroke-width="0.50625"/>
<g clip-path="url(#clip28_8_797)">
<path d="M928.225 87.3727C926.454 88.3971 924.276 89.1563 921.881 89.5847C919.486 90.013 916.946 90.0973 914.481 89.8305C912.017 89.5636 909.703 88.9536 907.739 88.0533C905.776 87.153 904.223 85.9897 903.215 84.6644C902.207 83.339 901.774 81.8917 901.955 80.448C902.136 79.0043 902.924 77.6078 904.251 76.3798C905.579 75.1518 907.405 74.1294 909.572 73.4013C911.739 72.6732 914.181 72.2614 916.686 72.2017L916.806 75.2557C914.85 75.3131 912.964 75.6968 911.378 76.3604C909.792 77.024 908.573 77.9389 907.87 78.9943C907.167 80.0496 907.009 81.2001 907.415 82.3063C907.822 83.4125 908.775 84.4269 910.16 85.2265C911.545 86.0261 913.302 86.5766 915.218 86.8112C917.135 87.0459 919.128 86.9547 920.956 86.5486C922.784 86.1425 924.369 85.439 925.518 84.5234C926.667 83.6078 927.332 82.5193 927.432 81.39L932.722 81.4589C932.563 83.6863 930.958 85.7977 928.225 87.3727Z" fill="#830833"/>
<path d="M931.542 79.1661C931.366 79.268 931.141 79.3375 930.896 79.3656C930.651 79.3937 930.397 79.3793 930.166 79.3241C929.935 79.2689 929.738 79.1755 929.599 79.0556C929.461 78.9357 929.387 78.7948 929.387 78.6506C929.387 78.5064 929.461 78.3654 929.599 78.2456C929.738 78.1257 929.935 78.0322 930.166 77.977C930.397 77.9219 930.651 77.9074 930.896 77.9356C931.141 77.9637 931.366 78.0331 931.542 78.1351C931.778 78.272 931.911 78.4574 931.911 78.6506C931.911 78.8438 931.778 79.0291 931.542 79.1661Z" fill="#830833"/>
<path d="M919.622 82.4864C919.156 82.7574 918.562 82.9425 917.914 83.0183C917.266 83.0941 916.594 83.0571 915.983 82.9121C915.371 82.7671 914.848 82.5206 914.48 82.2038C914.111 81.8871 913.914 81.5142 913.913 81.1327C913.912 80.7511 914.107 80.3779 914.474 80.0604C914.84 79.7428 915.362 79.4953 915.972 79.3491C916.583 79.203 917.255 79.1647 917.903 79.2392C918.552 79.3137 919.147 79.4977 919.614 79.7677C920.237 80.1285 920.587 80.6168 920.589 81.1261C920.59 81.6355 920.243 82.1245 919.622 82.4864Z" fill="#830833"/>
<path d="M929.524 76.8183C929.347 76.9202 929.122 76.9897 928.877 77.0178C928.632 77.0459 928.378 77.0315 928.147 76.9763C927.917 76.9211 927.72 76.8277 927.581 76.7078C927.442 76.5879 927.368 76.447 927.368 76.3028C927.368 76.1586 927.442 76.0177 927.581 75.8978C927.72 75.7779 927.917 75.6844 928.147 75.6293C928.378 75.5741 928.632 75.5597 928.877 75.5878C929.122 75.6159 929.347 75.6853 929.524 75.7873C929.76 75.9242 929.892 76.1096 929.892 76.3028C929.892 76.496 929.76 76.6814 929.524 76.8183Z" fill="#830833"/>
<path d="M926.757 78.2866C926.58 78.3888 926.355 78.4583 926.109 78.4863C925.863 78.5143 925.609 78.4995 925.378 78.4439C925.147 78.3882 924.95 78.2941 924.812 78.1736C924.673 78.0531 924.6 77.9116 924.602 77.767C924.603 77.6225 924.679 77.4815 924.819 77.3619C924.96 77.2423 925.159 77.1495 925.391 77.0953C925.623 77.0411 925.878 77.0279 926.123 77.0575C926.368 77.0871 926.592 77.1581 926.767 77.2614C927 77.3986 927.129 77.5833 927.127 77.7752C927.125 77.9671 926.993 78.1509 926.757 78.2866Z" fill="#830833"/>
<path d="M926.515 75.0812C926.338 75.1832 926.113 75.2526 925.868 75.2807C925.623 75.3089 925.369 75.2944 925.139 75.2393C924.908 75.1841 924.711 75.0906 924.572 74.9708C924.433 74.8509 924.359 74.7099 924.359 74.5657C924.359 74.4215 924.433 74.2806 924.572 74.1607C924.711 74.0408 924.908 73.9474 925.139 73.8922C925.369 73.837 925.623 73.8226 925.868 73.8507C926.113 73.8789 926.338 73.9483 926.515 74.0502C926.751 74.1872 926.883 74.3725 926.883 74.5657C926.883 74.759 926.751 74.9443 926.515 75.0812Z" fill="#830833"/>
<path d="M923.961 76.6724C923.785 76.7744 923.56 76.8438 923.315 76.8719C923.07 76.9001 922.816 76.8856 922.585 76.8304C922.354 76.7753 922.157 76.6818 922.018 76.5619C921.88 76.4421 921.806 76.3011 921.806 76.1569C921.806 76.0127 921.88 75.8718 922.018 75.7519C922.157 75.632 922.354 75.5386 922.585 75.4834C922.816 75.4282 923.07 75.4138 923.315 75.4419C923.56 75.47 923.785 75.5395 923.961 75.6414C924.198 75.7781 924.331 75.9636 924.331 76.1569C924.331 76.3503 924.198 76.5357 923.961 76.6724Z" fill="#830833"/>
<path d="M922.539 73.9089C922.363 74.0112 922.138 74.0809 921.893 74.1093C921.648 74.1377 921.394 74.1236 921.163 74.0686C920.932 74.0136 920.735 73.9203 920.596 73.8005C920.456 73.6806 920.382 73.5397 920.382 73.3954C920.381 73.2511 920.455 73.1101 920.594 72.9901C920.733 72.8701 920.93 72.7765 921.161 72.7212C921.391 72.6659 921.645 72.6514 921.891 72.6795C922.136 72.7076 922.361 72.7771 922.537 72.8791C922.774 73.0156 922.907 73.2007 922.907 73.3938C922.908 73.5868 922.775 73.7721 922.539 73.9089Z" fill="#830833"/>
</g>
<rect x="0.438435" width="54.8816" height="54.8816" rx="9.87187" transform="matrix(0.866044 -0.499967 0.866044 0.499967 697.175 247.748)" fill="#1A1B26" stroke="#1A1B26" stroke-width="0.50625"/>
<g clip-path="url(#clip29_8_797)">
<path d="M756.04 253.732C754.269 254.757 752.091 255.516 749.696 255.944C747.301 256.373 744.761 256.457 742.297 256.19C739.832 255.923 737.518 255.313 735.555 254.413C733.591 253.513 732.038 252.349 731.03 251.024C730.022 249.699 729.59 248.251 729.77 246.808C729.951 245.364 730.739 243.967 732.066 242.739C733.394 241.511 735.22 240.489 737.387 239.761C739.554 239.033 741.996 238.621 744.502 238.561L744.621 241.615C742.665 241.673 740.779 242.056 739.193 242.72C737.607 243.384 736.389 244.298 735.685 245.354C734.982 246.409 734.824 247.56 735.23 248.666C735.637 249.772 736.59 250.786 737.975 251.586C739.36 252.386 741.117 252.936 743.034 253.171C744.95 253.405 746.943 253.314 748.771 252.908C750.599 252.502 752.184 251.799 753.333 250.883C754.483 249.967 755.147 248.879 755.247 247.75L760.537 247.818C760.378 250.046 758.773 252.157 756.04 253.732Z" fill="#830833"/>
<path d="M759.357 245.526C759.181 245.628 758.956 245.697 758.711 245.725C758.466 245.753 758.212 245.739 757.981 245.684C757.75 245.628 757.553 245.535 757.414 245.415C757.276 245.295 757.202 245.154 757.202 245.01C757.202 244.866 757.276 244.725 757.414 244.605C757.553 244.485 757.75 244.392 757.981 244.337C758.212 244.281 758.466 244.267 758.711 244.295C758.956 244.323 759.181 244.393 759.357 244.495C759.594 244.632 759.726 244.817 759.726 245.01C759.726 245.203 759.594 245.389 759.357 245.526Z" fill="#830833"/>
<path d="M747.437 248.846C746.971 249.117 746.377 249.302 745.729 249.378C745.082 249.454 744.409 249.417 743.798 249.272C743.186 249.127 742.663 248.88 742.295 248.563C741.926 248.247 741.729 247.874 741.728 247.492C741.727 247.111 741.922 246.737 742.289 246.42C742.655 246.102 743.177 245.855 743.787 245.709C744.398 245.563 745.07 245.524 745.718 245.599C746.367 245.673 746.962 245.857 747.429 246.127C748.052 246.488 748.402 246.976 748.404 247.486C748.405 247.995 748.058 248.484 747.437 248.846Z" fill="#830833"/>
<path d="M757.339 243.178C757.162 243.28 756.937 243.349 756.692 243.377C756.447 243.405 756.193 243.391 755.963 243.336C755.732 243.281 755.535 243.187 755.396 243.067C755.257 242.947 755.183 242.807 755.183 242.662C755.183 242.518 755.257 242.377 755.396 242.257C755.535 242.137 755.732 242.044 755.963 241.989C756.193 241.934 756.447 241.919 756.692 241.947C756.937 241.975 757.162 242.045 757.339 242.147C757.575 242.284 757.707 242.469 757.707 242.662C757.707 242.856 757.575 243.041 757.339 243.178Z" fill="#830833"/>
<path d="M754.572 244.646C754.395 244.748 754.17 244.818 753.924 244.846C753.679 244.874 753.424 244.859 753.193 244.803C752.962 244.748 752.765 244.654 752.627 244.533C752.488 244.413 752.415 244.271 752.417 244.127C752.418 243.982 752.494 243.841 752.634 243.721C752.775 243.602 752.974 243.509 753.206 243.455C753.438 243.401 753.693 243.388 753.938 243.417C754.183 243.447 754.407 243.518 754.582 243.621C754.815 243.758 754.944 243.943 754.942 244.135C754.94 244.327 754.808 244.51 754.572 244.646Z" fill="#830833"/>
<path d="M754.33 241.441C754.153 241.543 753.928 241.612 753.683 241.64C753.438 241.668 753.184 241.654 752.954 241.599C752.723 241.544 752.526 241.45 752.387 241.33C752.248 241.21 752.174 241.069 752.174 240.925C752.174 240.781 752.248 240.64 752.387 240.52C752.526 240.4 752.723 240.307 752.954 240.252C753.184 240.197 753.438 240.182 753.683 240.21C753.928 240.238 754.153 240.308 754.33 240.41C754.566 240.547 754.699 240.732 754.699 240.925C754.699 241.119 754.566 241.304 754.33 241.441Z" fill="#830833"/>
<path d="M751.776 243.032C751.6 243.134 751.375 243.203 751.13 243.231C750.885 243.26 750.631 243.245 750.4 243.19C750.169 243.135 749.972 243.041 749.833 242.922C749.695 242.802 749.621 242.661 749.621 242.516C749.621 242.372 749.695 242.231 749.833 242.111C749.972 241.992 750.169 241.898 750.4 241.843C750.631 241.788 750.885 241.773 751.13 241.801C751.375 241.83 751.6 241.899 751.776 242.001C752.013 242.138 752.146 242.323 752.146 242.516C752.146 242.71 752.013 242.895 751.776 243.032Z" fill="#830833"/>
<path d="M750.355 240.268C750.178 240.371 749.953 240.44 749.708 240.469C749.463 240.497 749.209 240.483 748.978 240.428C748.747 240.373 748.55 240.28 748.411 240.16C748.271 240.04 748.197 239.899 748.197 239.755C748.197 239.611 748.27 239.47 748.409 239.35C748.548 239.23 748.745 239.136 748.976 239.081C749.206 239.025 749.461 239.011 749.706 239.039C749.951 239.067 750.176 239.137 750.353 239.239C750.589 239.375 750.722 239.56 750.722 239.753C750.723 239.946 750.59 240.132 750.355 240.268Z" fill="#830833"/>
</g>
<rect x="0.438435" width="54.8816" height="54.8816" rx="9.87187" transform="matrix(0.866044 -0.499967 0.866044 0.499967 756.598 82.0085)" fill="#1A1B26" stroke="#1A1B26" stroke-width="0.50625"/>
<g clip-path="url(#clip30_8_797)">
<path d="M783.427 82.3633L815.831 88.3724L805.502 69.6194L783.427 82.3633ZM801.212 81.9075L799.46 82.919L797.708 81.9075L799.46 80.896L801.212 81.9075ZM798.583 80.3897L796.831 81.4012L795.081 80.3908L796.833 79.3794L798.583 80.3897ZM806.467 81.9075L804.714 82.919L802.962 81.9075L804.714 80.896L806.467 81.9075ZM803.839 80.3908L802.087 81.4023L800.335 80.3908L802.087 79.3794L803.839 80.3908ZM801.21 78.8731L799.458 79.8845L797.708 78.8742L799.46 77.8627L801.21 78.8731ZM806.453 78.8822L804.701 79.8937L802.948 78.8822L804.701 77.8708L806.453 78.8822ZM802.071 78.3759L800.321 77.3656L802.073 76.3541L803.823 77.3645L802.071 78.3759Z" fill="#8F7D09"/>
</g>
<rect x="0.438435" width="54.8816" height="54.8816" rx="9.87187" transform="matrix(0.866044 -0.499967 0.866044 0.499967 754.092 214.889)" fill="#1A1B26" stroke="#1A1B26" stroke-width="0.50625"/>
<g clip-path="url(#clip31_8_797)">
<path d="M780.921 215.244L813.326 221.254L802.996 202.5L780.921 215.244ZM798.706 214.789L796.954 215.8L795.202 214.789L796.954 213.777L798.706 214.789ZM796.077 213.271L794.325 214.282L792.575 213.272L794.327 212.26L796.077 213.271ZM803.961 214.789L802.209 215.8L800.457 214.789L802.209 213.777L803.961 214.789ZM801.334 213.272L799.581 214.283L797.829 213.272L799.581 212.26L801.334 213.272ZM798.704 211.754L796.952 212.766L795.202 211.755L796.954 210.744L798.704 211.754ZM803.947 211.763L802.195 212.775L800.443 211.763L802.195 210.752L803.947 211.763ZM799.566 211.257L797.815 210.247L799.568 209.235L801.318 210.246L799.566 211.257Z" fill="#8F7D09"/>
</g>
<rect x="0.438435" width="54.8816" height="54.8816" rx="9.87187" transform="matrix(0.866044 -0.499967 0.866044 0.499967 813.516 49.1502)" fill="#1A1B26" stroke="#1A1B26" stroke-width="0.50625"/>
<g clip-path="url(#clip32_8_797)">
<path d="M866.728 58.2305L865.083 57.281L868.5 55.3086L867.483 54.7219L865.827 55.6783L864.172 54.7231L871.994 50.2076L862.068 48.6726L859.407 42.9413L851.39 47.5693L860.119 52.6083L855.803 55.0997L842.761 47.5704L857.611 38.9976L864.381 40.0447L867.052 45.7955L877.214 47.3684L878.974 51.1605L866.728 58.2305Z" fill="#731316"/>
<path d="M863.076 55.3557L861.422 56.3109L863.076 57.2661L864.731 56.3109L863.076 55.3557Z" fill="#731316"/>
<path d="M863.975 57.9067L862.321 58.8619L863.975 59.8172L865.63 58.8619L863.975 57.9067Z" fill="#731316"/>
</g>
<rect x="0.438435" width="54.8816" height="54.8816" rx="9.87187" transform="matrix(0.866044 -0.499967 0.866044 0.499967 811.01 182.031)" fill="#1A1B26" stroke="#1A1B26" stroke-width="0.50625"/>
<g clip-path="url(#clip33_8_797)">
<path d="M864.222 191.111L862.577 190.162L865.994 188.189L864.977 187.603L863.321 188.559L861.666 187.604L869.488 183.088L859.562 181.553L856.901 175.822L848.885 180.45L857.613 185.489L853.298 187.981L840.255 180.451L855.105 171.878L861.875 172.926L864.546 178.676L874.708 180.249L876.468 184.041L864.222 191.111Z" fill="#731316"/>
<path d="M860.57 188.237L858.916 189.192L860.57 190.147L862.225 189.192L860.57 188.237Z" fill="#731316"/>
<path d="M861.469 190.788L859.815 191.743L861.469 192.698L863.124 191.743L861.469 190.788Z" fill="#731316"/>
</g>
<rect x="0.438435" width="54.8816" height="54.8816" rx="9.87187" transform="matrix(0.866044 -0.499967 0.866044 0.499967 867.928 149.172)" fill="#1A1B26" stroke="#1A1B26" stroke-width="0.50625"/>
<g clip-path="url(#clip34_8_797)">
<path d="M904.303 142.294L900.081 151.39L911.615 158.049L927.372 155.612L931.594 146.516L920.06 139.857L904.303 142.294ZM921.438 147.047L920.314 149.471L915.348 150.317L919.023 152.439L917.918 155.291L910.233 150.854L911.164 148.622L916.245 147.714L912.492 145.548L913.767 142.61L921.438 147.047Z" fill="#237FA7"/>
</g>
<rect x="0.438435" width="54.8816" height="54.8816" rx="9.87187" transform="matrix(0.866044 -0.499967 0.866044 0.499967 529.286 213.65)" fill="#1A1B26" stroke="#1A1B26" stroke-width="0.50625"/>
<g clip-path="url(#clip35_8_797)">
<path d="M564.536 208.109L560.888 215.957L560.892 215.959L572.834 222.853L577.942 222.063L565.996 215.167L568.272 210.266L564.536 208.109Z" fill="#B2B6BD"/>
<path d="M567.978 206.123L577.491 211.614L574.049 213.601L570.5 211.552L569.129 214.502L581.317 221.538L586.431 220.749L576.945 215.273L580.386 213.286L583.913 215.322L585.281 212.373L573.085 205.333L567.978 206.123Z" fill="#B2B6BD"/>
<path d="M589.876 218.764L593.525 210.917L593.521 210.915L581.579 204.021L576.469 204.812L588.415 211.708L586.141 216.608L589.876 218.764Z" fill="#B2B6BD"/>
</g>
<rect x="0.438435" width="54.8816" height="54.8816" rx="9.87187" transform="matrix(0.866044 -0.499967 0.866044 0.499967 698.965 180.171)" fill="#1A1B26" stroke="#1A1B26" stroke-width="0.50625"/>
<g clip-path="url(#clip36_8_797)">
<path d="M734.216 174.631L730.567 182.478L730.571 182.48L742.513 189.374L747.621 188.584L735.675 181.688L737.951 176.787L734.216 174.631Z" fill="#B2B6BD"/>
<path d="M737.657 172.644L747.17 178.136L743.729 180.123L740.179 178.073L738.809 181.023L750.997 188.059L756.11 187.27L746.624 181.794L750.066 179.808L753.592 181.843L754.96 178.895L742.765 171.854L737.657 172.644Z" fill="#B2B6BD"/>
<path d="M759.555 185.286L763.204 177.439L763.2 177.436L751.258 170.542L746.148 171.333L758.094 178.23L755.82 183.129L759.555 185.286Z" fill="#B2B6BD"/>
</g>
<rect x="0.438435" width="54.8816" height="54.8816" rx="9.87187" transform="matrix(0.866044 -0.499967 0.866044 0.499967 526.585 280.45)" fill="#1A1B26" stroke="#1A1B26" stroke-width="0.50625"/>
<g clip-path="url(#clip37_8_797)">
<path d="M561.837 274.91L558.188 282.757L558.192 282.759L570.134 289.653L575.242 288.863L563.296 281.967L565.572 277.066L561.837 274.91Z" fill="#B2B6BD"/>
<path d="M565.278 272.923L574.791 278.415L571.35 280.401L567.8 278.352L566.429 281.302L578.617 288.338L583.731 287.549L574.245 282.073L577.686 280.086L581.213 282.122L582.581 279.173L570.386 272.133L565.278 272.923Z" fill="#B2B6BD"/>
<path d="M587.176 285.565L590.825 277.717L590.821 277.715L578.879 270.821L573.769 271.612L585.715 278.509L583.441 283.408L587.176 285.565Z" fill="#B2B6BD"/>
</g>
</g>
<rect x="0.498842" width="62.424" height="62.424" rx="11.232" transform="matrix(0.866044 -0.499967 0.866044 0.499967 473.067 86.3994)" fill="#0C0C0E" stroke="#1A1B26" stroke-width="0.576"/>
<path fill-rule="evenodd" clip-rule="evenodd" d="M527.5 115.867L527.5 254.79L577 226.372L577 88.7592C576.618 90.4784 575.276 92.1408 572.976 93.4612L538.071 113.498C535.165 115.167 531.307 115.956 527.5 115.867Z" fill="url(#paint0_linear_8_797)" fill-opacity="0.6"/>
<path fill-rule="evenodd" clip-rule="evenodd" d="M527.5 115.867L527.5 254.79L478 226.372L478 88.7592C478.382 90.4784 479.724 92.1408 482.024 93.4612L516.929 113.498C519.835 115.167 523.693 115.956 527.5 115.867Z" fill="url(#paint1_linear_8_797)" fill-opacity="0.6"/>
<path fill-rule="evenodd" clip-rule="evenodd" d="M466.5 151.76L466.5 290.683L516 262.265L516 124.652C515.618 126.371 514.276 128.034 511.976 129.354L477.071 149.391C474.165 151.06 470.307 151.849 466.5 151.76Z" fill="url(#paint2_linear_8_797)" fill-opacity="0.6"/>
<path fill-rule="evenodd" clip-rule="evenodd" d="M466.5 151.76L466.5 290.683L417 262.265L417 124.652C417.382 126.371 418.724 128.034 421.024 129.354L455.929 149.391C458.835 151.06 462.693 151.849 466.5 151.76Z" fill="url(#paint3_linear_8_797)" fill-opacity="0.6"/>
<rect x="0.498842" width="62.424" height="62.424" rx="11.232" transform="matrix(0.866044 -0.499967 0.866044 0.499967 412.067 122.399)" fill="#0C0C0E" stroke="#1A1B26" stroke-width="0.576"/>
<path fill-rule="evenodd" clip-rule="evenodd" d="M456.791 120.812L458.246 121.651L461.907 119.538L460.453 118.698C458.685 117.678 458.755 115.983 460.609 114.913C462.462 113.843 465.398 113.802 467.165 114.823C468.933 115.843 468.863 117.538 467.009 118.608L465.483 119.488L468.975 121.504L470.5 120.623C472.354 119.553 475.289 119.513 477.057 120.533C478.824 121.553 478.754 123.248 476.9 124.318C475.047 125.388 472.111 125.429 470.344 124.408L468.889 123.568L465.228 125.682L466.682 126.522C468.45 127.542 468.38 129.237 466.526 130.307C464.673 131.377 461.737 131.418 459.97 130.397C458.202 129.377 458.272 127.682 460.126 126.612L461.652 125.731L458.16 123.716L456.635 124.597C454.781 125.667 451.846 125.707 450.078 124.687C448.311 123.667 448.381 121.972 450.235 120.902C452.088 119.832 455.024 119.791 456.791 120.812ZM451.98 121.91C451.138 122.396 451.106 123.166 451.909 123.63C452.712 124.094 454.047 124.075 454.889 123.589L456.415 122.708L454.96 121.869C454.157 121.405 452.823 121.423 451.98 121.91ZM470.72 122.512L472.175 123.351C472.978 123.815 474.312 123.797 475.155 123.31C475.998 122.824 476.029 122.054 475.226 121.59C474.423 121.126 473.088 121.144 472.246 121.631L470.72 122.512ZM467.144 122.561L463.653 120.545L459.991 122.659L463.482 124.675L467.144 122.561ZM461.871 127.62L463.397 126.739L464.852 127.579C465.655 128.043 465.623 128.813 464.781 129.299C463.938 129.786 462.604 129.804 461.8 129.34C460.997 128.877 461.029 128.106 461.871 127.62ZM463.738 118.481L465.264 117.6C466.106 117.114 466.138 116.343 465.335 115.88C464.531 115.416 463.197 115.434 462.354 115.921C461.512 116.407 461.48 117.177 462.283 117.641L463.738 118.481Z" fill="#EFEFF1"/>
<path d="M534.532 91.5181L529.101 88.383L528.853 86.1279L541.825 87.3076L544.986 85.4826L528.92 84.1073L528.153 76.3902L525.161 78.1175L526.12 86.4538L525.94 86.558L518.24 82.1129L515.711 83.5729L532.003 92.9781L534.532 91.5181Z" fill="#EFEFF1"/>
</g>
<defs>
<filter id="filter0_f_8_797" x="452.975" y="33.0257" width="147.466" height="106.267" filterUnits="userSpaceOnUse" color-interpolation-filters="sRGB">
<feFlood flood-opacity="0" result="BackgroundImageFix"/>
<feBlend mode="normal" in="SourceGraphic" in2="BackgroundImageFix" result="shape"/>
<feGaussianBlur stdDeviation="12.5" result="effect1_foregroundBlur_8_797"/>
</filter>
<filter id="filter1_f_8_797" x="389.975" y="69.0257" width="147.466" height="106.267" filterUnits="userSpaceOnUse" color-interpolation-filters="sRGB">
<feFlood flood-opacity="0" result="BackgroundImageFix"/>
<feBlend mode="normal" in="SourceGraphic" in2="BackgroundImageFix" result="shape"/>
<feGaussianBlur stdDeviation="12.5" result="effect1_foregroundBlur_8_797"/>
</filter>
<linearGradient id="paint0_linear_8_797" x1="547.963" y1="58.9519" x2="548.129" y2="130.154" gradientUnits="userSpaceOnUse">
<stop offset="0.574973" stop-color="#1D3672"/>
<stop offset="1" stop-color="#0C0C0E" stop-opacity="0"/>
</linearGradient>
<linearGradient id="paint1_linear_8_797" x1="507.037" y1="58.9519" x2="507.38" y2="124.65" gradientUnits="userSpaceOnUse">
<stop offset="0.200926" stop-color="#2F59EF"/>
<stop offset="1" stop-color="#3059E9" stop-opacity="0"/>
</linearGradient>
<linearGradient id="paint2_linear_8_797" x1="486.963" y1="94.8447" x2="487.129" y2="166.046" gradientUnits="userSpaceOnUse">
<stop offset="0.574973" stop-color="#1D3672"/>
<stop offset="1" stop-color="#0C0C0E" stop-opacity="0"/>
</linearGradient>
<linearGradient id="paint3_linear_8_797" x1="446.037" y1="94.8447" x2="446.38" y2="160.543" gradientUnits="userSpaceOnUse">
<stop offset="0.200926" stop-color="#2F59EF"/>
<stop offset="1" stop-color="#3059E9" stop-opacity="0"/>
</linearGradient>
<clipPath id="clip0_8_797">
<rect width="986" height="429" fill="white"/>
</clipPath>
<clipPath id="clip1_8_797">
<rect width="33.0674" height="33.0674" fill="white" transform="matrix(0.866044 -0.499967 0.866044 0.499967 94.5162 344.658)"/>
</clipPath>
<clipPath id="clip2_8_797">
<rect width="33.0674" height="33.0674" fill="white" transform="matrix(0.866044 -0.499967 0.866044 0.499967 264.195 311.179)"/>
</clipPath>
<clipPath id="clip3_8_797">
<rect width="33.0674" height="33.0674" fill="white" transform="matrix(0.866044 -0.499967 0.866044 0.499967 151.434 311.799)"/>
</clipPath>
<clipPath id="clip4_8_797">
<rect width="33.0674" height="33.0674" fill="white" transform="matrix(0.866044 -0.499967 0.866044 0.499967 321.113 278.32)"/>
</clipPath>
<clipPath id="clip5_8_797">
<rect width="33.0674" height="33.0674" fill="white" transform="matrix(0.866044 -0.499967 0.866044 0.499967 208.351 278.94)"/>
</clipPath>
<clipPath id="clip6_8_797">
<rect width="33.0674" height="33.0674" fill="white" transform="matrix(0.866044 -0.499967 0.866044 0.499967 378.031 245.462)"/>
</clipPath>
<clipPath id="clip7_8_797">
<rect width="33.0674" height="33.0674" fill="white" transform="matrix(0.866044 -0.499967 0.866044 0.499967 265.269 246.082)"/>
</clipPath>
<clipPath id="clip8_8_797">
<rect width="33.0674" height="33.0674" fill="white" transform="matrix(0.866044 -0.499967 0.866044 0.499967 434.948 212.603)"/>
</clipPath>
<clipPath id="clip9_8_797">
<rect width="33.0674" height="33.0674" fill="white" transform="matrix(0.866044 -0.499967 0.866044 0.499967 322.187 213.223)"/>
</clipPath>
<clipPath id="clip10_8_797">
<rect width="33.0674" height="33.0674" fill="white" transform="matrix(0.866044 -0.499967 0.866044 0.499967 491.866 179.745)"/>
</clipPath>
<clipPath id="clip11_8_797">
<rect width="33.0674" height="33.0674" fill="white" transform="matrix(0.866044 -0.499967 0.866044 0.499967 319.681 346.104)"/>
</clipPath>
<clipPath id="clip12_8_797">
<rect width="33.0674" height="33.0674" fill="white" transform="matrix(0.866044 -0.499967 0.866044 0.499967 379.105 180.365)"/>
</clipPath>
<clipPath id="clip13_8_797">
<rect width="33.0674" height="33.0674" fill="white" transform="matrix(0.866044 -0.499967 0.866044 0.499967 548.784 146.886)"/>
</clipPath>
<clipPath id="clip14_8_797">
<rect width="33.0674" height="33.0674" fill="white" transform="matrix(0.866044 -0.499967 0.866044 0.499967 376.599 313.246)"/>
</clipPath>
<clipPath id="clip15_8_797">
<rect width="28.934" height="28.934" fill="white" transform="matrix(0.866044 -0.499967 0.866044 0.499967 609.639 114.234)"/>
</clipPath>
<clipPath id="clip16_8_797">
<rect width="28.934" height="28.934" fill="white" transform="matrix(0.866044 -0.499967 0.866044 0.499967 437.454 280.593)"/>
</clipPath>
<clipPath id="clip17_8_797">
<rect width="28.934" height="28.934" fill="white" transform="matrix(0.866044 -0.499967 0.866044 0.499967 666.557 81.376)"/>
</clipPath>
<clipPath id="clip18_8_797">
<rect width="28.934" height="28.934" fill="white" transform="matrix(0.866044 -0.499967 0.866044 0.499967 494.372 247.736)"/>
</clipPath>
<clipPath id="clip19_8_797">
<rect width="33.0674" height="33.0674" fill="white" transform="matrix(0.866044 -0.499967 0.866044 0.499967 37.9564 377.723)"/>
</clipPath>
<clipPath id="clip20_8_797">
<rect width="33.0674" height="33.0674" fill="white" transform="matrix(0.866044 -0.499967 0.866044 0.499967 207.636 344.245)"/>
</clipPath>
<clipPath id="clip21_8_797">
<rect width="33.0674" height="33.0674" fill="white" transform="matrix(0.866044 -0.499967 0.866044 0.499967 605.117 180.365)"/>
</clipPath>
<clipPath id="clip22_8_797">
<rect width="33.0674" height="33.0674" fill="white" transform="matrix(0.866044 -0.499967 0.866044 0.499967 774.796 146.887)"/>
</clipPath>
<clipPath id="clip23_8_797">
<rect width="33.0674" height="33.0674" fill="white" transform="matrix(0.866044 -0.499967 0.866044 0.499967 604.518 246.897)"/>
</clipPath>
<clipPath id="clip24_8_797">
<rect width="33.0674" height="33.0674" fill="white" transform="matrix(0.866044 -0.499967 0.866044 0.499967 662.035 147.506)"/>
</clipPath>
<clipPath id="clip25_8_797">
<rect width="33.0674" height="33.0674" fill="white" transform="matrix(0.866044 -0.499967 0.866044 0.499967 831.714 114.028)"/>
</clipPath>
<clipPath id="clip26_8_797">
<rect width="33.0674" height="33.0674" fill="white" transform="matrix(0.866044 -0.499967 0.866044 0.499967 661.435 214.038)"/>
</clipPath>
<clipPath id="clip27_8_797">
<rect width="33.0674" height="33.0674" fill="white" transform="matrix(0.866044 -0.499967 0.866044 0.499967 718.952 114.648)"/>
</clipPath>
<clipPath id="clip28_8_797">
<rect width="33.0674" height="33.0674" fill="white" transform="matrix(0.866044 -0.499967 0.866044 0.499967 888.631 81.1694)"/>
</clipPath>
<clipPath id="clip29_8_797">
<rect width="33.0674" height="33.0674" fill="white" transform="matrix(0.866044 -0.499967 0.866044 0.499967 716.446 247.529)"/>
</clipPath>
<clipPath id="clip30_8_797">
<rect width="33.0674" height="33.0674" fill="white" transform="matrix(0.866044 -0.499967 0.866044 0.499967 775.87 81.7892)"/>
</clipPath>
<clipPath id="clip31_8_797">
<rect width="33.0674" height="33.0674" fill="white" transform="matrix(0.866044 -0.499967 0.866044 0.499967 773.364 214.67)"/>
</clipPath>
<clipPath id="clip32_8_797">
<rect width="33.0674" height="33.0674" fill="white" transform="matrix(0.866044 -0.499967 0.866044 0.499967 832.788 48.9309)"/>
</clipPath>
<clipPath id="clip33_8_797">
<rect width="33.0674" height="33.0674" fill="white" transform="matrix(0.866044 -0.499967 0.866044 0.499967 830.282 181.812)"/>
</clipPath>
<clipPath id="clip34_8_797">
<rect width="33.0674" height="33.0674" fill="white" transform="matrix(0.866044 -0.499967 0.866044 0.499967 887.2 148.953)"/>
</clipPath>
<clipPath id="clip35_8_797">
<rect width="33.0674" height="33.0674" fill="white" transform="matrix(0.866044 -0.499967 0.866044 0.499967 548.557 213.43)"/>
</clipPath>
<clipPath id="clip36_8_797">
<rect width="33.0674" height="33.0674" fill="white" transform="matrix(0.866044 -0.499967 0.866044 0.499967 718.237 179.952)"/>
</clipPath>
<clipPath id="clip37_8_797">
<rect width="33.0674" height="33.0674" fill="white" transform="matrix(0.866044 -0.499967 0.866044 0.499967 545.857 280.231)"/>
</clipPath>
</defs>
</svg>
