<svg width="373" height="175" viewBox="0 0 373 175" fill="none" xmlns="http://www.w3.org/2000/svg">
<rect x="44" y="83" width="40" height="40" rx="5" fill="url(#paint0_linear_2003_875)"/>
<path fill-rule="evenodd" clip-rule="evenodd" d="M64.3571 93.5847C60.4316 93.5847 57.2493 96.767 57.2493 100.693C57.2493 103.037 58.3848 105.117 60.1359 106.412L59.0374 112.344C58.9935 112.58 59.0809 112.822 59.2659 112.977C59.4509 113.131 59.7047 113.173 59.9298 113.088L64.3571 111.401L68.7844 113.088C69.0095 113.173 69.2633 113.131 69.4483 112.977C69.6333 112.822 69.7207 112.58 69.6768 112.344L68.5784 106.412C70.3295 105.117 71.4649 103.037 71.4649 100.693C71.4649 96.767 68.2826 93.5847 64.3571 93.5847ZM58.582 100.693C58.582 97.503 61.1676 94.9174 64.3571 94.9174C67.5466 94.9174 70.1322 97.503 70.1322 100.693C70.1322 103.882 67.5466 106.468 64.3571 106.468C61.1676 106.468 58.582 103.882 58.582 100.693ZM67.3575 107.138C66.4459 107.563 65.4292 107.8 64.3571 107.8C63.285 107.8 62.2683 107.563 61.3568 107.138L60.5638 111.42L64.1199 110.065C64.2727 110.007 64.4415 110.007 64.5943 110.065L68.1504 111.42L67.3575 107.138Z" fill="url(#paint1_linear_2003_875)"/>
<rect x="100" y="77" width="52" height="52" rx="5" fill="url(#paint2_linear_2003_875)"/>
<path d="M126.464 108.375C126.943 108.375 127.331 108.762 127.331 109.241V111.551C127.331 112.029 126.943 112.417 126.464 112.417C125.986 112.417 125.598 112.029 125.598 111.551V109.241C125.598 108.762 125.986 108.375 126.464 108.375Z" fill="url(#paint3_linear_2003_875)"/>
<path fill-rule="evenodd" clip-rule="evenodd" d="M119.534 101.275V97.4019C119.534 95.6265 120.275 93.9328 121.579 92.691C122.882 91.4505 124.64 90.7605 126.464 90.7605C128.289 90.7605 130.047 91.4505 131.35 92.691C132.653 93.9328 133.394 95.6265 133.394 97.4019V101.275C134.728 101.652 135.704 102.878 135.704 104.332V112.995C135.704 114.749 134.282 116.171 132.528 116.171H120.4C118.646 116.171 117.224 114.749 117.224 112.995V104.332C117.224 102.878 118.201 101.652 119.534 101.275ZM122.774 93.9456C123.746 93.02 125.073 92.493 126.464 92.493C127.856 92.493 129.183 93.02 130.155 93.9456C131.125 94.8698 131.662 96.114 131.662 97.4019V101.156H121.267V97.4019C121.267 96.114 121.804 94.8698 122.774 93.9456ZM132.528 102.888H120.4C119.603 102.888 118.957 103.535 118.957 104.332V112.995C118.957 113.792 119.603 114.438 120.4 114.438H132.528C133.326 114.438 133.972 113.792 133.972 112.995V104.332C133.972 103.535 133.326 102.888 132.528 102.888Z" fill="url(#paint4_linear_2003_875)"/>
<rect x="168" y="83" width="40" height="40" rx="5" fill="url(#paint5_linear_2003_875)"/>
<path fill-rule="evenodd" clip-rule="evenodd" d="M184.655 96.6943C184.469 96.6943 184.292 96.7718 184.166 96.908L183.13 98.0271H179.25C178.882 98.0271 178.584 98.3254 178.584 98.6934C178.584 99.0614 178.882 99.3598 179.25 99.3598H181.249V105.986C181.249 106.6 180.752 107.097 180.139 107.097H179.25C178.882 107.097 178.584 107.395 178.584 107.763C178.584 108.131 178.882 108.43 179.25 108.43H180.139C181.16 108.43 182.036 107.802 182.401 106.912H183.288L186.953 109.078C187.833 109.598 188.944 109.515 189.737 108.87L192.148 106.912H194.313C194.678 107.802 195.554 108.43 196.575 108.43H197.464C197.832 108.43 198.13 108.131 198.13 107.763C198.13 107.395 197.832 107.097 197.464 107.097H196.575C195.962 107.097 195.465 106.6 195.465 105.986V99.3598H197.464C197.832 99.3598 198.13 99.0614 198.13 98.6934C198.13 98.3254 197.832 98.0271 197.464 98.0271C196.171 98.0271 194.877 98.0271 193.584 98.0271L192.548 96.908C192.422 96.7718 192.245 96.6943 192.059 96.6943H188.974C188.796 96.6943 188.625 96.7658 188.5 96.8926L188.034 97.3642L187.612 96.908C187.486 96.7718 187.309 96.6943 187.123 96.6943H184.655ZM183.421 99.3598H182.582V105.579H183.47C183.59 105.579 183.707 105.611 183.809 105.672L187.631 107.93C188.031 108.167 188.536 108.129 188.897 107.836L190.95 106.168L189.636 104.689C189.391 104.414 189.416 103.993 189.691 103.748C189.966 103.504 190.388 103.529 190.632 103.804L192.21 105.579H194.132V99.3598H193.293C193.107 99.3598 192.93 99.2823 192.804 99.1461L191.768 98.0271H189.253L186.909 100.402C186.493 100.823 186.481 101.496 186.881 101.932L186.986 102.047C187.399 102.498 188.099 102.53 188.552 102.119L189.686 101.088C189.958 100.84 190.379 100.86 190.627 101.133C190.875 101.405 190.855 101.826 190.582 102.074L189.448 103.105C188.453 104.01 186.913 103.94 186.004 102.948L185.898 102.833C185.019 101.873 185.046 100.392 185.96 99.4657L187.097 98.3137L186.832 98.0271H184.946L183.91 99.1461C183.784 99.2823 183.607 99.3598 183.421 99.3598Z" fill="url(#paint6_linear_2003_875)"/>
<path d="M198.13 105.024C198.13 105.453 197.782 105.801 197.353 105.801C196.923 105.801 196.575 105.453 196.575 105.024C196.575 104.594 196.923 104.246 197.353 104.246C197.782 104.246 198.13 104.594 198.13 105.024Z" fill="url(#paint7_linear_2003_875)"/>
<path d="M180.139 105.147C180.139 105.577 179.791 105.925 179.361 105.925C178.932 105.925 178.584 105.577 178.584 105.147C178.584 104.718 178.932 104.37 179.361 104.37C179.791 104.37 180.139 104.718 180.139 105.147Z" fill="url(#paint8_linear_2003_875)"/>
<rect x="224" y="83" width="40" height="40" rx="5" fill="url(#paint9_linear_2003_875)"/>
<path d="M255.019 103.58C255.019 103.948 254.72 104.247 254.352 104.247C253.984 104.247 253.686 103.948 253.686 103.58V99.4138L246.383 106.717C246.141 106.959 245.755 106.978 245.49 106.761L241.07 103.145L234.833 109.382C234.573 109.642 234.151 109.642 233.89 109.382C233.63 109.122 233.63 108.7 233.89 108.44L240.554 101.776C240.796 101.534 241.182 101.515 241.447 101.732L245.867 105.348L252.744 98.4714H248.577C248.209 98.4714 247.911 98.1731 247.911 97.805C247.911 97.437 248.209 97.1387 248.577 97.1387H254.352C254.72 97.1387 255.019 97.437 255.019 97.805V103.58Z" fill="url(#paint10_linear_2003_875)"/>
<rect x="280" y="83" width="40" height="40" rx="5" fill="url(#paint11_linear_2003_875)"/>
<path fill-rule="evenodd" clip-rule="evenodd" d="M300.801 94.2511C300.801 93.8831 300.502 93.5847 300.134 93.5847C299.766 93.5847 299.468 93.8831 299.468 94.2511V96.2502H298.043C297.008 96.2502 296.015 96.6588 295.282 97.3873C294.55 98.116 294.137 99.1051 294.137 100.137C294.137 101.169 294.55 102.159 295.282 102.887C296.015 103.616 297.008 104.024 298.043 104.024H299.468V109.133H294.804C294.436 109.133 294.137 109.431 294.137 109.799C294.137 110.167 294.436 110.466 294.804 110.466H299.468V112.465C299.468 112.833 299.766 113.131 300.134 113.131C300.502 113.131 300.801 112.833 300.801 112.465V110.466H302.67C303.705 110.466 304.698 110.057 305.431 109.329C306.163 108.6 306.576 107.611 306.576 106.579C306.576 105.547 306.163 104.557 305.431 103.829C304.698 103.1 303.705 102.692 302.67 102.692H300.801V97.5829H304.984C305.352 97.5829 305.65 97.2845 305.65 96.9165C305.65 96.5485 305.352 96.2502 304.984 96.2502H300.801V94.2511ZM299.468 97.5829H298.043C297.359 97.5829 296.704 97.8529 296.222 98.3324C295.74 98.8117 295.47 99.461 295.47 100.137C295.47 100.813 295.74 101.463 296.222 101.942C296.704 102.422 297.359 102.692 298.043 102.692H299.468V97.5829ZM300.801 104.024V109.133H302.67C303.354 109.133 304.009 108.863 304.491 108.384C304.973 107.904 305.243 107.255 305.243 106.579C305.243 105.902 304.973 105.253 304.491 104.774C304.009 104.294 303.354 104.024 302.67 104.024H300.801Z" fill="url(#paint12_linear_2003_875)"/>
<path d="M127 69L127 36.5C127 32.0817 130.582 28.5 135 28.5L157.5 28.5" stroke="#2B303C" stroke-width="2" stroke-linejoin="round"/>
<path d="M188 -12L188 20.5C188 24.9183 184.418 28.5 180 28.5L157.5 28.5" stroke="#2B303C" stroke-width="2" stroke-linejoin="round"/>
<path d="M127 69C128.657 69 130 67.6569 130 66C130 64.3431 128.657 63 127 63C125.343 63 124 64.3431 124 66C124 67.6569 125.343 69 127 69Z" fill="#0D0E12" stroke="#2B303C" stroke-width="2" stroke-linecap="round" stroke-linejoin="round"/>
<path d="M65 69L65 36.5C65 32.0817 68.5817 28.5 73 28.5L126.5 28.5" stroke="#2B303C" stroke-width="2" stroke-linejoin="round"/>
<path d="M188 -12L188 20.5C188 24.9183 184.418 28.5 180 28.5L126.5 28.5" stroke="#2B303C" stroke-width="2" stroke-linejoin="round"/>
<path d="M65 69C66.6569 69 68 67.6569 68 66C68 64.3431 66.6569 63 65 63C63.3431 63 62 64.3431 62 66C62 67.6569 63.3431 69 65 69Z" fill="#0D0E12" stroke="#2B303C" stroke-width="2" stroke-linecap="round" stroke-linejoin="round"/>
<path d="M244 69L244 36.5C244 32.0817 240.418 28.5 236 28.5L216 28.5" stroke="#2B303C" stroke-width="2" stroke-linejoin="round"/>
<path d="M188 -12L188 20.5C188 24.9183 191.582 28.5 196 28.5L216 28.5" stroke="#2B303C" stroke-width="2" stroke-linejoin="round"/>
<path d="M244 69C242.343 69 241 67.6569 241 66C241 64.3431 242.343 63 244 63C245.657 63 247 64.3431 247 66C247 67.6569 245.657 69 244 69Z" fill="#0D0E12" stroke="#2B303C" stroke-width="2" stroke-linecap="round" stroke-linejoin="round"/>
<line y1="-1" x2="81" y2="-1" transform="matrix(4.37114e-08 1 1 -4.37114e-08 189 -11.9998)" stroke="#2B303C" stroke-width="2"/>
<path d="M188 69.0002C189.657 69.0002 191 67.6571 191 66.0002C191 64.3434 189.657 63.0002 188 63.0002C186.343 63.0002 185 64.3434 185 66.0002C185 67.6571 186.343 69.0002 188 69.0002Z" fill="#0D0E12" stroke="#2B303C" stroke-width="2" stroke-linecap="round" stroke-linejoin="round"/>
<path d="M300 69L300 36.5C300 32.0817 296.418 28.5 292 28.5L244 28.5" stroke="#2B303C" stroke-width="2" stroke-linejoin="round"/>
<path d="M188 -12L188 20.5C188 24.9183 191.582 28.5 196 28.5L244 28.5" stroke="#2B303C" stroke-width="2" stroke-linejoin="round"/>
<path d="M300 69C298.343 69 297 67.6569 297 66C297 64.3431 298.343 63 300 63C301.657 63 303 64.3431 303 66C303 67.6569 301.657 69 300 69Z" fill="#0D0E12" stroke="#2B303C" stroke-width="2" stroke-linecap="round" stroke-linejoin="round"/>
<defs>
<linearGradient id="paint0_linear_2003_875" x1="0%" y1="0%" x2="67.3%" y2="75.2%" gradientUnits="userSpaceOnUse">
<stop stop-color="#3C3F45"/>
<stop offset="1" stop-color="#222327"/>
</linearGradient>
<linearGradient id="paint1_linear_2003_875" x1="57.2493" y1="103.358" x2="71.4649" y2="103.358" gradientUnits="userSpaceOnUse">
<stop stop-color="#A3F7D6"/>
<stop offset="0.5" stop-color="#5CD1D9"/>
<stop offset="1" stop-color="#5494E3"/>
</linearGradient>
<linearGradient id="paint2_linear_2003_875" x1="100" y1="77" x2="127.773" y2="112.455" gradientUnits="userSpaceOnUse">
<stop stop-color="#3C3F45"/>
<stop offset="1" stop-color="#222327"/>
</linearGradient>
<linearGradient id="paint3_linear_2003_875" x1="117.224" y1="103.466" x2="135.704" y2="103.466" gradientUnits="userSpaceOnUse">
<stop stop-color="#A3F7D6"/>
<stop offset="0.5" stop-color="#5CD1D9"/>
<stop offset="1" stop-color="#5494E3"/>
</linearGradient>
<linearGradient id="paint4_linear_2003_875" x1="117.224" y1="103.466" x2="135.704" y2="103.466" gradientUnits="userSpaceOnUse">
<stop stop-color="#A3F7D6"/>
<stop offset="0.5" stop-color="#5CD1D9"/>
<stop offset="1" stop-color="#5494E3"/>
</linearGradient>
<linearGradient id="paint5_linear_2003_875" x1="168" y1="83" x2="189.364" y2="110.273" gradientUnits="userSpaceOnUse">
<stop stop-color="#3C3F45"/>
<stop offset="1" stop-color="#222327"/>
</linearGradient>
<linearGradient id="paint6_linear_2003_875" x1="178.584" y1="103.056" x2="198.13" y2="103.056" gradientUnits="userSpaceOnUse">
<stop stop-color="#A3F7D6"/>
<stop offset="0.5" stop-color="#5CD1D9"/>
<stop offset="1" stop-color="#5494E3"/>
</linearGradient>
<linearGradient id="paint7_linear_2003_875" x1="178.584" y1="103.056" x2="198.13" y2="103.056" gradientUnits="userSpaceOnUse">
<stop stop-color="#A3F7D6"/>
<stop offset="0.5" stop-color="#5CD1D9"/>
<stop offset="1" stop-color="#5494E3"/>
</linearGradient>
<linearGradient id="paint8_linear_2003_875" x1="178.584" y1="103.056" x2="198.13" y2="103.056" gradientUnits="userSpaceOnUse">
<stop stop-color="#A3F7D6"/>
<stop offset="0.5" stop-color="#5CD1D9"/>
<stop offset="1" stop-color="#5494E3"/>
</linearGradient>
<linearGradient id="paint9_linear_2003_875" x1="224" y1="83" x2="245.364" y2="110.273" gradientUnits="userSpaceOnUse">
<stop stop-color="#3C3F45"/>
<stop offset="1" stop-color="#222327"/>
</linearGradient>
<linearGradient id="paint10_linear_2003_875" x1="233.695" y1="103.358" x2="255.019" y2="103.358" gradientUnits="userSpaceOnUse">
<stop stop-color="#A3F7D6"/>
<stop offset="0.5" stop-color="#5CD1D9"/>
<stop offset="1" stop-color="#5494E3"/>
</linearGradient>
<linearGradient id="paint11_linear_2003_875" x1="280" y1="83" x2="301.364" y2="110.273" gradientUnits="userSpaceOnUse">
<stop stop-color="#3C3F45"/>
<stop offset="1" stop-color="#222327"/>
</linearGradient>
<linearGradient id="paint12_linear_2003_875" x1="294.137" y1="103.358" x2="306.576" y2="103.358" gradientUnits="userSpaceOnUse">
<stop stop-color="#A3F7D6"/>
<stop offset="0.5" stop-color="#5CD1D9"/>
<stop offset="1" stop-color="#5494E3"/>
</linearGradient>
</defs>
</svg>
