<svg width="373" height="179" viewBox="0 0 373 179" fill="none" xmlns="http://www.w3.org/2000/svg">
<g clip-path="url(#clip0_21674_247253)">
<mask id="mask0_21674_247253" style="mask-type:alpha" maskUnits="userSpaceOnUse" x="27" y="-5" width="320" height="185">
<path d="M49.05 -4.44875H324.675C336.548 -4.44875 346.174 5.17657 346.174 17.05V157.068C346.174 168.941 336.548 178.566 324.675 178.566H49.05C37.1766 178.566 27.5512 168.941 27.5512 157.068V17.05C27.5512 5.17655 37.1766 -4.44875 49.05 -4.44875Z" fill="#131416" stroke="#5D5F65" stroke-width="1.1025"/>
</mask>
<g mask="url(#mask0_21674_247253)">
<g filter="url(#filter0_bd_21674_247253)">
<rect width="182.402" height="182.402" rx="9.14458" transform="matrix(-0.878875 0.477052 0.878875 0.477052 187.308 32.0507)" fill="url(#paint0_linear_21674_247253)"/>
</g>
<rect opacity="0.3" width="35.5949" height="35.5949" transform="matrix(0.86946 -0.494003 0.86946 0.494003 155.993 159.51)" fill="url(#paint1_linear_21674_247253)"/>
<path d="M186.676 135.127L158.988 123.976L186.592 112.643L214.28 123.766L186.676 135.127Z" fill="#FFE27D"/>
<path d="M186.676 135.127L158.988 123.976L186.592 112.643L214.28 123.766L186.676 135.127Z" fill="url(#paint2_linear_21674_247253)" fill-opacity="0.7"/>
<mask id="mask1_21674_247253" style="mask-type:alpha" maskUnits="userSpaceOnUse" x="158" y="112" width="57" height="24">
<path d="M186.675 135.128L158.987 123.977L186.59 112.644L214.278 123.767L186.675 135.128Z" fill="#FFE27D"/>
<path d="M186.675 135.128L158.987 123.977L186.59 112.644L214.278 123.767L186.675 135.128Z" fill="url(#paint3_linear_21674_247253)" fill-opacity="0.7"/>
</mask>
<g mask="url(#mask1_21674_247253)">
<g filter="url(#filter1_f_21674_247253)">
<path d="M162.147 122.364L186.638 111.612L196.779 115.809L162.147 122.364Z" fill="#DE7226" fill-opacity="0.8"/>
</g>
</g>
<path opacity="0.9" fill-rule="evenodd" clip-rule="evenodd" d="M158.988 124.014L186.489 85.4571L186.593 112.893L158.988 124.014Z" fill="url(#paint4_radial_21674_247253)"/>
<g opacity="0.9">
<path fill-rule="evenodd" clip-rule="evenodd" d="M214.28 123.804L186.779 162.361L186.675 134.925L214.28 123.804Z" fill="url(#paint5_linear_21674_247253)"/>
<path fill-rule="evenodd" clip-rule="evenodd" d="M214.28 123.804L186.779 162.361L186.675 134.925L214.28 123.804Z" fill="url(#paint6_linear_21674_247253)" fill-opacity="0.1"/>
</g>
<path opacity="0.9" fill-rule="evenodd" clip-rule="evenodd" d="M214.28 123.804L186.489 85.4564L186.592 112.893L214.28 123.804Z" fill="url(#paint7_radial_21674_247253)"/>
<path opacity="0.9" fill-rule="evenodd" clip-rule="evenodd" d="M158.988 124.013L186.779 162.361L186.676 134.924L158.988 124.013Z" fill="url(#paint8_linear_21674_247253)"/>
<rect opacity="0.3" width="35.5949" height="35.5949" transform="matrix(0.86946 -0.494003 0.86946 0.494003 155.993 60.4299)" fill="url(#paint9_linear_21674_247253)"/>
<path d="M208.344 9.1446C205.526 6.27364 202.179 3.9975 198.494 2.44616C194.81 0.894809 190.86 0.0986321 186.87 0.103084C182.88 0.107535 178.928 0.912528 175.24 2.4721C171.553 4.03167 168.201 6.31528 165.376 9.19254C162.552 12.0698 160.31 15.4844 158.779 19.2413C157.248 22.9982 156.458 27.0239 156.454 31.0885C156.45 35.1531 157.231 39.177 158.754 42.9306C160.277 46.6841 162.511 50.0936 165.329 52.9646L186.837 31.0546L208.344 9.1446Z" fill="url(#paint10_angular_21674_247253)"/>
<path d="M208.344 9.1446C205.526 6.27364 202.179 3.9975 198.494 2.44616C194.81 0.894809 190.86 0.0986321 186.87 0.103084C182.88 0.107535 178.928 0.912528 175.24 2.4721C171.553 4.03167 168.201 6.31528 165.376 9.19254C162.552 12.0698 160.31 15.4844 158.779 19.2413C157.248 22.9982 156.458 27.0239 156.454 31.0885C156.45 35.1531 157.231 39.177 158.754 42.9306C160.277 46.6841 162.511 50.0936 165.329 52.9646L186.837 31.0546L208.344 9.1446Z" fill="url(#paint11_linear_21674_247253)"/>
<path d="M165.423 53.0607C168.242 55.9317 171.589 58.2078 175.273 59.7592C178.958 61.3105 182.908 62.1067 186.897 62.1022C190.887 62.0978 194.839 61.2928 198.527 59.7332C202.215 58.1737 205.567 55.89 208.391 53.0128C211.215 50.1355 213.457 46.721 214.988 42.964C216.519 39.2071 217.309 35.1814 217.313 31.1168C217.318 27.0522 216.536 23.0283 215.013 19.2748C213.491 15.5213 211.256 12.1117 208.438 9.24072L186.931 31.1507L165.423 53.0607Z" fill="url(#paint12_radial_21674_247253)"/>
<path d="M165.31 52.953C167.353 55.034 169.932 56.5279 172.9 57.3494C175.869 58.1709 179.168 58.3038 182.61 57.7406C186.051 57.1774 189.568 55.9292 192.96 54.0671C196.351 52.205 199.55 49.7656 202.375 46.8881C205.2 44.0106 207.594 40.7513 209.422 37.2965C211.25 33.8416 212.475 30.2588 213.028 26.7526C213.581 23.2463 213.45 19.8854 212.644 16.8615C211.838 13.8377 210.371 11.2103 208.328 9.12923L186.819 31.0411L165.31 52.953Z" fill="url(#paint13_radial_21674_247253)"/>
<path d="M165.31 52.9527C166.815 54.4856 168.861 55.4368 171.332 55.7519C173.803 56.067 176.651 55.7398 179.712 54.7891C182.774 53.8384 185.989 52.2827 189.174 50.2108C192.36 48.139 195.453 45.5916 198.278 42.7141C201.102 39.8366 203.603 36.6853 205.637 33.4402C207.67 30.1951 209.198 26.9197 210.131 23.8011C211.064 20.6824 211.385 17.7815 211.076 15.2641C210.767 12.7466 209.833 10.6619 208.328 9.12896L186.819 31.0408L165.31 52.9527Z" fill="url(#paint14_radial_21674_247253)"/>
<path d="M165.31 52.9535C166.328 53.9897 167.891 54.4491 169.912 54.3052C171.933 54.1614 174.371 53.4173 177.087 52.1153C179.804 50.8134 182.746 48.9791 185.745 46.7171C188.744 44.4552 191.741 41.81 194.565 38.9325C197.39 36.055 199.987 33.0016 202.207 29.9465C204.427 26.8915 206.228 23.8947 207.506 21.1273C208.784 18.3598 209.514 15.8759 209.656 13.8174C209.797 11.7589 209.346 10.166 208.329 9.12975L186.82 31.0416L165.31 52.9535Z" fill="url(#paint15_linear_21674_247253)"/>
<rect opacity="0.3" width="35.5949" height="35.5949" transform="matrix(0.86946 -0.494003 0.86946 0.494003 265.48 117.367)" fill="url(#paint16_linear_21674_247253)"/>
<path d="M269.749 77.5933L295.415 63.1219V92.9552L269.749 107.427V77.5933Z" fill="url(#paint17_linear_21674_247253)"/>
<path d="M269.638 107.482L295.581 92.7882L321.414 107.538L295.637 122.343L269.638 107.482Z" fill="#083552"/>
<path d="M295.415 63.1219L321.414 77.5933L295.415 92.9552V63.1219Z" fill="url(#paint18_linear_21674_247253)"/>
<path d="M321.414 77.5936L321.414 107.538L295.526 92.7329L321.414 77.5936Z" fill="url(#paint19_linear_21674_247253)"/>
<rect opacity="0.3" width="35.5949" height="35.5949" transform="matrix(0.86946 -0.494003 0.86946 0.494003 49.05 118.452)" fill="url(#paint20_linear_21674_247253)"/>
<path d="M54.4066 107.449L54.7167 79.2114L79.3959 93.4871L79.0858 121.724L54.4066 107.449Z" fill="url(#paint21_linear_21674_247253)"/>
<path d="M79.0793 121.843L79.3381 93.2685L103.901 78.8755L103.814 107.365L79.0793 121.843Z" fill="#343359"/>
<path d="M54.7167 79.2113L79.1288 64.5468L79.3959 93.487L54.7167 79.2113Z" fill="url(#paint22_linear_21674_247253)"/>
<path d="M79.2594 64.7456L104.031 79.0746L79.3954 93.487L79.2594 64.7456Z" fill="url(#paint23_linear_21674_247253)"/>
</g>
</g>
<defs>
<filter id="filter0_bd_21674_247253" x="17.4133" y="20.3115" width="339.79" height="202.324" filterUnits="userSpaceOnUse" color-interpolation-filters="sRGB">
<feFlood flood-opacity="0" result="BackgroundImageFix"/>
<feGaussianBlur in="BackgroundImageFix" stdDeviation="7.14728"/>
<feComposite in2="SourceAlpha" operator="in" result="effect1_backgroundBlur_21674_247253"/>
<feColorMatrix in="SourceAlpha" type="matrix" values="0 0 0 0 0 0 0 0 0 0 0 0 0 0 0 0 0 0 127 0" result="hardAlpha"/>
<feMorphology radius="10.6294" operator="erode" in="SourceAlpha" result="effect2_dropShadow_21674_247253"/>
<feOffset dx="2.65736" dy="23.594"/>
<feGaussianBlur stdDeviation="3.07257"/>
<feColorMatrix type="matrix" values="0 0 0 0 0 0 0 0 0 0 0 0 0 0 0 0 0 0 0.17 0"/>
<feBlend mode="normal" in2="effect1_backgroundBlur_21674_247253" result="effect2_dropShadow_21674_247253"/>
<feBlend mode="normal" in="SourceGraphic" in2="effect2_dropShadow_21674_247253" result="shape"/>
</filter>
<filter id="filter1_f_21674_247253" x="159.23" y="108.695" width="40.4652" height="16.5852" filterUnits="userSpaceOnUse" color-interpolation-filters="sRGB">
<feFlood flood-opacity="0" result="BackgroundImageFix"/>
<feBlend mode="normal" in="SourceGraphic" in2="BackgroundImageFix" result="shape"/>
<feGaussianBlur stdDeviation="1.45827" result="effect1_foregroundBlur_21674_247253"/>
</filter>
<linearGradient id="paint0_linear_21674_247253" x1="-100.716" y1="-56.6777" x2="179.624" y2="-80.409" gradientUnits="userSpaceOnUse">
<stop stop-color="#4A40D0" stop-opacity="0.46"/>
<stop offset="1" stop-color="#0F1016" stop-opacity="0.3"/>
</linearGradient>
<linearGradient id="paint1_linear_21674_247253" x1="0" y1="17.7974" x2="35.5949" y2="17.7974" gradientUnits="userSpaceOnUse">
<stop stop-color="#FFE58C"/>
<stop offset="1" stop-color="#F26B63"/>
</linearGradient>
<linearGradient id="paint2_linear_21674_247253" x1="178.66" y1="116.746" x2="194.208" y2="134.042" gradientUnits="userSpaceOnUse">
<stop offset="0.0170241" stop-color="#FFA24D"/>
<stop offset="1" stop-color="#F7D5AC"/>
</linearGradient>
<linearGradient id="paint3_linear_21674_247253" x1="178.659" y1="116.747" x2="194.207" y2="134.043" gradientUnits="userSpaceOnUse">
<stop offset="0.0170241" stop-color="#FFA24D"/>
<stop offset="1" stop-color="#FDF5EA"/>
</linearGradient>
<radialGradient id="paint4_radial_21674_247253" cx="0" cy="0" r="1" gradientUnits="userSpaceOnUse" gradientTransform="translate(185.508 113.306) rotate(-178.477) scale(89.805 103.794)">
<stop stop-color="#EE995B"/>
<stop offset="0.384641" stop-color="#FFD9C7"/>
</radialGradient>
<linearGradient id="paint5_linear_21674_247253" x1="234.041" y1="158.087" x2="220.791" y2="121.971" gradientUnits="userSpaceOnUse">
<stop offset="0.425671" stop-color="#C54A4F"/>
<stop offset="1" stop-color="#953134"/>
</linearGradient>
<linearGradient id="paint6_linear_21674_247253" x1="188.248" y1="148.4" x2="195.085" y2="114.129" gradientUnits="userSpaceOnUse">
<stop/>
<stop offset="1" stop-opacity="0"/>
</linearGradient>
<radialGradient id="paint7_radial_21674_247253" cx="0" cy="0" r="1" gradientUnits="userSpaceOnUse" gradientTransform="translate(187.68 113.297) rotate(-31.5736) scale(51.3198 72.5728)">
<stop stop-color="#F9C1A3"/>
<stop offset="0.384641" stop-color="#E6B18A"/>
</radialGradient>
<linearGradient id="paint8_linear_21674_247253" x1="163.484" y1="119.03" x2="191.191" y2="137.192" gradientUnits="userSpaceOnUse">
<stop stop-color="#EBA67C"/>
<stop offset="0.526042" stop-color="#FCCAAE"/>
<stop offset="1" stop-color="#E5846D"/>
</linearGradient>
<linearGradient id="paint9_linear_21674_247253" x1="0" y1="17.7974" x2="35.5949" y2="17.7974" gradientUnits="userSpaceOnUse">
<stop stop-color="#FFB2B8"/>
<stop offset="1" stop-color="#C74FB8"/>
</linearGradient>
<radialGradient id="paint10_angular_21674_247253" cx="0" cy="0" r="1" gradientUnits="userSpaceOnUse" gradientTransform="translate(186.837 31.0546) rotate(108.086) scale(27.9035 30.7248)">
<stop stop-color="#BF3A86"/>
<stop offset="1" stop-color="#651A45"/>
</radialGradient>
<linearGradient id="paint11_linear_21674_247253" x1="142.966" y1="-9.85181" x2="185.706" y2="32.1693" gradientUnits="userSpaceOnUse">
<stop offset="0.565549" stop-color="#AC2E80"/>
<stop offset="0.989329" stop-color="#360832"/>
</linearGradient>
<radialGradient id="paint12_radial_21674_247253" cx="0" cy="0" r="1" gradientUnits="userSpaceOnUse" gradientTransform="translate(186.931 31.1507) rotate(45.5314) scale(126.167 126.422)">
<stop offset="0.162495" stop-color="#360F24"/>
<stop offset="0.276853" stop-color="#7A1262"/>
</radialGradient>
<radialGradient id="paint13_radial_21674_247253" cx="0" cy="0" r="1" gradientUnits="userSpaceOnUse" gradientTransform="translate(186.819 31.0411) rotate(45.5314) scale(91.4537 126.433)">
<stop offset="0.114583" stop-color="#360F24"/>
<stop offset="0.276853" stop-color="#AB2E80"/>
</radialGradient>
<radialGradient id="paint14_radial_21674_247253" cx="0" cy="0" r="1" gradientUnits="userSpaceOnUse" gradientTransform="translate(186.819 31.0408) rotate(45.5314) scale(67.3671 126.433)">
<stop offset="0.114583" stop-color="#360F24"/>
<stop offset="0.237386" stop-color="#D24F90"/>
</radialGradient>
<linearGradient id="paint15_linear_21674_247253" x1="194.565" y1="38.9325" x2="178.786" y2="23.4435" gradientUnits="userSpaceOnUse">
<stop stop-color="#E3729D"/>
<stop offset="1" stop-color="#FDABCA"/>
</linearGradient>
<linearGradient id="paint16_linear_21674_247253" x1="0" y1="17.7974" x2="35.5949" y2="17.7974" gradientUnits="userSpaceOnUse">
<stop stop-color="#A3F7D6"/>
<stop offset="0.5" stop-color="#5CD1D9"/>
<stop offset="1" stop-color="#5494E3"/>
</linearGradient>
<linearGradient id="paint17_linear_21674_247253" x1="282.582" y1="63.1219" x2="282.582" y2="107.427" gradientUnits="userSpaceOnUse">
<stop stop-color="#5494E3"/>
<stop offset="0.5" stop-color="#4CB4BB"/>
<stop offset="1" stop-color="#A3F7D6"/>
</linearGradient>
<linearGradient id="paint18_linear_21674_247253" x1="295.415" y1="64.3464" x2="295.415" y2="91.2855" gradientUnits="userSpaceOnUse">
<stop stop-color="#C0F2EF"/>
<stop offset="1" stop-color="#587070"/>
</linearGradient>
<linearGradient id="paint19_linear_21674_247253" x1="321.747" y1="89.95" x2="295.525" y2="93.0552" gradientUnits="userSpaceOnUse">
<stop stop-color="#DFF6FD"/>
<stop offset="1" stop-color="#708192"/>
</linearGradient>
<linearGradient id="paint20_linear_21674_247253" x1="0" y1="17.7974" x2="35.5949" y2="17.7974" gradientUnits="userSpaceOnUse">
<stop stop-color="#8CDEFF"/>
<stop offset="1" stop-color="#8763D9"/>
</linearGradient>
<linearGradient id="paint21_linear_21674_247253" x1="21.259" y1="79.091" x2="69.5473" y2="127.287" gradientUnits="userSpaceOnUse">
<stop stop-color="#5B289F"/>
<stop offset="0.28125" stop-color="#8BC6F8"/>
<stop offset="1" stop-color="#7233C7"/>
</linearGradient>
<linearGradient id="paint22_linear_21674_247253" x1="55.7296" y1="79.7972" x2="78.0358" y2="92.6512" gradientUnits="userSpaceOnUse">
<stop stop-color="#C0DAF2"/>
<stop offset="1" stop-color="#5D5870"/>
</linearGradient>
<linearGradient id="paint23_linear_21674_247253" x1="89.6405" y1="70.3815" x2="79.6396" y2="93.633" gradientUnits="userSpaceOnUse">
<stop stop-color="#DFF6FD"/>
<stop offset="1" stop-color="#708192"/>
</linearGradient>
<clipPath id="clip0_21674_247253">
<rect width="373" height="179" fill="white"/>
</clipPath>
</defs>
</svg>
