<svg width="254" height="53" viewBox="0 0 254 53" fill="none" xmlns="http://www.w3.org/2000/svg">
<g id="hashicorp-horizontal_on-light" clip-path="url(#clip0_1743_1384)">
<g id="Group">
<path id="Vector" d="M63.0098 12.22H68.3298V23.65H80.5198V12.22H85.8798V40.2H80.5198V28.45H68.3298V40.2H63.0098V12.22Z" fill="black"/>
<path id="Vector_2" d="M89.2793 34.77C89.2793 30.57 92.2393 29.17 95.8393 28.33L101.919 26.93V26.45C101.919 24.41 100.599 23.13 98.4793 23.13C96.3593 23.13 95.1193 24.29 94.7193 26.21L90.1593 25.69C90.8393 21.85 94.0793 19.37 98.6793 19.37C103.759 19.37 107.079 22.57 107.079 27.25V35.45C107.079 35.97 107.239 36.13 107.599 36.13H108.719V40.21H105.599C103.639 40.21 102.759 39.57 102.759 37.97C102.759 37.49 102.839 36.93 103.039 36.21L102.599 36.05C101.159 39.17 99.0393 40.53 96.0393 40.53C91.9193 40.53 89.2793 38.25 89.2793 34.77ZM97.3993 36.77C100.039 36.77 101.919 34.85 101.919 31.81V30.21L97.5593 31.25C95.3593 31.77 94.4393 32.53 94.4393 34.21C94.4393 35.89 95.5993 36.77 97.3993 36.77Z" fill="black"/>
<path id="Vector_3" d="M110.59 34.69L115.47 33.73C115.99 35.89 117.71 36.97 119.99 36.97C122.27 36.97 123.55 36.05 123.55 34.49C123.55 32.93 122.03 32.61 119.15 32.09C115.51 31.53 110.8 30.85 110.8 25.81C110.8 22.01 114.04 19.37 119.32 19.37C124 19.37 127.64 21.33 128.47 25.29L123.55 26.09C123.11 24.09 121.47 23.05 119.31 23.05C116.95 23.05 115.83 24.05 115.83 25.41C115.83 26.97 117.39 27.29 120.27 27.81C123.87 28.37 128.59 29.05 128.59 34.09C128.59 38.05 125.39 40.69 119.99 40.69C115.11 40.69 111.47 38.69 110.59 34.69Z" fill="black"/>
<path id="Vector_4" d="M136.94 40.2099H131.74V11.4199H136.94V20.3799C136.94 21.4199 136.74 22.4199 136.46 23.8999L136.94 24.0599C138.18 21.0999 140.06 19.3799 143.54 19.3799C147.98 19.3799 150.34 22.1799 150.34 26.9399V40.2099H145.14V27.0999C145.14 24.7799 143.98 23.4999 141.66 23.4999C139.02 23.4999 136.94 25.4999 136.94 29.0199V40.2099Z" fill="black"/>
<path id="Vector_5" d="M161.01 35.05C161.01 35.85 161.29 36.09 161.89 36.09H164.17V40.21H159.45C157.09 40.21 155.81 38.89 155.81 36.45V23.98H152.93V19.86H161.01V35.05ZM155.09 14.42C155.09 12.66 156.53 11.22 158.25 11.22C159.97 11.22 161.41 12.66 161.41 14.42C161.41 16.18 160.01 17.58 158.25 17.58C156.49 17.58 155.09 16.18 155.09 14.42Z" fill="black"/>
<path id="Vector_6" d="M165.89 26.22C165.89 17.82 171.41 11.75 179.4 11.75C186.12 11.75 190.71 15.63 191.95 20.9L186.67 22.18C185.67 18.5 183.23 16.42 179.39 16.42C174.51 16.42 171.43 20.46 171.43 26.21C171.43 31.96 174.63 36 179.59 36C183.51 36 185.91 33.88 186.91 29.96L191.91 30.52C190.71 36.8 186.07 40.67 179.52 40.67C171.44 40.67 165.89 34.59 165.89 26.2V26.22Z" fill="black"/>
<path id="Vector_7" d="M194.08 30.01C194.08 23.81 198.44 19.38 204.47 19.38C210.5 19.38 214.86 23.82 214.86 30.01C214.86 36.2 210.5 40.68 204.47 40.68C198.44 40.68 194.08 36.2 194.08 30.01ZM209.67 30.01C209.67 26.17 207.63 23.61 204.47 23.61C201.31 23.61 199.27 26.17 199.27 30.01C199.27 33.85 201.35 36.45 204.47 36.45C207.59 36.45 209.67 33.89 209.67 30.01Z" fill="black"/>
<path id="Vector_8" d="M218.149 19.86H222.949V20.66C222.949 21.74 222.909 22.62 222.589 24.26L223.069 24.38C223.829 21.7 225.229 19.86 228.509 19.86H229.989V24.9H227.869C224.949 24.9 223.349 26.66 223.349 29.9V40.21H218.149V19.86Z" fill="black"/>
<path id="Vector_9" d="M232.43 19.86H237.55V20.78C237.55 21.7 237.47 22.42 237.19 24.06L237.67 24.18C238.91 20.94 241.23 19.38 244.23 19.38C249.19 19.38 253.11 23.46 253.11 30.01C253.11 36.56 249.19 40.68 244.23 40.68C241.23 40.68 239.03 39.12 237.75 35.84L237.31 36C237.55 37.6 237.63 38.36 237.63 39.24V48.39H232.43V19.85V19.86ZM247.94 30.01C247.94 26.05 245.78 23.61 242.74 23.61C239.7 23.61 237.54 26.05 237.54 30.01C237.54 33.97 239.7 36.45 242.74 36.45C245.78 36.45 247.94 34.01 247.94 30.01Z" fill="black"/>
</g>
<g id="Group_2">
<path id="Vector_10" d="M20.7903 0.0100098L0.0703125 11.97V11.98V40.68L7.85031 45.18V16.46L20.7903 8.99001V0.0100098Z" fill="black"/>
<path id="Vector_11" d="M29.06 0.0100098V22.88H20.79V14.34L13 18.84V48.14L20.79 52.64V29.84H29.06V38.32L36.85 33.83V4.51001L29.06 0.0100098Z" fill="black"/>
<path id="Vector_12" d="M29.0605 52.65L49.7805 40.7V40.69V11.99L42.0005 7.48999V36.2L29.0605 43.67V52.65Z" fill="black"/>
</g>
</g>
<defs>
<clipPath id="clip0_1743_1384">
<rect width="254" height="53" fill="white"/>
</clipPath>
</defs>
</svg>
