<svg width="266" height="65" viewBox="0 0 266 65" fill="none" xmlns="http://www.w3.org/2000/svg">
<path d="M71.8228 62.0231C71.006 62.0231 70.652 61.5042 70.5704 60.8487H70.4887C70.1892 61.7227 69.3996 62.2143 68.3923 62.2143C66.8676 62.2143 65.9691 61.3676 65.9691 60.0294C65.9691 58.6912 66.9493 57.8992 69.0457 57.8992H70.4887V57.1891C70.4887 56.1513 69.9169 55.605 68.7734 55.605C67.6299 55.605 67.3304 56.0147 66.922 56.6975L66.2414 56.0693C66.6225 55.3046 67.4938 54.6492 68.8006 54.6492C70.1075 54.6492 71.5777 55.5777 71.5777 57.1071V61.0945H72.3945V62.0777H71.7683L71.8228 62.0231ZM70.5159 59.9202V58.7185H69.0185C67.7388 58.7185 67.1671 59.1008 67.1671 59.8109V60.1113C67.1671 60.8214 67.7388 61.2311 68.6101 61.2311C69.4813 61.2311 70.5159 60.6576 70.5159 59.9202Z" fill="black"/>
<path d="M74.137 62.0231V54.7584H75.2532V55.9328H75.3077C75.6616 55.1134 76.2878 54.5672 77.3497 54.5672C78.4115 54.5672 79.7728 55.5777 79.7728 57.3529V62.0231H78.6565V57.5714C78.6565 56.2878 78.0848 55.605 77.0229 55.605C75.9611 55.605 75.2532 56.0693 75.2532 56.9979V62.0504H74.137V62.0231Z" fill="black"/>
<path d="M84.6463 62.0231V61.0399H86.0348V53.1744H84.6463V52.1912H88.5669V53.1744H87.1783V61.0399H88.5669V62.0231H84.6463Z" fill="black"/>
<path d="M90.7994 52.1912H94.8289C96.4353 52.1912 97.4426 53.2017 97.4426 54.7311C97.4426 56.2605 96.4897 56.7248 95.8635 56.8067V56.8887C96.5714 56.9433 97.7966 57.5441 97.7966 59.1828C97.7966 60.8214 96.7075 62.0231 95.2645 62.0231H90.7994V52.1912ZM91.9702 56.4517H94.6928C95.6185 56.4517 96.1902 55.9601 96.1902 55.0861V54.5945C96.1902 53.7206 95.6185 53.229 94.6928 53.229H91.9702V56.4517ZM91.9702 60.9853H94.8834C95.8907 60.9853 96.5169 60.4391 96.5169 59.4559V58.9643C96.5169 57.9811 95.8907 57.4349 94.8834 57.4349H91.9702V60.958V60.9853Z" fill="black"/>
<path d="M100.056 52.1912H101.635L104.44 57.4895H104.521L107.353 52.1912H108.878V62.0231H107.734V53.7479H107.652L106.836 55.3866L104.494 59.6744L102.153 55.3866L101.336 53.7479H101.254V62.0231H100.111V52.1912H100.056Z" fill="black"/>
<path d="M113.86 57.1618C113.86 53.8844 115.33 52.0273 117.808 52.0273C120.285 52.0273 120.558 52.8193 121.184 54.1849L120.231 54.7584C119.85 53.7479 119.033 53.0924 117.808 53.0924C116.583 53.0924 115.112 54.4307 115.112 56.4517V57.9265C115.112 59.9475 116.12 61.1765 117.808 61.1765C119.496 61.1765 119.904 60.4664 120.313 59.4013L121.266 60.0021C120.639 61.395 119.441 62.2416 117.835 62.2416C115.357 62.2416 113.887 60.4937 113.887 57.2164L113.86 57.1618Z" fill="black"/>
<path d="M122.491 58.3908C122.491 56.0693 123.825 54.5945 125.758 54.5945C127.691 54.5945 129.025 56.0966 129.025 58.3908C129.025 60.6849 127.691 62.187 125.758 62.187C123.825 62.187 122.491 60.6849 122.491 58.3908ZM127.827 58.9097V57.8718C127.827 56.3424 126.983 55.5777 125.758 55.5777C124.533 55.5777 123.689 56.3151 123.689 57.8718V58.9097C123.689 60.4391 124.533 61.2038 125.758 61.2038C126.983 61.2038 127.827 60.4664 127.827 58.9097Z" fill="black"/>
<path d="M130.958 62.0231V54.7584H132.074V55.9328H132.129C132.456 55.1954 132.946 54.5672 134.089 54.5672C135.233 54.5672 135.913 55.0042 136.294 56.042H136.322C136.594 55.25 137.302 54.5672 138.527 54.5672C139.752 54.5672 140.896 55.5777 140.896 57.3529V62.0231H139.779V57.5714C139.779 56.2878 139.289 55.605 138.2 55.605C137.111 55.605 136.512 56.0693 136.512 56.9979V62.0504H135.396V57.5987C135.396 56.3151 134.906 55.6324 133.844 55.6324C132.782 55.6324 132.129 56.0966 132.129 57.0252V62.0777H131.013L130.958 62.0231Z" fill="black"/>
<path d="M143.292 54.7584H144.408V55.9328H144.462C144.843 55.0042 145.579 54.5672 146.586 54.5672C148.41 54.5672 149.526 56.042 149.526 58.3634C149.526 60.6849 148.383 62.1597 146.586 62.1597C144.789 62.1597 144.898 61.6954 144.462 60.7941H144.408V64.7815H143.292V54.7038V54.7584ZM148.328 59.0189V57.7899C148.328 56.5063 147.539 55.6324 146.286 55.6324C145.034 55.6324 144.408 56.2332 144.408 57.0252V59.729C144.408 60.6849 145.252 61.2038 146.286 61.2038C147.321 61.2038 148.328 60.3298 148.328 59.0462V59.0189Z" fill="black"/>
<path d="M156.768 62.0231C155.952 62.0231 155.598 61.5042 155.516 60.8487H155.434C155.135 61.7227 154.345 62.2143 153.338 62.2143C151.813 62.2143 150.915 61.3676 150.915 60.0294C150.915 58.6912 151.895 57.8992 153.991 57.8992H155.434V57.1891C155.434 56.1513 154.863 55.605 153.719 55.605C152.576 55.605 152.276 56.0147 151.868 56.6975L151.187 56.0693C151.568 55.3046 152.44 54.6492 153.746 54.6492C155.053 54.6492 156.523 55.5777 156.523 57.1071V61.0945H157.34V62.0777H156.714L156.768 62.0231ZM155.434 59.9202V58.7185H153.937C152.657 58.7185 152.086 59.1008 152.086 59.8109V60.1113C152.086 60.8214 152.657 61.2311 153.529 61.2311C154.4 61.2311 155.434 60.6576 155.434 59.9202Z" fill="black"/>
<path d="M159.056 62.0231V54.7584H160.172V55.9328H160.226C160.58 55.1134 161.206 54.5672 162.268 54.5672C163.33 54.5672 164.691 55.5777 164.691 57.3529V62.0231H163.575V57.5714C163.575 56.2878 163.003 55.605 161.942 55.605C160.88 55.605 160.172 56.0693 160.172 56.9979V62.0504H159.056V62.0231Z" fill="black"/>
<path d="M171.471 54.7584H172.587L169.347 63.7164C169.02 64.5903 168.721 64.8361 167.659 64.8361H167.087V63.8529H168.231L168.775 62.2962L166.053 54.7584H167.169L168.911 59.7017L169.238 60.876H169.32L169.701 59.7017L171.443 54.7584H171.471Z" fill="black"/>
<path d="M66.1324 12.8634H71.7138V24.9076H84.5101V12.8634H90.146V42.3592H84.5101V29.9601H71.7138V42.3592H66.1324V12.8634Z" fill="black"/>
<path d="M93.7398 36.6513C93.7398 32.2269 96.8436 30.7521 100.628 29.8508L107.026 28.376V27.8571C107.026 25.6996 105.638 24.3613 103.405 24.3613C101.173 24.3613 99.8657 25.5903 99.4573 27.6113L94.6655 27.0651C95.3734 23.0231 98.7767 20.4013 103.623 20.4013C108.469 20.4013 112.444 23.7878 112.444 28.7038V37.334C112.444 37.8803 112.608 38.0441 112.989 38.0441H114.159V42.3319H110.892C108.823 42.3319 107.897 41.6492 107.897 39.9832C107.897 38.3172 107.979 38.8908 108.197 38.1261L107.734 37.9622C106.209 41.2395 104.004 42.687 100.846 42.687C97.6876 42.687 93.7398 40.2836 93.7398 36.624V36.6513ZM102.289 38.7542C105.066 38.7542 107.026 36.7332 107.026 33.5378V31.8445L102.452 32.937C100.138 33.4832 99.185 34.2752 99.185 36.0504C99.185 37.8256 100.41 38.7542 102.289 38.7542Z" fill="black"/>
<path d="M116.147 36.542L121.266 35.5315C121.81 37.7983 123.607 38.9454 126.003 38.9454C128.399 38.9454 129.733 37.9622 129.733 36.3235C129.733 34.6849 128.127 34.3298 125.104 33.7836C121.293 33.1828 116.338 32.4727 116.338 27.1744C116.338 21.8761 119.741 20.374 125.295 20.374C130.849 20.374 134.035 22.4496 134.906 26.6008L129.733 27.4475C129.27 25.3445 127.555 24.2521 125.268 24.2521C122.981 24.2521 121.619 25.3172 121.619 26.7374C121.619 28.1576 123.253 28.7311 126.275 29.2773C130.06 29.8782 135.015 30.5882 135.015 35.8866C135.015 41.1849 131.639 42.8508 125.976 42.8508C120.313 42.8508 117.018 40.7479 116.093 36.5147L116.147 36.542Z" fill="black"/>
<path d="M143.836 42.3866H138.364V12.0441H143.836V21.4937C143.836 22.5861 143.618 23.6513 143.319 25.208L143.836 25.3718C145.143 22.2584 147.103 20.4286 150.779 20.4286C154.454 20.4286 157.912 23.3782 157.912 28.4034V42.3866H152.439V28.5672C152.439 26.1092 151.214 24.771 148.791 24.771C146.368 24.771 143.836 26.874 143.836 30.5882V42.3866Z" fill="black"/>
<path d="M169.129 36.9244C169.129 37.771 169.429 38.0168 170.055 38.0168H172.451V42.3592H167.496C165.018 42.3592 163.684 40.9664 163.684 38.3992V25.2626H160.662V20.9202H169.156V36.9244H169.129ZM162.922 15.1849C162.922 13.3277 164.446 11.7983 166.243 11.7983C168.04 11.7983 169.565 13.3277 169.565 15.1849C169.565 17.042 168.095 18.5168 166.243 18.5168C164.392 18.5168 162.922 17.042 162.922 15.1849Z" fill="black"/>
<path d="M174.248 27.6387C174.248 18.7899 180.047 12.3992 188.433 12.3992C196.818 12.3992 200.33 16.4958 201.61 22.0399L196.056 23.3782C194.994 19.5 192.435 17.3151 188.405 17.3151C184.376 17.3151 180.047 21.5756 180.047 27.6387C180.047 33.7017 183.423 37.9622 188.623 37.9622C193.823 37.9622 195.266 35.7227 196.328 31.5987L201.583 32.1996C200.33 38.8088 195.457 42.9055 188.569 42.9055C181.68 42.9055 174.248 36.4874 174.248 27.666V27.6387Z" fill="black"/>
<path d="M203.87 31.6261C203.87 25.0987 208.444 20.4286 214.788 20.4286C221.131 20.4286 225.705 25.0987 225.705 31.6261C225.705 38.1534 221.131 42.8782 214.788 42.8782C208.444 42.8782 203.87 38.1534 203.87 31.6261ZM220.26 31.6261C220.26 27.584 218.109 24.8803 214.788 24.8803C211.466 24.8803 209.315 27.584 209.315 31.6261C209.315 35.6681 211.493 38.4265 214.788 38.4265C218.082 38.4265 220.26 35.7227 220.26 31.6261Z" fill="black"/>
<path d="M229.163 20.9202H234.2V21.7668C234.2 22.9139 234.145 23.8424 233.819 25.563L234.336 25.6996C235.126 22.8866 236.596 20.9475 240.053 20.9475H241.605V26.2731H239.373C236.296 26.2731 234.635 28.1303 234.635 31.5441V42.4139H229.163V20.9748V20.9202Z" fill="black"/>
<path d="M244.165 20.9202H249.555V21.9034C249.555 22.8866 249.474 23.6239 249.174 25.3718L249.691 25.5084C250.998 22.0945 253.421 20.4559 256.58 20.4559C261.78 20.4559 265.918 24.7437 265.918 31.6534C265.918 38.563 261.807 42.9055 256.58 42.9055C251.352 42.9055 251.107 41.2668 249.773 37.7983L249.31 37.9622C249.555 39.6555 249.637 40.4475 249.637 41.376V51.0168H244.165V20.9202ZM260.473 31.626C260.473 27.4475 258.213 24.8803 255.001 24.8803C251.788 24.8803 249.528 27.4475 249.528 31.626C249.528 35.8046 251.788 38.4265 255.001 38.4265C258.213 38.4265 260.473 35.8592 260.473 31.626Z" fill="black"/>
<path d="M21.781 0L0 12.6176V42.8782L8.16786 47.6029V17.3424L21.781 9.47689V0Z" fill="black"/>
<path d="M30.4661 0V24.1155H21.781V15.1029L13.5859 19.855V50.7437L21.781 55.4685V31.4349H30.4661V40.3929L38.6612 35.6408V4.7521L30.4661 0Z" fill="black"/>
<path d="M30.4661 55.4958L52.2471 42.8782V12.6176L44.052 7.89285V38.1534L30.4661 46.0189V55.4958Z" fill="black"/>
</svg>
