<svg width="563" height="66" viewBox="0 0 563 66" fill="none" xmlns="http://www.w3.org/2000/svg">
<g id="hcp-horizontal_on-light" clip-path="url(#clip0_1743_351)">
<g id="Group">
<path id="Vector" d="M85.9102 19.91H91.2402V31.38H103.47V19.91H108.84V47.98H103.47V36.19H91.2402V47.98H85.9102V19.91Z" fill="black"/>
<path id="Vector_2" d="M112.33 42.53C112.33 38.32 115.3 36.92 118.91 36.07L125.01 34.67V34.19C125.01 32.15 123.69 30.86 121.56 30.86C119.43 30.86 118.19 32.02 117.79 33.95L113.22 33.43C113.9 29.58 117.15 27.09 121.76 27.09C126.85 27.09 130.18 30.3 130.18 34.99V43.21C130.18 43.73 130.34 43.89 130.7 43.89H131.82V47.98H128.69C126.72 47.98 125.84 47.34 125.84 45.73C125.84 45.25 125.92 44.69 126.12 43.97L125.68 43.81C124.24 46.94 122.11 48.3 119.1 48.3C114.97 48.3 112.32 46.01 112.32 42.53H112.33ZM120.47 44.53C123.12 44.53 125 42.61 125 39.56V37.96L120.63 39C118.42 39.52 117.5 40.28 117.5 41.97C117.5 43.66 118.66 44.54 120.47 44.54V44.53Z" fill="black"/>
<path id="Vector_3" d="M133.78 42.45L138.67 41.49C139.19 43.66 140.92 44.74 143.2 44.74C145.48 44.74 146.77 43.82 146.77 42.25C146.77 40.68 145.25 40.37 142.36 39.84C138.71 39.28 133.98 38.6 133.98 33.54C133.98 29.73 137.23 27.08 142.52 27.08C147.21 27.08 150.86 29.04 151.7 33.01L146.77 33.81C146.33 31.81 144.69 30.76 142.52 30.76C140.15 30.76 139.03 31.76 139.03 33.13C139.03 34.69 140.59 35.01 143.48 35.54C147.09 36.1 151.82 36.78 151.82 41.84C151.82 45.81 148.61 48.46 143.2 48.46C138.31 48.46 134.66 46.46 133.78 42.45Z" fill="black"/>
<path id="Vector_4" d="M160.29 47.98H155.08V19.11H160.29V28.09C160.29 29.13 160.09 30.13 159.81 31.62L160.29 31.78C161.53 28.81 163.42 27.09 166.91 27.09C171.36 27.09 173.73 29.9 173.73 34.67V47.98H168.52V34.83C168.52 32.5 167.36 31.22 165.03 31.22C162.38 31.22 160.3 33.22 160.3 36.75V47.98H160.29Z" fill="black"/>
<path id="Vector_5" d="M184.51 42.81C184.51 43.61 184.79 43.85 185.39 43.85H187.68V47.98H182.95C180.58 47.98 179.3 46.66 179.3 44.21V31.7H176.41V27.57H184.51V42.81ZM178.57 22.12C178.57 20.36 180.01 18.91 181.74 18.91C183.47 18.91 184.91 20.35 184.91 22.12C184.91 23.89 183.51 25.29 181.74 25.29C179.97 25.29 178.57 23.89 178.57 22.12Z" fill="black"/>
<path id="Vector_6" d="M189.48 33.95C189.48 25.53 195.01 19.43 203.03 19.43C209.77 19.43 214.38 23.32 215.62 28.61L210.33 29.89C209.33 26.2 206.88 24.12 203.03 24.12C198.14 24.12 195.05 28.17 195.05 33.94C195.05 39.71 198.26 43.77 203.23 43.77C207.16 43.77 209.57 41.64 210.57 37.71L215.58 38.27C214.38 44.57 209.73 48.46 203.15 48.46C195.05 48.46 189.48 42.37 189.48 33.94V33.95Z" fill="black"/>
<path id="Vector_7" d="M217.83 37.76C217.83 31.55 222.2 27.09 228.26 27.09C234.32 27.09 238.69 31.54 238.69 37.76C238.69 43.98 234.32 48.47 228.26 48.47C222.2 48.47 217.83 43.98 217.83 37.76ZM233.47 37.76C233.47 33.91 231.43 31.34 228.26 31.34C225.09 31.34 223.05 33.91 223.05 37.76C223.05 41.61 225.14 44.22 228.26 44.22C231.38 44.22 233.47 41.65 233.47 37.76Z" fill="black"/>
<path id="Vector_8" d="M242.05 27.5699H246.86V28.3699C246.86 29.4499 246.82 30.3299 246.5 31.9799L246.98 32.0999C247.74 29.4099 249.15 27.5699 252.43 27.5699H253.91V32.6199H251.79C248.86 32.6199 247.26 34.3799 247.26 37.6299V47.9799H242.05V27.5699Z" fill="black"/>
<path id="Vector_9" d="M256.45 27.57H261.58V28.49C261.58 29.41 261.5 30.13 261.22 31.78L261.7 31.9C262.94 28.65 265.27 27.09 268.28 27.09C273.25 27.09 277.18 31.18 277.18 37.76C277.18 44.34 273.25 48.47 268.28 48.47C265.27 48.47 263.07 46.91 261.78 43.62L261.34 43.78C261.58 45.38 261.66 46.15 261.66 47.03V56.21H256.45V27.58V27.57ZM272.01 37.76C272.01 33.79 269.84 31.34 266.8 31.34C263.76 31.34 261.59 33.79 261.59 37.76C261.59 41.73 263.76 44.22 266.8 44.22C269.84 44.22 272.01 41.77 272.01 37.76Z" fill="black"/>
<path id="Vector_10" d="M287.41 33.95C287.41 25.53 292.94 19.43 300.96 19.43C307.7 19.43 312.31 23.32 313.55 28.61L308.26 29.89C307.26 26.2 304.81 24.12 300.96 24.12C296.07 24.12 292.98 28.17 292.98 33.94C292.98 39.71 296.19 43.77 301.16 43.77C305.09 43.77 307.5 41.64 308.5 37.71L313.51 38.27C312.31 44.57 307.66 48.46 301.08 48.46C292.98 48.46 287.41 42.37 287.41 33.94V33.95Z" fill="black"/>
<path id="Vector_11" d="M323.26 42.89C323.26 43.65 323.54 43.89 324.1 43.89H326.47V47.98H321.66C319.29 47.98 318.05 46.66 318.05 44.21V23.24H315.16V19.11H323.26V42.89Z" fill="black"/>
<path id="Vector_12" d="M328.15 37.76C328.15 31.55 332.52 27.09 338.58 27.09C344.64 27.09 349.01 31.54 349.01 37.76C349.01 43.98 344.64 48.47 338.58 48.47C332.52 48.47 328.15 43.98 328.15 37.76ZM343.79 37.76C343.79 33.91 341.74 31.34 338.58 31.34C335.42 31.34 333.37 33.91 333.37 37.76C333.37 41.61 335.46 44.22 338.58 44.22C341.7 44.22 343.79 41.65 343.79 37.76Z" fill="black"/>
<path id="Vector_13" d="M365.64 27.5699H370.85V47.9799H365.76V47.1799C365.76 46.1399 365.84 45.3799 366.08 43.8899L365.64 43.7699C364.4 46.7399 362.47 48.4599 358.98 48.4599C354.53 48.4599 352.2 45.6499 352.2 40.8799V27.5699H357.41V40.4399C357.41 43.0499 358.53 44.3299 361.02 44.3299C363.67 44.3299 365.63 42.3199 365.63 38.7599V27.5699H365.64Z" fill="black"/>
<path id="Vector_14" d="M374.3 37.8C374.3 31.22 378.23 27.09 383.2 27.09C386.21 27.09 388.45 28.65 389.7 31.9L390.18 31.78C389.9 30.14 389.82 29.41 389.82 28.49V19.11H395.03V47.98H389.94V47.02C389.94 46.14 389.98 45.38 390.26 43.77L389.82 43.61C388.54 46.9 386.21 48.46 383.2 48.46C378.23 48.46 374.3 44.37 374.3 37.79V37.8ZM389.9 37.76C389.9 33.79 387.73 31.34 384.69 31.34C381.65 31.34 379.48 33.79 379.48 37.76C379.48 41.73 381.65 44.22 384.69 44.22C387.73 44.22 389.9 41.77 389.9 37.76Z" fill="black"/>
<path id="Vector_15" d="M407.26 19.91H417.29C424.15 19.91 428.44 23.2 428.44 29.21C428.44 35.22 424.15 38.51 417.29 38.51H412.6V47.97H407.27V19.9L407.26 19.91ZM417.29 34.07C421.02 34.07 423.02 32.47 423.02 29.22C423.02 25.97 421.02 24.41 417.29 24.41H412.6V34.07H417.29Z" fill="black"/>
<path id="Vector_16" d="M437.94 42.89C437.94 43.65 438.22 43.89 438.78 43.89H441.15V47.98H436.34C433.97 47.98 432.73 46.66 432.73 44.21V23.24H429.84V19.11H437.94V42.89Z" fill="black"/>
<path id="Vector_17" d="M443.031 42.53C443.031 38.32 446.001 36.92 449.611 36.07L455.711 34.67V34.19C455.711 32.15 454.391 30.86 452.261 30.86C450.131 30.86 448.891 32.02 448.491 33.95L443.921 33.43C444.601 29.58 447.851 27.09 452.461 27.09C457.551 27.09 460.881 30.3 460.881 34.99V43.21C460.881 43.73 461.041 43.89 461.401 43.89H462.521V47.98H459.391C457.421 47.98 456.541 47.34 456.541 45.73C456.541 45.25 456.621 44.69 456.821 43.97L456.381 43.81C454.941 46.94 452.811 48.3 449.801 48.3C445.671 48.3 443.021 46.01 443.021 42.53H443.031ZM451.171 44.53C453.821 44.53 455.701 42.61 455.701 39.56V37.96L451.331 39C449.121 39.52 448.201 40.28 448.201 41.97C448.201 43.66 449.361 44.54 451.171 44.54V44.53Z" fill="black"/>
<path id="Vector_18" d="M467.09 42.81V31.7H463.48V27.57H467.09V22.4H472.3V27.57H477.27V31.7H472.3V42.17C472.3 43.41 472.74 43.85 473.74 43.85H477.27V47.98H472.74C468.77 47.98 467.09 46.38 467.09 42.81Z" fill="black"/>
<path id="Vector_19" d="M481.81 31.7H478.2V27.57H481.81V24.44C481.81 20.75 483.57 19.11 487.66 19.11H492.23V23.24H488.54C487.42 23.24 486.94 23.76 486.94 25.04V27.57H491.67V31.7H487.02V47.98H481.81V31.7Z" fill="black"/>
<path id="Vector_20" d="M492.92 37.76C492.92 31.55 497.29 27.09 503.35 27.09C509.41 27.09 513.78 31.54 513.78 37.76C513.78 43.98 509.41 48.47 503.35 48.47C497.29 48.47 492.92 43.98 492.92 37.76ZM508.56 37.76C508.56 33.91 506.52 31.34 503.35 31.34C500.18 31.34 498.14 33.91 498.14 37.76C498.14 41.61 500.23 44.22 503.35 44.22C506.47 44.22 508.56 41.65 508.56 37.76Z" fill="black"/>
<path id="Vector_21" d="M517.141 27.5699H521.951V28.3699C521.951 29.4499 521.911 30.3299 521.591 31.9799L522.071 32.0999C522.831 29.4099 524.241 27.5699 527.521 27.5699H529.001V32.6199H526.881C523.951 32.6199 522.351 34.3799 522.351 37.6299V47.9799H517.141V27.5699Z" fill="black"/>
<path id="Vector_22" d="M531.53 27.57H536.62V28.37C536.62 29.45 536.54 30.17 536.26 31.62L536.74 31.78C537.78 28.61 539.79 27.09 543 27.09C546.21 27.09 548.37 28.57 549.14 31.7H549.62C550.66 28.61 552.71 27.09 555.72 27.09C559.97 27.09 562.18 29.82 562.18 34.51V47.98H557.29V34.71C557.29 32.46 556.17 31.22 554.12 31.22C551.47 31.22 549.63 33.43 549.63 36.67V47.98H544.42V34.71C544.42 32.46 543.3 31.22 541.29 31.22C538.64 31.22 536.76 33.43 536.76 36.67V47.98H531.55V27.57H531.53Z" fill="black"/>
</g>
<g id="Group_2">
<path id="Vector_23" d="M57.9598 65.99H9.5798C8.0198 65.99 6.8798 65.99 5.9698 65.92C5.0098 65.84 4.3498 65.68 3.7898 65.4C2.7498 64.87 1.9198 64.04 1.3898 63C1.0998 62.43 0.939805 61.78 0.869805 60.82C0.799805 59.9 0.799805 58.77 0.799805 57.21V8.81998C0.799805 7.25998 0.799805 6.12998 0.869805 5.20998C0.949805 4.24998 1.1098 3.58998 1.3898 3.02998C1.9198 1.98998 2.7498 1.15998 3.7898 0.629978C4.3598 0.339978 5.0098 0.179978 5.9698 0.109978C6.8898 0.039978 8.0198 0.039978 9.5798 0.039978H57.9598C59.5198 0.039978 60.6498 0.039978 61.5698 0.109978C62.5298 0.189978 63.1898 0.349978 63.7498 0.629978C64.7898 1.15998 65.6198 1.98998 66.1498 3.02998C66.4398 3.59998 66.5998 4.24998 66.6698 5.20998C66.7398 6.12998 66.7398 7.25998 66.7398 8.81998V57.2C66.7398 58.76 66.7398 59.9 66.6698 60.81C66.5898 61.78 66.4298 62.43 66.1498 62.99C65.6198 64.03 64.7898 64.86 63.7498 65.39C63.1798 65.68 62.5298 65.84 61.5698 65.91C60.6498 65.98 59.5198 65.98 57.9598 65.98V65.99ZM9.5798 2.76998C8.0798 2.76998 6.99981 2.76998 6.18981 2.83998C5.62981 2.88998 5.24981 2.95998 5.02981 3.06998C4.50981 3.33998 4.0898 3.74998 3.8298 4.26998C3.7198 4.48998 3.6398 4.86998 3.5998 5.42998C3.5298 6.23998 3.5298 7.31998 3.5298 8.81998V57.2C3.5298 58.64 3.5298 59.78 3.5998 60.59C3.6498 61.15 3.7198 61.53 3.8298 61.75C4.0998 62.27 4.50981 62.69 5.02981 62.95C5.24981 63.06 5.62981 63.14 6.18981 63.18C6.98981 63.25 8.0798 63.25 9.5798 63.25H57.9598C59.4598 63.25 60.5398 63.25 61.3498 63.18C61.9098 63.13 62.2898 63.06 62.5098 62.95C63.0298 62.68 63.4498 62.27 63.7098 61.75C63.8198 61.53 63.8998 61.15 63.9398 60.59C64.0098 59.79 64.0098 58.7 64.0098 57.2V8.81998C64.0098 7.31998 64.0098 6.23998 63.9398 5.42998C63.8898 4.86998 63.8198 4.48998 63.7098 4.26998C63.4398 3.74998 63.0298 3.32998 62.5098 3.06998C62.2898 2.95998 61.9098 2.87998 61.3498 2.83998C60.5398 2.76998 59.4098 2.76998 57.9598 2.76998H9.5798Z" fill="black"/>
<g id="Group_3">
<path id="Vector_24" d="M30.9596 14.28L16.6396 22.54V22.55V42.38L22.0196 45.49V25.65L30.9596 20.49V14.28Z" fill="black"/>
<path id="Vector_25" d="M36.6701 14.28V30.08H30.9601V24.18L25.5801 27.29V47.53L30.9601 50.65V34.89H36.6701V40.75L42.0501 37.64V17.39L36.6701 14.28Z" fill="black"/>
<path id="Vector_26" d="M36.6699 50.65L50.9899 42.3899V42.38V22.5499L45.6099 19.45V39.29L36.6699 44.45V50.65Z" fill="black"/>
</g>
</g>
</g>
<defs>
<clipPath id="clip0_1743_351">
<rect width="563" height="66" fill="white"/>
</clipPath>
</defs>
</svg>
