<svg width="564" height="66" viewBox="0 0 564 66" fill="none" xmlns="http://www.w3.org/2000/svg">
<g id="hcp-horizontal_on-dark" clip-path="url(#clip0_1743_381)">
<g id="Logos">
<g id="Group">
<g id="Group_2">
<path id="Vector" d="M87.5303 20.03H92.6503V31.55H105.13V20.03H110.25V48.03H105.13V36.19H92.6503V48.03H87.5303V20.03Z" fill="white"/>
<path id="Vector_2" d="M113.771 42.58C113.771 38.38 116.771 37.02 120.331 36.18L126.491 34.74V34.3C126.491 32.18 125.091 30.86 122.931 30.86C120.771 30.86 119.491 32.06 119.051 33.98L114.651 33.46C115.331 29.66 118.531 27.22 123.131 27.22C128.171 27.22 131.451 30.38 131.451 35.02V43.38C131.451 43.9 131.611 44.1 131.971 44.1H133.091V48.02H130.091C128.131 48.02 127.291 47.42 127.291 45.78C127.291 45.3 127.371 44.7 127.571 43.98L127.131 43.86C125.691 46.94 123.571 48.34 120.491 48.34C116.451 48.34 113.771 46.1 113.771 42.58ZM121.811 44.7C124.571 44.7 126.491 42.7 126.491 39.54V37.98L121.971 39.06C119.731 39.58 118.771 40.34 118.771 42.1C118.771 43.7 119.971 44.7 121.811 44.7Z" fill="white"/>
<path id="Vector_3" d="M135.13 42.5L139.81 41.54C140.33 43.78 142.13 44.9 144.45 44.9C146.77 44.9 148.13 43.9 148.13 42.34C148.13 40.7 146.57 40.38 143.61 39.82C140.05 39.26 135.33 38.62 135.33 33.62C135.33 29.82 138.57 27.22 143.77 27.22C148.41 27.22 152.01 29.18 152.85 33.1L148.13 33.86C147.65 31.86 145.97 30.78 143.77 30.78C141.37 30.78 140.17 31.82 140.17 33.18C140.17 34.82 141.77 35.18 144.69 35.7C148.29 36.26 152.97 36.94 152.97 41.94C152.97 45.86 149.77 48.46 144.45 48.46C139.57 48.46 136.01 46.5 135.13 42.5Z" fill="white"/>
<path id="Vector_4" d="M161.29 48.02H156.29V19.23H161.29V28.27C161.29 29.31 161.09 30.31 160.81 31.79L161.29 31.91C162.53 28.95 164.45 27.23 167.93 27.23C172.37 27.23 174.73 30.03 174.73 34.79V48.03H169.73V34.95C169.73 32.55 168.53 31.19 166.13 31.19C163.45 31.19 161.29 33.23 161.29 36.91V48.03V48.02Z" fill="white"/>
<path id="Vector_5" d="M185.41 43.02C185.41 43.82 185.69 44.02 186.29 44.02H188.61V48.02H184.01C181.65 48.02 180.41 46.74 180.41 44.34V31.66H177.49V27.66H185.41V43.02ZM179.69 22.18C179.69 20.5 181.09 19.1 182.73 19.1C184.45 19.1 185.81 20.5 185.81 22.18C185.81 23.86 184.45 25.3 182.73 25.3C181.01 25.3 179.69 23.94 179.69 22.18Z" fill="white"/>
<path id="Vector_6" d="M190.49 34.02C190.49 25.62 195.97 19.54 203.97 19.54C210.61 19.54 215.21 23.42 216.49 28.74L211.41 29.94C210.37 26.18 207.89 24.02 203.97 24.02C198.97 24.02 195.81 28.18 195.81 34.02C195.81 39.86 199.09 44.02 204.13 44.02C208.13 44.02 210.57 41.82 211.61 37.82L216.45 38.38C215.21 44.62 210.57 48.5 204.05 48.5C196.05 48.5 190.49 42.42 190.49 34.02Z" fill="white"/>
<path id="Vector_7" d="M218.73 37.86C218.73 31.66 223.01 27.22 229.05 27.22C235.09 27.22 239.41 31.66 239.41 37.86C239.41 44.06 235.05 48.46 229.05 48.46C223.05 48.46 218.73 44.06 218.73 37.86ZM234.41 37.86C234.41 33.94 232.29 31.3 229.05 31.3C225.81 31.3 223.69 33.94 223.69 37.86C223.69 41.78 225.85 44.42 229.05 44.42C232.25 44.42 234.41 41.78 234.41 37.86Z" fill="white"/>
<path id="Vector_8" d="M242.811 27.67H247.451V28.51C247.451 29.63 247.411 30.51 247.091 32.11L247.571 32.23C248.331 29.55 249.731 27.67 253.011 27.67H254.491V32.55H252.451C249.451 32.55 247.811 34.39 247.811 37.75V48.03H242.811V27.67Z" fill="white"/>
<path id="Vector_9" d="M257.05 27.67H261.97V28.67C261.97 29.59 261.89 30.31 261.61 31.95L262.09 32.07C263.33 28.79 265.69 27.23 268.69 27.23C273.69 27.23 277.61 31.31 277.61 37.83C277.61 44.35 273.69 48.47 268.69 48.47C265.69 48.47 263.45 46.91 262.17 43.63L261.73 43.79C261.97 45.39 262.05 46.15 262.05 47.03V56.23H257.05V27.67ZM272.65 37.87C272.65 33.79 270.41 31.31 267.33 31.31C264.25 31.31 262.01 33.79 262.01 37.87C262.01 41.95 264.21 44.43 267.33 44.43C270.45 44.43 272.65 41.91 272.65 37.87Z" fill="white"/>
<path id="Vector_10" d="M287.891 34.02C287.891 25.62 293.371 19.54 301.371 19.54C308.011 19.54 312.611 23.42 313.891 28.74L308.811 29.94C307.771 26.18 305.291 24.02 301.371 24.02C296.371 24.02 293.211 28.18 293.211 34.02C293.211 39.86 296.491 44.02 301.531 44.02C305.531 44.02 307.971 41.82 309.011 37.82L313.851 38.38C312.611 44.62 307.971 48.5 301.451 48.5C293.451 48.5 287.891 42.42 287.891 34.02Z" fill="white"/>
<path id="Vector_11" d="M323.4 43.1C323.4 43.86 323.68 44.1 324.24 44.1H326.68V48.02H322C319.64 48.02 318.4 46.74 318.4 44.34V23.18H315.44V19.22H323.4V43.1Z" fill="white"/>
<path id="Vector_12" d="M328.37 37.86C328.37 31.66 332.65 27.22 338.69 27.22C344.73 27.22 349.05 31.66 349.05 37.86C349.05 44.06 344.69 48.46 338.69 48.46C332.69 48.46 328.37 44.06 328.37 37.86ZM344.05 37.86C344.05 33.94 341.93 31.3 338.69 31.3C335.45 31.3 333.33 33.94 333.33 37.86C333.33 41.78 335.49 44.42 338.69 44.42C341.89 44.42 344.05 41.78 344.05 37.86Z" fill="white"/>
<path id="Vector_13" d="M365.72 27.67H370.72V48.03H365.84V47.19C365.84 46.15 365.92 45.39 366.16 43.95L365.72 43.79C364.48 46.79 362.56 48.47 359.08 48.47C354.64 48.47 352.28 45.71 352.28 40.95V27.67H357.28V40.51C357.28 43.19 358.44 44.55 361 44.55C363.72 44.55 365.72 42.47 365.72 38.87V27.67Z" fill="white"/>
<path id="Vector_14" d="M374.21 37.86C374.21 31.34 378.13 27.22 383.13 27.22C386.17 27.22 388.41 28.78 389.65 32.06L390.13 31.94C389.85 30.3 389.77 29.58 389.77 28.66V19.22H394.77V48.01H389.89V47.01C389.89 46.13 389.93 45.37 390.21 43.77L389.77 43.61C388.49 46.89 386.17 48.45 383.13 48.45C378.13 48.45 374.21 44.41 374.21 37.85V37.86ZM389.85 37.86C389.85 33.78 387.61 31.3 384.53 31.3C381.45 31.3 379.17 33.78 379.17 37.86C379.17 41.94 381.41 44.42 384.53 44.42C387.65 44.42 389.85 41.9 389.85 37.86Z" fill="white"/>
<path id="Vector_15" d="M407.08 20.03H416.96C423.76 20.03 428 23.31 428 29.23C428 35.15 423.76 38.47 416.96 38.47H412.2V48.03H407.08V20.03ZM416.96 34.19C420.8 34.19 422.8 32.55 422.8 29.23C422.8 25.91 420.8 24.35 416.96 24.35H412.2V34.19H416.96Z" fill="white"/>
<path id="Vector_16" d="M437.36 43.1C437.36 43.86 437.64 44.1 438.2 44.1H440.64V48.02H435.96C433.6 48.02 432.36 46.74 432.36 44.34V23.18H429.4V19.22H437.36V43.1Z" fill="white"/>
<path id="Vector_17" d="M442.48 42.58C442.48 38.38 445.48 37.02 449.04 36.18L455.2 34.74V34.3C455.2 32.18 453.8 30.86 451.64 30.86C449.48 30.86 448.2 32.06 447.76 33.98L443.36 33.46C444.04 29.66 447.24 27.22 451.84 27.22C456.88 27.22 460.16 30.38 460.16 35.02V43.38C460.16 43.9 460.32 44.1 460.68 44.1H461.8V48.02H458.8C456.84 48.02 456 47.42 456 45.78C456 45.3 456.08 44.7 456.28 43.98L455.84 43.86C454.4 46.94 452.28 48.34 449.2 48.34C445.16 48.34 442.48 46.1 442.48 42.58ZM450.52 44.7C453.28 44.7 455.2 42.7 455.2 39.54V37.98L450.68 39.06C448.44 39.58 447.48 40.34 447.48 42.1C447.48 43.7 448.68 44.7 450.52 44.7Z" fill="white"/>
<path id="Vector_18" d="M466.44 42.9V31.66H462.8V27.66H466.44V22.5H471.44V27.66H476.48V31.66H471.44V42.3C471.44 43.58 471.92 44.06 472.96 44.06H476.48V48.02H472.04C468.12 48.02 466.44 46.46 466.44 42.9Z" fill="white"/>
<path id="Vector_19" d="M481.08 31.66H477.4V27.66H481.08V24.5C481.08 20.82 482.8 19.22 486.8 19.22H491.32V23.18H487.68C486.48 23.18 486 23.74 486 25.06V27.66H490.76V31.66H486.08V48.02H481.08V31.66Z" fill="white"/>
<path id="Vector_20" d="M492.04 37.86C492.04 31.66 496.32 27.22 502.36 27.22C508.4 27.22 512.72 31.66 512.72 37.86C512.72 44.06 508.36 48.46 502.36 48.46C496.36 48.46 492.04 44.06 492.04 37.86ZM507.72 37.86C507.72 33.94 505.6 31.3 502.36 31.3C499.12 31.3 497 33.94 497 37.86C497 41.78 499.16 44.42 502.36 44.42C505.56 44.42 507.72 41.78 507.72 37.86Z" fill="white"/>
<path id="Vector_21" d="M516.12 27.67H520.76V28.51C520.76 29.63 520.72 30.51 520.4 32.11L520.88 32.23C521.64 29.55 523.04 27.67 526.32 27.67H527.8V32.55H525.76C522.76 32.55 521.12 34.39 521.12 37.75V48.03H516.12V27.67Z" fill="white"/>
<path id="Vector_22" d="M530.36 27.67H535.24V28.55C535.24 29.63 535.16 30.35 534.88 31.79L535.36 31.91C536.4 28.75 538.44 27.23 541.64 27.23C544.84 27.23 547 28.71 547.76 31.83H548.2C549.28 28.75 551.32 27.23 554.36 27.23C558.56 27.23 560.8 29.95 560.8 34.63V48.03H556.08V34.79C556.08 32.47 554.92 31.19 552.84 31.19C550.12 31.19 548.2 33.47 548.2 36.83V48.03H543.2V34.79C543.2 32.47 542.08 31.19 540 31.19C537.32 31.19 535.36 33.47 535.36 36.83V48.03H530.36V27.67Z" fill="white"/>
</g>
<g id="Group_3">
<path id="Vector_23" d="M57.9598 65.99H9.5798C8.0198 65.99 6.8798 65.99 5.9698 65.92C5.0098 65.84 4.3498 65.68 3.7898 65.4C2.7498 64.87 1.9198 64.04 1.3898 63C1.0998 62.43 0.939805 61.78 0.869805 60.82C0.799805 59.9 0.799805 58.77 0.799805 57.21V8.81998C0.799805 7.25998 0.799805 6.12998 0.869805 5.20998C0.949805 4.24998 1.1098 3.58998 1.3898 3.02998C1.9198 1.98998 2.7498 1.15998 3.7898 0.629978C4.3598 0.339978 5.0098 0.179978 5.9698 0.109978C6.8898 0.039978 8.0198 0.039978 9.5798 0.039978H57.9598C59.5198 0.039978 60.6498 0.039978 61.5698 0.109978C62.5298 0.189978 63.1898 0.349978 63.7498 0.629978C64.7898 1.15998 65.6198 1.98998 66.1498 3.02998C66.4398 3.59998 66.5998 4.24998 66.6698 5.20998C66.7398 6.12998 66.7398 7.25998 66.7398 8.81998V57.2C66.7398 58.76 66.7398 59.9 66.6698 60.81C66.5898 61.78 66.4298 62.43 66.1498 62.99C65.6198 64.03 64.7898 64.86 63.7498 65.39C63.1798 65.68 62.5298 65.84 61.5698 65.91C60.6498 65.98 59.5198 65.98 57.9598 65.98V65.99ZM9.5798 2.76998C8.0798 2.76998 6.99981 2.76998 6.18981 2.83998C5.62981 2.88998 5.24981 2.95998 5.02981 3.06998C4.50981 3.33998 4.0898 3.74998 3.8298 4.26998C3.7198 4.48998 3.6398 4.86998 3.5998 5.42998C3.5298 6.23998 3.5298 7.31998 3.5298 8.81998V57.2C3.5298 58.64 3.5298 59.78 3.5998 60.59C3.6498 61.15 3.7198 61.53 3.8298 61.75C4.0998 62.27 4.50981 62.69 5.02981 62.95C5.24981 63.06 5.62981 63.14 6.18981 63.18C6.98981 63.25 8.0798 63.25 9.5798 63.25H57.9598C59.4598 63.25 60.5398 63.25 61.3498 63.18C61.9098 63.13 62.2898 63.06 62.5098 62.95C63.0298 62.68 63.4498 62.27 63.7098 61.75C63.8198 61.53 63.8998 61.15 63.9398 60.59C64.0098 59.79 64.0098 58.7 64.0098 57.2V8.81998C64.0098 7.31998 64.0098 6.23998 63.9398 5.42998C63.8898 4.86998 63.8198 4.48998 63.7098 4.26998C63.4398 3.74998 63.0298 3.32998 62.5098 3.06998C62.2898 2.95998 61.9098 2.87998 61.3498 2.83998C60.5398 2.76998 59.4098 2.76998 57.9598 2.76998H9.5798Z" fill="white"/>
<g id="Group_4">
<path id="Vector_24" d="M30.9596 14.28L16.6396 22.54V22.55V42.38L22.0196 45.49V25.65L30.9596 20.49V14.28Z" fill="white"/>
<path id="Vector_25" d="M36.6701 14.28V30.08H30.9601V24.18L25.5801 27.29V47.53L30.9601 50.65V34.89H36.6701V40.75L42.0501 37.64V17.39L36.6701 14.28Z" fill="white"/>
<path id="Vector_26" d="M36.6699 50.65L50.9899 42.3899V42.38V22.5499L45.6099 19.45V39.29L36.6699 44.45V50.65Z" fill="white"/>
</g>
</g>
</g>
</g>
<g id="Layer 5">
<path id="Vector_27" d="M563.08 34.44H560.8V36.72H563.08V34.44Z" fill="#FFCF25"/>
</g>
</g>
<defs>
<clipPath id="clip0_1743_381">
<rect width="564" height="66" fill="white"/>
</clipPath>
</defs>
</svg>
