<svg width="456" height="589" viewBox="0 0 456 589" fill="none" xmlns="http://www.w3.org/2000/svg"><g opacity=".75" fill="#62D4DC"><g clip-path="url(#prefix__clip0_3656_31973)"><path d="M108.868 99l-76-98h-2.402l76.001 98-75.946 97.93-.055.07h2.402l75.946-97.93.054-.07zm-12.666.001l-76-98h-2.403l76.004 98.003c-.163.203-.366.465-.627.802L17.853 196.93l-.054.07H20.2l75.7-97.612.3-.387zm-27.736-98l76 98-75.945 97.929-.055.07h2.402l75.945-97.93.055-.07-76-98h-2.402zm65.735 98l-76-98h-2.402L131.8 99 55.854 196.93l-.054.07H58.2l75.946-97.93.054-.07zm-50.666 0l-76-98H5.132l76 98L5.188 196.93l-.055.07h2.401L83.48 99.07l.055-.07zm38.001 0L45.535 1h-2.402l76.001 98-75.946 97.929-.055.07h2.401l75.947-97.93.055-.07zM146.813 50.071l.055-.07-38-49h-2.402l38 49-12.46 16.067 1.801.775 13.006-16.772zm-65.68-49.07l38.395 49.508 1.801-.774L83.535 1h-2.402zm46.34 57.675l6.674-8.605.054-.07-38-49h-2.402L131.8 50l-6.128 7.9 1.801.775zm44.674-8.605l.054-.07-38-49H131.8l38 49-25.128 32.4 1.801.775 25.674-33.105zm-12.667 0l.054-.07-37.999-49h-2.402l38 49-18.794 24.234 1.801.774 19.34-24.938zm-15.014-49.07l38 49-31.461 40.567 1.801.775 32.007-41.272.055-.07-38-49h-2.402z"/></g><g clip-path="url(#prefix__clip1_3656_31973)"><path d="M106.578 393.001h2.174L228 239.241v-2.812L106.633 392.93l-.055.071zm37.996 0h2.181L228 288.241v-2.812L144.629 392.93l-.055.071zm-50.666 0h2.18L228 222.909v-2.812L93.963 392.93l-.055.071zm-12.663 0h2.173L228 206.572v-2.807L81.3 392.93l-.055.071zm50.666 0h2.174L228 271.909v-2.812L131.966 392.93l-.055.071zm-12.67 0h2.181L228 255.572v-2.807L119.296 392.93l-.055.071zM70.815 246.001l-37.997-49H30.52l38.003 49L0 334.355v2.954l70.76-91.238.055-.07zm-12.67 0l-37.997-49h-2.293l37.997 49L0 318.024v2.953l58.09-74.906.055-.07zm25.333 0l-37.997-49H43.19l37.997 49L0 350.687v2.954l83.423-107.57.055-.07zm12.67 0l-37.997-49h-2.299l38.003 49L0 367.024v2.953l96.093-123.906.055-.07zm-50.667 0l-37.996-49h-2.3l38.004 49-43.19 55.686v2.954l45.428-58.57.054-.07zm63.331 0l-37.997-49h-2.293l37.997 49L-.001 383.355v2.954l108.758-140.238.055-.07z"/></g><g clip-path="url(#prefix__clip2_3656_31973)"><path d="M43.275 393.001L0 448.8v2.738l45.396-58.537h-2.121zm-25.334 0L0 416.131v2.739l20.062-25.869h-2.12zm12.664 0L0 432.468v2.733l32.732-42.2h-2.127zm-25.334 0L0 399.8v2.738l7.399-9.537H5.271zm52.795 0h-2.128L0 465.131v2.739l58.01-74.798.056-.071zm12.663 0h-2.121L0 481.468v2.733l70.674-91.129.055-.071zM74.8 417.501l63.633 82.054.095.122 1.801-.775-63.128-81.401 19-24.5H93.8l-19 24.5zm25.332.001l50.968 65.719.094.122 1.801-.774-50.461-65.067 19-24.501h-2.401l-19.001 24.501zm-37.946-.167l-.055.071L132.1 507.72l.094.122 1.803-.772-69.463-89.663 18.983-24.406h-2.403l-18.927 24.334zm50.613.166l44.634 57.554.095.122 1.801-.775-44.128-56.901 19-24.5h-2.402l-19 24.5zm-25.333 0l57.3 73.887.095.122 1.801-.774-56.795-73.235 19.001-24.5h-2.402l-19 24.5zm57.001-24.5l-19.001 24.5 38.3 49.387.095.122 1.801-.774-37.795-48.735 19.001-24.5h-2.401zM131.911 589.001h2.174L228 467.909v-2.812L131.966 588.93l-.055.071zm-12.67 0h2.181L228 451.572v-2.807L119.296 588.93l-.055.071zm25.333 0h2.181L228 484.241v-2.812L144.629 588.93l-.055.071zm-37.996 0h2.174L228 435.241v-2.812L106.632 588.93l-.054.071zm-25.333 0h2.173L228 402.572v-2.807L81.3 588.93l-.055.071zm12.663 0h2.18L228 418.909v-2.812L93.962 588.93l-.054.071z"/></g><g clip-path="url(#prefix__clip3_3656_31973)"><path d="M374.873 196h-2.401l-75.705-97.71-.301-.387L372.461 0h2.401l-75.994 97.904L374.873 196zM246.099 98.291l-.3-.387L321.794 0h2.402l-75.995 97.905L324.206 196h-2.4l-75.707-97.709zM311.535 0l-76.001 98 75.945 97.929.055.071h-2.401l-75.946-97.93-.055-.07 76.001-98h2.402zm-52.769 98.29l-.301-.387L334.46 0h2.402l-75.995 97.904L336.872 196h-2.4l-75.706-97.71zM362.206 196h-2.401L284.1 98.291l-.301-.388L359.794 0h2.402l-75.994 97.904L362.206 196zM347.127 0h2.402l-75.995 97.904L349.539 196h-2.4l-75.707-97.71-.3-.387L347.127 0z"/><path d="M397.8 48.999L435.799 0h2.402l-37.999 48.999L456 120.952v3.097l-58.146-74.98-.054-.07zm-38.002 0L397.799 0h2.402L362.2 48.999 456 169.952v3.097l-96.147-123.98-.055-.07zm25.334 0l38-48.999h2.402l-38 48.999L456 137.285v3.097l-70.813-91.313-.055-.07zm-12.667 0L410.466 0h2.402l-38.001 48.999L456 153.618v3.098L372.52 49.069l-.055-.07zm-25.333.097L385.144 0h2.401l-38.011 49.095L456 186.291v3.095L347.187 49.166l-.055-.07zM410.466 49l38-48.999h2.401l-37.999 48.999L456 104.618v3.097l-45.479-58.646-.055-.07z"/></g><g clip-path="url(#prefix__clip4_3656_31973)"><path d="M309.127 392.001h2.401l75.705-97.71.301-.387-75.995-97.903h-2.401l75.994 97.904-76.005 98.096zm128.774-97.709l.3-.387-75.995-97.904h-2.402l75.995 97.905-76.005 98.095h2.4l75.707-97.709zm-65.436-98.291l76.001 98-75.945 97.929-.055.071h2.401l75.946-97.93.054-.07-76-98h-2.402zm52.769 98.29l.3-.387-75.994-97.903h-2.402l75.995 97.904-76.005 98.096h2.4l75.706-97.71zm-103.44 97.71h2.4l75.706-97.709.301-.388-75.995-97.903h-2.402l75.994 97.904-76.004 98.096zm15.079-196h-2.402l75.995 97.904-76.005 98.096h2.4l75.707-97.71.3-.387-75.995-97.903z"/><path d="M286.2 245l-37.999-48.999h-2.402L283.798 245 228 316.952v3.098l58.145-74.98.055-.07zm38.002 0l-38.001-48.999h-2.402l38 48.999L228 365.953v3.097l96.147-123.98.055-.07zm-25.334 0l-38-48.999h-2.402l38 48.999L228 333.286v3.097l70.813-91.313.055-.07zm12.666 0l-38-48.999h-2.402L309.133 245 228 349.619v3.098l83.48-107.647.054-.07zm25.333.097l-38.011-49.096h-2.401l38.01 49.095L228 382.292v3.095l108.813-140.219.054-.071zM273.533 245l-37.999-48.999h-2.402L271.131 245 228 300.619v3.097l45.479-58.646.054-.07z"/></g></g><defs><clipPath id="prefix__clip0_3656_31973"><path fill="#fff" transform="rotate(-180 114 98.5)" d="M0 0h228v196H0z"/></clipPath><clipPath id="prefix__clip1_3656_31973"><path fill="#fff" transform="rotate(-180 114 196.5)" d="M0 0h228v196H0z"/></clipPath><clipPath id="prefix__clip2_3656_31973"><path fill="#fff" transform="translate(0 393.001)" d="M0 0h228v196H0z"/></clipPath><clipPath id="prefix__clip3_3656_31973"><path fill="#fff" transform="rotate(-180 228 98)" d="M0 0h228v196H0z"/></clipPath><clipPath id="prefix__clip4_3656_31973"><path fill="#fff" transform="rotate(-180 228 196)" d="M0 0h228v196H0z"/></clipPath></defs></svg>