<svg width="418" height="503" viewBox="0 0 418 503" fill="none" xmlns="http://www.w3.org/2000/svg"><mask id="prefix__a" style="mask-type:alpha" maskUnits="userSpaceOnUse" x="0" y="0" width="418" height="503"><path d="M0 0h418v497a6 6 0 01-6 6H6a6 6 0 01-6-6V0z" fill="#F2F2F3"/></mask><g mask="url(#prefix__a)"><g clip-path="url(#prefix__clip0_3640_30726)"><path d="M43.868 99l-76 99h-2.402l76.001-99L-34.479.071-34.534 0h2.402l75.946 98.929.054.071zm-12.666 0l-76 99h-2.403l76.004-99.004c-.163-.205-.366-.469-.628-.81L-47.144.072-47.2 0h2.402L30.9 98.608l.3.391zM3.466 198l76-99L3.521.071 3.467 0h2.401l75.945 98.929.055.071-76 99H3.466zm65.735-99l-76 99h-2.402l76-99L-9.144.071-9.2 0H-6.8l75.946 98.929.054.071zm-50.666 0l-76 99h-2.402l76-99L-59.812.071-59.867 0h2.401L18.48 98.929l.055.071zm38 0l-76 99h-2.402l76.001-99L-21.812.071-21.867 0h2.402L56.48 98.929l.055.071z" fill="#000"/><path d="M81.814 148.429l.054.071-38 49.5h-2.402l38-49.5-12.46-16.232 1.8-.782 13.008 16.943zM16.133 198l38.395-50.014 1.801.782L18.535 198h-2.402zm46.34-58.264l6.674 8.693.054.071-38 49.5H28.8L66.8 148.5l-6.128-7.982 1.8-.782zm44.674 8.693l.054.071-38 49.5H66.8l38-49.5-25.127-32.732 1.8-.782 25.674 33.443zm-12.667 0l.054.071-38 49.5h-2.4l37.999-49.5-18.794-24.482 1.8-.782 19.341 25.193zM79.466 198l38.001-49.5-31.461-40.982 1.8-.782 32.007 41.693.055.071-38 49.5h-2.402z" fill="#62D4DC"/></g><g clip-path="url(#prefix__clip1_3640_30726)" fill="#000"><path d="M56.422 197.999h-2.174L-65 351.759v2.812L56.367 198.07l.055-.071zm-37.996 0h-2.18L-65 302.759v2.812L18.37 198.07l.056-.071zm50.666 0h-2.18L-65 368.091v2.812L69.037 198.07l.055-.071zm12.663 0h-2.173L-65 384.428v2.807L81.7 198.07l.055-.071zm-50.666 0h-2.174L-65 319.091v2.812L31.034 198.07l.055-.071zm12.67 0h-2.18L-65 335.428v2.807L43.704 198.07l.055-.071zM92.185 344.999l37.997 49h2.299l-38.003-49L163 256.645v-2.954l-70.76 91.238-.055.07zm12.67 0l37.997 49h2.292l-37.996-49L163 272.976v-2.953l-58.09 74.906-.055.07zm-25.333 0l37.997 49h2.292l-37.997-49L163 240.313v-2.954l-83.423 107.57-.055.07zm-12.67 0l37.997 49h2.299l-38.004-49L163 223.976v-2.953L66.907 344.929l-.055.07zm50.667 0l37.996 49h2.299l-38.003-49L163 289.313v-2.954l-45.427 58.57-.054.07zm-63.33 0l37.996 49h2.293l-37.997-49L163 207.645v-2.954L54.243 344.929l-.055.07z"/></g><g clip-path="url(#prefix__clip2_3640_30726)"><path d="M208.479 344.93L163 286.284v3.097L206.132 345l-37.999 48.999h2.401l38-48.999-.055-.07zm37.756-.317L163 237.284v3.097L244.133 345l-38.001 48.999h2.403l38-48.999-.3-.387zm25.578.219L163 204.613v3.095l106.466 137.196-38.011 49.095h2.401l38.012-49.096-.055-.071zm-38.246-.219L163 253.617v3.097L231.466 345l-38 48.999h2.401l38-48.999-.3-.387zm-12.421.317L163 269.951v3.097L218.799 345l-38 48.999h2.402L221.2 345l-.054-.07zm37.755-.317L163 220.951v3.097L256.8 345l-38.001 48.999h2.402L259.202 345l-.301-.387z" fill="#000"/><path d="M258.901 312.718l69.968-90.314-.055-.071-18.927-24.334h-2.403l18.983 24.406-69.463 89.663 1.803.772.094-.122zm-6.334-8.165l63.634-82.054-19-24.5h-2.402l19.001 24.5-63.128 81.401 1.801.775.094-.122zm-6.333-8.167l57.3-73.887-19-24.5h-2.401l19 24.5-56.795 73.235 1.801.774.095-.122zm-6.334-8.167l50.967-65.719-19-24.501h-2.401l19 24.501-50.461 65.067 1.801.774.094-.122zm-6.333-8.166l44.633-57.554-19-24.5h-2.4l18.999 24.5-44.128 56.901 1.801.775.095-.122zm-6.333-8.167l38.3-49.387-19.001-24.5h-2.401l19.001 24.5-37.795 48.735 1.801.774.095-.122z" fill="#62D4DC"/></g><g clip-path="url(#prefix__clip3_3640_30726)" fill="#000"><path d="M117.521 443.569L163 502.813v-3.129l-43.132-56.186 38-49.499h-2.402l-37.999 49.499.054.071zm-37.755.32L163 552.313v-3.129L81.867 443.498l38.001-49.499h-2.402l-38 49.499.3.391zm-25.579-.221L163 585.318v-3.127L56.534 443.595l38.011-49.596h-2.401l-38.012 49.597.055.072zm38.246.221L163 535.813v-3.128l-68.466-89.187 38.001-49.499h-2.402l-38 49.499.3.391zm12.421-.32L163 519.313v-3.128l-55.798-72.687 37.999-49.499h-2.402L104.8 443.498l.054.071zm-37.755.32L163 568.813v-3.128L69.2 443.498l38.001-49.499h-2.402l-38 49.499.3.391zM67.1 476.109L-2.87 567.345l.055.071 18.927 24.583h2.403L-.467 567.344l69.463-90.578-1.802-.78-.094.123zm6.333 8.249L9.799 567.249l19 24.75h2.402l-19-24.75 63.127-82.232-1.8-.782-.095.123zm6.333 8.25l-57.3 74.641 19 24.75h2.401l-19-24.75 56.795-73.982-1.801-.782-.095.123zm6.334 8.25l-50.967 66.39 19 24.751h2.401l-19-24.751 50.461-65.731-1.8-.782-.095.123zm6.333 8.25L47.8 567.249l19 24.75h2.4l-18.999-24.75 44.128-57.482-1.801-.782-.095.123zm6.333 8.25l-38.3 49.891 19 24.75h2.402l-19-24.75 37.794-49.232-1.8-.782-.096.123z"/></g><g clip-path="url(#prefix__clip4_3640_30726)" fill="#62D4DC"><path d="M271.868 492.999l-76 99h-2.402l76.001-99-75.946-98.929-.054-.071h2.401l75.946 98.929.054.071zm-12.666-.001l-76.001 99.001h-2.402l76.004-99.003c-.163-.206-.366-.47-.627-.81l-75.322-98.116-.054-.071h2.402l75.699 98.608.301.391zm-27.736 99.001l76.001-99-75.946-98.929-.054-.071h2.401l75.946 98.929.054.071-76 99h-2.402zm65.735-99l-76 99H218.8l76-99-75.945-98.929-.055-.071h2.401l75.946 98.929.054.071zm-50.666 0l-76.001 99h-2.401l76-99-75.945-98.929-.055-.071h2.402l75.945 98.929.055.071zm38.001 0l-76.001 99h-2.402l76.001-99-75.946-98.929-.055-.071h2.402l75.946 98.929.055.071zM309.814 542.428l.054.071-38 49.5h-2.402l38.001-49.5-12.461-16.232 1.801-.782 13.007 16.943zm-65.681 49.571l38.395-50.014 1.801.782-37.794 49.232h-2.402zm46.34-58.264l6.674 8.693.054.071-38 49.5H256.8l38-49.5-6.128-7.982 1.801-.782zm44.674 8.693l.054.071-38 49.5H294.8l38-49.5-25.127-32.732 1.801-.782 25.673 33.443zm-12.667 0l.055.071-38 49.5h-2.402l38-49.5-18.794-24.482 1.801-.782 19.34 25.193zm-15.014 49.571l38.001-49.5-31.461-40.982 1.801-.782 32.006 41.693.055.071-38 49.5h-2.402z"/></g></g><defs><clipPath id="prefix__clip0_3640_30726"><path fill="#fff" transform="matrix(-1 0 0 1 163 0)" d="M0 0h228v198H0z"/></clipPath><clipPath id="prefix__clip1_3640_30726"><path fill="#fff" transform="matrix(-1 0 0 1 163 197.999)" d="M0 0h228v196H0z"/></clipPath><clipPath id="prefix__clip2_3640_30726"><path fill="#fff" transform="matrix(-1 0 0 1 391 197.999)" d="M0 0h228v196H0z"/></clipPath><clipPath id="prefix__clip3_3640_30726"><path fill="#fff" transform="matrix(-1 0 0 1 163 393.999)" d="M0 0h228v198H0z"/></clipPath><clipPath id="prefix__clip4_3640_30726"><path fill="#fff" transform="matrix(-1 0 0 1 391 393.999)" d="M0 0h228v198H0z"/></clipPath></defs></svg>