<svg viewBox="0 0 164 384" xmlns="http://www.w3.org/2000/svg" fill-rule="evenodd" clip-rule="evenodd" stroke-linejoin="round" stroke-miterlimit="2"><path d="M78.331 288l-54.333-96h-1.717l54.334 96-54.295 95.931-.039.069h1.717l54.294-95.931.039-.069zm-9.055.001L14.942 192h-1.717l54.336 96.003c-.117.2-.262.456-.449.786l-53.848 95.142-.039.069h1.717l54.119-95.62.215-.379zM49.447 192l54.334 96-54.294 95.931-.039.069h1.716l54.295-95.931.039-.069-54.334-96h-1.717zm46.995 96l-54.333-96h-1.717l54.333 96-54.294 95.931-.039.069h1.717l54.294-95.931.039-.069zm-36.222 0L5.886 192H4.17l54.333 96-54.294 95.931-.039.069h1.716l54.295-95.931.039-.069zm27.167 0l-54.334-96h-1.717l54.334 96-54.295 95.931-.039.069h1.717l54.295-95.931.039-.069zM105.459 240.069l.039-.069-27.167-48h-1.717l27.167 48-8.908 15.74 1.287.758 9.299-16.429zM58.503 192l27.449 48.499 1.288-.759L60.22 192h-1.717zm33.129 56.499l4.771-8.43.039-.069-27.167-48h-1.717l27.167 48-4.381 7.74 1.288.759zm31.938-8.43l.039-.069-27.167-48h-1.717l27.167 48-17.964 31.74 1.288.759 18.354-32.43zm-9.056 0l.039-.069-27.166-48H85.67l27.166 48L99.4 263.74l1.288.759 13.826-24.43zM103.78 192l27.168 48-22.492 39.74 1.287.758 22.882-40.429.039-.069-27.166-48h-1.718z" fill="#1d1e1f" fill-rule="nonzero"/><path d="M85.669 96l54.334 96h1.716L87.385 96 141.68.069l.039-.069h-1.716L85.708 95.931l-.039.069zm9.055-.001L149.058 192h1.717L96.439 95.997c.117-.199.262-.456.449-.786L150.736.069l.039-.069h-1.717C135.08 24.697 95.026 95.466 94.94 95.62l-.216.379zM114.553 192L60.219 96 114.513.069l.039-.069h-1.716L58.541 95.931l-.039.069 54.334 96h1.717zM67.558 96l54.333 96h1.717L69.275 96 123.569.069l.039-.069h-1.717L67.597 95.931l-.039.069zm36.222 0l54.334 96h1.716l-54.333-96L159.791.069 159.83 0h-1.716l-54.295 95.931-.039.069zm-27.167 0l54.334 96h1.717L78.33 96 132.625.069l.039-.069h-1.717L76.652 95.931l-.039.069zM58.541 143.931l-.039.069 27.167 48h1.717l-27.167-48 8.909-15.74-1.288-.758-9.299 16.429zM105.497 192l-27.449-48.499-1.288.759L103.78 192h1.717zm-33.129-56.499l-4.771 8.43-.039.069 27.167 48h1.717l-27.167-48 4.381-7.74-1.288-.759zm-31.938 8.43l-.039.069 27.167 48h1.717l-27.167-48 17.964-31.74-1.288-.759-18.354 32.43zm9.056 0l-.039.069 27.166 48h1.717l-27.166-48L64.6 120.26l-1.288-.759-13.826 24.43zM60.22 192l-27.168-48 22.492-39.74-1.287-.758-22.882 40.429-.039.069 27.167 48h1.717z" fill-rule="nonzero"/></svg>