<svg xmlns="http://www.w3.org/2000/svg" width="362" height="436" fill="none"><path fill="#8C909C" d="M236.306-.073a.742.742 0 0 0-.726.884.739.739 0 1 0 .726-.884Zm5.027 113.208a.736.736 0 0 0-.683.457.743.743 0 0 0 .16.806.737.737 0 0 0 1.139-.112.743.743 0 0 0-.092-.934.74.74 0 0 0-.524-.217Zm0-17.417a.741.741 0 1 0 0 1.483.741.741 0 0 0 0-1.483Zm0 34.834a.743.743 0 0 0-.683.456.74.74 0 1 0 .683-.456Zm-5.027-182.875a.741.741 0 1 0-.001 1.482.741.741 0 0 0 .001-1.482ZM356.972-17.49a.741.741 0 0 0-.523 1.264.744.744 0 0 0 .807.16.74.74 0 0 0-.284-1.424ZM236.306-34.907a.742.742 0 0 0-.684.457.736.736 0 0 0 .16.807.74.74 0 1 0 .524-1.264Zm0 17.417a.741.741 0 0 0-.524 1.263.745.745 0 0 0 .807.16.739.739 0 0 0-.283-1.423Zm10.055 121.917a.743.743 0 0 0-.684.456.746.746 0 0 0 .161.807.743.743 0 0 0 1.263-.523.738.738 0 0 0-.74-.74ZM356.972-.073a.741.741 0 0 0-.523 1.263.744.744 0 0 0 .807.16.745.745 0 0 0 .456-.683.744.744 0 0 0-.457-.684.736.736 0 0 0-.283-.056ZM241.333-26.198a.74.74 0 1 0 0 1.48.74.74 0 0 0 0-1.48Zm0-17.417a.74.74 0 1 0 0 1.481.74.74 0 0 0 0-1.48Zm0-17.417a.74.74 0 1 0 0 1.48.74.74 0 0 0 0-1.48Zm-5.027 78.376a.742.742 0 0 0-.684.456.736.736 0 0 0 .16.807.74.74 0 1 0 .524-1.263Zm10.055 104.499a.744.744 0 0 0-.684.457.743.743 0 0 0 .539 1.009.737.737 0 0 0 .76-.314.737.737 0 0 0-.092-.935.74.74 0 0 0-.523-.217ZM241.333-8.781a.741.741 0 1 0 0 1.482.741.741 0 0 0 0-1.482Zm0 52.25a.741.741 0 1 0 0 1.482.741.741 0 0 0 0-1.483Zm0 17.416a.741.741 0 1 0 0 1.482.741.741 0 0 0 0-1.482Zm0-52.25a.74.74 0 1 0 0 1.482.74.74 0 0 0 0-1.482Zm0 69.667a.74.74 0 1 0 0 1.48.74.74 0 0 0 0-1.48Zm0-52.25a.74.74 0 1 0 0 1.48.74.74 0 0 0 0-1.48Zm-10.055 104.5a.738.738 0 1 0 .283 1.423.736.736 0 0 0 .24-1.207.737.737 0 0 0-.523-.216ZM356.972-52.323a.741.741 0 0 0-.523 1.263.745.745 0 0 0 .807.16.744.744 0 0 0 .456-.683.744.744 0 0 0-.457-.684.735.735 0 0 0-.283-.056ZM231.278 43.468a.737.737 0 0 0-.684.457.745.745 0 0 0 .161.806.737.737 0 0 0 1.138-.111.735.735 0 0 0-.092-.935.73.73 0 0 0-.523-.217Zm0 52.25a.737.737 0 0 0-.684.457.745.745 0 0 0 .161.806.737.737 0 0 0 1.138-.111.735.735 0 0 0-.092-.935.73.73 0 0 0-.523-.217Zm0 17.417a.74.74 0 1 0 0 1.478.74.74 0 0 0 0-1.478Zm0-34.833a.737.737 0 0 0-.684.457.745.745 0 0 0 .161.806.737.737 0 0 0 1.138-.112.735.735 0 0 0-.092-.935.727.727 0 0 0-.523-.216Zm0-17.417a.737.737 0 0 0-.684.457.745.745 0 0 0 .161.806.737.737 0 0 0 .806.16.734.734 0 0 0 .457-.683.743.743 0 0 0-.457-.684.742.742 0 0 0-.283-.056Zm15.083 26.125a.741.741 0 1 0 0 1.482.741.741 0 0 0 0-1.482ZM226.25 17.344a.742.742 0 0 0-.726.884.748.748 0 0 0 .582.581.737.737 0 0 0 .884-.725.744.744 0 0 0-.217-.524.73.73 0 0 0-.523-.216Zm40.222 52.25a.741.741 0 0 0-.523 1.262.74.74 0 1 0 .523-1.263ZM226.25-52.324a.741.741 0 0 0-.523 1.263.74.74 0 1 0 .523-1.263Zm0 17.416a.742.742 0 0 0-.726.885.748.748 0 0 0 .582.581.737.737 0 0 0 .884-.725.744.744 0 0 0-.217-.524.73.73 0 0 0-.523-.216Zm0 17.417a.741.741 0 0 0-.523 1.264.744.744 0 0 0 .807.16.745.745 0 0 0 .456-.684.743.743 0 0 0-.457-.684.74.74 0 0 0-.283-.056Zm5.028-26.125a.737.737 0 0 0-.684.457.745.745 0 0 0 .161.807.74.74 0 1 0 .523-1.264Zm125.694 8.709a.742.742 0 0 0-.725.884.739.739 0 0 0 1.465-.144.744.744 0 0 0-.216-.524.745.745 0 0 0-.524-.216ZM236.306 121.843a.74.74 0 1 0 0 1.478.74.74 0 0 0 0-1.478Zm0-34.833a.742.742 0 0 0-.684.457.736.736 0 0 0 .16.806.74.74 0 1 0 .524-1.263Zm0 17.417a.744.744 0 0 0-.684.456.738.738 0 0 0 .16.807.748.748 0 0 0 .379.203.747.747 0 0 0 .76-.315.743.743 0 0 0-.092-.934.74.74 0 0 0-.523-.217Zm0-34.834a.736.736 0 0 0-.684.457.736.736 0 0 0 .16.806.737.737 0 0 0 .806.161.74.74 0 0 0-.282-1.424Zm0-17.416a.741.741 0 1 0-.001 1.482.741.741 0 0 0 .001-1.482Zm-5.028-26.125a.737.737 0 0 0-.684.457.745.745 0 0 0 .161.806.737.737 0 0 0 1.138-.112.735.735 0 0 0-.092-.935.727.727 0 0 0-.523-.216Zm0-17.417a.737.737 0 0 0-.684.457.745.745 0 0 0 .161.806.736.736 0 0 0 .806.16.734.734 0 0 0 .457-.683.744.744 0 0 0-.457-.684.74.74 0 0 0-.283-.056Zm0-17.416a.737.737 0 0 0-.684.457.745.745 0 0 0 .161.806.736.736 0 0 0 .806.16.734.734 0 0 0 .457-.683.744.744 0 0 0-.457-.684.74.74 0 0 0-.283-.056Zm0-52.25a.736.736 0 0 0-.684.456.745.745 0 0 0 .161.807.737.737 0 0 0 1.138-.112.734.734 0 0 0 .069-.695.735.735 0 0 0-.401-.4.74.74 0 0 0-.283-.057Zm5.028 95.791a.742.742 0 0 0-.684.457.736.736 0 0 0 .16.806.74.74 0 1 0 .524-1.263Zm-10.056 0a.742.742 0 0 0-.726.885.748.748 0 0 0 .582.58.738.738 0 0 0 .884-.725.743.743 0 0 0-.457-.684.742.742 0 0 0-.283-.056Zm5.028-60.958a.737.737 0 0 0-.684.457.745.745 0 0 0 .161.806.737.737 0 0 0 1.138-.112.735.735 0 0 0-.092-.935.727.727 0 0 0-.523-.216Zm25.139 95.791a.741.741 0 1 0 0 1.483.741.741 0 0 0 0-1.483Zm100.555-17.416a.741.741 0 0 0-.523 1.263.745.745 0 0 0 .807.16.744.744 0 0 0 .456-.683.744.744 0 0 0-.457-.684.735.735 0 0 0-.283-.056Zm-100.555-104.5a.74.74 0 1 0 0 1.48.74.74 0 0 0 0-1.48Zm5.027 182.875a.736.736 0 0 0-.683.457.735.735 0 0 0 .16.806.745.745 0 0 0 .379.203.746.746 0 0 0 .76-.315.744.744 0 0 0-.092-.935.745.745 0 0 0-.524-.216Zm0-17.417a.744.744 0 0 0-.683.457.737.737 0 0 0 .16.806.745.745 0 0 0 .807.161.738.738 0 0 0 .4-.967.745.745 0 0 0-.684-.457Zm0-17.417a.741.741 0 0 0-.523 1.264.745.745 0 0 0 .807.16.745.745 0 0 0 .457-.683.745.745 0 0 0-.741-.74Zm-5.027-78.374a.741.741 0 1 0 0 1.482.741.741 0 0 0 0-1.482Zm0 34.833a.74.74 0 1 0 0 1.48.74.74 0 0 0 0-1.48Zm0-17.417a.741.741 0 1 0 0 1.482.741.741 0 0 0 0-1.482Zm0-34.833a.74.74 0 1 0 0 1.482.74.74 0 0 0 0-1.482Zm0-17.417a.738.738 0 0 0-.726.885.739.739 0 0 0 1.341.266.743.743 0 0 0-.092-.934.74.74 0 0 0-.523-.217Zm5.027 95.792a.741.741 0 0 0-.523 1.263.745.745 0 0 0 .807.16.739.739 0 0 0-.284-1.423Zm-5.027-113.208a.741.741 0 1 0 0 1.482.741.741 0 0 0 0-1.482Zm100.555 104.5a.741.741 0 0 0-.523 1.262.74.74 0 1 0 .523-1.263ZM261.444-43.616a.741.741 0 0 0-.523 1.264.744.744 0 0 0 .807.16.74.74 0 0 0-.284-1.424Zm0-17.417a.74.74 0 1 0 0 1.482.74.74 0 0 0 0-1.482Zm5.028 182.875a.744.744 0 0 0-.683.457.737.737 0 0 0 .16.807.747.747 0 0 0 .806.16.745.745 0 0 0 .333-.272.743.743 0 0 0-.616-1.152Zm0-17.416a.736.736 0 0 0-.683.457.735.735 0 0 0 .16.806.745.745 0 0 0 .379.203.747.747 0 0 0 .76-.315.743.743 0 0 0-.333-1.095.74.74 0 0 0-.283-.056Zm0-17.417a.742.742 0 0 0-.725.884.739.739 0 0 0 1.465-.144.743.743 0 0 0-.457-.684.738.738 0 0 0-.283-.056Zm-5.028-43.542a.741.741 0 0 0-.523 1.263.745.745 0 0 0 .807.161.745.745 0 0 0 .457-.684.745.745 0 0 0-.741-.74Zm0-69.666a.741.741 0 0 0-.523 1.263.745.745 0 0 0 .807.16.739.739 0 0 0-.284-1.423Zm0 52.25a.741.741 0 0 0-.523 1.263.745.745 0 0 0 .807.16.739.739 0 0 0-.284-1.423Zm0 34.833a.742.742 0 0 0-.523 1.263.745.745 0 0 0 .807.16.74.74 0 0 0-.284-1.423Zm0-69.666a.742.742 0 0 0-.523 1.263.744.744 0 0 0 .807.16.74.74 0 0 0-.284-1.423Zm0 17.416a.741.741 0 0 0-.523 1.263.744.744 0 0 0 .807.16.74.74 0 0 0-.284-1.423Zm-5.027 78.375a.741.741 0 1 0 0 1.482.741.741 0 0 0 0-1.482Zm100.555-69.666a.742.742 0 0 0-.725.884.739.739 0 0 0 1.465-.144.744.744 0 0 0-.216-.524.745.745 0 0 0-.524-.216Zm-110.611-52.25a.741.741 0 1 0 0 1.482.741.741 0 0 0 0-1.483Zm5.028 165.458a.743.743 0 0 0-.684.456.746.746 0 0 0 .161.807.745.745 0 0 0 .378.203.746.746 0 0 0 .76-.315.736.736 0 0 0-.092-.934.74.74 0 0 0-.523-.217Zm-5.028-182.875a.74.74 0 1 0 0 1.48.74.74 0 0 0 0-1.48Zm5.028 165.458a.736.736 0 0 0-.684.457.743.743 0 0 0 .539 1.009.746.746 0 0 0 .76-.315.736.736 0 0 0-.092-.934.74.74 0 0 0-.523-.217Zm0-17.417a.741.741 0 1 0 0 1.483.741.741 0 0 0 0-1.483ZM246.361-.073a.74.74 0 1 0 0 1.482.74.74 0 0 0 0-1.482Zm0 34.833a.741.741 0 1 0 0 1.482.741.741 0 0 0 0-1.482Zm0 17.417a.741.741 0 1 0 0 1.482.741.741 0 0 0 0-1.482Zm0-69.667a.74.74 0 1 0 0 1.481.74.74 0 0 0 0-1.48Zm0 34.834a.741.741 0 1 0 0 1.482.741.741 0 0 0 0-1.483Zm5.028 60.958a.741.741 0 1 0 0 1.482.741.741 0 0 0 0-1.482Zm5.028 43.541a.744.744 0 0 0-.684.457.735.735 0 0 0 .16.806.745.745 0 0 0 .807.161.742.742 0 0 0 .457-.684.74.74 0 0 0-.74-.74Zm-5.028-182.875a.74.74 0 1 0 0 1.48.74.74 0 0 0 0-1.48Zm0 17.417a.74.74 0 1 0 0 1.481.74.74 0 0 0 0-1.48ZM356.972 34.76a.742.742 0 0 0-.725.885.739.739 0 0 0 1.465-.145.743.743 0 0 0-.457-.684.738.738 0 0 0-.283-.056ZM251.389 60.885a.741.741 0 1 0 0 1.482.741.741 0 0 0 0-1.482Zm-5.028 8.708a.741.741 0 1 0 0 1.483.741.741 0 0 0 0-1.483Zm10.056 34.834a.743.743 0 0 0-.684.456.738.738 0 0 0 .16.807.752.752 0 0 0 .379.203.746.746 0 0 0 .76-.315.738.738 0 0 0-.615-1.151Zm-5.028-60.959a.741.741 0 1 0 0 1.483.741.741 0 0 0 0-1.483Zm0-17.416a.74.74 0 1 0 0 1.48.74.74 0 0 0 0-1.48Zm0-17.417a.74.74 0 1 0 0 1.482.74.74 0 0 0 0-1.482Zm0-34.833a.74.74 0 1 0 0 1.48.74.74 0 0 0 0-1.48Zm0 17.417a.741.741 0 1 0 0 1.481.741.741 0 0 0 0-1.481ZM226.25-.073a.741.741 0 0 0-.523 1.263.74.74 0 1 0 .523-1.263ZM196.083-17.49a.74.74 0 1 0 0 1.481.74.74 0 0 0 0-1.48Zm0-17.416a.741.741 0 1 0 0 1.482.741.741 0 0 0 0-1.483Zm5.028 148.041a.736.736 0 0 0-.684.457.743.743 0 0 0 .54 1.009.743.743 0 0 0 .759-.315.736.736 0 0 0-.092-.934.736.736 0 0 0-.523-.217Zm-5.028-95.791a.741.741 0 1 0 0 1.482.741.741 0 0 0 0-1.482Zm0-69.667a.74.74 0 1 0 0 1.48.74.74 0 0 0 0-1.48Zm5.028 182.875a.743.743 0 0 0-.684.456.746.746 0 0 0 .161.807.743.743 0 0 0 1.263-.523.738.738 0 0 0-.74-.74ZM196.083-.073a.74.74 0 1 0 0 1.482.74.74 0 0 0 0-1.482Zm0 34.833a.741.741 0 1 0 0 1.482.741.741 0 0 0 0-1.482Zm0 52.25a.741.741 0 1 0 0 1.482.741.741 0 0 0 0-1.482Zm0 17.417a.743.743 0 0 0-.683.456.74.74 0 1 0 .683-.456Zm0-52.25a.74.74 0 1 0 0 1.48.74.74 0 0 0 0-1.48Zm0 17.416a.741.741 0 1 0 0 1.483.741.741 0 0 0 0-1.483Zm5.028-60.958a.74.74 0 1 0 0 1.482.74.74 0 0 0 0-1.482Zm0-52.25a.74.74 0 1 0 0 1.481.74.74 0 0 0 0-1.48Zm0 17.417a.74.74 0 1 0 0 1.48.74.74 0 0 0 0-1.48Zm0 17.417a.741.741 0 1 0 0 1.481.741.741 0 0 0 0-1.481Zm0-52.25a.74.74 0 1 0 0 1.48.74.74 0 0 0 0-1.48Zm0 156.75a.741.741 0 1 0 0 1.482.741.741 0 0 0 0-1.483Zm5.028 26.124a.744.744 0 0 0-.684.457.743.743 0 0 0 .539 1.009.737.737 0 0 0 .76-.314.744.744 0 0 0-.092-.935.742.742 0 0 0-.523-.217Zm-10.056 0a.744.744 0 0 0-.683.457.743.743 0 0 0 .16.806.737.737 0 0 0 1.138-.111.743.743 0 0 0-.615-1.152Zm5.028-60.958a.741.741 0 1 0 0 1.482.741.741 0 0 0 0-1.482Zm0 17.417a.74.74 0 1 0 0 1.48.74.74 0 0 0 0-1.48Zm0-34.834a.741.741 0 1 0 0 1.483.741.741 0 0 0 0-1.483Zm5.028 60.959a.743.743 0 0 0-.684.456.746.746 0 0 0 .161.807.745.745 0 0 0 .378.203.746.746 0 0 0 .76-.315.736.736 0 0 0-.092-.934.74.74 0 0 0-.523-.217Zm-5.028-78.375a.74.74 0 1 0 0 1.48.74.74 0 0 0 0-1.48Zm-15.083-8.709a.737.737 0 0 0-.684.457.745.745 0 0 0 .161.807.737.737 0 0 0 .806.16.734.734 0 0 0 .457-.684.744.744 0 0 0-.217-.523.73.73 0 0 0-.523-.217Zm0 17.417a.737.737 0 0 0-.684.457.745.745 0 0 0 .161.806.737.737 0 0 0 .806.16.734.734 0 0 0 .457-.683.743.743 0 0 0-.457-.684.742.742 0 0 0-.283-.056Zm0-34.833a.737.737 0 0 0-.684.457.745.745 0 0 0 .161.806.737.737 0 0 0 .806.16.734.734 0 0 0 .457-.683.744.744 0 0 0-.457-.684.74.74 0 0 0-.283-.056Zm0-52.25a.737.737 0 0 0-.684.457.745.745 0 0 0 .161.806.737.737 0 0 0 1.138-.112.735.735 0 0 0-.092-.935.727.727 0 0 0-.523-.216Zm0 34.833a.737.737 0 0 0-.684.457.745.745 0 0 0 .161.807.74.74 0 1 0 .523-1.264Zm0-17.417a.737.737 0 0 0-.684.457.745.745 0 0 0 .161.807.737.737 0 0 0 .806.16.734.734 0 0 0 .457-.684.744.744 0 0 0-.217-.523.73.73 0 0 0-.523-.216Zm40.222 87.084a.741.741 0 0 0-.523 1.263.74.74 0 1 0 .523-1.263Zm-40.222 52.25a.738.738 0 1 0 .283 1.423.736.736 0 0 0 .24-1.207.737.737 0 0 0-.523-.216Zm0-52.25a.737.737 0 0 0-.684.457.745.745 0 0 0 .161.806.737.737 0 0 0 1.138-.112.735.735 0 0 0-.092-.935.727.727 0 0 0-.523-.216Zm0 17.416a.737.737 0 0 0-.684.457.745.745 0 0 0 .161.806.737.737 0 0 0 1.138-.111.735.735 0 0 0-.092-.935.73.73 0 0 0-.523-.217Zm0 17.417a.737.737 0 0 0-.684.457.745.745 0 0 0 .161.806.737.737 0 0 0 .806.16.734.734 0 0 0 .457-.683.743.743 0 0 0-.457-.684.742.742 0 0 0-.283-.056Zm5.028-78.375a.742.742 0 0 0-.726.884.739.739 0 1 0 .726-.884Zm0 121.917a.744.744 0 0 0-.684.456.738.738 0 0 0 .16.807.748.748 0 0 0 .379.203.747.747 0 0 0 .76-.315.743.743 0 0 0-.092-.934.74.74 0 0 0-.523-.217Zm0-139.333a.742.742 0 0 0-.684.456.736.736 0 0 0 .16.807.74.74 0 1 0 .524-1.263Zm0-34.834a.741.741 0 0 0-.524 1.263.745.745 0 0 0 .807.16.74.74 0 0 0-.283-1.423Zm0 17.417a.741.741 0 1 0-.001 1.482.741.741 0 0 0 .001-1.482Zm0 52.25a.741.741 0 1 0-.001 1.482.741.741 0 0 0 .001-1.482Zm0-87.084a.742.742 0 0 0-.727.884.741.741 0 1 0 .727-.884Zm0 156.75a.736.736 0 0 0-.684.457.736.736 0 0 0 .16.806.737.737 0 0 0 .806.161.74.74 0 0 0-.282-1.424Zm0-52.25a.736.736 0 0 0-.684.457.736.736 0 0 0 .16.806.737.737 0 0 0 .806.161.74.74 0 0 0-.282-1.424Zm0 69.667a.737.737 0 0 0-.684.457.735.735 0 0 0 .16.806.74.74 0 1 0 .524-1.263Zm0-34.833a.741.741 0 1 0-.001 1.482.741.741 0 0 0 .001-1.482Zm0-17.417a.742.742 0 0 0-.684.457.736.736 0 0 0 .16.806.74.74 0 1 0 .524-1.263Zm-5.028 60.958a.74.74 0 1 0 0 1.478.74.74 0 0 0 0-1.478Zm35.194 8.709a.736.736 0 0 0-.683.457.735.735 0 0 0 .16.806.745.745 0 0 0 .379.203.747.747 0 0 0 .76-.315.743.743 0 0 0-.333-1.095.74.74 0 0 0-.283-.056Zm-5.028-182.875a.741.741 0 0 0-.523 1.263.745.745 0 0 0 .807.16.739.739 0 0 0-.284-1.423Zm5.028 165.458a.744.744 0 0 0-.683.457.737.737 0 0 0 .16.806.745.745 0 0 0 .807.161.743.743 0 0 0 .4-.967.737.737 0 0 0-.684-.457Zm0-17.417a.74.74 0 1 0 0 1.482.74.74 0 0 0 0-1.482Zm0-17.416a.741.741 0 0 0-.523 1.263.745.745 0 0 0 .807.16.744.744 0 0 0 .456-.683.744.744 0 0 0-.457-.684.735.735 0 0 0-.283-.056Zm-5.028-113.209a.742.742 0 0 0-.523 1.264.745.745 0 0 0 .807.16.74.74 0 0 0-.284-1.423Zm0 34.834a.741.741 0 0 0-.523 1.263.744.744 0 0 0 .807.16.74.74 0 0 0-.284-1.423Zm0 52.25a.741.741 0 0 0-.523 1.263.745.745 0 0 0 .807.16.739.739 0 0 0-.284-1.423Zm0-69.667a.741.741 0 0 0-.523 1.264.744.744 0 0 0 .807.16.74.74 0 0 0-.284-1.424Zm0 52.25a.742.742 0 0 0-.523 1.263.745.745 0 0 0 .807.16.74.74 0 0 0-.284-1.423Zm5.028 26.125a.742.742 0 0 0-.725.885.739.739 0 0 0 1.465-.145.743.743 0 0 0-.457-.684.738.738 0 0 0-.283-.056Zm-5.028-43.541a.742.742 0 0 0-.523 1.263.745.745 0 0 0 .807.16.74.74 0 0 0-.284-1.423Zm5.028-43.542a.741.741 0 0 0-.523 1.263.745.745 0 0 0 .807.16.744.744 0 0 0 .456-.683.744.744 0 0 0-.457-.684.735.735 0 0 0-.283-.056Zm5.028 130.625a.736.736 0 0 0-.683.457.743.743 0 0 0 .16.806.74.74 0 1 0 .523-1.263Zm0 17.416a.744.744 0 0 0-.683.457.746.746 0 0 0-.043.428.745.745 0 0 0 .582.581.735.735 0 0 0 .759-.314.736.736 0 0 0 .069-.695.748.748 0 0 0-.401-.4.723.723 0 0 0-.283-.057Zm0-34.833a.742.742 0 0 0-.726.885.748.748 0 0 0 .582.58.738.738 0 0 0 .884-.725.743.743 0 0 0-.457-.684.742.742 0 0 0-.283-.056Zm-5.028-148.042a.74.74 0 1 0 0 1.482.74.74 0 0 0 0-1.482Zm5.028 130.625a.741.741 0 0 0-.523 1.264.737.737 0 0 0 1.138-.112.735.735 0 0 0 .069-.695.749.749 0 0 0-.401-.4.735.735 0 0 0-.283-.057Zm-5.028-26.125a.741.741 0 0 0-.523 1.264.74.74 0 1 0 .523-1.264Zm0-17.416a.741.741 0 0 0-.523 1.263.745.745 0 0 0 .807.16.744.744 0 0 0 .456-.683.744.744 0 0 0-.457-.684.735.735 0 0 0-.283-.056Zm0-69.667a.741.741 0 0 0-.523 1.264.744.744 0 0 0 .807.16.74.74 0 0 0-.284-1.424Zm0 52.25a.741.741 0 0 0-.523 1.263.744.744 0 0 0 .807.16.745.745 0 0 0 .456-.683.744.744 0 0 0-.457-.684.736.736 0 0 0-.283-.056Zm0-17.416a.742.742 0 0 0-.523 1.263.744.744 0 0 0 .807.16.745.745 0 0 0 .456-.683.744.744 0 0 0-.457-.684.736.736 0 0 0-.283-.056Zm-5.028 78.374a.741.741 0 0 0-.523 1.264.745.745 0 0 0 .807.16.745.745 0 0 0 .457-.683.745.745 0 0 0-.741-.74Zm-10.055-17.416a.74.74 0 1 0 0 1.48.74.74 0 0 0 0-1.48Zm10.055 34.833a.742.742 0 0 0-.725.884.739.739 0 0 0 1.341.267.743.743 0 0 0-.092-.934.752.752 0 0 0-.524-.217Zm-10.055-104.5a.74.74 0 1 0 0 1.481.74.74 0 0 0 0-1.48Zm0-34.833a.74.74 0 1 0 0 1.48.74.74 0 0 0 0-1.48Zm5.028 165.458a.736.736 0 0 0-.684.457.735.735 0 0 0 .16.806.745.745 0 0 0 .807.161.738.738 0 0 0 .457-.684.74.74 0 0 0-.74-.74Zm0 17.417a.743.743 0 0 0-.684.456.738.738 0 0 0 .16.807.752.752 0 0 0 .379.203.746.746 0 0 0 .76-.315.738.738 0 0 0-.615-1.151Zm-5.028-43.542a.741.741 0 1 0 0 1.482.741.741 0 0 0 0-1.482Zm5.028 8.708a.741.741 0 1 0 0 1.483.741.741 0 0 0 0-1.483Zm-5.028-26.125a.741.741 0 1 0 0 1.483.741.741 0 0 0 0-1.483Zm0-34.833a.741.741 0 1 0 0 1.482.741.741 0 0 0 0-1.482Zm0-34.833a.74.74 0 1 0 0 1.482.74.74 0 0 0 0-1.482Zm0 17.417a.741.741 0 1 0 0 1.482.741.741 0 0 0 0-1.482Zm0-52.25a.741.741 0 1 0 0 1.482.741.741 0 0 0 0-1.482Zm5.028 113.208a.741.741 0 1 0 0 1.482.741.741 0 0 0 0-1.482Zm0-121.917a.74.74 0 1 0 0 1.481.74.74 0 0 0 0-1.48Zm5.027 165.458a.744.744 0 0 0-.683.457.737.737 0 0 0 .16.807.738.738 0 0 0 1.207-.807.732.732 0 0 0-.4-.4.728.728 0 0 0-.284-.057Zm-5.027-148.041a.74.74 0 1 0 0 1.48.74.74 0 0 0 0-1.48Zm5.027 130.625a.736.736 0 0 0-.683.457.735.735 0 0 0 .16.806.745.745 0 0 0 .379.203.746.746 0 0 0 .76-.315.744.744 0 0 0-.092-.935.745.745 0 0 0-.524-.216Zm-5.027-165.459a.739.739 0 0 0-.524 1.264.74.74 0 1 0 .524-1.264Zm0 104.5a.741.741 0 1 0 0 1.483.741.741 0 0 0 0-1.483Zm0 17.417a.741.741 0 1 0 0 1.482.741.741 0 0 0 0-1.482Zm0-52.25a.74.74 0 1 0 0 1.482.74.74 0 0 0 0-1.482Zm0-17.416a.741.741 0 1 0 0 1.482.741.741 0 0 0 0-1.482Zm0 34.833a.74.74 0 1 0 0 1.48.74.74 0 0 0 0-1.48Zm125.694 26.125a.74.74 0 1 0 0 1.48.74.74 0 0 0 0-1.48ZM321.778-8.781a.737.737 0 0 0-.684.456.745.745 0 0 0 .161.807.736.736 0 0 0 .806.16.734.734 0 0 0 .457-.683.744.744 0 0 0-.457-.684.74.74 0 0 0-.283-.056Zm0 52.25a.737.737 0 0 0-.684.456.745.745 0 0 0 .161.806.737.737 0 0 0 1.138-.111.735.735 0 0 0-.092-.935.73.73 0 0 0-.523-.217Zm0 34.833a.737.737 0 0 0-.684.457.745.745 0 0 0 .161.806.737.737 0 0 0 1.138-.112.735.735 0 0 0-.092-.935.727.727 0 0 0-.523-.216Zm0-17.417a.737.737 0 0 0-.684.457.745.745 0 0 0 .161.806.737.737 0 0 0 .806.16.734.734 0 0 0 .457-.683.743.743 0 0 0-.457-.684.742.742 0 0 0-.283-.056Zm0-52.25a.737.737 0 0 0-.684.457.745.745 0 0 0 .161.806.736.736 0 0 0 .806.16.734.734 0 0 0 .457-.683.744.744 0 0 0-.457-.684.74.74 0 0 0-.283-.056Zm0 17.417a.737.737 0 0 0-.684.457.745.745 0 0 0 .161.806.737.737 0 0 0 1.138-.112.735.735 0 0 0-.092-.935.727.727 0 0 0-.523-.216Zm0 69.666a.737.737 0 0 0-.684.457.745.745 0 0 0 .161.806.737.737 0 0 0 1.138-.111.735.735 0 0 0-.092-.935.73.73 0 0 0-.523-.217ZM316.75-34.907a.742.742 0 0 0-.726.885.748.748 0 0 0 .582.581.738.738 0 0 0 .884-.725.744.744 0 0 0-.217-.524.73.73 0 0 0-.523-.216Zm5.028 148.042a.74.74 0 1 0 0 1.478.74.74 0 0 0 0-1.478ZM316.75-52.323a.741.741 0 0 0-.523 1.263.74.74 0 1 0 .523-1.263Zm35.194 113.208a.742.742 0 0 0-.725.884.739.739 0 0 0 1.341.267.743.743 0 0 0-.092-.934.752.752 0 0 0-.524-.217ZM326.806-17.49a.741.741 0 0 0-.524 1.263.745.745 0 0 0 .807.16.739.739 0 0 0-.283-1.423Zm-5.028-8.708a.737.737 0 0 0-.684.457.745.745 0 0 0 .161.806.737.737 0 0 0 1.138-.112.735.735 0 0 0-.092-.935.727.727 0 0 0-.523-.216Zm5.028 113.208a.742.742 0 0 0-.684.457.736.736 0 0 0 .16.806.74.74 0 1 0 .524-1.263Zm0-17.417a.736.736 0 0 0-.684.457.736.736 0 0 0 .16.806.737.737 0 0 0 .806.161.74.74 0 0 0-.282-1.424Zm0-34.833a.742.742 0 0 0-.684.457.736.736 0 0 0 .16.806.74.74 0 1 0 .524-1.263Zm0 17.417a.742.742 0 0 0-.684.456.736.736 0 0 0 .16.807.74.74 0 1 0 .524-1.263Zm0-52.25a.742.742 0 0 0-.726.884.739.739 0 1 0 .726-.884Zm0 17.416a.742.742 0 0 0-.684.457.736.736 0 0 0 .16.807.74.74 0 1 0 .524-1.264ZM316.75-17.49a.741.741 0 0 0-.523 1.264.744.744 0 0 0 .807.16.745.745 0 0 0 .456-.684.743.743 0 0 0-.457-.684.74.74 0 0 0-.283-.056Zm5.028-43.542a.736.736 0 0 0-.684.457.745.745 0 0 0 .161.807.737.737 0 0 0 1.138-.112.735.735 0 0 0-.092-.935.73.73 0 0 0-.523-.217Zm0 17.417a.737.737 0 0 0-.684.457.745.745 0 0 0 .161.807.74.74 0 1 0 .523-1.264Zm30.166 121.917a.741.741 0 0 0-.523 1.263.745.745 0 0 0 .807.16.739.739 0 0 0-.284-1.423Zm-25.138 43.541a.74.74 0 1 0 0 1.478.74.74 0 0 0 0-1.478Zm-60.334-69.666a.741.741 0 0 0-.523 1.263.745.745 0 0 0 .807.16.744.744 0 0 0 .456-.683.744.744 0 0 0-.457-.684.735.735 0 0 0-.283-.056Zm55.306 78.375a.738.738 0 1 0 .283 1.423.736.736 0 0 0 .24-1.207.737.737 0 0 0-.523-.216Zm-10.056-69.667a.742.742 0 0 0-.725.885.738.738 0 0 0 1.465-.145.744.744 0 0 0-.457-.684.738.738 0 0 0-.283-.056Zm0 17.417a.741.741 0 0 0-.523 1.263.745.745 0 0 0 .807.16.744.744 0 0 0 .456-.683.744.744 0 0 0-.457-.684.735.735 0 0 0-.283-.056ZM316.75-.073a.741.741 0 0 0-.523 1.263.74.74 0 1 0 .523-1.263Zm-5.028 43.541a.74.74 0 1 0 0 1.482.74.74 0 0 0 0-1.482Zm0-17.416a.74.74 0 1 0 0 1.481.74.74 0 0 0 0-1.481Zm0-17.417a.742.742 0 0 0-.523 1.263.744.744 0 0 0 .807.16.745.745 0 0 0 .456-.683.744.744 0 0 0-.457-.684.736.736 0 0 0-.283-.056Zm0 104.5a.744.744 0 0 0-.683.457.737.737 0 0 0 .16.806.745.745 0 0 0 .807.161.743.743 0 0 0 .4-.967.737.737 0 0 0-.684-.457ZM306.694-17.49a.741.741 0 0 0-.523 1.264.744.744 0 0 0 .807.16.74.74 0 0 0-.284-1.424Zm0-17.416a.742.742 0 0 0-.523 1.263.745.745 0 0 0 .807.16.74.74 0 0 0-.284-1.423Zm5.028 165.458a.736.736 0 0 0-.683.457.735.735 0 0 0 .16.806.745.745 0 0 0 .379.203.747.747 0 0 0 .76-.315.743.743 0 0 0-.333-1.095.74.74 0 0 0-.283-.056Zm-5.028-182.875a.741.741 0 0 0-.523 1.263.745.745 0 0 0 .807.16.739.739 0 0 0-.284-1.423Zm45.25 78.375a.741.741 0 0 0-.523 1.263.745.745 0 0 0 .807.16.739.739 0 0 0-.284-1.423Zm-40.222 69.666a.741.741 0 0 0-.523 1.263.74.74 0 1 0 .523-1.263Zm5.028 8.709a.736.736 0 0 0-.684.457.744.744 0 0 0 .54 1.009.743.743 0 0 0 .884-.726.749.749 0 0 0-.217-.524.737.737 0 0 0-.523-.216Zm0-52.25a.741.741 0 0 0-.523 1.263.74.74 0 1 0 .523-1.263Zm0 34.833a.742.742 0 0 0-.726.884.748.748 0 0 0 .582.582.739.739 0 1 0 .144-1.466Zm0-17.417a.741.741 0 0 0-.523 1.263.737.737 0 0 0 1.138-.111.735.735 0 0 0-.092-.935.73.73 0 0 0-.523-.217Zm0-34.833a.742.742 0 0 0-.726.885.748.748 0 0 0 .582.58.739.739 0 1 0 .144-1.465Zm0-17.416a.742.742 0 0 0-.726.884.748.748 0 0 0 .582.581.738.738 0 0 0 .884-.726.744.744 0 0 0-.217-.523.73.73 0 0 0-.523-.217Zm-5.028-60.959a.741.741 0 0 0-.523 1.264.744.744 0 0 0 .807.16.74.74 0 0 0-.284-1.424Zm0 17.417a.741.741 0 0 0-.523 1.263.745.745 0 0 0 .807.16.744.744 0 0 0 .456-.683.744.744 0 0 0-.457-.684.735.735 0 0 0-.283-.056Zm0 17.417a.742.742 0 0 0-.523 1.263.744.744 0 0 0 .807.16.745.745 0 0 0 .456-.683.744.744 0 0 0-.457-.684.736.736 0 0 0-.283-.056Zm5.028 130.624a.744.744 0 0 0-.683.457.746.746 0 0 0-.043.428.745.745 0 0 0 .582.581.735.735 0 0 0 .759-.314.736.736 0 0 0-.092-.935.722.722 0 0 0-.24-.16.723.723 0 0 0-.283-.057Zm-5.028-182.875a.74.74 0 1 0 0 1.482.74.74 0 0 0 0-1.482Zm40.222 104.5a.741.741 0 0 0-.523 1.264.745.745 0 0 0 .807.16.745.745 0 0 0 .457-.683.745.745 0 0 0-.741-.74Zm-10.055 0a.741.741 0 1 0 0 1.483.741.741 0 0 0 0-1.483ZM306.694-.073a.741.741 0 0 0-.523 1.263.744.744 0 0 0 .807.16.74.74 0 0 0-.284-1.423Zm35.195 78.375a.74.74 0 1 0 0 1.48.74.74 0 0 0 0-1.48Zm0-17.417a.741.741 0 1 0 0 1.482.741.741 0 0 0 0-1.482Zm0-34.833a.74.74 0 1 0 0 1.48.74.74 0 0 0 0-1.48Zm0-52.25a.74.74 0 1 0 0 1.48.74.74 0 0 0 0-1.48Zm-5.028-8.709a.741.741 0 1 0 0 1.483.741.741 0 0 0 0-1.483Zm5.028 43.542a.74.74 0 1 0 0 1.482.74.74 0 0 0 0-1.482Zm10.055 121.917a.736.736 0 0 0-.683.457.735.735 0 0 0 .16.806.745.745 0 0 0 .379.203.746.746 0 0 0 .76-.315.744.744 0 0 0-.092-.935.745.745 0 0 0-.524-.216Zm-10.055-34.834a.741.741 0 1 0 0 1.483.741.741 0 0 0 0-1.483Zm-5.028-148.041a.74.74 0 1 0 0 1.48.74.74 0 0 0 0-1.48Zm5.028 165.458a.736.736 0 0 0-.684.457.743.743 0 0 0 .539 1.009.746.746 0 0 0 .76-.315.736.736 0 0 0-.092-.934.74.74 0 0 0-.523-.217Zm0 17.417a.743.743 0 0 0-.684.456.746.746 0 0 0 .161.807.745.745 0 0 0 .378.203.746.746 0 0 0 .76-.315.736.736 0 0 0-.092-.934.74.74 0 0 0-.523-.217Zm0-139.333a.74.74 0 1 0 0 1.481.74.74 0 0 0 0-1.481Zm5.028 26.124a.741.741 0 1 0 0 1.483.741.741 0 0 0 0-1.483Zm0 17.417a.741.741 0 1 0 0 1.482.741.741 0 0 0 0-1.482Zm-5.028-78.375a.74.74 0 1 0 0 1.481.74.74 0 0 0 0-1.48Zm5.028 43.542a.74.74 0 1 0 0 1.482.74.74 0 0 0 0-1.482Zm0 69.666a.741.741 0 1 0 0 1.483.741.741 0 0 0 0-1.483Zm0-87.083a.738.738 0 0 0-.726.885.739.739 0 0 0 1.341.266.743.743 0 0 0-.092-.934.74.74 0 0 0-.523-.217Zm0 69.667a.74.74 0 1 0 0 1.48.74.74 0 0 0 0-1.48Zm-5.028-113.209a.74.74 0 1 0 0 1.48.74.74 0 0 0 0-1.48Zm5.028 8.709a.74.74 0 1 0 0 1.48.74.74 0 0 0 0-1.48Zm0 174.166a.744.744 0 0 0-.684.457.735.735 0 0 0 .16.806.745.745 0 0 0 .807.161.742.742 0 0 0 .457-.683.74.74 0 0 0-.74-.741Zm0-34.833a.741.741 0 1 0 0 1.482.741.741 0 0 0 0-1.482Zm0 17.417a.743.743 0 0 0-.684.456.738.738 0 0 0 .16.807.752.752 0 0 0 .379.203.746.746 0 0 0 .76-.315.738.738 0 0 0-.615-1.151Zm-10.056 17.416a.744.744 0 0 0-.684.457.743.743 0 0 0 .539 1.009.737.737 0 0 0 .76-.314.736.736 0 0 0-.092-.935.74.74 0 0 0-.523-.217Zm-5.028-95.791a.74.74 0 1 0 0 1.48.74.74 0 0 0 0-1.48Zm0 17.416a.741.741 0 1 0 0 1.483.741.741 0 0 0 0-1.483Zm0 17.417a.741.741 0 1 0 0 1.482.741.741 0 0 0 0-1.482Zm0-69.666a.741.741 0 1 0 0 1.482.741.741 0 0 0 0-1.482Zm0 17.416a.74.74 0 1 0 0 1.482.74.74 0 0 0 0-1.482Zm0 69.667a.74.74 0 1 0 0 1.48.74.74 0 0 0 0-1.48Zm0 34.833a.736.736 0 0 0-.683.457.743.743 0 0 0 .16.806.737.737 0 0 0 1.139-.112.743.743 0 0 0-.092-.934.74.74 0 0 0-.524-.217Zm-5.027-165.458a.741.741 0 1 0-.001 1.482.741.741 0 0 0 .001-1.482Zm25.138 148.041a.741.741 0 0 0-.523 1.263.745.745 0 0 0 .807.161.745.745 0 0 0 .457-.684.745.745 0 0 0-.741-.74Zm-20.111 0a.741.741 0 1 0 0 1.483.741.741 0 0 0 0-1.483Zm0 34.834a.743.743 0 0 0-.683.456.74.74 0 1 0 .683-.456Zm0-156.75a.74.74 0 1 0 0 1.48.74.74 0 0 0 0-1.48Zm5.028 43.541a.741.741 0 1 0 0 1.483.741.741 0 0 0 0-1.483Zm10.056-52.25a.741.741 0 1 0 0 1.483.741.741 0 0 0 0-1.483ZM336.861 34.76a.741.741 0 1 0 0 1.482.741.741 0 0 0 0-1.482Zm0-52.25a.74.74 0 1 0 0 1.481.74.74 0 0 0 0-1.48Zm0 87.083a.741.741 0 1 0 0 1.483.741.741 0 0 0 0-1.483Zm0-69.666a.74.74 0 1 0 0 1.482.74.74 0 0 0 0-1.482Zm-10.055-34.834a.742.742 0 0 0-.684.457.736.736 0 0 0 .16.807.74.74 0 1 0 .524-1.264Zm5.027-26.125a.741.741 0 1 0 0 1.483.741.741 0 0 0 0-1.483Zm20.111 174.167a.744.744 0 0 0-.683.457.737.737 0 0 0 .16.806.745.745 0 0 0 .807.161.738.738 0 0 0 .4-.967.745.745 0 0 0-.684-.457Zm-20.111-156.75a.74.74 0 1 0 0 1.481.74.74 0 0 0 0-1.48Zm5.028 148.042a.743.743 0 0 0-.684.456.746.746 0 0 0 .161.807.743.743 0 0 0 1.263-.523.738.738 0 0 0-.74-.74Zm0-17.417a.741.741 0 1 0 0 1.482.741.741 0 0 0 0-1.482Zm-10.055 17.417a.744.744 0 0 0-.684.456.738.738 0 0 0 .16.807.748.748 0 0 0 .379.203.747.747 0 0 0 .76-.315.743.743 0 0 0-.092-.934.74.74 0 0 0-.523-.217Zm-45.25 8.708a.737.737 0 0 0-.684.457.735.735 0 0 0 .16.806.74.74 0 1 0 .524-1.263Zm0 17.417a.744.744 0 0 0-.684.456.738.738 0 0 0 .16.807.748.748 0 0 0 .379.203.747.747 0 0 0 .76-.315.743.743 0 0 0-.092-.934.74.74 0 0 0-.523-.217Zm0-87.084a.736.736 0 0 0-.684.457.736.736 0 0 0 .16.806.737.737 0 0 0 .806.161.74.74 0 0 0-.282-1.424Zm0 52.25a.736.736 0 0 0-.684.457.736.736 0 0 0 .16.806.737.737 0 0 0 .806.161.74.74 0 0 0-.282-1.424Zm25.138-78.374a.742.742 0 0 0-.523 1.263.745.745 0 0 0 .807.16.74.74 0 0 0-.284-1.423Zm-25.138 60.958a.741.741 0 1 0-.001 1.482.741.741 0 0 0 .001-1.482Zm75.416 43.541a.744.744 0 0 0-.683.457.737.737 0 0 0 .16.807.747.747 0 0 0 .806.16.745.745 0 0 0 .333-.272.743.743 0 0 0-.616-1.152ZM276.528-.073a.737.737 0 0 0-.684.457.745.745 0 0 0 .161.806.737.737 0 0 0 .806.16.734.734 0 0 0 .457-.683.744.744 0 0 0-.457-.684.74.74 0 0 0-.283-.056Zm0 17.416a.737.737 0 0 0-.684.457.745.745 0 0 0 .161.807.737.737 0 0 0 .806.16.734.734 0 0 0 .457-.684.744.744 0 0 0-.217-.523.73.73 0 0 0-.523-.217Zm0-34.833a.737.737 0 0 0-.684.457.745.745 0 0 0 .161.807.74.74 0 1 0 .523-1.264Zm0-17.417a.737.737 0 0 0-.684.457.745.745 0 0 0 .161.807.737.737 0 0 0 .806.16.734.734 0 0 0 .457-.684.744.744 0 0 0-.217-.523.73.73 0 0 0-.523-.216Zm0 69.667a.737.737 0 0 0-.684.457.745.745 0 0 0 .161.806.737.737 0 0 0 .806.16.734.734 0 0 0 .457-.683.743.743 0 0 0-.457-.684.742.742 0 0 0-.283-.056Zm0-87.083a.737.737 0 0 0-.684.457.745.745 0 0 0 .161.806.737.737 0 0 0 1.138-.112.735.735 0 0 0-.092-.935.727.727 0 0 0-.523-.216Zm10.055 156.75a.743.743 0 0 0-.683.456.74.74 0 1 0 .683-.456Zm0-69.667a.741.741 0 1 0 0 1.482.741.741 0 0 0 0-1.482Zm0 52.25a.741.741 0 1 0 0 1.482.741.741 0 0 0 0-1.482Zm-5.027-60.958a.741.741 0 1 0-.001 1.482.741.741 0 0 0 .001-1.482Zm70.388-87.084a.74.74 0 1 0 0 1.482.74.74 0 0 0 0-1.482ZM286.583 69.593a.741.741 0 1 0 0 1.483.741.741 0 0 0 0-1.483Zm0-17.416a.74.74 0 1 0 0 1.48.74.74 0 0 0 0-1.48Zm-5.027-113.209a.742.742 0 0 0-.727.884.741.741 0 1 0 .727-.884Zm0 52.25a.742.742 0 0 0-.684.457.736.736 0 0 0 .16.807.74.74 0 1 0 .524-1.263Zm0 17.417a.742.742 0 0 0-.726.884.739.739 0 1 0 .726-.884Zm0-34.833a.741.741 0 1 0-.001 1.482.741.741 0 0 0 .001-1.482Zm0-17.417a.741.741 0 0 0-.524 1.264.745.745 0 0 0 .807.16.74.74 0 0 0-.283-1.424Zm5.027 165.458a.744.744 0 0 0-.683.457.743.743 0 0 0 .16.806.737.737 0 0 0 1.138-.111.737.737 0 0 0-.091-.935.744.744 0 0 0-.524-.217Zm-15.083 8.709a.736.736 0 0 0-.684.457.744.744 0 0 0 .54 1.009.743.743 0 0 0 .884-.726.749.749 0 0 0-.217-.524.737.737 0 0 0-.523-.216Zm85.472-43.542a.742.742 0 0 0-.725.884.738.738 0 0 0 1.465-.144.744.744 0 0 0-.457-.684.738.738 0 0 0-.283-.056ZM271.5 113.135a.744.744 0 0 0-.684.457.745.745 0 0 0 .54 1.009.743.743 0 0 0 .76-.315.743.743 0 0 0-.333-1.095.744.744 0 0 0-.283-.056Zm0-34.833a.741.741 0 0 0-.523 1.263.74.74 0 1 0 .523-1.263Zm-5.028-130.625a.74.74 0 1 0 0 1.481.74.74 0 0 0 0-1.481ZM271.5 95.718a.74.74 0 1 0 0 1.482.74.74 0 0 0 0-1.482Zm-5.028-60.958a.742.742 0 0 0-.725.885.738.738 0 0 0 1.465-.145.744.744 0 0 0-.457-.684.738.738 0 0 0-.283-.056Zm5.028 26.125a.742.742 0 0 0-.726.885.747.747 0 0 0 .582.58.739.739 0 1 0 .144-1.465Zm-5.028-43.541a.742.742 0 0 0-.725.884.738.738 0 0 0 1.009.54.745.745 0 0 0 .456-.685.744.744 0 0 0-.457-.683.738.738 0 0 0-.283-.057Zm0-34.834a.741.741 0 0 0-.523 1.264.744.744 0 0 0 .807.16.74.74 0 0 0-.284-1.424Zm0 17.417a.741.741 0 0 0-.523 1.263.745.745 0 0 0 .807.16.745.745 0 0 0 .456-.683.744.744 0 0 0-.457-.684.736.736 0 0 0-.283-.056Zm0-34.834a.742.742 0 0 0-.725.885.739.739 0 0 0 1.465-.144.744.744 0 0 0-.457-.684.738.738 0 0 0-.283-.056Zm10.056 87.084a.737.737 0 0 0-.684.457.745.745 0 0 0 .161.806.737.737 0 0 0 1.138-.112.735.735 0 0 0-.092-.935.727.727 0 0 0-.523-.216Zm0 69.666a.74.74 0 1 0 0 1.478.74.74 0 0 0 0-1.478Zm0-17.416a.738.738 0 1 0 .283 1.423.736.736 0 0 0 .24-1.207.737.737 0 0 0-.523-.216ZM271.5-61.032a.74.74 0 1 0 0 1.482.74.74 0 0 0 0-1.482Zm85.472 165.459a.736.736 0 0 0-.683.457.735.735 0 0 0 .16.806.745.745 0 0 0 .379.203.747.747 0 0 0 .76-.315.743.743 0 0 0-.333-1.095.74.74 0 0 0-.283-.056Zm-80.444-34.834a.737.737 0 0 0-.684.457.745.745 0 0 0 .161.806.737.737 0 0 0 1.138-.111.735.735 0 0 0-.092-.935.73.73 0 0 0-.523-.217Zm0 17.417a.737.737 0 0 0-.684.457.745.745 0 0 0 .161.806.737.737 0 0 0 .806.16.734.734 0 0 0 .457-.683.743.743 0 0 0-.457-.684.742.742 0 0 0-.283-.056ZM271.5 43.468a.741.741 0 0 0-.523 1.263.737.737 0 0 0 1.138-.111.735.735 0 0 0-.092-.935.73.73 0 0 0-.523-.217Zm0-17.416a.741.741 0 0 0-.523 1.263.74.74 0 1 0 .523-1.263Zm0-17.417a.741.741 0 0 0-.523 1.263.74.74 0 1 0 .523-1.263Zm0-34.833a.741.741 0 0 0-.523 1.263.74.74 0 1 0 .523-1.263Zm0 17.417a.742.742 0 0 0-.523 1.263.74.74 0 1 0 .523-1.263Zm0-34.834a.741.741 0 0 0-.523 1.264.744.744 0 0 0 .807.16.745.745 0 0 0 .456-.684.743.743 0 0 0-.457-.684.74.74 0 0 0-.283-.056Zm10.056 104.5a.742.742 0 0 0-.684.457.736.736 0 0 0 .16.806.74.74 0 1 0 .524-1.263Zm20.111 17.417a.741.741 0 1 0 0 1.482.741.741 0 0 0 0-1.482Zm0 52.25a.743.743 0 0 0-.684.456.738.738 0 0 0 .16.807.752.752 0 0 0 .379.203.746.746 0 0 0 .76-.315.738.738 0 0 0-.615-1.151Zm0-17.417a.736.736 0 0 0-.684.457.735.735 0 0 0 .16.806.745.745 0 0 0 .807.161.738.738 0 0 0 .457-.684.74.74 0 0 0-.74-.74Zm0-17.417a.741.741 0 1 0 0 1.483.741.741 0 0 0 0-1.483Zm0-34.833a.741.741 0 1 0 0 1.482.741.741 0 0 0 0-1.482Zm0-17.417a.741.741 0 1 0 0 1.483.741.741 0 0 0 0-1.483Zm50.277-52.25a.741.741 0 0 0-.523 1.264.744.744 0 0 0 .807.16.74.74 0 0 0-.284-1.423Zm-55.305-8.708a.74.74 0 1 0 0 1.481.74.74 0 0 0 0-1.48Zm5.028 43.542a.74.74 0 1 0 0 1.48.74.74 0 0 0 0-1.48ZM296.639-.073a.74.74 0 1 0 0 1.482.74.74 0 0 0 0-1.482Zm0-34.834a.741.741 0 1 0 0 1.483.741.741 0 0 0 0-1.483Zm0-17.416a.741.741 0 1 0 0 1.482.741.741 0 0 0 0-1.482Zm10.055 121.916a.74.74 0 1 0 0 1.482.74.74 0 0 0 0-1.482Zm0 17.417a.742.742 0 0 0-.725.884.739.739 0 0 0 1.341.267.743.743 0 0 0-.092-.934.752.752 0 0 0-.524-.217Zm0 17.417a.736.736 0 0 0-.683.457.735.735 0 0 0 .16.806.745.745 0 0 0 .379.203.746.746 0 0 0 .76-.315.744.744 0 0 0-.092-.935.745.745 0 0 0-.524-.216Zm-10.055-87.084a.741.741 0 1 0 0 1.483.741.741 0 0 0 0-1.483Zm10.055 34.834a.74.74 0 1 0 0 1.481.74.74 0 0 0 0-1.481Zm0 69.666a.744.744 0 0 0-.683.457.737.737 0 0 0 .16.807.738.738 0 0 0 1.207-.807.732.732 0 0 0-.4-.4.728.728 0 0 0-.284-.057Zm0-87.083a.742.742 0 0 0-.725.884.739.739 0 0 0 1.341.267.743.743 0 0 0-.092-.934.752.752 0 0 0-.524-.217Zm-5.027-95.792a.738.738 0 0 0-.726.884.739.739 0 1 0 .726-.884Zm0 52.25a.74.74 0 1 0 0 1.482.74.74 0 0 0 0-1.481Zm0-17.416a.74.74 0 1 0 0 1.48.74.74 0 0 0 0-1.48Zm0 34.833a.74.74 0 1 0 0 1.482.74.74 0 0 0 0-1.482Zm0-52.25a.738.738 0 0 0-.726.885.739.739 0 1 0 .726-.885Zm50.277 52.25a.742.742 0 0 0-.523 1.263.744.744 0 0 0 .807.16.74.74 0 0 0-.284-1.423Zm-60.333 0a.741.741 0 1 0 0 1.482.741.741 0 0 0 0-1.482Zm0 69.667a.741.741 0 1 0 0 1.482.741.741 0 0 0 0-1.482Zm0 17.416a.741.741 0 1 0 0 1.483.741.741 0 0 0 0-1.483Zm0 17.417a.736.736 0 0 0-.684.457.743.743 0 0 0 .54 1.009.743.743 0 0 0 .759-.315.736.736 0 0 0-.092-.934.736.736 0 0 0-.523-.217Zm0-69.667a.741.741 0 1 0 0 1.483.741.741 0 0 0 0-1.483Zm0 87.084a.743.743 0 0 0-.684.456.746.746 0 0 0 .161.807.743.743 0 0 0 1.263-.523.738.738 0 0 0-.74-.74Zm0-104.5a.741.741 0 1 0 0 1.482.741.741 0 0 0 0-1.482Zm0 34.833a.741.741 0 1 0 0 1.482.741.741 0 0 0 0-1.482Zm-5.028-78.375a.74.74 0 1 0 0 1.481.74.74 0 0 0 0-1.48Zm0 17.417a.74.74 0 1 0 0 1.482.74.74 0 0 0 0-1.482Zm65.361-43.542a.741.741 0 0 0-.523 1.264.744.744 0 0 0 .807.16.74.74 0 0 0-.284-1.424Zm-65.361-8.708a.74.74 0 1 0 0 1.48.74.74 0 0 0 0-1.48Zm0 17.416a.741.741 0 1 0 0 1.483.741.741 0 0 0 0-1.483Zm5.028-8.708a.74.74 0 1 0 0 1.481.74.74 0 0 0 0-1.48Zm5.028 165.458a.744.744 0 0 0-.684.457.743.743 0 0 0 .539 1.009.737.737 0 0 0 .76-.314.745.745 0 0 0-.092-.935.744.744 0 0 0-.523-.217Zm0-52.25a.741.741 0 1 0 0 1.483.741.741 0 0 0 0-1.483Zm0 34.834a.743.743 0 0 0-.684.456.746.746 0 0 0 .161.807.745.745 0 0 0 .378.203.746.746 0 0 0 .76-.315.736.736 0 0 0-.092-.934.74.74 0 0 0-.523-.217Zm0-17.417a.74.74 0 1 0 0 1.48.74.74 0 0 0 0-1.48Zm0-34.833a.74.74 0 1 0 0 1.48.74.74 0 0 0 0-1.48Zm-10.056-34.834a.74.74 0 1 0 0 1.481.74.74 0 0 0 0-1.48Zm5.028-78.375a.74.74 0 1 0 0 1.48.74.74 0 0 0 0-1.48Zm60.333 34.834a.74.74 0 1 0 0 1.481.74.74 0 0 0 0-1.481Zm-60.333 0a.741.741 0 1 0 0 1.482.741.741 0 0 0 0-1.482Zm0 17.416a.741.741 0 1 0 0 1.482.741.741 0 0 0 0-1.482Zm5.028 43.542a.74.74 0 1 0 0 1.48.74.74 0 0 0 0-1.48Z"/><path fill="#C2C5CB" d="M362-44.351v2.952L257.269 140h-1.704L361.87-44.126l.13-.225Zm-.13-17.191L245.509 140h1.704L362-58.816v-2.951l-.13.225Zm0 52.25L275.675 140h1.704L362-6.566v-2.951l-.13.225Zm0-17.417L265.619 140h1.704L362-23.983v-2.95l-.13.224Zm0 34.833L285.731 140h1.704L362 10.85V7.9l-.13.224Zm0 17.417L295.785 140h1.704L362 28.267v-2.951l-.13.225ZM181 115.35v-2.952L76.269-69h-1.704L180.87 115.126l.13.225Zm-.13 17.191L64.509-69h1.704L181 129.816v2.951l-.13-.225Zm0-52.25L94.675-69h1.704L181 77.566v2.951l-.13-.225Zm0 17.417L84.62-69h1.703L181 94.983v2.95l-.13-.224Zm0-34.833L104.731-69h1.704L181 60.15v2.95l-.13-.224Zm0-17.417L114.785-69h1.704L181 42.733v2.951l-.13-.225Z"/><g clip-path="url(#a)"><path fill="#C2C5CB" d="M317.559 348.925 196.935 140h-1.703l.043.075L315.898 349h1.705l-.044-.075Zm10.098.075h-1.704L205.33 140.075l-.044-.075h1.704l120.624 208.925.043.075Zm-20.11 0h-1.705L185.219 140.075l-.043-.075h1.703l120.625 208.925.043.075Zm30.166 0h-1.704L215.385 140.075l-.043-.075h1.704L337.67 348.925l.043.075Zm10.056 0h-1.704L225.441 140.075l-.043-.075h1.704l120.623 208.925.044.075Zm10.055 0h-1.704L235.497 140.075l-.044-.075h1.704l120.624 208.925.043.075Z"/></g><g fill="#C2C5CB" clip-path="url(#b)"><path d="M362 533.351v-2.952L257.269 349h-1.704L361.87 533.126l.13.225Zm-.13 17.191L245.509 349h1.704L362 547.816v2.951l-.13-.225Zm0-52.25L275.675 349h1.704L362 495.566v2.951l-.13-.225Zm0 17.417L265.619 349h1.704L362 512.983v2.951l-.13-.225Zm0-34.833L285.731 349h1.704L362 478.149v2.952l-.13-.225Zm0-17.417L295.785 349h1.704L362 460.733v2.951l-.13-.225Zm-44.311 94.466L196.935 349h-1.703l.043.075L315.898 558h1.705l-.044-.075Zm10.098.075h-1.704L205.33 349.075l-.044-.075h1.705l120.623 208.925.043.075Zm-20.11 0h-1.705L185.22 349.075l-.044-.075h1.703l120.625 208.925.043.075Zm30.166 0h-1.704L215.386 349.075l-.044-.075h1.704L337.67 557.925l.043.075Zm10.056 0h-1.704L225.441 349.075l-.043-.075h1.704l120.623 208.925.044.075Zm10.055 0h-1.704L235.497 349.075l-.044-.075h1.704l120.624 208.925.043.075Z"/></g><defs><clipPath id="a"><path fill="#fff" d="M181 140h181v209H181z"/></clipPath><clipPath id="b"><path fill="#fff" d="M181 349h181v209H181z"/></clipPath></defs></svg>