<svg width="720" height="512" viewBox="0 0 720 512" fill="none" xmlns="http://www.w3.org/2000/svg">
<g clip-path="url(#clip0_12626_149377)">
<mask id="mask0_12626_149377" style="mask-type:alpha" maskUnits="userSpaceOnUse" x="-318" y="-128" width="1038" height="640">
<rect x="-318" y="-128" width="1037.5" height="640" fill="black"/>
</mask>
<g mask="url(#mask0_12626_149377)">
<g clip-path="url(#clip1_12626_149377)">
<path d="M198.034 247.353L60.1478 326.955C57.2189 328.646 57.2265 331.391 60.1648 333.088L326.18 486.658C329.118 488.355 333.874 488.359 336.803 486.668L474.689 407.067C477.618 405.376 477.611 402.63 474.672 400.934L208.657 247.363C205.719 245.667 200.963 245.662 198.034 247.353Z" fill="url(#paint0_linear_12626_149377)"/>
<path fill-rule="evenodd" clip-rule="evenodd" d="M113.596 329.593L132.246 326.735L157.517 341.324L138.858 344.176L113.596 329.593Z" fill="white"/>
<path d="M134.2 321.107L113.941 324.23L119.094 327.205L132.909 325.077L148.377 334.007L154.847 333.006C158.869 332.389 160.08 330.69 157.508 329.205L146.159 322.653C143.578 321.194 138.212 320.495 134.2 321.107Z" fill="white"/>
<path d="M223.684 380.278C219.388 382.761 213.66 384.245 207.591 384.447C201.521 384.648 195.536 383.553 190.775 381.37C186.015 379.187 182.813 376.069 181.78 372.61C180.747 369.152 181.955 365.595 185.173 362.617C187.307 360.644 190.242 359.002 193.725 357.832C197.208 356.663 201.132 356.002 205.158 355.907L205.379 360.791C202.237 360.883 199.21 361.499 196.663 362.565C194.117 363.631 192.161 365.101 191.033 366.796C189.582 368.927 189.53 371.291 190.889 373.443C192.247 375.594 194.922 377.384 198.408 378.476C201.895 379.568 205.953 379.886 209.817 379.37C213.682 378.854 217.086 377.54 219.388 375.675C221.223 374.204 222.288 372.459 222.455 370.649L230.95 370.756C230.696 374.335 228.114 377.728 223.719 380.257L223.684 380.278Z" fill="white"/>
<path d="M229.023 367.092C228.738 367.258 228.376 367.372 227.98 367.419C227.587 367.46 227.182 367.435 226.813 367.348C226.438 367.262 226.118 367.112 225.894 366.919C225.677 366.724 225.561 366.497 225.558 366.266C225.556 366.034 225.676 365.808 225.903 365.618C226.124 365.424 226.441 365.272 226.813 365.184C227.185 365.096 227.594 365.073 227.989 365.118C228.38 365.165 228.738 365.277 229.023 365.439C229.397 365.66 229.606 365.957 229.606 366.266C229.606 366.575 229.397 366.871 229.023 367.092Z" fill="white"/>
<path d="M209.869 372.425C209.125 372.862 208.17 373.161 207.129 373.282C206.089 373.405 205.009 373.346 204.027 373.113C203.045 372.881 202.205 372.485 201.613 371.976C201.017 371.468 200.7 370.869 200.703 370.256C200.691 369.641 201.006 369.04 201.605 368.531C202.193 368.021 203.03 367.623 204.01 367.388C204.991 367.153 206.07 367.091 207.111 367.21C208.153 367.332 209.109 367.628 209.86 368.062C210.862 368.64 211.425 369.424 211.427 370.242C211.429 371.06 210.868 371.845 209.869 372.425Z" fill="white"/>
<path d="M225.779 363.321C225.447 363.518 225.007 363.641 224.534 363.671C224.062 363.701 223.586 363.635 223.188 363.484C222.791 363.334 222.496 363.108 222.355 362.846C222.214 362.584 222.234 362.302 222.414 362.048C222.593 361.794 222.92 361.584 223.338 361.453C223.756 361.323 224.24 361.28 224.707 361.333C225.173 361.386 225.593 361.531 225.895 361.743C226.197 361.954 226.362 362.22 226.362 362.495C226.366 362.648 226.316 362.8 226.215 362.942C226.115 363.084 225.967 363.213 225.779 363.321Z" fill="white"/>
<path d="M221.333 365.684C221.047 365.847 220.684 365.957 220.29 366C219.895 366.048 219.485 366.024 219.114 365.934C218.745 365.843 218.429 365.692 218.204 365.5C217.987 365.305 217.871 365.079 217.868 364.847C217.868 364.614 217.991 364.386 218.222 364.194C218.447 364.002 218.767 363.853 219.14 363.766C219.514 363.68 219.923 363.66 220.316 363.709C220.709 363.755 221.069 363.867 221.351 364.031C221.725 364.253 221.931 364.552 221.925 364.862C221.925 365.015 221.872 365.166 221.771 365.307C221.669 365.448 221.52 365.576 221.333 365.684Z" fill="white"/>
<path d="M220.944 360.53C220.661 360.694 220.3 360.805 219.907 360.85C219.514 360.895 219.107 360.872 218.737 360.784C218.367 360.695 218.051 360.545 217.828 360.353C217.606 360.161 217.487 359.935 217.487 359.704C217.487 359.473 217.606 359.247 217.828 359.054C218.051 358.862 218.367 358.712 218.737 358.624C219.107 358.535 219.514 358.512 219.907 358.557C220.3 358.602 220.661 358.714 220.944 358.877C221.324 359.096 221.537 359.394 221.537 359.704C221.537 360.014 221.324 360.311 220.944 360.53Z" fill="white"/>
<path d="M216.843 363.092C216.557 363.255 216.194 363.365 215.8 363.408C215.407 363.454 215 363.432 214.63 363.344C214.26 363.256 213.944 363.106 213.723 362.913C213.504 362.719 213.387 362.492 213.387 362.26C213.387 362.028 213.504 361.801 213.723 361.607C213.944 361.415 214.26 361.265 214.63 361.177C215 361.088 215.407 361.066 215.8 361.112C216.194 361.155 216.557 361.266 216.843 361.428C217.222 361.65 217.435 361.949 217.435 362.26C217.438 362.415 217.387 362.568 217.285 362.711C217.183 362.854 217.033 362.983 216.843 363.092Z" fill="white"/>
<path d="M214.553 358.647C214.272 358.812 213.912 358.924 213.519 358.969C213.125 359.016 212.715 358.993 212.344 358.903C211.976 358.815 211.659 358.668 211.433 358.479C211.211 358.283 211.091 358.055 211.089 357.821C211.089 357.59 211.209 357.364 211.433 357.173C211.659 356.981 211.975 356.83 212.344 356.739C212.716 356.651 213.125 356.628 213.519 356.673C213.91 356.721 214.268 356.833 214.553 356.994C214.745 357.102 214.896 357.23 215 357.372C215.104 357.514 215.157 357.667 215.157 357.821C215.157 357.975 215.104 358.127 215 358.269C214.896 358.411 214.745 358.54 214.553 358.647Z" fill="white"/>
<path d="M274.596 387.636L278.087 395.162L265.059 393.141L274.596 387.636Z" fill="white"/>
<path d="M254.646 405.51L251.464 407.347L273.208 410.715L275.541 415.736L236.403 409.674L252.313 400.489L274.056 403.857L272.89 401.347L255.495 398.652L261.859 394.978L270.556 396.326L279.254 397.673L285.087 410.225L254.646 405.51Z" fill="white"/>
<path d="M335.354 454.705L332.888 453.281L338.006 450.327L336.476 449.444L333.993 450.878L331.518 449.449L343.221 442.693L328.345 440.382L324.341 431.794L312.346 438.718L325.446 446.281L318.993 450.006L299.424 438.708L321.654 425.875L331.801 427.447L335.796 436.08L351.016 438.448L353.668 444.132L335.354 454.705Z" fill="white"/>
<path d="M329.883 450.393L327.408 451.822L329.883 453.251L332.357 451.822L329.883 450.393Z" fill="white"/>
<path d="M331.235 454.215L328.76 455.644L331.235 457.073L333.71 455.644L331.235 454.215Z" fill="white"/>
<path fill-rule="evenodd" clip-rule="evenodd" d="M187.984 289.047L203.584 286.644L215.075 293.277L199.466 295.675L187.984 289.047Z" fill="white"/>
<path fill-rule="evenodd" clip-rule="evenodd" d="M204.672 286.016L216.162 292.65L220.316 283.638L208.826 277.005L204.672 286.016Z" fill="white"/>
<path fill-rule="evenodd" clip-rule="evenodd" d="M170.624 291.69L182.115 298.324L197.724 295.926L186.234 289.292L170.624 291.69Z" fill="white"/>
<path fill-rule="evenodd" clip-rule="evenodd" d="M212.141 302.993L227.768 300.605L216.277 293.971L200.668 296.37L212.141 302.993Z" fill="white"/>
<path d="M254.222 321.582L247.46 336.048L265.757 346.61L290.815 342.707L297.577 328.241L279.28 317.678L254.222 321.582ZM281.419 329.118L279.616 332.976L271.723 334.328L277.548 337.691L275.762 342.232L263.574 335.196L265.067 331.649L273.146 330.19L267.198 326.756L269.239 322.087L281.419 329.118Z" fill="white"/>
<path d="M327.867 349.432L324.553 356.632L327.364 358.255L333.913 367.587L317.747 363.806L314.936 362.184L302.465 364.097L300.449 368.475L303.684 370.343L340.639 379.339L351.405 377.686L354.26 371.476L338.651 350.116L335.416 348.248L327.867 349.432Z" fill="white"/>
<path d="M335.451 348.269L332.137 355.469L334.965 357.101L342.947 369.108L341.603 372.027L351.458 377.716L354.313 371.506L338.704 350.146L335.451 348.269Z" fill="#EAEAEA"/>
<path d="M317.747 363.806L314.936 362.184L312.912 366.567L315.74 368.2L336.547 372.802L337.89 369.884L333.931 367.598L317.747 363.806Z" fill="#EAEAEA"/>
<path d="M359.174 402.377L410.572 411.894L394.194 382.16L359.174 402.377ZM387.37 401.653L384.595 403.255L381.819 401.653L384.595 400.05L387.37 401.653ZM383.207 399.249L380.432 400.852L377.656 399.249L380.432 397.647L383.207 399.249ZM395.696 401.653L392.921 403.255L390.146 401.653L392.921 400.05L395.696 401.653ZM391.533 399.249L388.758 400.851L385.983 399.249L388.758 397.647L391.533 399.249ZM387.37 396.846L384.595 398.448L381.819 396.846L384.595 395.244L387.37 396.846ZM395.679 396.856L392.903 398.458L390.128 396.856L392.903 395.254L395.679 396.856ZM388.74 396.055L385.965 394.453L388.74 392.851L391.516 394.453L388.74 396.055Z" fill="white"/>
<path d="M198.299 247.506C199.705 246.694 201.613 246.238 203.602 246.238C205.591 246.238 207.499 246.694 208.906 247.506L474.071 400.586C475.477 401.398 476.267 402.499 476.267 403.648C476.267 404.796 475.477 405.897 474.071 406.709L336.185 486.311C334.778 487.123 332.871 487.579 330.881 487.579C328.892 487.579 326.985 487.123 325.578 486.311L60.4131 333.231C59.0066 332.419 58.2164 331.318 58.2164 330.169C58.2164 329.021 59.0066 327.92 60.4131 327.108L198.299 247.506ZM197.415 246.996L59.5292 326.598C57.8883 327.545 56.9664 328.83 56.9664 330.169C56.9664 331.509 57.8883 332.794 59.5292 333.741L324.694 486.821C326.335 487.768 328.561 488.301 330.881 488.301C333.202 488.301 335.428 487.768 337.069 486.821L474.954 407.22C476.595 406.272 477.517 404.987 477.517 403.648C477.517 402.308 476.595 401.023 474.954 400.076L209.789 246.996C208.148 246.049 205.923 245.517 203.602 245.517C201.282 245.517 199.056 246.049 197.415 246.996Z" fill="url(#paint1_linear_12626_149377)"/>
<path d="M584.227 119.313L469.45 185.574C466.974 187.004 466.974 189.321 469.45 190.751L584.227 257.011C586.703 258.441 590.718 258.441 593.194 257.011L707.97 190.751C710.447 189.321 710.447 187.004 707.97 185.574L593.194 119.313C590.718 117.884 586.703 117.884 584.227 119.313Z" fill="url(#paint2_linear_12626_149377)"/>
<path d="M584.422 295.97C628.383 295.901 663.988 274.858 663.948 248.97C663.907 223.082 628.236 202.151 584.275 202.22C540.313 202.289 504.709 223.332 504.749 249.22C504.79 275.108 540.461 296.039 584.422 295.97Z" fill="url(#paint3_radial_12626_149377)" fill-opacity="0.6"/>
<path d="M433.005 31.0821L319.868 96.3962C316.939 98.087 316.939 100.828 319.868 102.519L433.005 167.833C435.934 169.524 440.683 169.524 443.612 167.833L556.749 102.519C559.678 100.828 559.678 98.087 556.749 96.3962L443.612 31.0821C440.683 29.3912 435.934 29.3912 433.005 31.0821Z" fill="url(#paint4_linear_12626_149377)"/>
<g filter="url(#filter0_b_12626_149377)">
<path d="M442.563 168.279C440.176 169.647 436.324 169.647 433.937 168.279L318.257 102.01C315.843 100.627 315.843 98.3731 318.258 96.9903L415.242 41.4597L433.905 30.2375C436.288 28.805 440.246 28.7861 442.669 30.1957L458.057 39.1474L558.277 96.9903C560.675 98.3747 560.668 100.621 558.26 102L442.563 168.279Z" fill="url(#paint5_linear_12626_149377)"/>
<path d="M442.563 168.279C440.176 169.647 436.324 169.647 433.937 168.279L318.257 102.01C315.843 100.627 315.843 98.3731 318.258 96.9903L415.242 41.4597L433.905 30.2375C436.288 28.805 440.246 28.7861 442.669 30.1957L458.057 39.1474L558.277 96.9903C560.675 98.3747 560.668 100.621 558.26 102L442.563 168.279Z" fill="url(#paint6_diamond_12626_149377)" fill-opacity="0.1"/>
</g>
<path d="M433.005 31.0822C434.412 30.2703 436.319 29.8141 438.309 29.8141C440.298 29.8141 442.205 30.2702 443.612 31.0822L556.749 96.3963C558.156 97.2083 558.946 98.3096 558.946 99.4579C558.946 100.606 558.156 101.707 556.749 102.519L443.612 167.834C442.205 168.646 440.298 169.102 438.309 169.102C436.319 169.102 434.412 168.646 433.005 167.834L319.868 102.519C318.462 101.707 317.671 100.606 317.671 99.4579C317.671 98.3096 318.462 97.2083 319.868 96.3963L433.005 31.0822ZM432.121 30.572L318.984 95.886C317.343 96.8333 316.421 98.1182 316.421 99.4579C316.421 100.798 317.343 102.082 318.984 103.03L432.121 168.344C433.762 169.291 435.988 169.823 438.309 169.823C440.629 169.823 442.855 169.291 444.496 168.344L557.633 103.03C559.274 102.082 560.196 100.798 560.196 99.4579C560.196 98.1182 559.274 96.8333 557.633 95.886L444.496 30.572C442.855 29.6246 440.629 29.0925 438.309 29.0925C435.988 29.0925 433.762 29.6247 432.121 30.572Z" fill="url(#paint7_linear_12626_149377)"/>
<path fill-rule="evenodd" clip-rule="evenodd" d="M419.977 147.3C419.274 147.706 418.879 148.257 418.879 148.831C418.879 149.405 419.274 149.956 419.977 150.362L435.887 159.547C436.59 159.953 437.544 160.181 438.538 160.181C439.533 160.181 440.487 159.953 441.19 159.547L454.21 152.031C454.654 151.771 454.904 151.421 454.904 151.056C454.904 150.691 454.654 150.341 454.21 150.081L436.373 139.784C435.925 139.526 435.318 139.38 434.685 139.38C434.051 139.38 433.444 139.526 432.996 139.784L419.977 147.3ZM449.145 148.831L434.923 140.621C434.892 140.602 434.855 140.586 434.814 140.576C434.772 140.565 434.728 140.559 434.682 140.559C434.637 140.558 434.592 140.563 434.55 140.573C434.507 140.583 434.469 140.597 434.437 140.616L421.418 148.132C421.259 148.224 421.133 148.332 421.048 148.452C420.962 148.572 420.919 148.7 420.92 148.83C420.92 148.959 420.966 149.087 421.053 149.207C421.14 149.326 421.267 149.434 421.426 149.525L434.968 157.342C435.153 157.019 435.468 156.725 435.887 156.485L449.145 148.831ZM437.336 158.71C437.655 158.894 438.088 158.997 438.538 158.997C438.989 158.997 439.422 158.894 439.74 158.71L452.76 151.194C452.823 151.157 452.859 151.108 452.859 151.056C452.859 151.004 452.823 150.955 452.76 150.918L450.586 149.663L437.327 157.317C437.169 157.408 437.043 157.517 436.958 157.637C436.872 157.757 436.829 157.885 436.83 158.014C436.83 158.144 436.876 158.272 436.963 158.391C437.05 158.511 437.177 158.619 437.336 158.71Z" fill="white"/>
<path d="M858.264 273.359L744.305 207.57C741.359 205.87 736.586 205.867 733.645 207.565L469.408 360.11C466.467 361.807 466.471 364.562 469.417 366.263L583.376 432.052C586.322 433.752 591.094 433.755 594.035 432.057L858.273 279.513C861.214 277.815 861.21 275.06 858.264 273.359Z" fill="url(#paint8_linear_12626_149377)"/>
<g filter="url(#filter1_b_12626_149377)">
<rect width="144.093" height="317.673" rx="7.5" transform="matrix(0.866025 0.5 -0.866025 0.5 740.257 204.084)" fill="url(#paint9_linear_12626_149377)"/>
<rect width="144.093" height="317.673" rx="7.5" transform="matrix(0.866025 0.5 -0.866025 0.5 740.257 204.084)" fill="url(#paint10_diamond_12626_149377)" fill-opacity="0.2"/>
</g>
<path d="M733.199 208.007C734.605 207.195 736.513 206.739 738.502 206.739C740.491 206.739 742.399 207.195 743.805 208.007L856.942 273.321C858.349 274.133 859.139 275.234 859.139 276.382C859.139 277.531 858.349 278.632 856.942 279.444L593.784 431.366C592.377 432.177 590.47 432.634 588.48 432.634C586.491 432.634 584.584 432.177 583.177 431.366L470.04 366.051C468.634 365.239 467.843 364.138 467.843 362.99C467.843 361.842 468.634 360.74 470.04 359.928L733.199 208.007ZM732.315 207.497L469.156 359.418C467.515 360.365 466.593 361.65 466.593 362.99C466.593 364.33 467.515 365.614 469.156 366.562L582.293 431.876C583.934 432.823 586.16 433.355 588.48 433.355C590.801 433.355 593.027 432.823 594.668 431.876L857.826 279.954C859.467 279.007 860.389 277.722 860.389 276.382C860.389 275.043 859.467 273.758 857.826 272.811L744.689 207.497C743.048 206.549 740.823 206.017 738.502 206.017C736.181 206.017 733.956 206.549 732.315 207.497Z" fill="url(#paint11_linear_12626_149377)"/>
<path d="M580.543 414.731C580.531 414.66 580.543 414.588 580.579 414.52C580.616 414.451 580.675 414.388 580.754 414.333C580.833 414.278 580.93 414.232 581.039 414.199C581.149 414.166 581.268 414.145 581.392 414.139L588.684 413.756C588.82 413.749 588.958 413.76 589.086 413.787C589.215 413.814 589.332 413.857 589.429 413.913C589.526 413.968 589.6 414.036 589.647 414.11C589.694 414.185 589.712 414.264 589.7 414.343L589.037 418.553C589.014 418.695 588.894 418.827 588.704 418.92C588.514 419.012 588.269 419.058 588.021 419.048C587.897 419.041 587.778 419.021 587.668 418.987C587.559 418.954 587.462 418.909 587.383 418.854C587.304 418.799 587.245 418.735 587.209 418.667C587.172 418.598 587.16 418.527 587.172 418.456L587.729 414.899L581.559 415.215C581.437 415.223 581.314 415.216 581.197 415.195C581.079 415.175 580.97 415.141 580.875 415.096C580.781 415.051 580.703 414.995 580.646 414.933C580.589 414.87 580.554 414.801 580.543 414.731Z" fill="white"/>
<path d="M593.236 416.313C593.06 416.414 592.961 416.552 592.961 416.695C592.961 416.839 593.06 416.977 593.236 417.078C593.411 417.18 593.65 417.237 593.899 417.237C594.147 417.237 594.386 417.18 594.561 417.078L599.423 414.272C599.599 414.17 599.697 414.032 599.697 413.889C599.697 413.745 599.599 413.608 599.423 413.506C599.247 413.405 599.009 413.348 598.76 413.348C598.511 413.348 598.273 413.405 598.097 413.506L593.236 416.313Z" fill="white"/>
<path fill-rule="evenodd" clip-rule="evenodd" d="M573.746 416.083C573.101 415.711 572.739 415.206 572.739 414.68C572.739 414.153 573.101 413.649 573.746 413.276L588.33 404.857C588.975 404.485 589.849 404.276 590.761 404.276C591.673 404.276 592.547 404.485 593.192 404.857L606.008 412.256C606.649 412.629 607.01 413.133 607.01 413.659C607.01 414.185 606.649 414.689 606.008 415.062L591.468 423.456C590.823 423.828 589.949 424.038 589.037 424.038C588.126 424.038 587.251 423.828 586.607 423.456L573.746 416.083ZM575.072 414.042C574.779 414.211 574.614 414.44 574.614 414.68C574.614 414.919 574.779 415.148 575.072 415.318L587.888 422.716C588.181 422.886 588.579 422.981 588.993 422.981C589.408 422.981 589.805 422.886 590.098 422.716L604.682 414.297C604.975 414.128 605.14 413.898 605.14 413.659C605.14 413.42 604.975 413.19 604.682 413.021L591.866 405.622C591.573 405.453 591.175 405.358 590.761 405.358C590.346 405.358 589.949 405.453 589.656 405.622L575.072 414.042Z" fill="white"/>
<path d="M578.298 235.617C578.106 235.728 577.998 235.879 577.998 236.036C577.998 236.193 578.106 236.343 578.298 236.454C578.491 236.565 578.751 236.627 579.023 236.627C579.295 236.627 579.556 236.565 579.748 236.454L583.628 234.214C583.82 234.103 583.928 233.953 583.928 233.796C583.928 233.639 583.82 233.488 583.628 233.377C583.436 233.266 583.175 233.204 582.903 233.204C582.631 233.204 582.371 233.266 582.179 233.377L578.298 235.617Z" fill="white"/>
<path fill-rule="evenodd" clip-rule="evenodd" d="M570.37 235.745C569.666 236.151 569.271 236.701 569.271 237.276C569.271 237.85 569.666 238.4 570.37 238.806L584.353 246.879C585.056 247.285 586.01 247.513 587.004 247.513C587.999 247.513 588.953 247.285 589.656 246.879L591.088 246.052L591.936 246.787C592.044 246.878 592.192 246.95 592.365 246.995C592.537 247.041 592.728 247.059 592.918 247.047C593.104 247.033 593.281 246.989 593.427 246.921C593.574 246.852 593.685 246.762 593.748 246.659L595.773 243.45L601.332 242.281C601.513 242.246 601.673 242.182 601.793 242.097C601.913 242.011 601.989 241.908 602.013 241.798C602.036 241.689 602.005 241.578 601.923 241.479C601.842 241.379 601.714 241.295 601.553 241.235L600.28 240.745L601.712 239.919C602.415 239.513 602.811 238.962 602.811 238.388C602.811 237.814 602.415 237.263 601.712 236.857L587.729 228.785C587.026 228.379 586.072 228.151 585.078 228.151C584.083 228.151 583.129 228.379 582.426 228.785L570.37 235.745ZM587.411 242.868L589.93 245.047L588.206 246.042C587.888 246.226 587.455 246.329 587.004 246.329C586.553 246.329 586.121 246.226 585.802 246.042L571.819 237.97C571.661 237.878 571.536 237.77 571.451 237.651C571.365 237.532 571.321 237.405 571.321 237.276C571.321 237.147 571.365 237.019 571.451 236.9C571.536 236.781 571.661 236.673 571.819 236.582L583.875 229.622C584.033 229.531 584.221 229.458 584.427 229.409C584.633 229.36 584.854 229.334 585.077 229.334C585.301 229.334 585.522 229.36 585.728 229.409C585.934 229.458 586.122 229.531 586.28 229.622L600.263 237.694C600.581 237.878 600.761 238.128 600.761 238.388C600.761 238.648 600.581 238.898 600.263 239.082L598.539 240.077L594.765 238.623C594.657 237.875 594.181 237.161 593.394 236.565C592.606 235.968 591.539 235.514 590.319 235.256C589.099 234.998 587.777 234.947 586.508 235.108C585.24 235.27 584.077 235.638 583.159 236.168C582.24 236.698 581.603 237.369 581.323 238.102C581.043 238.834 581.132 239.598 581.579 240.302C582.026 241.006 582.813 241.622 583.846 242.077C584.879 242.531 586.116 242.806 587.411 242.868ZM592.741 239.016C592.732 238.968 592.732 238.92 592.741 238.873C592.717 238.334 592.419 237.811 591.885 237.368C591.352 236.926 590.605 236.584 589.738 236.384C588.87 236.184 587.92 236.135 587.006 236.244C586.091 236.352 585.251 236.613 584.591 236.995C583.931 237.376 583.478 237.861 583.29 238.389C583.102 238.917 583.186 239.465 583.533 239.966C583.879 240.467 584.472 240.898 585.238 241.206C586.004 241.514 586.91 241.686 587.844 241.7L588.1 241.695C589.321 241.68 590.483 241.393 591.344 240.893C592.193 240.395 592.683 239.73 592.714 239.031L592.741 239.016ZM592.794 241.73C591.945 242.218 590.891 242.57 589.736 242.751L592.52 245.154L593.996 242.781C594.049 242.7 594.132 242.626 594.239 242.564C594.345 242.503 594.473 242.455 594.615 242.424L598.733 241.567L594.562 239.965C594.248 240.64 593.628 241.254 592.767 241.746L592.794 241.73Z" fill="white"/>
<path d="M279.846 119.501L166.709 184.815C163.78 186.506 163.78 189.248 166.709 190.938L431.874 344.018C434.803 345.709 439.552 345.709 442.48 344.018L555.618 278.704C558.546 277.013 558.546 274.272 555.618 272.581L290.453 119.501C287.524 117.81 282.775 117.81 279.846 119.501Z" fill="url(#paint12_linear_12626_149377)"/>
<path d="M279.846 119.501C281.252 118.689 283.16 118.233 285.149 118.233C287.138 118.233 289.046 118.689 290.453 119.501L555.618 272.581C557.024 273.393 557.814 274.494 557.814 275.643C557.814 276.791 557.024 277.892 555.618 278.704L442.481 344.018C441.074 344.83 439.166 345.286 437.177 345.286C435.188 345.286 433.28 344.83 431.874 344.018L166.709 190.938C165.302 190.126 164.512 189.025 164.512 187.877C164.512 186.729 165.302 185.627 166.709 184.815L279.846 119.501ZM278.962 118.991L165.825 184.305C164.184 185.252 163.262 186.537 163.262 187.877C163.262 189.217 164.184 190.501 165.825 191.449L430.99 344.528C432.631 345.476 434.857 346.008 437.177 346.008C439.498 346.008 441.723 345.476 443.364 344.528L556.502 279.214C558.142 278.267 559.064 276.982 559.064 275.643C559.064 274.303 558.142 273.018 556.502 272.071L291.336 118.991C289.696 118.044 287.47 117.511 285.149 117.511C282.829 117.511 280.603 118.044 278.962 118.991Z" fill="url(#paint13_linear_12626_149377)"/>
<path fill-rule="evenodd" clip-rule="evenodd" d="M431.352 320.663C431.184 320.69 431.03 320.742 430.906 320.813C430.782 320.885 430.692 320.974 430.645 321.072L426.297 329.981C426.252 330.082 426.253 330.188 426.3 330.288C426.348 330.389 426.44 330.48 426.568 330.554C426.695 330.628 426.854 330.681 427.028 330.708C427.202 330.736 427.386 330.736 427.561 330.71L431.812 330.022C431.817 330.172 431.925 330.315 432.113 330.42L436.93 333.201C437.066 333.282 437.241 333.337 437.434 333.359L437.655 332.782L437.442 333.364C437.509 333.373 437.577 333.378 437.646 333.379C437.814 333.394 438.061 333.405 438.362 333.415C439.197 333.418 440.031 333.365 440.845 333.257C443.773 332.821 446.425 331.913 448.491 330.639C450.656 329.516 452.138 328.02 452.716 326.373C452.835 325.929 452.838 325.476 452.725 325.031C452.691 324.904 452.643 324.778 452.583 324.654L452.522 324.536L451.576 324.756L452.522 324.536C452.467 324.464 452.389 324.398 452.292 324.342L447.475 321.561C447.293 321.453 447.046 321.391 446.785 321.388L447.978 318.933C448.028 318.832 448.029 318.725 447.983 318.624C447.937 318.522 447.845 318.429 447.716 318.355C447.588 318.281 447.427 318.228 447.251 318.201C447.075 318.174 446.89 318.175 446.714 318.204L431.352 320.663ZM446.264 322.444L443.665 327.771C443.618 327.869 443.529 327.958 443.405 328.029C443.281 328.101 443.127 328.153 442.958 328.18L433.73 329.68L438.15 332.231C438.269 332.242 438.391 332.247 438.512 332.246C439.181 332.251 439.849 332.208 440.501 332.119C443.05 331.74 445.357 330.946 447.147 329.833C449 328.885 450.276 327.618 450.789 326.22C450.891 325.892 450.906 325.556 450.833 325.225L450.763 325.031L446.264 322.444ZM441.853 327.133L428.736 329.266L432.422 321.689L445.548 319.561L441.853 327.133Z" fill="white"/>
<path d="M583.265 119.868L470.128 185.182C467.199 186.873 467.199 189.615 470.128 191.306L583.265 256.62C586.194 258.311 590.943 258.311 593.872 256.62L707.009 191.306C709.938 189.615 709.938 186.873 707.009 185.182L593.872 119.868C590.943 118.178 586.194 118.178 583.265 119.868Z" stroke="url(#paint14_linear_12626_149377)" stroke-width="1.25"/>
<path opacity="0.65" d="M355.462 85.5633L334.249 97.8097C332.785 98.6551 332.785 100.026 334.249 100.871L355.462 113.118C356.927 113.963 359.301 113.963 360.766 113.118L381.979 100.871C383.443 100.026 383.443 98.6551 381.979 97.8097L360.766 85.5633C359.301 84.7178 356.927 84.7178 355.462 85.5633Z" stroke="#4D4D4D" stroke-width="1.25"/>
<path opacity="0.65" d="M392.028 106.673L370.815 118.919C369.351 119.765 369.351 121.136 370.815 121.981L392.028 134.227C393.493 135.073 395.867 135.073 397.332 134.227L418.545 121.981C420.009 121.136 420.009 119.765 418.545 118.919L397.332 106.673C395.867 105.828 393.493 105.828 392.028 106.673Z" stroke="#4D4D4D" stroke-width="1.25"/>
<path opacity="0.65" d="M434.879 39.7158L370.992 76.5979C369.528 77.4433 369.528 78.814 370.992 79.6595L392.205 91.9058C393.67 92.7513 396.044 92.7513 397.508 91.9058L461.396 55.0238C462.86 54.1784 462.86 52.8077 461.396 51.9622L440.182 39.7158C438.718 38.8704 436.344 38.8704 434.879 39.7158Z" stroke="#4D4D4D" stroke-width="1.25"/>
<path opacity="0.65" d="M282.135 127.895L181.479 186.004C180.014 186.849 180.014 188.22 181.479 189.066L202.692 201.312C204.156 202.157 206.531 202.157 207.995 201.312L308.652 143.203C310.116 142.357 310.116 140.987 308.652 140.141L287.439 127.895C285.974 127.049 283.6 127.049 282.135 127.895Z" stroke="#4D4D4D" stroke-width="1.25"/>
<path opacity="0.65" d="M249.06 190.607L219.256 207.813C217.791 208.658 217.791 210.029 219.256 210.874L250.846 229.111C252.31 229.957 254.684 229.957 256.149 229.111L285.954 211.905C287.418 211.06 287.418 209.689 285.954 208.844L254.364 190.607C252.899 189.761 250.525 189.761 249.06 190.607Z" stroke="#4D4D4D" stroke-width="1.25"/>
<path d="M270.998 198.638L329.344 164.955L328.645 164.552L270.3 198.235L270.998 198.638Z" fill="url(#paint15_linear_12626_149377)"/>
<path d="M334.585 164.471C335.991 163.659 335.991 162.343 334.585 161.532C333.179 160.72 330.9 160.72 329.494 161.532C328.088 162.343 328.088 163.659 329.494 164.471C330.9 165.282 333.179 165.282 334.585 164.471Z" stroke="#999999" stroke-width="1.25"/>
<path d="M556.422 384.487L640.479 335.961L639.48 335.384L555.423 383.911L556.422 384.487Z" fill="url(#paint16_linear_12626_149377)"/>
<path d="M648.028 335.257C650.053 334.087 650.053 332.191 648.028 331.022C646.002 329.852 642.717 329.852 640.691 331.022C638.665 332.191 638.665 334.087 640.691 335.257C642.717 336.426 646.002 336.426 648.028 335.257Z" stroke="#999999" stroke-width="1.25"/>
<path d="M459.676 102.095L432.985 86.6868L432.454 86.9936L459.144 102.402L459.676 102.095Z" fill="url(#paint17_linear_12626_149377)"/>
<path d="M517 198.403L575.344 232.088L576.042 231.685L517.698 198L517 198.403Z" fill="url(#paint18_linear_12626_149377)"/>
<path d="M432.312 86.5036C433.718 85.692 433.718 84.3761 432.312 83.5645C430.906 82.7529 428.627 82.7529 427.221 83.5645C425.815 84.3761 425.815 85.692 427.221 86.5036C428.627 87.3152 430.906 87.3152 432.312 86.5036Z" stroke="#999999" stroke-width="1.25"/>
<path opacity="0.65" d="M585.431 129.058L564.218 141.305C562.753 142.15 562.753 143.521 564.218 144.366L585.431 156.613C586.895 157.458 589.27 157.458 590.734 156.613L611.948 144.366C613.412 143.521 613.412 142.15 611.948 141.305L590.734 129.058C589.27 128.213 586.895 128.213 585.431 129.058Z" stroke="#595757" stroke-width="1.25"/>
<path opacity="0.65" d="M586.997 181.418L565.784 193.664C564.32 194.51 564.32 195.881 565.784 196.726L586.997 208.972C588.462 209.818 590.836 209.818 592.301 208.972L613.514 196.726C614.978 195.881 614.978 194.51 613.514 193.664L592.301 181.418C590.836 180.573 588.462 180.573 586.997 181.418Z" stroke="#595757" stroke-width="1.25"/>
<path opacity="0.65" d="M548.882 150.648L527.669 162.894C526.205 163.74 526.205 165.11 527.669 165.956L548.882 178.202C550.347 179.048 552.721 179.048 554.186 178.202L575.399 165.956C576.863 165.11 576.863 163.74 575.399 162.894L554.186 150.648C552.721 149.802 550.347 149.802 548.882 150.648Z" stroke="#595757" stroke-width="1.25"/>
<path d="M676.045 301.542C673.585 300.122 673.585 297.818 676.045 296.398L697.696 283.898C700.157 282.478 704.147 282.478 706.608 283.898L728.259 296.398C730.72 297.818 730.72 300.122 728.259 301.542L706.608 314.041C704.147 315.462 700.157 315.462 697.696 314.041L676.045 301.542Z" stroke="white" stroke-width="2.21013"/>
<g opacity="0.6">
<path d="M702.393 318.267L733.672 300.208L733.672 387.752L702.393 405.811L702.393 318.267Z" fill="url(#paint19_linear_12626_149377)" fill-opacity="0.7"/>
<path d="M702.393 318.267L671.115 300.208L671.115 415.286L702.393 433.345L702.393 318.267Z" fill="url(#paint20_linear_12626_149377)" fill-opacity="0.65"/>
<path d="M671.026 263.954L702.392 245.845L702.392 282.064L671.026 300.173L671.026 263.954Z" fill="#5A00CC" fill-opacity="0.38"/>
<path d="M733.758 263.954L702.392 245.845L702.392 282.064L733.758 300.173L733.758 263.954Z" fill="#56009A" fill-opacity="0.38"/>
<rect width="36.2186" height="36.2186" transform="matrix(-0.866025 -0.5 0.866025 -0.5 702.292 282.113)" fill="url(#paint21_linear_12626_149377)"/>
<rect width="36.2186" height="36.2186" transform="matrix(-0.866025 -0.5 0.866025 -0.5 702.292 318.235)" fill="url(#paint22_linear_12626_149377)" fill-opacity="0.9"/>
<path d="M702.404 282.063L671.038 263.954L671.038 300.173L702.404 318.282L702.404 282.063Z" fill="url(#paint23_linear_12626_149377)" fill-opacity="0.9"/>
<path d="M702.392 282.055L733.758 263.945L733.758 300.164L702.392 318.273L702.392 282.055Z" fill="url(#paint24_linear_12626_149377)" fill-opacity="0.9"/>
</g>
<path d="M474.015 99.8405L509.102 79.2921L552.159 104.093" stroke="url(#paint25_linear_12626_149377)" stroke-width="1.25" stroke-dasharray="9.41 14.12"/>
<path d="M471.987 98.7109L476.041 101.052" stroke="white" stroke-width="1.25"/>
<g filter="url(#filter2_d_12626_149377)">
<path d="M382.794 151.854L450.431 113.261" stroke="url(#paint26_linear_12626_149377)" stroke-width="1.25" stroke-dasharray="9.41 14.12"/>
<path d="M452.457 114.39L448.402 112.05" stroke="white" stroke-width="1.25"/>
</g>
<circle r="2.46965" transform="matrix(0.866025 -0.5 2.20305e-08 1 462.485 104.793)" stroke="white" stroke-width="1.25"/>
<path d="M236.882 144.228L512.48 303.345L436.703 347.095L161.105 187.978L236.882 144.228Z" fill="url(#paint27_linear_12626_149377)" fill-opacity="0.25"/>
</g>
<g opacity="0.85">
<rect width="32.1022" height="32.1022" transform="matrix(-0.866025 0.5 0.866025 0.5 588.841 145.845)" fill="url(#paint28_linear_12626_149377)"/>
<rect width="32.1022" height="32.1022" transform="matrix(-0.866025 0.5 0.866025 0.5 588.841 145.845)" fill="url(#paint29_linear_12626_149377)" fill-opacity="0.16"/>
<rect width="32.0712" height="9.43901" transform="matrix(-0.866025 -0.5 -2.20305e-08 1 588.841 177.947)" fill="black"/>
<rect width="32.0712" height="9.43901" transform="matrix(-0.866025 -0.5 -2.20305e-08 1 588.841 177.947)" fill="black"/>
<rect width="32.0712" height="9.43901" transform="matrix(-0.866025 -0.5 -2.20305e-08 1 588.841 177.947)" fill="url(#paint30_radial_12626_149377)" fill-opacity="0.1"/>
<rect width="32.1022" height="9.48871" transform="matrix(-0.866025 0.5 2.20305e-08 1 616.642 161.896)" fill="url(#paint31_linear_12626_149377)"/>
<rect width="32.1022" height="9.48871" transform="matrix(-0.866025 0.5 2.20305e-08 1 616.642 161.896)" fill="url(#paint32_linear_12626_149377)" fill-opacity="0.12"/>
<path d="M607.041 160.94C607.944 161.467 607.944 162.321 607.041 162.848C606.137 163.375 604.673 163.375 603.77 162.848C602.867 162.321 602.867 161.467 603.77 160.94C604.673 160.413 606.137 160.413 607.041 160.94Z" fill="url(#paint33_linear_12626_149377)"/>
</g>
<path d="M588.742 187.593L560.926 171.533L560.926 212.519L588.742 228.578L588.742 187.593Z" fill="url(#paint34_linear_12626_149377)" fill-opacity="0.7"/>
<path d="M588.725 187.546L616.541 171.487L616.541 217.285L588.725 233.345L588.725 187.546Z" fill="url(#paint35_linear_12626_149377)" fill-opacity="0.55"/>
<g filter="url(#filter3_bd_12626_149377)">
<rect width="40.3809" height="40.3809" rx="3.75" transform="matrix(-0.866044 0.499967 0.866044 0.499967 375.546 218.504)" fill="url(#paint36_linear_12626_149377)"/>
</g>
<rect opacity="0.3" x="1.08256" width="28.7467" height="28.7467" transform="matrix(0.866044 -0.499967 0.866044 0.499967 388.681 261.398)" stroke="#D3FDEB" stroke-width="1.25" stroke-dasharray="5.98 5.98"/>
<rect width="29.9967" height="29.9967" transform="matrix(0.866044 -0.499967 0.866044 0.499967 271.632 238.361)" fill="url(#paint37_linear_12626_149377)"/>
<rect opacity="0.2" width="29.9967" height="29.9967" transform="matrix(0.866044 -0.499967 0.866044 0.499967 310.6 260.857)" fill="url(#paint38_linear_12626_149377)"/>
<rect opacity="0.2" width="29.9967" height="29.9967" transform="matrix(0.866044 -0.499967 0.866044 0.499967 349.568 283.353)" fill="url(#paint39_linear_12626_149377)"/>
<rect opacity="0.7" width="29.9967" height="29.9967" transform="matrix(0.866044 -0.499967 0.866044 0.499967 310.6 215.865)" fill="url(#paint40_linear_12626_149377)"/>
<rect width="29.9967" height="29.9967" transform="matrix(0.866044 -0.499967 0.866044 0.499967 349.567 193.368)" fill="url(#paint41_linear_12626_149377)"/>
<rect opacity="0.3" x="1.08256" width="28.7467" height="28.7467" transform="matrix(0.866044 -0.499967 0.866044 0.499967 388.681 216.406)" stroke="#D3FDEB" stroke-width="1.25" stroke-dasharray="5.98 5.98"/>
<path d="M323.507 238.849L297.645 253.78L297.645 201.997L323.507 187.066L323.507 238.849Z" fill="url(#paint42_linear_12626_149377)" fill-opacity="0.65"/>
<path d="M271.782 238.849L297.644 253.78L297.644 182.384L271.782 167.452L271.782 238.849Z" fill="url(#paint43_linear_12626_149377)" fill-opacity="0.65"/>
<path d="M401.219 193.339L375.357 208.271L375.357 156.488L401.219 141.556L401.219 193.339Z" fill="url(#paint44_linear_12626_149377)" fill-opacity="0.65"/>
<path d="M349.494 193.339L375.356 208.271L375.356 136.874L349.494 121.942L349.494 193.339Z" fill="url(#paint45_linear_12626_149377)" fill-opacity="0.65"/>
<rect opacity="0.4" width="26.7274" height="26.7274" transform="matrix(-0.866025 -0.5 0.866025 -0.5 395.322 133.334)" fill="url(#paint46_linear_12626_149377)"/>
<g opacity="0.9">
<path fill-rule="evenodd" clip-rule="evenodd" d="M372.176 120.012L395.311 95.845V133.345L372.176 120.012Z" fill="url(#paint47_linear_12626_149377)"/>
<path fill-rule="evenodd" clip-rule="evenodd" d="M372.176 120.012L395.311 95.845V133.345L372.176 120.012Z" fill="url(#paint48_linear_12626_149377)" fill-opacity="0.1"/>
</g>
<g opacity="0.9">
<path fill-rule="evenodd" clip-rule="evenodd" d="M418.45 120.012L395.316 95.845V133.345L418.45 120.012Z" fill="url(#paint49_linear_12626_149377)"/>
<path fill-rule="evenodd" clip-rule="evenodd" d="M418.45 120.012L395.316 95.845V133.345L418.45 120.012Z" fill="url(#paint50_linear_12626_149377)" fill-opacity="0.1"/>
</g>
</g>
</g>
<defs>
<filter id="filter0_b_12626_149377" x="299.971" y="12.6748" width="276.576" height="173.106" filterUnits="userSpaceOnUse" color-interpolation-filters="sRGB">
<feFlood flood-opacity="0" result="BackgroundImageFix"/>
<feGaussianBlur in="BackgroundImage" stdDeviation="8.23796"/>
<feComposite in2="SourceAlpha" operator="in" result="effect1_backgroundBlur_12626_149377"/>
<feBlend mode="normal" in="SourceGraphic" in2="effect1_backgroundBlur_12626_149377" result="shape"/>
</filter>
<filter id="filter1_b_12626_149377" x="464.529" y="201.861" width="401.131" height="235.33" filterUnits="userSpaceOnUse" color-interpolation-filters="sRGB">
<feFlood flood-opacity="0" result="BackgroundImageFix"/>
<feGaussianBlur in="BackgroundImage" stdDeviation="2.21013"/>
<feComposite in2="SourceAlpha" operator="in" result="effect1_backgroundBlur_12626_149377"/>
<feBlend mode="normal" in="SourceGraphic" in2="effect1_backgroundBlur_12626_149377" result="shape"/>
</filter>
<filter id="filter2_d_12626_149377" x="377.847" y="111.737" width="79.8582" height="49.9539" filterUnits="userSpaceOnUse" color-interpolation-filters="sRGB">
<feFlood flood-opacity="0" result="BackgroundImageFix"/>
<feColorMatrix in="SourceAlpha" type="matrix" values="0 0 0 0 0 0 0 0 0 0 0 0 0 0 0 0 0 0 127 0" result="hardAlpha"/>
<feOffset dy="4.7074"/>
<feGaussianBlur stdDeviation="2.3537"/>
<feComposite in2="hardAlpha" operator="out"/>
<feColorMatrix type="matrix" values="0 0 0 0 0 0 0 0 0 0 0 0 0 0 0 0 0 0 0.25 0"/>
<feBlend mode="normal" in2="BackgroundImageFix" result="effect1_dropShadow_12626_149377"/>
<feBlend mode="normal" in="SourceGraphic" in2="effect1_dropShadow_12626_149377" result="shape"/>
</filter>
<filter id="filter3_bd_12626_149377" x="288.685" y="165.81" width="173.723" height="226.974" filterUnits="userSpaceOnUse" color-interpolation-filters="sRGB">
<feFlood flood-opacity="0" result="BackgroundImageFix"/>
<feGaussianBlur in="BackgroundImage" stdDeviation="26.8962"/>
<feComposite in2="SourceAlpha" operator="in" result="effect1_backgroundBlur_12626_149377"/>
<feColorMatrix in="SourceAlpha" type="matrix" values="0 0 0 0 0 0 0 0 0 0 0 0 0 0 0 0 0 0 127 0" result="hardAlpha"/>
<feMorphology radius="40" operator="erode" in="SourceAlpha" result="effect2_dropShadow_12626_149377"/>
<feOffset dx="10" dy="125"/>
<feGaussianBlur stdDeviation="25"/>
<feColorMatrix type="matrix" values="0 0 0 0 0 0 0 0 0 0 0 0 0 0 0 0 0 0 0.17 0"/>
<feBlend mode="normal" in2="effect1_backgroundBlur_12626_149377" result="effect2_dropShadow_12626_149377"/>
<feBlend mode="normal" in="SourceGraphic" in2="effect2_dropShadow_12626_149377" result="shape"/>
</filter>
<linearGradient id="paint0_linear_12626_149377" x1="193.172" y1="409.873" x2="267.409" y2="281.28" gradientUnits="userSpaceOnUse">
<stop stop-color="#242222"/>
<stop offset="0.42" stop-color="#101011"/>
<stop offset="1" stop-color="#1F1F1F"/>
</linearGradient>
<linearGradient id="paint1_linear_12626_149377" x1="192.112" y1="410.281" x2="267.232" y2="280.158" gradientUnits="userSpaceOnUse">
<stop stop-color="#73BCF8"/>
<stop offset="1" stop-color="#2E71E5"/>
</linearGradient>
<linearGradient id="paint2_linear_12626_149377" x1="526.838" y1="223.881" x2="588.702" y2="116.72" gradientUnits="userSpaceOnUse">
<stop stop-color="#101011"/>
<stop offset="1" stop-color="#1F1F1F"/>
</linearGradient>
<radialGradient id="paint3_radial_12626_149377" cx="0" cy="0" r="1" gradientUnits="userSpaceOnUse" gradientTransform="translate(584.985 249.315) rotate(-1.0182) scale(79.2168 46.8642)">
<stop stop-color="#CA3066" stop-opacity="0.8"/>
<stop offset="0.29" stop-color="#CA3066" stop-opacity="0.4"/>
<stop offset="0.6" stop-color="#D63F75" stop-opacity="0.09"/>
<stop offset="0.75" stop-color="#DC477D" stop-opacity="0"/>
</radialGradient>
<linearGradient id="paint4_linear_12626_149377" x1="376.437" y1="135.176" x2="438.301" y2="28.0158" gradientUnits="userSpaceOnUse">
<stop stop-color="#101011"/>
<stop offset="1" stop-color="#1F1F1F"/>
</linearGradient>
<linearGradient id="paint5_linear_12626_149377" x1="458.128" y1="39.12" x2="462.542" y2="120.854" gradientUnits="userSpaceOnUse">
<stop stop-color="#1C1C1C"/>
<stop offset="1" stop-opacity="0"/>
</linearGradient>
<radialGradient id="paint6_diamond_12626_149377" cx="0" cy="0" r="1" gradientUnits="userSpaceOnUse" gradientTransform="translate(441.106 27.7803) rotate(99.2031) scale(177.732 386.477)">
<stop stop-color="#FFEC6A"/>
<stop offset="0.338918" stop-color="#FF4E54" stop-opacity="0.54"/>
<stop offset="1" stop-color="#000637" stop-opacity="0"/>
</radialGradient>
<linearGradient id="paint7_linear_12626_149377" x1="375.553" y1="135.687" x2="438.3" y2="26.9954" gradientUnits="userSpaceOnUse">
<stop stop-color="#FFEC6E"/>
<stop offset="1" stop-color="#EC585D"/>
</linearGradient>
<linearGradient id="paint8_linear_12626_149377" x1="526.405" y1="399.152" x2="663.831" y2="161.103" gradientUnits="userSpaceOnUse">
<stop stop-color="#101011"/>
<stop offset="1" stop-color="#1F1F1F"/>
</linearGradient>
<linearGradient id="paint9_linear_12626_149377" x1="144.076" y1="317.823" x2="-5.21285" y2="250.108" gradientUnits="userSpaceOnUse">
<stop stop-color="#1C1C1C"/>
<stop offset="1" stop-opacity="0"/>
</linearGradient>
<radialGradient id="paint10_diamond_12626_149377" cx="0" cy="0" r="1" gradientUnits="userSpaceOnUse" gradientTransform="translate(158.012 348.547) rotate(-114.388) scale(427.409 417.841)">
<stop stop-color="#07ABF1" stop-opacity="0.72"/>
<stop offset="0.419297" stop-color="#5E14D8" stop-opacity="0.69"/>
<stop offset="1" stop-color="#000637" stop-opacity="0"/>
</radialGradient>
<linearGradient id="paint11_linear_12626_149377" x1="525.725" y1="399.219" x2="663.473" y2="160.611" gradientUnits="userSpaceOnUse">
<stop stop-color="#63D0FF"/>
<stop offset="1" stop-color="#844FBA"/>
</linearGradient>
<linearGradient id="paint12_linear_12626_149377" x1="299.291" y1="267.478" x2="361.155" y2="160.318" gradientUnits="userSpaceOnUse">
<stop stop-color="#101011"/>
<stop offset="0.52" stop-color="#171718"/>
<stop offset="0.86" stop-color="#1F1F1F"/>
</linearGradient>
<linearGradient id="paint13_linear_12626_149377" x1="298.408" y1="267.989" x2="361.155" y2="159.297" gradientUnits="userSpaceOnUse">
<stop stop-color="#60DEA9"/>
<stop offset="1" stop-color="#62D4DC"/>
</linearGradient>
<linearGradient id="paint14_linear_12626_149377" x1="526.255" y1="224.218" x2="588.561" y2="116.292" gradientUnits="userSpaceOnUse">
<stop stop-color="#EBCEC7"/>
<stop offset="1" stop-color="#DC477D"/>
</linearGradient>
<linearGradient id="paint15_linear_12626_149377" x1="338.056" y1="166.376" x2="308.838" y2="216.987" gradientUnits="userSpaceOnUse">
<stop stop-color="#A1A1A1"/>
<stop offset="0.42" stop-color="#333333" stop-opacity="0.88"/>
<stop offset="1" stop-color="#1F1F1F" stop-opacity="0"/>
</linearGradient>
<linearGradient id="paint16_linear_12626_149377" x1="650.912" y1="338.368" x2="608.819" y2="411.282" gradientUnits="userSpaceOnUse">
<stop stop-color="#A1A1A1"/>
<stop offset="0.42" stop-color="#333333" stop-opacity="0.88"/>
<stop offset="1" stop-color="#1F1F1F" stop-opacity="0"/>
</linearGradient>
<linearGradient id="paint17_linear_12626_149377" x1="437.55" y1="84.2896" x2="450.915" y2="107.44" gradientUnits="userSpaceOnUse">
<stop stop-color="#A1A1A1"/>
<stop offset="0.42" stop-color="#333333" stop-opacity="0.88"/>
<stop offset="1" stop-color="#1F1F1F" stop-opacity="0"/>
</linearGradient>
<linearGradient id="paint18_linear_12626_149377" x1="569.167" y1="235.133" x2="539.953" y2="184.524" gradientUnits="userSpaceOnUse">
<stop stop-color="#A1A1A1"/>
<stop offset="0.42" stop-color="#333333" stop-opacity="0.88"/>
<stop offset="1" stop-color="#1F1F1F" stop-opacity="0"/>
</linearGradient>
<linearGradient id="paint19_linear_12626_149377" x1="715.323" y1="282.445" x2="721.178" y2="364.713" gradientUnits="userSpaceOnUse">
<stop stop-color="#532A7D"/>
<stop offset="1" stop-color="#33197C" stop-opacity="0"/>
</linearGradient>
<linearGradient id="paint20_linear_12626_149377" x1="698.85" y1="284.628" x2="675.529" y2="369.278" gradientUnits="userSpaceOnUse">
<stop stop-color="#9C65D5"/>
<stop offset="1" stop-color="#522AC2" stop-opacity="0"/>
</linearGradient>
<linearGradient id="paint21_linear_12626_149377" x1="37.7348" y1="7.90214" x2="-2.38041" y2="31.4135" gradientUnits="userSpaceOnUse">
<stop stop-color="#E9F3FF" stop-opacity="0.92"/>
<stop offset="0.5" stop-color="#A35BFF" stop-opacity="0.88"/>
<stop offset="0.986796" stop-color="#3A07CD" stop-opacity="0.8"/>
</linearGradient>
<linearGradient id="paint22_linear_12626_149377" x1="40.5166" y1="-1.05925" x2="-4.97606" y2="35.1743" gradientUnits="userSpaceOnUse">
<stop stop-color="#D1DBFF"/>
<stop offset="0.479167" stop-color="#A975FF" stop-opacity="0.45"/>
<stop offset="0.986796" stop-color="#552ACE" stop-opacity="0.65"/>
</linearGradient>
<linearGradient id="paint23_linear_12626_149377" x1="671.038" y1="262.525" x2="700.8" y2="318.282" gradientUnits="userSpaceOnUse">
<stop stop-color="#A5B3FF" stop-opacity="0.99"/>
<stop offset="0.596277" stop-color="#7622CA" stop-opacity="0.998281"/>
<stop offset="1" stop-color="#2E2C9F"/>
</linearGradient>
<linearGradient id="paint24_linear_12626_149377" x1="734.829" y1="263.945" x2="702.392" y2="319.371" gradientUnits="userSpaceOnUse">
<stop stop-color="#863BE7" stop-opacity="0.76"/>
<stop offset="1" stop-color="#0F1B5C" stop-opacity="0.81"/>
</linearGradient>
<linearGradient id="paint25_linear_12626_149377" x1="476.845" y1="97.9991" x2="549.608" y2="88.0291" gradientUnits="userSpaceOnUse">
<stop stop-color="white"/>
<stop offset="1" stop-color="white" stop-opacity="0"/>
</linearGradient>
<linearGradient id="paint26_linear_12626_149377" x1="446.897" y1="115.509" x2="391.841" y2="145.81" gradientUnits="userSpaceOnUse">
<stop stop-color="white"/>
<stop offset="1" stop-color="white" stop-opacity="0"/>
</linearGradient>
<linearGradient id="paint27_linear_12626_149377" x1="280.98" y1="278.614" x2="313.544" y2="227.132" gradientUnits="userSpaceOnUse">
<stop offset="0.0917203" stop-color="#0CAA8E"/>
<stop offset="0.685506" stop-color="#1379C2" stop-opacity="0.43"/>
<stop offset="1" stop-color="#1379C2" stop-opacity="0"/>
</linearGradient>
<linearGradient id="paint28_linear_12626_149377" x1="1.29086" y1="37.5041" x2="45.1988" y2="16.2318" gradientUnits="userSpaceOnUse">
<stop stop-color="#4B4B4B"/>
<stop offset="0.2296" stop-color="#3D3D3D"/>
<stop offset="0.7315" stop-color="#212121"/>
<stop offset="1" stop-color="#161616"/>
</linearGradient>
<linearGradient id="paint29_linear_12626_149377" x1="20.7366" y1="31.7408" x2="38.0868" y2="-34.3993" gradientUnits="userSpaceOnUse">
<stop stop-color="#DC477D"/>
<stop offset="1" stop-opacity="0"/>
</linearGradient>
<radialGradient id="paint30_radial_12626_149377" cx="0" cy="0" r="1" gradientUnits="userSpaceOnUse" gradientTransform="translate(17.2473 7.59921) rotate(176.971) scale(21.7286 12.2917)">
<stop stop-color="#DC477D"/>
<stop offset="1" stop-opacity="0"/>
</radialGradient>
<linearGradient id="paint31_linear_12626_149377" x1="18492.1" y1="-2434.66" x2="18573.3" y2="-2775.79" gradientUnits="userSpaceOnUse">
<stop offset="0.01" stop-color="#15161C"/>
<stop offset="1" stop-color="#22252B"/>
</linearGradient>
<linearGradient id="paint32_linear_12626_149377" x1="16.0511" y1="8.31601" x2="72.119" y2="-29.09" gradientUnits="userSpaceOnUse">
<stop stop-color="#DC477D"/>
<stop offset="1" stop-opacity="0"/>
</linearGradient>
<linearGradient id="paint33_linear_12626_149377" x1="603.093" y1="163.243" x2="605.926" y2="159.268" gradientUnits="userSpaceOnUse">
<stop stop-color="#FF6198"/>
<stop offset="1" stop-color="#DC477D"/>
</linearGradient>
<linearGradient id="paint34_linear_12626_149377" x1="577.243" y1="167.678" x2="566.269" y2="202.978" gradientUnits="userSpaceOnUse">
<stop stop-color="#7D2A52"/>
<stop offset="1" stop-color="#57197C" stop-opacity="0"/>
</linearGradient>
<linearGradient id="paint35_linear_12626_149377" x1="591.876" y1="173.154" x2="605.283" y2="203.47" gradientUnits="userSpaceOnUse">
<stop stop-color="#D565AF"/>
<stop offset="1" stop-color="#762AC2" stop-opacity="0"/>
</linearGradient>
<linearGradient id="paint36_linear_12626_149377" x1="-22.2969" y1="-12.5475" x2="39.7659" y2="-17.8013" gradientUnits="userSpaceOnUse">
<stop stop-color="#BFECFF" stop-opacity="0.13"/>
<stop offset="1" stop-color="#E2F8FA" stop-opacity="0.19"/>
</linearGradient>
<linearGradient id="paint37_linear_12626_149377" x1="-0.00463007" y1="14.9976" x2="29.998" y2="14.9976" gradientUnits="userSpaceOnUse">
<stop stop-color="#59F5FF" stop-opacity="0.62"/>
<stop offset="0.0001" stop-color="#BBFBFF" stop-opacity="0.62"/>
<stop offset="1" stop-color="#B8FFE1" stop-opacity="0.02"/>
</linearGradient>
<linearGradient id="paint38_linear_12626_149377" x1="-2.13262" y1="18.9173" x2="33.7957" y2="13.3893" gradientUnits="userSpaceOnUse">
<stop stop-color="#79F5D7"/>
<stop offset="0.958333" stop-color="#8DEAFF" stop-opacity="0.2525"/>
<stop offset="1" stop-color="#CEFCF2" stop-opacity="0.22"/>
</linearGradient>
<linearGradient id="paint39_linear_12626_149377" x1="-2.13262" y1="18.9173" x2="33.7957" y2="13.3893" gradientUnits="userSpaceOnUse">
<stop stop-color="#79F5D7"/>
<stop offset="0.958333" stop-color="#8DEAFF" stop-opacity="0.2525"/>
<stop offset="1" stop-color="#CEFCF2" stop-opacity="0.22"/>
</linearGradient>
<linearGradient id="paint40_linear_12626_149377" x1="-2.13262" y1="18.9173" x2="33.7957" y2="13.3893" gradientUnits="userSpaceOnUse">
<stop stop-color="#79F5D7"/>
<stop offset="0.958333" stop-color="#8DEAFF" stop-opacity="0.2525"/>
<stop offset="1" stop-color="#CEFCF2" stop-opacity="0.22"/>
</linearGradient>
<linearGradient id="paint41_linear_12626_149377" x1="-0.00463007" y1="14.9976" x2="29.998" y2="14.9976" gradientUnits="userSpaceOnUse">
<stop stop-color="#59F5FF" stop-opacity="0.62"/>
<stop offset="0.0001" stop-color="#BBFBFF" stop-opacity="0.62"/>
<stop offset="1" stop-color="#B8FFE1" stop-opacity="0.02"/>
</linearGradient>
<linearGradient id="paint42_linear_12626_149377" x1="306.461" y1="264.006" x2="320.906" y2="225.049" gradientUnits="userSpaceOnUse">
<stop stop-color="#56C0A7"/>
<stop offset="1" stop-color="#008196" stop-opacity="0"/>
</linearGradient>
<linearGradient id="paint43_linear_12626_149377" x1="285.885" y1="261.944" x2="285.483" y2="215.525" gradientUnits="userSpaceOnUse">
<stop stop-color="#9EFED5"/>
<stop offset="1" stop-color="#008196" stop-opacity="0"/>
</linearGradient>
<linearGradient id="paint44_linear_12626_149377" x1="384.173" y1="218.497" x2="398.618" y2="179.54" gradientUnits="userSpaceOnUse">
<stop stop-color="#56C0A7"/>
<stop offset="1" stop-color="#008196" stop-opacity="0"/>
</linearGradient>
<linearGradient id="paint45_linear_12626_149377" x1="363.597" y1="216.434" x2="363.195" y2="170.015" gradientUnits="userSpaceOnUse">
<stop stop-color="#9EFED5"/>
<stop offset="1" stop-color="#008196" stop-opacity="0"/>
</linearGradient>
<linearGradient id="paint46_linear_12626_149377" x1="0" y1="26.7274" x2="29.1038" y2="2.90313" gradientUnits="userSpaceOnUse">
<stop stop-color="#FFF4D4"/>
<stop offset="1" stop-color="#EC585D"/>
</linearGradient>
<linearGradient id="paint47_linear_12626_149377" x1="372.176" y1="133.345" x2="405.17" y2="116.038" gradientUnits="userSpaceOnUse">
<stop stop-color="#FFF29F"/>
<stop offset="1" stop-color="#EC585D"/>
</linearGradient>
<linearGradient id="paint48_linear_12626_149377" x1="394.037" y1="92.2883" x2="383.714" y2="129.807" gradientUnits="userSpaceOnUse">
<stop/>
<stop offset="1" stop-opacity="0"/>
</linearGradient>
<linearGradient id="paint49_linear_12626_149377" x1="418.45" y1="133.345" x2="385.456" y2="116.038" gradientUnits="userSpaceOnUse">
<stop stop-color="#EC585D"/>
<stop offset="1" stop-color="#FFF3A6"/>
</linearGradient>
<linearGradient id="paint50_linear_12626_149377" x1="420.148" y1="118.703" x2="395.338" y2="102.091" gradientUnits="userSpaceOnUse">
<stop/>
<stop offset="1" stop-opacity="0"/>
</linearGradient>
<clipPath id="clip0_12626_149377">
<rect width="720" height="512" fill="white"/>
</clipPath>
<clipPath id="clip1_12626_149377">
<rect width="525.445" height="495.174" fill="white" transform="matrix(0.866044 -0.499967 0.866044 0.499967 -16.75 289.705)"/>
</clipPath>
</defs>
</svg>
