<svg xmlns="http://www.w3.org/2000/svg" width="720" height="512" fill="none" aria-hidden="true" viewBox="0 0 720 512">
  <g clip-path="url(#a)">
    <path fill="url(#b)" d="M704.749 671.063 565.857 440.934l-.047-.071c-.448-.739-.888-1.455-1.321-2.163-.464-.748-.92-1.48-1.368-2.188-.464-.732-.92-1.432-1.368-2.132-.464-.708-.92-1.401-1.368-2.069-.464-.685-.92-1.346-1.368-1.999-.464-.661-.92-1.306-1.369-1.928-.464-.637-.92-1.251-1.368-1.849-.464-.606-.92-1.196-1.368-1.762-.456-.582-.92-1.141-1.368-1.684a56.73 56.73 0 0 0-1.376-1.597c-.456-.519-.92-1.015-1.376-1.503a58.27 58.27 0 0 0-2.752-2.738 49.112 49.112 0 0 0-1.376-1.235 43.743 43.743 0 0 0-1.376-1.141 43.348 43.348 0 0 0-1.376-1.055 39.165 39.165 0 0 0-1.376-.975 50.606 50.606 0 0 0-1.376-.897 45.933 45.933 0 0 0-1.376-.826c-.205-.118-.417-.236-.629-.355-.252-.133-.504-.275-.755-.401-.456-.236-.912-.472-1.376-.692a45.18 45.18 0 0 0-1.376-.638c-.456-.196-.912-.393-1.384-.574-.456-.181-.912-.362-1.384-.527a55.877 55.877 0 0 0-1.384-.48c-.22-.071-.448-.15-.668-.22-.22-.071-.449-.134-.669-.205-.22-.063-.448-.134-.668-.197-.22-.063-.448-.125-.668-.188-.221-.063-.449-.118-.669-.174-.22-.055-.448-.118-.668-.173-.22-.055-.448-.11-.668-.157h-.016c-.22-.047-.433-.102-.653-.15-.22-.047-.448-.102-.668-.149a21.98 21.98 0 0 0-.669-.134c-.22-.047-.448-.094-.668-.134-.22-.039-.448-.078-.668-.125-.22-.04-.448-.079-.669-.118-.22-.04-.448-.071-.668-.111-.22-.039-.448-.07-.668-.11-.22-.031-.448-.071-.669-.102-.22-.032-.448-.063-.668-.094l-.668-.095c-.221-.031-.449-.055-.669-.086-.22-.032-.448-.055-.668-.079-.22-.024-.448-.055-.668-.079l-.669-.071-.668-.07c-.22-.024-.448-.04-.668-.063-.221-.024-.449-.04-.669-.063-.22-.016-.448-.04-.668-.055-.22-.016-.448-.04-.669-.055l-.668-.048a95.872 95.872 0 0 1-.668-.047c-.22-.016-.448-.023-.669-.039-.22-.016-.448-.032-.668-.04-.22-.015-.448-.023-.668-.039-.221-.016-.449-.023-.669-.031-.22-.008-.448-.024-.668-.032-.22-.008-.448-.016-.668-.031a17.858 17.858 0 0 1-.669-.032l-.668-.023c-.22 0-.448-.016-.668-.024-.221 0-.449-.016-.669-.016-.22 0-.448-.008-.668-.015-.228 0-.448-.016-.669-.016-.22 0-.448 0-.668-.016-.22 0-.448-.008-.668-.008-.22 0-.448 0-.669-.008H220.341c-.503 0-.99 0-1.494.008-.503.008-1.006 0-1.494.008-.503 0-.998.016-1.494.024l-1.494.023c-.503.008-.998.024-1.494.04l-1.494.047c-.503.016-.998.039-1.493.063l-1.494.071c-.504.031-.999.055-1.494.086-.504.032-.999.063-1.494.102-.504.04-.999.079-1.494.126-.504.048-1.007.087-1.494.134l-1.494.165c-.496.055-1.007.11-1.494.173-.511.071-.999.142-1.494.221-.504.078-1.007.149-1.494.236-.503.086-.999.173-1.494.267-.503.095-.999.197-1.494.307-.503.11-1.007.213-1.494.331-.079.015-.157.039-.244.063-.425.102-.841.212-1.25.322-.503.134-.999.276-1.494.425-.503.15-1.007.299-1.494.464-.503.165-1.007.339-1.494.52-.503.188-.999.385-1.494.59a42.78 42.78 0 0 0-1.494.645 43.634 43.634 0 0 0-2.988 1.487c-.503.275-1.006.574-1.494.873a45.759 45.759 0 0 0-3.004 2.007c-.503.369-1.006.747-1.501 1.141-.504.401-1.007.81-1.502 1.243a51.104 51.104 0 0 0-3.004 2.801 47.94 47.94 0 0 0-1.502 1.566 53.246 53.246 0 0 0-1.502 1.683 71.844 71.844 0 0 0-1.501 1.794 62.794 62.794 0 0 0-1.502 1.904 109.293 109.293 0 0 0-3.02 4.115c-.503.717-.998 1.448-1.509 2.196-.496.739-.999 1.503-1.51 2.281-.495.772-.999 1.558-1.51 2.361-.495.795-.998 1.597-1.509 2.431-.362.59-.724 1.18-1.093 1.794l-.417.693-134.906 223.48-3.42 5.681c-5.135 8.513-8.838 15.618-11.134 22.101-3.727 10.512-3.727 19.387 0 29.899 2.304 6.492 6.015 13.612 11.165 22.141l118.409 195.887 20.586 34.148.023.031c.488.811.975 1.605 1.455 2.376.495.803.991 1.59 1.478 2.353a155.446 155.446 0 0 0 2.957 4.485c.495.732.99 1.44 1.478 2.124.495.7.991 1.385 1.478 2.046.496.669.991 1.322 1.478 1.951.496.638.991 1.251 1.479 1.849.495.606.99 1.188 1.478 1.747.495.567.991 1.117 1.478 1.644.496.535.991 1.047 1.478 1.543.496.495.991.975 1.479 1.432.495.456.983.904 1.478 1.329.495.429.983.839 1.486 1.229.495.39.983.76 1.486 1.12.488.36.983.7 1.486 1.03.488.34.983.65 1.486.95.488.3.983.59 1.486.86.016.01.04.03.055.04.472.26.952.51 1.432.75.487.25.982.49 1.486.72.487.22.983.44 1.486.65.487.2.983.39 1.486.58.487.18.983.36 1.486.54.487.16.983.32 1.486.47.488.15.983.29 1.486.43.488.14.983.26 1.486.39.15.04.299.07.456.11.338.08.684.16 1.038.23.488.11.983.22 1.486.31.488.1.983.19 1.486.28.488.08.983.16 1.487.24.487.08.982.15 1.486.21.487.07.983.14 1.494.19.487.06.983.12 1.494.17.487.05.983.1 1.494.15.487.04.982.08 1.494.12.487.04.99.08 1.494.11.487.03.99.07 1.494.1.487.03.99.05 1.493.08l1.494.06c.488.02.991.04 1.494.05.488.02.991.03 1.494.05.496.02.991.02 1.494.03l1.494.03c.496 0 .991 0 1.494.01h283.446c.228 0 .448-.01.668-.01.228 0 .448-.01.669-.02.228 0 .448 0 .668-.02.22 0 .448 0 .668-.01.22 0 .448 0 .669-.02.228 0 .448-.01.668-.02.22-.01.448-.02.668-.02l.669-.03c.22 0 .448-.01.668-.02l.668-.03c.228 0 .449-.02.669-.03.228 0 .448-.02.668-.03l.668-.03c.221-.02.456-.02.669-.03.228-.02.448-.03.668-.05.228-.01.448-.03.668-.05.229-.01.449-.03.669-.04.22-.02.456-.03.668-.05l.676-.06c.228-.01.449-.03.677-.06l.676-.06.676-.06c.228-.03.448-.05.676-.07.228-.03.448-.06.676-.08.229-.03.449-.06.677-.08.22-.03.456-.05.676-.08.228-.03.448-.06.676-.1.228-.03.448-.06.676-.1.228-.03.449-.06.677-.1.22-.03.456-.06.676-.1l.676-.12.676-.12.677-.12.676-.12c.228-.05.448-.1.676-.14l.676-.15c.228-.04.456-.09.676-.14.197-.04.386-.09.582-.15.275-.06.543-.13.81-.2.464-.12.928-.24 1.384-.38.464-.13.928-.27 1.384-.42.472-.15.928-.3 1.384-.47.464-.16.935-.33 1.392-.5.463-.18.935-.36 1.391-.56.472-.2.928-.41 1.392-.63.472-.22.928-.45 1.392-.68.464-.23.935-.48 1.392-.74.471-.26.927-.53 1.391-.81.472-.29.928-.59 1.392-.9a55.3 55.3 0 0 0 1.392-.97c.464-.34.935-.68 1.392-1.05.463-.36.935-.73 1.391-1.13.464-.392.936-.801 1.392-1.226.464-.424.928-.873 1.392-1.329a63.031 63.031 0 0 0 2.783-2.943c.464-.519.928-1.054 1.4-1.613.464-.551.928-1.117 1.4-1.7.463-.582.927-1.18 1.399-1.793.464-.614.928-1.236 1.4-1.881.464-.637.928-1.298 1.399-1.975.464-.669.928-1.353 1.4-2.053.464-.693.928-1.401 1.4-2.125a225.428 225.428 0 0 0 2.799-4.43c.424-.692.857-1.384 1.289-2.108l.11-.189L704.977 744.89c5.135-8.513 8.846-15.618 11.142-22.11 3.727-10.511 3.727-19.387 0-29.899-2.304-6.491-6.015-13.612-11.165-22.141l-.205.323Zm13.517 37.067c0 4.367-.724 8.789-2.351 13.73-2.139 6.507-5.842 13.927-11.519 23.337L566.172 974.436l-.503.827c-.307.503-.606.999-.905 1.487-.471.771-.935 1.518-1.399 2.258-.472.747-.936 1.487-1.4 2.203-.472.732-.936 1.44-1.399 2.132-.472.708-.936 1.393-1.4 2.062-.472.676-.936 1.345-1.4 1.982-.471.654-.935 1.283-1.399 1.897-.472.621-.936 1.227-1.4 1.817a65.13 65.13 0 0 1-1.4 1.723 71.13 71.13 0 0 1-1.399 1.629 66.511 66.511 0 0 1-2.784 2.974 56 56 0 0 1-1.391 1.346c-.464.433-.928.85-1.392 1.247-.464.41-.928.78-1.392 1.16-.464.37-.928.72-1.392 1.07-.464.34-.927.67-1.391.98-.456.32-.92.62-1.392.9-.456.28-.92.56-1.392.83-.173.09-.346.19-.519.29-.291.16-.582.31-.873.47-.456.24-.92.46-1.391.69-.456.22-.92.44-1.392.64-.456.2-.92.39-1.392.57-.456.19-.92.36-1.392.53-.456.17-.92.32-1.384.47-.456.15-.92.29-1.383.44-.457.13-.92.26-1.384.38-.456.12-.92.24-1.384.35-.142.03-.275.06-.417.1l-.259.06c-.221.05-.449.1-.677.15-.22.05-.448.1-.676.14-.22.05-.448.09-.676.14l-.676.12c-.22.04-.449.09-.677.13-.22.04-.448.08-.676.11-.22.04-.448.08-.676.11-.22.03-.448.07-.676.1-.22.03-.448.07-.676.1-.221.04-.449.07-.677.09l-.676.09c-.22.03-.448.05-.676.08-.22.02-.448.05-.676.08-.22.02-.448.04-.676.07-.221.02-.449.04-.677.07l-.676.06-.676.06-.676.06c-.228.01-.449.04-.677.05-.22.02-.448.03-.668.05-.22.02-.448.03-.676.05-.22.01-.448.03-.668.04-.221.01-.449.03-.669.04-.22.01-.448.02-.668.04-.22 0-.448.02-.669.03-.22 0-.448.02-.668.03-.22.01-.448.01-.668.03l-.669.03-.668.03c-.22 0-.448.01-.668.02-.22 0-.449.01-.669.01-.22 0-.448.01-.668.02-.228 0-.448.01-.668.02-.221 0-.449 0-.669.01-.22 0-.448.01-.668.01-.22 0-.448 0-.668.01H218.808c-.503 0-.999-.01-1.494-.02-.503 0-.999-.01-1.494-.02-.503-.01-.999-.03-1.494-.03-.503-.02-.998-.03-1.494-.05-.503-.02-.998-.03-1.494-.06l-1.494-.06c-.503-.02-.998-.05-1.494-.08l-1.494-.09c-.503-.03-.998-.07-1.494-.11-.503-.04-.998-.09-1.494-.13-.503-.05-.998-.09-1.494-.15-.503-.05-.998-.11-1.494-.16-.503-.07-.998-.13-1.494-.19l-1.494-.21c-.503-.08-.998-.16-1.486-.25-.503-.08-.998-.18-1.486-.27-.503-.11-.998-.21-1.486-.31-.079-.02-.157-.03-.244-.06a24 24 0 0 1-1.25-.29c-.503-.12-.998-.25-1.486-.39-.503-.14-.999-.28-1.486-.43-.503-.16-.999-.32-1.486-.48-.503-.18-.999-.36-1.486-.54a34.37 34.37 0 0 1-1.486-.6 56.38 56.38 0 0 1-1.487-.65 37.2 37.2 0 0 1-1.486-.73 35.412 35.412 0 0 1-1.478-.8c-.503-.29-.998-.58-1.486-.88-.495-.3-.991-.63-1.486-.96-.495-.33-.991-.69-1.486-1.05a48.36 48.36 0 0 1-1.486-1.15c-.496-.4-.991-.82-1.486-1.25a39.195 39.195 0 0 1-1.479-1.353c-.495-.465-.99-.953-1.478-1.456a57.739 57.739 0 0 1-1.478-1.566 64.008 64.008 0 0 1-1.478-1.668 91.753 91.753 0 0 1-4.435-5.626c-.488-.668-.983-1.353-1.478-2.061-.488-.692-.983-1.409-1.479-2.148-.487-.724-.975-1.464-1.478-2.227-.487-.747-.975-1.511-1.478-2.297-.488-.771-.975-1.558-1.478-2.369-.362-.582-.716-1.172-1.085-1.778l-.394-.645-20.585-34.148L17.201 749.162l-2.406-3.997c-5.685-9.426-9.397-16.853-11.543-23.368C1.624 716.856.9 712.442.9 708.083c0-4.367.723-8.781 2.35-13.73 2.14-6.507 5.843-13.919 11.52-23.337L153.514 441.17c.236-.393.471-.779.707-1.164a368.05 368.05 0 0 1 1.51-2.439c.511-.811 1.014-1.606 1.51-2.377.511-.786 1.014-1.55 1.509-2.289.511-.756 1.007-1.495 1.51-2.211a82.58 82.58 0 0 1 1.51-2.117 90.963 90.963 0 0 1 1.509-2.022 90.558 90.558 0 0 1 1.502-1.92c.504-.629 1.007-1.227 1.502-1.817a68.266 68.266 0 0 1 3.004-3.289 50.72 50.72 0 0 1 1.502-1.479c.503-.473.998-.929 1.501-1.37.496-.44.999-.857 1.502-1.258.496-.402.999-.787 1.502-1.157.496-.37.999-.724 1.502-1.062.495-.339.999-.661 1.502-.968.495-.307.991-.598 1.502-.881.086-.047.18-.103.267-.15.409-.22.818-.44 1.234-.653.496-.252.991-.496 1.494-.732a42.19 42.19 0 0 1 2.988-1.251 43.77 43.77 0 0 1 1.494-.535c.488-.165.991-.322 1.494-.48.488-.149.991-.291 1.494-.432.488-.134.991-.26 1.494-.386.228-.055.456-.11.692-.165.268-.063.535-.118.802-.181.488-.11.991-.213 1.494-.307a72.682 72.682 0 0 1 2.988-.519c.488-.079.991-.15 1.494-.213.488-.063.991-.126 1.494-.189.488-.055.991-.11 1.494-.165.488-.047.991-.102 1.494-.149.488-.047.991-.087 1.494-.126.488-.039.991-.079 1.494-.11.487-.032.991-.063 1.494-.095a84.55 84.55 0 0 1 1.494-.078c.487-.024.991-.048 1.494-.063.487-.016.991-.04 1.494-.055.487-.016.991-.032 1.494-.04.495-.016.991-.023 1.494-.031l1.494-.024c.495 0 .991-.008 1.494-.016h283.233c.228 0 .448 0 .668.008.228 0 .448 0 .669.008.22 0 .448 0 .668.016.228 0 .448.008.668.016.228 0 .449.007.669.015.228 0 .448.016.668.016.228 0 .448.016.668.024.221 0 .449.015.669.023.228.008.448.016.668.032.228.008.448.016.669.031.228.008.448.024.668.032.228.008.448.023.668.031.228.016.448.024.669.04.228.015.448.023.668.039.22.016.448.023.668.039l.669.047.668.048c.228.015.448.039.668.055.228.015.449.039.669.055.228.016.448.039.668.063.228.023.448.039.668.063.228.023.449.047.669.071l.668.07c.228.024.448.055.668.079.228.024.449.055.669.079.228.031.448.055.668.086.228.032.448.063.669.087.228.031.448.063.668.094.228.032.448.063.668.102.228.032.448.071.669.111.22.039.448.07.668.11.228.039.448.078.668.126.228.039.449.078.669.126.228.047.448.086.668.133l.668.142c.205.039.401.087.598.134.024 0 .047.008.071.015.228.048.448.103.668.158.228.055.448.102.668.165.228.055.449.118.669.173.228.063.448.118.668.181.228.063.448.126.669.189.228.063.448.134.668.205.228.07.448.141.668.212.228.071.448.142.669.22.471.158.927.323 1.383.488.464.173.928.354 1.384.535.464.189.928.386 1.376.59.464.213.928.425 1.376.645.464.229.928.465 1.376.709.166.086.331.173.488.267.299.165.59.331.888.504.464.267.92.55 1.376.842a41.747 41.747 0 0 1 4.129 2.982c.463.377.92.763 1.376 1.164.456.401.92.818 1.376 1.251.456.433.92.881 1.376 1.346.456.464.912.944 1.376 1.439.456.496.912 1 1.376 1.527.456.519.912 1.062 1.376 1.613a93.265 93.265 0 0 1 2.736 3.501c.456.606.912 1.228 1.368 1.873a82.41 82.41 0 0 1 1.368 1.951c.456.653.912 1.33 1.369 2.022.456.677.904 1.369 1.368 2.085.448.701.904 1.417 1.368 2.148.448.716.904 1.448 1.368 2.203.315.512.637 1.039.951 1.566l.417.685L704.16 671.425c5.685 9.434 9.396 16.861 11.535 23.376 1.619 4.933 2.351 9.348 2.351 13.699l.22-.37Z"/>
    <path fill="url(#c)" d="M726.837 668.624 579.822 425.033l-.763-1.259c-.204-.339-.409-.669-.605-1-.464-.755-.92-1.502-1.368-2.226-.464-.74-.92-1.456-1.368-2.164-.464-.724-.92-1.432-1.369-2.117-.464-.7-.92-1.384-1.368-2.053-.464-.677-.92-1.346-1.368-1.991-.464-.653-.92-1.29-1.368-1.92-.456-.629-.92-1.251-1.368-1.849-.456-.606-.92-1.188-1.368-1.762-.456-.582-.92-1.141-1.369-1.692a71.528 71.528 0 0 0-1.376-1.605 67.28 67.28 0 0 0-1.376-1.519 48.571 48.571 0 0 0-1.376-1.439 43.384 43.384 0 0 0-1.376-1.346 50.545 50.545 0 0 0-1.376-1.267 38.113 38.113 0 0 0-1.376-1.18c-.456-.378-.912-.74-1.376-1.101a39.462 39.462 0 0 0-1.376-1.023 52.424 52.424 0 0 0-1.376-.945c-.456-.298-.912-.597-1.376-.881a77.594 77.594 0 0 0-1.376-.81c-.118-.063-.228-.134-.346-.197-.338-.189-.684-.37-1.03-.551a44.002 44.002 0 0 0-1.376-.684c-.456-.22-.912-.433-1.376-.637-.456-.197-.912-.394-1.384-.575-.456-.181-.912-.362-1.384-.535-.456-.165-.912-.33-1.384-.488-.456-.149-.912-.299-1.383-.44a35.932 35.932 0 0 0-1.384-.402 58.983 58.983 0 0 0-1.384-.369c-.181-.048-.362-.087-.543-.134-.275-.071-.558-.134-.841-.205a65.383 65.383 0 0 0-1.384-.299c-.456-.094-.912-.189-1.384-.275a61.776 61.776 0 0 0-1.384-.244 57.42 57.42 0 0 0-1.384-.22c-.22-.032-.448-.071-.668-.103l-.668-.094-.669-.094c-.22-.032-.448-.056-.668-.087-.22-.032-.448-.055-.668-.079-.221-.023-.449-.055-.669-.078l-.668-.071-.669-.071c-.22-.024-.448-.039-.668-.063-.22-.024-.448-.047-.668-.063-.22-.024-.448-.039-.669-.055-.22-.016-.448-.039-.668-.055l-.668-.047-.669-.048-.668-.047c-.22-.015-.448-.023-.668-.039a16.771 16.771 0 0 0-.669-.039c-.22-.016-.448-.024-.668-.04-.22-.008-.448-.023-.668-.031-.221-.008-.449-.024-.669-.032-.22-.008-.448-.015-.668-.031-.22-.008-.448-.016-.669-.032l-.668-.023c-.22 0-.448-.016-.668-.024-.228 0-.448-.016-.669-.023-.22 0-.448-.008-.668-.016-.22 0-.448-.008-.668-.016-.22 0-.448-.008-.669-.016-.22 0-.448 0-.668-.008-.22 0-.448-.007-.668-.007-.221 0-.449 0-.669-.008H211.535c-.511 0-.991 0-1.494.008-.496 0-.999 0-1.494.007-.503 0-.999.016-1.494.024-.503 0-.999.016-1.494.024-.503.008-.999.023-1.494.031l-1.494.047-1.494.048-1.494.07-1.494.071c-.511.032-.999.071-1.494.102-.495.032-1.006.063-1.494.103a72.16 72.16 0 0 0-1.494.134c-.495.047-1.006.086-1.494.133-.511.055-.998.118-1.494.173-.495.055-1.006.111-1.494.181-.511.071-.998.142-1.494.221-.503.078-1.006.149-1.494.228a84.31 84.31 0 0 0-1.494.267c-.503.095-.998.197-1.494.299-.503.103-1.006.205-1.494.323-.416.094-.817.205-1.218.307-.095.023-.181.047-.276.071a41.24 41.24 0 0 0-1.494.401c-.503.142-1.006.291-1.494.448-.503.158-.998.331-1.494.504a41.78 41.78 0 0 0-1.494.543c-.503.197-1.006.393-1.494.598-.503.212-.998.44-1.493.677a42.22 42.22 0 0 0-1.494.731 40.025 40.025 0 0 0-2.996 1.676c-.503.307-1.007.638-1.502.968-.503.338-1.007.692-1.502 1.046-.503.37-1.006.748-1.502 1.133-.503.402-1.006.803-1.502 1.228-.503.433-1.006.865-1.501 1.322a61.279 61.279 0 0 0-3.004 2.982 77.17 77.17 0 0 0-4.506 5.24 67.056 67.056 0 0 0-1.501 1.951c-.504.669-1.007 1.346-1.51 2.046-.503.692-.999 1.401-1.51 2.132-.503.724-.998 1.464-1.509 2.227-.496.747-1.007 1.519-1.51 2.305-.496.771-.999 1.566-1.51 2.377a368.05 368.05 0 0 0-1.51 2.439c-.346.566-.684 1.117-1.038 1.699l-.471.779L-7.49 668.246c-5.362 8.899-9.262 16.35-11.723 23.156-4.16 11.511-4.16 21.158 0 32.669 2.461 6.814 6.37 14.281 11.747 23.195L132.74 979.268l7.351 12.195.331.551c.385.637.762 1.259 1.14 1.873.495.81.991 1.597 1.478 2.368a199.165 199.165 0 0 0 2.957 4.545c.495.74.99 1.47 1.478 2.17.495.71.991 1.41 1.478 2.09.495.68.991 1.35 1.478 2 .496.66.991 1.3 1.479 1.91.495.63.99 1.24 1.478 1.83.495.59.991 1.17 1.478 1.72.495.56.991 1.1 1.478 1.63.496.52.991 1.04 1.479 1.52.495.5.99.97 1.478 1.44.495.45.983.9 1.478 1.33.495.42.983.83 1.486 1.23.496.39.983.77 1.486 1.14.496.36.983.72 1.486 1.06.488.33.983.65 1.486.96.488.31.983.61 1.487.89.212.13.424.25.644.37.276.16.559.31.842.46.487.26.983.5 1.486.75.487.23.983.46 1.486.68.487.21.983.42 1.486.62.488.2.983.39 1.486.57.488.17.983.35 1.486.51.488.16.983.32 1.486.46.488.15.983.29 1.486.43.441.12.897.24 1.353.35.047 0 .094.02.141.03.488.12.983.23 1.487.34.487.11.982.21 1.486.3.487.1.983.19 1.486.28.487.08.983.16 1.486.24.487.08.983.15 1.486.22.487.07.983.14 1.494.2.487.06.983.12 1.494.17.487.06.991.1 1.494.16.487.05.991.09 1.494.13l1.494.12c.487.04.991.07 1.494.1.487.03.991.07 1.494.09.487.02.99.05 1.494.08.487.02.99.05 1.494.06l1.494.06c.487.01.99.03 1.494.04l1.494.03c.495.01.99.01 1.494.02.495 0 .99.01 1.494.02h301.758c.228 0 .448-.01.668-.02.22-.01.449-.01.669-.01.228 0 .448 0 .668-.02.22 0 .448 0 .668-.02.221 0 .456 0 .669-.01.228 0 .448-.02.668-.03.22 0 .448-.01.668-.02.229 0 .449-.01.669-.02.22 0 .448-.02.668-.03.22 0 .456-.01.669-.02l.668-.03c.228-.01.448-.03.668-.03.22-.01.448-.03.669-.03.22-.01.448-.03.668-.04.22-.01.448-.02.668-.04.228-.01.448-.03.669-.04.228-.02.448-.03.668-.05.22-.02.448-.03.668-.05.221-.01.456-.03.677-.04l.676-.06c.228-.01.448-.04.676-.06.228-.03.448-.04.676-.07.22-.02.448-.03.676-.06.472-.05.928-.1 1.384-.15.464-.05.928-.1 1.384-.16.472-.07.928-.13 1.384-.19.464-.06.928-.14 1.384-.21.472-.07.928-.15 1.384-.23.464-.08.936-.16 1.384-.25.472-.1.928-.2 1.384-.3.464-.1.935-.19 1.384-.3.298-.07.589-.15.888-.23.165-.04.338-.09.503-.13.464-.12.928-.24 1.384-.37.464-.14.928-.28 1.384-.42.472-.15.928-.31 1.384-.46.464-.17.936-.33 1.384-.5.472-.18.928-.37 1.392-.56.471-.2.927-.4 1.391-.61.464-.21.936-.42 1.392-.65.472-.23.928-.47 1.392-.72.472-.25.928-.52 1.392-.79.464-.27.935-.56 1.391-.85.464-.3.936-.6 1.392-.91.472-.32.928-.67 1.392-1.01.472-.34.928-.71 1.392-1.08.464-.38.935-.77 1.391-1.16.464-.4.936-.81 1.392-1.24.464-.43.928-.88 1.392-1.33.464-.47.928-.95 1.392-1.44.464-.49.927-1 1.391-1.51.464-.52.928-1.06 1.4-1.61.464-.55.928-1.11 1.4-1.69.464-.58.927-1.17 1.399-1.78.464-.61.928-1.23 1.4-1.87.464-.63.928-1.29 1.399-1.95.464-.66.928-1.33 1.4-2.03.464-.68.928-1.37 1.4-2.08.464-.709.928-1.417 1.399-2.148.464-.724.928-1.472 1.4-2.227.464-.74.928-1.503 1.4-2.274.275-.449.542-.881.817-1.338l.582-.967 146.991-243.78c5.378-8.915 9.278-16.382 11.74-23.204 4.136-11.479 4.143-21.102 0-32.582-2.462-6.822-6.377-14.304-11.763-23.235l-.118.339Zm14.114 39.514c0 4.492-.732 9.04-2.351 14.099-2.249 7.019-6.212 15.021-12.377 25.25L579.885 990.181l-1.235 2.053c-.055.095-.11.181-.165.268-.471.779-.935 1.542-1.399 2.289-.472.764-.936 1.511-1.4 2.243-.472.747-.936 1.463-1.4 2.179-.471.724-.935 1.437-1.399 2.117-.472.7-.936 1.38-1.4 2.05-.472.67-.935 1.33-1.399 1.97-.472.65-.936 1.28-1.4 1.9-.472.62-.936 1.22-1.4 1.81-.463.59-.935 1.17-1.399 1.73-.464.56-.936 1.11-1.4 1.63-.464.54-.928 1.05-1.392 1.55-.463.51-.927 1-1.391 1.47-.464.47-.928.92-1.392 1.37-.464.44-.928.86-1.392 1.28-.464.41-.928.81-1.392 1.2-.464.37-.927.74-1.391 1.1-.464.35-.928.69-1.392 1.02a56.74 56.74 0 0 1-2.784 1.82c-.456.27-.92.54-1.391.8 0 0-.063.04-.095.05-.424.24-.857.47-1.297.69-.456.24-.92.46-1.392.68-.456.22-.92.42-1.392.63-.456.19-.92.38-1.391.56-.456.18-.92.36-1.392.52-.456.17-.92.32-1.384.47-.456.15-.92.29-1.384.44-.456.13-.92.26-1.384.39-.456.13-.92.24-1.384.35-.456.11-.92.22-1.384.33-.456.1-.919.19-1.383.29-.456.09-.92.18-1.384.26-.456.08-.92.16-1.384.23-.456.07-.92.14-1.384.22-.456.06-.92.13-1.384.18-.456.07-.92.12-1.384.18l-1.384.15c-.22.02-.448.04-.676.07l-.676.06a217.048 217.048 0 0 1-1.353.12c-.22.01-.448.04-.676.05-.22.02-.448.04-.668.05-.22.02-.448.03-.676.05-.221.01-.449.03-.669.05l-.668.03c-.228.02-.448.03-.669.04-.22.02-.448.03-.668.04-.22 0-.448.02-.668.03-.22 0-.448.02-.669.03-.22.01-.448.01-.668.03-.228.01-.448.02-.668.02l-.669.03c-.22 0-.448.01-.668.02-.22 0-.448.02-.668.02-.22 0-.449 0-.669.01-.22.01-.448.01-.668.02-.22 0-.448.01-.668.01-.221 0-.449 0-.669.01-.228 0-.448.01-.668.01H209.821c-.504 0-.999-.01-1.494-.02-.504 0-.999-.01-1.494-.02l-1.494-.03c-.504-.02-.999-.03-1.494-.04-.503-.02-.999-.03-1.494-.06-.503-.01-.999-.04-1.494-.06-.503-.02-.999-.05-1.494-.08-.503-.03-.999-.05-1.494-.08-.503-.04-.999-.07-1.494-.11-.503-.04-.999-.08-1.494-.11-.503-.05-.999-.09-1.494-.14-.503-.05-.999-.1-1.494-.16-.503-.05-.999-.11-1.494-.17-.503-.06-.999-.12-1.494-.2a60.168 60.168 0 0 1-2.972-.48c-.503-.08-.999-.18-1.486-.28-.331-.06-.661-.13-.983-.2-.173-.04-.338-.07-.511-.11a57.97 57.97 0 0 1-1.486-.35c-.504-.13-.999-.25-1.486-.38-.504-.15-.999-.29-1.487-.44-.503-.15-.998-.3-1.486-.47-.503-.17-.998-.35-1.486-.53-.503-.19-.998-.37-1.486-.57a56.25 56.25 0 0 1-1.486-.64c-.503-.23-.999-.46-1.486-.7-.503-.24-.999-.5-1.486-.77-.134-.07-.275-.15-.409-.22-.362-.2-.716-.41-1.077-.61-.496-.3-.991-.6-1.486-.92a43 43 0 0 1-1.487-1c-.495-.34-.99-.7-1.486-1.07a52.476 52.476 0 0 1-4.45-3.82c-.496-.47-.991-.96-1.478-1.46-.496-.51-.983-1.03-1.479-1.57-.495-.53-.983-1.09-1.478-1.67-.487-.56-.983-1.15-1.478-1.77-.488-.6-.983-1.22-1.478-1.85a130.725 130.725 0 0 1-2.957-4c-.487-.69-.983-1.39-1.478-2.13-.488-.71-.975-1.44-1.478-2.191-.488-.74-.975-1.495-1.479-2.274-.487-.763-.975-1.534-1.478-2.329-.487-.779-.975-1.582-1.47-2.4-.165-.267-.33-.535-.496-.81l-8.334-13.825L-6.931 747.4c-6.18-10.244-10.151-18.254-12.408-25.288-1.62-5.052-2.35-9.6-2.35-14.084 0-4.493.73-9.049 2.35-14.108 2.25-7.019 6.212-15.02 12.377-25.241l147.58-244.512c.126-.205.252-.409.37-.614.511-.842 1.014-1.66 1.51-2.462.511-.819 1.014-1.613 1.509-2.392.511-.795 1.015-1.574 1.51-2.329.511-.771 1.006-1.519 1.51-2.251a103.9 103.9 0 0 1 1.509-2.163 82 82 0 0 1 1.51-2.078 72.653 72.653 0 0 1 1.51-1.982c.503-.653 1.006-1.275 1.502-1.889a99 99 0 0 1 1.501-1.786 71.922 71.922 0 0 1 3.004-3.265 58.27 58.27 0 0 1 3.004-2.841c.495-.44.998-.857 1.502-1.266.495-.402.998-.795 1.501-1.173a44.917 44.917 0 0 1 3.004-2.053c.495-.315.991-.614 1.502-.905.244-.142.48-.276.723-.409.26-.142.511-.276.771-.417.495-.26.991-.512 1.494-.756a50.54 50.54 0 0 1 1.494-.692c.487-.212.991-.417 1.494-.622a50.462 50.462 0 0 1 4.482-1.542c.487-.141.99-.283 1.494-.417.487-.126.99-.252 1.494-.377.346-.079.692-.166 1.045-.244l.449-.095c.487-.102.99-.204 1.494-.307.487-.094.99-.181 1.494-.267.487-.087.99-.165 1.494-.244.487-.079.99-.15 1.494-.213.487-.062.99-.133 1.493-.188.488-.063.991-.118 1.494-.173a71.89 71.89 0 0 1 1.494-.15c.488-.047.991-.087 1.494-.134l1.494-.118c.488-.031.991-.071 1.494-.102.488-.032.991-.055 1.494-.087l1.494-.07c.496-.024.991-.04 1.494-.063l1.494-.048c.488-.015.991-.023 1.494-.039.488-.008.991-.024 1.494-.031l1.494-.024c.496 0 .991-.008 1.494-.016h300.901c.228 0 .449 0 .669.008.228 0 .448 0 .668.008.22 0 .448 0 .669.008.228 0 .448.008.668.016.228 0 .448.007.668.015.22 0 .448.008.669.016.228 0 .448.016.668.024.228 0 .448.015.668.023.228 0 .449.016.669.024.228.008.448.016.668.031.22.008.448.016.668.032.228.008.449.023.669.031.228.008.448.024.668.032.228.016.448.023.668.039.228.016.449.024.669.039.22.016.448.024.668.04l.669.047.668.047c.228.016.448.032.668.055.228.016.448.04.669.055.228.016.448.04.668.055.228.024.448.04.668.063.22.024.448.04.669.063l.668.071.668.071c.228.024.449.055.669.079.228.023.448.055.668.078.228.032.448.055.668.087.228.031.449.063.669.086l.668.095c.228.031.448.063.668.102a79.907 79.907 0 0 1 2.768.48c.472.087.928.181 1.384.276.039 0 .071.015.11.023.433.095.857.189 1.274.283.464.111.928.221 1.384.339.464.118.928.244 1.384.37.464.133.928.267 1.384.409.464.149.928.299 1.384.456.463.157.927.323 1.383.496a41.356 41.356 0 0 1 2.76 1.141c.464.212.928.424 1.376.645.464.228.928.464 1.376.708l.614.33c.259.142.511.292.77.433a50.606 50.606 0 0 1 2.752 1.731c.464.315.92.637 1.376.976.464.338.92.684 1.376 1.046.464.362.92.74 1.376 1.133.457.394.92.795 1.376 1.212.457.417.92.85 1.377 1.298.456.449.912.913 1.376 1.385.456.472.912.968 1.376 1.471a99.15 99.15 0 0 1 1.376 1.558c.456.535.912 1.078 1.376 1.645.456.558.912 1.133 1.368 1.723.456.582.912 1.188 1.368 1.802.456.606.912 1.235 1.368 1.88.456.637.912 1.283 1.368 1.951.456.654.912 1.33 1.368 2.023.456.676.913 1.369 1.369 2.077.448.7.904 1.408 1.368 2.14.448.716.904 1.448 1.368 2.195.44.716.888 1.44 1.337 2.188l.031.047 147.746 244.795c6.18 10.252 10.159 18.27 12.408 25.304 1.612 5.043 2.351 9.591 2.351 14.068l.118-.212Z"/>
    <path fill="url(#d)" d="M748.924 666.2 592.419 406.857l-.103-.173c-.424-.708-.849-1.393-1.266-2.069-.464-.748-.92-1.48-1.368-2.204-.464-.731-.92-1.455-1.368-2.155a245.39 245.39 0 0 0-1.368-2.093c-.464-.693-.92-1.377-1.368-2.038-.456-.677-.92-1.338-1.368-1.983a146.857 146.857 0 0 0-2.737-3.761c-.456-.606-.92-1.188-1.368-1.762-.456-.583-.92-1.149-1.368-1.7-.456-.551-.92-1.086-1.376-1.613a68.978 68.978 0 0 0-2.752-2.998 45.818 45.818 0 0 0-1.376-1.377c-.456-.44-.912-.873-1.376-1.29a50.066 50.066 0 0 0-1.376-1.22 36.501 36.501 0 0 0-1.376-1.133 42.163 42.163 0 0 0-1.376-1.062 39.428 39.428 0 0 0-1.376-.983c-.456-.315-.912-.63-1.376-.921a51.398 51.398 0 0 0-1.376-.85 33.946 33.946 0 0 0-1.376-.794c-.024-.016-.048-.024-.071-.04-.433-.236-.865-.472-1.305-.692a46.347 46.347 0 0 0-1.376-.685c-.456-.212-.913-.425-1.376-.629a36.47 36.47 0 0 0-1.384-.575c-.456-.18-.912-.361-1.384-.535-.456-.165-.912-.33-1.384-.495a35.013 35.013 0 0 0-1.384-.449 61.724 61.724 0 0 0-1.384-.409c-.456-.126-.912-.252-1.384-.378-.157-.039-.314-.086-.479-.125-.299-.079-.598-.15-.905-.221-.456-.11-.912-.212-1.384-.314a60.952 60.952 0 0 0-1.383-.292c-.457-.086-.913-.181-1.384-.259-.456-.079-.912-.158-1.384-.236-.456-.071-.912-.15-1.384-.213-.456-.071-.92-.133-1.384-.196-.456-.063-.92-.118-1.384-.174-.456-.055-.92-.11-1.384-.157l-1.384-.142c-.456-.047-.92-.086-1.384-.125-.456-.04-.92-.079-1.383-.118-.456-.032-.92-.071-1.384-.103l-.669-.047c-.22-.016-.448-.024-.668-.039-.228-.016-.448-.032-.668-.04-.221-.015-.449-.023-.669-.031-.22-.008-.448-.024-.668-.032-.22-.007-.448-.023-.668-.031-.221-.008-.449-.016-.669-.032-.22-.007-.448-.015-.668-.031l-.669-.024-.668-.023c-.228 0-.448-.016-.668-.024-.22 0-.448-.016-.669-.016-.22 0-.448-.007-.668-.015-.228 0-.448-.016-.668-.016-.22 0-.448-.008-.669-.016-.22 0-.448-.008-.668-.008-.228 0-.448-.007-.668-.007H201.218c-.503 0-.998 0-1.494.007-.503 0-.998.008-1.493.016-.504 0-.999.016-1.494.024a90.44 90.44 0 0 0-1.494.039l-1.494.047c-.504.016-.999.032-1.494.055-.504.024-.999.04-1.494.063-.504.024-.999.048-1.494.079-.504.031-.999.055-1.494.094-.504.032-.999.071-1.494.103l-1.494.118c-.503.039-.999.086-1.494.133-.503.048-.999.103-1.494.15-.503.055-.999.11-1.494.173l-1.494.189-1.494.212c-.503.079-1.007.158-1.494.236-.503.087-1.006.173-1.494.26a72.035 72.035 0 0 0-2.988.614c-.503.118-1.006.236-1.494.362-.189.047-.369.094-.55.141-.315.079-.629.166-.944.252-.503.142-1.006.283-1.494.433-.503.157-1.006.315-1.494.48-.503.173-1.006.346-1.494.527-.503.189-1.006.378-1.494.574a66.39 66.39 0 0 0-1.494.63 43.4 43.4 0 0 0-1.494.692c-.503.244-1.006.496-1.494.748a35.82 35.82 0 0 0-1.494.826 41.03 41.03 0 0 0-1.501.889 51.382 51.382 0 0 0-4.506 3.139 52.28 52.28 0 0 0-1.502 1.228 56.67 56.67 0 0 0-3.003 2.722 71.283 71.283 0 0 0-3.004 3.116 80.958 80.958 0 0 0-1.502 1.7c-.503.582-.999 1.188-1.502 1.801a83.305 83.305 0 0 0-1.502 1.897 341.95 341.95 0 0 0-1.509 1.982c-.456.622-.92 1.259-1.392 1.912l-1.392 1.975c-.456.669-.92 1.346-1.392 2.046-.456.685-.92 1.393-1.391 2.109-.456.708-.92 1.424-1.392 2.163-.456.724-.92 1.472-1.392 2.227-.456.74-.92 1.503-1.392 2.274-.11.173-.212.346-.314.519l-1.077 1.779-155.342 257.407c-5.59 9.277-9.687 17.074-12.298 24.195-4.607 12.526-4.607 22.936 0 35.462 2.627 7.128 6.723 14.941 12.33 24.234l156.568 259.143.173.29c.401.66.794 1.31 1.187 1.95.456.75.912 1.47 1.36 2.19.456.73.912 1.44 1.361 2.14.456.7.912 1.4 1.36 2.08.495.76.991 1.48 1.478 2.2.496.72.991 1.44 1.478 2.13.496.7.991 1.38 1.479 2.05.495.68.99 1.33 1.478 1.97.495.64.991 1.27 1.478 1.89.496.61.991 1.21 1.478 1.79.496.58.991 1.16 1.479 1.71.495.55.99 1.09 1.478 1.61.495.52.991 1.02 1.478 1.52a60.089 60.089 0 0 0 2.957 2.75c.495.43.982.85 1.486 1.25.495.39.983.78 1.486 1.15.495.37.983.73 1.486 1.07.495.33.983.66 1.486.99.488.31.983.62 1.486.91.401.24.81.47 1.219.7.086.05.181.09.267.14.488.27.983.53 1.486.78.488.24.983.48 1.486.72.488.22.983.44 1.487.65.487.2.982.41 1.486.61.487.18.983.37 1.486.54.487.17.983.34 1.486.5.487.16.983.31 1.486.46.487.14.983.27 1.486.41.212.05.425.11.637.16.283.07.566.14.857.22.488.11.983.22 1.486.33.488.11.983.22 1.486.31.488.09.983.19 1.486.28.488.08.983.17 1.487.25.487.08.982.15 1.486.23.487.07.982.14 1.494.2.487.06.99.13 1.494.18.487.06.99.11 1.494.17.487.04.99.09 1.494.14.487.05.99.08 1.493.12.488.04.991.08 1.494.11.488.04.991.07 1.494.1.488.03.991.05 1.494.09.496.02.991.04 1.494.07l1.494.06c.488.01.991.03 1.494.05.488.01.991.03 1.494.04l1.494.03c.496 0 .991.01 1.494.02.496 0 .991.01 1.494.02h320.756c.22-.01.448 0 .668-.01.22 0 .448 0 .668-.02.228 0 .449-.01.669-.01.228 0 .448-.01.668-.02.228 0 .448-.01.668-.01.228 0 .449-.02.669-.03.228 0 .448-.01.668-.02l.668-.03c.464-.01.928-.03 1.384-.05.464-.02.928-.05 1.384-.07.464-.02.928-.06 1.384-.08.464-.03.928-.05 1.384-.09.464-.03.928-.06 1.384-.1.464-.04.928-.07 1.384-.12.472-.04.928-.08 1.384-.13.464-.05.928-.09 1.384-.15.464-.06.927-.1 1.383-.17.464-.05.928-.11 1.384-.18.464-.06.928-.13 1.384-.19.472-.07.928-.14 1.384-.22.472-.08.928-.16 1.384-.25.472-.08.928-.17 1.384-.26.472-.1.928-.19 1.384-.3.472-.1.928-.21 1.384-.32.369-.08.731-.18 1.093-.27.094-.03.196-.05.291-.08.471-.13.927-.25 1.383-.39.472-.13.928-.27 1.384-.42.472-.15.928-.31 1.384-.47.472-.16.928-.33 1.392-.5.472-.18.936-.36 1.392-.54.472-.2.928-.4 1.392-.6.471-.21.927-.43 1.391-.65.472-.22.936-.45 1.392-.7.307-.15.613-.32.912-.48.157-.09.315-.19.48-.27.464-.27.928-.54 1.391-.82.464-.28.928-.58 1.392-.89.464-.31.928-.62 1.392-.95.464-.33.928-.68 1.392-1.02.464-.36.928-.72 1.392-1.1.463-.38.927-.78 1.391-1.18.464-.41.928-.82 1.392-1.26.464-.43.928-.89 1.392-1.34.464-.47.928-.94 1.392-1.43.463-.48.927-1 1.391-1.52.464-.51.928-1.04 1.4-1.59.464-.55.928-1.11 1.4-1.69.463-.57.927-1.15 1.399-1.76.464-.6.928-1.21 1.4-1.84.464-.62.928-1.26 1.399-1.92a184.092 184.092 0 0 0 2.8-4.04c.463-.7.927-1.4 1.399-2.13.464-.71.928-1.43 1.4-2.18 1.03-1.62 2.083-3.33 3.161-5.11l156.426-259.409c5.599-9.276 9.688-17.082 12.306-24.202 4.6-12.519 4.6-22.928 0-35.446-2.626-7.137-6.723-14.95-12.337-24.25l-.11.267Zm14.696 41.946c0 4.618-.739 9.292-2.359 14.469-2.359 7.53-6.589 16.122-13.241 27.161L591.593 1009.18c-.747 1.25-1.478 2.44-2.21 3.6-.471.75-.935 1.49-1.399 2.22-.472.74-.936 1.46-1.4 2.16-.472.72-.935 1.42-1.399 2.09a127.22 127.22 0 0 1-2.8 4c-.471.65-.935 1.28-1.399 1.89-.472.62-.936 1.22-1.4 1.81-.464.59-.936 1.17-1.399 1.73-.464.57-.936 1.11-1.4 1.64a55.3 55.3 0 0 1-1.392 1.57 66.948 66.948 0 0 1-2.783 2.87c-.464.45-.928.88-1.392 1.31l-1.392 1.23c-.464.39-.928.77-1.392 1.14-.464.36-.927.71-1.391 1.06-.464.34-.928.67-1.392.99-.464.31-.928.62-1.392.91-.464.29-.92.58-1.392.85-.361.21-.723.42-1.085.62-.102.06-.204.11-.306.17-.456.25-.92.49-1.392.72-.456.23-.92.46-1.392.67-.456.21-.92.42-1.392.62-.456.19-.92.38-1.391.56-.456.18-.92.36-1.392.52-.456.17-.92.32-1.384.47-.456.15-.92.29-1.384.44-.456.13-.92.26-1.384.4-.456.12-.92.24-1.384.36-.456.11-.92.22-1.384.33-.338.08-.676.15-1.022.22-.118.02-.243.06-.361.08-.456.09-.92.18-1.384.27-.456.09-.92.17-1.384.25-.456.08-.92.15-1.384.22-.456.07-.92.14-1.384.2-.456.07-.92.13-1.384.18-.456.06-.92.11-1.384.17l-1.384.15c-.456.05-.92.09-1.384.13l-1.383.12c-.456.04-.92.07-1.384.1-.456.03-.92.07-1.384.1-.456.03-.92.05-1.384.08-.456.02-.92.04-1.384.07-.456.02-.92.04-1.384.05l-.668.03c-.22 0-.448.01-.669.02-.22 0-.448.01-.668.02-.22 0-.448.02-.668.02-.22 0-.448.01-.669.01-.228 0-.448.01-.668.02-.22 0-.448.01-.668.02h-.669c-.228 0-.448.01-.668.01H200.739c-.503 0-.999-.01-1.494-.01-.503 0-.999-.02-1.494-.03l-1.494-.03c-.503-.02-.999-.02-1.494-.04-.503-.01-.999-.03-1.494-.05-.503-.01-.999-.04-1.494-.06-.503-.02-.999-.05-1.494-.07-.503-.02-.999-.05-1.494-.09l-1.494-.09c-.503-.04-.999-.07-1.494-.11-.503-.04-.998-.09-1.494-.13-.503-.04-.998-.09-1.494-.14-.503-.05-.998-.11-1.494-.16l-1.494-.18-1.494-.21c-.503-.07-.998-.15-1.486-.23-.503-.08-.998-.16-1.486-.25-.503-.09-.999-.19-1.486-.28l-.275-.06a38.93 38.93 0 0 1-1.211-.26c-.503-.11-.999-.23-1.486-.34a182.3 182.3 0 0 1-1.486-.39c-.504-.13-.999-.27-1.486-.42-.504-.15-.999-.31-1.487-.47-.503-.16-.998-.33-1.486-.51a35.12 35.12 0 0 1-1.486-.57c-.503-.19-.998-.4-1.486-.61-.503-.22-.999-.44-1.486-.68-.503-.23-.999-.48-1.486-.74-.393-.2-.786-.41-1.172-.62-.11-.05-.212-.12-.314-.18-.496-.28-.991-.57-1.486-.86-.496-.31-.991-.63-1.486-.95-.496-.33-.991-.67-1.487-1.02-.495-.36-.99-.72-1.486-1.11-.495-.39-.99-.79-1.486-1.2a56.41 56.41 0 0 1-1.486-1.28c-.495-.45-.991-.9-1.478-1.38a75.387 75.387 0 0 1-2.957-3.05c-.495-.53-.982-1.09-1.478-1.67a88.784 88.784 0 0 1-2.956-3.6c-.488-.63-.983-1.28-1.479-1.94-.487-.65-.982-1.32-1.478-2.01-.487-.68-.983-1.39-1.478-2.1-.488-.71-.983-1.43-1.478-2.17-.488-.73-.975-1.48-1.479-2.25-.448-.69-.904-1.4-1.36-2.12-.448-.71-.904-1.44-1.36-2.18-.448-.72-.904-1.46-1.36-2.22a7.087 7.087 0 0 0-.268-.43l-156.74-259.423c-6.677-11.054-10.915-19.646-13.274-27.192-1.612-5.161-2.35-9.843-2.35-14.454 0-4.618.738-9.292 2.35-14.469 2.351-7.53 6.59-16.122 13.242-27.161l156.41-259.178c.252-.417.504-.834.755-1.244.472-.771.936-1.526 1.392-2.258.472-.755.928-1.487 1.392-2.203.464-.732.928-1.448 1.392-2.148.464-.716.927-1.408 1.391-2.085.464-.692.928-1.369 1.392-2.022.464-.669.928-1.322 1.392-1.959a87.114 87.114 0 0 1 1.51-2.038c.503-.669 1.006-1.314 1.509-1.951.503-.638 1.007-1.259 1.502-1.857.503-.606 1.007-1.188 1.502-1.763a79.634 79.634 0 0 1 1.502-1.66c.503-.535.998-1.062 1.502-1.566.503-.503.998-.991 1.501-1.463.504-.472.999-.921 1.502-1.361a50.788 50.788 0 0 1 3.004-2.44c.495-.377.999-.731 1.502-1.085.495-.347.998-.677 1.502-1 .495-.314.998-.621 1.501-.92.394-.228.787-.457 1.18-.677.102-.055.212-.11.314-.173.496-.268.991-.527 1.494-.779a52.196 52.196 0 0 1 2.988-1.361c.488-.205.991-.401 1.494-.598.488-.189.991-.37 1.494-.543.496-.173.991-.338 1.494-.496.488-.157.991-.299 1.494-.448a39.28 39.28 0 0 1 1.494-.401c.488-.126.991-.252 1.494-.37.472-.11.944-.213 1.423-.315a.222.222 0 0 0 .071-.016 78.898 78.898 0 0 1 4.482-.81c.487-.079.991-.15 1.494-.22.487-.071.991-.134 1.494-.197.487-.063.991-.118 1.494-.173.487-.055.991-.103 1.494-.158.487-.047.991-.094 1.494-.133l1.494-.118c.495-.04.991-.071 1.494-.103.487-.031.991-.063 1.494-.086.487-.032.99-.055 1.494-.079.487-.024.99-.047 1.494-.063.495-.024.99-.039 1.494-.055l1.494-.047c.495-.016.99-.024 1.494-.04l1.494-.023c.495 0 .99-.016 1.494-.016.495 0 .99-.008 1.494-.008h319.206c.228 0 .448 0 .668.008.22.008.449 0 .669.008.22 0 .448.008.668.016.228 0 .448.008.668.015.221.008.449.008.669.016.228 0 .448.016.668.016.228 0 .448.016.668.024.221 0 .449.015.669.023l.668.024c.228.008.448.015.669.031.22.008.448.016.668.032.228.008.448.023.668.031.228.008.448.024.669.032.228.015.448.023.668.039.228.016.448.024.668.039.22.016.448.024.669.04.228.015.448.031.668.047.464.031.928.063 1.384.102.464.039.928.071 1.384.11.464.04.928.087 1.384.126l1.384.142c.463.055.927.102 1.383.157a72.4 72.4 0 0 1 1.384.181 72 72 0 0 1 1.384.197c.464.071.928.141 1.384.22.464.079.928.158 1.384.244.464.087.928.173 1.384.268a.792.792 0 0 1 .141.031c.417.087.834.173 1.243.268a70.076 70.076 0 0 1 2.768.676c.463.126.927.252 1.383.386.464.134.928.275 1.384.425.464.149.928.307 1.384.464.464.165.928.33 1.384.503.464.181.928.362 1.384.551.464.197.928.394 1.376.598.464.213.928.425 1.376.645a58.883 58.883 0 0 1 2.107 1.094c.221.118.433.244.653.37.464.267.92.535 1.376.818.464.283.92.582 1.376.889.464.307.92.622 1.376.952.464.331.92.677 1.376 1.031.464.354.92.724 1.376 1.102.456.377.92.779 1.376 1.18a65.484 65.484 0 0 1 2.752 2.596c.456.457.912.937 1.376 1.425.456.487.912.983 1.376 1.502.456.512.912 1.047 1.376 1.59.456.543.912 1.093 1.368 1.66.456.566.913 1.149 1.369 1.747.456.59.912 1.196 1.368 1.817.456.614.912 1.243 1.368 1.889.456.637.912 1.282 1.368 1.951a90.9 90.9 0 0 1 1.368 2.022c.456.677.912 1.369 1.368 2.077.456.693.905 1.401 1.369 2.132.448.716.912 1.448 1.368 2.188.448.732.904 1.471 1.368 2.234.118.189.228.37.346.567l1.022 1.699L747.862 666.79c6.668 11.047 10.906 19.639 13.265 27.185 1.612 5.169 2.359 9.843 2.359 14.462l.134-.291Z"/>
    <path fill="url(#e)" d="M771.011 663.761 605.566 389.594c-4.121-6.829-7.887-12.51-11.504-17.263-.456-.605-.92-1.188-1.368-1.762-.456-.582-.92-1.149-1.368-1.7-.456-.558-.92-1.093-1.376-1.62a86.277 86.277 0 0 0-2.752-3.03c-.457-.48-.92-.944-1.376-1.392a55.218 55.218 0 0 0-2.753-2.573 46.467 46.467 0 0 0-1.376-1.173 61.952 61.952 0 0 0-1.376-1.101 55.924 55.924 0 0 0-2.752-1.999 50.606 50.606 0 0 0-1.376-.897 51.119 51.119 0 0 0-1.376-.842c-.385-.228-.778-.448-1.171-.668-.071-.04-.142-.071-.205-.111a47.379 47.379 0 0 0-1.376-.723 67.538 67.538 0 0 0-1.376-.677c-.456-.212-.912-.425-1.376-.63-.456-.196-.912-.393-1.376-.582-.456-.181-.912-.362-1.384-.535a35.212 35.212 0 0 0-1.384-.495 57.483 57.483 0 0 0-1.383-.457c-.457-.141-.913-.283-1.384-.425a63.906 63.906 0 0 0-1.84-.503c-.307-.079-.614-.158-.928-.236-.456-.11-.912-.221-1.384-.323a65.383 65.383 0 0 0-1.384-.299c-.456-.094-.912-.189-1.384-.275a61.437 61.437 0 0 0-1.384-.252 62.49 62.49 0 0 0-1.384-.228c-.456-.071-.92-.142-1.383-.205l-1.384-.189c-.456-.063-.92-.118-1.384-.173-.456-.055-.92-.102-1.384-.157l-1.384-.142c-.456-.047-.92-.086-1.384-.126l-1.384-.118c-.456-.031-.92-.07-1.384-.102-.456-.031-.92-.063-1.384-.087a76.31 76.31 0 0 0-1.383-.078l-1.384-.071c-.456-.024-.92-.039-1.384-.055l-1.384-.047-1.384-.047a78.07 78.07 0 0 0-1.384-.032c-.22 0-.448-.008-.668-.016-.22 0-.448 0-.669-.008-.22 0-.448-.007-.668-.007-.228 0-.448 0-.668-.008H192.404c-.503 0-.999 0-1.494.008-.503 0-.999.007-1.494.015-.503 0-.999.016-1.494.024-.503.008-.999.023-1.494.031-.503.016-.998.024-1.494.04l-1.494.047c-.503.016-.998.039-1.494.063l-1.494.071c-.503.023-.998.055-1.494.086l-1.494.095c-.503.031-.998.07-1.494.11a78.41 78.41 0 0 0-1.494.126l-1.494.141c-.503.048-.998.103-1.494.158-.503.055-.998.11-1.494.173l-1.494.189c-.503.07-.998.141-1.493.212l-1.494.236-1.494.26c-.504.094-1.007.189-1.494.291-.504.102-1.007.204-1.494.315-.504.11-1.007.228-1.494.346-.504.126-1.007.252-1.494.385h-.008c-.503.134-.999.276-1.486.417-.504.15-1.007.307-1.494.465-.503.165-1.007.33-1.494.503-.503.181-1.007.362-1.494.551-.503.197-1.007.393-1.494.598-.503.212-1.007.433-1.494.653-.503.228-1.007.464-1.494.708-.503.252-1.007.512-1.494.771-.212.11-.425.228-.637.339-.291.157-.574.322-.865.487-.503.291-.999.59-1.502.897a64.9 64.9 0 0 0-1.502.968c-.503.338-.998.692-1.501 1.047-.504.362-.999.739-1.502 1.125-.503.393-.999.794-1.502 1.211-.464.386-.92.787-1.384 1.196-.464.41-.92.842-1.384 1.275-.464.441-.92.889-1.384 1.353-.464.465-.92.937-1.384 1.432-.464.488-.92.992-1.383 1.511-.464.511-.92 1.039-1.384 1.582-.464.542-.92 1.101-1.384 1.668-.464.566-.92 1.141-1.384 1.738-.464.591-.92 1.196-1.392 1.818-.464.614-.92 1.243-1.392 1.881-.464.637-.92 1.29-1.391 1.951-.456.661-.92 1.33-1.392 2.022-.464.677-.92 1.369-1.392 2.077-.456.7-.92 1.409-1.392 2.14-.456.716-.92 1.448-1.391 2.196-.456.731-.92 1.479-1.392 2.242-.441.716-.881 1.44-1.329 2.187l-.063.103-165.186 273.765c-6.062 10.056-10.245 18.207-12.895 25.391-2.571 6.971-3.712 13.022-3.704 18.994 0 5.956 1.14 11.999 3.704 18.954 2.657 7.192 6.84 15.359 12.919 25.43l164.777 272.787.786 1.3c.189.32.378.63.574.94.456.75.912 1.48 1.36 2.21.456.74.913 1.46 1.361 2.17.456.72.912 1.42 1.36 2.12.456.7.912 1.39 1.36 2.07.456.68.912 1.36 1.361 2.01.456.67.912 1.31 1.36 1.95.456.65.912 1.28 1.36 1.89.456.62.912 1.24 1.361 1.83.456.6.912 1.19 1.36 1.76.456.57.912 1.14 1.36 1.69.456.55.912 1.09 1.36 1.62.456.53.912 1.04 1.361 1.54.456.51.912 1 1.368 1.47.495.52.991 1.02 1.478 1.51.495.48.991.96 1.478 1.42a59.576 59.576 0 0 0 4.451 3.75c.495.37.983.73 1.486 1.08.495.35.983.69 1.486 1.01.488.32.983.63 1.486.94.488.29.983.59 1.486.86.102.06.205.12.307.17.393.22.786.43 1.179.63.488.26.983.51 1.486.74.488.24.983.47 1.487.69.487.21.982.42 1.486.63.487.19.983.39 1.486.58.487.18.983.36 1.486.53.487.17.983.33 1.486.49.487.15.983.3 1.486.44.472.14.944.27 1.431.4.016 0 .039 0 .063.01.488.13.983.25 1.486.37.488.12.983.23 1.486.34.488.11.983.21 1.486.31.488.09.983.19 1.486.28.488.09.983.17 1.487.25.487.08.99.16 1.486.23.487.07.99.14 1.494.2.487.07.99.13 1.494.19.487.06.99.12 1.494.17.487.05.99.1 1.494.15.487.05.99.09 1.494.13l1.494.12c.495.04.99.07 1.494.11l1.493.09c.488.04.991.06 1.494.08.496.03.991.05 1.494.07.496.03.991.04 1.494.07.496.01.991.03 1.494.04.488.02.991.03 1.494.04.496.01.991.03 1.494.04.496 0 .991.01 1.494.02.488 0 .991.01 1.494.01.496 0 .991 0 1.494.01h334.964c.464 0 .928-.01 1.384-.01.464 0 .928-.02 1.384-.03.464 0 .928-.01 1.384-.02l1.384-.03c.464-.02.927-.03 1.384-.04.463-.02.927-.03 1.383-.05.464-.01.928-.04 1.384-.05.464-.03.928-.05 1.384-.07.464-.03.928-.05 1.384-.08l1.384-.09c.464-.03.928-.06 1.384-.1l1.384-.12c.464-.04.928-.09 1.384-.13.464-.04.928-.09 1.384-.14.463-.04.927-.1 1.383-.15l1.384-.18c.464-.06.928-.12 1.384-.19.464-.07.928-.13 1.384-.2.472-.07.928-.15 1.384-.23.472-.08.928-.16 1.384-.25.472-.09.928-.18 1.384-.28.472-.09.928-.19 1.384-.3.471-.1.927-.21 1.384-.33.471-.11.927-.23 1.383-.35.016 0 .032 0 .04-.01.456-.12.904-.25 1.344-.38.472-.13.928-.28 1.384-.42.472-.15.928-.31 1.384-.46.472-.17.928-.34 1.384-.51.472-.17.928-.35 1.392-.54.464-.19.935-.39 1.391-.58.472-.21.928-.42 1.392-.64.472-.22.928-.45 1.392-.69.464-.23.928-.48 1.392-.73 0 0 .055-.03.086-.04.441-.25.873-.5 1.306-.75.463-.28.927-.56 1.391-.85.464-.3.928-.6 1.392-.91.464-.32.928-.65 1.392-.99.464-.34.928-.68 1.391-1.04.464-.37.928-.74 1.392-1.13.464-.39.928-.79 1.392-1.2.464-.41.928-.84 1.392-1.27.464-.44.928-.89 1.392-1.35.463-.47.927-.95 1.391-1.44.464-.48.928-.99 1.392-1.51 5.213-5.82 10.544-13.41 16.662-23.55l165.256-274.06c6.071-10.064 10.254-18.223 12.904-25.407 2.571-6.963 3.703-13.006 3.703-18.978 0-5.956-1.14-11.999-3.703-18.946-2.658-7.192-6.841-15.359-12.927-25.446l-.063.228Zm15.286 44.392c0 4.745-.74 9.56-2.359 14.848-2.461 8.049-6.959 17.215-14.099 29.065L604.575 1026.13c-5.662 9.39-10.623 16.56-15.443 22.14-.464.54-.928 1.07-1.392 1.58-.464.51-.928 1.02-1.392 1.5-.464.49-.928.96-1.391 1.41-.464.46-.928.91-1.392 1.34-.464.43-.928.85-1.392 1.25-.464.4-.928.8-1.392 1.18-.464.37-.927.73-1.391 1.09-.464.35-.928.69-1.392 1.03-.464.33-.928.64-1.392.95-.464.31-.92.61-1.392.89-.456.28-.92.56-1.391.83-.221.12-.449.26-.677.37-.236.14-.479.26-.715.39-.456.24-.92.48-1.392.72-.456.22-.92.44-1.392.65-.456.2-.92.41-1.391.61-.457.18-.92.37-1.392.55-.456.18-.92.35-1.392.52-.456.17-.92.33-1.384.48-.456.14-.92.29-1.384.43-.456.13-.92.27-1.384.4-.456.13-.92.25-1.384.37-.456.12-.919.23-1.383.34-.456.1-.92.2-1.384.3-.22.05-.441.1-.661.14-.244.05-.487.09-.731.14-.456.09-.92.17-1.384.26l-1.384.24-1.384.21c-.456.06-.92.13-1.384.19-.456.06-.92.11-1.383.17-.457.05-.92.11-1.384.16-.456.04-.92.09-1.384.14-.456.05-.92.09-1.384.12-.456.04-.92.08-1.384.11a60.602 60.602 0 0 1-2.768.19c-.456.03-.92.06-1.384.08-.456.03-.92.05-1.384.07-.456.03-.92.04-1.383.06-.457.01-.92.03-1.384.05-.456.01-.92.03-1.384.04-.456.02-.92.03-1.384.03l-1.384.03c-.456.01-.92.01-1.384.02-.456 0-.92.01-1.384.02H191.665c-.503 0-.999-.01-1.494-.02-.503 0-.999-.01-1.494-.02-.503-.01-.999-.03-1.494-.03-.503-.02-.999-.03-1.494-.04-.503-.02-.999-.03-1.494-.05l-1.494-.06c-.503-.03-.999-.05-1.494-.07-.503-.03-.998-.06-1.494-.08-.503-.03-.998-.07-1.494-.1-.503-.03-.998-.07-1.494-.1l-1.494-.12c-.503-.04-.998-.08-1.494-.13l-1.494-.15c-.503-.06-.998-.11-1.494-.17-.503-.07-.998-.13-1.494-.19-.503-.07-.998-.14-1.494-.22a34.17 34.17 0 0 1-1.486-.23c-.503-.09-.998-.17-1.486-.26-.346-.06-.692-.13-1.03-.2l-.464-.09c-.503-.1-.998-.21-1.486-.32-.503-.11-.998-.22-1.486-.34-.503-.13-.999-.25-1.486-.38-.503-.13-.999-.28-1.486-.42-.503-.15-.999-.3-1.486-.45-.504-.17-.999-.33-1.486-.51-.504-.18-.999-.35-1.487-.54-.503-.2-.998-.39-1.486-.61-.503-.21-.998-.42-1.486-.65-.503-.23-.998-.46-1.486-.71-.503-.25-.998-.51-1.486-.77a9.555 9.555 0 0 0-.432-.23c-.354-.2-.7-.4-1.054-.6-.495-.29-.991-.6-1.486-.91-.496-.31-.991-.63-1.486-.97-.496-.34-.991-.7-1.486-1.06-.496-.36-.991-.74-1.487-1.13-.495-.39-.99-.8-1.486-1.22-.495-.42-.99-.86-1.478-1.31a39.64 39.64 0 0 1-1.478-1.39c-.496-.48-.991-.97-1.478-1.49-.496-.51-.983-1.03-1.479-1.56-.456-.5-.912-1.01-1.36-1.54-.456-.52-.904-1.05-1.36-1.59-.456-.55-.904-1.11-1.36-1.68-.449-.57-.905-1.15-1.361-1.75-.448-.59-.904-1.19-1.36-1.81-.448-.62-.904-1.25-1.36-1.89-.449-.64-.905-1.28-1.361-1.95a190.145 190.145 0 0 1-2.72-4.06c-.448-.7-.905-1.4-1.361-2.11-.448-.71-.904-1.43-1.36-2.17-.448-.72-.904-1.45-1.36-2.21-.244-.4-.488-.79-.731-1.2l-.622-1.04L-50.5 751.971c-7.163-11.873-11.676-21.063-14.138-29.112-1.611-5.279-2.35-10.079-2.358-14.816 0-4.744.739-9.552 2.358-14.847 2.454-8.041 6.96-17.223 14.107-29.073l165.249-273.868c.031-.055.07-.11.102-.165.472-.779.935-1.534 1.392-2.282.471-.763.935-1.503 1.391-2.234.464-.74.936-1.48 1.392-2.188.472-.724.928-1.432 1.392-2.124a119.9 119.9 0 0 1 1.392-2.07 136.24 136.24 0 0 1 4.175-5.83c.464-.614.928-1.212 1.392-1.802.463-.59.927-1.164 1.383-1.731.464-.566.928-1.117 1.384-1.652.464-.535.928-1.062 1.384-1.566.464-.511.928-1.007 1.384-1.495.464-.48.92-.952 1.384-1.408.464-.456.92-.905 1.384-1.33.464-.433.92-.842 1.384-1.251.495-.433.998-.858 1.502-1.267.495-.409.998-.802 1.501-1.18.496-.378.999-.74 1.502-1.094a47.68 47.68 0 0 1 3.004-1.951c.495-.299.991-.59 1.494-.865.039-.024.086-.048.126-.071.448-.252.912-.488 1.368-.724.495-.252.991-.496 1.494-.74.495-.236.991-.456 1.494-.676.495-.213.991-.417 1.494-.622.495-.197.991-.385 1.494-.574.487-.181.99-.354 1.494-.52a64.978 64.978 0 0 1 4.482-1.298c.495-.126.99-.244 1.494-.362.487-.11.99-.22 1.494-.322.11-.024.22-.048.33-.063.385-.079.77-.158 1.164-.229.487-.094.99-.18 1.494-.267.487-.087.99-.165 1.494-.244.487-.079.99-.149 1.493-.22.488-.071.991-.134 1.494-.197a86.15 86.15 0 0 1 1.494-.173c.496-.055.991-.11 1.494-.157.488-.048.991-.095 1.494-.142.488-.047.991-.087 1.494-.126.488-.039.991-.071 1.494-.11l1.494-.095c.496-.031.991-.055 1.494-.086l1.494-.071c.496-.023.991-.039 1.494-.063l1.494-.047c.496-.016.991-.032 1.494-.039.495-.016.991-.024 1.494-.032l1.494-.023c.488 0 .991-.008 1.494-.016.495 0 .991-.008 1.494-.008h336.875c.228 0 .448 0 .668.008.228 0 .448 0 .668.008.22 0 .449 0 .669.008.228 0 .448.007.668.015.464.008.928.024 1.384.032l1.384.047c.464.016.928.031 1.384.055.464.016.928.039 1.384.055l1.383.071c.464.024.928.055 1.384.079.464.031.928.055 1.384.094.464.031.928.063 1.384.102.464.04.928.071 1.384.11.464.04.928.087 1.384.126l1.384.142c.464.047.928.102 1.384.157.464.055.928.118 1.384.173l1.383.189 1.384.213c.464.078.928.149 1.384.236.464.078.928.165 1.384.252a.822.822 0 0 1 .142.031c.416.079.833.165 1.242.252.464.102.928.204 1.384.307.464.11.928.22 1.384.338.464.118.928.244 1.384.362.464.126.928.26 1.384.401.463.142.927.283 1.383.433.464.149.928.307 1.384.472.464.165.928.338 1.384.511.464.181.928.37 1.384.559.464.197.928.394 1.376.606.464.212.928.425 1.376.645.464.228.928.464 1.376.7.283.15.566.299.849.457.181.102.354.204.535.299.464.259.92.535 1.376.81.464.283.92.575 1.376.874a49.754 49.754 0 0 1 4.128 3.021 58.149 58.149 0 0 1 2.752 2.376c.456.425.92.85 1.376 1.298.456.449.912.913 1.376 1.385.456.472.912.952 1.376 1.456a95.996 95.996 0 0 1 2.752 3.139 111.86 111.86 0 0 1 2.737 3.439c.456.598.912 1.196 1.368 1.825 3.239 4.406 6.628 9.568 10.308 15.658l165.454 274.175c7.163 11.873 11.668 21.055 14.129 29.112 1.612 5.279 2.359 10.087 2.359 14.816l.04-.229Z"/>
    <path fill="url(#f)" d="M793.098 661.33 618.807 372.504c-9.168-15.193-16.662-24.965-24.525-31.637a58.163 58.163 0 0 0-1.376-1.133 60.506 60.506 0 0 0-1.376-1.071 41.347 41.347 0 0 0-1.376-.999 39.26 39.26 0 0 0-1.376-.936 50.027 50.027 0 0 0-1.376-.881 34.587 34.587 0 0 0-1.376-.819c-.299-.173-.598-.338-.896-.503-.158-.087-.323-.173-.488-.26-.456-.244-.912-.488-1.376-.724-.456-.228-.912-.456-1.376-.676a42.526 42.526 0 0 0-1.376-.622 70.967 70.967 0 0 0-1.376-.582c-.456-.181-.912-.362-1.384-.535a55.662 55.662 0 0 0-1.384-.504c-.456-.157-.912-.315-1.384-.464a56.474 56.474 0 0 0-2.768-.826l-.424-.118c-.315-.087-.637-.165-.959-.252a58.487 58.487 0 0 0-1.384-.338 33.395 33.395 0 0 0-1.384-.307c-.456-.095-.912-.197-1.384-.283-.456-.087-.92-.181-1.384-.26-.456-.087-.92-.165-1.384-.244-.456-.079-.92-.15-1.384-.22-.456-.071-.92-.142-1.384-.205-.456-.063-.912-.126-1.383-.189l-1.384-.165a73.31 73.31 0 0 0-1.384-.149c-.456-.048-.92-.095-1.384-.142-.456-.047-.92-.087-1.384-.126l-1.384-.118c-.456-.032-.92-.071-1.384-.102l-1.384-.095c-.456-.031-.92-.055-1.384-.078l-1.383-.071c-.457-.024-.92-.04-1.384-.063-.456-.016-.92-.04-1.384-.055l-1.384-.047c-.456-.016-.92-.024-1.384-.04-.456-.008-.92-.023-1.384-.031l-1.384-.024c-.456 0-.92-.016-1.384-.016a80.7 80.7 0 0 1-1.384-.015H183.582c-.503 0-.999 0-1.494.008-.503 0-.999.007-1.494.015-.503 0-.999.016-1.494.024-.503.008-.999.016-1.494.031-.503.008-.999.024-1.494.04l-1.494.047c-.503.016-.999.039-1.494.055-.503.024-.999.039-1.494.063-.503.023-.999.047-1.494.079-.503.031-.999.055-1.494.086-.503.032-.999.063-1.494.102-.503.04-.998.071-1.494.111a87.57 87.57 0 0 0-1.494.125l-1.494.142c-.503.047-.998.102-1.494.157-.503.056-.998.118-1.494.174a76.96 76.96 0 0 0-1.494.196l-1.494.213c-.503.078-.998.157-1.494.236-.503.086-.998.173-1.494.259l-1.494.284c-.503.102-.998.204-1.494.314-.503.111-1.006.221-1.494.339-.503.118-1.006.244-1.494.37l-.967.259c-.173.047-.354.095-.526.15-.504.141-1.007.291-1.494.44-.504.158-1.007.315-1.494.48a63.38 63.38 0 0 0-1.494.527 62.939 62.939 0 0 0-2.988 1.196c-.504.221-1.007.441-1.494.669-.464.22-.928.441-1.384.669-.464.236-.928.472-1.384.716a40.797 40.797 0 0 0-1.384.771c-.464.268-.928.535-1.384.818-.464.284-.92.583-1.384.882-.464.306-.92.613-1.384.936a40.23 40.23 0 0 0-1.384.999c-.463.346-.919.708-1.383 1.07-.464.37-.92.748-1.384 1.133-.464.394-.92.795-1.384 1.204a72.76 72.76 0 0 0-2.768 2.636c-.464.464-.92.944-1.384 1.432-.464.488-.92.991-1.384 1.503-.464.511-.92 1.038-1.384 1.573-.464.535-.92 1.094-1.384 1.653a81.23 81.23 0 0 0-1.383 1.723c-.464.582-.92 1.18-1.392 1.794-.464.606-.92 1.235-1.392 1.865-.464.629-.92 1.274-1.392 1.927-.464.653-.92 1.306-1.391 1.991-.456.669-.92 1.353-1.392 2.053-.456.685-.92 1.393-1.392 2.109L104 366.383c-.464.724-.92 1.456-1.391 2.211-.456.74-.92 1.495-1.392 2.258-.315.519-.637 1.047-.959 1.582L-73.829 660.976c-6.306 10.457-10.686 18.97-13.485 26.468-2.8 7.483-4.018 13.959-4.018 20.355 0 6.381 1.226 12.841 4.018 20.316 2.807 7.506 7.194 16.035 13.516 26.516L100.548 1043.3l.055.09c.441.73.873 1.44 1.306 2.14.456.75.912 1.47 1.36 2.19a232.544 232.544 0 0 0 2.721 4.25c.456.7.912 1.38 1.36 2.05a190.145 190.145 0 0 0 2.721 3.95c.456.64.912 1.27 1.36 1.88.456.62.912 1.22 1.36 1.82.456.6.912 1.18 1.36 1.76.457.57.913 1.14 1.361 1.69.456.55.912 1.09 1.36 1.62.456.53.912 1.04 1.36 1.55.456.5.912 1 1.361 1.48.456.48.912.95 1.368 1.41a84.62 84.62 0 0 0 2.736 2.6c.456.41.912.81 1.368 1.2.456.38.912.76 1.368 1.12.457.36.913.72 1.369 1.06.456.34.912.68 1.368 1 .456.33.912.63 1.368.94a52.435 52.435 0 0 0 2.854 1.77c.291.17.59.34.881.5.196.11.401.22.597.33.488.26.983.51 1.487.77.487.24.982.48 1.486.71.487.23.983.45 1.486.66.487.22.983.41 1.486.62.487.19.983.38 1.486.56.488.18.983.35 1.486.52.488.17.983.33 1.486.48.488.14.983.29 1.486.44.268.07.535.15.81.22.22.07.456.12.676.18.488.12.983.25 1.487.37.487.11.982.23 1.486.34.487.11.983.21 1.486.3.487.1.983.19 1.486.29.487.08.991.17 1.486.25.487.08.991.16 1.486.24.488.07.991.14 1.486.21.488.07.991.14 1.494.2.488.06.991.12 1.494.17.495.06.991.11 1.494.16.488.05.991.1 1.494.14.488.05.991.09 1.494.13.488.04.991.08 1.494.11.495.03.991.07 1.494.1l1.494.09c.487.02.991.05 1.494.08l1.494.06c.495.02.991.04 1.494.05.495.02.991.04 1.494.05.487.02.991.02 1.494.04a4634.202 4634.202 0 0 0 2.988.06c.487 0 .99 0 1.494.01.495 0 .99 0 1.494.01h352.215c.464 0 .928 0 1.384-.01.464 0 .928-.01 1.384-.01.464 0 .928-.02 1.384-.03.464-.01.928-.01 1.384-.03l1.383-.03c.464-.02.928-.03 1.384-.05.464-.01.928-.03 1.384-.05.464-.01.928-.03 1.384-.05.464-.02.928-.05 1.384-.07.464-.03.928-.05 1.384-.08l1.384-.09c.464-.03.928-.06 1.384-.1.464-.03.927-.07 1.384-.11l1.383-.12c.464-.05.928-.09 1.384-.14.464-.05.928-.09 1.384-.15.472-.05.928-.11 1.384-.16l1.384-.18c.464-.07.928-.14 1.384-.2.464-.07.928-.14 1.384-.22l1.384-.24c.464-.08.928-.16 1.384-.26.463-.09.927-.18 1.383-.28.464-.1.928-.2 1.384-.31.464-.11.928-.22 1.384-.33.472-.12.928-.23 1.384-.36.118-.03.228-.06.338-.09.354-.1.7-.2 1.046-.3.472-.14.928-.28 1.384-.43.472-.15.928-.3 1.384-.45.472-.16.928-.33 1.392-.5.471-.17.927-.35 1.391-.54.472-.18.928-.37 1.392-.57.464-.2.928-.41 1.392-.62.472-.22.928-.44 1.392-.67.471-.24.927-.47 1.391-.72.22-.11.441-.23.661-.35.244-.13.487-.28.731-.42.464-.26.928-.53 1.392-.82.464-.28.928-.58 1.392-.88 10.064-6.58 18.824-17.08 30.138-35.84l174.087-288.719c6.306-10.457 10.686-18.962 13.485-26.461 2.8-7.49 4.026-13.966 4.018-20.355 0-6.381-1.226-12.848-4.018-20.323-2.807-7.507-7.194-16.028-13.516-26.508l-.016.236Zm15.868 46.831c0 4.871-.732 9.796-2.351 15.217-2.556 8.553-7.337 18.318-14.972 30.985L617.549 1043.07c-10.796 17.91-19.202 28.17-28.637 34.67-.464.31-.928.63-1.392.93-.464.3-.928.58-1.392.86-.464.28-.92.54-1.392.81-.086.05-.18.1-.267.15-.37.21-.747.4-1.116.6-.457.24-.92.47-1.392.69-.456.22-.92.44-1.392.65-.456.2-.92.41-1.392.6-.456.19-.92.38-1.391.56-.457.17-.92.35-1.392.51-.456.17-.92.33-1.384.48-.456.14-.92.29-1.384.44-.456.14-.92.27-1.384.4-.456.12-.92.25-1.384.37-.456.12-.92.23-1.384.34-.456.11-.92.21-1.384.31-.456.1-.92.2-1.383.29-.118.02-.236.05-.346.07-.346.06-.692.14-1.038.2-.456.09-.92.16-1.384.24-.456.08-.92.15-1.384.22l-1.384.21c-.456.06-.92.12-1.384.19-.456.05-.92.11-1.384.16-.456.06-.92.1-1.384.15-.456.05-.92.1-1.384.13-.456.04-.92.09-1.383.13-.457.04-.92.08-1.384.11-.456.03-.92.06-1.384.1-.456.03-.92.06-1.384.08-.456.03-.92.06-1.384.08-.456.02-.92.05-1.384.07l-1.384.06c-.456.01-.92.04-1.384.05-.456.02-.92.03-1.384.05l-1.383.03-1.384.03-1.384.03c-.456 0-.92 0-1.384.01-.456 0-.92.01-1.384.01H184.054c-.504 0-.999 0-1.494-.01-.504 0-.999-.01-1.494-.01-.504 0-.999-.02-1.494-.03-.504-.01-.999-.01-1.494-.03a72.73 72.73 0 0 1-1.494-.04c-.504-.01-.999-.03-1.494-.05-.503-.01-.999-.04-1.494-.05-.503-.03-.999-.04-1.494-.06-.503-.03-.999-.05-1.494-.08l-1.494-.09c-.503-.03-.999-.06-1.494-.1-.503-.04-.999-.07-1.494-.11-.503-.04-.999-.09-1.494-.13-.503-.05-.999-.09-1.494-.14-.503-.05-.999-.1-1.494-.16-.503-.05-.999-.12-1.494-.18-.503-.06-.999-.12-1.494-.19-.503-.08-.999-.15-1.486-.22-.503-.08-.999-.16-1.486-.24-.503-.09-.999-.17-1.486-.26-.095-.02-.189-.03-.283-.06a58.68 58.68 0 0 1-2.69-.55c-.503-.11-.998-.22-1.486-.34-.503-.13-.998-.25-1.486-.38-.503-.13-.998-.28-1.486-.42-.503-.15-.998-.3-1.486-.45a56.2 56.2 0 0 1-1.486-.5c-.503-.17-.999-.35-1.486-.53-.503-.19-.999-.39-1.486-.59-.503-.2-.999-.41-1.486-.63-.504-.22-.999-.46-1.486-.7-.504-.24-.999-.48-1.487-.74-.401-.21-.802-.42-1.195-.63-.094-.06-.196-.11-.291-.17-.495-.28-.99-.57-1.486-.86-.495-.3-.991-.62-1.486-.93-.456-.3-.912-.61-1.368-.92-.456-.33-.912-.65-1.368-.99-.456-.34-.912-.69-1.368-1.04-.456-.37-.912-.74-1.369-1.12-.456-.39-.912-.78-1.368-1.19-.456-.41-.912-.82-1.368-1.26-.456-.43-.912-.87-1.368-1.33-.456-.45-.912-.92-1.368-1.4-.456-.48-.912-.97-1.36-1.48a52.25 52.25 0 0 1-1.361-1.55c-.456-.52-.904-1.07-1.36-1.62-.456-.55-.904-1.12-1.36-1.69-.449-.57-.905-1.16-1.361-1.75a151.017 151.017 0 0 1-2.72-3.72c-.448-.64-.905-1.28-1.361-1.94-.448-.65-.904-1.32-1.36-2-.448-.67-.904-1.36-1.36-2.05-.448-.69-.904-1.4-1.36-2.11-.449-.7-.905-1.42-1.361-2.15-.448-.72-.904-1.45-1.36-2.2-.401-.65-.802-1.3-1.203-1.98l-.157-.25-174.245-288.495c-7.65-12.683-12.439-22.463-15.002-31.024-1.62-5.405-2.351-10.323-2.351-15.186 0-4.87.731-9.803 2.35-15.224 2.556-8.553 7.337-18.318 14.972-30.978l174.087-288.542c.283-.472.566-.928.841-1.384.464-.764.936-1.527 1.392-2.267.472-.755.928-1.487 1.392-2.21.464-.74.928-1.456 1.391-2.164.464-.716.928-1.424 1.392-2.109.464-.7.928-1.385 1.392-2.054.464-.676.928-1.337 1.392-1.99.464-.661.928-1.306 1.392-1.928.463-.637.927-1.259 1.391-1.865.464-.613.928-1.203 1.392-1.794.464-.59.928-1.164 1.384-1.723.464-.566.928-1.117 1.384-1.652.464-.543.928-1.062 1.384-1.574.464-.511.928-1.015 1.384-1.502.463-.488.92-.96 1.383-1.417.464-.464.92-.912 1.384-1.345.464-.433.92-.858 1.384-1.275.464-.409.92-.81 1.384-1.196.456-.385.92-.763 1.384-1.125.456-.362.92-.708 1.384-1.054.456-.339.92-.669 1.384-.984.456-.315.92-.629 1.384-.928.456-.291.92-.583 1.384-.858a49.1 49.1 0 0 1 1.383-.802c.118-.063.228-.134.346-.197.346-.189.692-.378 1.038-.559.456-.236.912-.472 1.384-.692.496-.236.991-.472 1.494-.7a50.57 50.57 0 0 1 2.988-1.236c.488-.189.991-.37 1.494-.543.495-.173.991-.338 1.494-.503.495-.158.991-.315 1.494-.457.495-.141.991-.283 1.494-.424.488-.134.991-.26 1.494-.386a76.178 76.178 0 0 1 2.988-.677c.252-.055.503-.102.763-.149l.731-.142a71.82 71.82 0 0 1 1.494-.267c.495-.087.991-.166 1.494-.244a83.692 83.692 0 0 1 2.988-.417c.495-.063.991-.118 1.494-.181.487-.055.99-.11 1.494-.158.487-.047.99-.094 1.494-.141.495-.047.99-.087 1.494-.126l1.494-.118c.495-.039.99-.071 1.494-.102.495-.032.99-.063 1.494-.087.487-.024.99-.055 1.494-.079.495-.023.99-.047 1.494-.063.495-.023.99-.039 1.493-.055l1.494-.047c.488-.016.991-.023 1.494-.039.496-.008.991-.024 1.494-.032l1.494-.023c.488 0 .991-.008 1.494-.016.496 0 .991 0 1.494-.008h352.656c.464 0 .928.008 1.384.016.464 0 .928.008 1.384.016.464 0 .928.015 1.384.023.464.008.927.024 1.384.032.463.008.927.023 1.383.039l1.384.047c.464.016.928.04 1.384.055.464.016.928.04 1.384.063l1.384.071c.464.024.928.055 1.384.087l1.384.094c.464.031.928.063 1.384.102.464.04.927.071 1.384.11.463.04.927.087 1.383.126l1.384.142c.464.047.928.102 1.384.157.464.055.928.11 1.384.173l1.384.189c.464.063.928.134 1.384.205.464.071.928.149 1.384.228.464.079.928.165 1.384.244.039 0 .078.016.125.024.425.078.842.165 1.259.243.463.095.927.189 1.383.292.464.102.928.212 1.384.322a69.928 69.928 0 0 1 2.768.724c.464.134.928.268 1.384.409.464.142.928.291 1.384.441.464.157.928.315 1.384.48.464.165.928.346 1.384.519.464.181.927.37 1.383.559.464.196.928.401 1.377.606.463.212.927.424 1.376.653.463.228.927.456 1.376.7l.967.519c.141.079.275.158.409.236.464.26.92.527 1.376.803.464.283.92.566 1.376.857.464.299.92.614 1.376.929.464.322.92.645 1.376.983.464.339.92.693 1.376 1.055.464.362.92.739 1.376 1.125.456.385.92.779 1.376 1.188 7.312 6.531 14.413 15.965 23.046 30.269l174.292 288.825c7.658 12.684 12.439 22.456 15.002 31.025 1.612 5.397 2.351 10.323 2.351 15.185l.032-.252Z"/>
    <path fill="url(#g)" d="M815.193 658.906 632.048 355.431c-13.288-22.016-23.219-33.22-35.431-39.963a60.026 60.026 0 0 0-4.89-2.416c-.456-.196-.912-.393-1.384-.582-.456-.189-.912-.362-1.384-.543a55.67 55.67 0 0 0-1.384-.503 56.474 56.474 0 0 0-2.768-.905 34.92 34.92 0 0 0-1.384-.401c-.149-.04-.298-.087-.456-.126a30.613 30.613 0 0 0-.928-.244c-.456-.118-.912-.236-1.383-.346a56.357 56.357 0 0 0-1.384-.323c-.456-.102-.912-.205-1.384-.299-.456-.094-.912-.189-1.384-.275-.456-.087-.92-.173-1.384-.252-.456-.079-.92-.157-1.384-.228l-1.384-.213c-.456-.071-.92-.133-1.384-.196a72.4 72.4 0 0 0-1.384-.181c-.456-.055-.912-.111-1.383-.166-.457-.055-.92-.102-1.384-.149-.456-.047-.92-.095-1.384-.134-.456-.047-.92-.086-1.384-.126l-1.384-.118c-.456-.031-.92-.071-1.384-.102l-1.384-.095c-.456-.031-.92-.055-1.384-.086l-1.384-.071c-.456-.023-.92-.047-1.383-.063-.457-.023-.92-.039-1.384-.055l-1.384-.047c-.456-.016-.92-.032-1.384-.039-.456-.016-.92-.024-1.384-.032l-1.384-.024-1.384-.023c-.456 0-.92-.008-1.384-.016-.456 0-.92-.008-1.384-.008H174.759c-.503 0-.998 0-1.494.008-.503 0-.998.008-1.493.016-.504 0-.999.016-1.494.023l-1.494.024c-.504.008-.999.024-1.494.039l-1.494.048c-.504.015-.999.031-1.494.055-.504.015-.999.039-1.494.063l-1.494.07c-.503.024-.999.056-1.494.079-.503.032-.999.055-1.494.095-.503.031-.999.07-1.494.11l-1.494.118a77.49 77.49 0 0 0-1.494.134 998.6 998.6 0 0 0-1.494.141c-.503.055-.999.102-1.494.158-.503.055-.999.118-1.494.18a84.32 84.32 0 0 0-1.494.197 672.3 672.3 0 0 0-1.494.213c-.503.078-.999.157-1.494.236-.503.086-.999.165-1.494.259-.503.095-.999.181-1.494.284-.503.102-.998.204-1.494.306l-1.494.331a83.59 83.59 0 0 0-1.494.362 69.055 69.055 0 0 0-4.128 1.18c-.464.15-.928.299-1.376.456a59.48 59.48 0 0 0-5.504 2.188c-.464.212-.928.425-1.376.653-.464.228-.928.456-1.384.692a37.39 37.39 0 0 0-1.234.661c-.048.032-.103.055-.15.087-.464.259-.92.527-1.384.794-.464.276-.92.559-1.384.842-.463.291-.92.59-1.383.897-.464.315-.92.63-1.384.96-.464.331-.92.677-1.384 1.023-.464.354-.92.716-1.384 1.086a62.954 62.954 0 0 0-4.152 3.659c-.464.44-.92.889-1.384 1.353-.464.464-.92.944-1.384 1.432-.464.488-.92.991-1.383 1.503a91.507 91.507 0 0 0-2.768 3.202c-.464.559-.92 1.133-1.384 1.715-.464.583-.92 1.173-1.392 1.779-.464.598-.92 1.211-1.392 1.841-.463.621-.92 1.259-1.391 1.904-.464.645-.92 1.298-1.392 1.967-.464.661-.92 1.337-1.392 2.022-.464.677-.92 1.369-1.392 2.077-.463.7-.92 1.409-1.391 2.132-.456.716-.92 1.44-1.392 2.188-.456.732-.92 1.471-1.392 2.226-.456.74-.92 1.503-1.392 2.274l-.59.968-182.916 303.216c-6.535 10.835-11.103 19.687-14.052 27.492-3.035 8.018-4.364 14.934-4.356 21.763 0 6.814 1.329 13.722 4.356 21.724 2.957 7.813 7.533 16.681 14.09 27.547L86.663 1059.44l.677 1.12c.228.38.456.75.684 1.12.456.75.912 1.49 1.36 2.21.456.74.912 1.46 1.36 2.17.456.73.912 1.43 1.36 2.13.457.71.913 1.4 1.36 2.09.457.69.913 1.37 1.361 2.03.456.68.912 1.34 1.36 1.98.457.65.913 1.3 1.36 1.93.457.64.913 1.27 1.361 1.87.456.62.912 1.22 1.36 1.81.456.6.912 1.18 1.361 1.76.456.57.912 1.14 1.36 1.69.456.55.912 1.1 1.36 1.63.456.53.912 1.04 1.361 1.55.456.52.912 1.01 1.36 1.49.456.49.912.96 1.368 1.43.456.46.912.92 1.368 1.36a80.111 80.111 0 0 0 2.737 2.5c.456.39.912.79 1.368 1.16.456.37.912.73 1.368 1.08.456.36.912.69 1.368 1.03a57.46 57.46 0 0 0 2.736 1.88c.456.29.912.58 1.368.86.457.28.913.54 1.369.8.22.13.432.25.652.37.236.14.48.26.716.39.456.24.912.48 1.368.71.456.22.912.44 1.368.67.448.21.912.41 1.368.62.449.19.912.39 1.368.57.449.18.913.36 1.369.54.448.18.912.34 1.368.51.487.17.983.34 1.486.5.487.16.983.32 1.486.47.488.14.983.29 1.486.43.063.01.118.03.181.05.432.11.865.23 1.313.34.488.13.983.25 1.486.37.488.12.983.23 1.486.34.488.11.991.21 1.486.31.488.09.991.19 1.487.28.487.09.99.17 1.486.26.487.08.99.16 1.486.24.487.07.99.14 1.486.22.495.07.991.13 1.494.19.487.07.991.13 1.494.18.487.06.991.11 1.494.17.487.05.99.1 1.494.15.495.05.99.09 1.494.13.495.04.99.09 1.494.12.495.04.99.07 1.494.11l1.494.09c.495.04.99.06 1.494.09.495.02.99.06 1.494.08a1092.317 1092.317 0 0 0 2.987.12c.496.01.991.03 1.494.04.496.02.991.03 1.494.04.496.01.991.03 1.494.04.496 0 .991.01 1.494.02.488 0 .991.01 1.494.02h372.36c.464 0 .928 0 1.384-.01.464 0 .927-.01 1.383-.02.464 0 .928-.01 1.384-.02.464-.01.928-.03 1.384-.03.464-.01.928-.03 1.384-.04.464-.02.928-.03 1.384-.05.464-.02.928-.03 1.384-.06.464-.01.928-.03 1.384-.05.464-.02.928-.05 1.384-.07.464-.02.928-.05 1.384-.08.463-.02.927-.05 1.383-.09.464-.03.928-.06 1.384-.1.464-.03.928-.07 1.384-.11l1.384-.12c.464-.04.928-.08 1.384-.13.464-.05.928-.09 1.384-.15.464-.05.928-.1 1.384-.16.464-.05.928-.11 1.384-.17.464-.06.928-.13 1.384-.19.463-.06.927-.13 1.383-.2.464-.07.928-.15 1.384-.23.464-.08.928-.16 1.384-.25.464-.08.928-.17 1.384-.26.464-.1.928-.19 1.384-.29.464-.1.928-.2 1.384-.3.464-.11.928-.22 1.384-.34.464-.12.928-.24 1.384-.36.22-.07.44-.13.66-.18.244-.08.488-.14.724-.21.471-.13.927-.27 1.383-.42.472-.15.928-.3 1.384-.46.472-.16.928-.32 1.384-.5 2.91-1.07 5.614-2.3 8.186-3.73 12.211-6.74 22.142-17.94 35.399-39.93l182.925-303.355c6.534-10.842 11.102-19.694 14.051-27.491 3.035-8.018 4.356-14.934 4.356-21.756 0-6.814-1.329-13.714-4.356-21.716-2.957-7.821-7.533-16.688-14.091-27.554l.016.188Zm16.45 49.255c0 4.997-.732 10.056-2.359 15.595-2.658 9.064-7.706 19.411-15.829 32.889L630.531 1060c-13.084 21.7-22.811 32.71-34.708 39.29a57.08 57.08 0 0 1-7.092 3.29 59.141 59.141 0 0 1-2.776.98c-.456.15-.92.3-1.384.44-.456.14-.92.28-1.384.41-.456.13-.92.25-1.384.38-.456.12-.919.23-1.383.34-.456.12-.92.23-1.384.33-.456.1-.92.2-1.384.3-.456.09-.92.19-1.384.27h-.024c-.448.09-.904.17-1.36.25-.456.07-.92.15-1.384.22-.456.07-.92.15-1.384.22-.456.06-.92.13-1.384.19-.456.07-.92.12-1.383.18-.457.06-.92.11-1.384.17l-1.384.15c-.456.05-.92.09-1.384.13-.456.04-.92.09-1.384.12-.456.04-.92.08-1.384.11-.456.03-.92.06-1.384.1-.456.03-.92.06-1.384.08-.456.03-.92.06-1.384.08-.456.02-.92.05-1.383.07a2109.865 2109.865 0 0 1-2.768.12c-.456.01-.92.03-1.384.05-.456.01-.92.02-1.384.04-.456 0-.92.02-1.384.03-.456.01-.92.01-1.384.02-.456 0-.92.02-1.384.02-.456 0-.92 0-1.384.01H174.964c-.503 0-.999 0-1.494-.01-.495 0-.999 0-1.494-.01-.503 0-.999-.02-1.494-.02a72.92 72.92 0 0 1-1.494-.04c-.503 0-.999-.02-1.494-.04-.503-.01-.999-.03-1.494-.04-.503-.02-.999-.03-1.494-.06l-1.494-.06c-.503-.02-.998-.05-1.494-.08-.503-.02-.998-.05-1.494-.09l-1.494-.09c-.503-.03-.998-.07-1.494-.11-.503-.04-.998-.08-1.494-.13-.503-.04-.998-.08-1.494-.13-.503-.05-.998-.09-1.494-.15-.503-.05-.998-.11-1.494-.17a36.48 36.48 0 0 1-1.494-.18c-.503-.06-.998-.13-1.494-.2-.503-.07-.998-.14-1.486-.22-.503-.08-.998-.16-1.486-.24-.314-.06-.629-.12-.935-.17-.181-.03-.37-.06-.551-.1-.503-.1-.998-.19-1.486-.29-.503-.11-.999-.22-1.486-.32-.503-.11-.999-.23-1.486-.34-.503-.13-.999-.25-1.486-.38-.504-.14-.999-.27-1.486-.41-.504-.14-.999-.29-1.487-.45-.503-.16-.998-.32-1.486-.49-.503-.17-.998-.34-1.486-.52-.464-.18-.92-.35-1.368-.53-.464-.18-.92-.37-1.368-.57-.464-.2-.92-.4-1.368-.6-.464-.22-.92-.43-1.368-.65-.464-.23-.92-.46-1.369-.69-.346-.18-.684-.36-1.022-.55-.118-.07-.228-.14-.346-.2-.456-.26-.912-.53-1.368-.79-.456-.28-.912-.56-1.368-.85-.456-.3-.912-.6-1.368-.91-.456-.31-.912-.64-1.368-.97-.456-.33-.912-.67-1.369-1.02-.456-.35-.912-.72-1.368-1.09-.456-.37-.912-.76-1.368-1.15-.456-.4-.912-.8-1.368-1.23-.456-.42-.912-.85-1.368-1.29-.456-.44-.912-.9-1.368-1.36a70.587 70.587 0 0 1-2.729-2.93c-.456-.51-.904-1.03-1.36-1.56-.456-.54-.904-1.08-1.36-1.64a84.31 84.31 0 0 1-1.361-1.7c-.456-.57-.904-1.16-1.36-1.76-.448-.6-.904-1.21-1.36-1.84-.449-.61-.905-1.24-1.36-1.88-.449-.64-.905-1.29-1.36-1.95-.45-.65-.905-1.31-1.361-2-.448-.66-.904-1.35-1.36-2.05-.449-.68-.905-1.38-1.36-2.1-.449-.7-.905-1.42-1.361-2.14-.448-.72-.904-1.44-1.36-2.19-.449-.73-.905-1.47-1.36-2.22-.095-.16-.197-.32-.292-.48L-94.092 756.535c-8.146-13.502-13.202-23.864-15.868-32.936-1.62-5.524-2.351-10.575-2.351-15.564 0-4.996.731-10.047 2.351-15.586 2.658-9.065 7.706-19.419 15.836-32.897L88.793 356.335c.055-.094.118-.188.173-.283.472-.779.928-1.534 1.392-2.282.472-.763.928-1.502 1.392-2.242.464-.748.928-1.479 1.391-2.195.464-.732.928-1.448 1.392-2.148.464-.716.928-1.409 1.392-2.093.464-.693.928-1.369 1.392-2.038.464-.677.928-1.338 1.392-1.983.463-.653.927-1.298 1.391-1.92.464-.637.928-1.251 1.392-1.857.464-.613.928-1.203 1.392-1.786a106.455 106.455 0 0 1 2.768-3.375c.463-.543.927-1.062 1.383-1.582.464-.519.928-1.023 1.384-1.51.464-.488.928-.976 1.384-1.44.464-.464.92-.921 1.384-1.361a68.037 68.037 0 0 1 2.768-2.51c.456-.394.92-.771 1.384-1.149a58.865 58.865 0 0 1 2.768-2.109c.456-.33.92-.645 1.383-.952.456-.307.92-.606 1.384-.897.456-.283.92-.566 1.384-.842.417-.244.834-.48 1.25-.716.04-.023.087-.047.126-.071.456-.251.912-.495 1.384-.731.456-.236.912-.465 1.384-.685.456-.22.912-.433 1.376-.637.456-.205.912-.401 1.376-.598.456-.189.912-.37 1.376-.551.456-.173.912-.346 1.376-.511.456-.166.912-.323 1.376-.472a69.182 69.182 0 0 1 2.752-.85c.456-.126.912-.252 1.376-.378.488-.126.991-.252 1.494-.378.496-.118.991-.236 1.494-.346.496-.11.991-.212 1.494-.314.401-.079.802-.166 1.211-.237l.283-.047c.495-.094.991-.181 1.494-.267.495-.087.991-.165 1.494-.244.495-.079.991-.15 1.494-.22a84.32 84.32 0 0 1 1.494-.197c.487-.063.991-.126 1.494-.181.487-.055.991-.11 1.494-.165.495-.055.991-.103 1.494-.15.495-.047.991-.094 1.494-.134.495-.039.991-.086 1.494-.118.487-.039.991-.07 1.494-.102l1.494-.094c.495-.032.991-.055 1.494-.087.495-.023.99-.055 1.494-.071.487-.023.99-.039 1.494-.063.495-.015.99-.039 1.494-.055l1.494-.047c.495-.016.99-.024 1.494-.039.495-.008.99-.024 1.494-.032l1.494-.023c.495 0 .99-.008 1.493-.016.496 0 .991 0 1.494-.008h369.923c.464 0 .928 0 1.384.008.464 0 .928 0 1.384.016.464 0 .928.015 1.384.023l1.384.024c.464.008.928.023 1.384.031.464.016.928.024 1.384.04l1.384.047c.463.016.927.039 1.383.055.464.024.928.039 1.384.063l1.384.071c.464.023.928.055 1.384.086l1.384.095c.464.031.928.063 1.384.102.464.039.928.071 1.384.11.464.039.928.087 1.384.126.464.047.927.094 1.383.142.464.047.928.102 1.384.149l1.384.165c.464.063.928.118 1.384.189.464.063.928.134 1.384.205.464.071.928.141 1.384.22.464.079.928.157 1.384.236.023 0 .055.008.078.016.441.079.873.157 1.306.244.464.094.928.181 1.384.283.464.102.927.197 1.383.307.464.11.928.22 1.384.33.464.118.928.236 1.384.354a69.871 69.871 0 0 1 2.768.803 70.069 70.069 0 0 1 2.768.944c.464.173.928.346 1.384.527a56.373 56.373 0 0 1 4.136 1.826c.464.228.928.456 1.376.7.369.189.731.386 1.085.582 11.889 6.57 21.623 17.594 34.731 39.302l183.137 303.476c8.146 13.494 13.202 23.856 15.86 32.928 1.619 5.531 2.358 10.583 2.358 15.571l-.007-.181Z"/>
    <path fill="url(#h)" d="M837.273 656.467 645.297 338.341c-13.925-23.085-24.351-34.84-37.184-41.93-4.089-2.258-8.476-4.075-13.461-5.507-.158-.048-.323-.087-.48-.134-.299-.087-.598-.165-.904-.252-.456-.118-.912-.244-1.384-.354l-1.384-.331c-.456-.102-.92-.204-1.384-.306-.456-.095-.92-.189-1.384-.284-.456-.086-.92-.181-1.384-.267-.456-.087-.92-.165-1.384-.244a63.375 63.375 0 0 0-1.383-.228c-.457-.071-.92-.142-1.384-.205l-1.384-.189c-.456-.063-.92-.118-1.384-.173l-1.384-.165c-.456-.055-.92-.102-1.384-.149-.456-.048-.92-.095-1.384-.134-.456-.04-.92-.087-1.384-.126l-1.384-.118c-.456-.039-.92-.071-1.383-.102l-1.384-.095c-.456-.031-.92-.055-1.384-.086l-1.384-.071-1.384-.071c-.456-.024-.92-.039-1.384-.055l-1.384-.047-1.384-.048c-.456-.015-.92-.023-1.384-.031-.456-.008-.92-.024-1.383-.031l-1.384-.024c-.456 0-.92-.016-1.384-.016-.456 0-.92-.008-1.384-.016H164.451c-.503 0-.999.008-1.494.016-.503 0-.999.016-1.494.024l-1.494.023c-.503.008-.998.024-1.494.04-.503.015-.998.023-1.494.039l-1.494.047c-.503.016-.998.04-1.494.063-.503.024-.998.04-1.494.063-.503.024-.998.047-1.494.079-.503.023-.998.055-1.494.086l-1.494.095c-.503.031-.998.071-1.494.11-.503.039-.998.079-1.494.126-.503.039-.998.086-1.494.134-.503.047-.998.094-1.493.149-.504.055-.999.102-1.494.165-.504.055-.999.118-1.494.181a83.11 83.11 0 0 0-1.494.197c-.464.063-.92.134-1.376.197l-1.376.212c-.464.079-.92.15-1.376.228-.464.079-.92.166-1.377.252-.463.087-.919.181-1.376.276-.463.094-.92.188-1.376.291a76.855 76.855 0 0 0-2.752.653 69.055 69.055 0 0 0-2.264.613l-.488.142a35.07 35.07 0 0 0-1.376.425c-.464.149-.928.299-1.376.448a59.48 59.48 0 0 0-1.376.488c-.464.173-.928.346-1.376.52-.464.181-.928.369-1.376.558-.464.197-.928.394-1.376.598-.464.205-.928.417-1.376.637-.464.221-.928.449-1.384.677-.464.236-.928.48-1.384.724-.165.087-.33.173-.495.268a69.396 69.396 0 0 0-2.272 1.321c-.464.284-.92.575-1.384.866-.464.299-.92.614-1.384.928-.464.315-.92.646-1.384.984-.464.338-.92.684-1.384 1.038-.464.355-.92.724-1.384 1.094-.464.378-.92.763-1.384 1.165-.464.401-.92.81-1.384 1.227a73.47 73.47 0 0 0-2.768 2.652c-.463.464-.92.944-1.383 1.432-.464.487-.92.991-1.384 1.502a96.06 96.06 0 0 0-1.384 1.566 98.01 98.01 0 0 0-1.384 1.629c-.464.551-.92 1.117-1.384 1.699-.464.575-.92 1.165-1.392 1.763-.463.598-.92 1.204-1.391 1.825-.464.614-.92 1.244-1.392 1.889-.464.637-.92 1.282-1.392 1.943-.464.653-.92 1.322-1.392 1.999-.463.669-.92 1.361-1.391 2.053-.464.693-.92 1.393-1.392 2.109-.464.708-.92 1.424-1.392 2.156-.464.724-.92 1.455-1.392 2.203-.463.732-.92 1.479-1.391 2.242-.464.748-.92 1.511-1.392 2.282l-.212.354-54.066 89.556-137.36 228.287c-6.786 11.26-11.551 20.466-14.649 28.593-3.247 8.522-4.671 15.855-4.671 23.094 0 7.223 1.424 14.548 4.671 23.053 3.106 8.144 7.879 17.373 14.68 28.648L74.388 1077.64s.04.07.063.1c.456.75.912 1.5 1.36 2.23.456.75.913 1.47 1.36 2.2.457.73.913 1.45 1.361 2.15.456.72.912 1.43 1.36 2.12.456.7.913 1.39 1.36 2.07.457.68.913 1.36 1.36 2.02.457.67.913 1.33 1.361 1.98.456.65.912 1.29 1.36 1.92.457.63.913 1.26 1.36 1.86.457.61.913 1.22 1.361 1.81.456.6.912 1.18 1.36 1.75.457.57.912 1.14 1.36 1.69.457.55.913 1.1 1.361 1.63.456.53.912 1.05 1.36 1.56.456.51.912 1.01 1.36 1.5.457.49.913.97 1.369 1.43.456.46.912.93 1.368 1.37.456.45.912.88 1.368 1.31.456.42.912.83 1.368 1.23a71.838 71.838 0 0 0 2.737 2.3c.456.36.912.71 1.368 1.06.456.34.912.68 1.368 1 .456.32.912.64 1.368.94.456.31.912.6 1.368.89.456.29.912.57 1.368.85.456.26.913.53 1.369.79.102.05.196.11.298.17.354.19.716.38 1.07.57.456.24.912.47 1.368.7.456.22.912.44 1.368.65.456.22.912.42 1.368.62l1.368.57 1.369.54c.456.18.912.34 1.368.51.456.15.912.31 1.368.47.456.15.912.3 1.368.44.456.14.912.28 1.368.41l.543.15c.275.08.55.16.833.23.456.11.912.24 1.376.35.448.11.912.22 1.376.33.456.1.912.21 1.376.31.456.09.912.19 1.376.28.488.1.991.2 1.486.28.488.09.991.19 1.487.26.487.09.99.17 1.486.25.495.08.99.15 1.486.22.487.07.99.13 1.494.2.487.07.99.13 1.494.18.487.06.99.12 1.494.17.495.05.99.1 1.494.16.495.04.99.09 1.494.14.487.05.99.09 1.494.12.495.04.99.08 1.494.11.495.04.99.08 1.494.11l1.493.09c.488.03.991.06 1.494.08.496.02.991.05 1.494.07l1.494.06 1.494.06c.496.01.991.03 1.494.05.496.01.991.02 1.494.04.496 0 .991.02 1.494.03.496 0 .991.01 1.494.02.488 0 .991.01 1.494.02h391.012c.464 0 .927-.01 1.384-.02.463 0 .927-.02 1.383-.02.464 0 .928-.02 1.384-.03.464 0 .928-.02 1.384-.03.464-.01.928-.02 1.384-.04.464-.01.928-.03 1.384-.04l1.384-.06 1.384-.06c.472-.02.928-.04 1.384-.07.464-.02.927-.04 1.383-.07l1.384-.09c.464-.03.928-.06 1.384-.1.464-.03.928-.07 1.384-.1.464-.04.928-.07 1.384-.12.464-.04.928-.08 1.384-.13.464-.05.928-.09 1.384-.14l1.384-.15c.464-.06.928-.11 1.384-.17.464-.05.927-.11 1.384-.18.463-.06.927-.12 1.383-.19.464-.07.928-.15 1.384-.22.464-.07.928-.15 1.384-.22.472-.08.928-.17 1.384-.26.464-.08.928-.18 1.384-.27a86.08 86.08 0 0 0 6.416-1.56c4.97-1.42 9.349-3.24 13.422-5.49 12.817-7.08 23.235-18.83 37.153-41.9l191.755-318.016c6.802-11.275 11.567-20.496 14.665-28.64 3.239-8.505 4.654-15.823 4.654-23.054 0-7.215-1.423-14.532-4.654-23.022-3.106-8.151-7.879-17.389-14.696-28.68l-.338.189Zm17.046 51.71c0 5.106-.731 10.276-2.351 15.917-2.752 9.584-8.067 20.528-16.701 34.849L643.512 1076.96c-13.705 22.72-23.895 34.26-36.335 41.13-5.386 2.98-11.346 5.17-18.596 6.68-.456.1-.92.19-1.383.28-.386.07-.771.15-1.164.22-.071.02-.15.02-.22.04-.456.08-.92.16-1.384.23-.456.08-.92.15-1.384.23-.456.07-.92.14-1.384.2-.456.06-.92.13-1.384.19-.456.05-.92.12-1.384.17-.456.06-.92.11-1.384.16-.456.05-.92.1-1.384.14-.456.05-.92.09-1.383.13-.457.04-.92.08-1.384.11-.456.04-.92.08-1.384.11-.456.04-.92.07-1.384.1-.456.03-.92.05-1.384.09-.456.02-.92.05-1.384.07-.456.03-.92.05-1.384.08-.456.02-.92.03-1.384.06-.456.01-.92.04-1.384.05-.456.02-.92.03-1.383.05-.456.02-.92.02-1.384.04l-1.384.03c-.456.01-.92.02-1.384.02-.456 0-.92.02-1.384.03-.456 0-.92.01-1.384.01-.456 0-.92 0-1.384.01H165.851c-.504 0-.999 0-1.494-.01-.496 0-.999 0-1.494-.01-.504 0-.999-.02-1.494-.03-.503 0-.999-.01-1.494-.03-.503 0-.999-.02-1.494-.04-.503-.01-.999-.03-1.494-.04-.503-.02-.999-.03-1.494-.06-.503-.01-.999-.04-1.494-.06-.503-.02-.999-.05-1.494-.07-.503-.03-.999-.06-1.494-.08l-1.494-.09c-.503-.03-.999-.07-1.494-.1a1169.073 1169.073 0 0 1-2.988-.24c-.503-.05-.999-.1-1.494-.14-.503-.05-.998-.11-1.494-.16-.503-.06-.998-.11-1.494-.18l-1.494-.18-1.494-.21c-.503-.07-.998-.15-1.486-.23-.503-.08-.998-.15-1.486-.24a.317.317 0 0 1-.094-.02c-.472-.08-.936-.16-1.392-.25-.503-.09-.999-.2-1.486-.29-.464-.09-.92-.2-1.376-.29-.464-.1-.92-.21-1.376-.32-.464-.11-.92-.22-1.376-.33-.464-.12-.92-.25-1.376-.37-.464-.13-.92-.26-1.368-.4-.464-.14-.92-.28-1.369-.42-.464-.15-.92-.3-1.368-.46-.464-.16-.92-.32-1.368-.49-.464-.17-.92-.34-1.368-.52-.464-.18-.92-.37-1.368-.57-.464-.2-.92-.4-1.368-.61a49.397 49.397 0 0 1-2.737-1.33l-1.226-.66c-.048-.02-.095-.05-.15-.08a96.06 96.06 0 0 1-1.368-.79c-.456-.28-.912-.55-1.368-.84-.456-.29-.912-.58-1.368-.89-.456-.31-.912-.62-1.368-.94-.456-.33-.913-.67-1.369-1.01-.456-.35-.912-.7-1.368-1.07-.456-.37-.912-.74-1.368-1.13-.456-.38-.912-.78-1.368-1.19-.456-.4-.912-.82-1.368-1.25-.456-.44-.912-.88-1.368-1.33-.457-.44-.912-.91-1.369-1.38-.456-.47-.912-.95-1.368-1.46-.456-.49-.912-1-1.36-1.52a111.602 111.602 0 0 1-2.72-3.24c-.457-.56-.905-1.13-1.36-1.71-.45-.58-.905-1.17-1.361-1.77-.448-.6-.904-1.21-1.36-1.84a159.3 159.3 0 0 1-1.36-1.88c-.449-.64-.905-1.29-1.361-1.95-.448-.65-.904-1.31-1.36-1.99-.449-.67-.905-1.34-1.36-2.04-.449-.68-.905-1.38-1.361-2.09-.448-.7-.904-1.41-1.36-2.13a544.7 544.7 0 0 1-1.36-2.17l-1.36-2.21c-.252-.42-.504-.83-.764-1.25l-.597-1-59.853-99.009-131.257-218.295c-8.658-14.336-13.981-25.297-16.733-34.888-1.62-5.626-2.351-10.795-2.351-15.894 0-5.106.731-10.283 2.351-15.925 2.752-9.583 8.067-20.528 16.701-34.84L76.118 339.191c.307-.512.613-1.008.912-1.503.464-.771.928-1.527 1.392-2.266.464-.756.928-1.495 1.392-2.227.464-.74.928-1.463 1.392-2.179.463-.724.927-1.432 1.391-2.125.464-.708.928-1.4 1.392-2.077.464-.692.928-1.361 1.392-2.022.464-.669.927-1.33 1.391-1.975.464-.653.928-1.29 1.392-1.912.464-.63.928-1.243 1.392-1.849.464-.606.928-1.204 1.392-1.786.464-.59.928-1.165 1.384-1.723.464-.567.928-1.118 1.384-1.66.463-.543.927-1.071 1.383-1.582.464-.519.928-1.023 1.384-1.519a85.41 85.41 0 0 1 1.384-1.447 74.672 74.672 0 0 1 4.152-3.927 96.6 96.6 0 0 1 1.384-1.18 62.754 62.754 0 0 1 2.768-2.156c.456-.338.919-.668 1.383-.983.456-.315.92-.63 1.384-.929.456-.299.92-.582 1.384-.865.456-.275.92-.551 1.384-.811.252-.141.503-.291.763-.432.204-.11.416-.221.621-.331a37.54 37.54 0 0 1 1.384-.716c.456-.228.912-.456 1.376-.669.456-.212.912-.424 1.376-.629.456-.197.912-.393 1.376-.582.456-.189.912-.37 1.376-.543.456-.173.912-.346 1.376-.512a42.03 42.03 0 0 1 1.376-.472c.456-.149.912-.299 1.376-.44.456-.142.912-.276 1.376-.409.456-.126.912-.26 1.376-.378.456-.118.912-.236 1.376-.354.456-.11.912-.22 1.376-.323.456-.102.912-.204 1.376-.299.456-.094.912-.189 1.376-.275a51.03 51.03 0 0 1 1.376-.252c.456-.079.912-.165 1.376-.236.456-.079.912-.149 1.376-.22.456-.071.912-.142 1.376-.205.488-.071.991-.134 1.494-.197.488-.063.991-.125 1.494-.181l1.494-.165c.496-.055.991-.102 1.494-.149l1.494-.142c.488-.039.991-.086 1.494-.126.495-.039.991-.071 1.494-.11.495-.031.991-.071 1.494-.102.495-.032.991-.063 1.494-.087.488-.023.991-.047 1.494-.078l1.494-.071c.495-.024.991-.04 1.494-.063a495.607 495.607 0 0 1 2.988-.087c.495-.015.991-.023 1.494-.039l1.494-.024c.495 0 .991-.015 1.494-.023.495 0 .99-.008 1.494-.016h390.06c.464 0 .928.008 1.384.016.463 0 .927.015 1.383.015.464 0 .928.016 1.384.024.464.008.928.024 1.384.032.464.007.928.023 1.384.039l1.384.047 1.384.047c.464.016.928.04 1.384.055l1.384.071 1.384.071a416.559 416.559 0 0 1 2.767.181c.464.031.928.071 1.384.102.464.04.928.071 1.384.11.464.04.928.087 1.384.126l1.384.142c.464.047.928.094 1.384.149l1.384.166a72.4 72.4 0 0 1 1.384.181c.464.063.927.125 1.383.196l1.384.213c.456.071.912.149 1.353.228h.031c.464.079.928.165 1.384.252.464.086.928.181 1.384.275.464.095.928.197 1.384.291.464.102.928.213 1.384.315.464.11.928.228 1.384.338.464.118.928.244 1.384.37.463.126.927.26 1.383.393 4.514 1.346 8.524 3.03 12.251 5.091 12.439 6.877 22.638 18.42 36.366 41.167L835.55 657.388c8.658 14.344 13.981 25.304 16.733 34.903 1.62 5.626 2.351 10.787 2.351 15.886h-.315Z"/>
    <path fill="url(#i)" d="M874.645 683.786c-3.255-8.466-8.217-18.05-15.277-29.75L658.539 321.251c-14.578-24.155-25.492-36.469-38.93-43.896-4.317-2.385-8.964-4.304-14.248-5.815-3.247-.929-6.746-1.7-10.552-2.329-.456-.079-.92-.15-1.384-.22-.456-.071-.92-.142-1.384-.205l-1.384-.189c-.456-.063-.92-.118-1.384-.173-.456-.055-.92-.11-1.384-.157-.456-.047-.919-.103-1.383-.15-.456-.047-.92-.086-1.384-.133-.456-.04-.92-.087-1.384-.126-.456-.04-.92-.079-1.384-.118-.456-.04-.92-.071-1.384-.103l-1.384-.094c-.456-.032-.92-.055-1.384-.087a84.98 84.98 0 0 1-1.384-.078l-1.384-.071c-.456-.024-.92-.039-1.383-.055-.456-.016-.92-.04-1.384-.055l-1.384-.048c-.456-.015-.92-.023-1.384-.039-.456-.016-.92-.023-1.384-.031l-1.384-.024-1.384-.024a80.7 80.7 0 0 1-1.384-.015c-.464 0-.92-.008-1.384-.016H155.652c-.503 0-.998.008-1.494.016-.503 0-.998.008-1.494.015-.503 0-.998.016-1.494.024-.503.008-.998.024-1.494.032-.495.015-.998.023-1.493.039l-1.494.047c-.504.016-.999.032-1.494.055-.504.016-.999.04-1.494.063l-1.494.071c-.504.024-.999.055-1.494.079l-1.494.094c-.504.032-.999.071-1.494.102-.464.032-.92.063-1.376.103-.464.039-.92.07-1.376.11-.464.039-.92.086-1.376.126-.464.047-.92.086-1.376.133-.464.048-.92.095-1.376.15l-1.376.165c-.464.055-.92.11-1.376.173-.464.063-.92.118-1.376.189-.464.063-.92.134-1.376.205-.464.07-.92.141-1.377.22l-1.376.236c-.463.087-.92.165-1.376.252-.463.086-.92.181-1.376.275a77.4 77.4 0 0 0-1.376.299c-.464.102-.92.213-1.376.315-.464.11-.92.228-1.376.338-.464.118-.92.244-1.376.362-.416.118-.833.228-1.242.354-.047.016-.087.024-.134.04-.464.133-.92.275-1.376.417a69.484 69.484 0 0 0-2.752.928c-.464.165-.92.338-1.376.511-.464.181-.928.362-1.376.551a58.679 58.679 0 0 0-2.752 1.204c-.464.22-.928.441-1.376.661-.464.228-.92.464-1.384.708-.385.205-.762.401-1.14.614-.079.047-.165.094-.244.141-.464.26-.92.528-1.384.795-.464.276-.92.551-1.384.842-.463.291-.92.59-1.383.889-.464.307-.92.622-1.384.944-.464.323-.92.653-1.384 1-.464.346-.92.692-1.384 1.054-.464.362-.92.74-1.384 1.117a96.6 96.6 0 0 0-1.384 1.18c-.464.402-.92.819-1.384 1.236a76.556 76.556 0 0 0-2.767 2.659c-.464.464-.92.944-1.384 1.432-.464.488-.92.984-1.384 1.495-.464.512-.92 1.031-1.384 1.558-.464.527-.92 1.07-1.384 1.621-.464.551-.92 1.109-1.384 1.684-.464.574-.92 1.148-1.392 1.746-.464.591-.92 1.196-1.391 1.81-.464.614-.92 1.235-1.392 1.865-.464.629-.92 1.267-1.392 1.928-.464.645-.92 1.306-1.392 1.975-.464.66-.92 1.337-1.391 2.03-.464.684-.92 1.376-1.392 2.077-.464.7-.92 1.408-1.392 2.124-.464.716-.92 1.432-1.392 2.172-.464.724-.928 1.463-1.391 2.219-.464.739-.928 1.495-1.392 2.258-.41.669-.818 1.337-1.227 2.022l-.165.267-40.36 66.856-159.753 265.441c-7.03 11.661-11.984 21.229-15.231 29.679-3.475 9.041-4.993 16.791-4.993 24.447 0 7.64 1.525 15.39 4.985 24.407 3.255 8.466 8.217 18.049 15.27 29.734l200.876 332.75c.268.44.527.88.794 1.31.456.75.913 1.49 1.36 2.22.457.74.913 1.46 1.361 2.18.456.72.912 1.44 1.36 2.14.456.71.912 1.41 1.36 2.1.457.7.913 1.38 1.36 2.05.457.69.913 1.36 1.361 2.01.456.67.912 1.32 1.36 1.96.456.65.913 1.28 1.36 1.91.457.63.913 1.25 1.361 1.86.456.61.912 1.21 1.36 1.8.456.6.912 1.17 1.36 1.75.457.57.913 1.14 1.361 1.69a113.526 113.526 0 0 0 2.72 3.2c.457.51.913 1.01 1.36 1.51.457.5.913.98 1.369 1.45a89.388 89.388 0 0 0 2.736 2.7c.456.44.913.85 1.368 1.27.457.41.913.81 1.369 1.2.456.4.912.78 1.368 1.15.456.37.912.73 1.368 1.08.456.36.912.69 1.368 1.03.456.33.912.66 1.368.98.456.31.912.62 1.368.92.457.3.913.59 1.369.87.456.29.912.56 1.368.83.44.26.88.5 1.321.75l.047.03c.456.25.912.49 1.368.73l1.368.69c.456.22.912.44 1.368.65.457.22.913.41 1.369.62l1.368.57c.456.18.912.36 1.368.55.456.17.912.33 1.368.5.456.16.912.32 1.368.47l1.368.45 1.369.42c.149.04.306.08.464.13.298.09.605.17.912.25.456.13.912.25 1.376.36.456.12.912.23 1.376.34.456.11.912.21 1.376.32.456.1.912.19 1.376.29.456.09.912.19 1.376.27.448.09.912.18 1.376.26.456.07.912.15 1.376.23.456.08.912.15 1.376.22l1.376.21 1.376.18c.456.07.912.12 1.376.18.456.05.912.11 1.376.16.495.05.991.11 1.494.15.487.05.991.1 1.494.14.495.05.991.09 1.494.14l1.494.12c.487.04.991.07 1.494.11a1552.212 1552.212 0 0 0 2.988.18c.495.02.99.05 1.494.08.495.02.99.04 1.494.07l1.494.06c.487.02.99.03 1.494.05.495.01.99.03 1.494.04.495.02.99.03 1.494.04.495.01.99.03 1.494.03l1.493.03c.488 0 .991.01 1.494.01.496 0 .991.01 1.494.02H563.86c.464 0 .92-.01 1.384-.02.464 0 .928 0 1.384-.01.464 0 .928-.02 1.384-.03.464 0 .928-.01 1.384-.02l1.384-.03c.464-.02.927-.02 1.383-.04.464-.02.928-.03 1.384-.05.464-.01.928-.03 1.384-.05l1.384-.06c.464-.02.928-.04 1.384-.07.464-.02.928-.04 1.384-.08.464-.02.928-.05 1.384-.08.464-.03.928-.07 1.384-.1.464-.03.928-.06 1.384-.1l1.383-.12 1.384-.12c.464-.05.928-.09 1.384-.14.464-.04.928-.09 1.384-.15 6.77-.75 12.612-1.87 17.833-3.4 5.048-1.48 9.515-3.34 13.682-5.64 13.43-7.42 24.336-19.72 38.906-43.87l200.585-332.659c7.038-11.669 11.991-21.237 15.239-29.687 3.468-9.033 4.985-16.791 4.985-24.439 0-7.64-1.517-15.382-4.985-24.399l-.37.15Zm-17.558 77.446L656.494 1093.89c-14.326 23.76-24.973 35.82-37.97 43-6.401 3.54-13.595 6.01-22.677 7.6-2.343.41-4.812.76-7.423 1.06-.456.06-.92.11-1.384.15-.456.05-.92.1-1.384.14-.456.05-.92.09-1.384.13-.456.04-.919.08-1.383.11-.456.04-.92.07-1.384.1-.456.03-.92.07-1.384.1-.456.03-.92.05-1.384.08-.456.03-.92.06-1.384.08-.456.03-.92.05-1.384.07-.456.03-.92.04-1.384.07-.456.01-.92.04-1.384.05-.456.02-.92.03-1.383.05-.457.01-.92.03-1.384.04l-1.384.03c-.456.01-.92.02-1.384.02l-1.384.03c-.456 0-.92 0-1.384.01-.464 0-.92.01-1.384.02H156.737c-.503 0-.998 0-1.493-.02-.496 0-.999-.01-1.494-.01-.504 0-.999-.02-1.494-.03-.504 0-.999-.01-1.494-.03a72.73 72.73 0 0 1-1.494-.04c-.504-.01-.999-.03-1.494-.04-.504-.02-.999-.04-1.494-.05l-1.494-.06c-.504-.03-.999-.05-1.494-.08-.504-.02-.999-.04-1.494-.07-.503-.04-.999-.06-1.494-.09-.503-.03-.999-.06-1.494-.1-.503-.03-.999-.07-1.494-.11-.503-.04-.999-.08-1.494-.13-.503-.04-.999-.09-1.494-.13l-1.494-.15c-.503-.06-.999-.1-1.494-.16-.464-.05-.92-.11-1.376-.17-.464-.05-.92-.11-1.376-.18l-1.376-.18c-.464-.08-.92-.14-1.376-.21-.401-.06-.794-.13-1.187-.2-.063 0-.126-.02-.181-.03-.464-.08-.92-.15-1.376-.24-.464-.09-.92-.17-1.376-.26-.464-.1-.92-.18-1.376-.28-.464-.11-.92-.2-1.376-.3-.464-.11-.92-.22-1.376-.33-.464-.11-.92-.23-1.376-.35-.464-.13-.92-.25-1.376-.38-.464-.13-.92-.27-1.369-.4-.464-.14-.92-.28-1.368-.43-.464-.15-.92-.31-1.368-.47-.464-.16-.92-.33-1.368-.49-.464-.17-.92-.36-1.368-.54-.464-.19-.92-.37-1.368-.56-.464-.2-.92-.4-1.369-.61-.464-.21-.92-.42-1.368-.64-.464-.23-.92-.46-1.368-.69-.464-.23-.92-.48-1.368-.73-.016 0-.032-.02-.039-.02-.449-.25-.889-.5-1.33-.76-.455-.27-.911-.54-1.367-.83-.457-.28-.913-.58-1.369-.88-.456-.3-.912-.61-1.368-.93a61.834 61.834 0 0 1-2.736-2.02c-.456-.36-.912-.72-1.368-1.1-.456-.38-.912-.77-1.368-1.16-.457-.4-.913-.81-1.369-1.23-.456-.42-.912-.85-1.368-1.28-.456-.44-.912-.89-1.368-1.35-.456-.46-.912-.94-1.368-1.42a98.65 98.65 0 0 1-1.368-1.47c-.456-.51-.912-1.02-1.36-1.55-.457-.52-.905-1.05-1.36-1.59-.457-.55-.905-1.1-1.361-1.66-.456-.56-.904-1.14-1.36-1.73a142.957 142.957 0 0 1-2.721-3.62c-.448-.62-.904-1.26-1.36-1.89-.449-.64-.904-1.29-1.36-1.95-.449-.65-.905-1.31-1.36-1.99-.45-.67-.905-1.34-1.361-2.03-.448-.69-.904-1.38-1.36-2.09-.449-.69-.905-1.4-1.36-2.12a544.7 544.7 0 0 1-1.361-2.17c-.448-.72-.904-1.45-1.36-2.2-.401-.66-.81-1.33-1.22-2.01l-.14-.23-47.611-78.76-152.763-253.91c-9.16-15.186-14.751-26.736-17.597-36.855-1.612-5.736-2.351-11.008-2.359-16.216 0-5.225.739-10.512 2.359-16.256 2.846-10.103 8.421-21.637 17.558-36.792L63.136 322.219l.26-.425c.464-.771.928-1.534 1.391-2.282.464-.763.928-1.51 1.392-2.242.464-.748.928-1.479 1.392-2.203.464-.732.928-1.456 1.392-2.156.464-.716.928-1.424 1.392-2.117.463-.7.927-1.392 1.391-2.061.464-.685.928-1.353 1.392-2.014.464-.669.928-1.322 1.392-1.96.464-.645.928-1.274 1.391-1.896a94.97 94.97 0 0 1 1.392-1.841c.464-.606.928-1.204 1.392-1.786.464-.582.928-1.165 1.384-1.723.464-.567.928-1.117 1.384-1.66.464-.543.928-1.07 1.384-1.59.464-.519.927-1.03 1.384-1.526.463-.496.927-.984 1.383-1.464.464-.472.92-.944 1.384-1.392a70.964 70.964 0 0 1 2.768-2.589c.464-.409.92-.803 1.384-1.196.456-.385.92-.763 1.384-1.133.456-.37.92-.724 1.384-1.07a40.5 40.5 0 0 1 1.384-1.007c.456-.323.92-.645 1.384-.952a51 51 0 0 1 1.383-.897c.457-.291.92-.575 1.384-.85.456-.275.92-.535 1.384-.795.095-.055.189-.11.283-.157.362-.205.732-.401 1.101-.59.456-.236.912-.472 1.384-.708.456-.228.912-.441 1.376-.661a42.35 42.35 0 0 1 1.376-.614 41.52 41.52 0 0 1 1.376-.574c.456-.181.912-.362 1.376-.543.456-.173.912-.338 1.376-.504.456-.157.912-.314 1.376-.472.456-.149.912-.299 1.376-.44.456-.142.912-.276 1.376-.41.456-.133.912-.259 1.376-.385.456-.118.912-.236 1.376-.354l1.376-.331 1.376-.307 1.376-.283c.456-.094.912-.181 1.376-.267l.905-.166c.157-.031.314-.055.471-.086.456-.079.913-.15 1.376-.228a72.13 72.13 0 0 1 1.376-.205c.457-.063.913-.134 1.376-.197.457-.062.913-.125 1.377-.18l1.376-.166c.456-.055.912-.102 1.376-.149l1.376-.142c.456-.047.912-.086 1.376-.126.456-.039.912-.078 1.376-.11.456-.039.912-.071 1.376-.102.495-.04.99-.071 1.494-.102.487-.032.99-.063 1.494-.087.495-.031.99-.055 1.494-.079.495-.023.99-.055 1.494-.07.487-.024.99-.04 1.494-.063.495-.016.99-.04 1.493-.056l1.494-.047c.488-.015.991-.023 1.494-.039.496-.016.991-.024 1.494-.032l1.494-.023c.496 0 .991-.016 1.494-.016.496 0 .991-.008 1.494-.016H563.27c.464 0 .92.008 1.384.016.464 0 .928.008 1.384.016.464 0 .928.016 1.384.023l1.384.024c.464.008.928.024 1.384.032.464.015.928.023 1.384.039l1.384.047c.464.016.927.039 1.384.055.463.016.927.04 1.383.055l1.384.071c.464.024.928.047 1.384.079.464.023.928.055 1.384.086l1.384.095c.464.031.928.071 1.384.102.464.039.928.071 1.384.11.464.039.928.087 1.384.126.464.047.927.087 1.384.134.463.047.927.094 1.383.149.464.055.928.11 1.384.166.464.055.928.118 1.384.18l1.384.189c.464.071.928.134 1.384.205.425.063.833.134 1.25.204.047 0 .087.016.134.024 9.428 1.597 16.842 4.107 23.424 7.75 12.989 7.184 23.652 19.246 38.009 43.016L857.355 655.09c9.16 15.186 14.751 26.736 17.597 36.855 1.612 5.736 2.351 11.008 2.351 16.216 0 5.225-.731 10.504-2.351 16.256-2.846 10.103-8.421 21.638-17.558 36.8l-.307.015Z"/>
    <path fill="#B38FF1" fill-rule="evenodd" d="m194.508 54.495 8.741 5.06v10.126l-8.741-5.063V54.495Zm9.699 5.06v10.126l8.737-5.063V54.495l-8.737 5.06Zm-19.394-10.711v10.123l8.738 5.063V53.907l-8.738-5.063Zm9.695 27.006 8.738 5.063V70.79l-8.738-5.063V75.85Z" clip-rule="evenodd"/>
    <path fill="#1868F2" d="m515.998 144.841-6.95 4.031v2.475l-4.235 10.005-4.236-10.005v-2.475l-6.95-4.031-4.226 2.454v2.849l9.414 23.163 5.998 3.478 5.997-3.478 9.414-23.163v-2.849l-4.226-2.454Z"/>
    <path fill="#0850C5" d="m520.224 147.295-6.95 4.029v2.478l-5.643 12.671-2.819 1.634v8.678l5.998-3.478 9.414-23.163v-2.849Zm-19.646 4.052v-2.475l-4.23 2.452v2.478l5.646 12.671 2.819-1.635v-3.486l-4.235-10.005Z"/>
    <path fill="#FFDD04" d="m183.407 145.406 15.416 30.008 15.528-30.008h-30.944Zm13.019 11.913h-2.456v-2.456h2.456v2.456Zm0-3.686h-2.456v-2.453h2.456v2.453Zm3.682 7.368h-2.456v-2.456h2.456v2.456Zm0-3.682h-2.456v-2.456h2.456v2.456Zm0-3.686h-2.456v-2.453h2.456v2.453Zm3.663 3.686h-2.456v-2.456h2.456v2.456Zm-2.456-3.686v-2.453h2.456v2.453h-2.456Z"/>
    <path fill="#06D092" d="m402.813 48.7-14.011 8.057v16.112l14.011 8.056 14.01-8.056V56.757l-14.01-8.056Zm6.242 17.718-3.732 2.148-4.51-2.445v5.134l-4.24 2.678V63.199l3.364-2.05 4.667 2.45v-5.242l4.462-2.664-.011 10.725Z"/>
    <path fill="#F24C53" d="M293.264 174.944v-2.181h4.519v-1.347h-2.191v-2.194h10.345l-4.805-8.343 4.805-8.346h-10.603v11.573h-5.708v-17.293h19.641l3.278 5.691-4.822 8.375 4.919 8.543-3.18 5.522h-16.198Z"/>
    <path fill="#F24C53" d="M294.143 169.222h-2.189v2.194h2.189v-2.194Zm-2.329 3.525h-2.188v2.194h2.188v-2.194Z"/>
    <path fill="#14C6CB" d="m521.758 55.033-4.216 7.306-4.215-7.306h8.431Zm-22.505 4.877h-2.813l7.031 12.19-2.813 4.875L488 55.033h14.066l7.033 12.191 1.405-2.438-5.625-9.753h5.625l2.815 4.878 2.813 4.875-7.033 12.19-9.846-17.065Z"/>
    <path fill="#02A8EF" fill-rule="evenodd" d="m291.005 52.64 10.396 6.035v22.25l-10.396-6.036v-22.25Z" clip-rule="evenodd"/>
    <path fill="#02A8EF" d="m306.55 55.241-11.302-6.54v4.536l7.689 4.462V71.32l3.616 2.087c2.237 1.297 4.067.534 4.067-1.727v-9.996c-.003-2.247-1.838-5.145-4.07-6.444Z"/>
    <path fill="#E03875" d="M402.825 176.224a15.414 15.414 0 0 1-3.488-30.426 15.417 15.417 0 0 1 13.914 3.677l-3.657 3.826a10.134 10.134 0 0 0-10.901-1.74 10.13 10.13 0 1 0 10.901 16.772l3.657 3.826a15.365 15.365 0 0 1-10.426 4.065Zm12.402-7.708a1.263 1.263 0 1 1 0-2.525 1.263 1.263 0 0 1 0 2.525Z"/>
    <path fill="#E03875" d="M402.727 164.152a3.34 3.34 0 1 1-.03-6.68 3.34 3.34 0 0 1 .03 6.68Zm13.948.059a1.26 1.26 0 0 1-.893-2.156 1.265 1.265 0 0 1 1.944.191c.138.208.213.452.213.702a1.268 1.268 0 0 1-1.264 1.263Zm-3.756-.157a1.267 1.267 0 0 1-1.168-.783 1.265 1.265 0 0 1 1.662-1.644 1.271 1.271 0 0 1 .77 1.177 1.268 1.268 0 0 1-.375.885 1.269 1.269 0 0 1-.889.365Zm3.756-4.099a1.265 1.265 0 0 1-.246-2.503 1.266 1.266 0 0 1 1.51 1.239 1.272 1.272 0 0 1-.371.893c-.237.236-.558.37-.893.371Zm-3.756.143a1.26 1.26 0 0 1-1.167-.78 1.267 1.267 0 0 1 .921-1.722 1.259 1.259 0 0 1 1.297.537 1.263 1.263 0 0 1-1.051 1.965Zm2.381-4.392a1.264 1.264 0 1 1-.008-2.528 1.264 1.264 0 0 1 .008 2.528Z"/>
    <path fill="url(#j)" d="M-46 305h777v362H-46V305Z"/>
  </g>
  <defs>
    <linearGradient id="b" x1="39.72" x2="628.174" y1="445.482" y2="206.451" gradientUnits="userSpaceOnUse">
      <stop stop-color="#F097E1" stop-opacity=".24"/>
      <stop offset=".122" stop-color="#F097E1"/>
      <stop offset=".204" stop-color="#C042DB"/>
      <stop offset=".325" stop-color="#8670EA"/>
      <stop offset=".46" stop-color="#5ABCD1"/>
      <stop offset=".585" stop-color="#E6EDEF"/>
      <stop offset=".67" stop-color="#EADC82"/>
      <stop offset=".77" stop-color="#FF7579"/>
      <stop offset=".86" stop-color="#D27A7E"/>
      <stop offset="1" stop-color="#D27A7E" stop-opacity="0"/>
    </linearGradient>
    <linearGradient id="c" x1="39.72" x2="628.174" y1="445.482" y2="206.451" gradientUnits="userSpaceOnUse">
      <stop stop-color="#F097E1" stop-opacity=".24"/>
      <stop offset=".122" stop-color="#F097E1"/>
      <stop offset=".204" stop-color="#C042DB"/>
      <stop offset=".325" stop-color="#8670EA"/>
      <stop offset=".46" stop-color="#5ABCD1"/>
      <stop offset=".585" stop-color="#E6EDEF"/>
      <stop offset=".67" stop-color="#EADC82"/>
      <stop offset=".77" stop-color="#FF7579"/>
      <stop offset=".86" stop-color="#D27A7E"/>
      <stop offset="1" stop-color="#D27A7E" stop-opacity="0"/>
    </linearGradient>
    <linearGradient id="d" x1="39.72" x2="628.174" y1="445.482" y2="206.451" gradientUnits="userSpaceOnUse">
      <stop stop-color="#F097E1" stop-opacity=".24"/>
      <stop offset=".122" stop-color="#F097E1"/>
      <stop offset=".204" stop-color="#C042DB"/>
      <stop offset=".325" stop-color="#8670EA"/>
      <stop offset=".46" stop-color="#5ABCD1"/>
      <stop offset=".585" stop-color="#E6EDEF"/>
      <stop offset=".67" stop-color="#EADC82"/>
      <stop offset=".77" stop-color="#FF7579"/>
      <stop offset=".86" stop-color="#D27A7E"/>
      <stop offset="1" stop-color="#D27A7E" stop-opacity="0"/>
    </linearGradient>
    <linearGradient id="e" x1="39.72" x2="628.174" y1="445.482" y2="206.451" gradientUnits="userSpaceOnUse">
      <stop stop-color="#F097E1" stop-opacity=".24"/>
      <stop offset=".122" stop-color="#F097E1"/>
      <stop offset=".204" stop-color="#C042DB"/>
      <stop offset=".325" stop-color="#8670EA"/>
      <stop offset=".46" stop-color="#5ABCD1"/>
      <stop offset=".585" stop-color="#E6EDEF"/>
      <stop offset=".67" stop-color="#EADC82"/>
      <stop offset=".77" stop-color="#FF7579"/>
      <stop offset=".86" stop-color="#D27A7E"/>
      <stop offset="1" stop-color="#D27A7E" stop-opacity="0"/>
    </linearGradient>
    <linearGradient id="f" x1="39.72" x2="628.174" y1="445.482" y2="206.451" gradientUnits="userSpaceOnUse">
      <stop stop-color="#F097E1" stop-opacity=".24"/>
      <stop offset=".122" stop-color="#F097E1"/>
      <stop offset=".204" stop-color="#C042DB"/>
      <stop offset=".325" stop-color="#8670EA"/>
      <stop offset=".46" stop-color="#5ABCD1"/>
      <stop offset=".585" stop-color="#E6EDEF"/>
      <stop offset=".67" stop-color="#EADC82"/>
      <stop offset=".77" stop-color="#FF7579"/>
      <stop offset=".86" stop-color="#D27A7E"/>
      <stop offset="1" stop-color="#D27A7E" stop-opacity="0"/>
    </linearGradient>
    <linearGradient id="g" x1="39.72" x2="628.174" y1="445.482" y2="206.451" gradientUnits="userSpaceOnUse">
      <stop stop-color="#F097E1" stop-opacity=".24"/>
      <stop offset=".122" stop-color="#F097E1"/>
      <stop offset=".204" stop-color="#C042DB"/>
      <stop offset=".325" stop-color="#8670EA"/>
      <stop offset=".46" stop-color="#5ABCD1"/>
      <stop offset=".585" stop-color="#E6EDEF"/>
      <stop offset=".67" stop-color="#EADC82"/>
      <stop offset=".77" stop-color="#FF7579"/>
      <stop offset=".86" stop-color="#D27A7E"/>
      <stop offset="1" stop-color="#D27A7E" stop-opacity="0"/>
    </linearGradient>
    <linearGradient id="h" x1="39.72" x2="628.174" y1="445.482" y2="206.451" gradientUnits="userSpaceOnUse">
      <stop stop-color="#F097E1" stop-opacity=".24"/>
      <stop offset=".122" stop-color="#F097E1"/>
      <stop offset=".204" stop-color="#C042DB"/>
      <stop offset=".325" stop-color="#8670EA"/>
      <stop offset=".46" stop-color="#5ABCD1"/>
      <stop offset=".585" stop-color="#E6EDEF"/>
      <stop offset=".67" stop-color="#EADC82"/>
      <stop offset=".77" stop-color="#FF7579"/>
      <stop offset=".86" stop-color="#D27A7E"/>
      <stop offset="1" stop-color="#D27A7E" stop-opacity="0"/>
    </linearGradient>
    <linearGradient id="i" x1="39.72" x2="628.174" y1="445.482" y2="206.451" gradientUnits="userSpaceOnUse">
      <stop stop-color="#F097E1" stop-opacity=".24"/>
      <stop offset=".122" stop-color="#F097E1"/>
      <stop offset=".204" stop-color="#C042DB"/>
      <stop offset=".325" stop-color="#8670EA"/>
      <stop offset=".46" stop-color="#5ABCD1"/>
      <stop offset=".585" stop-color="#E6EDEF"/>
      <stop offset=".67" stop-color="#EADC82"/>
      <stop offset=".77" stop-color="#FF7579"/>
      <stop offset=".86" stop-color="#D27A7E"/>
      <stop offset="1" stop-color="#D27A7E" stop-opacity="0"/>
    </linearGradient>
    <linearGradient id="j" x1="342.5" x2="342.5" y1="247.804" y2="667" gradientUnits="userSpaceOnUse">
      <stop stop-color="#0D0E12" stop-opacity="0"/>
      <stop offset=".434" stop-color="#0D0E12"/>
    </linearGradient>
    <clipPath id="a">
      <path fill="#fff" d="M0 0h720v512H0z"/>
    </clipPath>
  </defs>
</svg>
