<svg width="176" height="25" viewBox="0 0 176 25" fill="none" xmlns="http://www.w3.org/2000/svg">
<path d="M110.695 5.64886C113.825 5.64886 114.719 7.31094 114.719 9.54145V14.9231C114.719 17.1536 113.825 18.8157 110.695 18.8157H106.466V5.64886H110.695ZM107.584 17.7715H110.713C112.882 17.7715 113.577 16.8571 113.577 14.9787V9.48585C113.577 7.63223 112.882 6.69925 110.713 6.69925H107.584V17.7715Z" fill="#0C0C0E"/>
<path d="M120.071 18.0017C121.079 17.9795 122.08 17.8259 123.05 17.5445L123.243 18.4775C122.194 18.8293 121.097 19.0086 119.993 19.0089C117.346 19.0089 116.495 17.6063 116.495 15.5117V12.4842C116.495 10.507 117.365 8.987 120.011 8.987C122.657 8.987 123.436 10.507 123.436 12.4842V14.3378H117.618V15.5735C117.618 17.2974 118.198 18.0017 120.071 18.0017ZM117.618 13.3183H122.331V12.4471C122.331 10.8221 121.775 9.97559 120.011 9.97559C118.247 9.97559 117.594 10.8221 117.594 12.4471L117.618 13.3183Z" fill="#0C0C0E"/>
<path d="M128.981 18.8158H127.26L124.07 9.18933H125.211L128.111 18.0064L131.03 9.18933H132.171L128.981 18.8158Z" fill="#0C0C0E"/>
<path d="M136.427 18.0017C137.435 17.9795 138.436 17.8259 139.406 17.5445L139.599 18.4775C138.55 18.8293 137.453 19.0086 136.348 19.0089C133.702 19.0089 132.85 17.6063 132.85 15.5117V12.4842C132.85 10.507 133.72 8.987 136.367 8.987C139.013 8.987 139.792 10.507 139.792 12.4842V14.3378H133.974V15.5735C133.974 17.2974 134.554 18.0017 136.427 18.0017ZM133.974 13.3183H138.687V12.4471C138.687 10.8221 138.131 9.97559 136.367 9.97559C134.602 9.97559 133.95 10.8221 133.95 12.4471L133.974 13.3183Z" fill="#0C0C0E"/>
<path d="M141.821 18.814V5.25176L142.939 5.09729V18.814H141.821Z" fill="#0C0C0E"/>
<path d="M148.625 19.0089C145.979 19.0089 144.97 17.4889 144.97 15.5117V12.4842C144.97 10.507 145.979 8.987 148.625 8.987C151.271 8.987 152.28 10.507 152.28 12.4842V15.5117C152.28 17.4889 151.277 19.0089 148.625 19.0089ZM151.156 12.4471C151.156 10.8221 150.383 10.0127 148.625 10.0127C146.867 10.0127 146.093 10.8221 146.093 12.4471V15.5364C146.093 17.1614 146.867 17.9708 148.625 17.9708C150.383 17.9708 151.156 17.1614 151.156 15.5364V12.4471Z" fill="#0C0C0E"/>
<path d="M161.233 16.0616C161.233 17.8226 160.46 19.0274 158.333 19.0274C157.358 19.0248 156.387 18.9192 155.433 18.7123V22.7285L154.309 22.8829V9.18472H155.336L155.391 10.093C156.308 9.39201 157.418 9.00496 158.563 8.987C160.375 8.987 161.233 9.91381 161.233 11.6562V16.0616ZM155.433 17.6619C156.398 17.8783 157.382 17.9922 158.369 18.0017C159.608 18.0017 160.109 17.3839 160.109 16.0616V11.6747C160.109 10.5688 159.759 10.0312 158.484 10.0312C157.357 10.0666 156.278 10.5037 155.433 11.2669V17.6619Z" fill="#0C0C0E"/>
<path d="M166.508 18.0017C167.515 17.9795 168.516 17.8259 169.486 17.5445L169.679 18.4775C168.63 18.8293 167.533 19.0086 166.429 19.0089C163.783 19.0089 162.931 17.6063 162.931 15.5117V12.4842C162.931 10.507 163.801 8.987 166.453 8.987C169.105 8.987 169.873 10.507 169.873 12.4842V14.3378H164.055V15.5735C164.055 17.2974 164.635 18.0017 166.508 18.0017ZM164.055 13.3183H168.773V12.4471C168.773 10.8221 168.211 9.97559 166.453 9.97559C164.695 9.97559 164.037 10.8221 164.037 12.4471L164.055 13.3183Z" fill="#0C0C0E"/>
<path d="M176 10.1115C174.964 10.6218 173.97 11.2169 173.028 11.891V18.8112H171.904V9.18472H172.907L172.967 10.6491C173.874 9.99198 174.846 9.43485 175.867 8.987L176 10.1115Z" fill="#0C0C0E"/>
<path d="M34.5464 18.8393V13.2785H29.713V18.8393H27.2964V5.59833H29.713V11.0418H34.5464V5.59833H36.963V18.8393H34.5464Z" fill="#0C0C0E"/>
<path d="M45.952 18.8382H44.0127L43.8375 18.177C42.9985 18.7374 42.0181 19.0359 41.016 19.0359C39.2881 19.0359 38.551 17.8001 38.551 16.1504C38.551 14.1856 39.3848 13.4318 41.3121 13.4318H43.5837V12.4123C43.5837 11.3434 43.2937 10.9665 41.7712 10.9665C40.8877 10.9758 40.0073 11.0751 39.1431 11.263L38.8531 9.40943C39.91 9.11075 41.001 8.957 42.0975 8.95221C45.076 8.95221 45.946 10.0211 45.946 12.4494L45.952 18.8382ZM43.5837 15.1804H41.8316C41.0583 15.1804 40.8408 15.3966 40.8408 16.1319C40.8408 16.8671 41.0583 17.1081 41.7954 17.1081C42.4315 17.1027 43.0556 16.9304 43.6079 16.6076L43.5837 15.1804Z" fill="#0C0C0E"/>
<path d="M50.5442 19.0372C49.4338 19.0178 48.3324 18.8304 47.2756 18.4811L47.6079 16.6275C48.5263 16.8927 49.4751 17.0319 50.4294 17.0415C51.4746 17.0415 51.6377 16.8005 51.6377 16.0652C51.6377 15.4474 51.5229 15.1755 49.9883 14.7986C47.6683 14.2116 47.3965 13.6308 47.3965 11.7401C47.3965 9.84945 48.2302 8.94118 50.9308 8.94118C51.8864 8.93978 52.8391 9.04964 53.7704 9.26865L53.5348 11.1964C52.675 11.0357 51.8045 10.9427 50.9308 10.9184C49.9037 10.9184 49.7225 11.1593 49.7225 11.7525C49.7225 12.531 49.7769 12.5928 51.0637 12.9264C53.7039 13.6432 53.9577 14.0015 53.9577 16.0158C53.9637 17.8818 53.4019 19.0372 50.5442 19.0372Z" fill="#0C0C0E"/>
<path d="M61.0208 18.8364V12.0769C61.0208 11.5579 60.8093 11.2984 60.2656 11.2984C59.3969 11.3989 58.5567 11.6762 57.7945 12.114V18.8364H55.4202V5.19382L57.7945 4.86017V9.88346C58.869 9.32033 60.0501 9.00203 61.2564 8.95048C62.8272 8.95048 63.3951 10.0812 63.3951 11.8112V18.8364H61.0208Z" fill="#0C0C0E"/>
<path d="M65.1406 7.78701V4.98187H67.515V7.78701H65.1406ZM65.1406 18.8407V9.15868H67.515V18.8407H65.1406Z" fill="#0C0C0E"/>
<path d="M69.165 9.26937C69.165 6.84113 70.5486 5.43238 73.7748 5.43238C74.9597 5.43086 76.1403 5.57608 77.291 5.86489L77.0192 8.03362C75.9749 7.83096 74.916 7.71729 73.8534 7.69379C72.1617 7.69379 71.6179 8.31167 71.6179 9.70188V14.7931C71.6179 16.2081 72.1617 16.8012 73.8534 16.8012C74.9162 16.7808 75.9754 16.6671 77.0192 16.4614L77.291 18.6301C76.1406 18.921 74.9599 19.0683 73.7748 19.0688C70.5486 19.0688 69.165 17.6539 69.165 15.2318V9.26937Z" fill="#0C0C0E"/>
<path d="M82.1663 19.0402C78.9219 19.0402 78.0459 17.1866 78.0459 15.2217V12.7503C78.0459 10.7669 78.9219 8.93799 82.1663 8.93799C85.4107 8.93799 86.2927 10.7916 86.2927 12.7503V15.2217C86.2746 17.2113 85.3986 19.0402 82.1663 19.0402ZM82.1663 11.0079C80.9036 11.0079 80.4203 11.5825 80.4203 12.6761V15.2835C80.4203 16.3772 80.9036 16.9518 82.1663 16.9518C83.429 16.9518 83.9184 16.3772 83.9184 15.2835V12.6946C83.9003 11.601 83.4169 11.0264 82.1663 11.0264V11.0079Z" fill="#0C0C0E"/>
<path d="M92.5687 11.1829C91.6985 11.5855 90.8603 12.0564 90.0614 12.5916V18.8383H87.687V9.15628H89.6928L89.8499 10.2252C90.6196 9.69319 91.4545 9.26731 92.333 8.95856L92.5687 11.1829Z" fill="#0C0C0E"/>
<path d="M101.56 15.6132C101.56 17.7634 100.63 19.0362 98.4308 19.0362C97.5822 19.0285 96.7363 18.9353 95.9054 18.7582V22.7496L93.5371 23.0894V9.15644H95.4221L95.6517 9.97203C96.5233 9.30569 97.5843 8.94976 98.6725 8.95872C100.576 8.95872 101.585 10.108 101.585 12.3138L101.56 15.6132ZM95.9054 16.6821C96.5957 16.8421 97.3002 16.9291 98.0079 16.9416C98.8598 16.9416 99.2163 16.5276 99.2163 15.6503V12.2582C99.2163 11.4611 98.9262 11.0224 98.0502 11.0224C97.265 11.0532 96.5149 11.3635 95.9296 11.8998L95.9054 16.6821Z" fill="#0C0C0E"/>
<path d="M9.34642 0L0 5.51141V5.51759V18.7524L3.51019 20.8284V7.58746L9.34642 4.13974V0Z" fill="#0C0C0E"/>
<path d="M13.0731 0V10.5471H9.3454V6.61122L5.83521 8.6811V22.1939L9.3454 24.27V13.7538H13.0731V17.6649L16.5833 15.5951V2.06987L13.0731 0Z" fill="#0C0C0E"/>
<path d="M13.0742 24.2772L22.4206 18.7658V18.7596V5.52478L18.9104 3.44873V16.6897L13.0742 20.1374V24.2772Z" fill="#0C0C0E"/>
</svg>
