<svg viewBox="16 19 320 39" xmlns="http://www.w3.org/2000/svg">
  <path fill="#010101" d="M62.2,27.9H66v8.2h8.7v-8.2h3.8v20h-3.8v-8.4H66v8.4h-3.8V27.9z"/>
  <path fill="#010101" d="M80.9,44c0-3,2.1-4,4.7-4.6l4.3-1v-0.3c0-1.5-0.9-2.4-2.5-2.4c-1.5,0-2.4,0.8-2.7,2.2l-3.3-0.4
    c0.5-2.7,2.8-4.5,6.1-4.5c3.6,0,6,2.3,6,5.6v5.9c0,0.4,0.1,0.5,0.4,0.5h0.8v2.9h-2.2c-1.4,0-2-0.5-2-1.6c0-0.3,0.1-0.7,0.2-1.3
    l-0.3-0.1c-1,2.2-2.5,3.2-4.7,3.2C82.8,48.1,80.9,46.5,80.9,44z M86.8,45.5c1.9,0,3.2-1.4,3.2-3.5v-1.1l-3.1,0.7
    c-1.6,0.4-2.2,0.9-2.2,2.1C84.6,44.8,85.5,45.5,86.8,45.5z"/>
  <path fill="#010101" d="M96.2,44l3.5-0.7c0.4,1.5,1.6,2.3,3.2,2.3c1.7,0,2.5-0.7,2.5-1.8s-1.1-1.3-3.1-1.7c-2.6-0.4-6-0.9-6-4.5
    c0-2.7,2.3-4.6,6.1-4.6c3.3,0,5.9,1.4,6.5,4.2l-3.5,0.6c-0.3-1.4-1.5-2.2-3-2.2c-1.7,0-2.5,0.7-2.5,1.7c0,1.1,1.1,1.3,3.2,1.7
    c2.6,0.4,5.9,0.9,5.9,4.5c0,2.8-2.3,4.7-6.1,4.7C99.4,48.3,96.8,46.8,96.2,44z"/>
  <path fill="#010101" d="M115,47.9h-3.7V27.3h3.7v6.4c0,0.7-0.1,1.5-0.3,2.5l0.3,0.1c0.9-2.1,2.2-3.3,4.7-3.3c3.2,0,4.9,2,4.9,5.4
    v9.5h-3.7v-9.4c0-1.7-0.8-2.6-2.5-2.6c-1.9,0-3.4,1.4-3.4,3.9V47.9z"/>
  <path fill="#010101" d="M132.2,44.2c0,0.6,0.2,0.7,0.6,0.7h1.6v2.9h-3.4c-1.7,0-2.6-0.9-2.6-2.7v-8.9h-2.1v-2.9h5.8V44.2z M128,29.5
    c0-1.3,1-2.3,2.3-2.3c1.3,0,2.3,1,2.3,2.3c0,1.3-1,2.3-2.3,2.3C129,31.7,128,30.7,128,29.5z"/>
  <path fill="#010101" d="M135.7,37.9c0-6,3.9-10.3,9.7-10.3c4.8,0,8.1,2.8,9,6.5l-3.8,0.9c-0.7-2.6-2.5-4.1-5.2-4.1
    c-3.5,0-5.7,2.9-5.7,7s2.3,7,5.8,7c2.8,0,4.5-1.5,5.2-4.3l3.6,0.4c-0.9,4.5-4.2,7.3-8.9,7.3C139.7,48.3,135.7,43.9,135.7,37.9z"
    />
  <path fill="#010101" d="M155.9,40.6c0-4.4,3.1-7.6,7.4-7.6c4.3,0,7.4,3.2,7.4,7.6c0,4.4-3.1,7.6-7.4,7.6
    C159,48.3,155.9,45.1,155.9,40.6z M167,40.6c0-2.7-1.5-4.6-3.7-4.6c-2.2,0-3.7,1.8-3.7,4.6c0,2.8,1.5,4.6,3.7,4.6
    C165.6,45.2,167,43.4,167,40.6z"/>
  <path fill="#010101" d="M173.1,33.4h3.4v0.6c0,0.8,0,1.4-0.3,2.6l0.3,0.1c0.5-1.9,1.5-3.2,3.9-3.2h1.1V37H180
    c-2.1,0-3.2,1.3-3.2,3.6v7.4h-3.7V33.4z"/>
  <path fill="#010101" d="M183.3,33.4h3.7V34c0,0.7-0.1,1.2-0.3,2.3l0.3,0.1c0.9-2.3,2.5-3.4,4.7-3.4c3.5,0,6.3,2.9,6.3,7.6
    c0,4.7-2.8,7.6-6.3,7.6c-2.1,0-3.7-1.1-4.6-3.5l-0.3,0.1c0.2,1.1,0.2,1.7,0.2,2.3v6.5h-3.7V33.4z M194.4,40.6
    c0-2.8-1.5-4.6-3.7-4.6c-2.2,0-3.7,1.7-3.7,4.6c0,2.9,1.5,4.6,3.7,4.6C192.8,45.2,194.4,43.5,194.4,40.6z"/>



  <polygon fill="#010101" points="32,19.2 17.2,27.7 17.2,27.7 17.2,48.3 22.7,51.5 22.7,30.9 32,25.6"/>

  <polygon fill="#010101" points="37.9,19.2 37.9,35.5 32,35.5 32,29.4 26.4,32.6 26.4,53.6 32,56.8 32,40.5 37.9,40.5 37.9,46.6 
    43.5,43.4 43.5,22.4"/>

  <polygon fill="#010101" points="37.9,56.8 52.7,48.3 52.7,48.3 52.7,27.7 47.1,24.5 47.1,45.1 37.9,50.4"/>

  <path fill="#232020" d="M204.4,27.6h6.3c6.6,0,10.2,4.4,10.2,10.2s-3.6,10.2-10.2,10.2h-6.3V27.6z M210.7,46.2c5.6,0,8.3-3.8,8.3-8.4
    s-2.6-8.4-8.3-8.4h-4.4v16.9H210.7z"/>
  <path fill="#232020" d="M223.5,40.6c0-4.6,3-7.6,6.7-7.6c3.7,0,6.7,2.8,6.7,7.2V41h-11.5c0.1,3.3,2.2,5.5,5,5.5
    c2.3,0,3.7-1.1,4.4-3.2l1.7,0.4c-0.9,2.9-2.9,4.5-6.1,4.5C226.4,48.2,223.5,45.1,223.5,40.6z M225.4,39.5h9.6
    c-0.3-2.9-2.2-4.8-4.8-4.8C227.6,34.7,225.8,36.6,225.4,39.5z"/>
  <path fill="#232020" d="M238.3,33.4h2l4.1,12.9h0.9l4.1-12.9h1.9l-4.7,14.5H243L238.3,33.4z"/>
  <path fill="#232020" d="M252.7,40.6c0-4.6,3-7.6,6.7-7.6c3.7,0,6.7,2.8,6.7,7.2V41h-11.5c0.1,3.3,2.2,5.5,5,5.5
    c2.3,0,3.7-1.1,4.4-3.2l1.7,0.4c-0.9,2.9-2.9,4.5-6.1,4.5C255.5,48.2,252.7,45.1,252.7,40.6z M254.6,39.5h9.6
    c-0.3-2.9-2.2-4.8-4.8-4.8C256.8,34.7,255,36.6,254.6,39.5z"/>
  <path fill="#232020" d="M271.4,45.7c0,0.4,0.1,0.6,0.6,0.6h2.2v1.6h-2.4c-1.6,0-2.2-0.6-2.2-2.1V28.6H267V27h4.4V45.7z"/>
  <path fill="#232020" d="M275.8,40.6c0-4.4,2.9-7.6,7-7.6c4,0,7,3.2,7,7.6c0,4.4-2.9,7.6-7,7.6C278.8,48.2,275.8,45.1,275.8,40.6z
      M287.9,40.6c0-3.5-2.1-5.9-5.1-5.9c-3,0-5.1,2.5-5.1,5.9c0,3.5,2.1,5.9,5.1,5.9S287.9,44.1,287.9,40.6z"/>
  <path fill="#232020" d="M293,33.4h1.9v1.1c0,0.7-0.1,1.2-0.2,2.4l0.2,0.1c1-2.5,2.7-3.9,5.2-3.9c3.8,0,6.6,3.2,6.6,7.6
    c0,4.5-2.8,7.6-6.6,7.6c-2.5,0-4.1-1.3-5.2-3.9l-0.2,0.1c0.2,1.2,0.2,1.7,0.2,2.4v7H293V33.4z M304.8,40.6c0-3.5-2.1-5.9-5-5.9
    c-2.9,0-5,2.4-5,5.9c0,3.5,2,5.9,5,5.9C302.8,46.6,304.8,44.1,304.8,40.6z"/>
  <path fill="#232020" d="M308.9,40.6c0-4.6,3-7.6,6.7-7.6c3.7,0,6.7,2.8,6.7,7.2V41h-11.5c0.1,3.3,2.2,5.5,5,5.5
    c2.3,0,3.7-1.1,4.4-3.2l1.7,0.4c-0.9,2.9-2.9,4.5-6.1,4.5C311.8,48.2,308.9,45.1,308.9,40.6z M310.9,39.5h9.6
    c-0.3-2.9-2.2-4.8-4.8-4.8C313.1,34.7,311.2,36.6,310.9,39.5z"/>
  <path fill="#232020" d="M325.5,33.4h1.8v0.8c0,1,0,1.6-0.2,2.6l0.3,0.1c0.6-2,1.8-3.5,4.2-3.5h0.9v1.8h-0.9c-2.5,0-4.1,2.1-4.1,5.5
    v7.2h-1.9V33.4z"/>
</svg>
