<svg width="651" height="423" viewBox="0 0 651 423" fill="none" xmlns="http://www.w3.org/2000/svg">
<g opacity="0.8">
<path d="M224.071 100.071L132.725 152.809" stroke="url(#paint0_linear_11454_116316)" stroke-width="1.47948"/>
<path d="M224.707 99.8881C224.022 99.4926 224.022 98.8514 224.707 98.4559C225.392 98.0603 226.503 98.0603 227.188 98.4559C227.873 98.8514 227.873 99.4926 227.188 99.8881C226.503 100.284 225.392 100.284 224.707 99.8881Z" stroke="white" stroke-width="1.47948"/>
</g>
<path opacity="0.1" d="M294.592 229.74L319.158 229.582L393.32 187.544C393.5 187.44 393.648 187.292 393.752 187.113C393.855 186.933 393.91 186.73 393.91 186.523C393.91 186.316 393.855 186.113 393.752 185.934C393.648 185.755 393.5 185.606 393.32 185.503L369.26 171.44L369.352 186.44L294.592 229.74Z" fill="black"/>
<g filter="url(#filter0_d_11454_116316)">
<path d="M188.322 64.3408L376.654 173.183C376.852 173.297 377.016 173.462 377.131 173.66C377.245 173.858 377.305 174.083 377.305 174.311C377.305 174.54 377.245 174.765 377.131 174.963C377.016 175.161 376.852 175.325 376.654 175.44L295.588 222.249C295.192 222.477 294.743 222.598 294.286 222.598C293.828 222.598 293.379 222.477 292.983 222.249L104.652 113.406C104.454 113.292 104.289 113.128 104.175 112.93C104.06 112.732 104 112.507 104 112.278C104 112.049 104.06 111.825 104.175 111.627C104.289 111.429 104.454 111.264 104.652 111.15L185.75 64.3408C186.142 64.1174 186.585 64 187.036 64C187.487 64 187.931 64.1174 188.322 64.3408Z" fill="url(#paint1_linear_11454_116316)" fill-opacity="0.2" shape-rendering="crispEdges"/>
<path d="M187.576 65.6422C187.577 65.6428 187.578 65.6434 187.58 65.6439L375.608 174.311L294.838 220.95C294.67 221.047 294.48 221.098 294.286 221.098C294.092 221.098 293.901 221.047 293.733 220.95L105.697 112.278L186.493 65.6439C186.494 65.6434 186.495 65.6429 186.496 65.6424C186.661 65.5491 186.847 65.5 187.036 65.5C187.226 65.5 187.412 65.549 187.576 65.6422ZM375.904 174.482C375.904 174.482 375.903 174.482 375.902 174.481L375.903 174.482L375.904 174.482ZM375.902 174.141C375.903 174.141 375.904 174.141 375.904 174.14L375.904 174.141L375.902 174.141ZM105.402 112.449C105.402 112.449 105.401 112.449 105.401 112.449L105.402 112.449L105.402 112.449Z" stroke="url(#paint2_linear_11454_116316)" stroke-width="3" shape-rendering="crispEdges"/>
</g>
<rect opacity="0.3" x="0.866044" width="62.4417" height="20.0067" transform="matrix(0.866044 -0.499967 0.866044 0.499967 129.116 115.152)" stroke="#D3FDEB"/>
<rect opacity="0.3" x="0.866044" width="34.283" height="27.6977" transform="matrix(0.866044 -0.499967 0.866044 0.499967 246.116 143.073)" stroke="#D3FDEB"/>
<path opacity="0.3" d="M162.73 135.909L197.74 115.698L232.205 135.595L197.195 155.806L162.73 135.909Z" stroke="url(#paint3_linear_11454_116316)"/>
<rect opacity="0.3" x="0.866044" width="21.821" height="21.0359" transform="matrix(0.866044 -0.499967 0.866044 0.499967 229.116 49.8428)" stroke="#C6BA6F"/>
<rect opacity="0.3" x="0.866044" width="45.0694" height="21.0359" transform="matrix(0.866044 -0.499967 0.866044 0.499967 255.116 33.8428)" stroke="#C6BA6F"/>
<path opacity="0.1" d="M402.182 167.931L426.748 167.781L500.91 125.743C501.092 125.641 501.243 125.493 501.348 125.314C501.453 125.134 501.508 124.93 501.508 124.722C501.508 124.514 501.453 124.31 501.348 124.131C501.243 123.952 501.092 123.803 500.91 123.702L476.85 109.598L476.933 124.598L402.182 167.931Z" fill="black"/>
<g filter="url(#filter1_d_11454_116316)">
<path d="M400.88 64.9791L319.806 111.78C319.61 111.896 319.448 112.061 319.335 112.259C319.222 112.457 319.163 112.68 319.163 112.908C319.163 113.136 319.222 113.36 319.335 113.558C319.448 113.756 319.61 113.921 319.806 114.036L400.88 160.846C401.276 161.074 401.725 161.195 402.183 161.195C402.64 161.195 403.089 161.074 403.485 160.846L484.575 114.036C484.771 113.921 484.934 113.756 485.047 113.558C485.16 113.36 485.219 113.136 485.219 112.908C485.219 112.68 485.16 112.457 485.047 112.259C484.934 112.061 484.771 111.896 484.575 111.78L403.502 64.9791C403.104 64.7473 402.651 64.6252 402.191 64.6252C401.73 64.6252 401.278 64.7473 400.88 64.9791Z" fill="url(#paint4_linear_11454_116316)" shape-rendering="crispEdges"/>
<path d="M401.63 66.2782L401.635 66.2753C401.804 66.177 401.995 66.1252 402.191 66.1252C402.386 66.1252 402.578 66.177 402.747 66.2753L402.752 66.2782L483.53 112.908L402.735 159.546L402.735 159.547C402.567 159.643 402.377 159.695 402.183 159.695C401.988 159.695 401.798 159.643 401.63 159.547L320.852 112.908L401.63 66.2782Z" stroke="url(#paint5_linear_11454_116316)" stroke-width="3" shape-rendering="crispEdges"/>
</g>
<rect opacity="0.3" x="0.866044" width="21.821" height="21.0359" transform="matrix(0.866044 -0.499967 0.866044 0.499967 382.116 87.8427)" stroke="#CF7192"/>
<rect opacity="0.3" x="0.866044" width="21.821" height="21.0359" transform="matrix(0.866044 -0.499967 0.866044 0.499967 407.116 102.843)" stroke="#CF7192"/>
<rect opacity="0.3" x="0.866044" width="21.821" height="21.0359" transform="matrix(0.866044 -0.499967 0.866044 0.499967 357.116 102.843)" stroke="#CF7192"/>
<path opacity="0.1" d="M402.27 293.98L426.836 293.814L609.003 188.971C609.182 188.867 609.331 188.719 609.434 188.54C609.538 188.36 609.592 188.157 609.592 187.95C609.592 187.743 609.538 187.54 609.434 187.361C609.331 187.182 609.182 187.033 609.003 186.93L584.943 172.826L585.034 187.834L402.27 293.98Z" fill="black"/>
<g filter="url(#filter2_d_11454_116316)">
<path d="M508.746 128.19L319.9 237.223C319.702 237.337 319.537 237.5 319.423 237.698C319.308 237.895 319.248 238.119 319.248 238.348C319.248 238.576 319.308 238.8 319.423 238.998C319.537 239.195 319.702 239.359 319.9 239.472L400.966 286.281C401.362 286.509 401.811 286.63 402.268 286.63C402.726 286.63 403.175 286.509 403.571 286.281L592.417 177.256C592.615 177.142 592.78 176.977 592.894 176.779C593.008 176.581 593.069 176.356 593.069 176.128C593.069 175.899 593.008 175.674 592.894 175.476C592.78 175.278 592.615 175.114 592.417 174.999L511.351 128.19C510.955 127.962 510.506 127.841 510.049 127.841C509.591 127.841 509.142 127.962 508.746 128.19Z" fill="url(#paint6_linear_11454_116316)" shape-rendering="crispEdges"/>
<path d="M401.716 284.982L320.953 238.348L509.496 129.489C509.664 129.392 509.855 129.341 510.049 129.341C510.243 129.341 510.433 129.392 510.601 129.489C510.601 129.489 510.601 129.489 510.601 129.489L591.371 176.128L402.821 284.982L403.571 286.281L402.821 284.982C402.653 285.079 402.463 285.13 402.268 285.13C402.074 285.13 401.884 285.079 401.716 284.982ZM591.667 176.299C591.667 176.298 591.666 176.298 591.666 176.298L591.667 176.298L591.667 176.299ZM591.666 175.957C591.667 175.957 591.667 175.957 591.667 175.957L591.667 175.957L591.666 175.957Z" stroke="url(#paint7_linear_11454_116316)" stroke-width="3" shape-rendering="crispEdges"/>
</g>
<rect opacity="0.3" x="0.866044" width="33.5713" height="32.3819" transform="matrix(0.866044 -0.499967 0.866044 0.499967 444.444 176.718)" stroke="#E6AD69"/>
<rect opacity="0.3" x="0.866044" width="33.5713" height="32.3819" transform="matrix(0.866044 -0.499967 0.866044 0.499967 516.116 176.718)" stroke="#E6AD69"/>
<rect opacity="0.3" x="0.866044" width="33.5713" height="32.3819" transform="matrix(0.866044 -0.499967 0.866044 0.499967 481.116 197.718)" stroke="#E6AD69"/>
<rect opacity="0.3" x="0.866044" width="33.5713" height="32.3819" transform="matrix(0.866044 -0.499967 0.866044 0.499967 445.116 219.718)" stroke="#E6AD69"/>
<path opacity="0.1" d="M294.252 104.055L318.818 103.889L392.981 61.8509C393.16 61.7486 393.309 61.6008 393.413 61.4223C393.517 61.2438 393.571 61.041 393.571 60.8346C393.571 60.6281 393.517 60.4253 393.413 60.2468C393.309 60.0683 393.16 59.9205 392.981 59.8182L368.921 45.7141L369.012 60.7143L294.252 104.055Z" fill="black"/>
<g filter="url(#filter3_d_11454_116316)">
<path d="M293.024 0.755022L211.95 47.5558C211.754 47.6717 211.591 47.8368 211.478 48.0346C211.366 48.2325 211.306 48.4563 211.306 48.6841C211.306 48.9119 211.366 49.1358 211.478 49.3336C211.591 49.5315 211.754 49.6965 211.95 49.8124L293.024 96.6215C293.42 96.8501 293.869 96.9705 294.326 96.9705C294.783 96.9705 295.233 96.8501 295.629 96.6215L376.694 49.8124C376.892 49.6982 377.057 49.5337 377.171 49.3356C377.286 49.1376 377.346 48.9129 377.346 48.6841C377.346 48.4554 377.286 48.2307 377.171 48.0326C377.057 47.8345 376.892 47.6701 376.694 47.5558L295.629 0.755022C295.233 0.526376 294.783 0.406006 294.326 0.406006C293.869 0.406006 293.42 0.526376 293.024 0.755022Z" fill="url(#paint8_linear_11454_116316)" shape-rendering="crispEdges"/>
<path d="M293.773 2.05411L293.774 2.05406C293.941 1.95707 294.132 1.90601 294.326 1.90601C294.52 1.90601 294.711 1.95706 294.879 2.05406L295.629 0.755022L294.879 2.05408L375.648 48.6841L294.879 95.3225C294.711 95.4195 294.52 95.4705 294.326 95.4705C294.132 95.4705 293.942 95.4195 293.774 95.3225L212.995 48.6841L293.773 2.05411ZM375.945 48.8552C375.944 48.855 375.944 48.8548 375.944 48.8546L375.944 48.8548L375.945 48.8552Z" stroke="url(#paint9_linear_11454_116316)" stroke-width="3" shape-rendering="crispEdges"/>
</g>
<g filter="url(#filter4_d_11454_116316)">
<path d="M118.638 163.478L19.296 217.512C19.0975 217.624 18.9315 217.785 18.8144 217.98C18.6973 218.176 18.6331 218.398 18.6282 218.626C18.6232 218.854 18.6777 219.079 18.7863 219.279C18.8949 219.479 19.0537 219.648 19.2473 219.768L226.597 344.488C226.986 344.724 227.431 344.854 227.887 344.864C228.343 344.874 228.793 344.764 229.193 344.544L278.953 316.832L328.518 290.501C328.719 290.392 328.887 290.231 329.005 290.035C329.124 289.84 329.189 289.616 329.194 289.387C329.199 289.159 329.144 288.933 329.034 288.732C328.923 288.532 328.762 288.364 328.567 288.245L121.226 163.534C120.837 163.3 120.393 163.172 119.939 163.162C119.485 163.152 119.037 163.261 118.638 163.478Z" fill="url(#paint10_diamond_11454_116316)" shape-rendering="crispEdges"/>
<path d="M119.354 164.796L119.355 164.795C119.524 164.703 119.714 164.657 119.907 164.661C120.099 164.666 120.287 164.72 120.453 164.819L121.226 163.534L120.453 164.819L327.491 289.349L278.249 315.507L278.236 315.514L278.223 315.521L228.471 343.229C228.47 343.23 228.469 343.231 228.467 343.231C228.299 343.323 228.111 343.368 227.92 343.364C227.727 343.36 227.539 343.305 227.374 343.206L227.37 343.203L20.3197 218.663L119.354 164.796Z" stroke="url(#paint11_linear_11454_116316)" stroke-width="3" shape-rendering="crispEdges"/>
</g>
<path opacity="0.95" fill-rule="evenodd" clip-rule="evenodd" d="M116.662 190.35L103.548 192.439L113.066 198.11L126.137 196.02L116.662 190.35ZM131.062 187.46L121.427 181.745L117.924 189.531L127.559 195.246L131.062 187.46ZM88.2861 194.852L97.8042 200.516L110.875 198.433L101.4 192.756L88.2861 194.852ZM127.805 196.986L114.692 199.081L124.21 204.745L137.286 202.663L127.805 196.986Z" fill="white"/>
<g clip-path="url(#clip0_11454_116316)">
<path fill-rule="evenodd" clip-rule="evenodd" d="M56.8408 222.211L66.8399 216.445L85.2804 227.091L75.2813 232.857L56.8408 222.211Z" fill="white"/>
<path d="M67.1387 209.263L56.2861 215.542L60.0459 217.713L67.439 213.447L78.7293 219.966L82.1966 217.954C84.3466 216.712 84.5939 214.823 82.7206 213.742L74.4359 208.959C72.5724 207.886 69.2883 208.027 67.1387 209.263Z" fill="white"/>
</g>
<path opacity="0.95" d="M243.645 282.811L283.645 290.499L270.354 267.499L243.645 282.811ZM263.903 277.109L265.58 276.148L267.257 277.109L265.58 278.07L263.903 277.109ZM267.322 282.427L265.645 283.388L263.967 282.427L265.645 281.466L267.322 282.427ZM264.999 281.081L263.322 282.042L261.645 281.081L263.322 280.12L264.999 281.081ZM262.677 279.736L260.999 280.697L259.322 279.736L260.999 278.775L262.677 279.736ZM271.967 282.427L270.29 283.388L268.612 282.427L270.29 281.466L271.967 282.427ZM269.645 281.081L267.967 282.042L266.29 281.081L267.967 280.12L269.645 281.081ZM267.322 279.736L265.645 280.697L263.967 279.736L265.645 278.775L267.322 279.736ZM264.999 278.391L263.322 279.352L261.645 278.391L263.322 277.43L264.999 278.391ZM266.225 278.391L267.903 277.43L269.58 278.391L267.903 279.352L266.225 278.391ZM270.225 280.697L268.548 279.736L270.225 278.775L271.903 279.736L270.225 280.697Z" fill="white"/>
<path d="M127.79 248.071C127.649 249.829 126.312 251.518 124.131 252.784C119.276 255.597 111.326 255.597 106.471 252.784C101.616 249.97 101.616 245.398 106.471 242.584C108.652 241.318 111.537 240.544 114.633 240.474L114.492 236.745C109.707 236.886 105.204 238.012 101.827 239.981C94.4392 244.272 94.4392 251.236 101.827 255.527C109.215 259.818 121.317 259.818 128.705 255.527C132.082 253.558 134.052 250.955 134.263 248.211L127.79 248.071Z" fill="white"/>
<path d="M130.675 245.327C131.308 245.679 132.293 245.679 132.856 245.327C133.419 244.975 133.489 244.413 132.856 244.061C132.223 243.709 131.238 243.709 130.675 244.061C130.042 244.413 130.042 244.975 130.675 245.327Z" fill="white"/>
<path d="M112.381 249.478C113.999 250.392 116.603 250.392 118.221 249.478C119.839 248.563 119.839 247.016 118.221 246.101C116.603 245.187 113.999 245.187 112.381 246.101C110.763 247.016 110.763 248.563 112.381 249.478Z" fill="white"/>
<path d="M128.142 242.443C128.775 242.795 129.76 242.795 130.323 242.443C130.886 242.091 130.957 241.529 130.323 241.177C129.69 240.825 128.705 240.825 128.142 241.177C127.579 241.529 127.579 242.091 128.142 242.443Z" fill="white"/>
<path d="M124.765 243.006C124.132 243.358 124.132 243.921 124.765 244.272C125.398 244.624 126.383 244.624 126.946 244.272C127.579 243.921 127.579 243.358 126.946 243.006C126.383 242.654 125.398 242.654 124.765 243.006Z" fill="white"/>
<path d="M124.483 240.333C125.116 240.685 126.101 240.685 126.664 240.333C127.297 239.981 127.297 239.418 126.664 239.067C126.031 238.715 125.046 238.715 124.483 239.067C123.85 239.418 123.85 239.981 124.483 240.333Z" fill="white"/>
<path d="M121.316 242.303C121.95 242.654 122.935 242.654 123.498 242.303C124.131 241.951 124.131 241.388 123.498 241.036C122.864 240.685 121.879 240.685 121.316 241.036C120.753 241.388 120.683 241.951 121.316 242.303Z" fill="white"/>
<path d="M119.558 238.856C120.191 239.207 121.176 239.207 121.739 238.856C122.373 238.504 122.373 237.941 121.739 237.59C121.106 237.238 120.121 237.238 119.558 237.59C118.925 237.941 118.925 238.504 119.558 238.856Z" fill="white"/>
<path d="M149.39 214.48L144.411 225.217L157.037 223.321L157.664 221.827L163.755 220.83L159.223 218.213L160.719 214.752L165.259 217.373L168.18 211.491L168.164 211.481L149.39 214.48Z" fill="white"/>
<path d="M165.26 217.373L169.768 219.975L168.443 222.831L164.889 223.312L176.653 230.104L176.717 230.072L181.748 219.323L168.18 211.491L167.961 211.617L165.26 217.373Z" fill="white"/>
<path d="M162.403 223.706L166.927 226.318L165.622 229.683L156.571 224.457L157.089 223.195L144.479 225.173L144.411 225.217L157.975 233.047L176.653 230.104L164.888 223.312L162.403 223.706Z" fill="white"/>
<g clip-path="url(#clip1_11454_116316)">
<path d="M234.927 320.211L233.002 319.263L237.525 316.133L236.336 315.548L234.143 317.066L232.207 316.113L242.562 308.948L230.388 308.652L227.833 301.699L217.219 309.043L227.434 314.069L221.72 318.023L206.458 310.512L226.118 296.908L234.421 297.11L236.986 304.087L249.451 304.391L251.141 308.992L234.927 320.211Z" fill="white"/>
<path d="M229.74 316.043L227.499 317.363L229.392 318.405L231.633 317.085L229.74 316.043Z" fill="white"/>
<path d="M228.247 321.531L226.006 322.852L227.899 323.894L230.14 322.573L228.247 321.531Z" fill="white"/>
</g>
<g clip-path="url(#clip2_11454_116316)">
<path d="M177.663 258.639L180.172 266.28L169.749 263.838L177.663 258.639Z" fill="white"/>
<path d="M160.856 275.883L158.216 277.617L175.602 281.693L177.277 286.792L145.976 279.456L159.179 270.782L176.57 274.858L175.731 272.309L161.819 269.048L167.099 265.579L174.059 267.209L181.014 268.839L185.199 281.587L160.856 275.883Z" fill="white"/>
</g>
<g clip-path="url(#clip3_11454_116316)">
<path d="M209.138 234.92L207.227 241.023L209.12 242.289L213.729 249.868L203.034 247.213L201.141 245.947L193.064 247.926L191.905 251.639L194.084 253.096L218.563 259.469L225.532 257.761L227.182 252.495L216.231 235.176L214.052 233.719L209.138 234.92Z" fill="#EAEAEA"/>
<path d="M214.052 233.719L212.139 239.82L214.035 241.087L219.671 250.848L218.896 253.323L225.532 257.761L227.182 252.495L216.231 235.176L214.052 233.719Z" fill="white"/>
<path d="M203.034 247.213L201.141 245.947L199.978 249.66L201.873 250.928L215.62 254.126L216.395 251.651L213.729 249.868L203.034 247.213Z" fill="white"/>
</g>
<path fill-rule="evenodd" clip-rule="evenodd" d="M277.302 71.7632C275.883 72.6116 275.875 73.9998 277.285 74.864L292.602 84.252C294.012 85.1162 296.306 85.1289 297.725 84.2806L310.342 76.7396C311.246 76.1998 311.251 75.3163 310.353 74.7664L293.18 64.2405C292.282 63.6905 290.823 63.6824 289.919 64.2223L277.302 71.7632ZM305.47 73.4707L291.778 65.0783C291.65 64.9998 291.441 64.9986 291.312 65.0757L278.695 72.6167C278.05 73.0023 278.046 73.6333 278.687 74.0261L291.73 82.0201C291.902 81.7015 292.199 81.4027 292.62 81.1512L305.47 73.4707ZM294.004 83.4141C294.645 83.8069 295.688 83.8127 296.333 83.4271L308.95 75.8862C309.079 75.8091 309.08 75.6829 308.952 75.6043L306.863 74.3241L294.012 82.0047C293.367 82.3903 293.363 83.0213 294.004 83.4141Z" fill="white"/>
<path d="M392.988 137.665C392.601 137.896 392.598 138.275 392.983 138.511C393.367 138.746 393.993 138.75 394.38 138.519L398.119 136.284C398.506 136.053 398.508 135.674 398.123 135.439C397.739 135.203 397.113 135.199 396.726 135.431L392.988 137.665Z" fill="white"/>
<path fill-rule="evenodd" clip-rule="evenodd" d="M385.302 137.763C383.883 138.612 383.875 140 385.285 140.864L398.746 149.114C400.156 149.978 402.449 149.991 403.869 149.143L405.257 148.313L406.074 149.064C406.28 149.253 406.644 149.356 407.015 149.331C407.385 149.306 407.699 149.156 407.827 148.944L409.783 145.696L415.174 144.553C415.525 144.479 415.776 144.29 415.823 144.066C415.869 143.843 415.703 143.621 415.393 143.494L414.163 142.99L415.551 142.16C416.971 141.312 416.978 139.924 415.568 139.06L402.108 130.809C400.698 129.945 398.404 129.932 396.985 130.781L385.302 137.763ZM401.725 145.07L404.145 147.292L402.476 148.289C401.831 148.675 400.788 148.669 400.148 148.276L386.687 140.026C386.046 139.633 386.05 139.002 386.695 138.617L398.377 131.634C399.023 131.249 400.065 131.255 400.706 131.647L414.167 139.897C414.807 140.29 414.804 140.921 414.159 141.307L412.49 142.304L408.85 140.811C408.733 139.901 408.102 139.009 406.956 138.307C404.393 136.736 400.223 136.712 397.642 138.255C395.061 139.797 395.047 142.321 397.61 143.893C398.756 144.595 400.222 144.988 401.725 145.07ZM406.892 141.201C406.881 141.151 406.882 141.1 406.893 141.049C406.865 140.36 406.42 139.675 405.555 139.145C403.76 138.045 400.841 138.029 399.034 139.108C397.228 140.188 397.218 141.955 399.012 143.055C399.877 143.585 401.004 143.863 402.141 143.888C402.225 143.882 402.31 143.883 402.393 143.89C403.531 143.878 404.661 143.612 405.533 143.091C406.404 142.57 406.857 141.89 406.892 141.201ZM406.925 143.945C406.073 144.454 405.049 144.792 403.966 144.961L406.64 147.416L408.085 145.017C408.186 144.85 408.405 144.719 408.682 144.66L412.664 143.816L408.641 142.166C408.349 142.82 407.777 143.436 406.925 143.945Z" fill="white"/>
<path d="M393.618 264.096C393.575 263.739 393.986 263.433 394.534 263.412L402.295 263.115C402.59 263.104 402.88 263.178 403.086 263.318C403.293 263.458 403.394 263.649 403.363 263.84L402.555 268.855C402.498 269.21 402.007 269.462 401.46 269.418C400.912 269.375 400.515 269.052 400.572 268.697L401.257 264.452L394.688 264.704C394.139 264.725 393.66 264.453 393.618 264.096Z" fill="white"/>
<path d="M407.02 266.297C406.625 266.541 406.617 266.951 407.001 267.211C407.385 267.472 408.016 267.485 408.41 267.241L413.647 263.994C414.041 263.75 414.05 263.34 413.666 263.08C413.282 262.819 412.651 262.806 412.257 263.05L407.02 266.297Z" fill="white"/>
<path fill-rule="evenodd" clip-rule="evenodd" d="M386.355 265.564C384.947 264.609 384.978 263.108 386.425 262.211L402.136 252.472C403.582 251.575 405.895 251.623 407.303 252.579L420.744 261.701C422.152 262.657 422.121 264.158 420.675 265.054L404.964 274.794C403.518 275.69 401.204 275.642 399.796 274.687L386.355 265.564ZM387.815 263.155C387.158 263.562 387.144 264.245 387.784 264.679L401.224 273.801C401.864 274.236 402.916 274.258 403.573 273.85L419.284 264.111C419.942 263.703 419.956 263.021 419.316 262.586L405.875 253.464C405.235 253.03 404.183 253.008 403.526 253.415L387.815 263.155Z" fill="white"/>
<path fill-rule="evenodd" clip-rule="evenodd" d="M286.995 197.418C286.625 197.493 286.34 197.675 286.242 197.898L281.874 207.955C281.773 208.187 281.89 208.428 282.18 208.586C282.47 208.744 282.888 208.794 283.272 208.716L287.856 207.79C287.87 207.951 287.984 208.106 288.197 208.222L293.541 211.131C293.696 211.215 293.89 211.27 294.1 211.29L294.31 210.64C294.1 211.29 294.101 211.29 294.101 211.29L294.103 211.29L294.106 211.29L294.115 211.291L294.138 211.293C294.156 211.294 294.179 211.296 294.207 211.298C294.262 211.301 294.338 211.305 294.432 211.309C294.621 211.316 294.885 211.321 295.214 211.313C295.872 211.298 296.794 211.234 297.903 211.046C300.131 210.667 303.065 209.793 306.11 207.849C309.154 205.906 310.245 204.211 310.523 202.952C310.662 202.327 310.596 201.823 310.489 201.466C310.435 201.288 310.371 201.146 310.317 201.045C310.29 200.994 310.265 200.953 310.245 200.922C310.235 200.907 310.227 200.894 310.22 200.884L310.21 200.871L310.206 200.865L310.205 200.863L310.204 200.862C310.204 200.862 310.203 200.861 309.185 201.147L310.203 200.861C310.145 200.783 310.06 200.713 309.954 200.656L304.61 197.746C304.397 197.631 304.125 197.576 303.852 197.581L305.054 194.814C305.155 194.581 305.038 194.34 304.748 194.182C304.458 194.024 304.04 193.975 303.656 194.052L286.995 197.418ZM303.299 198.853L300.685 204.87C300.588 205.094 300.303 205.276 299.933 205.351L289.964 207.364L294.809 210.002C294.917 210.004 295.052 210.004 295.212 210C295.709 209.989 296.45 209.94 297.365 209.784C299.186 209.475 301.751 208.735 304.507 206.976C307.263 205.217 308.111 203.779 308.32 202.831C308.426 202.352 308.373 201.983 308.301 201.744C308.274 201.655 308.244 201.583 308.219 201.531L303.299 198.853ZM298.691 204.229L284.522 207.092L288.237 198.539L302.406 195.677L298.691 204.229Z" fill="white"/>
<rect opacity="0.3" x="0.866044" width="21.821" height="21.0359" transform="matrix(0.866044 -0.499967 0.866044 0.499967 299.116 58.8428)" stroke="#C6BA6F"/>
<g opacity="0.8">
<path d="M397.77 207.556L291.998 268.624" stroke="url(#paint12_linear_11454_116316)" stroke-width="1.47948"/>
<path d="M398.405 207.403C397.556 206.912 397.556 206.118 398.405 205.627C399.255 205.137 400.631 205.137 401.481 205.627C402.33 206.118 402.33 206.912 401.481 207.403C400.631 207.893 399.255 207.893 398.405 207.403Z" stroke="white" stroke-width="1.47948"/>
</g>
<g opacity="0.6">
<path d="M321.234 28.3952L422.221 86.7" stroke="url(#paint13_linear_11454_116316)" stroke-width="1.47948"/>
<path d="M320.598 28.232C321.393 27.7732 321.393 27.0293 320.598 26.5705C319.803 26.1117 318.515 26.1117 317.72 26.5705C316.925 27.0293 316.925 27.7732 317.72 28.232C318.515 28.6908 319.803 28.6908 320.598 28.232Z" stroke="white" stroke-width="1.47948"/>
</g>
<defs>
<filter id="filter0_d_11454_116316" x="46.668" y="64" width="387.969" height="293.326" filterUnits="userSpaceOnUse" color-interpolation-filters="sRGB">
<feFlood flood-opacity="0" result="BackgroundImageFix"/>
<feColorMatrix in="SourceAlpha" type="matrix" values="0 0 0 0 0 0 0 0 0 0 0 0 0 0 0 0 0 0 127 0" result="hardAlpha"/>
<feOffset dy="77.3967"/>
<feGaussianBlur stdDeviation="28.666"/>
<feComposite in2="hardAlpha" operator="out"/>
<feColorMatrix type="matrix" values="0 0 0 0 0 0 0 0 0 0 0 0 0 0 0 0 0 0 0.55 0"/>
<feBlend mode="normal" in2="BackgroundImageFix" result="effect1_dropShadow_11454_116316"/>
<feBlend mode="normal" in="SourceGraphic" in2="effect1_dropShadow_11454_116316" result="shape"/>
</filter>
<filter id="filter1_d_11454_116316" x="261.831" y="64.6252" width="280.72" height="231.298" filterUnits="userSpaceOnUse" color-interpolation-filters="sRGB">
<feFlood flood-opacity="0" result="BackgroundImageFix"/>
<feColorMatrix in="SourceAlpha" type="matrix" values="0 0 0 0 0 0 0 0 0 0 0 0 0 0 0 0 0 0 127 0" result="hardAlpha"/>
<feOffset dy="77.3967"/>
<feGaussianBlur stdDeviation="28.666"/>
<feComposite in2="hardAlpha" operator="out"/>
<feColorMatrix type="matrix" values="0 0 0 0 0 0 0 0 0 0 0 0 0 0 0 0 0 0 0.55 0"/>
<feBlend mode="normal" in2="BackgroundImageFix" result="effect1_dropShadow_11454_116316"/>
<feBlend mode="normal" in="SourceGraphic" in2="effect1_dropShadow_11454_116316" result="shape"/>
</filter>
<filter id="filter2_d_11454_116316" x="261.916" y="127.841" width="388.485" height="293.517" filterUnits="userSpaceOnUse" color-interpolation-filters="sRGB">
<feFlood flood-opacity="0" result="BackgroundImageFix"/>
<feColorMatrix in="SourceAlpha" type="matrix" values="0 0 0 0 0 0 0 0 0 0 0 0 0 0 0 0 0 0 127 0" result="hardAlpha"/>
<feOffset dy="77.3967"/>
<feGaussianBlur stdDeviation="28.666"/>
<feComposite in2="hardAlpha" operator="out"/>
<feColorMatrix type="matrix" values="0 0 0 0 0 0 0 0 0 0 0 0 0 0 0 0 0 0 0.55 0"/>
<feBlend mode="normal" in2="BackgroundImageFix" result="effect1_dropShadow_11454_116316"/>
<feBlend mode="normal" in="SourceGraphic" in2="effect1_dropShadow_11454_116316" result="shape"/>
</filter>
<filter id="filter3_d_11454_116316" x="153.974" y="0.406006" width="280.704" height="231.293" filterUnits="userSpaceOnUse" color-interpolation-filters="sRGB">
<feFlood flood-opacity="0" result="BackgroundImageFix"/>
<feColorMatrix in="SourceAlpha" type="matrix" values="0 0 0 0 0 0 0 0 0 0 0 0 0 0 0 0 0 0 127 0" result="hardAlpha"/>
<feOffset dy="77.3967"/>
<feGaussianBlur stdDeviation="28.666"/>
<feComposite in2="hardAlpha" operator="out"/>
<feColorMatrix type="matrix" values="0 0 0 0 0 0 0 0 0 0 0 0 0 0 0 0 0 0 0.55 0"/>
<feBlend mode="normal" in2="BackgroundImageFix" result="effect1_dropShadow_11454_116316"/>
<feBlend mode="normal" in="SourceGraphic" in2="effect1_dropShadow_11454_116316" result="shape"/>
</filter>
<filter id="filter4_d_11454_116316" x="18.6279" y="163.161" width="310.566" height="259.1" filterUnits="userSpaceOnUse" color-interpolation-filters="sRGB">
<feFlood flood-opacity="0" result="BackgroundImageFix"/>
<feColorMatrix in="SourceAlpha" type="matrix" values="0 0 0 0 0 0 0 0 0 0 0 0 0 0 0 0 0 0 127 0" result="hardAlpha"/>
<feOffset dy="77.3967"/>
<feComposite in2="hardAlpha" operator="out"/>
<feColorMatrix type="matrix" values="0 0 0 0 0 0 0 0 0 0 0 0 0 0 0 0 0 0 0.15 0"/>
<feBlend mode="normal" in2="BackgroundImageFix" result="effect1_dropShadow_11454_116316"/>
<feBlend mode="normal" in="SourceGraphic" in2="effect1_dropShadow_11454_116316" result="shape"/>
</filter>
<linearGradient id="paint0_linear_11454_116316" x1="224.071" y1="100.071" x2="184.663" y2="123.462" gradientUnits="userSpaceOnUse">
<stop stop-color="white"/>
<stop offset="1" stop-color="white" stop-opacity="0"/>
</linearGradient>
<linearGradient id="paint1_linear_11454_116316" x1="382.769" y1="134.309" x2="71.3696" y2="217.751" gradientUnits="userSpaceOnUse">
<stop stop-color="#595959"/>
<stop offset="0.737389" stop-color="#262626" stop-opacity="0.88"/>
<stop offset="1" stop-color="#1F1F1F" stop-opacity="0"/>
</linearGradient>
<linearGradient id="paint2_linear_11454_116316" x1="195.162" y1="122.244" x2="388.773" y2="50.7171" gradientUnits="userSpaceOnUse">
<stop stop-color="#147DC2" stop-opacity="0.35"/>
<stop offset="0.505208" stop-color="#14B3C2" stop-opacity="0.7"/>
<stop offset="1" stop-color="#01CE9D"/>
</linearGradient>
<linearGradient id="paint3_linear_11454_116316" x1="184" y1="112" x2="178.334" y2="177.228" gradientUnits="userSpaceOnUse">
<stop stop-color="#D3FDEB" stop-opacity="0"/>
<stop offset="1" stop-color="#D3FDEB"/>
</linearGradient>
<linearGradient id="paint4_linear_11454_116316" x1="357.377" y1="66.4273" x2="484.616" y2="28.0517" gradientUnits="userSpaceOnUse">
<stop stop-color="#313131" stop-opacity="0"/>
<stop offset="0.432292" stop-color="#1C1C1C" stop-opacity="0.76"/>
<stop offset="1" stop-color="#1F1F1F" stop-opacity="0.86"/>
</linearGradient>
<linearGradient id="paint5_linear_11454_116316" x1="485" y1="44.5" x2="263.5" y2="185" gradientUnits="userSpaceOnUse">
<stop stop-color="#F4538E" stop-opacity="0"/>
<stop offset="0.255208" stop-color="#F4538E" stop-opacity="0.42"/>
<stop offset="0.683581" stop-color="#FB78A7" stop-opacity="0.805315"/>
<stop offset="1" stop-color="#FF7485"/>
</linearGradient>
<linearGradient id="paint6_linear_11454_116316" x1="336.426" y1="299.492" x2="427.003" y2="65.5515" gradientUnits="userSpaceOnUse">
<stop stop-color="#393939" stop-opacity="0.47"/>
<stop offset="1" stop-opacity="0.74"/>
</linearGradient>
<linearGradient id="paint7_linear_11454_116316" x1="670.5" y1="57.5" x2="363.739" y2="347.79" gradientUnits="userSpaceOnUse">
<stop stop-color="#EC585D" stop-opacity="0"/>
<stop offset="0.511523" stop-color="#EC585D" stop-opacity="0.57"/>
<stop offset="1" stop-color="#FFD976"/>
</linearGradient>
<linearGradient id="paint8_linear_11454_116316" x1="249.517" y1="2.20799" x2="376.744" y2="-36.1621" gradientUnits="userSpaceOnUse">
<stop stop-color="#313131" stop-opacity="0"/>
<stop offset="0.432292" stop-color="#1C1C1C" stop-opacity="0.76"/>
<stop offset="1" stop-color="#1F1F1F" stop-opacity="0.86"/>
</linearGradient>
<linearGradient id="paint9_linear_11454_116316" x1="316.5" y1="-16" x2="261.627" y2="99.7803" gradientUnits="userSpaceOnUse">
<stop stop-color="#68602B" stop-opacity="0.35"/>
<stop offset="1" stop-color="#FFF091"/>
</linearGradient>
<radialGradient id="paint10_diamond_11454_116316" cx="0" cy="0" r="1" gradientUnits="userSpaceOnUse" gradientTransform="translate(12.8558 338.461) rotate(-25.6178) scale(377.656 1141.82)">
<stop stop-color="#2D2D2D"/>
<stop offset="0.418399" stop-color="#181818" stop-opacity="0.74"/>
<stop offset="1" stop-color="#1F1F1F" stop-opacity="0.13"/>
</radialGradient>
<linearGradient id="paint11_linear_11454_116316" x1="323.701" y1="166.077" x2="246.276" y2="414.275" gradientUnits="userSpaceOnUse">
<stop stop-color="#171234"/>
<stop offset="0.567708" stop-color="#5811B5"/>
<stop offset="1" stop-color="#4CACDA"/>
</linearGradient>
<linearGradient id="paint12_linear_11454_116316" x1="397.77" y1="207.556" x2="352.191" y2="234.728" gradientUnits="userSpaceOnUse">
<stop stop-color="white"/>
<stop offset="1" stop-color="white" stop-opacity="0"/>
</linearGradient>
<linearGradient id="paint13_linear_11454_116316" x1="331.5" y1="31.0002" x2="361" y2="48.5001" gradientUnits="userSpaceOnUse">
<stop stop-color="white"/>
<stop offset="1" stop-color="white" stop-opacity="0"/>
</linearGradient>
<clipPath id="clip0_11454_116316">
<rect width="45.02" height="45.02" fill="white" transform="translate(56.2861 199.745)"/>
</clipPath>
<clipPath id="clip1_11454_116316">
<rect width="45.02" height="45.02" fill="white" transform="matrix(0.86157 -0.507639 0.213144 0.977021 200.92 305.363)"/>
</clipPath>
<clipPath id="clip2_11454_116316">
<rect width="38.3223" height="38.3223" fill="white" transform="matrix(0.835771 -0.549078 0.788588 0.614922 140 275.042)"/>
</clipPath>
<clipPath id="clip3_11454_116316">
<rect width="38.3977" height="38.3977" fill="white" transform="matrix(0.777383 -0.629027 0.83126 0.555884 182.286 250.899)"/>
</clipPath>
</defs>
</svg>
