<svg width="24" height="24" viewBox="0 0 24 24" fill="none" xmlns="http://www.w3.org/2000/svg">
<path d="M11.5833 5.1133C12.2737 5.1133 12.8333 5.68562 12.8333 6.39162V8.52216H14.9167C15.607 8.52216 16.1667 9.09448 16.1667 9.80048C16.1667 10.5065 15.607 11.0788 14.9167 11.0788H12.8333V13.2093C12.8333 13.9153 12.2737 14.4877 11.5833 14.4877C10.893 14.4877 10.3333 13.9153 10.3333 13.2093V11.0788H8.25C7.55964 11.0788 7 10.5065 7 9.80048C7 9.09448 7.55964 8.52216 8.25 8.52216H10.3333V6.39162C10.3333 5.68562 10.893 5.1133 11.5833 5.1133Z" fill="url(#paint0_linear_814_44407)"/>
<path fill-rule="evenodd" clip-rule="evenodd" d="M2 3.83497C2 1.71697 3.67893 0 5.75 0H18.25C20.3211 0 22 1.71698 22 3.83497V22.2932C22 23.5859 20.6479 24.4081 19.5373 23.7906L12.199 19.7108C12.0749 19.6418 11.9251 19.6418 11.801 19.7108L4.46272 23.7906C3.35215 24.4081 2 23.5859 2 22.2932V3.83497ZM5.75 2.55665C5.05964 2.55665 4.5 3.12897 4.5 3.83497V20.8598L10.6069 17.4646C11.4756 16.9816 12.5244 16.9816 13.3931 17.4646L19.5 20.8598V3.83497C19.5 3.12897 18.9404 2.55665 18.25 2.55665H5.75Z" fill="url(#paint1_linear_814_44407)"/>
<defs>
<linearGradient id="paint0_linear_814_44407" x1="17" y1="1.6077" x2="4.02703" y2="20.3326" gradientUnits="userSpaceOnUse">
<stop stop-color="#B5D9FA"/>
<stop offset="1" stop-color="#1A5EE5"/>
</linearGradient>
<linearGradient id="paint1_linear_814_44407" x1="17" y1="1.6077" x2="4.02703" y2="20.3326" gradientUnits="userSpaceOnUse">
<stop stop-color="#B5D9FA"/>
<stop offset="1" stop-color="#1A5EE5"/>
</linearGradient>
</defs>
</svg>
