<?xml version="1.0" encoding="UTF-8"?>
<svg id="a" data-name="Layer 1" xmlns="http://www.w3.org/2000/svg" width="744.2" height="1709.7" xmlns:xlink="http://www.w3.org/1999/xlink" viewBox="0 0 744.2 1709.7">
  <defs>
    <linearGradient id="b" x1="372.1" y1="1709.7" x2="372.1" y2="0" gradientUnits="userSpaceOnUse">
      <stop offset="0" stop-color="#656a76" stop-opacity="0"/>
      <stop offset=".1" stop-color="#656a76" stop-opacity=".1"/>
      <stop offset=".3" stop-color="#656a76" stop-opacity=".2"/>
      <stop offset=".5" stop-color="#656a76" stop-opacity=".2"/>
      <stop offset=".7" stop-color="#656a76" stop-opacity=".2"/>
      <stop offset=".9" stop-color="#656a76" stop-opacity="0"/>
      <stop offset="1" stop-color="#656a76" stop-opacity="0"/>
    </linearGradient>
  </defs>
  <path d="m744.1,342.4c0,0,0,0,0-.2s0,0,0-.2c0,0,0-.1,0-.1L496.4.2s0,0,0,0c0,0-.1-.1-.2-.2,0,0-.1,0-.2,0,0,0-.1,0-.2,0,0,0-.2,0-.2.2,0,0,0,0,0,0l-247.7,341.7h0S0,683.7,0,683.7c0,0,0,0,0,.1,0,0,0,0,0,.2s0,0,0,.2c0,0,0,.1,0,.1l247.5,341.5L0,1367.2s0,0,0,.1c0,0,0,0,0,.1s0,0,0,.1c0,0,0,.1,0,.1l247.7,341.7s0,0,0,0c0,0,0,0,0,0,0,0,.1.1.2.2,0,0,0,0,0,0,0,0,.1,0,.2,0s.1,0,.2,0c0,0,0,0,0,0,0,0,.2,0,.2-.2,0,0,0,0,0,0,0,0,0,0,0,0l247.7-341.7h0s247.7-341.7,247.7-341.7c0,0,0,0,0-.1,0,0,0,0,0-.1s0,0,0-.1c0,0,0-.1,0-.1l-247.5-341.5,247.5-341.5s0,0,0-.1ZM248.2,1466.3L1.8,1367.5l246.4-98.8,246.4,98.8-246.4,98.8Zm.5-1122.5l30.5,42.1,215.3,297-245.8-98.6v-240.5Zm94.5,550l-94.5,130.4v-240.5l245.8-98.6-151.3,208.7Zm-94.5,133.4l94.5,130.4,151.3,208.7-245.8-98.6v-240.5Zm246.7,338.7l-94.5-130.4-151.3-208.7,245.8,98.6v240.5Zm-94.5-550l94.5-130.4v240.5l-245.8,98.6,151.3-208.7Zm94.5-133.4l-94.2-129.9-151.6-209.2,245.8,98.6v240.5Zm-247.2-97.3l246.4,98.8-246.4,98.8L1.8,684l246.4-98.8Zm247.7,539.3l-246.4-98.8,246.4-98.8,246.4,98.8-246.4,98.8Zm0-683.5l-246.4-98.8,246.4-98.8,246.4,98.8-246.4,98.8Zm.5-198.5V2l245.8,339.1-245.8-98.6Zm-1-240.5v240.5l-245.8,98.6L495.5,2Zm-247.7,341.7v240.5L1.9,682.9l245.8-339.1Zm0,439.9v240.5L1.9,685.1l245.8,98.6Zm0,243.6v240.5L1.9,1366.4l245.8-339.1Zm0,439.9v240.5L1.9,1368.6l245.8,98.6Zm1,240.5v-240.5l245.8-98.6-245.8,339.1Zm247.7-341.7v-240.5l245.8-98.6-245.8,339.1Zm0-439.9v-240.5l245.8,339.1-245.8-98.6Zm0-243.6v-240.5l245.8-98.6-245.8,339.1Z" style="fill: url(#b);"/>
</svg>