<?xml version="1.0" encoding="UTF-8"?>
<svg id="a" data-name="Layer 1" xmlns="http://www.w3.org/2000/svg" width="1068.6" height="1470.3" xmlns:xlink="http://www.w3.org/1999/xlink" viewBox="0 0 1068.6 1470.3">
  <defs>
    <linearGradient id="b" x1="534.3" y1="1468.3" x2="534.3" y2="2" gradientUnits="userSpaceOnUse">
      <stop offset="0" stop-color="#656a76" stop-opacity="0"/>
      <stop offset=".1" stop-color="#656a76" stop-opacity=".1"/>
      <stop offset=".3" stop-color="#656a76" stop-opacity=".2"/>
      <stop offset=".5" stop-color="#656a76" stop-opacity=".2"/>
      <stop offset=".7" stop-color="#656a76" stop-opacity=".2"/>
      <stop offset=".9" stop-color="#656a76" stop-opacity="0"/>
      <stop offset="1" stop-color="#656a76" stop-opacity="0"/>
    </linearGradient>
  </defs>
  <path d="m991.6,547c-50.3-50.3-117.1-78-188.2-78h-.5c-70.9.1-137.6,27.8-187.7,78s-78,117.1-78,188.2,27.7,137.9,78,188.2,116.8,77.8,187.7,78h0s.5,0,.5,0c71.1,0,137.9-27.7,188.2-78s78-117.1,78-188.2-27.7-137.9-78-188.2Zm-187.7-77s0,0,0,0c52.2.8,94.7,119.5,94.7,265.2s-42.4,264.3-94.7,265.2c0,0,0,0,0,0V470Zm11,.9c72.4,11.1,129.5,125.4,129.5,264.3s-57.1,253.2-129.5,264.3c21.4-7,41.2-33.5,56.6-76.3,18.1-50.2,28.1-117,28.1-188s-10-137.8-28.1-188c-15.4-42.8-35.2-69.3-56.6-76.3Zm89,452.4c26.8-50.2,41.5-117,41.5-188.1s-14.7-137.8-41.5-188.1c-22.4-42-51-68.3-82-75.8,97,13,173.1,126.4,173.1,263.9s-76.1,250.9-173.1,263.9c31-7.5,59.5-33.8,82-75.8Zm-288-.6c-50.1-50.1-77.7-116.7-77.7-187.5s27.6-137.4,77.7-187.5c50-50,116.4-77.5,187-77.7v530.3c-70.6-.1-137-27.7-187-77.7Zm375,0c-44.3,44.3-101.4,70.9-163,76.5,42.2-7.4,81.2-33.6,111.8-75.9,36.4-50.3,56.4-117.1,56.4-188.1s-20-137.9-56.4-188.2c-30.6-42.2-69.6-68.5-111.8-75.9,61.6,5.6,118.7,32.3,163,76.5,50.1,50.1,77.7,116.7,77.7,187.5s-27.6,137.4-77.7,187.5Zm-896.7,16.4c54.5,45.7,123.5,67.5,194.3,61.3,70.8-6.2,135-39.6,180.7-94.1l.3-.4h0c45.5-54.4,67.1-123.2,60.9-193.9-6.2-70.8-39.6-135-94.1-180.7-54.5-45.7-123.5-67.5-194.3-61.3-70.7,6.2-134.7,39.5-180.4,93.7h0s-.3.4-.3.4C15.7,618.5-6.1,687.5,0,758.4c6.2,70.8,39.6,135,94.1,180.7Zm373.9-33.1s0,0,0,0c-34.2,39.5-152.4-4.3-264-97.9-111.6-93.7-175.2-202.4-142.3-243,0,0,0,0,0,0l406.3,340.9Zm-7.8,7.9c-55,48.3-179.3,18.6-285.7-70.7-106.4-89.3-157.3-206.5-119.2-269.1-8.4,20.9-.9,53.1,22,92.4,26.8,46.2,71.6,96.7,126,142.4,54.4,45.7,112,80.9,162.1,99.4,42.7,15.7,75.7,17.5,94.8,5.6ZM56.5,691.3c21.3,52.8,63,107,117.4,152.7,54.4,45.7,115.1,77.3,170.8,89.1,46.6,9.9,85.1,4.8,110.8-14-72.3,66-208.1,51.4-313.4-37C36.7,793.6-1.3,662.4,51.1,579.8c-14.1,28.5-12.4,67.3,5.4,111.5Zm185.6-220.3c70.6-6.2,139.3,15.5,193.6,61,54.3,45.5,87.5,109.5,93.7,180,6.2,70.4-15.4,139-60.7,193.2L62.4,564.3c45.5-54,109.3-87.2,179.7-93.3Zm-194.9,113.2c-21.5,37.1-26.4,83.9-13.7,134.4,15.1,60.2,53.4,118.4,107.9,164.1,54.4,45.7,118.5,73.3,180.4,77.8,52,3.7,97.2-9.2,130-36.9-43.9,43.6-101.1,70.2-163.4,75.7-70.6,6.2-139.3-15.5-193.6-61C40.5,892.8,7.3,828.8,1.1,758.3c-5.5-62.4,10.9-123.3,46.1-174.1Zm689.7,789l.3-.4h0c45.5-54.4,67.1-123.2,60.9-193.9-6.2-70.8-39.6-135-94.1-180.7-54.5-45.7-123.5-67.5-194.3-61.3s-134.7,39.5-180.4,93.7h0s-.3.4-.3.4c-45.7,54.5-67.5,123.5-61.3,194.3,6.2,70.8,39.6,135,94.1,180.7,54.5,45.7,123.5,67.5,194.3,61.3,70.8-6.2,135-39.6,180.7-94.1Zm-1.1-.3s0,0,0,0c-34.2,39.5-152.4-4.3-264-97.9-111.6-93.7-175.2-202.4-142.3-243,0,0,0,0,0,0l406.3,340.9Zm-7.8,7.9c-55,48.3-179.3,18.6-285.7-70.7-106.4-89.3-157.3-206.5-119.2-269.1-8.4,20.9-.9,53.1,22,92.4,26.8,46.1,71.6,96.7,126,142.4,54.4,45.7,112,80.9,162.1,99.4,42.7,15.7,75.7,17.5,94.8,5.6Zm-403.7-222.6c21.3,52.8,63,107,117.4,152.7,54.4,45.7,115.1,77.3,170.8,89.1,46.6,9.9,85.1,4.8,110.8-14-72.3,66-208.1,51.4-313.4-37-105.4-88.4-143.3-219.6-90.9-302.2-14.1,28.5-12.4,67.3,5.4,111.5Zm185.6-220.3c70.6-6.2,139.3,15.5,193.6,61,54.3,45.5,87.5,109.5,93.7,180,6.2,70.4-15.4,139-60.7,193.2l-406.3-340.9c45.5-54,109.3-87.2,179.7-93.3Zm-241,287.3c-5.5-62.4,10.9-123.3,46.1-174.1-21.5,37.1-26.4,83.9-13.7,134.4,15.1,60.2,53.4,118.4,107.9,164.1,54.4,45.7,118.5,73.3,180.4,77.8,52,3.7,97.2-9.2,130-36.9-43.9,43.6-101.1,70.2-163.4,75.7-70.6,6.2-139.3-15.5-193.6-61-54.3-45.5-87.5-109.5-93.7-180ZM738.5,97.5h0s-.3-.4-.3-.4c-45.7-54.5-109.9-87.9-180.7-94.1s-139.8,15.6-194.3,61.3c-54.5,45.7-87.9,109.9-94.1,180.7-6.2,70.8,15.6,139.8,61.3,194.3l.3.4h0c45.7,54.2,109.7,87.5,180.4,93.7s139.8-15.6,194.3-61.3c54.5-45.7,87.9-109.9,94.1-180.7,6.2-70.7-15.5-139.5-60.9-193.9Zm-124.7-27.2c-55.7,11.8-116.3,43.4-170.8,89.1-54.4,45.7-96.1,99.9-117.4,152.7-17.8,44.2-19.5,83-5.4,111.5-52.4-82.6-14.5-213.8,90.9-302.2,105.4-88.4,241.1-103,313.4-37-25.7-18.9-64.2-23.9-110.8-14Zm115.6,19.2c-19.1-11.9-52.1-10.1-94.8,5.6-50.1,18.4-107.7,53.7-162.1,99.4-54.4,45.7-99.2,96.2-126,142.4-22.9,39.3-30.4,71.5-22,92.4-38.1-62.6,12.8-179.8,119.2-269.1,106.4-89.3,230.7-119,285.7-70.7Zm-398.5,348.7c-32.9-40.6,30.7-149.3,142.3-243,111.6-93.7,229.7-137.4,264-97.9,0,0,0,0,0,0l-406.3,340.9s0,0,0,0Zm-60.7-193.1c6.2-70.6,39.5-134.5,93.7-180C418.1,19.6,486.9-2.1,557.4,4.1c62.4,5.5,119.5,32.1,163.4,75.7-32.8-27.6-78-40.6-130-36.9-61.9,4.5-125.9,32.1-180.4,77.7-54.4,45.7-92.8,104-107.9,164.1-12.7,50.6-7.8,97.4,13.7,134.4-35.3-50.8-51.6-111.7-46.1-174.1Zm241,287.3c-70.4-6.2-134.2-39.3-179.7-93.3L737.8,98.2c45.3,54.2,66.9,122.8,60.7,193.2-6.2,70.6-39.5,134.5-93.7,180-54.3,45.5-123,67.2-193.6,61Z" style="fill: url(#b);"/>
</svg>