<?xml version="1.0" encoding="UTF-8"?>
<svg id="a" data-name="Layer 1" xmlns="http://www.w3.org/2000/svg" width="938.3" height="1353.8" xmlns:xlink="http://www.w3.org/1999/xlink" viewBox="0 0 938.3 1353.8">
  <defs>
    <linearGradient id="b" x1="469.1" y1="1353.8" x2="469.1" y2="0" gradientUnits="userSpaceOnUse">
      <stop offset="0" stop-color="#656a76" stop-opacity="0"/>
      <stop offset=".1" stop-color="#656a76" stop-opacity=".1"/>
      <stop offset=".3" stop-color="#656a76" stop-opacity=".2"/>
      <stop offset=".5" stop-color="#656a76" stop-opacity=".2"/>
      <stop offset=".7" stop-color="#656a76" stop-opacity=".2"/>
      <stop offset=".9" stop-color="#656a76" stop-opacity="0"/>
      <stop offset="1" stop-color="#656a76" stop-opacity="0"/>
    </linearGradient>
  </defs>
  <path d="m938,541.2l-234.1-135.1V135.8c0-.2,0-.3-.2-.4L469.4,0c0,0-.2,0-.3,0s-.2,0-.3,0l-234.3,135.3c-.2,0-.2.3-.2.4v270.3L.2,541.2c-.2,0-.2.3-.2.4v270.6c0,.2,0,.3.2.4l234.1,135.1v270.3c0,.2,0,.3.2.4l234.3,135.3c0,0,.2,0,.2,0s.2,0,.2,0l234.3-135.3c.2,0,.2-.3.2-.4v-270.3l234.1-135.1c.2,0,.2-.3.2-.4v-270.6c0-.2,0-.3-.2-.4Zm-351.5-66.8l116.4-67.2v268.8l-232.8-134.4,116.4-67.2Zm-118.4,67.2l-232.8,134.4v-268.8l67.1,38.7,165.7,95.7Zm-232.8,135.6l233.3-134.7v269.4l-233.3,134.7v-269.4Zm234.3,134.7v-269.4s233.3,134.7,233.3,134.7v269.4l-233.3-134.7Zm233.3-405.8l-233.3,134.7v-269.4l233.3-134.7v269.4Zm-.5-270.3l-232.8,134.4V1.4s232.8,134.4,232.8,134.4ZM468.6,1.4v268.8l-232.8-134.4,116.4-67.2L468.6,1.4Zm0,539.4l-233.3-134.7V136.6l233.3,134.7v269.4Zm-234.3-133.6v268.8L1.5,541.6l116.4-67.2,116.4-67.2Zm117.9,473.1l116.4-67.2v268.8l-232.8-134.4,116.4-67.2Zm117.4-67.2l232.8,134.4-232.8,134.4v-268.8Zm234.3-405.8l116.4,67.2,116.4,67.2-232.8,134.4v-268.8ZM1,542.5l233.3,134.7v269.4L1,811.9v-269.4Zm234.3,405.8l233.3,134.7v269.4l-233.3-134.7v-269.4Zm234.3,404.1v-269.4l233.3-134.7v269.4l-233.3,134.7Zm234.3-405.8v-269.4l233.3-134.7v269.4l-233.3,134.7Z" style="fill: url(#b);"/>
</svg>