<?xml version="1.0" encoding="UTF-8"?>
<svg id="a" data-name="Layer 1" xmlns="http://www.w3.org/2000/svg" width="841.8" height="1214.5" xmlns:xlink="http://www.w3.org/1999/xlink" viewBox="0 0 841.8 1214.5">
  <defs>
    <linearGradient id="b" x1="420.9" y1="1204.5" x2="420.9" y2="-10" gradientUnits="userSpaceOnUse">
      <stop offset="0" stop-color="#656a76" stop-opacity="0"/>
      <stop offset=".1" stop-color="#656a76" stop-opacity=".1"/>
      <stop offset=".3" stop-color="#656a76" stop-opacity=".2"/>
      <stop offset=".5" stop-color="#656a76" stop-opacity=".2"/>
      <stop offset=".7" stop-color="#656a76" stop-opacity=".2"/>
      <stop offset=".9" stop-color="#656a76" stop-opacity="0"/>
      <stop offset="1" stop-color="#656a76" stop-opacity="0"/>
    </linearGradient>
  </defs>
  <path d="m631.6,486.2l209.9-121.2s0,0,0,0h0c0,0,.1-.1.2-.2,0,0,0,0,0,0,0,0,0-.1,0-.2,0,0,0,0,0,0V121.9c0-.2,0-.3-.2-.4l-146.7-84.7L631.3,0c-.2,0-.3,0-.5,0l-63.5,36.7-146.7,84.7c-.2,0-.2.3-.2.4v242.4l-76.7,44.3-133.3,76.9c-.2,0-.2.3-.2.4v242.4l-41,23.7L.3,849.5c-.2,0-.2.3-.2.4v242.7s0,0,0,0c0,0,0,0,0,0,0,0,0,.2,0,.3,0,0,.1.1.2.2l210.2,121.4c0,0,.2,0,.2,0s.2,0,.2,0l209.9-121.2,209.9,121.2c0,0,.2,0,.2,0s.2,0,.2,0l210.2-121.4s0,0,0,0c0,0,.1-.1.2-.2,0,0,0,0,0,0,0,0,0,0,0,0,0,0,0-.1,0-.2,0,0,0,0,0,0v-242.7c0-.2,0-.3-.2-.4l-133.3-76.9-76.7-44.3v-242.1ZM1.5,1092.6l209.2-120.8,209.2,120.8-209.2,120.8L1.5,1092.6Zm418.9-.9l-208.7-120.5,208.7-120.5v241Zm-209.2-362.3l100.4,58,108.3,62.5-208.7,120.5v-241Zm210.7,363.2l209.2-120.8,209.2,120.8-209.2,120.8-209.2-120.8Zm-.5-727.2l208.7,120.5-104.3,60.2-104.3,60.2v-240.9Zm418.9-.9l-209.2,120.7-133-76.8-76.2-44,209.2-120.7,209.2,120.8Zm-418.4,242.7l104.3-60.2,104.3-60.2v241l-177.7-102.6-31-17.9Zm418.9-243.5l-104.3-60.2-104.3-60.2,104.3-60.2,104.3-60.2v241Zm-419.9,244.1l90.3,52.1,118.9,68.6-37.9,21.9-171.3,98.9-209.2-120.8,112.6-65,96.6-55.7Zm419.9,484l-208.7-120.5,208.7-120.5v241Zm-210.2-120.8l-209.2,120.7v-241.5l209.2-120.8v241.5ZM840.3,121.9l-104.3,60.2-104.3,60.2V1.4l80.9,46.7,127.8,73.8ZM630.6,1.4v241.5l-116.5,67.2-92.7,53.5V122.1l130.3-75.3L630.6,1.4Zm-210.2,364v241.5l-52.3,30.2-156.9,90.6v-241.5l115.8-66.9,93.4-53.9Zm-210.2,364.1v241.5L1,1091.7v-241.5l142.1-82,67.1-38.8Zm630.1,120.5l-208.7,120.5v-241l82.6,47.7,126,72.8Z" style="fill: url(#b);"/>
</svg>