<svg width="24" height="18" viewBox="0 0 24 18" fill="none" xmlns="http://www.w3.org/2000/svg"><g clip-path="url(#a)" fill-rule="evenodd" clip-rule="evenodd"><path d="M0 0h34.2v1.385H0V0Zm0 2.77h34.2v1.385H0V2.77Zm0 2.767h34.2v1.389H0V5.537Zm0 2.77h34.2v1.386H0V8.307Zm0 2.77h34.2v1.386H0v-1.385Zm0 2.768h34.2v1.385H0v-1.386Zm0 2.77h34.2V18H0v-1.385Z" fill="#BD3D44"/><path d="M0 1.385h34.2V2.77H0V1.385Zm0 2.77h34.2v1.382H0V4.155Zm0 2.767h34.2v1.385H0V6.922Zm0 2.77h34.2v1.386H0V9.693Zm0 2.77h34.2v1.386H0v-1.385Zm0 2.768h34.2v1.385H0V15.23Z" fill="#fff"/><path d="M0 0h13.68v9.693H0V0Z" fill="#192F5D"/><path d="m1.139.415.127.383h.4l-.323.236.123.386-.327-.239-.323.236.123-.383L.612.798h.408l.119-.383Zm2.282 0 .123.383h.404l-.327.236.123.386-.323-.239-.327.236.123-.383-.324-.236h.401l.127-.383Zm2.278 0 .126.383h.398l-.324.236.123.386-.327-.239-.323.236.123-.383-.327-.236h.404L5.7.415Zm2.281 0 .123.383h.405l-.327.236.126.386-.327-.239-.327.236.127-.383-.327-.236h.4L7.98.415Zm2.279 0 .126.383h.4l-.322.236.123.386-.327-.239-.324.236.123-.383-.323-.236h.4l.124-.383Zm2.281 0 .123.383h.405l-.327.236.126.386-.327-.239-.327.236.127-.383-.327-.236h.404l.123-.383Zm-10.258.97.123.383h.404l-.327.236.12.383-.317-.235-.327.235.116-.383-.316-.236h.4l.124-.383Zm2.278 0 .126.383h.401l-.327.236.127.383-.327-.235-.327.235.126-.383-.327-.236h.405l.123-.383Zm2.281 0 .123.383h.405l-.327.236.123.383-.324-.235-.327.235.123-.383-.323-.236h.4l.127-.383Zm2.279 0 .126.383h.4l-.326.236.126.383-.326-.235-.324.235.123-.383-.327-.236H9l.12-.383Zm2.281 0 .123.383h.405l-.328.236.124.383-.324-.235-.327.235.123-.383-.323-.236h.4l.127-.383ZM1.14 2.352l.127.39h.4l-.323.236.123.383-.327-.24-.323.24.123-.387-.327-.235h.408l.119-.387Zm2.282 0 .123.387h.404l-.327.235.123.383-.323-.239-.327.24.123-.387-.324-.236h.401l.127-.383Zm2.278 0 .126.387h.398l-.324.235.123.383-.327-.239-.323.24.123-.387-.327-.236h.404l.127-.383Zm2.281 0 .123.387h.405l-.327.235.126.383-.327-.239-.327.24.127-.387-.327-.236h.4l.127-.383Zm2.279 0 .126.387h.4l-.322.235.123.383-.327-.239-.324.24.123-.387-.323-.236h.4l.124-.383Zm2.281 0 .123.387h.405l-.327.235.126.383-.327-.239-.327.24.127-.387-.327-.236h.404l.123-.383Zm-10.258.97.123.383h.404l-.327.236.123.387-.323-.24-.327.236.123-.383-.324-.236h.401l.127-.383Zm2.278 0 .126.383h.401l-.327.236.127.387-.327-.24-.327.236.126-.383-.327-.236h.405l.123-.383Zm2.281 0 .123.383h.405l-.327.236.123.387-.324-.24-.327.236.123-.383-.323-.236h.4l.127-.383Zm2.279 0 .126.383h.4l-.323.236.123.387-.326-.24-.324.236.123-.383-.327-.236H9l.12-.383Zm2.281 0 .123.383h.405l-.328.236.124.387-.324-.24-.327.236.123-.383-.323-.236h.4l.127-.383Zm-10.262.97.127.384h.4l-.323.235.123.387-.327-.239-.323.236.123-.384-.327-.235h.408l.119-.383Zm2.282 0 .123.384h.404l-.327.235.123.384-.323-.236-.327.236.123-.384-.324-.235h.401l.127-.383Zm2.278 0 .126.384h.398l-.324.235.123.387-.327-.239-.323.236.123-.384-.327-.235h.404l.127-.383Zm2.281 0 .123.384h.405l-.327.235.126.387-.327-.239-.327.236.127-.384-.327-.235h.4l.127-.383Zm2.279 0 .126.384h.4l-.322.235.123.387-.327-.239-.324.236.123-.384-.323-.235h.4l.124-.383Zm2.281 0 .123.384h.405l-.327.235.126.387-.327-.239-.327.236.127-.384-.327-.235h.404l.123-.383Zm-10.258.97.123.384h.404l-.327.236.123.383-.323-.24-.327.24.123-.387-.324-.235h.401l.127-.38Zm2.278 0 .126.384h.401l-.327.236.127.383-.327-.24-.327.24.126-.387-.327-.235h.405l.123-.38Zm2.281 0 .123.384h.405l-.327.236.123.383-.324-.24-.327.24.123-.387-.323-.235h.4l.127-.38Zm2.279 0 .126.384h.4l-.323.236.123.383-.326-.24-.324.24.123-.387-.327-.235H9l.12-.38Zm2.281 0 .123.384h.405l-.328.236.124.383-.324-.24-.327.24.123-.387-.323-.235h.4l.127-.38ZM1.14 6.23l.127.386h.4l-.323.236.123.38-.327-.236-.323.236.123-.384-.327-.235h.408l.119-.383Zm2.282 0 .123.386h.404l-.327.236.127.38-.327-.236-.327.236.126-.384-.327-.235h.401l.127-.383Zm2.278 0 .126.386h.398l-.324.236.123.38-.327-.236-.323.236.123-.384-.327-.235h.404L5.7 6.23Zm2.281 0 .123.386h.405l-.327.236.126.38-.327-.236-.327.236.127-.384-.327-.235h.4l.127-.383Zm2.279 0 .126.386h.4l-.322.236.123.38-.327-.236-.324.236.123-.384-.323-.235h.4l.124-.383Zm2.281 0 .123.386h.405l-.327.236.126.38-.327-.236-.327.236.127-.384-.327-.235h.404l.123-.383ZM2.282 7.2l.123.383h.404l-.327.236.123.386-.323-.239-.327.236.123-.383-.324-.236h.401l.127-.383Zm2.278 0 .126.383h.401l-.327.236.127.386-.327-.239-.327.236.126-.383-.327-.236h.405L4.56 7.2Zm2.281 0 .123.383h.405l-.327.236.123.386-.324-.239-.327.236.123-.383-.323-.236h.4l.127-.383Zm2.279 0 .126.383h.4l-.323.236.123.386-.326-.239-.324.236.123-.383-.327-.236H9l.12-.383Zm2.281 0 .123.383h.405l-.328.236.124.386-.324-.239-.327.236.123-.383-.323-.236h.4l.127-.383ZM1.14 8.17l.127.384h.4l-.323.235.123.383-.327-.235-.323.235.123-.386-.327-.236h.408l.119-.38Zm2.282 0 .123.384h.404l-.327.235.127.383-.327-.235-.327.235.126-.386-.327-.236h.401l.127-.38Zm2.278 0 .126.384h.398l-.317.235.123.383-.327-.235-.323.235.123-.386-.327-.236h.404l.12-.38Zm2.281 0 .123.384h.405l-.327.235.126.383-.327-.235-.327.235.127-.386-.327-.236h.4l.127-.38Zm2.279 0 .126.384h.4l-.322.235.123.383-.327-.235-.324.235.123-.386-.323-.236h.4l.124-.38Zm2.281 0 .123.384h.405l-.327.235.126.383-.327-.235-.327.235.127-.386-.327-.236h.404l.123-.38Z" fill="#fff"/></g><defs><clipPath id="a"><path fill="#fff" d="M0 0h24v18H0z"/></clipPath></defs></svg>