<svg width="24" height="18" viewBox="0 0 24 18" fill="none" xmlns="http://www.w3.org/2000/svg"><g clip-path="url(#a)" fill-rule="evenodd" clip-rule="evenodd"><path d="M24.834 18H-.837V0h25.67v18Z" fill="#fff"/><path d="M12.223 9.015a3.955 3.955 0 1 1-7.91 0 3.955 3.955 0 0 1 7.91 0Z" fill="#fff"/><path d="M17.184 9.247c0 2.848-2.285 5.161-5.108 5.161-2.823 0-5.105-2.313-5.105-5.161 0-2.848 2.285-5.164 5.108-5.164 2.823 0 5.105 2.316 5.105 5.164Z" fill="#C70000"/><path d="m1.63 4.459 2.94-3.4.7.601-2.943 3.403-.696-.604Zm.964.833 2.939-3.4.7.598L3.29 5.897l-.696-.605Z" fill="#0C0C0E"/><path d="m1.63 4.459 2.94-3.4.7.601-2.943 3.403-.696-.604Z" fill="#0C0C0E"/><path d="m1.63 4.459 2.94-3.4.7.601-2.943 3.403-.696-.604Zm1.948 1.687 2.94-3.406.699.604-2.943 3.403-.696-.6Z" fill="#0C0C0E"/><path d="m1.63 4.459 2.94-3.4.7.601-2.943 3.403-.696-.604Z" fill="#0C0C0E"/><path d="m1.63 4.459 2.94-3.4.7.601-2.943 3.403-.696-.604Zm17.888-3.403 2.918 3.424-.703.597-2.918-3.424.703-.597Zm-1.958 1.67 2.918 3.424-.703.597-2.918-3.424.703-.597Z" fill="#0C0C0E"/><path d="m18.049 4.698 2.756-2.384.517.598-2.953 2.65-.327-.864h.007Z" fill="#fff"/><path d="m21.445 13.093-2.827 3.368-.692-.576 2.826-3.368.693.576ZM18.548 1.882l2.918 3.424-.7.598-2.914-3.428.696-.594Zm3.857 12.01-2.83 3.367-.697-.576 2.83-3.368.697.576Zm-1.938-1.611-2.826 3.368-.693-.577 2.827-3.367.692.576Z" fill="#0C0C0E"/><path d="M7.045 8.336c.162 1.301.397 2.75 2.397 2.897.75.046 2.208-.175 2.707-2.222.661-1.961 2.637-2.524 3.984-1.462.77.5.98 1.29 1.03 1.888-.06 1.898-1.157 3.55-2.56 4.289-1.617.96-3.853.98-5.811-.475-.882-.826-2.116-2.355-1.747-4.915Z" fill="#3D5897"/><path d="m18.696 13.044 2.763 2.377-.513.597-3.063-2.524.809-.45h.004Z" fill="#fff"/><path d="m3.3 12.573 2.919 3.42-.704.598-2.918-3.42.704-.598Z" fill="#0C0C0E"/><path d="m2.798 15.389 2.763-2.387.517.597-2.953 2.655-.327-.869v.004Z" fill="#fff"/><path d="m4.271 11.747 2.918 3.42-.703.598-2.918-3.42.703-.598Zm-1.958 1.67 2.918 3.42-.703.598-2.918-3.42.703-.599Z" fill="#0C0C0E"/></g><defs><clipPath id="a"><path fill="#fff" d="M0 0h24v18H0z"/></clipPath></defs></svg>