<svg width="41" height="11" viewBox="0 0 41 11" fill="none" xmlns="http://www.w3.org/2000/svg">
<path fill-rule="evenodd" clip-rule="evenodd" d="M4.125 2.0625V3H6.375V2.0625C6.375 0.923413 7.29841 0 8.4375 0C9.57659 0 10.5 0.923413 10.5 2.0625C10.5 3.20159 9.57659 4.125 8.4375 4.125H7.5V6.375H8.4375C9.57659 6.375 10.5 7.29841 10.5 8.4375C10.5 9.57659 9.57659 10.5 8.4375 10.5C7.29841 10.5 6.375 9.57659 6.375 8.4375V7.5H4.125V8.4375C4.125 9.57659 3.20159 10.5 2.0625 10.5C0.923413 10.5 0 9.57659 0 8.4375C0 7.29841 0.923413 6.375 2.0625 6.375H3V4.125H2.0625C0.923413 4.125 0 3.20159 0 2.0625C0 0.923413 0.923413 0 2.0625 0C3.20159 0 4.125 0.923413 4.125 2.0625ZM2.0625 1.125C1.54473 1.125 1.125 1.54473 1.125 2.0625C1.125 2.58027 1.54473 3 2.0625 3H3V2.0625C3 1.54473 2.58027 1.125 2.0625 1.125ZM7.5 7.5V8.4375C7.5 8.95527 7.91973 9.375 8.4375 9.375C8.95527 9.375 9.375 8.95527 9.375 8.4375C9.375 7.91973 8.95527 7.5 8.4375 7.5H7.5ZM6.375 6.375V4.125H4.125V6.375H6.375ZM2.0625 7.5H3V8.4375C3 8.95527 2.58027 9.375 2.0625 9.375C1.54473 9.375 1.125 8.95527 1.125 8.4375C1.125 7.91973 1.54473 7.5 2.0625 7.5ZM7.5 3H8.4375C8.95527 3 9.375 2.58027 9.375 2.0625C9.375 1.54473 8.95527 1.125 8.4375 1.125C7.91973 1.125 7.5 1.54473 7.5 2.0625V3Z" fill="white"/>
<path d="M15.0904 10.5L18.0846 0H16.9885L14 10.5H15.0904Z" fill="white"/>
<path d="M26.3873 5.30822C26.2041 3.86301 25.1243 2.77397 23.3376 2.77397C21.2631 2.77397 20 4.24658 20 6.60959C20 9.02055 21.2696 10.5 23.3442 10.5C25.1046 10.5 26.2041 9.46575 26.3873 8H25.0195C24.8363 8.80822 24.2277 9.24658 23.3376 9.24658C22.1662 9.24658 21.4398 8.25342 21.4398 6.60959C21.4398 5 22.1596 4.0274 23.3376 4.0274C24.28 4.0274 24.8559 4.58219 25.0195 5.30822H26.3873Z" fill="white"/>
<path d="M28.5993 1.0411V2.93836H27.4671V4.11644H28.5993V8.39726C28.5993 9.82877 29.221 10.4041 30.7851 10.4041C31.06 10.4041 31.3218 10.3699 31.5508 10.3288V9.15753C31.3545 9.17808 31.2302 9.19178 31.0142 9.19178C30.314 9.19178 30.0064 8.84247 30.0064 8.0411V4.11644H31.5508V2.93836H30.0064V1.0411H28.5993Z" fill="white"/>
<path d="M33.2066 10.3562H34.6136V5.91096C34.6136 4.86301 35.3662 4.14384 36.433 4.14384C36.6816 4.14384 37.1005 4.19178 37.2183 4.22603V2.84247C37.0678 2.80822 36.7994 2.78767 36.59 2.78767C35.6607 2.78767 34.8688 3.31507 34.666 4.04795H34.5613V2.91781H33.2066V10.3562Z" fill="white"/>
<path d="M38.6384 10.3562H40.0455V0H38.6384V10.3562Z" fill="white"/>
</svg>
