<svg width="453" height="594" viewBox="0 0 453 594" fill="none" xmlns="http://www.w3.org/2000/svg">
<path d="M368.938 347.666L449.059 292V516.295L368.938 571.961V347.666Z" fill="url(#paint0_linear_502_1820)" fill-opacity="0.6"/>
<path d="M368.938 347.666L288.818 292V520.334L368.938 576V347.666Z" fill="url(#paint1_linear_502_1820)" fill-opacity="0.6"/>
<path d="M236.855 222.92L333.712 167V392.318L236.855 448.238V222.92Z" fill="url(#paint2_linear_502_1820)" fill-opacity="0.6"/>
<path d="M236.856 222.92L140 167V396.376L236.856 452.296V222.92Z" fill="url(#paint3_linear_502_1820)" fill-opacity="0.6"/>
<path d="M313.801 177.51V177.511L313.716 177.559L243.635 218.015C240.967 219.556 240.106 220.024 239.261 220.25C238.013 220.585 236.698 220.585 235.45 220.25C234.605 220.024 233.745 219.556 231.076 218.015L160.911 177.511C158.242 175.97 157.405 175.459 156.787 174.84C155.873 173.926 155.215 172.788 154.881 171.539C154.655 170.694 154.63 169.715 154.63 166.632V26.772C154.63 24.712 154.632 23.32 154.705 22.239C154.777 21.185 154.907 20.651 155.059 20.286C155.342 19.6029 155.756 18.9822 156.279 18.4594C156.802 17.9366 157.423 17.5219 158.106 17.239C158.471 17.089 159.005 16.958 160.058 16.886C161.139 16.812 162.532 16.811 164.592 16.811H310.12C312.179 16.811 313.572 16.812 314.653 16.886C315.707 16.958 316.241 17.088 316.606 17.239C317.985 17.8108 319.081 18.9067 319.653 20.286C319.804 20.651 319.934 21.186 320.006 22.239C320.08 23.32 320.081 24.713 320.081 26.772V166.632C320.081 169.715 320.057 170.694 319.83 171.539C319.496 172.788 318.839 173.926 317.925 174.84C317.306 175.459 316.47 175.97 313.801 177.51Z" fill="black" stroke="black" stroke-width="6.064"/>
<g opacity="0.94">
<g opacity="0.94">
<path d="M210.189 131.132C208.584 131.132 207.52 129.701 207.52 127.69C207.52 125.65 208.594 124.2 210.208 124.2C211.813 124.2 212.886 125.65 212.886 127.671C212.886 129.691 211.804 131.132 210.189 131.132ZM210.218 130.213C211.204 130.213 211.823 129.179 211.823 127.709C211.823 126.201 211.185 125.128 210.179 125.128C209.183 125.128 208.594 126.124 208.594 127.622C208.594 129.169 209.212 130.213 210.218 130.213Z" fill="white"/>
<path d="M216.288 131.132C214.683 131.132 213.62 129.701 213.62 127.69C213.62 125.65 214.693 124.2 216.308 124.2C217.913 124.2 218.986 125.65 218.986 127.671C218.986 129.691 217.903 131.132 216.288 131.132ZM216.317 130.213C217.304 130.213 217.922 129.179 217.922 127.709C217.922 126.201 217.284 125.128 216.279 125.128C215.283 125.128 214.693 126.124 214.693 127.622C214.693 129.169 215.312 130.213 216.317 130.213Z" fill="white"/>
<path d="M223.161 127.555C223.848 127.806 224.438 128.347 224.418 129.256C224.399 130.378 223.442 131.19 222.078 131.19C220.628 131.19 219.652 130.271 219.613 128.966H220.725C220.696 129.691 221.228 130.194 222.049 130.194C222.784 130.194 223.297 129.807 223.297 129.218C223.297 128.599 222.804 128.183 221.875 128.183H221.44V127.139H221.837C222.659 127.139 223.161 126.752 223.161 126.124C223.161 125.563 222.697 125.195 222.02 125.195C221.247 125.195 220.822 125.66 220.793 126.452H219.69C219.719 125.089 220.609 124.19 222.059 124.19C223.364 124.19 224.273 124.934 224.273 125.969C224.273 126.81 223.664 127.371 223.161 127.555Z" fill="white"/>
<path d="M171.957 131.055V124.287H172.74V127.265H176.269V124.287H177.052V131.055H176.269V127.941H172.74V131.055H171.957Z" fill="#AC72F0"/>
<path d="M181.463 131.113C179.713 131.113 178.398 129.711 178.398 127.709C178.398 125.65 179.703 124.229 181.521 124.229C183.048 124.229 184.122 125.215 184.325 126.51H183.513C183.319 125.669 182.555 124.963 181.511 124.963C180.158 124.963 179.229 126.114 179.229 127.719C179.229 129.266 180.148 130.358 181.473 130.358C182.546 130.358 183.329 129.643 183.513 128.811H184.325C184.102 130.107 183.029 131.113 181.463 131.113Z" fill="#AC72F0"/>
<path d="M187.028 131.055V124.992H184.602V124.287H190.19V124.992H187.773V131.055H187.028Z" fill="#AC72F0"/>
<path d="M190.593 131.055L189.743 131.045L192.324 124.287H193.127L195.727 131.055H194.877L194.18 129.227H191.27L190.593 131.055ZM191.512 128.502H193.948L192.73 125.166L191.512 128.502Z" fill="#AC72F0"/>
<path d="M199.059 131.151C197.522 131.151 196.536 129.778 196.536 127.709C196.536 125.631 197.532 124.248 199.079 124.248C200.626 124.248 201.612 125.631 201.612 127.709C201.612 129.778 200.616 131.151 199.059 131.151ZM199.079 130.465C200.181 130.465 200.867 129.382 200.867 127.719C200.867 126.037 200.171 124.934 199.05 124.934C197.957 124.934 197.28 126.017 197.28 127.68C197.28 129.382 197.967 130.465 199.079 130.465Z" fill="#AC72F0"/>
<path d="M203.022 128.202V127.642H206.406V128.202H203.022Z" fill="#AC72F0"/>
</g>
</g>
<path d="M305.4 81.395L307.11 85.105L311.166 85.585L308.168 88.359L308.964 92.365L305.4 90.37L301.835 92.365L302.631 88.359L299.633 85.585L303.689 85.105L305.4 81.395Z" fill="white"/>
<path d="M305.4 98.0249L307.11 101.734L311.166 102.215L308.168 104.988L308.964 108.995L305.4 107L301.835 108.995L302.631 104.988L299.633 102.215L303.689 101.734L305.4 98.0249ZM305.4 114.654L307.11 118.363L311.166 118.844L308.168 121.617L308.964 125.624L305.4 123.629L301.835 125.624L302.631 121.617L299.633 118.844L303.689 118.363L305.4 114.654Z" fill="black"/>
<path opacity="0.95" d="M177.764 93.4268C180.164 93.4268 181.931 92.0568 182.565 90.3338L181.445 90.0398C180.93 91.3358 179.59 92.3218 177.749 92.3218C175.246 92.3218 173.596 90.3638 173.596 88.0368C173.596 85.7688 175.246 83.8398 177.749 83.8398C179.59 83.8398 180.945 84.8408 181.445 86.1228L182.594 85.8428C181.975 84.1198 180.179 82.7358 177.749 82.7358C174.716 82.7358 172.418 85.0478 172.418 88.0518C172.418 91.0998 174.716 93.4268 177.764 93.4268ZM192.024 84.0018V82.9268H184.764V93.2348H192.01V92.1598H185.928V88.5078H191.273V87.4778H185.928V84.0018H192.024ZM201.258 93.2348H202.613L199.845 89.1268C201.523 88.8168 202.422 87.4478 202.422 86.0638C202.422 84.5618 201.273 82.9268 199.152 82.9268H194.381V93.2348H195.545V89.1848H198.563L201.258 93.2348ZM195.545 83.9868H199.123C200.463 83.9868 201.288 84.9888 201.288 86.0638C201.288 87.1538 200.478 88.1398 199.108 88.1398H195.545V83.9868ZM212.682 82.9268H203.891V84.0018H207.705V93.2348H208.883V84.0018H212.682V82.9268ZM214.449 93.2348H215.627V82.9268H214.449V93.2348ZM225.427 84.0018V82.9268H218.285V93.2348H219.463V88.6548H224.676V87.6098H219.463V84.0018H225.427ZM227.254 93.2348H228.432V82.9268H227.254V93.2348ZM238.35 84.0018V82.9268H231.09V93.2348H238.335V92.1598H232.253V88.5078H237.599V87.4778H232.253V84.0018H238.35ZM244.624 82.9268H240.707V93.2348H244.624C247.819 93.2348 249.69 91.0408 249.69 88.0808C249.69 85.1208 247.819 82.9268 244.624 82.9268ZM244.609 92.1598H241.87V83.9868H244.609C247.127 83.9868 248.512 85.7838 248.512 88.0518C248.512 90.3928 247.127 92.1598 244.609 92.1598ZM180.282 113.235H182.388L178.427 102.927H175.805L171.859 113.235H173.95L174.804 110.997H179.443L180.282 113.235ZM175.467 109.215L177.116 104.856L178.765 109.215H175.467ZM187.65 113.442C190.124 113.442 191.773 112.013 191.773 110.246C191.773 108.567 190.58 107.905 189.004 107.419L186.442 106.594C185.765 106.388 185.455 106.078 185.455 105.622C185.455 105.018 186.103 104.503 187.119 104.503C188.283 104.503 189.24 105.077 189.667 105.917L191.537 105.372C190.978 103.943 189.328 102.721 187.105 102.721C184.955 102.721 183.394 104.076 183.409 105.681C183.394 107.006 184.38 107.875 185.735 108.302L188.371 109.127C189.358 109.451 189.726 109.819 189.726 110.364C189.726 111.041 188.975 111.66 187.767 111.66C186.28 111.66 185.235 110.806 184.822 109.731L182.893 110.32C183.467 111.925 185.131 113.442 187.65 113.442ZM197.741 113.442C200.215 113.442 201.864 112.013 201.864 110.246C201.864 108.567 200.671 107.905 199.096 107.419L196.533 106.594C195.856 106.388 195.547 106.078 195.547 105.622C195.547 105.018 196.195 104.503 197.211 104.503C198.374 104.503 199.331 105.077 199.758 105.917L201.629 105.372C201.069 103.943 199.42 102.721 197.196 102.721C195.046 102.721 193.485 104.076 193.5 105.681C193.485 107.006 194.472 107.875 195.827 108.302L198.463 109.127C199.449 109.451 199.817 109.819 199.817 110.364C199.817 111.041 199.066 111.66 197.859 111.66C196.371 111.66 195.326 110.806 194.914 109.731L192.984 110.32C193.559 111.925 195.223 113.442 197.741 113.442ZM208.598 113.442C211.706 113.442 214.003 111.115 214.003 108.067C214.003 105.033 211.706 102.721 208.598 102.721C205.477 102.721 203.179 105.033 203.179 108.067C203.179 111.115 205.477 113.442 208.598 113.442ZM208.598 111.571C206.552 111.571 205.226 110.04 205.226 108.067C205.226 106.137 206.552 104.591 208.598 104.591C210.631 104.591 211.971 106.137 211.971 108.067C211.971 110.04 210.631 111.571 208.598 111.571ZM220.919 113.442C223.643 113.442 225.381 111.777 225.852 110.128L223.893 109.627C223.555 110.644 222.45 111.542 220.889 111.542C218.857 111.542 217.561 109.907 217.561 108.052C217.561 106.196 218.857 104.621 220.889 104.621C222.45 104.621 223.555 105.548 223.893 106.55L225.867 106.064C225.396 104.429 223.658 102.721 220.875 102.721C217.812 102.721 215.5 105.033 215.5 108.067C215.5 111.115 217.812 113.442 220.919 113.442ZM227.715 113.235H229.762V102.927H227.715V113.235ZM239.637 113.235H241.742L237.781 102.927H235.16L231.213 113.235H233.304L234.158 110.997H238.797L239.637 113.235ZM234.821 109.215L236.47 104.856L238.12 109.215H234.821ZM250.132 102.927H241.193V104.753H244.654V113.235H246.671V104.753H250.132V102.927ZM259.346 104.753V102.927H251.748V113.235H259.332V111.409H253.721V108.876H258.595V107.109H253.721V104.753H259.346Z" fill="white"/>
<path fill-rule="evenodd" clip-rule="evenodd" d="M323.285 60V25.994C323.285 21.957 323.285 19.939 322.625 18.347C322.189 17.296 321.551 16.341 320.747 15.5366C319.943 14.7322 318.988 14.0942 317.937 13.659C316.345 13 314.327 13 310.291 13H164.763C160.727 13 158.709 13 157.117 13.66C156.066 14.0951 155.111 14.733 154.306 15.5372C153.502 16.3414 152.864 17.2962 152.429 18.347C151.77 19.939 151.77 21.957 151.77 25.994V60H323.285Z" fill="#7B42BC"/>
<mask id="mask0_502_1820" style="mask-type:luminance" maskUnits="userSpaceOnUse" x="171" y="22" width="112" height="32">
<path d="M171.801 22.2598H282.719V53.4448H171.801V22.2598Z" fill="white"/>
</mask>
<g mask="url(#mask0_502_1820)">
<path d="M206.692 33.0548H202.706V30.6738H213.379V33.0548H209.393V44.9618H206.692V33.0548Z" fill="white"/>
<path d="M216.2 43.0225C217.282 43.0175 218.356 42.8517 219.389 42.5305L219.797 44.5005C218.563 44.9459 217.26 45.1713 215.948 45.1665C212.67 45.1665 211.533 43.6435 211.533 41.1345V38.3695C211.533 36.1615 212.518 34.2975 215.863 34.2975C219.208 34.2975 219.96 36.2465 219.96 38.4975V40.7295H214.176V41.2645C214.176 42.5295 214.612 43.0225 216.2 43.0225ZM214.176 38.6285H217.5V38.1115C217.5 37.1265 217.199 36.4415 215.913 36.4415C214.626 36.4415 214.176 37.1265 214.176 38.1115V38.6285ZM226.962 36.6975C226.001 37.1315 225.075 37.6415 224.194 38.2215V44.9615H221.579V34.5115H223.787L223.96 35.6695C224.81 35.093 225.732 34.632 226.703 34.2985L226.962 36.6975ZM233.348 36.6975C232.389 37.1327 231.464 37.6422 230.584 38.2215V44.9615H227.968V34.5115H230.176L230.346 35.6695C231.197 35.093 232.12 34.632 233.092 34.2985L233.348 36.6975ZM242.094 44.9615H239.95L239.758 44.2525C238.833 44.8525 237.753 45.1725 236.65 45.1735C234.74 45.1735 233.925 43.8665 233.925 42.0665C233.925 39.9395 234.85 39.1285 236.969 39.1285H239.478V38.0265C239.478 36.8715 239.159 36.4635 237.487 36.4635C236.513 36.4735 235.544 36.5805 234.592 36.7825L234.269 34.7905C235.435 34.4679 236.639 34.3024 237.848 34.2985C241.13 34.2985 242.101 35.4535 242.101 38.0685L242.094 44.9615ZM239.478 41.0065H237.565C236.707 41.0065 236.47 41.2445 236.47 42.0375C236.47 42.7465 236.707 43.1005 237.533 43.1005C238.224 43.0894 238.901 42.9055 239.503 42.5655L239.478 41.0065ZM250.134 32.1335C249.641 32.025 249.137 31.9667 248.632 31.9595C247.604 31.9595 247.455 32.4095 247.455 33.2035V34.5105H250.113L249.968 36.5905H247.462V44.9605H244.847V36.5905H243.174V34.5105H244.847V33.0545C244.847 30.8895 245.853 29.8155 248.167 29.8155C248.928 29.8126 249.685 29.9138 250.418 30.1165L250.134 32.1335ZM255.233 45.1665C251.654 45.1665 250.676 43.1895 250.676 41.0635V38.4135C250.676 36.2865 251.64 34.2985 255.219 34.2985C258.798 34.2985 259.766 36.2685 259.766 38.4125V41.0625C259.78 43.1895 258.827 45.1665 255.233 45.1665ZM255.233 36.5265C253.841 36.5265 253.306 37.1475 253.306 38.3275V41.1345C253.306 42.3145 253.841 42.9375 255.233 42.9375C256.626 42.9375 257.165 42.3145 257.165 41.1345V38.3275C257.165 37.1655 256.63 36.5265 255.233 36.5265ZM266.51 36.6975C265.551 37.1327 264.626 37.6422 263.746 38.2215V44.9615H261.13V34.5115H263.338L263.508 35.6695C264.364 35.0925 265.292 34.6315 266.269 34.2985L266.51 36.6975ZM273.71 44.9615V37.6615C273.71 37.1045 273.473 36.8245 272.874 36.8245C272.275 36.8245 271.102 37.2115 270.152 37.7075V44.9615H267.534V34.5115H269.529L269.787 35.3895C271.089 34.7398 272.513 34.3683 273.966 34.2985C274.975 34.2985 275.596 34.7055 275.939 35.4115C277.245 34.7451 278.678 34.3656 280.142 34.2985C281.879 34.2985 282.499 35.5175 282.499 37.3845V44.9615H279.883V37.6615C279.883 37.1045 279.646 36.8245 279.047 36.8245C278.088 36.9245 277.161 37.2255 276.326 37.7075V44.9615H273.71Z" fill="white"/>
<path fill-rule="evenodd" clip-rule="evenodd" d="M179.313 28.1257L186.082 32.0347V39.8517L179.313 35.9427V28.1257ZM186.823 32.0347V39.8517L193.595 35.9427V28.1257L186.823 32.0347ZM171.801 23.7637V31.5807L178.569 35.4897V27.6717L171.801 23.7637ZM179.313 44.6177L186.082 48.5267V40.7087L179.313 36.8007V44.6177Z" fill="white"/>
</g>
<g opacity="0.95">
<path d="M234.989 181.606L225.08 187.321V201.052L228.802 203.201V189.47L234.989 185.9V181.606Z" fill="white"/>
<path d="M238.944 181.606V192.54H234.988V188.46L231.264 190.609V204.619L234.988 206.772V195.869H238.944V199.922L242.666 197.773V183.755L238.944 181.606Z" fill="white"/>
<path d="M238.944 206.776L248.853 201.061V187.33L245.129 185.181V198.912L238.944 202.482V206.776Z" fill="white"/>
</g>
<path d="M83 304.987L163.5 256V525.113L83 574.1V304.987Z" fill="url(#paint4_linear_502_1820)" fill-opacity="0.6"/>
<path d="M83.5 304.987L3 256V543.013L83.5 592V304.987Z" fill="url(#paint5_linear_502_1820)" fill-opacity="0.6"/>
<mask id="mask1_502_1820" style="mask-type:luminance" maskUnits="userSpaceOnUse" x="3" y="92" width="162" height="231">
<path d="M3 92.9971H164.563V323H3V92.9971Z" fill="white"/>
</mask>
<g mask="url(#mask1_502_1820)">
<g filter="url(#filter0_d_502_1820)">
<path d="M161.381 120.894V252.013C161.381 254.903 161.358 255.821 161.146 256.613C160.832 257.783 160.216 258.851 159.359 259.708C158.779 260.288 157.995 260.767 155.492 262.211L89.7118 300.184C87.2108 301.629 86.4038 302.068 85.6118 302.28C84.4415 302.594 83.2091 302.594 82.0388 302.28C81.2468 302.068 80.4398 301.629 77.9388 300.184L12.1588 262.211C9.65577 260.767 8.87177 260.288 8.29177 259.708C7.4347 258.851 6.81837 257.783 6.50477 256.613C6.29277 255.821 6.26977 254.903 6.26977 252.013V120.894C6.26977 118.964 6.27177 117.658 6.33977 116.644C6.40777 115.657 6.52977 115.156 6.67177 114.814C6.93701 114.173 7.32585 113.591 7.81606 113.101C8.30627 112.611 8.88825 112.222 9.52877 111.957C9.87077 111.815 10.3708 111.693 11.3588 111.626C12.3728 111.557 13.6788 111.555 15.6088 111.555H152.042C153.972 111.555 155.278 111.557 156.292 111.626C157.279 111.693 157.78 111.815 158.122 111.957C158.762 112.222 159.344 112.611 159.835 113.101C160.325 113.591 160.714 114.173 160.979 114.814C161.121 115.156 161.243 115.657 161.31 116.644C161.379 117.658 161.381 118.964 161.381 120.894Z" fill="black"/>
<path d="M161.146 256.613C161.358 255.821 161.381 254.903 161.381 252.013V120.894C161.381 118.964 161.379 117.658 161.31 116.644C161.243 115.657 161.121 115.156 160.979 114.814C160.714 114.173 160.325 113.591 159.835 113.101C159.344 112.611 158.762 112.222 158.122 111.957C157.78 111.815 157.279 111.693 156.292 111.626C155.278 111.557 153.972 111.555 152.042 111.555H15.6088C13.6788 111.555 12.3728 111.557 11.3588 111.626C10.3708 111.693 9.87077 111.815 9.52877 111.957C8.88825 112.222 8.30627 112.611 7.81606 113.101C7.32585 113.591 6.93701 114.173 6.67177 114.814C6.52977 115.156 6.40777 115.657 6.33977 116.644C6.27177 117.658 6.26977 118.964 6.26977 120.894V252.013C6.26977 254.903 6.29277 255.821 6.50477 256.613M161.146 256.613L163.891 257.349M161.146 256.613C160.832 257.783 160.216 258.851 159.359 259.708C158.779 260.288 157.995 260.767 155.492 262.211L89.7118 300.184C87.2108 301.629 86.4038 302.068 85.6118 302.28C84.4415 302.594 83.2091 302.594 82.0388 302.28C81.2468 302.068 80.4398 301.629 77.9388 300.184L12.1588 262.211C9.65577 260.767 8.87177 260.288 8.29177 259.708C7.4347 258.851 6.81837 257.783 6.50477 256.613M6.50477 256.613L3.75977 257.349" stroke="black" stroke-width="5.685"/>
<g opacity="0.94">
<path d="M18.4648 218.747H19.2548V215.609H22.8108V218.747H23.6008V211.925H22.8108V214.927H19.2538V211.925H18.4648V218.747ZM28.0458 218.806C29.6248 218.806 30.7058 217.792 30.9308 216.486H30.1118C29.9268 217.324 29.1378 218.045 28.0558 218.045C26.7208 218.045 25.7958 216.944 25.7958 215.385C25.7958 213.767 26.7308 212.608 28.0948 212.608C29.1468 212.608 29.9168 213.319 30.1118 214.167H30.9308C30.7258 212.861 29.6438 211.867 28.1048 211.867C26.2728 211.867 24.9568 213.3 24.9568 215.375C24.9568 217.392 26.2818 218.806 28.0468 218.806H28.0458ZM34.0968 218.747H34.9838L37.4788 211.925H36.6988L34.5548 217.87L32.3718 211.925H31.6018L34.0968 218.747ZM38.2868 218.747L38.9688 216.905H41.9018L42.6038 218.747H43.4608L40.8398 211.925H40.0298L37.4288 218.737L38.2868 218.747ZM39.2118 216.174L40.4398 212.812L41.6678 216.174H39.2118ZM46.8188 218.845C48.3888 218.845 49.3918 217.461 49.3918 215.375C49.3918 213.28 48.3978 211.886 46.8388 211.886C45.2788 211.886 44.2758 213.28 44.2758 215.375C44.2758 217.461 45.2698 218.845 46.8188 218.845ZM46.8388 218.153C45.7188 218.153 45.0258 217.061 45.0258 215.346C45.0258 213.67 45.7088 212.578 46.8098 212.578C47.9398 212.578 48.6418 213.689 48.6418 215.385C48.6418 217.061 47.9498 218.153 46.8388 218.153ZM50.8138 215.872H54.2238V215.307H50.8138V215.872Z" fill="#FFE959"/>
<path d="M58.192 218.825C59.82 218.825 60.912 217.373 60.912 215.336C60.912 213.3 59.83 211.838 58.212 211.838C56.584 211.838 55.502 213.3 55.502 215.356C55.502 217.383 56.575 218.825 58.192 218.825ZM58.222 217.899C57.208 217.899 56.584 216.847 56.584 215.288C56.584 213.777 57.179 212.773 58.182 212.773C59.196 212.773 59.839 213.855 59.839 215.375C59.839 216.857 59.216 217.899 58.222 217.899ZM64.34 218.825C65.968 218.825 67.059 217.373 67.059 215.336C67.059 213.3 65.977 211.838 64.359 211.838C62.732 211.838 61.65 213.3 61.65 215.356C61.65 217.383 62.722 218.825 64.34 218.825ZM64.37 217.899C63.356 217.899 62.732 216.847 62.732 215.288C62.732 213.777 63.327 212.773 64.33 212.773C65.344 212.773 65.987 213.855 65.987 215.375C65.987 216.857 65.364 217.899 64.37 217.899ZM67.76 218.747H72.427V217.753H69.25L70.264 216.857C71.394 215.853 72.379 215.151 72.379 213.943C72.379 212.734 71.414 211.838 70.108 211.838C68.714 211.838 67.74 212.734 67.681 214.069H68.802C68.89 213.319 69.396 212.832 70.098 212.832C70.819 212.832 71.297 213.29 71.297 213.991C71.297 214.791 70.547 215.307 69.309 216.369L67.759 217.704L67.76 218.747Z" fill="white"/>
</g>
<path d="M147.553 172.042L149.157 175.519L152.959 175.97L150.148 178.57L150.894 182.326L147.553 180.455L144.211 182.326L144.958 178.57L142.146 175.97L145.949 175.519L147.553 172.042Z" fill="white"/>
<path d="M147.554 187.632L149.158 191.109L152.96 191.56L150.149 194.16L150.895 197.916L147.554 196.045L144.212 197.916L144.959 194.16L142.147 191.56L145.95 191.109L147.554 187.632ZM147.554 203.223L149.158 206.7L152.96 207.151L150.149 209.751L150.895 213.506L147.554 211.636L144.212 213.506L144.959 209.751L142.147 207.151L145.95 206.7L147.554 203.223Z" fill="black"/>
<path opacity="0.95" d="M23.2099 183.321C25.4599 183.321 27.1159 182.037 27.7099 180.422L26.6599 180.146C26.1779 181.361 24.9209 182.286 23.1959 182.286C20.8489 182.286 19.3019 180.449 19.3019 178.268C19.3019 176.142 20.8489 174.334 23.1959 174.334C24.9209 174.334 26.1909 175.272 26.6609 176.473L27.7379 176.211C27.1579 174.596 25.4739 173.298 23.1959 173.298C20.3519 173.298 18.1979 175.466 18.1979 178.282C18.1979 181.14 20.3529 183.321 23.2099 183.321ZM36.5788 174.485V173.478H29.7729V183.142H36.5648V182.134H30.8629V178.71H35.8749V177.744H30.8629V174.485H36.5788ZM45.2359 183.142H46.5059L43.9099 179.29C45.4839 179 46.3259 177.716 46.3259 176.418C46.3259 175.01 45.2489 173.478 43.2609 173.478H38.7878V183.142H39.8778V179.345H42.7089L45.2359 183.142ZM39.8789 174.472H43.2339C44.4899 174.472 45.2639 175.41 45.2639 176.418C45.2639 177.44 44.5039 178.365 43.2199 178.365H39.8789V174.472ZM55.9459 173.478H47.7038V174.485H51.2789V183.142H52.3839V174.485H55.9459V173.478ZM57.6019 183.142H58.7059V173.478H57.6019V183.142ZM67.8928 174.485V173.478H61.1978V183.142H62.3019V178.848H67.1889V177.868H62.3019V174.485H67.8928ZM69.6069 183.142H70.7108V173.478H69.6069V183.142ZM80.0089 174.485V173.478H73.2029V183.142H79.9949V182.134H74.2929V178.71H79.3049V177.744H74.2929V174.485H80.0089ZM85.8909 173.478H82.2178V183.142H85.8909C88.8869 183.142 90.6398 181.085 90.6398 178.31C90.6398 175.535 88.8868 173.478 85.8898 173.478H85.8909ZM85.8768 182.134H83.3089V174.472H85.8768C88.2368 174.472 89.5349 176.156 89.5349 178.282C89.5349 180.477 88.2378 182.134 85.8768 182.134ZM25.5699 201.142H27.5439L23.8309 191.478H21.3729L17.6729 201.142H19.6329L20.4349 199.043H24.7829L25.5699 201.142ZM21.0559 197.373L22.6019 193.286L24.1479 197.373H21.0559ZM32.4769 201.335C34.7969 201.335 36.3428 199.996 36.3428 198.339C36.3428 196.765 35.2249 196.144 33.7469 195.688L31.3449 194.915C30.7099 194.722 30.4198 194.432 30.4198 194.004C30.4198 193.438 31.0279 192.955 31.9799 192.955C33.0709 192.955 33.9679 193.493 34.3689 194.28L36.1219 193.769C35.5969 192.43 34.0519 191.284 31.9669 191.284C29.9509 191.284 28.4869 192.554 28.5009 194.059C28.4869 195.302 29.4128 196.116 30.6828 196.517L33.1529 197.29C34.0789 197.594 34.4239 197.939 34.4239 198.449C34.4239 199.085 33.7199 199.664 32.5879 199.664C31.1929 199.664 30.2129 198.864 29.8269 197.856L28.0179 198.408C28.5569 199.913 30.1159 201.335 32.4769 201.335ZM41.9379 201.335C44.2579 201.335 45.8039 199.996 45.8039 198.339C45.8039 196.765 44.6849 196.144 43.2079 195.688L40.8059 194.915C40.1709 194.722 39.8809 194.432 39.8809 194.004C39.8809 193.438 40.4879 192.955 41.4409 192.955C42.5309 192.955 43.4288 193.493 43.8288 194.28L45.5829 193.769C45.0579 192.43 43.5118 191.284 41.4268 191.284C39.4118 191.284 37.9479 192.554 37.9619 194.059C37.9479 195.302 38.8729 196.116 40.1429 196.517L42.6138 197.29C43.5388 197.594 43.8839 197.939 43.8839 198.449C43.8839 199.085 43.1809 199.664 42.0479 199.664C40.6539 199.664 39.6738 198.864 39.2878 197.856L37.4779 198.408C38.0179 199.913 39.5779 201.335 41.9379 201.335ZM52.1169 201.335C55.0299 201.335 57.1838 199.154 57.1838 196.296C57.1838 193.452 55.0299 191.284 52.1169 191.284C49.1899 191.284 47.0368 193.452 47.0368 196.296C47.0368 199.154 49.1899 201.335 52.1169 201.335ZM52.1169 199.582C50.1969 199.582 48.9549 198.146 48.9549 196.296C48.9549 194.487 50.1979 193.038 52.1169 193.038C54.0219 193.038 55.2779 194.487 55.2779 196.296C55.2779 198.146 54.0219 199.582 52.1169 199.582ZM63.6669 201.335C66.2209 201.335 67.8499 199.775 68.2919 198.229L66.4559 197.759C66.1379 198.712 65.1029 199.554 63.6399 199.554C61.7339 199.554 60.5199 198.022 60.5199 196.282C60.5199 194.542 61.7339 193.065 63.6399 193.065C65.1029 193.065 66.1379 193.935 66.4559 194.874L68.3059 194.418C67.8639 192.886 66.2359 191.284 63.6259 191.284C60.7539 191.284 58.5858 193.452 58.5858 196.296C58.5858 199.154 60.7539 201.335 63.6669 201.335ZM70.0389 201.142H71.9579V191.478H70.0379L70.0389 201.142ZM81.2148 201.142H83.1889L79.4758 191.478H77.0178L73.3179 201.142H75.2779L76.0789 199.043H80.4289L81.2148 201.142ZM76.7008 197.373L78.2469 193.286L79.7929 197.373H76.7008ZM91.0549 191.478H82.6749V193.19H85.9189V201.142H87.8098V193.19H91.0549V191.478ZM99.6929 193.19V191.478H92.5688V201.142H99.6788V199.43H94.4189V197.055H98.9888V195.398H94.4189V193.19H99.6929Z" fill="white"/>
<path fill-rule="evenodd" clip-rule="evenodd" d="M3 152H163.795V120.04C163.795 116.256 163.795 114.364 163.177 112.872C162.769 111.887 162.171 110.991 161.417 110.237C160.663 109.483 159.767 108.885 158.782 108.477C157.29 107.858 155.398 107.858 151.614 107.858H15.181C11.398 107.858 9.506 107.858 8.013 108.477C7.0277 108.885 6.13244 109.483 5.37834 110.237C4.62424 110.991 4.02607 111.887 3.618 112.872C3 114.364 3 116.256 3 120.04V152Z" fill="#FFE959"/>
<mask id="mask2_502_1820" style="mask-type:luminance" maskUnits="userSpaceOnUse" x="17" y="116" width="74" height="32">
<path d="M17.6172 116.604H90.5582V147.464H17.6172V116.604Z" fill="white"/>
</mask>
<g mask="url(#mask2_502_1820)">
<path d="M57.9072 124.911H60.6842L56.4762 139.036H52.5062L48.2982 124.911H51.0762L54.4912 136.683L57.9072 124.911ZM68.3922 139.047H66.2882L66.0952 138.346C65.1797 138.94 64.1117 139.256 63.0202 139.257C61.1332 139.257 60.3272 137.963 60.3272 136.182C60.3272 134.078 61.2382 133.275 63.3392 133.275H65.8222V132.195C65.8222 131.048 65.5022 130.645 63.8472 130.645C62.8852 130.654 61.9272 130.761 60.9862 130.964L60.6662 128.989C61.8205 128.671 63.0119 128.507 64.2092 128.502C67.4522 128.502 68.4172 129.649 68.4172 132.237L68.3922 139.047ZM65.8082 135.144H63.8972C63.0472 135.144 62.8172 135.379 62.8172 136.164C62.8172 136.883 63.0472 137.216 63.8692 137.216C64.5541 137.205 65.2253 137.023 65.8222 136.687L65.8082 135.144ZM72.4672 128.709V135.919C72.4672 136.47 72.6992 136.747 73.2952 136.747C73.8912 136.747 75.0482 136.365 75.9882 135.877V128.709H78.5762V139.047H76.6022L76.3492 138.178C75.0606 138.824 73.651 139.193 72.2112 139.261C70.4932 139.261 69.8792 138.052 69.8792 136.207V128.72L72.4672 128.709ZM79.9542 139.047V124.497L82.5422 124.146V139.047H79.9542ZM90.2602 138.847C89.5306 139.102 88.7649 139.238 87.9922 139.25C86.1052 139.25 85.1482 138.359 85.1482 136.515V130.764H83.6002V128.709H85.1472V126.142L87.7352 125.791V128.719H90.3852L90.2172 130.774H87.7352V136.185C87.7188 136.31 87.7318 136.438 87.7733 136.557C87.8148 136.676 87.8836 136.785 87.9742 136.873C88.0644 136.961 88.1739 137.028 88.2942 137.067C88.4145 137.106 88.5422 137.116 88.6672 137.097C89.1062 137.084 89.5414 137.012 89.9612 136.883L90.2592 138.847H90.2602ZM17.6172 121.092L28.8002 142.855L40.0602 121.092H17.6172ZM27.0472 129.733H25.2942V127.952H27.0472V129.733ZM27.0472 127.061H25.2942V125.279H27.0472V127.061ZM29.7192 132.405H27.9492V130.631H29.7292L29.7192 132.405ZM29.7192 129.733H27.9492V127.952H29.7292L29.7192 129.733ZM29.7192 127.061H27.9492V125.279H29.7292L29.7192 127.061ZM32.3772 129.733H30.6072V127.952H32.3872L32.3772 129.733ZM30.5962 127.061V125.279H32.3772V127.061H30.5962Z" fill="black"/>
</g>
<g opacity="0.95">
<path d="M81.5429 265.988L72.2529 271.346V284.219L75.7429 286.233V273.361L81.5429 270.013V265.988Z" fill="white"/>
<path d="M85.2518 265.988V276.239H81.5438V272.414L78.0518 274.429V287.562L81.5438 289.581V279.359H85.2518V283.159L88.7418 281.144V268.003L85.2518 265.988Z" fill="white"/>
<path d="M85.252 289.585L94.542 284.227V271.354L91.05 269.339V282.212L85.252 285.56V289.585Z" fill="white"/>
</g>
</g>
</g>
<mask id="mask3_502_1820" style="mask-type:luminance" maskUnits="userSpaceOnUse" x="288" y="150" width="162" height="200">
<path d="M288.137 150.86H449.7V349.141H288.137V150.86Z" fill="white"/>
</mask>
<g mask="url(#mask3_502_1820)">
<path d="M446.516 162.896V294.015C446.516 296.905 446.493 297.823 446.281 298.615C445.968 299.785 445.352 300.853 444.494 301.71C443.915 302.29 443.131 302.769 440.628 304.213L374.848 342.186C372.346 343.631 371.539 344.07 370.748 344.282C369.578 344.596 368.346 344.596 367.175 344.282C366.383 344.07 365.576 343.631 363.074 342.186L297.294 304.213C294.792 302.769 294.008 302.29 293.428 301.71C292.572 300.853 291.955 299.785 291.641 298.615C291.429 297.823 291.406 296.905 291.406 294.015V162.896C291.406 160.965 291.407 159.66 291.476 158.646C291.544 157.659 291.666 157.158 291.808 156.816C292.073 156.175 292.462 155.593 292.952 155.103C293.442 154.613 294.024 154.224 294.664 153.959C295.007 153.817 295.507 153.695 296.495 153.628C297.508 153.559 298.814 153.557 300.745 153.557H437.177C439.108 153.557 440.414 153.559 441.427 153.628C442.415 153.695 442.916 153.817 443.258 153.959C444.552 154.495 445.58 155.522 446.115 156.816C446.256 157.158 446.378 157.659 446.446 158.646C446.515 159.66 446.516 160.965 446.516 162.896Z" fill="black"/>
<path d="M446.281 298.615C446.493 297.823 446.516 296.905 446.516 294.015V162.896C446.516 160.965 446.515 159.66 446.446 158.646C446.378 157.659 446.256 157.158 446.115 156.816C445.58 155.522 444.552 154.495 443.258 153.959C442.916 153.817 442.415 153.695 441.427 153.628C440.414 153.559 439.108 153.557 437.177 153.557H300.745C298.814 153.557 297.508 153.559 296.495 153.628C295.507 153.695 295.007 153.817 294.664 153.959C294.024 154.224 293.442 154.613 292.952 155.103C292.462 155.593 292.073 156.175 291.808 156.816C291.666 157.158 291.544 157.659 291.476 158.646C291.407 159.66 291.406 160.965 291.406 162.896V294.015C291.406 296.905 291.429 297.823 291.641 298.615M446.281 298.615L449.027 299.351M446.281 298.615C445.968 299.785 445.352 300.853 444.494 301.71C443.915 302.29 443.131 302.769 440.628 304.213L374.848 342.186C372.346 343.631 371.539 344.07 370.748 344.282C369.578 344.596 368.346 344.596 367.175 344.282C366.383 344.07 365.576 343.631 363.074 342.186L297.294 304.213C294.792 302.769 294.008 302.29 293.428 301.71C292.572 300.853 291.955 299.785 291.641 298.615M291.641 298.615L288.896 299.351" stroke="black" stroke-width="5.685"/>
<g opacity="0.94">
<path d="M308.603 260.749H309.392V257.611H312.949V260.749H313.738V253.927H312.949V256.929H309.392V253.927H308.603V260.749ZM318.184 260.807C319.763 260.807 320.844 259.794 321.068 258.488H320.25C320.065 259.326 319.275 260.047 318.194 260.047C316.859 260.047 315.933 258.946 315.933 257.387C315.933 255.769 316.868 254.61 318.233 254.61C319.285 254.61 320.055 255.321 320.25 256.169H321.068C320.864 254.863 319.782 253.869 318.242 253.869C316.41 253.869 315.095 255.301 315.095 257.377C315.095 259.394 316.42 260.807 318.184 260.807ZM325.122 260.807C326.7 260.807 327.782 259.794 328.006 258.488H327.188C327.002 259.326 326.213 260.047 325.131 260.047C323.796 260.047 322.87 258.946 322.87 257.387C322.87 255.769 323.806 254.61 325.17 254.61C326.223 254.61 326.993 255.321 327.188 256.169H328.006C327.802 254.863 326.72 253.869 325.18 253.869C323.348 253.869 322.032 255.301 322.032 257.377C322.032 259.394 323.358 260.807 325.122 260.807ZM329.442 260.749L330.125 258.907H333.058L333.76 260.749H334.617L331.996 253.927H331.187L328.585 260.739L329.442 260.749ZM330.368 258.176L331.596 254.814L332.824 258.176H330.368ZM337.976 260.846C339.544 260.846 340.548 259.463 340.548 257.377C340.548 255.282 339.554 253.888 337.995 253.888C336.436 253.888 335.432 255.282 335.432 257.377C335.432 259.463 336.426 260.846 337.976 260.846ZM337.995 260.155C336.874 260.155 336.182 259.063 336.182 257.348C336.182 255.672 336.865 254.58 337.966 254.58C339.096 254.58 339.798 255.691 339.798 257.387C339.798 259.063 339.106 260.155 337.995 260.155ZM341.97 257.874H345.381V257.309H341.97V257.874Z" fill="#F85C94"/>
<path d="M349.347 260.827C350.975 260.827 352.066 259.375 352.066 257.338C352.066 255.301 350.984 253.84 349.367 253.84C347.739 253.84 346.658 255.301 346.658 257.358C346.658 259.385 347.73 260.827 349.347 260.827ZM349.377 259.901C348.363 259.901 347.739 258.849 347.739 257.289C347.739 255.779 348.334 254.775 349.338 254.775C350.351 254.775 350.994 255.857 350.994 257.377C350.994 258.858 350.371 259.901 349.377 259.901ZM355.495 260.827C357.123 260.827 358.214 259.375 358.214 257.338C358.214 255.301 357.132 253.84 355.515 253.84C353.887 253.84 352.805 255.301 352.805 257.358C352.805 259.385 353.877 260.827 355.495 260.827ZM355.524 259.901C354.511 259.901 353.887 258.849 353.887 257.289C353.887 255.779 354.482 254.775 355.485 254.775C356.499 254.775 357.142 255.857 357.142 257.377C357.142 258.858 356.518 259.901 355.524 259.901ZM358.914 260.749H363.582V259.755H360.405L361.419 258.858C362.549 257.855 363.534 257.153 363.534 255.945C363.534 254.736 362.569 253.84 361.263 253.84C359.869 253.84 358.895 254.736 358.836 256.071H359.957C360.045 255.321 360.551 254.834 361.253 254.834C361.974 254.834 362.452 255.292 362.452 255.993C362.452 256.792 361.701 257.309 360.464 258.371L358.914 259.706V260.749Z" fill="white"/>
</g>
<path d="M432.69 214.044L434.293 217.521L438.096 217.972L435.285 220.572L436.031 224.328L432.69 222.457L429.348 224.328L430.094 220.572L427.283 217.972L431.086 217.521L432.69 214.044Z" fill="white"/>
<path d="M432.69 229.635L434.293 233.112L438.096 233.563L435.285 236.163L436.031 239.918L432.69 238.048L429.348 239.918L430.094 236.163L427.283 233.563L431.086 233.112L432.69 229.635ZM432.689 245.225L434.292 248.702L438.095 249.153L435.284 251.752L436.03 255.508L432.689 253.638L429.347 255.508L430.093 251.752L427.282 249.153L431.085 248.702L432.689 245.225Z" fill="black"/>
<path opacity="0.95" d="M313.345 225.323C315.596 225.323 317.252 224.039 317.846 222.424L316.797 222.148C316.313 223.363 315.057 224.288 313.331 224.288C310.984 224.288 309.438 222.451 309.438 220.27C309.438 218.144 310.984 216.336 313.331 216.336C315.057 216.336 316.327 217.274 316.797 218.475L317.873 218.213C317.294 216.598 315.609 215.3 313.331 215.3C310.487 215.3 308.334 217.468 308.334 220.284C308.334 223.142 310.487 225.323 313.345 225.323ZM326.714 216.487V215.48H319.908V225.144H326.701V224.136H320.999V220.712H326.01V219.746H320.999V216.487H326.714ZM335.371 225.144H336.641L334.046 221.292C335.62 221.002 336.462 219.718 336.462 218.42C336.462 217.012 335.385 215.48 333.397 215.48H328.924V225.144H330.015V221.347H332.845L335.371 225.144ZM330.015 216.474H333.369C334.626 216.474 335.399 217.412 335.399 218.42C335.399 219.442 334.64 220.367 333.356 220.367H330.015V216.474ZM346.081 215.48H337.839V216.487H341.415V225.144H342.52V216.487H346.081V215.48ZM347.737 225.144H348.842V215.48H347.737V225.144ZM358.029 216.487V215.48H351.333V225.144H352.438V220.85H357.325V219.87H352.438V216.487H358.029ZM359.742 225.144H360.847V215.48H359.742V225.144ZM370.145 216.487V215.48H363.338V225.144H370.131V224.136H364.429V220.712H369.441V219.746H364.429V216.487H370.145ZM376.026 215.48H372.354V225.144H376.026C379.022 225.144 380.776 223.087 380.776 220.312C380.776 217.537 379.022 215.48 376.026 215.48ZM376.013 224.136H373.445V216.474H376.013C378.373 216.474 379.671 218.158 379.671 220.284C379.671 222.479 378.373 224.136 376.013 224.136ZM315.706 243.144H317.68L313.966 233.48H311.509L307.809 243.144H309.77L310.57 241.045H314.919L315.706 243.144ZM311.192 239.375L312.738 235.288L314.284 239.375H311.192ZM322.613 243.337C324.932 243.337 326.479 241.998 326.479 240.341C326.479 238.767 325.36 238.146 323.883 237.69L321.481 236.917C320.846 236.724 320.556 236.434 320.556 236.006C320.556 235.44 321.164 234.957 322.116 234.957C323.207 234.957 324.104 235.495 324.504 236.282L326.258 235.771C325.733 234.432 324.187 233.286 322.102 233.286C320.087 233.286 318.623 234.556 318.637 236.061C318.623 237.304 319.548 238.118 320.818 238.519L323.29 239.292C324.215 239.595 324.56 239.941 324.56 240.451C324.56 241.087 323.856 241.666 322.724 241.666C321.329 241.666 320.349 240.866 319.962 239.858L318.154 240.41C318.692 241.915 320.252 243.337 322.613 243.337ZM332.074 243.337C334.393 243.337 335.939 241.998 335.939 240.341C335.939 238.767 334.821 238.146 333.344 237.69L330.942 236.917C330.307 236.724 330.017 236.434 330.017 236.006C330.017 235.44 330.624 234.957 331.577 234.957C332.667 234.957 333.565 235.495 333.965 236.282L335.718 235.771C335.194 234.432 333.648 233.286 331.563 233.286C329.547 233.286 328.084 234.556 328.098 236.061C328.084 237.304 329.009 238.118 330.279 238.519L332.75 239.292C333.675 239.595 334.02 239.941 334.02 240.451C334.02 241.087 333.316 241.666 332.184 241.666C330.79 241.666 329.81 240.866 329.423 239.858L327.615 240.41C328.153 241.915 329.713 243.337 332.074 243.337ZM342.253 243.337C345.166 243.337 347.319 241.156 347.319 238.298C347.319 235.454 345.166 233.286 342.253 233.286C339.326 233.286 337.172 235.454 337.172 238.298C337.172 241.156 339.326 243.337 342.253 243.337ZM342.253 241.584C340.334 241.584 339.091 240.148 339.091 238.298C339.091 236.489 340.334 235.04 342.253 235.04C344.158 235.04 345.414 236.489 345.414 238.298C345.414 240.148 344.158 241.584 342.253 241.584ZM353.803 243.337C356.357 243.337 357.986 241.777 358.428 240.231L356.592 239.761C356.274 240.714 355.239 241.556 353.775 241.556C351.87 241.556 350.655 240.023 350.655 238.284C350.655 236.544 351.87 235.067 353.775 235.067C355.239 235.067 356.274 235.937 356.592 236.876L358.442 236.42C358 234.888 356.371 233.286 353.762 233.286C350.89 233.286 348.723 235.454 348.723 238.298C348.723 241.156 350.89 243.337 353.803 243.337ZM360.174 243.144H362.093V233.48H360.174V243.144ZM371.351 243.144H373.325L369.611 233.48H367.154L363.454 243.144H365.414L366.215 241.045H370.564L371.351 243.144ZM366.836 239.375L368.383 235.288L369.929 239.375H366.836ZM381.19 233.48H372.81V235.191H376.055V243.144H377.946V235.191H381.19V233.48ZM389.829 235.191V233.48H382.705V243.144H389.815V241.432H384.555V239.057H389.125V237.4H384.555V235.191H389.829Z" fill="white"/>
<path fill-rule="evenodd" clip-rule="evenodd" d="M449.494 163.043V196.026H288.699V163.043C288.699 159.259 288.699 157.367 289.317 155.875C289.725 154.889 290.323 153.994 291.077 153.24C291.832 152.486 292.727 151.888 293.712 151.48C295.204 150.861 297.096 150.861 300.88 150.861H437.313C441.097 150.861 442.988 150.861 444.481 151.48C445.467 151.888 446.362 152.486 447.116 153.24C447.87 153.994 448.468 154.889 448.876 155.875C449.494 157.367 449.494 159.259 449.494 163.043ZM366.371 350.587L366.538 350.635C368.27 351.105 370.099 351.089 371.822 350.587H366.371Z" fill="#E03875"/>
<mask id="mask4_502_1820" style="mask-type:luminance" maskUnits="userSpaceOnUse" x="307" y="159" width="84" height="31">
<path d="M307.754 159.606H390.044V189.654H307.754V159.606Z" fill="white"/>
</mask>
<g mask="url(#mask4_502_1820)">
<path d="M337.62 171.472C337.62 168.952 339.088 167.484 342.516 167.484C343.781 167.483 345.043 167.636 346.272 167.938L345.982 170.192C344.871 169.984 343.745 169.869 342.615 169.85C340.816 169.85 340.225 170.468 340.225 171.936V177.215C340.225 178.68 340.802 179.301 342.615 179.301C343.745 179.282 344.871 179.168 345.982 178.96L346.272 181.214C345.043 181.516 343.782 181.668 342.516 181.668C339.102 181.668 337.62 180.199 337.62 177.68V171.472ZM351.834 181.657C348.382 181.657 347.457 179.752 347.457 177.703V175.149C347.457 173.101 348.386 171.182 351.838 171.182C355.29 171.182 356.215 173.084 356.215 175.149V177.703C356.212 179.752 355.283 181.657 351.834 181.657ZM351.834 173.329C350.489 173.329 349.974 173.93 349.974 175.067V177.772C349.974 178.909 350.489 179.506 351.834 179.506C353.18 179.506 353.692 178.909 353.692 177.772V175.067C353.692 173.947 353.176 173.329 351.834 173.329ZM363.877 181.459V174.425C363.877 173.889 363.648 173.62 363.071 173.62C362.494 173.62 361.364 173.992 360.446 174.466V181.459H357.926V171.39H359.848L360.091 172.24C361.345 171.611 362.718 171.252 364.12 171.185C365.793 171.185 366.394 172.363 366.394 174.159V181.459H363.877ZM371.58 181.657C370.401 181.638 369.232 181.442 368.111 181.077L368.453 179.158C369.427 179.436 370.434 179.582 371.447 179.592C372.564 179.592 372.728 179.342 372.728 178.567C372.728 177.949 372.605 177.639 370.973 177.246C368.514 176.648 368.224 176.027 368.224 174.084C368.224 172.059 369.112 171.171 371.98 171.171C372.995 171.169 374.006 171.283 374.995 171.513L374.773 173.538C373.859 173.369 372.933 173.272 372.004 173.247C370.908 173.247 370.723 173.497 370.723 174.115C370.723 174.921 370.785 174.982 372.151 175.334C374.957 176.078 375.224 176.45 375.224 178.516C375.217 180.459 374.619 181.657 371.58 181.657ZM379.389 171.39V178.413C379.389 178.949 379.614 179.219 380.195 179.219C380.775 179.219 381.902 178.847 382.817 178.372V171.39H385.337V181.459H383.418L383.169 180.612C381.914 181.241 380.542 181.601 379.14 181.667C377.467 181.667 376.869 180.489 376.869 178.69V171.39H379.389ZM387.505 181.459V167.279L390.025 166.938V181.459H387.505ZM318.604 185.417C315.94 185.418 313.369 184.439 311.381 182.666C309.393 180.893 308.127 178.451 307.824 175.805C307.624 174.052 307.855 172.276 308.496 170.632C309.137 168.988 310.17 167.525 311.504 166.37C312.839 165.217 314.436 164.406 316.155 164.008C317.874 163.611 319.664 163.638 321.371 164.088C323.077 164.54 324.647 165.401 325.946 166.596L323.381 169.287C322.616 168.596 321.71 168.08 320.726 167.773C319.742 167.467 318.704 167.377 317.682 167.512C316.66 167.646 315.679 168 314.808 168.55C313.936 169.1 313.195 169.832 312.634 170.697C311.689 172.147 311.305 173.891 311.553 175.604C311.8 177.316 312.662 178.88 313.978 180.004C315.294 181.127 316.974 181.734 318.704 181.709C320.434 181.685 322.097 181.032 323.381 179.872L325.946 182.552C323.946 184.397 321.324 185.42 318.604 185.417ZM327.332 179.991C327.201 179.99 327.072 179.96 326.953 179.904C326.835 179.848 326.731 179.766 326.648 179.665C326.564 179.563 326.505 179.445 326.472 179.318C326.44 179.191 326.436 179.059 326.461 178.93C326.486 178.801 326.54 178.68 326.618 178.574C326.696 178.468 326.796 178.382 326.912 178.32C327.028 178.258 327.156 178.222 327.287 178.216C327.419 178.21 327.549 178.233 327.671 178.283C327.833 178.351 327.971 178.465 328.068 178.611C328.166 178.757 328.218 178.929 328.219 179.104C328.219 179.221 328.196 179.336 328.152 179.444C328.108 179.552 328.042 179.65 327.96 179.732C327.877 179.815 327.779 179.88 327.672 179.924C327.564 179.969 327.448 179.991 327.332 179.991Z" fill="white"/>
<path d="M318.536 176.922C317.953 176.921 317.392 176.703 316.96 176.312C316.529 175.92 316.259 175.382 316.202 174.802C316.145 174.222 316.305 173.642 316.652 173.174C316.998 172.705 317.507 172.383 318.078 172.268C318.418 172.201 318.77 172.21 319.106 172.295C319.443 172.379 319.757 172.537 320.025 172.758C320.293 172.978 320.51 173.255 320.658 173.568C320.807 173.882 320.884 174.225 320.885 174.572C320.885 174.881 320.825 175.186 320.707 175.471C320.589 175.757 320.416 176.016 320.198 176.234C319.98 176.452 319.72 176.626 319.435 176.744C319.15 176.862 318.844 176.922 318.536 176.922ZM328.353 176.956C328.221 176.956 328.092 176.927 327.973 176.871C327.854 176.815 327.749 176.734 327.666 176.632C327.582 176.531 327.522 176.412 327.491 176.284C327.459 176.157 327.456 176.024 327.482 175.895C327.528 175.682 327.651 175.492 327.827 175.364C328.003 175.235 328.221 175.176 328.438 175.197C328.655 175.219 328.857 175.319 329.005 175.48C329.153 175.64 329.236 175.85 329.24 176.068C329.239 176.303 329.146 176.529 328.979 176.695C328.813 176.861 328.588 176.955 328.353 176.956ZM325.71 176.853C325.579 176.853 325.449 176.823 325.331 176.767C325.212 176.711 325.107 176.629 325.024 176.528C324.941 176.426 324.881 176.308 324.849 176.181C324.817 176.053 324.814 175.921 324.839 175.792C324.874 175.62 324.959 175.462 325.083 175.338C325.207 175.214 325.365 175.13 325.537 175.095C325.709 175.06 325.888 175.077 326.05 175.144C326.212 175.212 326.351 175.326 326.448 175.472C326.562 175.643 326.614 175.848 326.594 176.052C326.574 176.257 326.483 176.448 326.338 176.593C326.255 176.675 326.157 176.741 326.05 176.785C325.942 176.83 325.826 176.853 325.71 176.853ZM328.353 173.968C328.221 173.968 328.092 173.939 327.973 173.883C327.854 173.827 327.749 173.746 327.666 173.644C327.582 173.543 327.522 173.424 327.491 173.296C327.459 173.169 327.456 173.036 327.482 172.907C327.517 172.735 327.601 172.577 327.725 172.453C327.849 172.329 328.007 172.244 328.179 172.209C328.307 172.184 328.44 172.188 328.567 172.22C328.694 172.252 328.813 172.312 328.914 172.395C329.015 172.478 329.097 172.583 329.153 172.701C329.21 172.819 329.239 172.949 329.24 173.08C329.239 173.315 329.146 173.541 328.98 173.707C328.813 173.874 328.588 173.967 328.353 173.968ZM325.71 174.07C325.579 174.07 325.449 174.04 325.331 173.984C325.212 173.928 325.107 173.846 325.024 173.745C324.941 173.643 324.881 173.525 324.849 173.398C324.817 173.27 324.814 173.138 324.839 173.009C324.874 172.837 324.959 172.679 325.083 172.555C325.207 172.431 325.365 172.347 325.537 172.312C325.709 172.278 325.887 172.296 326.049 172.363C326.211 172.43 326.35 172.544 326.448 172.689C326.538 172.822 326.59 172.978 326.598 173.139C326.606 173.3 326.57 173.46 326.494 173.602C326.418 173.744 326.305 173.862 326.167 173.945C326.029 174.027 325.871 174.071 325.71 174.07ZM327.383 170.981C327.207 170.982 327.035 170.93 326.889 170.832C326.743 170.734 326.629 170.596 326.563 170.433C326.496 170.271 326.479 170.092 326.513 169.92C326.547 169.748 326.631 169.59 326.755 169.465C326.879 169.34 327.037 169.256 327.21 169.222C327.382 169.187 327.561 169.205 327.723 169.273C327.911 169.353 328.067 169.495 328.162 169.676C328.258 169.856 328.289 170.065 328.249 170.266C328.209 170.466 328.101 170.647 327.943 170.777C327.785 170.908 327.587 170.98 327.383 170.981Z" fill="white"/>
</g>
<g opacity="0.95">
<path d="M366.68 307.991L357.391 313.349V326.222L360.88 328.236V315.364L366.68 312.016V307.991Z" fill="white"/>
<path d="M370.388 307.991V318.242H366.679V314.417L363.188 316.431V329.565L366.679 331.584V321.362H370.388V325.162L373.877 323.147V310.005L370.388 307.991Z" fill="white"/>
<path d="M370.389 331.588L379.678 326.23V313.357L376.187 311.342V324.215L370.389 327.563V331.588Z" fill="white"/>
</g>
</g>
<defs>
<filter id="filter0_d_502_1820" x="-10.866" y="100.925" width="189.359" height="225.232" filterUnits="userSpaceOnUse" color-interpolation-filters="sRGB">
<feFlood flood-opacity="0" result="BackgroundImageFix"/>
<feColorMatrix in="SourceAlpha" type="matrix" values="0 0 0 0 0 0 0 0 0 0 0 0 0 0 0 0 0 0 127 0" result="hardAlpha"/>
<feOffset dy="6.933"/>
<feGaussianBlur stdDeviation="6.933"/>
<feColorMatrix type="matrix" values="0 0 0 0 0.170885 0 0 0 0 0.183125 0 0 0 0 0.2125 0 0 0 0.2 0"/>
<feBlend mode="normal" in2="BackgroundImageFix" result="effect1_dropShadow_502_1820"/>
<feBlend mode="normal" in="SourceGraphic" in2="effect1_dropShadow_502_1820" result="shape"/>
</filter>
<linearGradient id="paint0_linear_502_1820" x1="402.059" y1="252.001" x2="440.619" y2="456.579" gradientUnits="userSpaceOnUse">
<stop stop-color="#922479"/>
<stop offset="1" stop-color="#96267A" stop-opacity="0"/>
</linearGradient>
<linearGradient id="paint1_linear_502_1820" x1="359.862" y1="278.674" x2="291.161" y2="427.712" gradientUnits="userSpaceOnUse">
<stop stop-color="#E771A4"/>
<stop offset="1" stop-color="#F81696" stop-opacity="0.01"/>
</linearGradient>
<linearGradient id="paint2_linear_502_1820" x1="276.895" y1="126.818" x2="309.429" y2="334.535" gradientUnits="userSpaceOnUse">
<stop stop-color="#532A7D"/>
<stop offset="1" stop-color="#33197C" stop-opacity="0"/>
</linearGradient>
<linearGradient id="paint3_linear_502_1820" x1="225.884" y1="153.613" x2="165.245" y2="311.917" gradientUnits="userSpaceOnUse">
<stop stop-color="#76A0F3"/>
<stop offset="1" stop-color="#522AC2" stop-opacity="0"/>
</linearGradient>
<linearGradient id="paint4_linear_502_1820" x1="116.278" y1="220.8" x2="130.285" y2="460.748" gradientUnits="userSpaceOnUse">
<stop stop-color="#9B7003"/>
<stop offset="1" stop-color="#DF706F" stop-opacity="0"/>
</linearGradient>
<linearGradient id="paint5_linear_502_1820" x1="74" y1="238.786" x2="10.894" y2="447.008" gradientUnits="userSpaceOnUse">
<stop offset="0.19" stop-color="#FECA13" stop-opacity="0.76"/>
<stop offset="1" stop-color="#E36666" stop-opacity="0"/>
</linearGradient>
</defs>
</svg>
