<svg width="368" height="267" viewBox="0 0 368 267" fill="none" xmlns="http://www.w3.org/2000/svg">
<g clip-path="url(#clip0_304_987)">
<path opacity="0.5" d="M192.126 154.904L255.696 118.202L255.696 268.086L192.126 304.788L192.126 154.904Z" fill="url(#paint0_linear_304_987)" fill-opacity="0.6"/>
<path opacity="0.5" d="M192.126 154.904L128.556 118.202L128.556 270.749L192.126 307.451L192.126 154.904Z" fill="url(#paint1_linear_304_987)" fill-opacity="0.6"/>
<g clip-path="url(#clip1_304_987)">
<path d="M139.051 122.809L139.05 122.809C137.202 121.741 136.622 121.387 136.194 120.959C135.561 120.326 135.106 119.538 134.874 118.673C134.717 118.088 134.7 117.409 134.7 115.274V18.3999C134.7 16.9733 134.701 16.0086 134.752 15.2599C134.802 14.5301 134.892 14.1602 134.997 13.9074C135.393 12.9518 136.152 12.1926 137.108 11.7968C137.36 11.6921 137.73 11.6019 138.46 11.5521C139.209 11.501 140.174 11.4999 141.6 11.4999H242.4C243.827 11.4999 244.791 11.501 245.54 11.5521C246.27 11.6019 246.64 11.6921 246.893 11.7968C247.848 12.1926 248.607 12.9518 249.003 13.9074C249.108 14.1602 249.198 14.5301 249.248 15.2599C249.299 16.0086 249.3 16.9733 249.3 18.3999V115.274C249.3 117.409 249.283 118.088 249.126 118.673C248.895 119.538 248.439 120.326 247.806 120.959C247.378 121.387 246.799 121.741 244.95 122.809L196.358 150.86L196.35 150.864L196.349 150.864C194.501 151.931 193.905 152.256 193.32 152.413L193.863 154.441L193.32 152.413C192.455 152.644 191.545 152.644 190.68 152.413L190.137 154.441L190.68 152.413C190.095 152.256 189.499 151.931 187.651 150.864L187.651 150.864L187.612 150.842L187.612 150.842L139.092 122.833L139.092 122.833L139.051 122.809Z" fill="black" stroke="black" stroke-width="4.2"/>
<path opacity="0.95" d="M145.771 63.2962C143.976 63.2962 142.67 61.8274 142.67 59.8402C142.67 57.853 143.976 56.3842 145.762 56.3842C147.221 56.3842 148.334 57.277 148.68 58.5922L148.018 58.7554C147.73 57.6322 146.914 56.9506 145.762 56.9506C144.302 56.9506 143.333 58.237 143.333 59.8402C143.333 61.4434 144.302 62.7298 145.771 62.7298C146.914 62.7298 147.672 62.0578 148.027 60.8386L148.642 60.9634C148.296 62.413 147.211 63.2962 145.771 63.2962ZM150.043 63.2002V56.4802H154.353V57.0466H150.686V59.5234H153.672V60.0898H150.686V62.6338H154.353V63.2002H150.043ZM155.872 63.2002V56.4802H158.003C159.51 56.4802 160.374 57.1618 160.374 58.3042C160.374 59.3602 159.731 59.917 158.809 60.0226V60.109C159.174 60.2146 159.328 60.4738 159.596 61.0114L160.307 62.4226C160.412 62.6338 160.508 62.6722 160.681 62.6722H160.864V63.2002H160.566C160.048 63.2002 159.875 63.0082 159.712 62.6626L159.088 61.4338C158.742 60.7426 158.617 60.4066 157.888 60.4066H156.515V63.2002H155.872ZM156.515 57.0466V59.8306H157.993C159.116 59.8306 159.712 59.293 159.712 58.4002C159.712 57.517 159.136 57.0466 157.993 57.0466H156.515ZM163.477 63.2002V57.0466H161.125V56.4802H166.491V57.0466H164.149V63.2002H163.477ZM167.86 63.2002V56.4802H168.532V63.2002H167.86ZM170.47 63.2002V56.4802H174.675V57.0466H171.113V59.629H173.916V60.1954H171.113V63.2002H170.47ZM176.199 63.2002V56.4802H176.871V63.2002H176.199ZM178.809 63.2002V56.4802H183.119V57.0466H179.452V59.5234H182.437V60.0898H179.452V62.6338H183.119V63.2002H178.809ZM184.637 63.2002V56.4802H186.74C188.948 56.4802 190.148 57.9298 190.148 59.8402C190.148 61.7506 188.948 63.2002 186.74 63.2002H184.637ZM185.28 62.6338H186.74C188.612 62.6338 189.495 61.3762 189.495 59.8402C189.495 58.3042 188.612 57.0466 186.74 57.0466H185.28V62.6338ZM142.392 76.2002L144.504 69.4802H146.29L148.402 76.2002H147.307L146.722 74.309H144.014L143.429 76.2002H142.392ZM145.205 70.421L144.283 73.4162H146.453L145.531 70.421H145.205ZM151.982 76.3058C150.513 76.3058 149.476 75.5762 149.198 74.3282L150.244 74.0978C150.446 74.933 151.07 75.4226 151.982 75.4226C152.884 75.4226 153.47 74.981 153.47 74.357C153.47 73.6274 152.846 73.4642 151.828 73.2914C150.58 73.0706 149.313 72.8498 149.313 71.3426C149.313 70.1618 150.321 69.3746 151.809 69.3746C153.211 69.3746 154.209 70.0754 154.487 71.2658L153.431 71.4674C153.268 70.7378 152.635 70.2578 151.799 70.2578C150.935 70.2578 150.379 70.6514 150.379 71.2466C150.379 71.9858 151.003 72.1394 152.03 72.3218C153.278 72.5426 154.535 72.7538 154.535 74.2706C154.535 75.509 153.537 76.3058 151.982 76.3058ZM158.382 76.3058C156.914 76.3058 155.877 75.5762 155.598 74.3282L156.645 74.0978C156.846 74.933 157.47 75.4226 158.382 75.4226C159.285 75.4226 159.87 74.981 159.87 74.357C159.87 73.6274 159.246 73.4642 158.229 73.2914C156.981 73.0706 155.714 72.8498 155.714 71.3426C155.714 70.1618 156.722 69.3746 158.21 69.3746C159.611 69.3746 160.61 70.0754 160.888 71.2658L159.832 71.4674C159.669 70.7378 159.035 70.2578 158.2 70.2578C157.336 70.2578 156.779 70.6514 156.779 71.2466C156.779 71.9858 157.403 72.1394 158.43 72.3218C159.678 72.5426 160.936 72.7538 160.936 74.2706C160.936 75.509 159.938 76.3058 158.382 76.3058ZM165.275 76.3058C163.374 76.3058 162.021 74.8466 162.021 72.8402C162.021 70.8338 163.374 69.3746 165.275 69.3746C167.176 69.3746 168.539 70.8338 168.539 72.8402C168.539 74.8466 167.176 76.3058 165.275 76.3058ZM165.275 75.3938C166.581 75.3938 167.454 74.2898 167.454 72.8402C167.454 71.3906 166.581 70.2866 165.275 70.2866C163.96 70.2866 163.096 71.3906 163.096 72.8402C163.096 74.2898 163.96 75.3938 165.275 75.3938ZM172.856 76.3058C170.974 76.3058 169.659 74.8466 169.659 72.8402C169.659 70.8338 170.964 69.3746 172.846 69.3746C174.401 69.3746 175.505 70.2866 175.822 71.573L174.776 71.8226C174.516 70.853 173.844 70.2866 172.846 70.2866C171.56 70.2866 170.744 71.3714 170.744 72.8402C170.744 74.309 171.579 75.3938 172.875 75.3938C173.892 75.3938 174.536 74.8178 174.814 73.781L175.803 73.9154C175.486 75.3938 174.392 76.3058 172.856 76.3058ZM177.212 76.2002V69.4802H178.277V76.2002H177.212ZM179.548 76.2002L181.66 69.4802H183.446L185.558 76.2002H184.463L183.878 74.309H181.17L180.585 76.2002H179.548ZM182.361 70.421L181.439 73.4162H183.609L182.687 70.421H182.361ZM187.922 76.2002V70.373H185.705V69.4802H191.186V70.373H188.988V76.2002H187.922ZM192.351 76.2002V69.4802H196.892V70.373H193.398V72.3506H196.182V73.2434H193.398V75.3074H196.892V76.2002H192.351Z" fill="white"/>
<path fill-rule="evenodd" clip-rule="evenodd" d="M251.4 18.3999V115.274C251.4 115.423 251.4 115.567 251.4 115.705V43H132.6V18.3999C132.6 15.6042 132.6 14.2064 133.057 13.1038C133.666 11.6336 134.834 10.4656 136.304 9.85663C137.407 9.3999 138.804 9.3999 141.6 9.3999H242.4C245.196 9.3999 246.594 9.3999 247.696 9.85663C249.166 10.4656 250.334 11.6336 250.943 13.1038C251.4 14.2064 251.4 15.6043 251.4 18.3999Z" fill="#7B42BC"/>
<g opacity="0.95">
<path d="M190.63 125.492L183.767 129.45V129.453V138.961L186.345 140.45V130.939L190.63 128.466V125.492Z" fill="white"/>
<path d="M193.37 125.492V133.066H190.63V130.239L188.051 131.728V141.431L190.63 142.923V135.371H193.37V138.178L195.948 136.69V126.98L193.37 125.492Z" fill="white"/>
<path d="M193.37 142.926L200.233 138.968V138.965V129.457L197.654 127.968V137.479L193.37 139.952V142.926Z" fill="white"/>
</g>
</g>
<path d="M239.4 56.0815L240.585 58.6506L243.394 58.9837L241.317 60.9045L241.869 63.6794L239.4 62.2975L236.931 63.6794L237.483 60.9045L235.406 58.9837L238.215 58.6506L239.4 56.0815Z" fill="white"/>
<path fill-rule="evenodd" clip-rule="evenodd" d="M147.649 21.9995L152.425 24.7728V30.3194L147.649 27.5461V21.9995Z" fill="white"/>
<path fill-rule="evenodd" clip-rule="evenodd" d="M152.98 24.7728V30.3194L157.756 27.5461V21.9995L152.98 24.7728Z" fill="white"/>
<path fill-rule="evenodd" clip-rule="evenodd" d="M142.349 18.918V24.4646L147.125 27.2379V21.6913L142.349 18.918Z" fill="white"/>
<path fill-rule="evenodd" clip-rule="evenodd" d="M147.649 33.7092L152.425 36.4825V30.9359L147.649 28.1626V33.7092Z" fill="white"/>
<path d="M166.014 25.0131H163.244V23.6665H170.381V25.0131H167.623V32.3223H166.014V25.0131Z" fill="white"/>
<path d="M169.884 29.179C169.884 27.2131 171.194 25.8911 172.95 25.8911C174.707 25.8911 176.016 27.1391 176.016 29.0434V29.6135H171.404C171.49 30.5903 172.06 31.2713 173.012 31.2713C173.742 31.2713 174.149 30.9385 174.396 30.3315L175.816 30.5533C175.471 31.715 174.581 32.4577 173.009 32.4577C171.179 32.4577 169.881 31.0987 169.881 29.1821L169.884 29.179ZM171.428 28.5504H174.47C174.359 27.6229 173.801 27.0775 172.947 27.0775C172.143 27.0775 171.564 27.6475 171.425 28.5504H171.428Z" fill="white"/>
<path d="M177.104 26.0273H178.54V26.2862C178.54 26.6313 178.528 26.9056 178.429 27.3986L178.577 27.4356C178.811 26.6067 179.246 26.0273 180.26 26.0273H180.716V27.5372H180.084C179.156 27.5372 178.651 28.1073 178.651 29.1458V32.3227H177.104V26.0273Z" fill="white"/>
<path d="M181.507 26.0273H182.943V26.2862C182.943 26.6313 182.931 26.9056 182.832 27.3986L182.98 27.4356C183.215 26.6067 183.649 26.0273 184.663 26.0273H185.119V27.5372H184.487C183.56 27.5372 183.051 28.1073 183.051 29.1458V32.3227H181.504V26.0273H181.507Z" fill="white"/>
<path d="M185.329 30.6404C185.329 29.3432 186.256 28.921 187.356 28.6622L189.261 28.2184V28.0828C189.261 27.4265 188.829 27.0197 188.16 27.0197C187.492 27.0197 187.097 27.3895 186.962 27.9842L185.603 27.824C185.812 26.65 186.802 25.895 188.225 25.895C189.784 25.895 190.798 26.8718 190.798 28.3078V30.8931C190.798 31.0533 190.847 31.115 190.958 31.115H191.304V32.326H190.376C189.769 32.326 189.51 32.1411 189.51 31.6327C189.51 31.4847 189.535 31.2999 189.596 31.0749L189.461 31.0379C189.017 31.9901 188.361 32.4215 187.409 32.4215C186.161 32.4215 185.332 31.7282 185.332 30.6404H185.329ZM187.812 31.2968C188.666 31.2968 189.261 30.6774 189.261 29.7006V29.2199L187.865 29.5527C187.171 29.7129 186.875 29.9471 186.875 30.4925C186.875 30.9886 187.245 31.2968 187.815 31.2968H187.812Z" fill="white"/>
<path d="M192.857 27.2626H191.719V26.027H192.857V25.0502C192.857 23.9131 193.39 23.417 194.625 23.417H196.021V24.6403H194.896C194.527 24.6403 194.376 24.8129 194.376 25.2227V26.027H195.849V27.2626H194.4V32.3193H192.853V27.2626H192.857Z" fill="white"/>
<path d="M196.246 29.179C196.246 27.2624 197.568 25.8911 199.435 25.8911C201.303 25.8911 202.637 27.2624 202.637 29.179C202.637 31.0957 201.29 32.4546 199.435 32.4546C197.58 32.4546 196.246 31.0957 196.246 29.179ZM201.093 29.179C201.093 27.968 200.437 27.1514 199.435 27.1514C198.434 27.1514 197.778 27.968 197.778 29.179C197.778 30.39 198.446 31.2066 199.435 31.2066C200.425 31.2066 201.093 30.39 201.093 29.179Z" fill="white"/>
<path d="M203.691 26.0273H205.127V26.2862C205.127 26.6313 205.114 26.9056 205.016 27.3986L205.164 27.4356C205.398 26.6067 205.832 26.0273 206.846 26.0273H207.302V27.5372H206.671C205.743 27.5372 205.235 28.1073 205.235 29.1458V32.3227H203.688V26.0273H203.691Z" fill="white"/>
<path d="M208.091 26.0267H209.601V26.2979C209.601 26.6307 209.577 26.8556 209.49 27.2993L209.638 27.3363C209.959 26.3595 210.59 25.8911 211.579 25.8911C212.569 25.8911 213.237 26.3472 213.471 27.3117H213.607C213.94 26.3595 214.572 25.8911 215.511 25.8911C216.809 25.8911 217.502 26.7323 217.502 28.1775V32.319H216.041V28.2268C216.041 27.5089 215.684 27.1144 215.04 27.1144C214.199 27.1144 213.607 27.8201 213.607 28.8585V32.3221H212.06V28.2299C212.06 27.512 211.715 27.1175 211.071 27.1175C210.242 27.1175 209.638 27.8232 209.638 28.8616V32.3252H208.091V26.0298V26.0267Z" fill="white"/>
</g>
<path opacity="0.5" d="M77.7297 213.801L137.46 188.464L137.46 327.654L77.7297 352.992L77.7297 213.801Z" fill="url(#paint2_linear_304_987)" fill-opacity="0.6"/>
<path opacity="0.5" d="M77.7297 211.802L18.9997 186.464L18.9997 336.913L77.7297 362.25L77.7297 211.802Z" fill="url(#paint3_linear_304_987)" fill-opacity="0.6"/>
<g clip-path="url(#clip2_304_987)">
<path d="M25.0505 190.809L25.0505 190.809C23.2017 189.741 22.6224 189.387 22.194 188.959C21.5609 188.326 21.1056 187.538 20.8739 186.673C20.7171 186.088 20.7001 185.409 20.7001 183.274V86.3999C20.7001 84.9733 20.7012 84.0086 20.7523 83.2599C20.8021 82.5301 20.8923 82.1602 20.997 81.9074C21.3928 80.9518 22.152 80.1926 23.1076 79.7968C23.3604 79.6921 23.7303 79.6019 24.4601 79.5521C25.2088 79.501 26.1735 79.4999 27.6001 79.4999H128.4C129.827 79.4999 130.791 79.501 131.54 79.5521C132.27 79.6019 132.64 79.6921 132.893 79.7968C133.848 80.1926 134.607 80.9518 135.003 81.9074C135.108 82.1602 135.198 82.5301 135.248 83.2599C135.299 84.0086 135.3 84.9733 135.3 86.3999V183.274C135.3 185.409 135.283 186.088 135.126 186.673C134.895 187.538 134.439 188.326 133.806 188.959C133.378 189.387 132.799 189.741 130.95 190.809L82.3577 218.86L82.3497 218.864L82.3494 218.864C80.5011 219.931 79.905 220.256 79.32 220.413L79.8634 222.441L79.3199 220.413C78.4553 220.644 77.5449 220.644 76.6803 220.413L76.1368 222.441L76.6802 220.413C76.0952 220.256 75.4991 219.931 73.6508 218.864L73.6505 218.864L73.612 218.842L73.6116 218.842L25.0922 190.833L25.0921 190.833L25.0505 190.809Z" fill="black" stroke="black" stroke-width="4.2"/>
<path opacity="0.95" d="M31.7712 131.296C29.976 131.296 28.6704 129.827 28.6704 127.84C28.6704 125.853 29.976 124.384 31.7616 124.384C33.2208 124.384 34.3344 125.277 34.68 126.592L34.0176 126.755C33.7296 125.632 32.9136 124.951 31.7616 124.951C30.3024 124.951 29.3328 126.237 29.3328 127.84C29.3328 129.443 30.3024 130.73 31.7712 130.73C32.9136 130.73 33.672 130.058 34.0272 128.839L34.6416 128.963C34.296 130.413 33.2112 131.296 31.7712 131.296ZM36.043 131.2V124.48H40.3534V125.047H36.6862V127.523H39.6718V128.09H36.6862V130.634H40.3534V131.2H36.043ZM41.8716 131.2V124.48H44.0028C45.51 124.48 46.374 125.162 46.374 126.304C46.374 127.36 45.7308 127.917 44.8092 128.023V128.109C45.174 128.215 45.3276 128.474 45.5964 129.011L46.3068 130.423C46.4124 130.634 46.5084 130.672 46.6812 130.672H46.8636V131.2H46.566C46.0476 131.2 45.8748 131.008 45.7116 130.663L45.0876 129.434C44.742 128.743 44.6172 128.407 43.8876 128.407H42.5148V131.2H41.8716ZM42.5148 125.047V127.831H43.9932C45.1164 127.831 45.7116 127.293 45.7116 126.4C45.7116 125.517 45.1356 125.047 43.9932 125.047H42.5148ZM49.4767 131.2V125.047H47.1247V124.48H52.4911V125.047H50.1487V131.2H49.4767ZM53.8604 131.2V124.48H54.5324V131.2H53.8604ZM56.47 131.2V124.48H60.6748V125.047H57.1132V127.629H59.9164V128.195H57.1132V131.2H56.47ZM62.1989 131.2V124.48H62.8709V131.2H62.1989ZM64.8085 131.2V124.48H69.1189V125.047H65.4517V127.523H68.4373V128.09H65.4517V130.634H69.1189V131.2H64.8085ZM70.6371 131.2V124.48H72.7395C74.9475 124.48 76.1475 125.93 76.1475 127.84C76.1475 129.751 74.9475 131.2 72.7395 131.2H70.6371ZM71.2803 130.634H72.7395C74.6115 130.634 75.4947 129.376 75.4947 127.84C75.4947 126.304 74.6115 125.047 72.7395 125.047H71.2803V130.634ZM31.8768 144.306C29.976 144.306 28.6224 142.847 28.6224 140.84C28.6224 138.834 29.976 137.375 31.8768 137.375C33.7776 137.375 35.1408 138.834 35.1408 140.84C35.1408 142.847 33.7776 144.306 31.8768 144.306ZM31.8768 143.394C33.1824 143.394 34.056 142.29 34.056 140.84C34.056 139.391 33.1824 138.287 31.8768 138.287C30.5616 138.287 29.6976 139.391 29.6976 140.84C29.6976 142.29 30.5616 143.394 31.8768 143.394ZM36.5196 144.2V137.48H38.8044C40.398 137.48 41.3772 138.248 41.3772 139.631C41.3772 141.023 40.398 141.781 38.8044 141.781H37.566V144.2H36.5196ZM37.566 140.907H38.8044C39.7932 140.907 40.3212 140.466 40.3212 139.631C40.3212 138.805 39.7932 138.363 38.8044 138.363H37.566V140.907ZM42.6482 144.2V137.48H47.189V138.373H43.6946V140.351H46.4786V141.243H43.6946V143.307H47.189V144.2H42.6482ZM48.6362 144.2V137.48H51.0362C52.6394 137.48 53.4938 138.219 53.4938 139.343C53.4938 140.322 52.8986 140.85 52.0154 140.955V141.08C52.3514 141.205 52.5242 141.455 52.7738 141.963L53.369 143.173C53.4554 143.346 53.5322 143.384 53.6954 143.384H53.8874V144.2H53.3402C52.8218 144.2 52.6394 144.027 52.4474 143.643L51.8906 142.501C51.593 141.906 51.4586 141.647 50.7674 141.647H49.6826V144.2H48.6362ZM49.6826 138.363V140.773H50.969C51.929 140.773 52.4378 140.331 52.4378 139.554C52.4378 138.776 51.9482 138.363 50.969 138.363H49.6826ZM54.7908 144.2L56.9028 137.48H58.6884L60.8004 144.2H59.706L59.1204 142.309H56.4132L55.8276 144.2H54.7908ZM57.6036 138.421L56.682 141.416H58.8516L57.93 138.421H57.6036ZM63.1652 144.2V138.373H60.9476V137.48H66.4292V138.373H64.2308V144.2H63.1652ZM67.6995 144.2V137.48H68.7651V144.2H67.6995ZM73.5209 144.306C71.6201 144.306 70.2665 142.847 70.2665 140.84C70.2665 138.834 71.6201 137.375 73.5209 137.375C75.4217 137.375 76.7849 138.834 76.7849 140.84C76.7849 142.847 75.4217 144.306 73.5209 144.306ZM73.5209 143.394C74.8265 143.394 75.7001 142.29 75.7001 140.84C75.7001 139.391 74.8265 138.287 73.5209 138.287C72.2057 138.287 71.3417 139.391 71.3417 140.84C71.3417 142.29 72.2057 143.394 73.5209 143.394ZM78.1637 144.2V137.48H79.7285L82.5893 143.154L82.6949 143.125C82.5797 142.299 82.5701 142.002 82.5701 141.522V137.48H83.5589V144.2H81.9941L79.1237 138.527L79.0181 138.555C79.1429 139.381 79.1525 139.679 79.1525 140.159V144.2H78.1637ZM87.6015 144.306C86.1327 144.306 85.0959 143.576 84.8175 142.328L85.8639 142.098C86.0655 142.933 86.6895 143.423 87.6015 143.423C88.5039 143.423 89.0895 142.981 89.0895 142.357C89.0895 141.627 88.4655 141.464 87.4479 141.291C86.1999 141.071 84.9327 140.85 84.9327 139.343C84.9327 138.162 85.9407 137.375 87.4287 137.375C88.8303 137.375 89.8287 138.075 90.1071 139.266L89.0511 139.467C88.8879 138.738 88.2543 138.258 87.4191 138.258C86.5551 138.258 85.9983 138.651 85.9983 139.247C85.9983 139.986 86.6223 140.139 87.6495 140.322C88.8975 140.543 90.1551 140.754 90.1551 142.271C90.1551 143.509 89.1567 144.306 87.6015 144.306ZM28.8816 157.2V150.48H31.1664C32.76 150.48 33.7392 151.248 33.7392 152.631C33.7392 154.023 32.76 154.781 31.1664 154.781H29.928V157.2H28.8816ZM29.928 153.907H31.1664C32.1552 153.907 32.6832 153.466 32.6832 152.631C32.6832 151.805 32.1552 151.363 31.1664 151.363H29.928V153.907ZM35.0102 157.2V150.48H37.4102C39.0134 150.48 39.8678 151.219 39.8678 152.343C39.8678 153.322 39.2726 153.85 38.3894 153.955V154.08C38.7254 154.205 38.8982 154.455 39.1478 154.963L39.743 156.173C39.8294 156.346 39.9062 156.384 40.0694 156.384H40.2614V157.2H39.7142C39.1958 157.2 39.0134 157.027 38.8214 156.643L38.2646 155.501C37.967 154.906 37.8326 154.647 37.1414 154.647H36.0566V157.2H35.0102ZM36.0566 151.363V153.773H37.343C38.303 153.773 38.8118 153.331 38.8118 152.554C38.8118 151.776 38.3222 151.363 37.343 151.363H36.0566ZM44.2653 157.306C42.3645 157.306 41.0109 155.847 41.0109 153.84C41.0109 151.834 42.3645 150.375 44.2653 150.375C46.1661 150.375 47.5293 151.834 47.5293 153.84C47.5293 155.847 46.1661 157.306 44.2653 157.306ZM44.2653 156.394C45.5709 156.394 46.4445 155.29 46.4445 153.84C46.4445 152.391 45.5709 151.287 44.2653 151.287C42.9501 151.287 42.0861 152.391 42.0861 153.84C42.0861 155.29 42.9501 156.394 44.2653 156.394ZM48.9081 157.2V150.48H53.3145V151.373H49.9545V153.533H52.5849V154.435H49.9545V157.2H48.9081ZM54.6429 157.2V150.48H59.1837V151.373H55.6893V153.351H58.4733V154.243H55.6893V156.307H59.1837V157.2H54.6429ZM62.8713 157.306C61.4025 157.306 60.3657 156.576 60.0873 155.328L61.1337 155.098C61.3353 155.933 61.9593 156.423 62.8713 156.423C63.7737 156.423 64.3593 155.981 64.3593 155.357C64.3593 154.627 63.7353 154.464 62.7177 154.291C61.4697 154.071 60.2025 153.85 60.2025 152.343C60.2025 151.162 61.2105 150.375 62.6985 150.375C64.1001 150.375 65.0985 151.075 65.3769 152.266L64.3209 152.467C64.1577 151.738 63.5241 151.258 62.6889 151.258C61.8249 151.258 61.2681 151.651 61.2681 152.247C61.2681 152.986 61.8921 153.139 62.9193 153.322C64.1673 153.543 65.4249 153.754 65.4249 155.271C65.4249 156.509 64.4265 157.306 62.8713 157.306ZM69.2718 157.306C67.803 157.306 66.7662 156.576 66.4878 155.328L67.5342 155.098C67.7358 155.933 68.3598 156.423 69.2718 156.423C70.1742 156.423 70.7598 155.981 70.7598 155.357C70.7598 154.627 70.1358 154.464 69.1182 154.291C67.8702 154.071 66.603 153.85 66.603 152.343C66.603 151.162 67.611 150.375 69.099 150.375C70.5006 150.375 71.499 151.075 71.7774 152.266L70.7214 152.467C70.5582 151.738 69.9246 151.258 69.0894 151.258C68.2254 151.258 67.6686 151.651 67.6686 152.247C67.6686 152.986 68.2926 153.139 69.3198 153.322C70.5678 153.543 71.8254 153.754 71.8254 155.271C71.8254 156.509 70.827 157.306 69.2718 157.306ZM73.275 157.2V150.48H74.3406V157.2H73.275ZM79.0964 157.306C77.1956 157.306 75.842 155.847 75.842 153.84C75.842 151.834 77.1956 150.375 79.0964 150.375C80.9972 150.375 82.3604 151.834 82.3604 153.84C82.3604 155.847 80.9972 157.306 79.0964 157.306ZM79.0964 156.394C80.402 156.394 81.2756 155.29 81.2756 153.84C81.2756 152.391 80.402 151.287 79.0964 151.287C77.7812 151.287 76.9172 152.391 76.9172 153.84C76.9172 155.29 77.7812 156.394 79.0964 156.394ZM83.7392 157.2V150.48H85.304L88.1648 156.154L88.2704 156.125C88.1552 155.299 88.1456 155.002 88.1456 154.522V150.48H89.1344V157.2H87.5696L84.6992 151.527L84.5936 151.555C84.7184 152.381 84.728 152.679 84.728 153.159V157.2H83.7392ZM90.297 157.2L92.409 150.48H94.1946L96.3066 157.2H95.2122L94.6266 155.309H91.9194L91.3338 157.2H90.297ZM93.1098 151.421L92.1882 154.416H94.3578L93.4362 151.421H93.1098ZM97.4683 157.2V150.48H98.5147V156.307H101.606V157.2H97.4683Z" fill="white"/>
<path fill-rule="evenodd" clip-rule="evenodd" d="M137.4 86.3999V183.274C137.4 183.423 137.4 183.567 137.4 183.705V111H18.6001V86.3999C18.6001 83.6042 18.6001 82.2064 19.0568 81.1038C19.6658 79.6336 20.8338 78.4656 22.304 77.8566C23.4066 77.3999 24.8044 77.3999 27.6001 77.3999H128.4C131.196 77.3999 132.594 77.3999 133.696 77.8566C135.166 78.4656 136.334 79.6336 136.943 81.1038C137.4 82.2064 137.4 83.6043 137.4 86.3999Z" fill="#FFCF25"/>
<g opacity="0.95">
<path d="M76.63 193.492L69.7666 197.45V197.453V206.961L72.3446 208.45V198.939L76.63 196.466V193.492Z" fill="white"/>
<path d="M79.3699 193.492V201.066H76.6301V198.239L74.0505 199.728V209.431L76.6301 210.923V203.371H79.3699V206.178L81.9479 204.69V194.98L79.3699 193.492Z" fill="white"/>
<path d="M79.3699 210.926L86.2333 206.968V206.965V197.457L83.6537 195.968V205.479L79.3699 207.952V210.926Z" fill="white"/>
</g>
</g>
<path d="M125.4 135.6L126.585 138.169L129.394 138.502L127.317 140.423L127.869 143.198L125.4 141.816L122.931 143.198L123.483 140.423L121.406 138.502L124.215 138.169L125.4 135.6Z" fill="white"/>
<path d="M28.5398 87.8037L36.6983 103.683L44.9154 87.8037H28.5398ZM35.428 94.1091H34.1268V92.811H35.428V94.1091ZM35.428 92.1605H34.1268V90.8593H35.428V92.1605ZM37.3797 96.0578H36.0785V94.7566H37.3797V96.0578ZM37.3797 94.1091H36.0785V92.811H37.3797V94.1091ZM37.3797 92.1605H36.0785V90.8593H37.3797V92.1605ZM39.316 94.1091H38.0149V92.811H39.316V94.1091ZM38.018 92.1605V90.8593H39.3191V92.1605H38.018Z" fill="black"/>
<path d="M52.4697 100.322L49.9414 91.689H51.6064L53.6106 98.904H54.0422L56.0772 91.689H57.6497L55.1214 100.322H52.4697ZM59.7156 100.415C58.4514 100.415 57.6497 99.7366 57.6497 98.6266C57.6497 97.3316 58.5747 96.8999 59.6847 96.6532L61.5656 96.2215V96.0982C61.5656 95.4507 61.1339 95.0499 60.4864 95.0499C59.8389 95.0499 59.4072 95.4199 59.2839 96.0057L57.9272 95.8516C58.1431 94.6799 59.1297 93.9399 60.5481 93.9399C62.0897 93.9399 63.1072 94.9265 63.1072 96.3449V98.9349C63.1072 99.0891 63.1381 99.1507 63.2614 99.1507H63.6006V100.353H62.6756C62.0897 100.353 61.8122 100.168 61.8122 99.6749C61.8122 99.5207 61.8431 99.3357 61.9047 99.1199L61.7814 99.0582C61.3189 99.9832 60.6406 100.415 59.7156 100.415ZM59.1606 98.5032C59.1606 98.9966 59.5306 99.3049 60.0856 99.3049C60.9489 99.3049 61.5347 98.6882 61.5347 97.7016V97.2082L60.1472 97.5474C59.4689 97.7324 59.1606 97.9482 59.1606 98.5032ZM68.6881 97.4857V94.0324H70.2297V100.322H68.7189V100.076C68.7189 99.7674 68.7497 99.5207 68.8114 99.0891L68.6881 99.0274C68.3181 99.9524 67.7014 100.477 66.6531 100.477C65.2964 100.477 64.5564 99.6132 64.5564 98.1641V94.0324H66.0981V97.979C66.0981 98.8116 66.4681 99.2124 67.2389 99.2124C68.0714 99.2432 68.6881 98.5957 68.6881 97.4857ZM73.5289 91.4424V98.8116C73.5289 99.0582 73.6214 99.1199 73.7756 99.1199H74.5156V100.322H73.0664C72.3264 100.322 71.9564 99.9216 71.9564 99.1816V92.6757H71.0314V91.4424H73.5289ZM77.6297 100.322C76.4272 100.322 75.9031 99.8291 75.9031 98.7499V95.2657H74.7931V94.0324H75.9031V92.429H77.4447V94.0324H78.9864V95.2657H77.4447V98.534C77.4447 98.9349 77.5989 99.0891 77.9072 99.0891H78.9864V100.322H77.6297Z" fill="black"/>
<path d="M125.4 124.082L126.585 126.651L129.394 126.984L127.317 128.905L127.869 131.679L125.4 130.298L122.931 131.679L123.483 128.905L121.406 126.984L124.215 126.651L125.4 124.082Z" fill="white"/>
<path opacity="0.5" d="M290.499 235.531L350 201.209L350 339.505L290.499 373.827L290.499 235.531Z" fill="url(#paint4_linear_304_987)" fill-opacity="0.6"/>
<path opacity="0.5" d="M290.5 235.531L231 201.209L231 341.995L290.5 376.318L290.5 235.531Z" fill="url(#paint5_linear_304_987)" fill-opacity="0.6"/>
<g clip-path="url(#clip3_304_987)">
<path d="M237.551 211.809L237.55 211.809C235.702 210.741 235.122 210.387 234.694 209.959C234.061 209.326 233.606 208.538 233.374 207.673C233.217 207.088 233.2 206.409 233.2 204.274V107.4C233.2 105.973 233.201 105.009 233.252 104.26C233.302 103.53 233.392 103.16 233.497 102.907C233.893 101.952 234.652 101.193 235.608 100.797C235.86 100.692 236.23 100.602 236.96 100.552C237.709 100.501 238.674 100.5 240.1 100.5H340.9C342.327 100.5 343.291 100.501 344.04 100.552C344.77 100.602 345.14 100.692 345.393 100.797C346.348 101.193 347.107 101.952 347.503 102.907C347.608 103.16 347.698 103.53 347.748 104.26C347.799 105.009 347.8 105.973 347.8 107.4V204.274C347.8 206.409 347.783 207.088 347.626 207.673C347.395 208.538 346.939 209.326 346.306 209.959C345.878 210.387 345.299 210.741 343.45 211.809L294.858 239.86L294.85 239.864L294.849 239.864C293.001 240.931 292.405 241.256 291.82 241.413L292.363 243.441L291.82 241.413C290.955 241.644 290.045 241.644 289.18 241.413L288.637 243.441L289.18 241.413C288.595 241.256 287.999 240.931 286.151 239.864L286.151 239.864L286.112 239.842L286.112 239.842L237.592 211.833L237.592 211.833L237.551 211.809Z" fill="black" stroke="black" stroke-width="4.2"/>
<path opacity="0.95" d="M244.271 152.296C242.476 152.296 241.17 150.827 241.17 148.84C241.17 146.853 242.476 145.384 244.262 145.384C245.721 145.384 246.834 146.277 247.18 147.592L246.518 147.755C246.23 146.632 245.414 145.951 244.262 145.951C242.802 145.951 241.833 147.237 241.833 148.84C241.833 150.443 242.802 151.73 244.271 151.73C245.414 151.73 246.172 151.058 246.527 149.839L247.142 149.963C246.796 151.413 245.711 152.296 244.271 152.296ZM248.543 152.2V145.48H252.853V146.047H249.186V148.523H252.172V149.09H249.186V151.634H252.853V152.2H248.543ZM254.372 152.2V145.48H256.503C258.01 145.48 258.874 146.162 258.874 147.304C258.874 148.36 258.231 148.917 257.309 149.023V149.109C257.674 149.215 257.828 149.474 258.096 150.011L258.807 151.423C258.912 151.634 259.008 151.672 259.181 151.672H259.364V152.2H259.066C258.548 152.2 258.375 152.008 258.212 151.663L257.588 150.434C257.242 149.743 257.117 149.407 256.388 149.407H255.015V152.2H254.372ZM255.015 146.047V148.831H256.493C257.616 148.831 258.212 148.293 258.212 147.4C258.212 146.517 257.636 146.047 256.493 146.047H255.015ZM261.977 152.2V146.047H259.625V145.48H264.991V146.047H262.649V152.2H261.977ZM266.36 152.2V145.48H267.032V152.2H266.36ZM268.97 152.2V145.48H273.175V146.047H269.613V148.629H272.416V149.195H269.613V152.2H268.97ZM274.699 152.2V145.48H275.371V152.2H274.699ZM277.309 152.2V145.48H281.619V146.047H277.952V148.523H280.937V149.09H277.952V151.634H281.619V152.2H277.309ZM283.137 152.2V145.48H285.24C287.448 145.48 288.648 146.93 288.648 148.84C288.648 150.751 287.448 152.2 285.24 152.2H283.137ZM283.78 151.634H285.24C287.112 151.634 287.995 150.376 287.995 148.84C287.995 147.304 287.112 146.047 285.24 146.047H283.78V151.634ZM240.892 165.2L243.004 158.48H244.79L246.902 165.2H245.807L245.222 163.309H242.514L241.929 165.2H240.892ZM243.705 159.421L242.783 162.416H244.953L244.031 159.421H243.705ZM250.482 165.306C249.013 165.306 247.976 164.576 247.698 163.328L248.744 163.098C248.946 163.933 249.57 164.423 250.482 164.423C251.384 164.423 251.97 163.981 251.97 163.357C251.97 162.627 251.346 162.464 250.328 162.291C249.08 162.071 247.813 161.85 247.813 160.343C247.813 159.162 248.821 158.375 250.309 158.375C251.711 158.375 252.709 159.075 252.987 160.266L251.931 160.467C251.768 159.738 251.135 159.258 250.299 159.258C249.435 159.258 248.879 159.651 248.879 160.247C248.879 160.986 249.503 161.139 250.53 161.322C251.778 161.543 253.035 161.754 253.035 163.271C253.035 164.509 252.037 165.306 250.482 165.306ZM256.882 165.306C255.414 165.306 254.377 164.576 254.098 163.328L255.145 163.098C255.346 163.933 255.97 164.423 256.882 164.423C257.785 164.423 258.37 163.981 258.37 163.357C258.37 162.627 257.746 162.464 256.729 162.291C255.481 162.071 254.214 161.85 254.214 160.343C254.214 159.162 255.222 158.375 256.71 158.375C258.111 158.375 259.11 159.075 259.388 160.266L258.332 160.467C258.169 159.738 257.535 159.258 256.7 159.258C255.836 159.258 255.279 159.651 255.279 160.247C255.279 160.986 255.903 161.139 256.93 161.322C258.178 161.543 259.436 161.754 259.436 163.271C259.436 164.509 258.438 165.306 256.882 165.306ZM263.775 165.306C261.874 165.306 260.521 163.847 260.521 161.84C260.521 159.834 261.874 158.375 263.775 158.375C265.676 158.375 267.039 159.834 267.039 161.84C267.039 163.847 265.676 165.306 263.775 165.306ZM263.775 164.394C265.081 164.394 265.954 163.29 265.954 161.84C265.954 160.391 265.081 159.287 263.775 159.287C262.46 159.287 261.596 160.391 261.596 161.84C261.596 163.29 262.46 164.394 263.775 164.394ZM271.356 165.306C269.474 165.306 268.159 163.847 268.159 161.84C268.159 159.834 269.464 158.375 271.346 158.375C272.901 158.375 274.005 159.287 274.322 160.573L273.276 160.823C273.016 159.853 272.344 159.287 271.346 159.287C270.06 159.287 269.244 160.371 269.244 161.84C269.244 163.309 270.079 164.394 271.375 164.394C272.392 164.394 273.036 163.818 273.314 162.781L274.303 162.915C273.986 164.394 272.892 165.306 271.356 165.306ZM275.712 165.2V158.48H276.777V165.2H275.712ZM278.048 165.2L280.16 158.48H281.946L284.058 165.2H282.963L282.378 163.309H279.67L279.085 165.2H278.048ZM280.861 159.421L279.939 162.416H282.109L281.187 159.421H280.861ZM286.422 165.2V159.373H284.205V158.48H289.686V159.373H287.488V165.2H286.422ZM290.851 165.2V158.48H295.392V159.373H291.898V161.351H294.682V162.243H291.898V164.307H295.392V165.2H290.851Z" fill="white"/>
<path fill-rule="evenodd" clip-rule="evenodd" d="M349.9 107.4V204.274C349.9 204.423 349.9 204.567 349.9 204.705V132H231.1V107.4C231.1 104.604 231.1 103.206 231.557 102.104C232.166 100.634 233.334 99.4656 234.804 98.8566C235.907 98.3999 237.304 98.3999 240.1 98.3999H340.9C343.696 98.3999 345.094 98.3999 346.196 98.8566C347.666 99.4656 348.834 100.634 349.443 102.104C349.9 103.206 349.9 104.604 349.9 107.4Z" fill="#DC477D"/>
<g opacity="0.95">
<path d="M289.13 214.492L282.267 218.45V218.453V227.961L284.845 229.45V219.939L289.13 217.466V214.492Z" fill="white"/>
<path d="M291.87 214.492V222.066H289.13V219.239L286.551 220.728V230.431L289.13 231.923V224.371H291.87V227.178L294.448 225.69V215.98L291.87 214.492Z" fill="white"/>
<path d="M291.87 231.926L298.733 227.968V227.965V218.457L296.154 216.968V226.479L291.87 228.952V231.926Z" fill="white"/>
</g>
</g>
<g clip-path="url(#clip4_304_987)">
<path d="M263.613 116.8C263.613 114.183 265.313 112.293 267.806 112.293C269.875 112.293 271.307 113.501 271.698 115.156L270.121 115.525C269.797 114.351 269.025 113.68 267.806 113.68C266.252 113.68 265.268 114.977 265.268 116.789C265.268 118.6 266.286 119.898 267.851 119.898C269.092 119.898 269.853 119.215 270.177 117.974L271.687 118.153C271.307 120.099 269.853 121.307 267.829 121.307C265.335 121.307 263.613 119.417 263.613 116.8Z" fill="white"/>
<path d="M272.402 117.998C272.402 116.063 273.733 114.688 275.612 114.688C277.49 114.688 278.832 116.074 278.832 117.998C278.832 119.921 277.479 121.296 275.612 121.296C273.744 121.296 272.402 119.932 272.402 117.998ZM277.278 117.998C277.278 116.779 276.618 115.951 275.612 115.951C274.605 115.951 273.946 116.767 273.946 117.998C273.946 119.228 274.616 120.044 275.612 120.044C276.607 120.044 277.278 119.228 277.278 117.998Z" fill="white"/>
<path d="M281.449 121.162H279.895V114.833H281.416V115.09C281.416 115.426 281.393 115.649 281.304 116.108L281.449 116.141C281.829 115.224 282.433 114.688 283.518 114.688C284.905 114.688 285.631 115.56 285.631 117.036V121.151H284.077V117.081C284.077 116.331 283.708 115.906 282.959 115.906C282.12 115.906 281.449 116.544 281.449 117.684V121.14V121.162Z" fill="white"/>
<path d="M286.615 119.44L288.069 119.138C288.226 119.831 288.796 120.178 289.512 120.178C290.227 120.178 290.652 119.865 290.652 119.384C290.652 118.87 290.172 118.769 289.243 118.601C288.136 118.422 286.671 118.232 286.671 116.667C286.671 115.481 287.678 114.676 289.299 114.676C290.742 114.676 291.86 115.291 292.128 116.51L290.664 116.745C290.518 116.119 289.993 115.783 289.31 115.783C288.561 115.783 288.192 116.108 288.192 116.533C288.192 117.047 288.695 117.159 289.601 117.315C290.719 117.494 292.173 117.707 292.173 119.261C292.173 120.48 291.178 121.285 289.523 121.285C288.002 121.285 286.895 120.67 286.627 119.429L286.615 119.44Z" fill="white"/>
<path d="M297.328 114.821H298.883V121.151H297.362V120.893C297.362 120.569 297.384 120.334 297.462 119.887L297.328 119.842C296.937 120.77 296.344 121.296 295.259 121.296C293.873 121.296 293.146 120.435 293.146 118.959V114.832H294.7V118.825C294.7 119.663 295.058 120.077 295.852 120.077C296.702 120.077 297.317 119.428 297.317 118.31V114.821H297.328Z" fill="white"/>
<path d="M302.182 119.63C302.182 119.865 302.271 119.943 302.439 119.943H303.199V121.162H301.745C301.007 121.162 300.627 120.759 300.627 120.021V113.435H299.71V112.205H302.182V119.63Z" fill="white"/>
<path d="M249.411 125.399C247.991 125.399 246.604 125.052 245.352 124.393C244.099 123.733 243.026 122.782 242.232 121.608C241.415 120.445 240.912 119.092 240.756 117.694C240.599 116.285 240.778 114.865 241.292 113.546C241.807 112.226 242.634 111.052 243.708 110.124C244.781 109.196 246.056 108.547 247.443 108.223C248.818 107.898 250.261 107.921 251.625 108.29C252.989 108.648 254.253 109.341 255.293 110.303L253.224 112.461C252.408 111.723 251.39 111.231 250.294 111.063C249.199 110.884 248.08 111.029 247.074 111.488C246.067 111.935 245.206 112.673 244.603 113.601C243.999 114.53 243.674 115.614 243.674 116.721C243.674 117.828 243.999 118.913 244.603 119.841C245.206 120.769 246.067 121.496 247.074 121.955C248.08 122.402 249.199 122.547 250.294 122.38C251.39 122.201 252.408 121.72 253.224 120.982L255.293 123.14C253.694 124.616 251.592 125.433 249.411 125.433V125.399Z" fill="white"/>
<path d="M256.411 121.051C256.266 121.051 256.132 121.006 256.02 120.928C255.908 120.849 255.808 120.737 255.763 120.603C255.707 120.469 255.696 120.335 255.718 120.19C255.74 120.055 255.819 119.921 255.908 119.821C256.009 119.72 256.132 119.653 256.277 119.63C256.411 119.608 256.557 119.619 256.691 119.675C256.825 119.731 256.937 119.821 257.015 119.932C257.094 120.044 257.138 120.19 257.138 120.324C257.138 120.514 257.06 120.693 256.926 120.827C256.792 120.961 256.613 121.039 256.423 121.039L256.411 121.051Z" fill="white"/>
<path d="M249.355 118.59C248.986 118.59 248.617 118.478 248.304 118.276C247.991 118.075 247.745 117.773 247.611 117.427C247.465 117.08 247.432 116.7 247.499 116.342C247.566 115.973 247.745 115.637 248.013 115.38C248.282 115.112 248.617 114.933 248.975 114.866C249.344 114.787 249.724 114.832 250.071 114.978C250.418 115.123 250.708 115.358 250.921 115.671C251.133 115.984 251.234 116.342 251.234 116.722C251.234 117.225 251.033 117.695 250.686 118.053C250.339 118.411 249.858 118.601 249.355 118.612V118.59Z" fill="white"/>
<path d="M257.228 118.624C257.082 118.624 256.948 118.579 256.836 118.501C256.725 118.423 256.624 118.311 256.579 118.177C256.523 118.042 256.512 117.908 256.534 117.763C256.557 117.629 256.635 117.494 256.725 117.394C256.814 117.293 256.948 117.226 257.094 117.204C257.228 117.181 257.373 117.192 257.507 117.248C257.642 117.304 257.753 117.394 257.832 117.506C257.91 117.617 257.955 117.763 257.955 117.897C257.955 118.087 257.876 118.266 257.742 118.4C257.608 118.534 257.429 118.613 257.239 118.613L257.228 118.624Z" fill="white"/>
<path d="M255.103 118.534C254.958 118.534 254.823 118.489 254.712 118.411C254.589 118.333 254.499 118.221 254.454 118.087C254.399 117.953 254.387 117.807 254.41 117.673C254.443 117.539 254.51 117.405 254.611 117.304C254.712 117.203 254.835 117.136 254.98 117.114C255.114 117.091 255.26 117.103 255.394 117.159C255.528 117.214 255.64 117.304 255.707 117.427C255.785 117.55 255.83 117.684 255.819 117.83C255.819 118.02 255.74 118.199 255.606 118.333C255.472 118.467 255.293 118.534 255.103 118.534Z" fill="white"/>
<path d="M257.228 116.22C257.082 116.22 256.948 116.175 256.836 116.097C256.725 116.018 256.624 115.906 256.579 115.772C256.523 115.638 256.512 115.504 256.534 115.358C256.557 115.224 256.635 115.09 256.725 114.989C256.825 114.889 256.948 114.822 257.094 114.799C257.228 114.777 257.373 114.788 257.507 114.844C257.642 114.9 257.753 114.989 257.832 115.101C257.91 115.213 257.955 115.358 257.955 115.493C257.955 115.683 257.876 115.862 257.742 115.996C257.608 116.13 257.429 116.208 257.239 116.208L257.228 116.22Z" fill="white"/>
<path d="M255.103 116.298C254.958 116.298 254.823 116.253 254.712 116.175C254.6 116.096 254.499 115.985 254.454 115.85C254.399 115.716 254.387 115.582 254.41 115.437C254.432 115.302 254.51 115.168 254.6 115.068C254.7 114.967 254.823 114.9 254.969 114.877C255.103 114.855 255.248 114.866 255.383 114.922C255.517 114.978 255.629 115.068 255.707 115.179C255.785 115.291 255.83 115.437 255.83 115.571C255.83 115.761 255.752 115.94 255.617 116.074C255.483 116.208 255.304 116.286 255.114 116.286L255.103 116.298Z" fill="white"/>
<path d="M256.445 113.814C256.3 113.814 256.165 113.77 256.054 113.691C255.931 113.613 255.841 113.501 255.785 113.367C255.729 113.233 255.718 113.099 255.741 112.953C255.763 112.819 255.841 112.685 255.931 112.584C256.031 112.484 256.154 112.416 256.3 112.394C256.434 112.372 256.579 112.383 256.713 112.439C256.848 112.495 256.959 112.584 257.038 112.696C257.116 112.808 257.161 112.953 257.161 113.087C257.161 113.278 257.082 113.456 256.948 113.591C256.814 113.725 256.635 113.803 256.445 113.803V113.814Z" fill="white"/>
</g>
<path d="M337.9 145.082L339.085 147.651L341.894 147.984L339.817 149.905L340.369 152.679L337.9 151.298L335.431 152.679L335.983 149.905L333.906 147.984L336.715 147.651L337.9 145.082Z" fill="white"/>
<defs>
<linearGradient id="paint0_linear_304_987" x1="218.405" y1="93.8291" x2="239.758" y2="230.161" gradientUnits="userSpaceOnUse">
<stop stop-color="#532A7D"/>
<stop offset="1" stop-color="#33197C" stop-opacity="0"/>
</linearGradient>
<linearGradient id="paint1_linear_304_987" x1="184.925" y1="111.415" x2="145.126" y2="215.315" gradientUnits="userSpaceOnUse">
<stop stop-color="#76A0F3"/>
<stop offset="1" stop-color="#522AC2" stop-opacity="0"/>
</linearGradient>
<linearGradient id="paint2_linear_304_987" x1="102.421" y1="170.258" x2="107.48" y2="294.581" gradientUnits="userSpaceOnUse">
<stop stop-color="#9B7003"/>
<stop offset="1" stop-color="#DF706F" stop-opacity="0"/>
</linearGradient>
<linearGradient id="paint3_linear_304_987" x1="70.6809" y1="179.56" x2="50.8341" y2="287.966" gradientUnits="userSpaceOnUse">
<stop offset="0.19001" stop-color="#FECA13" stop-opacity="0.76"/>
<stop offset="1" stop-color="#E36666" stop-opacity="0.06"/>
</linearGradient>
<linearGradient id="paint4_linear_304_987" x1="315.096" y1="176.546" x2="335.048" y2="304.044" gradientUnits="userSpaceOnUse">
<stop stop-color="#922479"/>
<stop offset="1" stop-color="#96267A" stop-opacity="0"/>
</linearGradient>
<linearGradient id="paint5_linear_304_987" x1="290.494" y1="173.001" x2="275.084" y2="297.132" gradientUnits="userSpaceOnUse">
<stop stop-color="#E771A4"/>
<stop offset="0.603067" stop-color="#F13A9B" stop-opacity="0.481363"/>
<stop offset="0.830498" stop-color="#F52598" stop-opacity="0.19"/>
<stop offset="1" stop-color="#F81696" stop-opacity="0"/>
</linearGradient>
<clipPath id="clip0_304_987">
<rect width="160" height="243" fill="white" transform="translate(113)"/>
</clipPath>
<clipPath id="clip1_304_987">
<rect width="156" height="156" fill="white" transform="translate(114 1)"/>
</clipPath>
<clipPath id="clip2_304_987">
<rect width="156" height="156" fill="white" transform="translate(0 69)"/>
</clipPath>
<clipPath id="clip3_304_987">
<rect width="156" height="156" fill="white" transform="translate(212.5 90)"/>
</clipPath>
<clipPath id="clip4_304_987">
<rect width="62.4991" height="17.4" fill="white" transform="translate(240.7 108)"/>
</clipPath>
</defs>
</svg>
