<svg viewBox="15 20 320 38.5" fill="white" xmlns="http://www.w3.org/2000/svg">
		<polygon fill="#FFFFFF" points="31.2,19.2 16.4,27.7 16.4,27.7 16.4,48.3 22,51.5 22,30.9 31.2,25.6"/>
		<polygon fill="#FFFFFF" points="37.1,19.2 37.1,35.5 31.2,35.5 31.2,29.4 25.7,32.6 25.7,53.6 31.2,56.8 31.2,40.5 37.1,40.5 37.1,46.6 42.7,43.4 42.7,22.4"/>
		<polygon fill="#FFFFFF" points="37.1,56.8 52,48.3 52,48.3 52,27.7 46.4,24.5 46.4,45.1 37.1,50.4"/>
		<path d="M61.4,27.9h3.8v8.2h8.7v-8.2h3.8v20h-3.8v-8.4h-8.7v8.4h-3.8V27.9z"/>
		<path d="M80.2,44c0-3,2.1-4,4.7-4.6l4.3-1v-0.3c0-1.5-0.9-2.4-2.5-2.4c-1.5,0-2.4,0.8-2.7,2.2l-3.3-0.4
			c0.5-2.7,2.8-4.5,6.1-4.5c3.6,0,6,2.3,6,5.6v5.9c0,0.4,0.1,0.5,0.4,0.5h0.8v2.9h-2.2c-1.4,0-2-0.5-2-1.6c0-0.3,0.1-0.7,0.2-1.3
			l-0.3-0.1c-1,2.2-2.5,3.2-4.7,3.2C82.1,48.1,80.2,46.5,80.2,44z M86,45.5c1.9,0,3.2-1.4,3.2-3.5v-1.1l-3.1,0.7
			c-1.6,0.4-2.2,0.9-2.2,2.1C83.9,44.8,84.7,45.5,86,45.5z"/>
		<path d="M95.4,44l3.5-0.7c0.4,1.5,1.6,2.3,3.2,2.3c1.7,0,2.5-0.7,2.5-1.8s-1.1-1.3-3.1-1.7c-2.6-0.4-6-0.9-6-4.5
			c0-2.7,2.3-4.6,6.1-4.6c3.3,0,5.9,1.4,6.5,4.2l-3.5,0.6c-0.3-1.4-1.5-2.2-3-2.2c-1.7,0-2.5,0.7-2.5,1.7c0,1.1,1.1,1.3,3.2,1.7
			c2.6,0.4,5.9,0.9,5.9,4.5c0,2.8-2.3,4.7-6.1,4.7C98.7,48.3,96.1,46.8,95.4,44z"/>
		<path d="M114.3,47.9h-3.7V27.3h3.7v6.4c0,0.7-0.1,1.5-0.3,2.5l0.3,0.1c0.9-2.1,2.2-3.3,4.7-3.3c3.2,0,4.9,2,4.9,5.4
			v9.5h-3.7v-9.4c0-1.7-0.8-2.6-2.5-2.6c-1.9,0-3.4,1.4-3.4,3.9V47.9z"/>
		<path d="M131.5,44.2c0,0.6,0.2,0.7,0.6,0.7h1.6v2.9h-3.4c-1.7,0-2.6-0.9-2.6-2.7v-8.9h-2.1v-2.9h5.8V44.2z
				M127.3,29.5c0-1.3,1-2.3,2.3-2.3c1.3,0,2.3,1,2.3,2.3c0,1.3-1,2.3-2.3,2.3C128.3,31.7,127.3,30.7,127.3,29.5z"/>
		<path d="M135,37.9c0-6,3.9-10.3,9.7-10.3c4.8,0,8.1,2.8,9,6.5l-3.8,0.9c-0.7-2.6-2.5-4.1-5.2-4.1
			c-3.5,0-5.7,2.9-5.7,7s2.3,7,5.8,7c2.8,0,4.5-1.5,5.2-4.3l3.6,0.4c-0.9,4.5-4.2,7.3-8.9,7.3C138.9,48.3,135,43.9,135,37.9z"/>
		<path d="M155.1,40.6c0-4.4,3.1-7.6,7.4-7.6c4.3,0,7.4,3.2,7.4,7.6c0,4.4-3.1,7.6-7.4,7.6
			C158.2,48.3,155.1,45.1,155.1,40.6z M166.3,40.6c0-2.7-1.5-4.6-3.7-4.6c-2.2,0-3.7,1.8-3.7,4.6c0,2.8,1.5,4.6,3.7,4.6
			C164.8,45.2,166.3,43.4,166.3,40.6z"/>
		<path d="M172.3,33.4h3.4v0.6c0,0.8,0,1.4-0.3,2.6l0.3,0.1c0.5-1.9,1.5-3.2,3.9-3.2h1.1V37h-1.5
			c-2.1,0-3.2,1.3-3.2,3.6v7.4h-3.7V33.4z"/>
		<path d="M182.5,33.4h3.7V34c0,0.7-0.1,1.2-0.3,2.3l0.3,0.1c0.9-2.3,2.5-3.4,4.7-3.4c3.5,0,6.3,2.9,6.3,7.6
			c0,4.7-2.8,7.6-6.3,7.6c-2.1,0-3.7-1.1-4.6-3.5l-0.3,0.1c0.2,1.1,0.2,1.7,0.2,2.3v6.5h-3.7V33.4z M193.6,40.6
			c0-2.8-1.5-4.6-3.7-4.6c-2.2,0-3.7,1.7-3.7,4.6c0,2.9,1.5,4.6,3.7,4.6C192.1,45.2,193.6,43.5,193.6,40.6z"/>

		<path d="M205.2,27.6h6.3c6.6,0,10.2,4.4,10.2,10.2s-3.6,10.2-10.2,10.2h-6.3V27.6z M211.5,46.2c5.6,0,8.3-3.8,8.3-8.4
			s-2.6-8.4-8.3-8.4h-4.4v16.9H211.5z"/>
		<path d="M224.2,40.6c0-4.6,3-7.6,6.7-7.6c3.7,0,6.7,2.8,6.7,7.2V41h-11.5c0.1,3.3,2.2,5.5,5,5.5
			c2.3,0,3.7-1.1,4.4-3.2l1.7,0.4c-0.9,2.9-2.9,4.5-6.1,4.5C227.1,48.2,224.2,45.1,224.2,40.6z M226.2,39.5h9.6
			c-0.3-2.9-2.2-4.8-4.8-4.8C228.4,34.7,226.5,36.6,226.2,39.5z"/>
		<path d="M239,33.4h2l4.1,12.9h0.9l4.1-12.9h1.9l-4.7,14.5h-3.6L239,33.4z"/>
		<path d="M253.4,40.6c0-4.6,3-7.6,6.7-7.6c3.7,0,6.7,2.8,6.7,7.2V41h-11.5c0.1,3.3,2.2,5.5,5,5.5
			c2.3,0,3.7-1.1,4.4-3.2l1.7,0.4c-0.9,2.9-2.9,4.5-6.1,4.5C256.3,48.2,253.4,45.1,253.4,40.6z M255.3,39.5h9.6
			c-0.3-2.9-2.2-4.8-4.8-4.8C257.6,34.7,255.7,36.6,255.3,39.5z"/>
		<path d="M272.1,45.7c0,0.4,0.1,0.6,0.6,0.6h2.2v1.6h-2.4c-1.6,0-2.2-0.6-2.2-2.1V28.6h-2.5V27h4.4V45.7z"/>
		<path d="M276.6,40.6c0-4.4,2.9-7.6,7-7.6c4,0,7,3.2,7,7.6c0,4.4-2.9,7.6-7,7.6C279.5,48.2,276.6,45.1,276.6,40.6z
				M288.7,40.6c0-3.5-2.1-5.9-5.1-5.9c-3,0-5.1,2.5-5.1,5.9c0,3.5,2.1,5.9,5.1,5.9S288.7,44.1,288.7,40.6z"/>
		<path d="M293.7,33.4h1.9v1.1c0,0.7-0.1,1.2-0.2,2.4l0.2,0.1c1-2.5,2.7-3.9,5.2-3.9c3.8,0,6.6,3.2,6.6,7.6
			c0,4.5-2.8,7.6-6.6,7.6c-2.5,0-4.1-1.3-5.2-3.9l-0.2,0.1c0.2,1.2,0.2,1.7,0.2,2.4v7h-1.9V33.4z M305.6,40.6c0-3.5-2.1-5.9-5-5.9
			c-2.9,0-5,2.4-5,5.9c0,3.5,2,5.9,5,5.9S305.6,44.1,305.6,40.6z"/>
		<path d="M309.7,40.6c0-4.6,3-7.6,6.7-7.6c3.7,0,6.7,2.8,6.7,7.2V41h-11.5c0.1,3.3,2.2,5.5,5,5.5
			c2.3,0,3.7-1.1,4.4-3.2l1.7,0.4c-0.9,2.9-2.9,4.5-6.1,4.5C312.6,48.2,309.7,45.1,309.7,40.6z M311.6,39.5h9.6
			c-0.3-2.9-2.2-4.8-4.8-4.8C313.9,34.7,312,36.6,311.6,39.5z"/>
		<path d="M326.3,33.4h1.8v0.8c0,1,0,1.6-0.2,2.6l0.3,0.1c0.6-2,1.8-3.5,4.2-3.5h0.9v1.8h-0.9c-2.5,0-4.1,2.1-4.1,5.5
			v7.2h-1.9V33.4z"/>
	
</svg>
