<svg width="232" height="32" viewBox="0 0 232 32" fill="none" xmlns="http://www.w3.org/2000/svg">
<path d="M145.908 7.44585C150.033 7.44585 151.212 9.63664 151.212 12.5767V19.6703C151.212 22.6104 150.033 24.8012 145.908 24.8012H140.334V7.44585H145.908ZM141.807 23.4248H145.932C148.791 23.4248 149.707 22.2195 149.707 19.7436V12.5034C149.707 10.0601 148.791 8.83036 145.932 8.83036H141.807V23.4248Z" fill="white"/>
<path d="M158.267 23.7283C159.595 23.699 160.915 23.4965 162.193 23.1256L162.448 24.3554C161.065 24.8191 159.619 25.0555 158.163 25.0558C154.675 25.0558 153.552 23.207 153.552 20.4462V16.4555C153.552 13.8493 154.699 11.8459 158.187 11.8459C161.675 11.8459 162.702 13.8493 162.702 16.4555V18.8987H155.034V20.5276C155.034 22.7998 155.798 23.7283 158.267 23.7283ZM155.034 17.555H161.245V16.4066C161.245 14.2647 160.513 13.1489 158.187 13.1489C155.862 13.1489 155.002 14.2647 155.002 16.4066L155.034 17.555Z" fill="white"/>
<path d="M170.012 24.8012H167.743L163.538 12.1125H165.043L168.865 23.7343L172.712 12.1125H174.217L170.012 24.8012Z" fill="white"/>
<path d="M179.825 23.7283C181.154 23.699 182.473 23.4965 183.751 23.1256L184.006 24.3554C182.623 24.8191 181.177 25.0555 179.722 25.0558C176.234 25.0558 175.111 23.207 175.111 20.4462V16.4555C175.111 13.8493 176.257 11.8459 179.746 11.8459C183.234 11.8459 184.261 13.8493 184.261 16.4555V18.8987H176.592V20.5276C176.592 22.7998 177.356 23.7283 179.825 23.7283ZM176.592 17.555H182.804V16.4066C182.804 14.2647 182.071 13.1489 179.746 13.1489C177.42 13.1489 176.56 14.2647 176.56 16.4066L176.592 17.555Z" fill="white"/>
<path d="M186.936 24.7989V6.92237L188.409 6.71877V24.7989H186.936Z" fill="white"/>
<path d="M195.904 25.0558C192.416 25.0558 191.086 23.0523 191.086 20.4462V16.4555C191.086 13.8493 192.416 11.8459 195.904 11.8459C199.392 11.8459 200.722 13.8493 200.722 16.4555V20.4462C200.722 23.0523 199.4 25.0558 195.904 25.0558ZM199.24 16.4066C199.24 14.2647 198.221 13.1978 195.904 13.1978C193.586 13.1978 192.567 14.2647 192.567 16.4066V20.4787C192.567 22.6207 193.586 23.6875 195.904 23.6875C198.221 23.6875 199.24 22.6207 199.24 20.4787V16.4066Z" fill="white"/>
<path d="M212.522 21.171C212.522 23.4921 211.503 25.0802 208.7 25.0802C207.415 25.0768 206.134 24.9376 204.877 24.6649V29.9586L203.396 30.1622V12.1065H204.75L204.822 13.3037C206.031 12.3797 207.494 11.8695 209.003 11.8459C211.392 11.8459 212.522 13.0675 212.522 15.3642V21.171ZM204.877 23.2803C206.149 23.5655 207.446 23.7156 208.748 23.7283C210.38 23.7283 211.041 22.9138 211.041 21.171V15.3886C211.041 13.9308 210.579 13.2222 208.899 13.2222C207.414 13.2689 205.991 13.8451 204.877 14.8511V23.2803Z" fill="white"/>
<path d="M219.475 23.7283C220.804 23.699 222.123 23.4965 223.401 23.1256L223.656 24.3554C222.273 24.8191 220.827 25.0555 219.372 25.0558C215.884 25.0558 214.761 23.207 214.761 20.4462V16.4555C214.761 13.8493 215.908 11.8459 219.404 11.8459C222.9 11.8459 223.911 13.8493 223.911 16.4555V18.8987H216.242V20.5276C216.242 22.7998 217.006 23.7283 219.475 23.7283ZM216.242 17.555H222.462V16.4066C222.462 14.2647 221.721 13.1489 219.404 13.1489C217.086 13.1489 216.218 14.2647 216.218 16.4066L216.242 17.555Z" fill="white"/>
<path d="M231.987 13.3281C230.621 14.0007 229.311 14.7851 228.069 15.6736V24.7952H226.588V12.1065H227.91L227.989 14.0367C229.185 13.1705 230.466 12.4362 231.812 11.8459L231.987 13.3281Z" fill="white"/>
<path d="M45.5355 24.8322V17.5024H39.1647V24.8322H35.9792V7.37918H39.1647V14.5542H45.5355V7.37918H48.7209V24.8322H45.5355Z" fill="white"/>
<path d="M60.57 24.8308H58.0137L57.7828 23.9593C56.6769 24.698 55.3847 25.0914 54.0638 25.0914C51.7862 25.0914 50.8147 23.4625 50.8147 21.288C50.8147 18.6982 51.9137 17.7046 54.454 17.7046H57.4483V16.3608C57.4483 14.9518 57.0661 14.455 55.0593 14.455C53.8947 14.4673 52.7343 14.5982 51.5951 14.846L51.2129 12.4027C52.606 12.009 54.044 11.8063 55.4893 11.8C59.4153 11.8 60.5621 13.209 60.5621 16.4096L60.57 24.8308ZM57.4483 20.0094H55.1389C54.1196 20.0094 53.8329 20.2944 53.8329 21.2636C53.8329 22.2328 54.1196 22.5504 55.0911 22.5504C55.9296 22.5433 56.7522 22.3161 57.4802 21.8907L57.4483 20.0094Z" fill="white"/>
<path d="M66.623 25.0931C65.1594 25.0675 63.7076 24.8205 62.3147 24.3601L62.7527 21.9169C63.9632 22.2664 65.2138 22.4499 66.4717 22.4625C67.8494 22.4625 68.0644 22.1449 68.0644 21.1757C68.0644 20.3613 67.9131 20.003 65.8903 19.5062C62.8323 18.7325 62.474 17.9669 62.474 15.4748C62.474 12.9826 63.5729 11.7854 67.1326 11.7854C68.3922 11.7836 69.6479 11.9284 70.8755 12.2171L70.5649 14.7581C69.4317 14.5462 68.2842 14.4237 67.1326 14.3916C65.7788 14.3916 65.5399 14.7092 65.5399 15.4911C65.5399 16.5172 65.6116 16.5987 67.3078 17.0385C70.7879 17.9832 71.1224 18.4556 71.1224 21.1106C71.1303 23.5701 70.3897 25.0931 66.623 25.0931Z" fill="white"/>
<path d="M80.4324 24.8285V15.9187C80.4324 15.2346 80.1536 14.8925 79.4369 14.8925C78.292 15.025 77.1845 15.3905 76.1798 15.9676V24.8285H73.0502V6.84605L76.1798 6.40627V13.0275C77.5961 12.2852 79.1529 11.8657 80.7429 11.7977C82.8135 11.7977 83.562 13.2881 83.562 15.5685V24.8285H80.4324Z" fill="white"/>
<path d="M85.8627 10.2642V6.56668H88.9923V10.2642H85.8627ZM85.8627 24.8342V12.0722H88.9923V24.8342H85.8627Z" fill="white"/>
<path d="M91.1669 12.218C91.1669 9.01733 92.9905 7.16045 97.2431 7.16045C98.8048 7.15843 100.361 7.34986 101.878 7.73054L101.519 10.5892C100.143 10.322 98.7473 10.1722 97.3466 10.1412C95.1168 10.1412 94.4001 10.9557 94.4001 12.7881V19.4989C94.4001 21.364 95.1168 22.1458 97.3466 22.1458C98.7475 22.1189 100.144 21.969 101.519 21.6979L101.878 24.5565C100.361 24.9399 98.8051 25.1341 97.2431 25.1347C92.9905 25.1347 91.1669 23.2697 91.1669 20.0772V12.218Z" fill="white"/>
<path d="M108.304 25.0971C104.028 25.0971 102.873 22.6538 102.873 20.0639V16.8062C102.873 14.192 104.028 11.7813 108.304 11.7813C112.581 11.7813 113.743 14.2245 113.743 16.8062V20.0639C113.719 22.6864 112.565 25.0971 108.304 25.0971ZM108.304 14.5096C106.64 14.5096 106.003 15.267 106.003 16.7085V20.1454C106.003 21.5869 106.64 22.3443 108.304 22.3443C109.969 22.3443 110.614 21.5869 110.614 20.1454V16.733C110.59 15.2914 109.953 14.534 108.304 14.534V14.5096Z" fill="white"/>
<path d="M122.016 14.7403C120.869 15.2709 119.764 15.8917 118.711 16.5971V24.831H115.581V12.069H118.225L118.432 13.4779C119.447 12.7767 120.547 12.2153 121.705 11.8083L122.016 14.7403Z" fill="white"/>
<path d="M133.867 20.5799C133.867 23.4141 132.641 25.0918 129.742 25.0918C128.624 25.0816 127.509 24.9588 126.414 24.7253V29.9865L123.292 30.4344V12.0692H125.776L126.079 13.1442C127.228 12.2659 128.627 11.7968 130.061 11.8086C132.569 11.8086 133.899 13.3234 133.899 16.2309L133.867 20.5799ZM126.414 21.9888C127.323 22.1998 128.252 22.3144 129.185 22.3309C130.308 22.3309 130.778 21.7852 130.778 20.6288V16.1576C130.778 15.107 130.395 14.5287 129.241 14.5287C128.206 14.5693 127.217 14.9783 126.445 15.6852L126.414 21.9888Z" fill="white"/>
<path d="M12.3196 0L0 7.26464V7.27279V24.7177L4.62682 27.4542V10.0011L12.3196 5.45663V0Z" fill="white"/>
<path d="M17.232 0V13.9022H12.3185V8.71431L7.69165 11.4426V29.254L12.3185 31.9905V18.129H17.232V23.2843L21.8588 20.556V2.72831L17.232 0Z" fill="white"/>
<path d="M17.2334 32L29.553 24.7354V24.7272V7.28229L24.9262 4.54584V21.9989L17.2334 26.5434V32Z" fill="white"/>
</svg>
