<?xml version="1.0" encoding="UTF-8"?>
<svg id="Artwork" xmlns="http://www.w3.org/2000/svg" viewBox="0 0 316.85 37.64">
  <defs>
    <style>
      .cls-1 {
        fill: #fff;
        stroke-width: 0px;
      }
    </style>
  </defs>
  <g>
    <g>
      <path class="cls-1" d="M45.01,8.73h3.8v8.18h8.72v-8.18h3.83v20.01h-3.83v-8.4h-8.72v8.4h-3.8V8.73Z"/>
      <path class="cls-1" d="M63.79,24.85c0-3,2.12-4,4.69-4.6l4.34-1v-.34c0-1.46-.94-2.37-2.46-2.37s-2.4.83-2.69,2.2l-3.26-.37c.49-2.74,2.8-4.52,6.09-4.52,3.63,0,6,2.29,6,5.63v5.86c0,.37.11.49.37.49h.8v2.92h-2.23c-1.4,0-2.03-.46-2.03-1.6,0-.34.06-.74.2-1.26l-.31-.11c-1.03,2.23-2.54,3.2-4.69,3.2-2.94,0-4.83-1.63-4.83-4.12ZM69.59,26.28c1.89,0,3.23-1.37,3.23-3.54v-1.14l-3.12.74c-1.57.37-2.23.91-2.23,2.12s.83,1.83,2.12,1.83Z"/>
      <path class="cls-1" d="M79.03,24.79l3.49-.69c.37,1.54,1.6,2.32,3.23,2.32s2.54-.66,2.54-1.77-1.09-1.34-3.14-1.72c-2.6-.4-5.97-.89-5.97-4.49,0-2.72,2.32-4.6,6.09-4.6,3.34,0,5.95,1.4,6.55,4.23l-3.52.57c-.31-1.43-1.49-2.17-3.03-2.17-1.69,0-2.49.71-2.49,1.69,0,1.11,1.11,1.34,3.17,1.72,2.57.4,5.95.89,5.95,4.49,0,2.83-2.29,4.72-6.15,4.72-3.49,0-6.09-1.43-6.72-4.29Z"/>
      <path class="cls-1" d="M97.87,28.74h-3.72V8.16h3.72v6.4c0,.74-.14,1.46-.34,2.52l.34.11c.89-2.12,2.23-3.34,4.72-3.34,3.17,0,4.86,2,4.86,5.4v9.49h-3.72v-9.38c0-1.66-.83-2.57-2.49-2.57-1.89,0-3.37,1.43-3.37,3.94v8Z"/>
      <path class="cls-1" d="M115.08,25.05c0,.57.2.74.63.74h1.63v2.94h-3.37c-1.69,0-2.6-.94-2.6-2.69v-8.92h-2.06v-2.94h5.77v10.86ZM110.85,10.3c0-1.26,1.03-2.29,2.26-2.29s2.26,1.03,2.26,2.29-1,2.26-2.26,2.26-2.26-1-2.26-2.26Z"/>
      <path class="cls-1" d="M118.57,18.73c0-6,3.94-10.35,9.66-10.35,4.8,0,8.09,2.77,8.98,6.55l-3.77.91c-.71-2.63-2.46-4.12-5.2-4.12-3.49,0-5.69,2.89-5.69,7s2.29,7,5.83,7c2.8,0,4.52-1.51,5.23-4.32l3.57.4c-.86,4.49-4.17,7.26-8.86,7.26-5.77,0-9.75-4.34-9.75-10.35Z"/>
      <path class="cls-1" d="M138.72,21.45c0-4.43,3.12-7.6,7.43-7.6s7.43,3.17,7.43,7.6-3.12,7.63-7.43,7.63-7.43-3.2-7.43-7.63ZM149.87,21.45c0-2.74-1.46-4.57-3.72-4.57s-3.72,1.83-3.72,4.57,1.49,4.6,3.72,4.6,3.72-1.83,3.72-4.6Z"/>
      <path class="cls-1" d="M155.93,14.19h3.43v.57c0,.77-.03,1.4-.26,2.57l.34.09c.54-1.92,1.54-3.23,3.89-3.23h1.06v3.6h-1.52c-2.09,0-3.23,1.26-3.23,3.57v7.37h-3.72v-14.55Z"/>
      <path class="cls-1" d="M166.14,14.19h3.66v.66c0,.66-.06,1.17-.26,2.34l.34.09c.89-2.32,2.54-3.43,4.69-3.43,3.54,0,6.35,2.92,6.35,7.6s-2.8,7.63-6.35,7.63c-2.14,0-3.72-1.11-4.63-3.46l-.31.11c.17,1.14.23,1.69.23,2.32v6.55h-3.72V14.19ZM177.23,21.45c0-2.83-1.54-4.57-3.72-4.57s-3.72,1.74-3.72,4.57,1.54,4.6,3.72,4.6,3.72-1.74,3.72-4.6Z"/>
    </g>
    <g>
      <polygon class="cls-1" points="14.82 0 0 8.55 0 8.55 0 29.08 5.57 32.29 5.57 11.76 14.82 6.42 14.82 0"/>
      <polygon class="cls-1" points="20.73 0 20.73 16.35 14.82 16.35 14.82 10.25 9.25 13.46 9.25 34.41 14.82 37.63 14.82 21.33 20.73 21.33 20.73 27.39 26.3 24.18 26.3 3.21 20.73 0"/>
      <polygon class="cls-1" points="20.73 37.64 35.55 29.09 35.55 29.08 35.55 8.56 29.98 5.35 29.98 25.87 20.73 31.22 20.73 37.64"/>
    </g>
  </g>
  <g>
    <path class="cls-1" d="M188.76,8.44h6.3c6.62,0,10.22,4.38,10.22,10.15s-3.6,10.15-10.22,10.15h-6.3V8.44ZM195.07,27.03c5.61,0,8.26-3.8,8.26-8.44s-2.65-8.44-8.26-8.44h-4.37v16.88h4.37Z"/>
    <path class="cls-1" d="M207.81,21.46c0-4.64,2.99-7.57,6.73-7.57s6.68,2.76,6.68,7.22v.75h-11.54c.14,3.28,2.16,5.54,5.01,5.54,2.3,0,3.71-1.13,4.43-3.25l1.67.38c-.89,2.87-2.94,4.5-6.1,4.5-4,0-6.88-3.16-6.88-7.57ZM209.74,20.3h9.61c-.29-2.87-2.22-4.79-4.81-4.79s-4.43,1.94-4.81,4.79Z"/>
    <path class="cls-1" d="M222.6,14.21h2.01l4.12,12.94h.86l4.12-12.94h1.87l-4.69,14.53h-3.57l-4.72-14.53Z"/>
    <path class="cls-1" d="M236.99,21.46c0-4.64,2.99-7.57,6.73-7.57s6.68,2.76,6.68,7.22v.75h-11.54c.14,3.28,2.16,5.54,5.01,5.54,2.3,0,3.71-1.13,4.43-3.25l1.67.38c-.89,2.87-2.94,4.5-6.1,4.5-4,0-6.88-3.16-6.88-7.57ZM238.92,20.3h9.61c-.29-2.87-2.22-4.79-4.81-4.79s-4.43,1.94-4.81,4.79Z"/>
    <path class="cls-1" d="M255.73,26.54c0,.44.14.58.6.58h2.19v1.62h-2.42c-1.64,0-2.24-.58-2.24-2.06V9.45h-2.5v-1.6h4.37v18.68Z"/>
    <path class="cls-1" d="M260.19,21.46c0-4.38,2.91-7.57,6.99-7.57s6.96,3.19,6.96,7.57-2.94,7.57-6.96,7.57-6.99-3.13-6.99-7.57ZM272.27,21.46c0-3.45-2.13-5.92-5.09-5.92s-5.12,2.47-5.12,5.92,2.13,5.95,5.12,5.95,5.09-2.47,5.09-5.95Z"/>
    <path class="cls-1" d="M277.34,14.21h1.87v1.1c0,.73-.06,1.19-.23,2.38l.23.09c1.01-2.52,2.68-3.89,5.18-3.89,3.83,0,6.62,3.16,6.62,7.57s-2.79,7.57-6.62,7.57c-2.5,0-4.14-1.33-5.18-3.86l-.23.06c.17,1.19.23,1.68.23,2.41v7.05h-1.87V14.21ZM289.16,21.46c0-3.48-2.1-5.92-4.98-5.92s-4.95,2.44-4.95,5.92,2.04,5.95,4.95,5.95,4.98-2.47,4.98-5.95Z"/>
    <path class="cls-1" d="M293.28,21.46c0-4.64,2.99-7.57,6.73-7.57s6.68,2.76,6.68,7.22v.75h-11.54c.14,3.28,2.16,5.54,5.01,5.54,2.3,0,3.71-1.13,4.43-3.25l1.67.38c-.89,2.87-2.94,4.5-6.1,4.5-4,0-6.88-3.16-6.88-7.57ZM295.21,20.3h9.61c-.29-2.87-2.22-4.79-4.81-4.79s-4.43,1.94-4.81,4.79Z"/>
    <path class="cls-1" d="M309.88,14.21h1.81v.84c0,1.04-.03,1.57-.23,2.55l.26.06c.63-2,1.78-3.45,4.23-3.45h.89v1.83h-.95c-2.53,0-4.14,2.06-4.14,5.48v7.22h-1.87v-14.53Z"/>
  </g>
</svg>