<svg width="42" height="26" viewBox="0 0 42 26" fill="none" xmlns="http://www.w3.org/2000/svg">
<path d="M12.2826 9.70375C12.2826 10.2011 12.3361 10.6044 12.4295 10.9001C12.5363 11.1958 12.6698 11.5184 12.8568 11.8679C12.9235 11.9755 12.9502 12.083 12.9502 12.1771C12.9502 12.3115 12.8701 12.4459 12.6965 12.5804L11.8554 13.1449C11.7352 13.2256 11.6151 13.2659 11.5083 13.2659C11.3747 13.2659 11.2412 13.1987 11.1077 13.0777C10.9208 12.8761 10.7606 12.661 10.6271 12.4459C10.4935 12.2174 10.36 11.962 10.2132 11.6529C9.17173 12.8895 7.86327 13.5079 6.28779 13.5079C5.16626 13.5079 4.2717 13.1853 3.61747 12.54C2.96324 11.8948 2.62946 11.0345 2.62946 9.95915C2.62946 8.81656 3.03 7.88906 3.84445 7.19006C4.6589 6.49107 5.74037 6.14158 7.11559 6.14158C7.56954 6.14158 8.03684 6.1819 8.53085 6.24911C9.02486 6.31633 9.53222 6.42386 10.0663 6.54484V5.56357C10.0663 4.54196 9.85266 3.82953 9.43876 3.41282C9.01151 2.99612 8.29052 2.79448 7.26245 2.79448C6.79515 2.79448 6.31449 2.84825 5.82048 2.96923C5.32647 3.09021 4.84582 3.23807 4.37851 3.42626C4.16489 3.52036 4.00467 3.57413 3.91121 3.60101C3.81775 3.6279 3.75099 3.64134 3.69758 3.64134C3.51066 3.64134 3.4172 3.50692 3.4172 3.22463V2.56597C3.4172 2.35089 3.4439 2.18959 3.51066 2.09549C3.57742 2.0014 3.69758 1.9073 3.8845 1.81321C4.35181 1.57125 4.91258 1.36962 5.5668 1.20831C6.22103 1.03356 6.91531 0.95291 7.64965 0.95291C9.23849 0.95291 10.4001 1.31585 11.1478 2.04172C11.8821 2.7676 12.2559 3.86986 12.2559 5.34849V9.70375H12.2826ZM6.86191 11.747C7.30251 11.747 7.75646 11.6663 8.23712 11.505C8.71778 11.3437 9.14503 11.048 9.50552 10.6447C9.71914 10.3893 9.87936 10.107 9.95947 9.7844C10.0396 9.46179 10.093 9.07196 10.093 8.61493V8.05036C9.70579 7.95627 9.29189 7.87561 8.86464 7.82185C8.43739 7.76808 8.02349 7.74119 7.60959 7.74119C6.71504 7.74119 6.06081 7.91594 5.62021 8.27888C5.17961 8.64182 4.96598 9.15262 4.96598 9.82473C4.96598 10.4565 5.1262 10.927 5.45999 11.2496C5.78043 11.5856 6.24773 11.747 6.86191 11.747ZM17.5832 13.1987C17.3429 13.1987 17.1827 13.1584 17.0759 13.0643C16.9691 12.9836 16.8756 12.7954 16.7955 12.54L13.6579 2.14926C13.5778 1.88042 13.5377 1.70567 13.5377 1.61157C13.5377 1.3965 13.6445 1.27552 13.8581 1.27552H15.1666C15.4203 1.27552 15.5938 1.31585 15.6873 1.40994C15.7941 1.4906 15.8742 1.67879 15.9543 1.93419L18.1974 10.8329L20.2802 1.93419C20.347 1.66534 20.4271 1.4906 20.5339 1.40994C20.6407 1.32929 20.8277 1.27552 21.068 1.27552H22.1361C22.3898 1.27552 22.5634 1.31585 22.6702 1.40994C22.777 1.4906 22.8704 1.67879 22.9239 1.93419L25.0334 10.9404L27.3432 1.93419C27.4233 1.66534 27.5168 1.4906 27.6103 1.40994C27.7171 1.32929 27.8906 1.27552 28.131 1.27552H29.3727C29.5863 1.27552 29.7065 1.38306 29.7065 1.61157C29.7065 1.67879 29.6931 1.746 29.6798 1.82665C29.6664 1.9073 29.6397 2.01484 29.5863 2.1627L26.3686 12.5535C26.2885 12.8223 26.195 12.9971 26.0882 13.0777C25.9814 13.1584 25.8078 13.2121 25.5808 13.2121H24.4326C24.1789 13.2121 24.0053 13.1718 23.8985 13.0777C23.7917 12.9836 23.6982 12.8089 23.6448 12.54L21.5753 3.86985L19.5192 12.5266C19.4524 12.7954 19.3723 12.9702 19.2655 13.0643C19.1587 13.1584 18.9718 13.1987 18.7315 13.1987H17.5832ZM34.74 13.5616C34.0457 13.5616 33.3514 13.481 32.6839 13.3197C32.0163 13.1584 31.4956 12.9836 31.1484 12.782C30.9348 12.661 30.7879 12.5266 30.7345 12.4056C30.6811 12.2846 30.6544 12.1502 30.6544 12.0292V11.3437C30.6544 11.0614 30.7612 10.927 30.9615 10.927C31.0416 10.927 31.1217 10.9404 31.2018 10.9673C31.2819 10.9942 31.4021 11.048 31.5356 11.1017C31.9896 11.3034 32.4836 11.4647 33.0043 11.5722C33.5384 11.6797 34.0591 11.7335 34.5931 11.7335C35.4343 11.7335 36.0885 11.5856 36.5425 11.2899C36.9964 10.9942 37.2367 10.564 37.2367 10.0129C37.2367 9.63653 37.1166 9.32737 36.8763 9.07196C36.6359 8.81656 36.182 8.58805 35.5277 8.37297L33.5918 7.76808C32.6171 7.45891 31.8961 7.00187 31.4555 6.39698C31.0149 5.80552 30.7879 5.14686 30.7879 4.44787C30.7879 3.8833 30.9081 3.38594 31.1484 2.95579C31.3888 2.52564 31.7092 2.14926 32.1097 1.85353C32.5103 1.54436 32.9642 1.31585 33.4983 1.15454C34.0324 0.993236 34.5931 0.926025 35.1806 0.926025C35.4743 0.926025 35.7814 0.939468 36.0752 0.979794C36.3822 1.02012 36.6626 1.07389 36.943 1.12766C37.21 1.19487 37.4637 1.26208 37.7041 1.34273C37.9444 1.42338 38.1313 1.50404 38.2648 1.58469C38.4517 1.69223 38.5853 1.79976 38.6654 1.92074C38.7455 2.02828 38.7855 2.17614 38.7855 2.36433V2.99612C38.7855 3.2784 38.6787 3.42626 38.4784 3.42626C38.3716 3.42626 38.1981 3.3725 37.9711 3.26496C37.21 2.91546 36.3555 2.74071 35.4076 2.74071C34.6465 2.74071 34.0457 2.86169 33.6318 3.11709C33.2179 3.3725 33.0043 3.76232 33.0043 4.31345C33.0043 4.68983 33.1378 5.01244 33.4048 5.26784C33.6719 5.52324 34.1659 5.77864 34.8735 6.00716L36.7694 6.61205C37.7308 6.92122 38.425 7.35137 38.8389 7.9025C39.2528 8.45363 39.4531 9.08541 39.4531 9.7844C39.4531 10.3624 39.3329 10.8867 39.106 11.3437C38.8656 11.8007 38.5452 12.204 38.1313 12.5266C37.7174 12.8626 37.2234 13.1046 36.6493 13.2794C36.0485 13.4675 35.4209 13.5616 34.74 13.5616Z" fill="#EFEFF1"/>
<path fill-rule="evenodd" clip-rule="evenodd" d="M37.2635 20.0947C32.8709 23.3611 26.4888 25.0952 21.0013 25.0952C13.3108 25.0952 6.38133 22.232 1.14751 17.4735C0.733612 17.0971 1.10746 16.5863 1.60146 16.882C7.26254 20.1888 14.2454 22.1917 21.4686 22.1917C26.3419 22.1917 31.6959 21.1701 36.6227 19.0731C37.357 18.737 37.9845 19.557 37.2635 20.0947Z" fill="#FF9900"/>
<path fill-rule="evenodd" clip-rule="evenodd" d="M39.0927 17.9976C38.5319 17.2717 35.3809 17.6481 33.9523 17.8228C33.5251 17.8766 33.4583 17.5002 33.8455 17.2179C36.3556 15.4436 40.4812 15.9544 40.9619 16.5458C41.4425 17.1507 40.8284 21.3043 38.4785 23.2938C38.118 23.6029 37.7709 23.4416 37.9311 23.0384C38.4651 21.7076 39.6534 18.71 39.0927 17.9976Z" fill="#FF9900"/>
</svg>
