<svg width="136" height="24" viewBox="0 0 136 24" fill="none" xmlns="http://www.w3.org/2000/svg">
<path d="M68.6536 18.6286C67.8641 18.6479 67.079 18.5065 66.3466 18.213C65.6142 17.9195 64.9499 17.4802 64.3946 16.922C63.3037 15.7607 62.6969 14.2311 62.6969 12.6422C62.6969 11.0533 63.3037 9.52369 64.3946 8.3624C65.156 7.56221 66.1419 7.00815 67.2243 6.77222C68.3066 6.53629 69.4353 6.62939 70.4637 7.03943C71.0298 7.28623 71.5445 7.63624 71.981 8.07135C72.3687 8.44124 72.7126 8.85405 73.0058 9.30171C73.2444 9.67337 73.4451 10.0678 73.6047 10.4791L73.8709 11.1539L65.7788 14.4613C66.0206 15.0248 66.4286 15.5022 66.949 15.8305C67.4694 16.1588 68.0776 16.3226 68.6936 16.3002C69.2908 16.3009 69.8777 16.1462 70.3961 15.8514C70.9145 15.5566 71.3462 15.1321 71.6483 14.62L73.6846 15.943C73.1595 16.6724 72.5001 17.2964 71.7414 17.7819C70.8081 18.3412 69.7289 18.6128 68.6403 18.5625L68.6536 18.6286ZM65.3263 12.4371L70.65 10.2146C70.489 9.82154 70.1979 9.49488 69.8249 9.28847C69.4144 9.07183 68.9585 8.95401 68.4939 8.9445C68.0544 8.96478 67.6234 9.0715 67.2256 9.25847C66.8279 9.44544 66.4714 9.70895 66.1769 10.0338C65.8823 10.3586 65.6554 10.7382 65.5094 11.1508C65.3634 11.5633 65.3011 12.0005 65.3263 12.4371Z" fill="#EA4335"/>
<path fill-rule="evenodd" clip-rule="evenodd" d="M29.4839 16.9222C28.6335 17.7619 27.552 18.3325 26.3758 18.5621C25.1996 18.7916 23.9814 18.6698 22.8747 18.2121C21.7681 17.7543 20.8226 16.981 20.1574 15.9898C19.4923 14.9986 19.1374 13.8338 19.1374 12.6424C19.1374 11.4509 19.4923 10.2861 20.1574 9.29488C20.8226 8.30366 21.7681 7.53041 22.8747 7.07264C23.9814 6.61487 25.1996 6.49309 26.3758 6.72265C27.552 6.95221 28.6335 7.52283 29.4839 8.36255C30.6019 9.51006 31.2271 11.0449 31.2271 12.6424C31.2271 14.2398 30.6019 15.7746 29.4839 16.9222ZM23.8594 15.9771C23.4697 15.7975 23.1196 15.5432 22.8291 15.2288H22.8025C22.4623 14.8801 22.1989 14.4646 22.0293 14.009C21.8598 13.5534 21.7876 13.0677 21.8176 12.5828C21.7988 12.098 21.8774 11.6143 22.0488 11.16C22.2202 10.7057 22.4809 10.2899 22.8158 9.93689L22.9223 9.84428C23.56 9.24009 24.4127 8.91194 25.2934 8.93178C26.1742 8.95162 27.0111 9.31783 27.6205 9.95011C27.9554 10.3031 28.2162 10.7189 28.3876 11.1732C28.559 11.6275 28.6376 12.1112 28.6188 12.596C28.6445 13.0816 28.5692 13.5673 28.3974 14.0226C28.2257 14.4779 27.9612 14.893 27.6205 15.242L27.4475 15.414C27.1325 15.7042 26.7629 15.9296 26.36 16.0774C25.9571 16.2252 25.5287 16.2924 25.0996 16.2752C24.6705 16.258 24.249 16.1567 23.8594 15.9771Z" fill="#EA4335"/>
<path d="M4.2442 17.11C5.78576 18.1046 7.58882 18.6238 9.42653 18.6022C10.6305 18.6414 11.8292 18.4271 12.9439 17.9734C14.0587 17.5197 15.0644 16.8368 15.8949 15.9695C16.6453 15.1796 17.2287 14.248 17.6105 13.23C17.9923 12.2119 18.1647 11.1281 18.1176 10.0426C18.1312 9.51518 18.0911 8.98772 17.9978 8.4683H9.42653V11.0613H15.4823C15.383 12.216 14.9169 13.3094 14.1514 14.1835C12.8718 15.4326 11.1454 16.1253 9.35205 16.1092C7.55866 16.0931 5.84518 15.3694 4.58854 14.0975C3.3319 12.8256 2.63504 11.1096 2.65127 9.32695C2.66749 7.54432 3.39547 5.84111 4.67505 4.592C5.28348 3.94674 6.01979 3.43376 6.83756 3.08539C7.65534 2.73701 8.53684 2.56081 9.42653 2.56787C11.1224 2.57098 12.7503 3.23058 13.9651 4.40679L15.8151 2.56787C14.9754 1.73559 13.976 1.07953 12.8762 0.63864C11.7765 0.197747 10.5989 -0.0189913 9.41322 0.00130435C8.17411 -0.00507222 6.94638 0.236439 5.80312 0.711459C4.65985 1.18648 3.62443 1.8853 2.75849 2.76631C2.71308 2.81807 2.66416 2.8667 2.61208 2.91183C1.33598 4.22647 0.479535 5.8869 0.150518 7.6842C-0.178498 9.4815 0.0346099 11.3354 0.763029 13.0126C1.49145 14.6898 2.70264 16.1154 4.2442 17.11Z" fill="#4285F4"/>
<path d="M87.6468 18.6025C86.5544 18.6218 85.4688 18.427 84.4522 18.0291C83.4355 17.6313 82.5076 17.0383 81.7216 16.284C80.9355 15.5297 80.3066 14.6288 79.8709 13.6328C79.4351 12.6369 79.2011 11.5654 79.182 10.4795V10.1355C79.1555 9.04785 79.3448 7.96565 79.7392 6.95075C80.1335 5.93585 80.7252 5.00813 81.4804 4.22061C82.2356 3.43308 83.1395 2.80118 84.1405 2.36101C85.1414 1.92085 86.2198 1.68104 87.3141 1.65529H87.6468C88.7828 1.62122 89.9121 1.8413 90.951 2.29928C91.99 2.75725 92.9121 3.44142 93.6494 4.30122L92.3184 5.7168C91.7807 5.04227 91.091 4.50284 90.3049 4.14204C89.5189 3.78124 88.6585 3.60918 87.7932 3.63974C86.955 3.62578 86.1226 3.78163 85.3469 4.09778C84.5712 4.41394 83.8684 4.88378 83.2813 5.47867C82.1 6.75567 81.4444 8.42717 81.4444 10.162C81.4444 11.8968 82.1 13.5683 83.2813 14.8453C83.8694 15.4389 84.5723 15.9079 85.3478 16.224C86.1233 16.5401 86.9552 16.6966 87.7932 16.6842C88.7583 16.6919 89.713 16.4858 90.5879 16.0807C91.4627 15.6756 92.2358 15.0819 92.8508 14.3425L94.3015 15.7846C93.5433 16.6916 92.5876 17.4155 91.5066 17.9013C90.2933 18.4333 88.971 18.6735 87.6468 18.6025Z" fill="#EFEFF1"/>
<path d="M98.0947 18.2446H95.9386V1.99854H98.0415L98.0947 18.2446Z" fill="#EFEFF1"/>
<path d="M101.475 8.46774C102.571 7.38196 104.054 6.77222 105.601 6.77222C107.148 6.77222 108.632 7.38196 109.727 8.46774C110.768 9.63034 111.342 11.1321 111.342 12.688C111.342 14.2439 110.768 15.7457 109.727 16.9083C108.629 17.9876 107.146 18.593 105.601 18.593C104.057 18.593 102.574 17.9876 101.475 16.9083C100.435 15.7457 99.8605 14.2439 99.8605 12.688C99.8605 11.1321 100.435 9.63034 101.475 8.46774ZM103.033 15.5985C103.348 15.9354 103.728 16.2067 104.15 16.3966C104.572 16.5865 105.028 16.6912 105.491 16.7048C105.954 16.7183 106.415 16.6403 106.848 16.4754C107.28 16.3105 107.675 16.0619 108.01 15.7441L108.143 15.6118C108.846 14.8003 109.233 13.7652 109.233 12.6946C109.233 11.624 108.846 10.5889 108.143 9.77748C107.828 9.44454 107.45 9.17664 107.03 8.98911C106.611 8.80158 106.158 8.6981 105.698 8.68459C105.238 8.67107 104.78 8.74778 104.35 8.91034C103.92 9.0729 103.527 9.31811 103.192 9.63196L103.046 9.76425C102.677 10.1542 102.392 10.6142 102.206 11.1166C102.021 11.6191 101.94 12.1536 101.968 12.688C101.949 13.2186 102.036 13.7476 102.223 14.2448C102.41 14.7419 102.695 15.1975 103.059 15.5853L103.033 15.5985Z" fill="#EFEFF1"/>
<path d="M122.983 18.2447H120.973V16.7101C120.595 17.2621 120.088 17.7158 119.496 18.033C118.861 18.3991 118.14 18.5909 117.407 18.5887C116.811 18.6185 116.215 18.5151 115.665 18.2861C115.115 18.0572 114.623 17.7085 114.226 17.2657C113.463 16.3059 113.084 15.0997 113.161 13.8789V7.14502H115.25V13.6143C115.25 15.6782 116.169 16.7233 118.019 16.7233C118.426 16.7337 118.831 16.648 119.198 16.4732C119.566 16.2985 119.887 16.0396 120.135 15.7179C120.668 15.0104 120.937 14.1401 120.894 13.2571V7.14502H122.983V18.2447Z" fill="#EFEFF1"/>
<path d="M130.104 18.6018C129.404 18.5988 128.714 18.4474 128.078 18.1577C127.442 17.8679 126.876 17.4465 126.417 16.9216C125.406 15.7453 124.85 14.2487 124.85 12.7013C124.85 11.154 125.406 9.65739 126.417 8.48107C127.138 7.65403 128.117 7.09025 129.197 6.87931C130.277 6.66837 131.398 6.82238 132.38 7.31687C132.993 7.62345 133.52 8.07836 133.91 8.63983H134.003L133.91 7.14488V1.99854H136V18.2446H133.964V16.7099C133.573 17.2714 133.047 17.7263 132.433 18.0329C131.719 18.4191 130.917 18.6151 130.104 18.6018ZM130.437 16.7761C130.913 16.7768 131.384 16.6783 131.819 16.4869C132.255 16.2955 132.645 16.0154 132.965 15.6648C133.672 14.8636 134.03 13.8174 133.964 12.7543C134.03 11.6832 133.672 10.6287 132.965 9.81728C132.356 9.14888 131.505 8.74829 130.599 8.70363C129.693 8.65897 128.806 8.9739 128.134 9.57914L127.881 9.79082C127.226 10.6238 126.87 11.6507 126.87 12.708C126.87 13.7653 127.226 14.7922 127.881 15.6251C128.205 15.9679 128.597 16.2401 129.032 16.4245C129.468 16.609 129.937 16.7017 130.41 16.6967L130.437 16.7761Z" fill="#EFEFF1"/>
<path fill-rule="evenodd" clip-rule="evenodd" d="M42.607 16.922C41.7559 17.7662 40.6721 18.3407 39.4926 18.5729C38.313 18.8051 37.0908 18.6846 35.9801 18.2266C34.8695 17.7686 33.9203 16.9937 33.2525 15.9997C32.5848 15.0058 32.2284 13.8374 32.2284 12.6422C32.2284 11.4469 32.5848 10.2785 33.2525 9.28457C33.9203 8.2906 34.8695 7.51567 35.9801 7.05768C37.0908 6.59969 38.313 6.47919 39.4926 6.7114C40.6721 6.94362 41.7559 7.51813 42.607 8.36235C43.7123 9.518 44.3264 11.0529 44.3215 12.6475C44.3165 14.242 43.6929 15.7731 42.5804 16.922H42.607ZM36.9791 15.9761C36.5906 15.7967 36.2416 15.5426 35.9523 15.2286V15.3212C35.6169 14.968 35.3548 14.5525 35.1813 14.0984C35.0077 13.6444 34.926 13.1607 34.9408 12.6752C34.9159 12.1886 34.993 11.7022 35.1671 11.2467C35.3412 10.7913 35.6086 10.3767 35.9523 10.0293L36.0455 9.93669C36.683 9.34631 37.5281 9.02807 38.3991 9.05033C39.2701 9.0726 40.0976 9.43359 40.7038 10.0558C41.3538 10.7648 41.7141 11.6895 41.7141 12.6488C41.7141 13.608 41.3538 14.5327 40.7038 15.2418L40.5574 15.4138C40.2435 15.7036 39.875 15.9288 39.4732 16.0764C39.0714 16.224 38.6441 16.2911 38.2161 16.2739C37.788 16.2567 37.3676 16.1555 36.9791 15.9761Z" fill="#FBBC05"/>
<path fill-rule="evenodd" clip-rule="evenodd" d="M51.2847 23.9999C50.099 24.0057 48.9441 23.6246 47.9973 22.9151C47.1433 22.27 46.4698 21.4183 46.0408 20.4411L48.3566 19.4886C48.5997 20.0744 48.9947 20.5856 49.5012 20.9703C50.0154 21.3985 50.6673 21.6286 51.3379 21.6186C51.7743 21.643 52.211 21.5755 52.6192 21.4205C53.0275 21.2655 53.3982 21.0264 53.707 20.719C54.3148 19.9756 54.6104 19.0277 54.5322 18.073V17.2131H54.439C54.0531 17.6623 53.5669 18.0159 53.0193 18.2455C52.4717 18.4752 51.8778 18.5747 51.2847 18.5361C50.5231 18.5512 49.7665 18.4112 49.0614 18.1245C48.3564 17.8378 47.7179 17.4105 47.1854 16.8691C46.6152 16.332 46.1599 15.6861 45.8466 14.9701C45.5333 14.254 45.3685 13.4826 45.362 12.7018C45.3479 11.913 45.4978 11.1298 45.8024 10.4013C46.107 9.67284 46.5597 9.01474 47.1322 8.46828C47.6376 7.90977 48.2524 7.45976 48.939 7.14582C49.6256 6.83188 50.3695 6.66064 51.125 6.64258C51.7625 6.64802 52.392 6.78309 52.975 7.03947C53.4802 7.26202 53.9334 7.58637 54.306 7.99201H54.3991V7.03947H56.9412V17.7291C57.0019 18.5771 56.8905 19.4286 56.6139 20.2331C56.3373 21.0376 55.9009 21.7786 55.3308 22.4124C54.2243 23.4487 52.7513 24.0096 51.2315 23.9735L51.2847 23.9999ZM52.7146 16.0207C52.3237 16.1945 51.8992 16.2808 51.471 16.2738L51.4843 16.2473C51.0233 16.2622 50.5645 16.1777 50.1395 15.9996C49.7144 15.8215 49.3332 15.5539 49.0221 15.2154C48.3578 14.5139 47.9946 13.5828 48.0095 12.6195C48.0245 11.6563 48.4163 10.7367 49.102 10.0558C49.4049 9.7303 49.774 9.47236 50.1846 9.29904C50.5953 9.12572 51.0383 9.04097 51.4843 9.05038C51.9125 9.04332 52.337 9.12969 52.7279 9.30342C53.1189 9.47714 53.4667 9.73398 53.747 10.0558C54.3893 10.7853 54.7231 11.7334 54.6786 12.7018C54.7126 13.6471 54.3735 14.5681 53.7336 15.2683C53.4534 15.5902 53.1056 15.847 52.7146 16.0207Z" fill="#4285F4"/>
<path d="M61.4532 18.2583V0.702485L58.7913 0.676025V18.2583H61.4532Z" fill="#34A853"/>
</svg>
