<svg width="86" height="25" viewBox="0 0 86 25" fill="none" xmlns="http://www.w3.org/2000/svg">
<path d="M35.0592 14.1102L38.7276 23.85H36.8645L36.0036 21.4215H32.1649L31.3361 23.8403H29.489L33.1575 14.1006L35.0592 14.1102ZM34.0537 15.9188L32.6146 20.0177H35.5346L34.1019 15.9188H34.0537Z" fill="#EFEFF1"/>
<path d="M39.5498 16.8696H45.1264V17.5282L41.4643 22.5458H45.1456V23.85H39.2928V23.0694L42.897 18.1706H39.5498V16.8696Z" fill="#EFEFF1"/>
<path d="M52.1391 16.8696V23.85H50.4848V22.9313H50.4559C50.2341 23.2496 49.9329 23.5043 49.5821 23.6701C49.2008 23.8542 48.7817 23.9466 48.3582 23.9399C48.0184 23.9637 47.6774 23.9144 47.3582 23.7953C47.039 23.6761 46.7491 23.49 46.5079 23.2493C46.0796 22.791 45.8655 22.0768 45.8655 21.1067V16.8696H47.5455V20.9172C47.5112 21.386 47.6344 21.853 47.8957 22.2438C48.0242 22.3961 48.187 22.5156 48.3707 22.5927C48.5545 22.6698 48.7538 22.7021 48.9525 22.6871C49.1639 22.6954 49.3745 22.6555 49.5681 22.5703C49.7618 22.4852 49.9336 22.357 50.0704 22.1957C50.3642 21.8337 50.5151 21.3765 50.4944 20.9107V16.8696H52.1391Z" fill="#EFEFF1"/>
<path d="M57.0892 16.7539C57.2075 16.7519 57.3258 16.7605 57.4426 16.7796C57.532 16.7952 57.6201 16.8177 57.706 16.8471V18.5111C57.5902 18.4329 57.4636 18.3723 57.3301 18.3312C57.1359 18.2702 56.9329 18.2419 56.7294 18.2477C56.5316 18.2479 56.3364 18.2938 56.1593 18.3819C55.9821 18.4699 55.8276 18.5977 55.7079 18.7552C55.3938 19.216 55.2465 19.7701 55.2903 20.326V23.8596H53.6488V16.8696H55.2935V17.9682H55.3192C55.4525 17.6095 55.6896 17.2986 56.0002 17.0752C56.3199 16.8552 56.7013 16.7427 57.0892 16.7539Z" fill="#EFEFF1"/>
<path d="M63.6231 22.0898V23.4421C63.2927 23.6384 62.9324 23.7795 62.5566 23.8597C62.0956 23.9687 61.6233 24.0226 61.1496 24.0204C60.693 24.0472 60.2358 23.977 59.8083 23.8142C59.3809 23.6514 58.9928 23.3998 58.6697 23.0759C58.0786 22.4463 57.7831 21.5704 57.7831 20.4483C57.7456 19.469 58.0847 18.5126 58.7307 17.7756C59.0291 17.4351 59.3987 17.1645 59.8134 16.983C60.2282 16.8014 60.6778 16.7134 61.1303 16.7252C61.5469 16.702 61.9636 16.7692 62.3517 16.9222C62.7399 17.0753 63.0903 17.3105 63.3789 17.6118C63.9143 18.2029 64.182 19.0188 64.182 20.0596V20.8562H59.4053C59.4792 21.5565 59.704 22.048 60.0799 22.3243C60.5101 22.6184 61.0241 22.765 61.5447 22.7419C61.9279 22.7448 62.309 22.684 62.6722 22.562C63.0108 22.4524 63.3312 22.2932 63.6231 22.0898V22.0898ZM62.5694 19.6516C62.6003 19.2052 62.4666 18.763 62.1936 18.4084C62.0585 18.2637 61.8932 18.1505 61.7094 18.0766C61.5257 18.0028 61.328 17.9702 61.1303 17.9812C60.7356 17.981 60.356 18.1329 60.0703 18.4052C59.7312 18.7409 59.5122 19.179 59.4471 19.6516H62.5694Z" fill="#EFEFF1"/>
<path d="M40.61 0.72116V10.4609H38.9171V2.82523H38.8914L35.8687 10.4609H34.7476L31.6509 2.82523H31.6316V10.4609H30.0672V0.72116H32.4925L35.2904 7.92961H35.3386L38.2907 0.711524L40.61 0.72116ZM42.0235 1.45999C42.0206 1.33187 42.0455 1.20463 42.0965 1.08707C42.1475 0.969499 42.2234 0.86439 42.319 0.778982C42.5122 0.599019 42.7665 0.498962 43.0305 0.498962C43.2946 0.498962 43.5488 0.599019 43.7421 0.778982C43.8334 0.865798 43.906 0.97049 43.9552 1.08654C44.0043 1.2026 44.0291 1.32753 44.0279 1.45357C44.0299 1.58032 44.0048 1.70603 43.9544 1.82234C43.904 1.93865 43.8294 2.0429 43.7356 2.12816C43.542 2.30735 43.2862 2.40413 43.0225 2.39799C42.892 2.40174 42.762 2.37954 42.6401 2.33267C42.5183 2.28579 42.4069 2.21519 42.3126 2.12494C42.2206 2.04049 42.1473 1.93767 42.0975 1.82313C42.0477 1.70859 42.0225 1.58489 42.0235 1.45999V1.45999ZM43.8352 3.47733V10.4609H42.1937V3.47733H43.8352ZM48.8207 9.25951C49.0986 9.25208 49.3729 9.19439 49.6302 9.08926C49.9207 8.97788 50.1943 8.82652 50.443 8.63953V10.1782C50.1633 10.3344 49.8625 10.4491 49.5499 10.5187C49.1904 10.5989 48.8229 10.6377 48.4545 10.6344C47.9927 10.6563 47.5313 10.5816 47.1 10.4151C46.6686 10.2487 46.2767 9.99406 45.9493 9.66758C45.6219 9.34109 45.3662 8.9499 45.1986 8.51901C45.0309 8.08811 44.955 7.62698 44.9756 7.16508C44.941 6.14923 45.2961 5.15861 45.9682 4.39606C46.6256 3.66793 47.5561 3.30387 48.7597 3.30387C49.0749 3.30581 49.3888 3.34571 49.6945 3.42272C49.9546 3.48279 50.2061 3.57562 50.443 3.69898V5.27302C50.2034 5.09665 49.9422 4.95197 49.6656 4.84257C49.4072 4.7434 49.1328 4.69224 48.8561 4.69159C48.5636 4.68111 48.2723 4.73298 48.0015 4.84375C47.7307 4.95452 47.4865 5.12166 47.2852 5.33405C46.8696 5.80197 46.6549 6.41477 46.6877 7.03979C46.6699 7.33934 46.7116 7.63944 46.8102 7.92282C46.9089 8.2062 47.0627 8.46725 47.2628 8.69093C47.4701 8.88995 47.7165 9.04381 47.9863 9.14278C48.2561 9.24175 48.5435 9.28368 48.8304 9.26593L48.8207 9.25951ZM55.1233 3.35526C55.2417 3.35402 55.36 3.3637 55.4767 3.38417C55.5678 3.39668 55.6572 3.4193 55.7433 3.45163V5.11561C55.6264 5.0375 55.4987 4.97689 55.3642 4.93573C55.17 4.87469 54.967 4.84646 54.7635 4.8522C54.5657 4.85245 54.3705 4.89838 54.1934 4.98641C54.0162 5.07445 53.8617 5.20222 53.742 5.35975C53.4281 5.82169 53.2819 6.37718 53.3276 6.93379V10.4673H51.6829V3.47733H53.3276V4.57916H53.3533C53.4866 4.22048 53.7237 3.90961 54.0343 3.68613C54.3539 3.46564 54.7351 3.35206 55.1233 3.36169V3.35526ZM55.83 7.06549C55.8036 6.56614 55.8766 6.06652 56.0448 5.5956C56.213 5.12468 56.473 4.69184 56.8098 4.32217C57.4522 3.64758 58.357 3.31029 59.5242 3.31029C59.9963 3.28019 60.4695 3.35052 60.9124 3.51663C61.3554 3.68274 61.7581 3.94087 62.094 4.27399C62.735 4.99583 63.0661 5.94086 63.016 6.90488C63.0408 7.39822 62.9669 7.89156 62.7987 8.35599C62.6304 8.82043 62.3712 9.24663 62.0362 9.60965C61.6867 9.95233 61.2698 10.2186 60.8119 10.3917C60.3541 10.5648 59.8652 10.6409 59.3764 10.6151C58.9052 10.6366 58.4344 10.5622 57.9927 10.3966C57.551 10.231 57.1475 9.97745 56.8066 9.65141C56.4791 9.30889 56.224 8.90402 56.0562 8.46088C55.8884 8.01774 55.8115 7.54539 55.83 7.07192V7.06549ZM57.5422 7.01088C57.5008 7.60906 57.6764 8.20211 58.0369 8.68129C58.2152 8.87776 58.4353 9.0317 58.6811 9.13177C58.9268 9.23185 59.1919 9.2755 59.4567 9.25951C59.7136 9.27597 59.9707 9.23228 60.2077 9.1319C60.4447 9.03152 60.6551 8.87723 60.822 8.68129C61.1695 8.1798 61.335 7.57448 61.291 6.96591C61.3352 6.35994 61.1634 5.75788 60.8059 5.26659C60.6339 5.0761 60.4206 4.92754 60.1822 4.83232C59.9439 4.7371 59.6869 4.69775 59.431 4.71729C59.1666 4.70296 58.9025 4.74969 58.659 4.85386C58.4156 4.95803 58.1994 5.11684 58.0272 5.31799C57.6745 5.81156 57.5031 6.41188 57.5422 7.01731V7.01088ZM65.4477 5.30514C65.442 5.40814 65.4592 5.51112 65.498 5.60667C65.5369 5.70222 65.5965 5.78794 65.6726 5.85766C65.9749 6.07571 66.3085 6.24682 66.662 6.36521C67.1893 6.54238 67.6649 6.84691 68.0465 7.25181C68.3135 7.59061 68.4534 8.01233 68.4416 8.44358C68.45 8.74845 68.386 9.05098 68.2548 9.32629C68.1235 9.6016 67.9288 9.84183 67.6867 10.0273C67.0916 10.4542 66.3685 10.665 65.6372 10.6247C65.3133 10.6214 64.9905 10.5859 64.6735 10.5187C64.3669 10.4616 64.0675 10.3711 63.7805 10.2489V8.64274C64.078 8.85035 64.4021 9.01675 64.7442 9.13744C65.0437 9.25348 65.3611 9.31652 65.6822 9.32375C65.9652 9.34139 66.2481 9.28725 66.5046 9.16635C66.5929 9.11229 66.6644 9.03462 66.7109 8.9421C66.7574 8.84958 66.7772 8.74589 66.768 8.64274C66.7686 8.53253 66.7444 8.42359 66.6972 8.32403C66.6499 8.22447 66.5808 8.13686 66.4949 8.06774C66.1737 7.84022 65.8223 7.65859 65.4509 7.52807C64.9595 7.35187 64.5185 7.05859 64.166 6.67359C63.9033 6.32718 63.7693 5.90016 63.7869 5.46576C63.7817 5.16629 63.847 4.86979 63.9775 4.60025C64.1081 4.3307 64.3003 4.09568 64.5386 3.91421C65.0941 3.48787 65.7825 3.27169 66.4821 3.30387C66.7581 3.30745 67.0333 3.3354 67.3044 3.38739C67.5648 3.43004 67.82 3.50003 68.0657 3.59619V5.16059C67.8281 5.00492 67.5725 4.87871 67.3044 4.78475C67.0284 4.68454 66.7372 4.63238 66.4435 4.63055C66.1864 4.61566 65.9309 4.67954 65.7111 4.81366C65.6286 4.86753 65.5612 4.94149 65.5151 5.02858C65.469 5.11568 65.4458 5.21305 65.4477 5.31157V5.30514ZM69.1483 7.06549C69.1219 6.56614 69.1949 6.06652 69.3631 5.5956C69.5313 5.12468 69.7913 4.69184 70.1281 4.32217C70.7705 3.64758 71.6828 3.31029 72.8425 3.31029C73.3146 3.28019 73.7877 3.35052 74.2307 3.51663C74.6737 3.68274 75.0764 3.94087 75.4123 4.27399C76.0532 4.99583 76.3844 5.94086 76.3343 6.90488C76.359 7.39822 76.2852 7.89156 76.1169 8.35599C75.9487 8.82043 75.6895 9.24663 75.3545 9.60965C75.005 9.95233 74.5881 10.2186 74.1302 10.3917C73.6723 10.5648 73.1835 10.6409 72.6947 10.6151C72.2234 10.6366 71.7527 10.5622 71.311 10.3966C70.8693 10.231 70.4658 9.97745 70.1248 9.65141C69.7974 9.30889 69.5423 8.90402 69.3745 8.46088C69.2067 8.01774 69.1298 7.54539 69.1483 7.07192V7.06549ZM70.8605 7.01088C70.8191 7.60906 70.9947 8.20211 71.3552 8.68129C71.5332 8.87813 71.7533 9.03232 71.9991 9.13243C72.2449 9.23253 72.5101 9.27596 72.775 9.25951C73.0319 9.27597 73.289 9.23228 73.526 9.1319C73.763 9.03152 73.9733 8.87723 74.1402 8.68129C74.4878 8.1798 74.6533 7.57448 74.6092 6.96591C74.6535 6.35994 74.4817 5.75788 74.1242 5.26659C73.9536 5.07788 73.7423 4.93039 73.5064 4.83523C73.2704 4.74008 73.016 4.69975 72.7622 4.71729C72.4977 4.70271 72.2335 4.74933 71.99 4.85352C71.7466 4.95771 71.5304 5.11665 71.3584 5.31799C71.001 5.80988 70.8251 6.41035 70.8605 7.01731V7.01088ZM81.7823 4.81687H79.3346V10.4609H77.6706V4.82329H76.5045V3.47733H77.6706V2.51364C77.6583 2.1793 77.7153 1.84603 77.838 1.53479C77.9607 1.22355 78.1465 0.941062 78.3837 0.705099C78.6271 0.470529 78.9152 0.287354 79.2309 0.166492C79.5466 0.0456288 79.8834 -0.0104487 80.2212 0.00160067C80.3983 0.000356942 80.5753 0.0100122 80.7512 0.0305116C80.8898 0.0484562 81.0265 0.0796513 81.1592 0.123669V1.54351C81.0676 1.49628 80.9719 1.45757 80.8733 1.42787C80.7215 1.38047 80.5632 1.35769 80.4043 1.36041C80.2564 1.35113 80.1083 1.37518 79.971 1.43078C79.8337 1.48638 79.7106 1.57211 79.6108 1.68164C79.4035 1.95816 79.3041 2.3008 79.3313 2.64534V3.48697H81.7791V1.90972L83.4303 1.40538V3.47733H85.0943V4.82329H83.4303V8.09022C83.3988 8.41142 83.4818 8.73341 83.6648 8.99931C83.7608 9.09426 83.8764 9.16726 84.0033 9.21329C84.1303 9.25932 84.2658 9.27728 84.4004 9.26593C84.5182 9.26238 84.6345 9.23847 84.7441 9.19526C84.8671 9.15663 84.9847 9.10267 85.0943 9.03465V10.3935C84.9295 10.4719 84.7542 10.526 84.5739 10.5541C84.3384 10.6048 84.0983 10.6306 83.8575 10.6312C83.5734 10.6525 83.288 10.614 83.0197 10.5183C82.7513 10.4226 82.506 10.2717 82.2995 10.0754C81.9191 9.60681 81.7328 9.0101 81.7791 8.40824L81.7823 4.81687Z" fill="#EFEFF1"/>
<path d="M10.9926 0.721191H0V11.7138H10.9926V0.721191Z" fill="#F25022"/>
<path d="M23.1289 0.721191H12.1363V11.7138H23.1289V0.721191Z" fill="#7FBA00"/>
<path d="M10.9926 12.8574H6.10352e-05V23.85H10.9926V12.8574Z" fill="#00A4EF"/>
<path d="M23.1289 12.8574H12.1363V23.85H23.1289V12.8574Z" fill="#FFB900"/>
</svg>
