<svg width="190" height="24" viewBox="0 0 190 24" fill="none" xmlns="http://www.w3.org/2000/svg">
<path d="M78.8893 15.2281H90.9642L84.5794 5.10685L72.8611 23.4065H67.5279L81.7813 1.42474C82.401 0.53658 83.4338 0 84.5794 0C85.6873 0 86.7202 0.518079 87.3211 1.38772L101.631 23.4065H96.2976L93.7812 19.3173H81.5559L78.8893 15.2281ZM134.288 19.3173V0.222037H129.762V21.1861C129.762 21.7597 129.987 22.3148 130.419 22.7404C130.851 23.166 131.433 23.4065 132.072 23.4065H152.71L155.377 19.3173H134.288ZM59.4154 15.8942C63.8097 15.8942 67.3778 12.3971 67.3778 8.06738C67.3778 3.73765 63.8097 0.222037 59.4154 0.222037H39.6164V23.4065H44.1404V4.31124H59.1149C61.2182 4.31124 62.9083 5.99502 62.9083 8.06738C62.9083 10.1397 61.2182 11.8235 59.1149 11.8235L46.3564 11.805L59.866 23.4065H66.4388L57.3497 15.8942H59.4154ZM11.7671 23.4065C5.27135 23.4065 0 18.2256 0 11.8235C0 5.42142 5.27135 0.222037 11.7671 0.222037H25.4439C31.9414 0.222037 37.209 5.42142 37.209 11.8235C37.209 18.2256 31.9414 23.4065 25.4439 23.4065H11.7671ZM25.1396 19.3173C29.3481 19.3173 32.7565 15.9682 32.7565 11.8235C32.7565 7.67881 29.3481 4.31124 25.1396 4.31124H12.0694C7.86287 4.31124 4.4525 7.67881 4.4525 11.8235C4.4525 15.9682 7.86287 19.3173 12.0694 19.3173H25.1396ZM111.077 23.4065C104.579 23.4065 99.3022 18.2256 99.3022 11.8235C99.3022 5.42142 104.579 0.222037 111.077 0.222037H127.321L124.673 4.31124H111.377C107.171 4.31124 103.753 7.67881 103.753 11.8235C103.753 15.9682 107.171 19.3173 111.377 19.3173H127.696L125.03 23.4065H111.077ZM166.419 19.3173C162.945 19.3173 159.996 17.0229 159.095 13.8588H178.437L181.104 9.76965H159.095C159.996 6.62412 162.945 4.31124 166.419 4.31124H179.696L182.381 0.222037H166.118C159.621 0.222037 154.344 5.42142 154.344 11.8235C154.344 18.2256 159.621 23.4065 166.118 23.4065H180.071L182.738 19.3173H166.419Z" fill="#C74634"/>
<path d="M184.804 2.68272C184.804 1.55402 185.724 0.647378 186.87 0.647378C188.034 0.647378 188.954 1.55402 188.954 2.68272C188.954 3.8299 188.034 4.73658 186.87 4.73658C185.724 4.73658 184.804 3.8299 184.804 2.68272ZM186.87 5.31018C188.334 5.31018 189.517 4.14447 189.517 2.70123C189.517 1.25799 188.334 0.0922852 186.87 0.0922852C185.424 0.0922852 184.241 1.25799 184.241 2.70123C184.241 4.14447 185.424 5.31018 186.87 5.31018ZM186.626 1.14697C187.039 1.14697 187.208 1.16546 187.396 1.23947C187.921 1.40601 187.978 1.86859 187.978 2.05363C187.978 2.09063 187.978 2.18314 187.94 2.29415C187.921 2.40518 187.846 2.62722 187.583 2.79374C187.546 2.81225 187.527 2.83075 187.452 2.86775L188.128 4.07047H187.471L186.87 2.96026H186.457V4.07047H185.874V1.14697H186.626ZM186.832 2.47919C187.02 2.4607 187.208 2.46069 187.32 2.29415C187.377 2.22014 187.396 2.14613 187.396 2.0351C187.396 1.88709 187.302 1.75758 187.17 1.68356C187.039 1.62806 186.907 1.62806 186.626 1.62806H186.457V2.47919H186.832Z" fill="#C74634"/>
</svg>
