<svg width="2480" height="606" viewBox="0 0 2480 606" fill="none" xmlns="http://www.w3.org/2000/svg">
<mask id="mask0_83_11984" style="mask-type:alpha" maskUnits="userSpaceOnUse" x="1534" y="0" width="946" height="606">
<path d="M1534 606L1534 0L2480 1.12809e-05V606H1534Z" fill="#121C31"/>
</mask>
<g mask="url(#mask0_83_11984)">
<g opacity="0.75">
<path d="M2354.78 162.858L2427.78 151.564L2427.95 151.537C2431.17 151.039 2432.99 150.758 2434.53 150.244C2436.59 149.557 2438.3 148.571 2439.49 147.382C2440.38 146.491 2440.87 145.443 2441.73 143.585L2441.77 143.485L2461.34 101.345L2461.38 101.245C2462.25 99.3867 2462.73 98.3389 2462.73 97.3091C2462.73 95.9369 2462.11 94.5887 2460.92 93.4001C2460.03 92.5083 2458.7 91.7413 2456.34 90.3809L2456.22 90.3079L2362.55 36.2341L2362.52 36.2175C2360.83 35.2407 2359.52 34.4859 2358.4 33.9199C2357.26 33.3471 2356.25 32.9383 2355.15 32.6739C2352.34 32.0027 2349.19 32.0025 2346.38 32.6739C2345.27 32.9383 2344.27 33.3471 2343.13 33.9199C2342.01 34.4859 2340.7 35.2409 2339.01 36.2179L2338.98 36.2341L2242 92.2199L2241.97 92.2361C2240.28 93.2131 2238.97 93.9681 2237.99 94.6171C2237 95.2735 2236.29 95.8541 2235.83 96.4921C2234.67 98.1129 2234.67 99.9341 2235.83 101.555C2236.29 102.193 2237 102.773 2237.99 103.43C2238.97 104.079 2240.28 104.834 2241.97 105.811L2242 105.827L2335.67 159.901L2335.79 159.974C2338.15 161.334 2339.48 162.101 2341.02 162.616C2343.08 163.303 2345.42 163.664 2347.79 163.664C2349.58 163.664 2351.39 163.383 2354.61 162.885L2354.75 162.863L2354.78 162.858Z" fill="black" stroke="url(#paint0_linear_83_11984)" stroke-width="1.701"/>
<path d="M2540.01 269.788H2540.01L2613.01 258.494L2613.18 258.466C2616.4 257.968 2618.21 257.688 2619.76 257.174C2621.82 256.488 2623.53 255.5 2624.71 254.312C2625.61 253.42 2626.09 252.372 2626.95 250.514L2627 250.414L2646.56 208.274L2646.61 208.174C2647.47 206.316 2647.96 205.268 2647.96 204.238C2647.96 202.866 2647.33 201.518 2646.15 200.33C2645.25 199.438 2643.93 198.671 2641.57 197.31L2641.44 197.237L2547.78 143.164L2547.75 143.147C2546.05 142.17 2544.75 141.415 2543.62 140.849C2542.49 140.277 2541.48 139.868 2540.38 139.604C2537.57 138.932 2534.41 138.932 2531.61 139.604C2530.5 139.868 2529.49 140.277 2528.36 140.849C2527.23 141.416 2525.93 142.17 2524.23 143.147L2524.2 143.164L2427.23 199.15L2427.2 199.166C2425.51 200.142 2424.2 200.898 2423.22 201.546C2422.23 202.204 2421.52 202.784 2421.06 203.422C2419.9 205.042 2419.9 206.864 2421.06 208.484C2421.52 209.122 2422.23 209.704 2423.22 210.36C2424.2 211.008 2425.51 211.764 2427.2 212.74L2427.23 212.756L2520.89 266.83L2521.02 266.904C2523.38 268.264 2524.7 269.032 2526.25 269.546C2528.31 270.232 2530.64 270.594 2533.02 270.594C2534.8 270.594 2536.62 270.312 2539.84 269.814L2539.98 269.792H2539.98L2540.01 269.788Z" fill="black" stroke="url(#paint1_linear_83_11984)" stroke-width="1.701"/>
<path d="M2187.6 259.374H2187.6L2260.59 248.08L2260.77 248.052C2263.98 247.554 2265.8 247.274 2267.34 246.76C2269.4 246.074 2271.11 245.086 2272.3 243.898C2273.19 243.006 2273.68 241.958 2274.54 240.1L2274.59 240L2294.15 197.86L2294.2 197.761C2295.06 195.902 2295.55 194.854 2295.55 193.825C2295.55 192.452 2294.92 191.104 2293.73 189.916C2292.84 189.024 2291.51 188.257 2289.15 186.896L2289.03 186.823L2195.36 132.75L2195.33 132.733C2193.64 131.756 2192.33 131.001 2191.21 130.435C2190.07 129.863 2189.07 129.454 2187.96 129.189C2185.15 128.518 2182 128.518 2179.19 129.19C2178.09 129.454 2177.08 129.863 2175.94 130.435C2174.82 131.001 2173.51 131.756 2171.82 132.733L2171.79 132.75L2074.81 188.736L2074.78 188.752C2073.09 189.729 2071.78 190.484 2070.8 191.133C2069.81 191.789 2069.1 192.37 2068.65 193.008C2067.48 194.628 2067.48 196.45 2068.65 198.07C2069.1 198.709 2069.81 199.289 2070.8 199.946C2071.78 200.594 2073.09 201.35 2074.78 202.326L2074.81 202.342L2168.48 256.416L2168.61 256.49C2170.96 257.85 2172.29 258.618 2173.84 259.132C2175.89 259.818 2178.23 260.18 2180.61 260.18C2182.39 260.18 2184.21 259.898 2187.42 259.4L2187.57 259.378L2187.6 259.374Z" fill="black" stroke="url(#paint2_linear_83_11984)" stroke-width="1.701"/>
<path d="M2372.83 366.308L2445.82 355.012L2445.99 354.986C2449.21 354.488 2451.03 354.208 2452.57 353.692C2454.63 353.006 2456.34 352.02 2457.53 350.832C2458.42 349.94 2458.9 348.892 2459.77 347.034L2459.81 346.934L2479.38 304.794L2479.42 304.694C2480.29 302.836 2480.77 301.788 2480.77 300.758C2480.77 299.386 2480.15 298.038 2478.96 296.85C2478.07 295.958 2476.74 295.19 2474.38 293.83L2474.26 293.756L2380.59 239.684L2380.56 239.666C2378.87 238.69 2377.56 237.934 2376.44 237.37C2375.3 236.796 2374.29 236.388 2373.19 236.124C2370.38 235.452 2367.23 235.452 2364.42 236.124C2363.31 236.388 2362.31 236.796 2361.17 237.37C2360.05 237.936 2358.74 238.69 2357.05 239.666L2357.02 239.684L2260.04 295.67L2260.01 295.686C2258.32 296.662 2257.01 297.418 2256.03 298.066C2255.04 298.722 2254.33 299.304 2253.87 299.942C2252.71 301.562 2252.71 303.384 2253.87 305.004C2254.33 305.642 2255.04 306.222 2256.03 306.88C2257.01 307.528 2258.32 308.284 2260.01 309.26L2260.04 309.276L2353.71 363.35L2353.83 363.424C2356.19 364.784 2357.52 365.55 2359.06 366.066C2361.12 366.752 2363.46 367.112 2365.83 367.112C2367.62 367.112 2369.43 366.832 2372.65 366.334L2372.79 366.312L2372.83 366.308Z" fill="black" stroke="url(#paint3_linear_83_11984)" stroke-width="1.701"/>
<path d="M2212.28 464.154L2285.28 452.86L2285.45 452.834C2288.67 452.336 2290.49 452.056 2292.03 451.54C2294.09 450.854 2295.8 449.868 2296.99 448.68C2297.88 447.788 2298.37 446.74 2299.23 444.882L2299.27 444.782L2318.84 402.642L2318.88 402.542C2319.75 400.684 2320.23 399.636 2320.23 398.606C2320.23 397.234 2319.61 395.886 2318.42 394.696C2317.53 393.806 2316.2 393.038 2313.84 391.678L2313.72 391.604L2220.05 337.53L2220.02 337.514C2218.33 336.538 2217.02 335.782 2215.9 335.216C2214.76 334.644 2213.75 334.236 2212.65 333.97C2209.84 333.3 2206.69 333.3 2203.88 333.97C2202.77 334.236 2201.77 334.644 2200.63 335.216C2199.51 335.782 2198.2 336.538 2196.51 337.514L2196.48 337.53L2099.5 393.516L2099.47 393.532C2097.78 394.51 2096.47 395.264 2095.49 395.914C2094.5 396.57 2093.79 397.15 2093.33 397.788C2092.17 399.41 2092.17 401.23 2093.33 402.852C2093.79 403.49 2094.5 404.07 2095.49 404.726C2096.47 405.376 2097.78 406.13 2099.47 407.108L2099.5 407.124L2193.17 461.198L2193.29 461.27C2195.65 462.632 2196.98 463.398 2198.52 463.914C2200.58 464.6 2202.92 464.96 2205.29 464.96C2207.08 464.96 2208.89 464.68 2212.11 464.182L2212.25 464.16L2212.28 464.154Z" fill="black" stroke="url(#paint4_linear_83_11984)" stroke-width="1.701"/>
<path d="M2397.51 571.088H2397.51L2470.51 559.794L2470.68 559.768C2473.9 559.27 2475.71 558.988 2477.26 558.474C2479.32 557.788 2481.03 556.802 2482.21 555.612C2483.11 554.722 2483.59 553.674 2484.45 551.816L2484.5 551.716L2504.06 509.576L2504.11 509.476C2504.97 507.618 2505.46 506.57 2505.46 505.54C2505.46 504.168 2504.83 502.82 2503.65 501.63C2502.75 500.738 2501.43 499.972 2499.07 498.612L2498.94 498.538L2405.28 444.464L2405.25 444.448C2403.55 443.472 2402.25 442.716 2401.12 442.15C2399.99 441.578 2398.98 441.168 2397.87 440.904C2395.07 440.232 2391.91 440.232 2389.11 440.904C2388 441.168 2386.99 441.578 2385.86 442.15C2384.73 442.716 2383.43 443.472 2381.73 444.448L2381.7 444.464L2284.73 500.45L2284.7 500.466C2283.01 501.444 2281.7 502.198 2280.72 502.848C2279.73 503.504 2279.02 504.084 2278.56 504.722C2277.4 506.344 2277.4 508.164 2278.56 509.786C2279.02 510.424 2279.73 511.004 2280.72 511.66C2281.7 512.31 2283.01 513.064 2284.7 514.042L2284.73 514.058L2378.39 568.132L2378.52 568.204C2380.88 569.564 2382.2 570.332 2383.75 570.846C2385.81 571.532 2388.14 571.894 2390.52 571.894C2392.3 571.894 2394.12 571.614 2397.34 571.116L2397.48 571.094L2397.48 571.092L2397.51 571.088Z" fill="black" stroke="url(#paint5_linear_83_11984)" stroke-width="1.701"/>
<path d="M2045.1 560.674H2045.1L2118.09 549.38L2118.27 549.354C2121.48 548.856 2123.3 548.574 2124.84 548.06C2126.9 547.374 2128.61 546.388 2129.8 545.198C2130.69 544.308 2131.18 543.26 2132.04 541.402L2132.09 541.302L2151.65 499.162L2151.7 499.062C2152.56 497.204 2153.05 496.156 2153.05 495.126C2153.05 493.754 2152.42 492.404 2151.23 491.216C2150.34 490.324 2149.01 489.558 2146.65 488.198L2146.53 488.124L2052.86 434.05L2052.83 434.034C2051.14 433.056 2049.83 432.302 2048.71 431.736C2047.57 431.164 2046.57 430.754 2045.46 430.49C2042.65 429.818 2039.5 429.818 2036.69 430.49C2035.59 430.754 2034.58 431.164 2033.44 431.736C2032.32 432.302 2031.01 433.058 2029.32 434.034L2029.29 434.05L1932.31 490.036L1932.28 490.052C1930.59 491.03 1929.28 491.784 1928.3 492.434C1927.31 493.09 1926.6 493.67 1926.15 494.308C1924.98 495.93 1924.98 497.75 1926.15 499.372C1926.6 500.01 1927.31 500.59 1928.3 501.246C1929.28 501.896 1930.59 502.65 1932.28 503.628L1932.31 503.644L2025.98 557.718L2026.11 557.79C2028.46 559.15 2029.79 559.918 2031.34 560.432C2033.39 561.118 2035.73 561.48 2038.11 561.48C2039.89 561.48 2041.71 561.2 2044.92 560.7L2045.07 560.678L2045.1 560.674Z" fill="black" stroke="url(#paint6_linear_83_11984)" stroke-width="1.701"/>
<path d="M2230.33 667.608L2303.32 656.314L2303.49 656.286C2306.71 655.79 2308.53 655.508 2310.07 654.994C2312.13 654.308 2313.84 653.32 2315.03 652.132C2315.92 651.24 2316.4 650.194 2317.27 648.336L2317.31 648.236L2336.88 606.094L2336.92 605.994C2337.79 604.136 2338.27 603.088 2338.27 602.06C2338.27 600.686 2337.65 599.338 2336.46 598.15C2335.57 597.258 2334.24 596.492 2331.88 595.13L2331.76 595.058L2238.09 540.984L2238.06 540.968C2236.37 539.99 2235.06 539.236 2233.94 538.67C2232.8 538.098 2231.79 537.688 2230.69 537.424C2227.88 536.752 2224.73 536.752 2221.92 537.424C2220.81 537.688 2219.81 538.098 2218.67 538.67C2217.55 539.236 2216.24 539.99 2214.55 540.968L2214.52 540.984L2117.54 596.97L2117.51 596.986C2115.82 597.964 2114.51 598.718 2113.53 599.366C2112.54 600.024 2111.83 600.604 2111.37 601.242C2110.21 602.862 2110.21 604.684 2111.37 606.304C2111.83 606.942 2112.54 607.524 2113.53 608.18C2114.51 608.828 2115.82 609.584 2117.51 610.56L2117.54 610.576L2211.21 664.65L2211.33 664.724C2213.69 666.084 2215.02 666.852 2216.56 667.366C2218.62 668.052 2220.96 668.414 2223.33 668.414C2225.12 668.414 2226.93 668.132 2230.15 667.634L2230.29 667.612L2230.33 667.608Z" fill="black" stroke="url(#paint7_linear_83_11984)" stroke-width="1.701"/>
<path d="M2515.25 28.0298L2588.24 16.7356L2588.41 16.7089C2591.63 16.211 2593.45 15.9303 2594.99 15.4155C2597.05 14.7294 2598.76 13.7426 2599.95 12.5543C2600.84 11.6627 2601.33 10.615 2602.19 8.75694L2602.23 8.65721L2621.8 -33.4834L2621.84 -33.5832C2622.71 -35.4416 2623.19 -36.4892 2623.19 -37.519C2623.19 -38.8914 2622.57 -40.2396 2621.38 -41.428C2620.49 -42.3198 2619.16 -43.087 2616.8 -44.4474L2616.68 -44.5204L2523.01 -98.5942L2522.98 -98.6108C2521.29 -99.5876 2519.98 -100.342 2518.86 -100.908C2517.72 -101.481 2516.71 -101.89 2515.61 -102.154C2512.8 -102.826 2509.65 -102.826 2506.84 -102.154C2505.73 -101.89 2504.73 -101.481 2503.59 -100.908C2502.47 -100.342 2501.16 -99.5874 2499.47 -98.6104L2499.44 -98.5942L2402.46 -42.6082L2402.43 -42.592C2400.74 -41.6152 2399.43 -40.8602 2398.45 -40.2112C2397.46 -39.5546 2396.75 -38.9742 2396.29 -38.3362C2395.13 -36.7152 2395.13 -34.8942 2396.29 -33.2732C2396.75 -32.6352 2397.46 -32.0548 2398.45 -31.3982C2399.43 -30.7492 2400.74 -29.9942 2402.43 -29.0172L2402.46 -29.0012L2496.13 25.0726L2496.25 25.1458C2498.61 26.5062 2499.94 27.2734 2501.48 27.7882C2503.54 28.4744 2505.88 28.8356 2508.25 28.8356C2510.04 28.8354 2511.85 28.5546 2515.07 28.0566L2515.22 28.0344L2515.25 28.0298Z" fill="black" stroke="url(#paint8_linear_83_11984)" stroke-width="1.701"/>
</g>
<g opacity="0.75">
<path d="M2154.01 53.7876H2154.01L2227.01 42.4934L2227.18 42.4666C2230.4 41.9688 2232.21 41.688 2233.76 41.1732C2235.82 40.4872 2237.53 39.5004 2238.71 38.312C2239.61 37.4204 2240.09 36.3728 2240.95 34.5148L2241 34.415L2260.56 -7.72545L2260.61 -7.82533C2261.47 -9.68365 2261.96 -10.7314 2261.96 -11.7612C2261.96 -13.1335 2261.33 -14.4817 2260.15 -15.6702C2259.25 -16.562 2257.93 -17.3291 2255.57 -18.6895L2255.44 -18.7625L2161.78 -72.8364L2161.75 -72.8529C2160.05 -73.8297 2158.75 -74.5845 2157.62 -75.1505C2156.49 -75.7231 2155.48 -76.1322 2154.38 -76.3964C2151.57 -77.0678 2148.41 -77.0678 2145.61 -76.3964C2144.5 -76.1322 2143.49 -75.7231 2142.36 -75.1505C2141.23 -74.5843 2139.93 -73.8296 2138.23 -72.8526L2138.2 -72.8364L2041.23 -16.8504L2041.2 -16.8342C2039.51 -15.8573 2038.2 -15.1023 2037.22 -14.4534C2036.23 -13.7968 2035.52 -13.2163 2035.06 -12.5782C2033.9 -10.9574 2033.9 -9.13625 2035.06 -7.51541C2035.52 -6.87737 2036.23 -6.29687 2037.22 -5.64029C2038.2 -4.99135 2039.51 -4.23641 2041.2 -3.25941L2041.23 -3.24327L2134.89 50.8307L2135.02 50.9036C2137.38 52.264 2138.7 53.0313 2140.25 53.5461C2142.31 54.2323 2144.64 54.5934 2147.02 54.5934C2148.8 54.5934 2150.62 54.3125 2153.84 53.8145L2153.98 53.7923H2153.98L2154.01 53.7876Z" fill="black" stroke="url(#paint9_linear_83_11984)" stroke-width="1.701"/>
<path d="M1801.6 43.3736L1801.6 43.3734L1874.59 32.0794L1874.77 32.0526C1877.98 31.5548 1879.8 31.274 1881.34 30.7592C1883.4 30.073 1885.11 29.0862 1886.3 27.898C1887.19 27.0064 1887.68 25.9588 1888.54 24.1006L1888.59 24.001L1908.15 -18.1396L1908.2 -18.2394C1909.06 -20.0978 1909.55 -21.1456 1909.55 -22.1752C1909.55 -23.5476 1908.92 -24.8958 1907.73 -26.0844C1906.84 -26.9762 1905.51 -27.7432 1903.15 -29.1036L1903.03 -29.1766L1809.36 -83.2504L1809.33 -83.267C1807.64 -84.2438 1806.33 -84.9986 1805.21 -85.5646C1804.07 -86.1372 1803.07 -86.5462 1801.96 -86.8106C1799.15 -87.4818 1796 -87.4818 1793.19 -86.8104C1792.09 -86.5462 1791.08 -86.1372 1789.94 -85.5646C1788.82 -84.9986 1787.51 -84.2436 1785.82 -83.2666L1785.79 -83.2504L1688.81 -27.2644L1688.78 -27.2484C1687.09 -26.2714 1685.78 -25.5164 1684.8 -24.8674C1683.81 -24.2108 1683.1 -23.6304 1682.65 -22.9924C1681.48 -21.3716 1681.48 -19.5504 1682.65 -17.9295C1683.1 -17.2915 1683.81 -16.711 1684.8 -16.0544C1685.78 -15.4054 1687.09 -14.6505 1688.78 -13.6735L1688.81 -13.6574L1782.48 40.4164L1782.61 40.4894C1784.96 41.85 1786.29 42.6172 1787.84 43.132C1789.89 43.8182 1792.23 44.1794 1794.61 44.1792C1796.39 44.1792 1798.21 43.8984 1801.42 43.4002L1801.57 43.3774L1801.6 43.3736Z" fill="black" stroke="url(#paint10_linear_83_11984)" stroke-width="1.701"/>
<path d="M1986.82 150.307L2059.82 139.013L2059.99 138.986C2063.21 138.488 2065.03 138.208 2066.57 137.693C2068.63 137.007 2070.34 136.02 2071.53 134.832C2072.42 133.94 2072.9 132.892 2073.77 131.034L2073.81 130.935L2093.38 88.794L2093.42 88.6942C2094.29 86.8358 2094.77 85.788 2094.77 84.7584C2094.77 83.386 2094.15 82.0378 2092.96 80.8492C2092.07 79.9574 2090.74 79.1904 2088.38 77.83L2088.26 77.757L1994.59 23.6832L1994.56 23.6666C1992.87 22.6898 1991.56 21.935 1990.44 21.369C1989.3 20.7964 1988.29 20.3874 1987.19 20.123C1984.38 19.4517 1981.23 19.4517 1978.42 20.123C1977.31 20.3874 1976.31 20.7962 1975.17 21.369C1974.05 21.935 1972.74 22.69 1971.05 23.667L1971.02 23.6832L1874.04 79.6692L1874.01 79.6852C1872.32 80.6622 1871.01 81.4172 1870.03 82.0662C1869.04 82.7228 1868.33 83.3032 1867.87 83.9412C1866.71 85.562 1866.71 87.3832 1867.87 89.004C1868.33 89.6422 1869.04 90.2226 1870.03 90.8792C1871.01 91.5282 1872.32 92.283 1874.01 93.26L1874.04 93.2762L1967.71 147.35L1967.83 147.423C1970.19 148.784 1971.52 149.551 1973.06 150.066C1975.12 150.752 1977.46 151.113 1979.83 151.113C1981.62 151.113 1983.43 150.832 1986.65 150.334L1986.79 150.312L1986.82 150.307Z" fill="black" stroke="url(#paint11_linear_83_11984)" stroke-width="1.701"/>
<path d="M1826.28 248.154L1899.28 236.86L1899.45 236.834C1902.67 236.336 1904.49 236.056 1906.03 235.54C1908.09 234.854 1909.8 233.868 1910.99 232.68C1911.88 231.788 1912.37 230.74 1913.23 228.882L1913.27 228.782L1932.84 186.642L1932.88 186.542C1933.75 184.683 1934.23 183.636 1934.23 182.606C1934.23 181.234 1933.61 179.885 1932.42 178.697C1931.53 177.805 1930.2 177.038 1927.84 175.678L1927.72 175.605L1834.05 121.531L1834.02 121.514C1832.33 120.537 1831.02 119.783 1829.9 119.217C1828.76 118.644 1827.75 118.235 1826.65 117.971C1823.84 117.299 1820.69 117.299 1817.88 117.971C1816.77 118.235 1815.77 118.644 1814.63 119.217C1813.51 119.783 1812.2 120.538 1810.51 121.515L1810.48 121.531L1713.5 177.517L1713.47 177.533C1711.78 178.51 1710.47 179.265 1709.49 179.914C1708.5 180.57 1707.79 181.151 1707.33 181.789C1706.17 183.41 1706.17 185.231 1707.33 186.852C1707.79 187.49 1708.5 188.07 1709.49 188.727C1710.47 189.376 1711.78 190.131 1713.47 191.108L1713.5 191.124L1807.17 245.198L1807.29 245.27C1809.65 246.632 1810.98 247.398 1812.52 247.914C1814.58 248.6 1816.92 248.96 1819.29 248.96C1821.08 248.96 1822.89 248.68 1826.11 248.182L1826.25 248.16L1826.28 248.154Z" fill="black" stroke="url(#paint12_linear_83_11984)" stroke-width="1.701"/>
<path d="M2011.51 355.088H2011.51L2084.51 343.794L2084.68 343.768C2087.9 343.27 2089.71 342.988 2091.26 342.474C2093.32 341.788 2095.03 340.802 2096.21 339.612C2097.11 338.722 2097.59 337.674 2098.45 335.816L2098.5 335.716L2118.06 293.576L2118.11 293.476C2118.97 291.618 2119.46 290.57 2119.46 289.54C2119.46 288.168 2118.83 286.82 2117.65 285.63C2116.75 284.738 2115.43 283.972 2113.07 282.612L2112.94 282.538L2019.28 228.464L2019.25 228.448C2017.55 227.472 2016.25 226.716 2015.12 226.15C2013.99 225.578 2012.98 225.168 2011.87 224.904C2009.07 224.232 2005.91 224.232 2003.11 224.904C2002 225.168 2000.99 225.578 1999.86 226.15C1998.73 226.716 1997.43 227.472 1995.73 228.448L1995.7 228.464L1898.73 284.45L1898.7 284.466C1897.01 285.444 1895.7 286.198 1894.72 286.848C1893.73 287.504 1893.02 288.084 1892.56 288.722C1891.4 290.344 1891.4 292.164 1892.56 293.786C1893.02 294.424 1893.73 295.004 1894.72 295.66C1895.7 296.31 1897.01 297.064 1898.7 298.042L1898.73 298.058L1992.39 352.132L1992.52 352.204C1994.88 353.564 1996.2 354.332 1997.75 354.846C1999.81 355.532 2002.14 355.894 2004.52 355.894C2006.3 355.894 2008.12 355.614 2011.34 355.116L2011.48 355.094L2011.48 355.092L2011.51 355.088Z" fill="black" stroke="url(#paint13_linear_83_11984)" stroke-width="1.701"/>
<path d="M1659.1 344.674H1659.1L1732.09 333.38L1732.27 333.354C1735.48 332.856 1737.3 332.574 1738.84 332.06C1740.9 331.374 1742.61 330.388 1743.8 329.198C1744.69 328.308 1745.18 327.26 1746.04 325.402L1746.09 325.302L1765.65 283.162L1765.7 283.062C1766.56 281.204 1767.05 280.156 1767.05 279.126C1767.05 277.754 1766.42 276.404 1765.23 275.216C1764.34 274.324 1763.01 273.558 1760.65 272.198L1760.53 272.124L1666.86 218.05L1666.83 218.034C1665.14 217.056 1663.83 216.302 1662.71 215.736C1661.57 215.164 1660.57 214.754 1659.46 214.49C1656.65 213.818 1653.5 213.818 1650.69 214.49C1649.59 214.754 1648.58 215.164 1647.44 215.736C1646.32 216.302 1645.01 217.058 1643.32 218.034L1643.29 218.05L1546.31 274.036L1546.28 274.052C1544.59 275.03 1543.28 275.784 1542.3 276.434C1541.31 277.09 1540.6 277.67 1540.15 278.308C1538.98 279.93 1538.98 281.75 1540.15 283.372C1540.6 284.01 1541.31 284.59 1542.3 285.246C1543.28 285.896 1544.59 286.65 1546.28 287.628L1546.31 287.644L1639.98 341.718L1640.11 341.79C1642.46 343.15 1643.79 343.918 1645.34 344.432C1647.39 345.118 1649.73 345.48 1652.11 345.48C1653.89 345.48 1655.71 345.2 1658.92 344.7L1659.07 344.678H1659.07L1659.1 344.674Z" fill="black" stroke="url(#paint14_linear_83_11984)" stroke-width="1.701"/>
<path d="M1844.32 451.608L1917.32 440.314L1917.49 440.286C1920.71 439.79 1922.53 439.508 1924.07 438.994C1926.13 438.308 1927.84 437.32 1929.03 436.132C1929.92 435.24 1930.4 434.194 1931.27 432.336L1931.31 432.236L1950.88 390.094L1950.92 389.994C1951.79 388.136 1952.27 387.088 1952.27 386.06C1952.27 384.686 1951.65 383.338 1950.46 382.15C1949.57 381.258 1948.24 380.492 1945.88 379.13L1945.75 379.058L1852.09 324.984L1852.06 324.968C1850.37 323.99 1849.06 323.236 1847.94 322.67C1846.8 322.098 1845.79 321.688 1844.69 321.424C1841.88 320.752 1838.73 320.752 1835.92 321.424C1834.81 321.688 1833.81 322.098 1832.67 322.67C1831.55 323.236 1830.24 323.99 1828.55 324.968L1828.52 324.984L1731.54 380.97L1731.51 380.986C1729.82 381.964 1728.51 382.718 1727.53 383.366C1726.54 384.024 1725.83 384.604 1725.37 385.242C1724.21 386.862 1724.21 388.684 1725.37 390.304C1725.83 390.942 1726.54 391.524 1727.53 392.18C1728.51 392.828 1729.82 393.584 1731.51 394.56L1731.54 394.576L1825.21 448.65L1825.33 448.724C1827.69 450.084 1829.02 450.852 1830.56 451.366C1832.62 452.052 1834.96 452.414 1837.33 452.414C1839.12 452.414 1840.93 452.132 1844.15 451.634L1844.29 451.612L1844.32 451.608Z" fill="black" stroke="url(#paint15_linear_83_11984)" stroke-width="1.701"/>
</g>
<path d="M1655 214.998L1765 276.998L1740 330.998L1650 344.998L1539 279.998L1655 214.998Z" fill="url(#paint16_linear_83_11984)"/>
<path d="M1655 214.998L1765 276.998L1740 330.998L1650 344.998L1539 279.998L1655 214.998Z" fill="url(#paint17_radial_83_11984)" fill-opacity="0.2"/>
<path d="M1814.24 122.534C1819 119.866 1826.57 119.872 1831.32 122.548L1927.66 176.851C1930.83 178.636 1932.08 181.268 1930.94 183.736L1909.61 229.8C1908.49 232.238 1905.19 234.144 1900.97 234.802L1824.68 246.668C1820.42 247.332 1815.88 246.62 1812.78 244.806L1715.46 187.816C1710.68 185.019 1710.77 180.512 1715.65 177.777L1814.24 122.534Z" fill="url(#paint18_linear_83_11984)"/>
<path d="M1814.24 122.534C1819 119.866 1826.57 119.872 1831.32 122.548L1927.66 176.851C1930.83 178.636 1932.08 181.268 1930.94 183.736L1909.61 229.8C1908.49 232.238 1905.19 234.144 1900.97 234.802L1824.68 246.668C1820.42 247.332 1815.88 246.62 1812.78 244.806L1715.46 187.816C1710.68 185.019 1710.77 180.512 1715.65 177.777L1814.24 122.534Z" fill="url(#paint19_radial_83_11984)" fill-opacity="0.1"/>
<path d="M2198.23 340.534C2202.99 337.866 2210.57 337.872 2215.32 340.548L2311.66 394.85C2314.83 396.636 2316.08 399.268 2314.94 401.736L2293.61 447.8C2292.48 450.238 2289.19 452.144 2284.97 452.802L2208.68 464.668C2204.42 465.332 2199.87 464.62 2196.78 462.806L2099.45 405.816C2094.68 403.02 2094.77 398.512 2099.65 395.778L2198.23 340.534Z" fill="url(#paint20_linear_83_11984)"/>
<path d="M2198.23 340.534C2202.99 337.866 2210.57 337.872 2215.32 340.548L2311.66 394.85C2314.83 396.636 2316.08 399.268 2314.94 401.736L2293.61 447.8C2292.48 450.238 2289.19 452.144 2284.97 452.802L2208.68 464.668C2204.42 465.332 2199.87 464.62 2196.78 462.806L2099.45 405.816C2094.68 403.02 2094.77 398.512 2099.65 395.778L2198.23 340.534Z" fill="url(#paint21_radial_83_11984)" fill-opacity="0.1"/>
<path d="M2342.23 36.5341C2346.99 33.8659 2354.57 33.8723 2359.32 36.5485L2455.66 90.8509C2458.83 92.6357 2460.08 95.2681 2458.94 97.7365L2437.61 143.8C2436.48 146.238 2433.19 148.145 2428.97 148.801L2352.68 160.668C2348.42 161.331 2343.87 160.619 2340.78 158.805L2243.45 101.816C2238.68 99.0195 2238.77 94.5123 2243.65 91.7773L2342.23 36.5341Z" fill="url(#paint22_linear_83_11984)"/>
<path d="M2342.23 36.5341C2346.99 33.8659 2354.57 33.8723 2359.32 36.5485L2455.66 90.8509C2458.83 92.6357 2460.08 95.2681 2458.94 97.7365L2437.61 143.8C2436.48 146.238 2433.19 148.145 2428.97 148.801L2352.68 160.668C2348.42 161.331 2343.87 160.619 2340.78 158.805L2243.45 101.816C2238.68 99.0195 2238.77 94.5123 2243.65 91.7773L2342.23 36.5341Z" fill="url(#paint23_radial_83_11984)" fill-opacity="0.1"/>
<path d="M2184.79 129.74L2294.79 191.74L2269.79 245.74L2179.79 259.74L2068.79 194.741L2184.79 129.74Z" fill="url(#paint24_linear_83_11984)"/>
<path d="M2184.79 129.74L2294.79 191.74L2269.79 245.74L2179.79 259.74L2068.79 194.741L2184.79 129.74Z" fill="url(#paint25_radial_83_11984)" fill-opacity="0.2"/>
<path d="M1800.79 -90.2598L1910.79 -28.2598L1885.79 25.7402L1795.79 39.7408L1684.79 -25.2592L1800.79 -90.2598Z" fill="url(#paint26_linear_83_11984)"/>
<path d="M1800.79 -90.2598L1910.79 -28.2598L1885.79 25.7402L1795.79 39.7408L1684.79 -25.2592L1800.79 -90.2598Z" fill="url(#paint27_radial_83_11984)" fill-opacity="0.2"/>
<path d="M2040.79 431.74L2150.79 493.74L2125.79 547.74L2035.79 561.74L1924.79 496.74L2040.79 431.74Z" fill="url(#paint28_linear_83_11984)"/>
<path d="M2040.79 431.74L2150.79 493.74L2125.79 547.74L2035.79 561.74L1924.79 496.74L2040.79 431.74Z" fill="url(#paint29_radial_83_11984)" fill-opacity="0.2"/>
</g>
<defs>
<linearGradient id="paint0_linear_83_11984" x1="2305.06" y1="141.38" x2="2364.59" y2="38.2617" gradientUnits="userSpaceOnUse">
<stop stop-color="#FFE58C"/>
<stop offset="1" stop-color="#F26B63"/>
</linearGradient>
<linearGradient id="paint1_linear_83_11984" x1="2490.28" y1="248.31" x2="2549.81" y2="145.191" gradientUnits="userSpaceOnUse">
<stop stop-color="#FFB2B8"/>
<stop offset="1" stop-color="#C74FB8"/>
</linearGradient>
<linearGradient id="paint2_linear_83_11984" x1="2137.87" y1="237.896" x2="2197.4" y2="134.777" gradientUnits="userSpaceOnUse">
<stop stop-color="#8CDEFF"/>
<stop offset="1" stop-color="#8763D9"/>
</linearGradient>
<linearGradient id="paint3_linear_83_11984" x1="2323.1" y1="344.83" x2="2382.63" y2="241.71" gradientUnits="userSpaceOnUse">
<stop stop-color="#FFB2B8"/>
<stop offset="1" stop-color="#C74FB8"/>
</linearGradient>
<linearGradient id="paint4_linear_83_11984" x1="2162.56" y1="442.676" x2="2222.09" y2="339.558" gradientUnits="userSpaceOnUse">
<stop stop-color="#FFE58C"/>
<stop offset="1" stop-color="#F26B63"/>
</linearGradient>
<linearGradient id="paint5_linear_83_11984" x1="2347.78" y1="549.61" x2="2407.31" y2="446.492" gradientUnits="userSpaceOnUse">
<stop stop-color="#FFB2B8"/>
<stop offset="1" stop-color="#C74FB8"/>
</linearGradient>
<linearGradient id="paint6_linear_83_11984" x1="1995.37" y1="539.196" x2="2054.9" y2="436.078" gradientUnits="userSpaceOnUse">
<stop stop-color="#8CDEFF"/>
<stop offset="1" stop-color="#8763D9"/>
</linearGradient>
<linearGradient id="paint7_linear_83_11984" x1="2180.6" y1="646.13" x2="2240.13" y2="543.012" gradientUnits="userSpaceOnUse">
<stop stop-color="#FFB2B8"/>
<stop offset="1" stop-color="#C74FB8"/>
</linearGradient>
<linearGradient id="paint8_linear_83_11984" x1="2465.52" y1="6.55191" x2="2525.05" y2="-96.5666" gradientUnits="userSpaceOnUse">
<stop stop-color="#FFB2B8"/>
<stop offset="1" stop-color="#C74FB8"/>
</linearGradient>
<linearGradient id="paint9_linear_83_11984" x1="2104.28" y1="32.3097" x2="2163.81" y2="-70.8087" gradientUnits="userSpaceOnUse">
<stop stop-color="#FFB2B8"/>
<stop offset="1" stop-color="#C74FB8"/>
</linearGradient>
<linearGradient id="paint10_linear_83_11984" x1="1751.87" y1="21.8956" x2="1811.4" y2="-81.2228" gradientUnits="userSpaceOnUse">
<stop stop-color="#8CDEFF"/>
<stop offset="1" stop-color="#8763D9"/>
</linearGradient>
<linearGradient id="paint11_linear_83_11984" x1="1937.1" y1="128.829" x2="1996.63" y2="25.7108" gradientUnits="userSpaceOnUse">
<stop stop-color="#FFB2B8"/>
<stop offset="1" stop-color="#C74FB8"/>
</linearGradient>
<linearGradient id="paint12_linear_83_11984" x1="1776.56" y1="226.676" x2="1836.09" y2="123.558" gradientUnits="userSpaceOnUse">
<stop stop-color="#FFE58C"/>
<stop offset="1" stop-color="#F26B63"/>
</linearGradient>
<linearGradient id="paint13_linear_83_11984" x1="1961.78" y1="333.61" x2="2021.31" y2="230.492" gradientUnits="userSpaceOnUse">
<stop stop-color="#FFB2B8"/>
<stop offset="1" stop-color="#C74FB8"/>
</linearGradient>
<linearGradient id="paint14_linear_83_11984" x1="1609.37" y1="323.196" x2="1668.9" y2="220.078" gradientUnits="userSpaceOnUse">
<stop stop-color="#8CDEFF"/>
<stop offset="1" stop-color="#8763D9"/>
</linearGradient>
<linearGradient id="paint15_linear_83_11984" x1="1794.6" y1="430.13" x2="1854.13" y2="327.012" gradientUnits="userSpaceOnUse">
<stop stop-color="#FFB2B8"/>
<stop offset="1" stop-color="#C74FB8"/>
</linearGradient>
<linearGradient id="paint16_linear_83_11984" x1="1686.89" y1="368.382" x2="1697.94" y2="257.944" gradientUnits="userSpaceOnUse">
<stop stop-color="#1C1C1C"/>
<stop offset="1" stop-opacity="0"/>
</linearGradient>
<radialGradient id="paint17_radial_83_11984" cx="0" cy="0" r="1" gradientUnits="userSpaceOnUse" gradientTransform="translate(1692.24 386.188) rotate(-106.681) scale(235.442 471.816)">
<stop stop-color="#07ABF1" stop-opacity="0.72"/>
<stop offset="0.419297" stop-color="#5E14D8" stop-opacity="0.69"/>
<stop offset="1" stop-color="#000637" stop-opacity="0"/>
</radialGradient>
<linearGradient id="paint18_linear_83_11984" x1="1827.89" y1="253.45" x2="1829.04" y2="167.674" gradientUnits="userSpaceOnUse">
<stop stop-color="#1C1C1C"/>
<stop offset="1" stop-opacity="0"/>
</linearGradient>
<radialGradient id="paint19_radial_83_11984" cx="0" cy="0" r="1" gradientUnits="userSpaceOnUse" gradientTransform="translate(1848.15 266.552) rotate(-92.3195) scale(182.259 409.418)">
<stop stop-color="#FFEC6A"/>
<stop offset="0.338918" stop-color="#FF4E54" stop-opacity="0.54"/>
<stop offset="1" stop-color="#000637" stop-opacity="0"/>
</radialGradient>
<linearGradient id="paint20_linear_83_11984" x1="2211.88" y1="471.45" x2="2213.04" y2="385.674" gradientUnits="userSpaceOnUse">
<stop stop-color="#1C1C1C"/>
<stop offset="1" stop-opacity="0"/>
</linearGradient>
<radialGradient id="paint21_radial_83_11984" cx="0" cy="0" r="1" gradientUnits="userSpaceOnUse" gradientTransform="translate(2232.15 484.552) rotate(-92.3195) scale(182.259 409.418)">
<stop stop-color="#FFEC6A"/>
<stop offset="0.338918" stop-color="#FF4E54" stop-opacity="0.54"/>
<stop offset="1" stop-color="#000637" stop-opacity="0"/>
</radialGradient>
<linearGradient id="paint22_linear_83_11984" x1="2355.88" y1="167.449" x2="2357.04" y2="81.6743" gradientUnits="userSpaceOnUse">
<stop stop-color="#1C1C1C"/>
<stop offset="1" stop-opacity="0"/>
</linearGradient>
<radialGradient id="paint23_radial_83_11984" cx="0" cy="0" r="1" gradientUnits="userSpaceOnUse" gradientTransform="translate(2376.15 180.553) rotate(-92.3195) scale(182.259 409.418)">
<stop stop-color="#FFEC6A"/>
<stop offset="0.338918" stop-color="#FF4E54" stop-opacity="0.54"/>
<stop offset="1" stop-color="#000637" stop-opacity="0"/>
</radialGradient>
<linearGradient id="paint24_linear_83_11984" x1="2216.68" y1="283.124" x2="2227.73" y2="172.686" gradientUnits="userSpaceOnUse">
<stop stop-color="#1C1C1C"/>
<stop offset="1" stop-opacity="0"/>
</linearGradient>
<radialGradient id="paint25_radial_83_11984" cx="0" cy="0" r="1" gradientUnits="userSpaceOnUse" gradientTransform="translate(2222.03 300.93) rotate(-106.681) scale(235.442 471.816)">
<stop stop-color="#07ABF1" stop-opacity="0.72"/>
<stop offset="0.419297" stop-color="#5E14D8" stop-opacity="0.69"/>
<stop offset="1" stop-color="#000637" stop-opacity="0"/>
</radialGradient>
<linearGradient id="paint26_linear_83_11984" x1="1832.68" y1="63.1238" x2="1843.73" y2="-47.3138" gradientUnits="userSpaceOnUse">
<stop stop-color="#1C1C1C"/>
<stop offset="1" stop-opacity="0"/>
</linearGradient>
<radialGradient id="paint27_radial_83_11984" cx="0" cy="0" r="1" gradientUnits="userSpaceOnUse" gradientTransform="translate(1838.02 80.9295) rotate(-106.681) scale(235.442 471.816)">
<stop stop-color="#07ABF1" stop-opacity="0.72"/>
<stop offset="0.419297" stop-color="#5E14D8" stop-opacity="0.69"/>
<stop offset="1" stop-color="#000637" stop-opacity="0"/>
</radialGradient>
<linearGradient id="paint28_linear_83_11984" x1="2072.68" y1="585.124" x2="2083.73" y2="474.686" gradientUnits="userSpaceOnUse">
<stop stop-color="#1C1C1C"/>
<stop offset="1" stop-opacity="0"/>
</linearGradient>
<radialGradient id="paint29_radial_83_11984" cx="0" cy="0" r="1" gradientUnits="userSpaceOnUse" gradientTransform="translate(2078.03 602.93) rotate(-106.681) scale(235.442 471.816)">
<stop stop-color="#07ABF1" stop-opacity="0.72"/>
<stop offset="0.419297" stop-color="#5E14D8" stop-opacity="0.69"/>
<stop offset="1" stop-color="#000637" stop-opacity="0"/>
</radialGradient>
</defs>
</svg>
