<svg xmlns="http://www.w3.org/2000/svg" width="310" height="444" fill="none"><g clip-path="url(#a)"><path fill="#DEDFE3" d="M240.333 400.843a.74.74 0 1 1 0 1.478.74.74 0 0 1 0-1.478Zm0 60.334a.738.738 0 0 1 .524 1.263.752.752 0 0 1-.379.203.747.747 0 0 1-.76-.315.742.742 0 0 1 .615-1.151Zm0-30.167c.147 0 .29.043.411.125a.733.733 0 0 1 .315.759.735.735 0 0 1-.581.582.743.743 0 0 1-.885-.726.744.744 0 0 1 .74-.74Zm0 20.111a.738.738 0 0 1 .145 1.466.743.743 0 0 1-.885-.726.744.744 0 0 1 .74-.74Zm0-30.166a.738.738 0 0 1 .524 1.263.743.743 0 0 1-1.139-.112.745.745 0 0 1 .092-.935.743.743 0 0 1 .523-.216Zm0-10.056c.147 0 .29.043.411.125a.733.733 0 0 1 .315.759.735.735 0 0 1-.581.582.743.743 0 0 1-.885-.726.744.744 0 0 1 .74-.74Zm0 30.166a.74.74 0 0 1 .726.885.743.743 0 0 1-.581.581.745.745 0 0 1-.885-.725.744.744 0 0 1 .74-.741Zm0-140.777a.738.738 0 0 1 .524 1.263.745.745 0 0 1-.807.161.743.743 0 0 1-.457-.684.742.742 0 0 1 .74-.74Zm-8.708 165.917a.738.738 0 0 1 .144 1.465.735.735 0 0 1-.759-.315.731.731 0 0 1-.069-.694.75.75 0 0 1 .401-.4.744.744 0 0 1 .283-.056Zm8.708-155.862a.74.74 0 1 1 0 1.478.74.74 0 0 1 0-1.478Zm-8.708 135.75a.74.74 0 1 1 0 1.478.74.74 0 0 1 0-1.478Zm8.708-125.694c.147 0 .29.043.411.125a.733.733 0 0 1 .315.759.735.735 0 0 1-.581.582.743.743 0 0 1-.885-.726.744.744 0 0 1 .74-.74Zm-8.708 135.75a.738.738 0 0 1 .144 1.466.743.743 0 0 1-.759-.315.736.736 0 0 1 .092-.934.735.735 0 0 1 .523-.217Zm8.708-125.694a.738.738 0 0 1 .524 1.263.743.743 0 0 1-1.139-.112.745.745 0 0 1 .092-.935.743.743 0 0 1 .523-.216Zm0 40.222a.738.738 0 0 1 .524 1.263.752.752 0 0 1-.379.203.747.747 0 0 1-.76-.315.742.742 0 0 1 .615-1.151Zm0 20.111a.738.738 0 0 1 .524 1.263.745.745 0 0 1-.807.161.743.743 0 0 1-.457-.684.742.742 0 0 1 .74-.74Zm0-30.167a.738.738 0 0 1 .145 1.466.743.743 0 0 1-.885-.726.744.744 0 0 1 .74-.74Zm0 20.111a.738.738 0 0 1 .145 1.466.738.738 0 0 1-.885-.726.744.744 0 0 1 .74-.74Zm0-30.167a.74.74 0 0 1 .726.885.743.743 0 0 1-.581.581.745.745 0 0 1-.885-.725.744.744 0 0 1 .74-.741Zm0-10.055c.147 0 .29.043.411.125a.733.733 0 0 1 .315.759.735.735 0 0 1-.581.582.743.743 0 0 1-.885-.726.744.744 0 0 1 .74-.74Zm17.417-30.167a.744.744 0 0 1 .684.457.743.743 0 0 1-.54 1.009.735.735 0 0 1-.759-.315.74.74 0 0 1 .615-1.151Zm-8.708 155.862c.146 0 .289.043.411.124a.745.745 0 0 1 .314.76.735.735 0 0 1-.581.581.737.737 0 0 1-.76-.315.74.74 0 0 1 .616-1.15Zm0-20.112a.744.744 0 0 1 .683.457.737.737 0 0 1-.16.807.743.743 0 0 1-1.139-.113.74.74 0 0 1 .616-1.151Zm0-30.166a.736.736 0 0 1 .683.457.735.735 0 0 1-.16.806.745.745 0 0 1-.379.203.746.746 0 0 1-.76-.315.744.744 0 0 1 .092-.935.749.749 0 0 1 .524-.216Zm0 10.055a.744.744 0 0 1 .683.457.737.737 0 0 1-.16.807.737.737 0 0 1-1.139-.113.74.74 0 0 1 .616-1.151Zm0 10.056a.736.736 0 0 1 .683.457.735.735 0 0 1-.16.806.738.738 0 0 1-1.139-.112.744.744 0 0 1 .092-.935.749.749 0 0 1 .524-.216Zm0 20.111a.736.736 0 0 1 .683.457.735.735 0 0 1-.16.806.745.745 0 0 1-.807.161.738.738 0 0 1-.4-.967.737.737 0 0 1 .684-.457Zm8.708-155.861a.743.743 0 0 1 .684.456.746.746 0 0 1-.161.807.737.737 0 0 1-1.138-.112.736.736 0 0 1 .092-.934.738.738 0 0 1 .523-.217Zm0 40.222a.736.736 0 0 1 .684.457.743.743 0 0 1-.54 1.009.743.743 0 0 1-.759-.315.736.736 0 0 1 .092-.934.738.738 0 0 1 .523-.217Zm0 10.055a.744.744 0 0 1 .684.457.746.746 0 0 1-.161.807.736.736 0 0 1-.806.16.742.742 0 0 1-.457-.683.74.74 0 0 1 .74-.741Zm0-30.166a.736.736 0 0 1 .684.457.743.743 0 0 1-.54 1.009.743.743 0 0 1-.759-.315.736.736 0 0 1 .092-.934.738.738 0 0 1 .523-.217Zm0 10.056a.743.743 0 0 1 .684.456.746.746 0 0 1-.161.807.735.735 0 0 1-.806.16.737.737 0 0 1-.457-.684.74.74 0 0 1 .74-.739Zm-8.708 45.25c.146 0 .289.043.411.124a.745.745 0 0 1 .314.76.735.735 0 0 1-.581.581.737.737 0 0 1-.76-.314.745.745 0 0 1 .092-.935.742.742 0 0 1 .524-.216Zm0-50.278a.736.736 0 0 1 .683.457.735.735 0 0 1-.16.806.745.745 0 0 1-.379.203.746.746 0 0 1-.76-.315.744.744 0 0 1 .092-.935.749.749 0 0 1 .524-.216Zm0 80.444a.744.744 0 0 1 .683.457.737.737 0 0 1-.16.806.745.745 0 0 1-.807.161.738.738 0 0 1-.4-.967.737.737 0 0 1 .684-.457Zm0-90.5a.744.744 0 0 1 .683.457.737.737 0 0 1-.16.806.745.745 0 0 1-.807.161.738.738 0 0 1-.4-.967.737.737 0 0 1 .684-.457Zm0 30.167a.736.736 0 0 1 .683.457.735.735 0 0 1-.16.806.745.745 0 0 1-.807.161.745.745 0 0 1-.457-.684.741.741 0 0 1 .741-.74Zm0-40.223a.744.744 0 0 1 .683.457.738.738 0 0 1-.539 1.009.738.738 0 0 1-.828-1.009.742.742 0 0 1 .684-.457Zm0 30.167a.744.744 0 0 1 .683.457.737.737 0 0 1-.16.807.737.737 0 0 1-1.139-.113.74.74 0 0 1 .616-1.151Zm0 50.278a.736.736 0 0 1 .683.457.737.737 0 0 1-.16.806.745.745 0 0 1-.807.161.738.738 0 0 1-.4-.967.745.745 0 0 1 .684-.457Zm0 10.055a.744.744 0 0 1 .683.457.738.738 0 0 1-.539 1.009.738.738 0 0 1-.828-1.009.742.742 0 0 1 .684-.457Zm0-40.222a.744.744 0 0 1 .683.457.737.737 0 0 1-.16.807.743.743 0 0 1-1.139-.113.74.74 0 0 1 .616-1.151Zm0 10.056a.736.736 0 0 1 .683.457.735.735 0 0 1-.16.806.745.745 0 0 1-.807.161.738.738 0 0 1-.4-.967.737.737 0 0 1 .684-.457Zm-8.709 105.583a.738.738 0 0 1 .145 1.466.738.738 0 0 1-.885-.726.744.744 0 0 1 .74-.74Zm-17.416-50.277c.146 0 .289.043.411.124a.745.745 0 0 1 .314.76.735.735 0 0 1-.581.581.737.737 0 0 1-.76-.314.745.745 0 0 1 .092-.935.742.742 0 0 1 .524-.216Zm-8.709 25.138a.74.74 0 1 1 0 1.478.74.74 0 0 1 0-1.478Zm0-40.222a.738.738 0 0 1 .145 1.466.743.743 0 0 1-.885-.726.744.744 0 0 1 .74-.74Zm0 30.167a.738.738 0 0 1 .524 1.263.74.74 0 1 1-.524-1.263Zm0-10.056a.738.738 0 0 1 .145 1.466.738.738 0 0 1-.885-.726.744.744 0 0 1 .74-.74Zm0 40.223a.738.738 0 0 1 .524 1.263.743.743 0 0 1-1.139-.112.745.745 0 0 1 .092-.935.743.743 0 0 1 .523-.216Zm0-50.278a.738.738 0 0 1 .524 1.263.748.748 0 0 1-.379.203.747.747 0 0 1-.76-.315.742.742 0 0 1 .615-1.151Zm0 40.222c.147 0 .29.043.411.125a.733.733 0 0 1 .315.759.735.735 0 0 1-.581.582.743.743 0 0 1-.885-.726.744.744 0 0 1 .74-.74Zm8.709-155.861a.736.736 0 0 1 .683.457.735.735 0 0 1-.16.806.738.738 0 0 1-1.139-.112.744.744 0 0 1 .092-.935.749.749 0 0 1 .524-.216Zm0 40.222a.744.744 0 0 1 .683.457.737.737 0 0 1-.16.806.745.745 0 0 1-.807.161.738.738 0 0 1-.4-.967.737.737 0 0 1 .684-.457Zm0 10.055a.744.744 0 0 1 .683.457.738.738 0 0 1-.539 1.009.738.738 0 0 1-.828-1.009.742.742 0 0 1 .684-.457Zm0-40.222a.744.744 0 0 1 .683.457.737.737 0 0 1-.16.807.743.743 0 0 1-1.139-.113.74.74 0 0 1 .616-1.151Zm0 20.112c.146 0 .289.043.411.124a.745.745 0 0 1 .314.76.735.735 0 0 1-.581.581.737.737 0 0 1-.76-.314.745.745 0 0 1 .092-.935.742.742 0 0 1 .524-.216Zm-8.709-5.028a.738.738 0 0 1 .524 1.263.748.748 0 0 1-.379.203.747.747 0 0 1-.76-.315.742.742 0 0 1 .615-1.151Zm0 70.388a.74.74 0 0 1 .726.885.743.743 0 0 1-.581.581.745.745 0 0 1-.885-.725.744.744 0 0 1 .74-.741Zm0-80.444a.738.738 0 0 1 .145 1.466.743.743 0 0 1-.885-.726.744.744 0 0 1 .74-.74Zm8.709 45.25a.744.744 0 0 1 .683.457.737.737 0 0 1-.16.806.745.745 0 0 1-.807.161.738.738 0 0 1-.4-.967.737.737 0 0 1 .684-.457Zm8.708 75.417a.738.738 0 0 1 .144 1.466.743.743 0 0 1-.759-.315.736.736 0 0 1 .092-.934.735.735 0 0 1 .523-.217Zm26.125-75.417a.736.736 0 0 1 .684.457.743.743 0 0 1-.54 1.009.743.743 0 0 1-.759-.315.734.734 0 0 1 .092-.934.738.738 0 0 1 .523-.217Zm-43.542-25.139a.738.738 0 0 1 .145 1.466.738.738 0 0 1-.885-.726.744.744 0 0 1 .74-.74Zm0 50.278c.147 0 .29.043.411.125a.733.733 0 0 1 .315.759.735.735 0 0 1-.581.582.743.743 0 0 1-.885-.726.744.744 0 0 1 .74-.74Zm0-10.055a.738.738 0 0 1 .524 1.263.743.743 0 0 1-1.139-.112.745.745 0 0 1 .092-.935.743.743 0 0 1 .523-.216Zm0-20.112a.74.74 0 1 1 0 1.478.74.74 0 0 1 0-1.478Zm0 10.056c.147 0 .29.043.411.125a.733.733 0 0 1 .315.759.735.735 0 0 1-.581.582.743.743 0 0 1-.885-.726.744.744 0 0 1 .74-.74Zm0-20.111a.738.738 0 0 1 .524 1.263.74.74 0 1 1-.524-1.263Zm0-40.223a.74.74 0 0 1 .726.885.743.743 0 0 1-.581.581.745.745 0 0 1-.885-.725.744.744 0 0 1 .74-.741Zm17.417 50.278a.74.74 0 1 1 0 1.478.74.74 0 0 1 0-1.478Zm0 10.056a.738.738 0 0 1 .144 1.466.743.743 0 0 1-.759-.315.736.736 0 0 1 .092-.934.735.735 0 0 1 .523-.217Zm0-20.111a.738.738 0 0 1 .144 1.466.743.743 0 0 1-.759-.315.736.736 0 0 1 .092-.934.735.735 0 0 1 .523-.217Zm0-10.056a.74.74 0 1 1 0 1.478.74.74 0 0 1 0-1.478Zm0-10.055a.738.738 0 1 1-.283 1.423.736.736 0 0 1-.457-.683.74.74 0 0 1 .74-.74Zm0 50.278a.738.738 0 0 1 .144 1.465.735.735 0 0 1-.759-.314.737.737 0 0 1 .092-.935.732.732 0 0 1 .523-.216Zm0 50.277a.74.74 0 1 1 0 1.478.74.74 0 0 1 0-1.478Zm0-10.055a.738.738 0 1 1-.283 1.423.736.736 0 0 1-.457-.683.74.74 0 0 1 .74-.74Zm0-20.112a.74.74 0 1 1 0 1.478.74.74 0 0 1 0-1.478Zm0-10.055a.738.738 0 0 1 .144 1.466.743.743 0 0 1-.759-.315.736.736 0 0 1 .092-.934.735.735 0 0 1 .523-.217Zm0 20.111a.74.74 0 1 1 0 1.478.74.74 0 0 1 0-1.478Zm-8.708-25.139a.744.744 0 0 1 .683.457.737.737 0 0 1-.16.807.737.737 0 0 1-1.263-.524.725.725 0 0 1 .216-.523.749.749 0 0 1 .524-.217Zm0 50.278a.736.736 0 0 1 .683.457.737.737 0 0 1-.16.806.745.745 0 0 1-.807.161.738.738 0 0 1-.4-.967.737.737 0 0 1 .684-.457Zm0-30.167a.744.744 0 0 1 .683.457.737.737 0 0 1-.16.807.743.743 0 0 1-1.139-.113.738.738 0 0 1 .092-.934.749.749 0 0 1 .524-.217Zm0 10.056a.736.736 0 0 1 .683.457.735.735 0 0 1-.16.806.745.745 0 0 1-.807.161.738.738 0 0 1-.4-.967.737.737 0 0 1 .684-.457Zm8.708-95.528a.74.74 0 1 1 0 1.478.74.74 0 0 1 0-1.478Zm-8.708 75.417a.736.736 0 0 1 .683.457.735.735 0 0 1-.16.806.745.745 0 0 1-.807.161.745.745 0 0 1-.457-.684.741.741 0 0 1 .741-.74Zm0-20.111a.736.736 0 0 1 .683.457.735.735 0 0 1-.16.806.745.745 0 0 1-.379.203.746.746 0 0 1-.76-.315.744.744 0 0 1 .092-.935.749.749 0 0 1 .524-.216Zm0 70.388a.744.744 0 0 1 .683.457.738.738 0 0 1-.539 1.009.738.738 0 0 1-.828-1.009.742.742 0 0 1 .684-.457Zm8.708-135.75a.74.74 0 1 1 0 1.478.74.74 0 0 1 0-1.478Zm-8.708 165.917a.744.744 0 0 1 .683.457.737.737 0 0 1-.16.807.737.737 0 0 1-1.139-.113.74.74 0 0 1 .616-1.151Zm0-10.055a.736.736 0 0 1 .683.457.735.735 0 0 1-.16.806.745.745 0 0 1-.379.203.746.746 0 0 1-.76-.315.744.744 0 0 1 .092-.935.749.749 0 0 1 .524-.216Zm0-10.056a.744.744 0 0 1 .683.457.737.737 0 0 1-.16.806.745.745 0 0 1-.807.161.738.738 0 0 1-.4-.967.737.737 0 0 1 .684-.457Zm0-130.722a.736.736 0 0 1 .683.457.735.735 0 0 1-.16.806.745.745 0 0 1-.807.161.738.738 0 0 1-.4-.967.737.737 0 0 1 .684-.457Zm60.958 15.083a.736.736 0 0 1 .684.457.743.743 0 0 1-.54 1.009.735.735 0 0 1-.759-.315.74.74 0 0 1 .615-1.151Zm8.708 65.361a.74.74 0 1 1 0 1.478.74.74 0 0 1 0-1.478Zm0-70.388a.738.738 0 0 1 .144 1.465.735.735 0 0 1-.759-.314.737.737 0 0 1 .092-.935.739.739 0 0 1 .523-.216Zm0-30.167a.738.738 0 0 1 .144 1.466.736.736 0 0 1-.884-.726.738.738 0 0 1 .74-.74Zm0 40.222a.738.738 0 0 1 .144 1.466.743.743 0 0 1-.759-.315.736.736 0 0 1 .092-.934.74.74 0 0 1 .523-.217Zm-8.708 125.695a.743.743 0 0 1 .684.456.746.746 0 0 1-.161.807.735.735 0 0 1-.806.16.737.737 0 0 1-.457-.684.74.74 0 0 1 .74-.739Zm8.708-115.64a.74.74 0 1 1 0 1.478.74.74 0 0 1 0-1.478Zm0 30.167a.74.74 0 1 1 0 1.478.74.74 0 0 1 0-1.478Zm-8.708 75.417a.736.736 0 0 1 .684.457.743.743 0 0 1-.54 1.009.743.743 0 0 1-.759-.315.736.736 0 0 1 .092-.934.738.738 0 0 1 .523-.217Zm-26.125-85.472a.743.743 0 0 1 .684.456.746.746 0 0 1-.161.807.743.743 0 0 1-1.263-.523.738.738 0 0 1 .74-.74Zm34.833-10.056a.74.74 0 1 1 0 1.478.74.74 0 0 1 0-1.478Zm0 10.056a.738.738 0 1 1-.283 1.423.736.736 0 0 1-.457-.683.74.74 0 0 1 .74-.74Zm0-50.278a.738.738 0 0 1 .144 1.466.743.743 0 0 1-.759-.315.736.736 0 0 1 .092-.934.74.74 0 0 1 .523-.217Zm-8.708 65.361a.736.736 0 0 1 .684.457.743.743 0 0 1-.54 1.009.743.743 0 0 1-.759-.315.736.736 0 0 1 .092-.934.738.738 0 0 1 .523-.217Zm0-10.055a.743.743 0 0 1 .684.456.746.746 0 0 1-.161.807.735.735 0 0 1-.806.16.737.737 0 0 1-.457-.684.74.74 0 0 1 .74-.739Zm0-10.056a.736.736 0 0 1 .684.457.743.743 0 0 1-.54 1.009.743.743 0 0 1-.759-.315.736.736 0 0 1 .092-.934.738.738 0 0 1 .523-.217Zm0-10.056a.744.744 0 0 1 .684.457.743.743 0 0 1-.54 1.009.735.735 0 0 1-.759-.315.74.74 0 0 1 .615-1.151Zm0-10.055a.743.743 0 0 1 .684.456.746.746 0 0 1-.161.807.737.737 0 0 1-1.138-.112.736.736 0 0 1 .092-.934.738.738 0 0 1 .523-.217Zm0 100.555a.744.744 0 0 1 .684.457.743.743 0 0 1-.54 1.009.735.735 0 0 1-.759-.315.74.74 0 0 1 .615-1.151Zm0-20.111a.736.736 0 0 1 .684.457.743.743 0 0 1-.54 1.009.735.735 0 0 1-.759-.315.74.74 0 0 1 .615-1.151Zm0 10.056a.743.743 0 0 1 .684.456.746.746 0 0 1-.161.807.737.737 0 0 1-1.138-.112.736.736 0 0 1 .092-.934.738.738 0 0 1 .523-.217Zm0-20.111a.743.743 0 0 1 .684.456.746.746 0 0 1-.161.807.743.743 0 0 1-1.263-.523.738.738 0 0 1 .74-.74Zm0-10.056a.736.736 0 0 1 .684.457.743.743 0 0 1-.54 1.009.743.743 0 0 1-.759-.315.734.734 0 0 1 .092-.934.738.738 0 0 1 .523-.217Zm0-10.056a.744.744 0 0 1 .684.457.746.746 0 0 1-.161.807.736.736 0 0 1-.806.16.742.742 0 0 1-.457-.683.74.74 0 0 1 .74-.741Zm8.708-85.472a.74.74 0 1 1 0 1.478.74.74 0 0 1 0-1.478Zm8.709 85.472a.744.744 0 0 1 .683.457.738.738 0 0 1-.539 1.009.738.738 0 0 1-.828-1.009.742.742 0 0 1 .684-.457Zm0 10.056a.744.744 0 0 1 .683.457.737.737 0 0 1-.16.806.745.745 0 0 1-.807.161.738.738 0 0 1-.4-.967.737.737 0 0 1 .684-.457Zm0-30.166c.146 0 .289.043.411.124a.745.745 0 0 1 .314.76.735.735 0 0 1-.581.581.737.737 0 0 1-.76-.314.745.745 0 0 1 .092-.935.742.742 0 0 1 .524-.216Zm0 40.222a.736.736 0 0 1 .683.457.735.735 0 0 1-.16.806.745.745 0 0 1-.379.203.746.746 0 0 1-.76-.315.744.744 0 0 1 .092-.935.749.749 0 0 1 .524-.216Zm0-30.167a.736.736 0 0 1 .683.457.737.737 0 0 1-.16.806.745.745 0 0 1-.807.161.738.738 0 0 1-.4-.967.737.737 0 0 1 .684-.457Zm0 70.389a.736.736 0 0 1 .683.457.735.735 0 0 1-.16.806.745.745 0 0 1-.807.161.738.738 0 0 1-.4-.967.737.737 0 0 1 .684-.457Zm0-100.556a.744.744 0 0 1 .683.457.737.737 0 0 1-.16.807.743.743 0 0 1-1.139-.113.74.74 0 0 1 .616-1.151Zm0 110.612c.146 0 .289.043.411.124a.745.745 0 0 1 .314.76.735.735 0 0 1-.581.581.737.737 0 0 1-.76-.315.74.74 0 0 1 .616-1.15Zm0-30.167a.736.736 0 0 1 .683.457.735.735 0 0 1-.16.806.738.738 0 0 1-1.139-.112.744.744 0 0 1 .092-.935.749.749 0 0 1 .524-.216Zm0-10.056a.744.744 0 0 1 .683.457.737.737 0 0 1-.16.807.737.737 0 0 1-1.139-.113.74.74 0 0 1 .616-1.151Zm0 20.111a.744.744 0 0 1 .683.457.737.737 0 0 1-.16.807.743.743 0 0 1-1.139-.113.74.74 0 0 1 .616-1.151Zm-8.709-15.083a.738.738 0 0 1 .144 1.466.743.743 0 0 1-.759-.315.736.736 0 0 1 .092-.934.74.74 0 0 1 .523-.217Zm0 30.167a.738.738 0 1 1-.283 1.423.736.736 0 0 1-.457-.683.74.74 0 0 1 .74-.74Zm0-10.056a.74.74 0 1 1 0 1.478.74.74 0 0 1 0-1.478Zm0-10.056a.74.74 0 1 1 0 1.478.74.74 0 0 1 0-1.478Zm0-20.11a.738.738 0 0 1 .144 1.465.735.735 0 0 1-.759-.314.737.737 0 0 1 .092-.935.739.739 0 0 1 .523-.216Zm8.709-75.417a.736.736 0 0 1 .683.457.735.735 0 0 1-.16.806.745.745 0 0 1-.807.161.745.745 0 0 1-.457-.684.741.741 0 0 1 .741-.74Zm-8.709 65.361a.738.738 0 0 1 .144 1.466.743.743 0 0 1-.759-.315.736.736 0 0 1 .092-.934.74.74 0 0 1 .523-.217Zm8.709-85.472a.736.736 0 0 1 .683.457.735.735 0 0 1-.16.806.745.745 0 0 1-.379.203.746.746 0 0 1-.76-.315.744.744 0 0 1 .092-.935.749.749 0 0 1 .524-.216Zm0 10.055a.744.744 0 0 1 .683.457.737.737 0 0 1-.16.807.737.737 0 0 1-1.139-.113.74.74 0 0 1 .616-1.151Zm-8.709 135.75a.74.74 0 1 1 0 1.478.74.74 0 0 1 0-1.478Zm8.709-165.917a.744.744 0 0 1 .683.457.738.738 0 0 1-.539 1.009.738.738 0 0 1-.828-1.009.742.742 0 0 1 .684-.457Zm0 10.056a.744.744 0 0 1 .683.457.737.737 0 0 1-.16.806.745.745 0 0 1-.807.161.738.738 0 0 1-.4-.967.737.737 0 0 1 .684-.457Zm-8.709 75.417a.738.738 0 0 1 .144 1.466.743.743 0 0 1-.759-.315.736.736 0 0 1 .092-.934.74.74 0 0 1 .523-.217Zm-26.125-45.25a.738.738 0 0 1 .524 1.263.745.745 0 0 1-.807.161.743.743 0 0 1-.457-.684.742.742 0 0 1 .74-.74Zm0 90.5a.738.738 0 0 1 .524 1.263.745.745 0 0 1-.807.161.743.743 0 0 1-.457-.684.742.742 0 0 1 .74-.74Zm0-70.389c.147 0 .29.043.411.125a.733.733 0 0 1 .315.759.735.735 0 0 1-.581.582.743.743 0 0 1-.885-.726.744.744 0 0 1 .74-.74Zm0-30.167a.738.738 0 0 1 .145 1.466.738.738 0 0 1-.885-.726.744.744 0 0 1 .74-.74Zm0-10.055a.738.738 0 0 1 .524 1.263.752.752 0 0 1-.379.203.747.747 0 0 1-.76-.315.742.742 0 0 1 .615-1.151Zm0 50.278a.738.738 0 0 1 .524 1.263.743.743 0 0 1-1.139-.112.745.745 0 0 1 .092-.935.743.743 0 0 1 .523-.216Zm0 10.055c.147 0 .29.043.411.125a.733.733 0 0 1 .315.759.735.735 0 0 1-.581.582.743.743 0 0 1-.885-.726.744.744 0 0 1 .74-.74Zm0 30.167a.738.738 0 0 1 .524 1.263.752.752 0 0 1-.379.203.747.747 0 0 1-.76-.315.742.742 0 0 1 .615-1.151Zm0 10.055a.738.738 0 0 1 .145 1.466.738.738 0 0 1-.885-.726.744.744 0 0 1 .74-.74Zm0-30.167a.74.74 0 0 1 .726.885.743.743 0 0 1-.581.581.745.745 0 0 1-.885-.725.744.744 0 0 1 .74-.741Zm0-80.444a.738.738 0 0 1 .145 1.466.743.743 0 0 1-.885-.726.744.744 0 0 1 .74-.74Zm0 90.5a.738.738 0 0 1 .145 1.466.743.743 0 0 1-.885-.726.744.744 0 0 1 .74-.74Zm0-50.278a.74.74 0 1 1 0 1.478.74.74 0 0 1 0-1.478Zm0-50.278a.74.74 0 0 1 .726.885.743.743 0 0 1-.581.581.745.745 0 0 1-.885-.725.744.744 0 0 1 .74-.741Zm-8.708 105.584a.736.736 0 0 1 .684.457.743.743 0 0 1-.54 1.009.743.743 0 0 1-.759-.315.736.736 0 0 1 .092-.934.738.738 0 0 1 .523-.217Zm0 10.056a.743.743 0 0 1 .684.456.746.746 0 0 1-.161.807.735.735 0 0 1-.806.16.737.737 0 0 1-.457-.684.74.74 0 0 1 .74-.739Zm0-40.223a.736.736 0 0 1 .684.457.743.743 0 0 1-.54 1.009.735.735 0 0 1-.759-.315.74.74 0 0 1 .615-1.151Zm0 10.056a.743.743 0 0 1 .684.456.746.746 0 0 1-.161.807.737.737 0 0 1-1.138-.112.736.736 0 0 1 .092-.934.738.738 0 0 1 .523-.217Zm0 10.055a.744.744 0 0 1 .684.457.743.743 0 0 1-.54 1.009.735.735 0 0 1-.759-.315.74.74 0 0 1 .615-1.151Zm0 30.167a.736.736 0 0 1 .684.457.743.743 0 0 1-.54 1.009.743.743 0 0 1-.759-.315.736.736 0 0 1 .092-.934.738.738 0 0 1 .523-.217Zm0 30.167a.743.743 0 0 1 .684.456.746.746 0 0 1-.161.807.743.743 0 0 1-1.263-.523.738.738 0 0 1 .74-.74Zm0 10.055a.736.736 0 0 1 .684.457.743.743 0 0 1-.54 1.009.735.735 0 0 1-.759-.315.74.74 0 0 1 .615-1.151Zm0-30.167a.744.744 0 0 1 .684.457.746.746 0 0 1-.161.807.736.736 0 0 1-.806.16.742.742 0 0 1-.457-.683.74.74 0 0 1 .74-.741Zm0 10.056a.736.736 0 0 1 .684.457.743.743 0 0 1-.54 1.009.743.743 0 0 1-.759-.315.734.734 0 0 1 .092-.934.738.738 0 0 1 .523-.217Zm17.417-10.056a.744.744 0 0 1 .683.457.738.738 0 0 1-.539 1.009.738.738 0 0 1-.828-1.009.742.742 0 0 1 .684-.457Zm0-20.11c.146 0 .289.043.411.124a.745.745 0 0 1 .314.76.735.735 0 0 1-.581.581.737.737 0 0 1-.76-.314.745.745 0 0 1 .092-.935.742.742 0 0 1 .524-.216Zm0 10.055a.736.736 0 0 1 .683.457.737.737 0 0 1-.16.806.745.745 0 0 1-.807.161.738.738 0 0 1-.4-.967.745.745 0 0 1 .684-.457Zm0-40.222a.736.736 0 0 1 .683.457.735.735 0 0 1-.16.806.745.745 0 0 1-.807.161.745.745 0 0 1-.457-.684.741.741 0 0 1 .741-.74Zm0 10.055a.744.744 0 0 1 .683.457.737.737 0 0 1-.16.807.743.743 0 0 1-1.139-.113.74.74 0 0 1 .616-1.151Zm8.708-75.416a.743.743 0 0 1 .684.456.746.746 0 0 1-.161.807.743.743 0 0 1-1.263-.523.738.738 0 0 1 .74-.74Zm-8.708 85.472a.736.736 0 0 1 .683.457.735.735 0 0 1-.16.806.745.745 0 0 1-.807.161.738.738 0 0 1-.4-.967.737.737 0 0 1 .684-.457Zm8.708-95.528a.736.736 0 0 1 .684.457.743.743 0 0 1-.54 1.009.743.743 0 0 1-.759-.315.734.734 0 0 1 .092-.934.738.738 0 0 1 .523-.217Zm0-10.056a.744.744 0 0 1 .684.457.746.746 0 0 1-.161.807.736.736 0 0 1-.806.16.742.742 0 0 1-.457-.683.74.74 0 0 1 .74-.741Zm-8.708 145.806a.744.744 0 0 1 .683.457.737.737 0 0 1-.16.806.745.745 0 0 1-.807.161.738.738 0 0 1-.4-.967.737.737 0 0 1 .684-.457Zm0 10.056a.736.736 0 0 1 .683.457.735.735 0 0 1-.16.806.745.745 0 0 1-.379.203.746.746 0 0 1-.76-.315.744.744 0 0 1 .092-.935.749.749 0 0 1 .524-.216Zm0 10.055a.744.744 0 0 1 .683.457.737.737 0 0 1-.16.807.737.737 0 0 1-1.139-.113.74.74 0 0 1 .616-1.151Zm0-150.833a.736.736 0 0 1 .683.457.735.735 0 0 1-.16.806.745.745 0 0 1-.807.161.738.738 0 0 1-.4-.967.737.737 0 0 1 .684-.457Zm-8.709 125.694a.74.74 0 1 1 0 1.478.74.74 0 0 1 0-1.478Zm8.709-145.805a.736.736 0 0 1 .683.457.735.735 0 0 1-.16.806.738.738 0 0 1-1.139-.112.744.744 0 0 1 .092-.935.749.749 0 0 1 .524-.216Zm0 10.055a.744.744 0 0 1 .683.457.737.737 0 0 1-.16.807.743.743 0 0 1-1.139-.113.74.74 0 0 1 .616-1.151Zm-8.709 145.806c.147 0 .29.043.411.125a.733.733 0 0 1 .315.759.735.735 0 0 1-.581.582.743.743 0 0 1-.885-.726.744.744 0 0 1 .74-.74Zm0 10.056a.738.738 0 0 1 .524 1.263.743.743 0 0 1-1.139-.112.745.745 0 0 1 .092-.935.743.743 0 0 1 .523-.216Zm8.709-115.64a.744.744 0 0 1 .683.457.738.738 0 0 1-.539 1.009.738.738 0 0 1-.828-1.009.742.742 0 0 1 .684-.457Zm0 10.056a.744.744 0 0 1 .683.457.737.737 0 0 1-.16.806.745.745 0 0 1-.807.161.738.738 0 0 1-.4-.967.737.737 0 0 1 .684-.457Zm0 10.056a.736.736 0 0 1 .683.457.735.735 0 0 1-.16.806.745.745 0 0 1-.379.203.746.746 0 0 1-.76-.315.744.744 0 0 1 .092-.935.749.749 0 0 1 .524-.216Zm0 10.055a.744.744 0 0 1 .683.457.737.737 0 0 1-.16.807.737.737 0 0 1-1.139-.113.74.74 0 0 1 .616-1.151Zm0-40.222a.744.744 0 0 1 .683.457.737.737 0 0 1-.16.806.745.745 0 0 1-.807.161.738.738 0 0 1-.4-.967.745.745 0 0 1 .684-.457Zm0-10.055c.146 0 .289.043.411.124a.745.745 0 0 1 .314.76.735.735 0 0 1-.581.581.737.737 0 0 1-.76-.314.745.745 0 0 1 .092-.935.742.742 0 0 1 .524-.216Zm26.125 35.194a.736.736 0 0 1 .683.457.735.735 0 0 1-.16.806.745.745 0 0 1-.807.161.738.738 0 0 1-.4-.967.737.737 0 0 1 .684-.457Zm-156.75-30.167a.744.744 0 0 1 .683.457.737.737 0 0 1-.16.807.737.737 0 0 1-1.139-.113.74.74 0 0 1 .616-1.151Zm0-20.111a.744.744 0 0 1 .683.457.737.737 0 0 1-.16.806.745.745 0 0 1-.807.161.738.738 0 0 1-.4-.967.745.745 0 0 1 .684-.457Zm0 10.056a.736.736 0 0 1 .683.457.735.735 0 0 1-.16.806.745.745 0 0 1-.379.203.746.746 0 0 1-.76-.315.744.744 0 0 1 .092-.935.749.749 0 0 1 .524-.216Zm0-20.112a.744.744 0 0 1 .683.457.738.738 0 0 1-.539 1.009.738.738 0 0 1-.828-1.009.742.742 0 0 1 .684-.457Zm-8.709 165.917a.738.738 0 0 1 .145 1.466.738.738 0 0 1-.885-.726.744.744 0 0 1 .74-.74Zm0-10.055a.738.738 0 0 1 .524 1.263.752.752 0 0 1-.379.203.747.747 0 0 1-.76-.315.742.742 0 0 1 .615-1.151Zm8.709-115.639a.736.736 0 0 1 .683.457.735.735 0 0 1-.16.806.745.745 0 0 1-.807.161.745.745 0 0 1-.457-.684.741.741 0 0 1 .741-.74Zm0 40.222a.736.736 0 0 1 .683.457.737.737 0 0 1-.16.806.745.745 0 0 1-.807.161.738.738 0 0 1-.4-.967.745.745 0 0 1 .684-.457Zm0 10.055a.744.744 0 0 1 .683.457.738.738 0 0 1-.539 1.009.738.738 0 0 1-.828-1.009.742.742 0 0 1 .684-.457Zm-8.709 55.306a.738.738 0 0 1 .145 1.466.743.743 0 0 1-.885-.726.744.744 0 0 1 .74-.74Zm0-140.778a.74.74 0 1 1 0 1.478.74.74 0 0 1 0-1.478Zm8.709 45.25a.744.744 0 0 1 .683.457.737.737 0 0 1-.16.807.743.743 0 0 1-1.139-.113.74.74 0 0 1 .616-1.151Zm0 10.056a.736.736 0 0 1 .683.457.735.735 0 0 1-.16.806.745.745 0 0 1-.807.161.738.738 0 0 1-.4-.967.745.745 0 0 1 .684-.457Zm-8.709 45.25c.147 0 .29.043.411.125a.733.733 0 0 1 .315.759.735.735 0 0 1-.581.582.743.743 0 0 1-.885-.726.744.744 0 0 1 .74-.74Zm0-70.389c.147 0 .29.043.411.125a.733.733 0 0 1 .315.759.735.735 0 0 1-.581.582.743.743 0 0 1-.885-.726.744.744 0 0 1 .74-.74Zm0 10.055a.74.74 0 0 1 .726.885.743.743 0 0 1-.581.581.745.745 0 0 1-.885-.725.744.744 0 0 1 .74-.741Zm0 10.056a.738.738 0 0 1 .145 1.466.743.743 0 0 1-.885-.726.744.744 0 0 1 .74-.74Zm0-30.166a.738.738 0 0 1 .524 1.263.743.743 0 0 1-1.139-.112.745.745 0 0 1 .092-.935.743.743 0 0 1 .523-.216Zm0-10.056c.147 0 .29.043.411.125a.733.733 0 0 1 .315.759.735.735 0 0 1-.581.582.743.743 0 0 1-.885-.726.744.744 0 0 1 .74-.74Zm0 50.278a.738.738 0 0 1 .524 1.263.752.752 0 0 1-.379.203.747.747 0 0 1-.76-.315.742.742 0 0 1 .615-1.151Zm0 60.333c.147 0 .29.043.411.125a.733.733 0 0 1 .315.759.735.735 0 0 1-.581.582.743.743 0 0 1-.885-.726.744.744 0 0 1 .74-.74Zm8.709-25.139a.744.744 0 0 1 .683.457.737.737 0 0 1-.16.806.745.745 0 0 1-.807.161.738.738 0 0 1-.4-.967.745.745 0 0 1 .684-.457Zm-8.709-25.139a.738.738 0 0 1 .145 1.466.738.738 0 0 1-.885-.726.744.744 0 0 1 .74-.74Zm0 60.333a.74.74 0 0 1 .726.885.743.743 0 0 1-.581.581.745.745 0 0 1-.885-.725.744.744 0 0 1 .74-.741Zm0-20.11a.738.738 0 0 1 .524 1.263.743.743 0 0 1-1.139-.112.745.745 0 0 1 .092-.935.743.743 0 0 1 .523-.216Zm0-30.167a.738.738 0 0 1 .524 1.263.745.745 0 0 1-.807.161.743.743 0 0 1-.457-.684.742.742 0 0 1 .74-.74Zm0 10.055a.74.74 0 1 1 0 1.478.74.74 0 0 1 0-1.478Zm8.709-25.138c.146 0 .289.043.411.124a.745.745 0 0 1 .314.76.735.735 0 0 1-.581.581.737.737 0 0 1-.76-.314.745.745 0 0 1 .092-.935.742.742 0 0 1 .524-.216Zm8.708 35.194a.738.738 0 0 1 .144 1.466.743.743 0 0 1-.759-.315.736.736 0 0 1 .092-.934.735.735 0 0 1 .523-.217Zm0 20.111a.738.738 0 0 1 .144 1.466.743.743 0 0 1-.759-.315.736.736 0 0 1 .092-.934.735.735 0 0 1 .523-.217Zm0-30.167a.74.74 0 1 1 0 1.478.74.74 0 0 1 0-1.478Zm0 20.112a.738.738 0 0 1 .144 1.465.735.735 0 0 1-.759-.314.737.737 0 0 1 .092-.935.732.732 0 0 1 .523-.216Zm0-40.223a.74.74 0 1 1 0 1.478.74.74 0 0 1 0-1.478Zm0-10.055a.738.738 0 1 1-.283 1.423.736.736 0 0 1-.457-.683.74.74 0 0 1 .74-.74Zm0 20.111a.738.738 0 0 1 .144 1.466.743.743 0 0 1-.759-.315.736.736 0 0 1 .092-.934.735.735 0 0 1 .523-.217Zm8.708-85.473a.74.74 0 0 1 .726.885.743.743 0 0 1-.581.581.745.745 0 0 1-.885-.725.744.744 0 0 1 .74-.741Zm0 10.056a.738.738 0 0 1 .145 1.466.743.743 0 0 1-.885-.726.744.744 0 0 1 .74-.74Zm-8.708 155.861a.74.74 0 1 1 0 1.478.74.74 0 0 1 0-1.478Zm0-20.111a.74.74 0 1 1 0 1.478.74.74 0 0 1 0-1.478Zm0-10.056a.74.74 0 1 1 0 1.478.74.74 0 0 1 0-1.478Zm-8.708-25.138a.736.736 0 0 1 .683.457.735.735 0 0 1-.16.806.745.745 0 0 1-.379.203.746.746 0 0 1-.76-.315.744.744 0 0 1 .092-.935.749.749 0 0 1 .524-.216Zm8.708 45.25a.738.738 0 1 1-.283 1.423.736.736 0 0 1-.457-.683.74.74 0 0 1 .74-.74Zm-8.708-5.028a.736.736 0 0 1 .683.457.735.735 0 0 1-.16.806.745.745 0 0 1-.807.161.738.738 0 0 1-.4-.967.745.745 0 0 1 .684-.457Zm8.708-95.528a.74.74 0 1 1 0 1.478.74.74 0 0 1 0-1.478Zm-8.708 105.584c.146 0 .289.043.411.124a.745.745 0 0 1 .314.76.735.735 0 0 1-.581.581.737.737 0 0 1-.76-.315.74.74 0 0 1 .616-1.15Zm0-40.223a.744.744 0 0 1 .683.457.737.737 0 0 1-.16.807.737.737 0 0 1-1.139-.113.74.74 0 0 1 .616-1.151Zm8.708-125.694a.738.738 0 0 1 .144 1.466.736.736 0 0 1-.884-.726.74.74 0 0 1 .74-.74Zm8.708 25.139a.738.738 0 0 1 .524 1.263.752.752 0 0 1-.379.203.747.747 0 0 1-.76-.315.742.742 0 0 1 .615-1.151Zm-17.416 120.666a.744.744 0 0 1 .683.457.737.737 0 0 1-.16.807.743.743 0 0 1-1.139-.113.74.74 0 0 1 .616-1.151Zm8.708-105.583a.738.738 0 0 1 .144 1.466.743.743 0 0 1-.759-.315.736.736 0 0 1 .092-.934.735.735 0 0 1 .523-.217Zm0 10.055a.74.74 0 1 1 0 1.478.74.74 0 0 1 0-1.478Zm0-30.166a.738.738 0 0 1 .144 1.466.743.743 0 0 1-.759-.315.736.736 0 0 1 .092-.934.735.735 0 0 1 .523-.217Zm0 10.056a.738.738 0 0 1 .144 1.465.735.735 0 0 1-.759-.315.731.731 0 0 1-.069-.694.75.75 0 0 1 .401-.4.744.744 0 0 1 .283-.056Zm0-20.112a.74.74 0 1 1 0 1.478.74.74 0 0 1 0-1.478Zm-8.708 125.695a.736.736 0 0 1 .683.457.735.735 0 0 1-.16.806.738.738 0 0 1-1.139-.112.744.744 0 0 1 .092-.935.749.749 0 0 1 .524-.216Zm-34.834 30.167a.738.738 0 0 1 .524 1.263.743.743 0 0 1-1.139-.112.745.745 0 0 1 .092-.935.743.743 0 0 1 .523-.216Zm0-10.056c.147 0 .29.043.411.125a.733.733 0 0 1 .315.759.735.735 0 0 1-.581.582.743.743 0 0 1-.885-.726.744.744 0 0 1 .74-.74Zm8.709-155.861a.736.736 0 0 1 .683.457.735.735 0 0 1-.16.806.738.738 0 0 1-1.139-.112.744.744 0 0 1 .092-.935.749.749 0 0 1 .524-.216Zm-8.709 125.694a.738.738 0 0 1 .145 1.466.738.738 0 0 1-.885-.726.744.744 0 0 1 .74-.74Zm0 10.056a.738.738 0 0 1 .524 1.263.745.745 0 0 1-.807.161.743.743 0 0 1-.457-.684.742.742 0 0 1 .74-.74Zm8.709-125.695a.744.744 0 0 1 .683.457.737.737 0 0 1-.16.807.743.743 0 0 1-1.139-.113.74.74 0 0 1 .616-1.151Zm-8.709 135.75a.74.74 0 1 1 0 1.478.74.74 0 0 1 0-1.478Zm8.709-85.472a.744.744 0 0 1 .683.457.737.737 0 0 1-.16.806.745.745 0 0 1-.807.161.738.738 0 0 1-.4-.967.737.737 0 0 1 .684-.457Zm0-40.222a.736.736 0 0 1 .683.457.735.735 0 0 1-.16.806.745.745 0 0 1-.807.161.738.738 0 0 1-.4-.967.737.737 0 0 1 .684-.457Zm0 50.278a.736.736 0 0 1 .683.457.735.735 0 0 1-.16.806.745.745 0 0 1-.379.203.746.746 0 0 1-.76-.315.744.744 0 0 1 .092-.935.749.749 0 0 1 .524-.216Zm0-20.112a.744.744 0 0 1 .683.457.738.738 0 0 1-.539 1.009.738.738 0 0 1-.828-1.009.742.742 0 0 1 .684-.457Zm0-10.055a.736.736 0 0 1 .683.457.737.737 0 0 1-.16.806.745.745 0 0 1-.807.161.738.738 0 0 1-.4-.967.745.745 0 0 1 .684-.457Zm0-10.055c.146 0 .289.043.411.124a.745.745 0 0 1 .314.76.735.735 0 0 1-.581.581.737.737 0 0 1-.76-.315.74.74 0 0 1 .616-1.15Zm-8.709-15.084a.738.738 0 0 1 .145 1.466.743.743 0 0 1-.885-.726.744.744 0 0 1 .74-.74Zm0 20.111a.738.738 0 0 1 .145 1.466.738.738 0 0 1-.885-.726.744.744 0 0 1 .74-.74Zm0 20.111a.74.74 0 1 1 0 1.478.74.74 0 0 1 0-1.478Zm0-10.055a.738.738 0 0 1 .524 1.263.745.745 0 0 1-.807.161.743.743 0 0 1-.457-.684.742.742 0 0 1 .74-.74Zm0-20.111a.738.738 0 0 1 .524 1.263.752.752 0 0 1-.379.203.747.747 0 0 1-.76-.315.742.742 0 0 1 .615-1.151Zm8.709 55.305a.744.744 0 0 1 .683.457.737.737 0 0 1-.16.807.737.737 0 0 1-1.139-.113.74.74 0 0 1 .616-1.151Zm-8.709 35.195a.738.738 0 0 1 .524 1.263.752.752 0 0 1-.379.203.747.747 0 0 1-.76-.315.742.742 0 0 1 .615-1.151Zm0-110.612a.74.74 0 0 1 .726.885.743.743 0 0 1-.581.581.745.745 0 0 1-.885-.725.744.744 0 0 1 .74-.741Zm0 90.5a.74.74 0 0 1 .726.885.743.743 0 0 1-.581.581.745.745 0 0 1-.885-.725.744.744 0 0 1 .74-.741Zm0-30.166c.147 0 .29.043.411.125a.733.733 0 0 1 .315.759.735.735 0 0 1-.581.582.743.743 0 0 1-.885-.726.744.744 0 0 1 .74-.74Zm0 40.222a.738.738 0 0 1 .145 1.466.743.743 0 0 1-.885-.726.744.744 0 0 1 .74-.74Zm0-20.111c.147 0 .29.043.411.125a.733.733 0 0 1 .315.759.735.735 0 0 1-.581.582.743.743 0 0 1-.885-.726.744.744 0 0 1 .74-.74Zm0-10.055a.738.738 0 0 1 .524 1.263.743.743 0 0 1-1.139-.112.745.745 0 0 1 .092-.935.743.743 0 0 1 .523-.216Zm17.417-70.39a.74.74 0 1 1 0 1.478.74.74 0 0 1 0-1.478Zm0 70.39a.738.738 0 0 1 .144 1.465.735.735 0 0 1-.759-.315.731.731 0 0 1-.069-.694.75.75 0 0 1 .401-.4.725.725 0 0 1 .283-.056Zm0 10.055a.738.738 0 0 1 .144 1.466.743.743 0 0 1-.759-.315.736.736 0 0 1 .092-.934.724.724 0 0 1 .523-.217Zm0 10.055a.74.74 0 1 1 0 1.478.74.74 0 0 1 0-1.478Zm0-30.166a.738.738 0 0 1 .144 1.466.743.743 0 0 1-.759-.315.736.736 0 0 1 .092-.934.724.724 0 0 1 .523-.217Zm0-10.056a.74.74 0 1 1 0 1.478.74.74 0 0 1 0-1.478Zm0 50.278a.74.74 0 1 1 0 1.478.74.74 0 0 1 0-1.478Zm0 20.111a.74.74 0 1 1 0 1.478.74.74 0 0 1 0-1.478Zm0 30.167a.738.738 0 0 1 .144 1.466.743.743 0 0 1-.759-.315.736.736 0 0 1 .092-.934.724.724 0 0 1 .523-.217Zm-8.708-65.361a.736.736 0 0 1 .683.457.735.735 0 0 1-.16.806.738.738 0 0 1-1.139-.112.744.744 0 0 1 .092-.935.749.749 0 0 1 .524-.216Zm8.708 55.305a.74.74 0 1 1 0 1.478.74.74 0 0 1 0-1.478Zm0-10.055a.738.738 0 0 1 .144 1.466.736.736 0 0 1-.884-.726.74.74 0 0 1 .74-.74Zm0-90.5a.738.738 0 0 1 .144 1.466.736.736 0 0 1-.884-.726.74.74 0 0 1 .74-.74Zm0 70.389c.147 0 .29.043.411.125a.733.733 0 0 1 .315.759.737.737 0 0 1-.582.582.743.743 0 0 1-.884-.726.749.749 0 0 1 .217-.524.737.737 0 0 1 .523-.216Zm0 50.278a.738.738 0 0 1 .144 1.465.735.735 0 0 1-.759-.315.731.731 0 0 1-.069-.694.75.75 0 0 1 .401-.4.725.725 0 0 1 .283-.056Zm-8.708-15.084a.744.744 0 0 1 .683.457.737.737 0 0 1-.16.806.745.745 0 0 1-.807.161.738.738 0 0 1-.4-.967.737.737 0 0 1 .684-.457Zm0-20.111a.736.736 0 0 1 .683.457.737.737 0 0 1-.16.806.745.745 0 0 1-.807.161.738.738 0 0 1-.4-.967.737.737 0 0 1 .684-.457Zm0 10.055a.744.744 0 0 1 .683.457.738.738 0 0 1-.539 1.009.738.738 0 0 1-.828-1.009.742.742 0 0 1 .684-.457Zm0-20.11c.146 0 .289.043.411.124a.745.745 0 0 1 .314.76.735.735 0 0 1-.581.581.737.737 0 0 1-.76-.315.74.74 0 0 1 .616-1.15Zm0-10.056a.736.736 0 0 1 .683.457.735.735 0 0 1-.16.806.745.745 0 0 1-.807.161.738.738 0 0 1-.4-.967.737.737 0 0 1 .684-.457Zm0-10.056a.744.744 0 0 1 .683.457.737.737 0 0 1-.16.807.743.743 0 0 1-1.139-.113.74.74 0 0 1 .616-1.151Zm8.708-75.416a.738.738 0 1 1-.283 1.423.736.736 0 0 1-.457-.683.749.749 0 0 1 .217-.524.737.737 0 0 1 .523-.216Zm-8.708 135.75a.736.736 0 0 1 .683.457.735.735 0 0 1-.16.806.745.745 0 0 1-.379.203.746.746 0 0 1-.76-.315.744.744 0 0 1 .092-.935.749.749 0 0 1 .524-.216Zm8.708-125.695a.74.74 0 1 1 0 1.478.74.74 0 0 1 0-1.478Zm0-20.111a.74.74 0 1 1 0 1.478.74.74 0 0 1 0-1.478Zm-8.708 155.861a.744.744 0 0 1 .683.457.737.737 0 0 1-.16.807.737.737 0 0 1-1.139-.113.74.74 0 0 1 .616-1.151Zm17.416-170.944a.738.738 0 0 1 .524 1.263.745.745 0 0 1-.807.161.743.743 0 0 1-.457-.684.742.742 0 0 1 .74-.74Zm52.25 120.667a.738.738 0 0 1 .524 1.263.743.743 0 0 1-1.139-.112.745.745 0 0 1 .092-.935.743.743 0 0 1 .523-.216Zm0 50.277a.738.738 0 0 1 .145 1.466.738.738 0 0 1-.885-.726.744.744 0 0 1 .74-.74Zm0-10.055a.738.738 0 0 1 .524 1.263.748.748 0 0 1-.379.203.747.747 0 0 1-.76-.315.742.742 0 0 1 .615-1.151Zm8.709-155.862a.744.744 0 0 1 .683.457.738.738 0 0 1-.539 1.009.738.738 0 0 1-.828-1.009.742.742 0 0 1 .684-.457Zm0 10.056a.744.744 0 0 1 .683.457.737.737 0 0 1-.16.806.745.745 0 0 1-.807.161.738.738 0 0 1-.4-.967.737.737 0 0 1 .684-.457Zm-8.709 135.75a.738.738 0 0 1 .145 1.466.743.743 0 0 1-.885-.726.744.744 0 0 1 .74-.74Zm0-10.056a.74.74 0 0 1 .726.885.743.743 0 0 1-.581.581.745.745 0 0 1-.885-.725.744.744 0 0 1 .74-.741Zm8.709-85.472a.744.744 0 0 1 .683.457.737.737 0 0 1-.16.807.743.743 0 0 1-1.139-.113.74.74 0 0 1 .616-1.151Zm0-30.166a.736.736 0 0 1 .683.457.735.735 0 0 1-.16.806.745.745 0 0 1-.379.203.746.746 0 0 1-.76-.315.744.744 0 0 1 .092-.935.749.749 0 0 1 .524-.216Zm0 40.222a.736.736 0 0 1 .683.457.735.735 0 0 1-.16.806.745.745 0 0 1-.807.161.738.738 0 0 1-.4-.967.737.737 0 0 1 .684-.457Zm0 10.056c.146 0 .289.043.411.124a.745.745 0 0 1 .314.76.735.735 0 0 1-.581.581.737.737 0 0 1-.76-.314.745.745 0 0 1 .092-.935.742.742 0 0 1 .524-.216Zm-8.709 55.305c.147 0 .29.043.411.125a.733.733 0 0 1 .315.759.735.735 0 0 1-.581.582.743.743 0 0 1-.885-.726.744.744 0 0 1 .74-.74Zm8.709-45.25a.736.736 0 0 1 .683.457.737.737 0 0 1-.16.806.745.745 0 0 1-.807.161.738.738 0 0 1-.4-.967.737.737 0 0 1 .684-.457Zm0-50.278a.744.744 0 0 1 .683.457.737.737 0 0 1-.16.807.737.737 0 0 1-1.139-.113.74.74 0 0 1 .616-1.151Zm0 10.056a.736.736 0 0 1 .683.457.735.735 0 0 1-.16.806.745.745 0 0 1-.807.161.745.745 0 0 1-.457-.684.741.741 0 0 1 .741-.74Zm-8.709-5.028c.147 0 .29.043.411.125a.733.733 0 0 1 .315.759.735.735 0 0 1-.581.582.743.743 0 0 1-.885-.726.744.744 0 0 1 .74-.74Zm0-10.055a.738.738 0 0 1 .524 1.263.743.743 0 0 1-1.139-.112.745.745 0 0 1 .092-.935.743.743 0 0 1 .523-.216Zm0 30.166a.738.738 0 0 1 .145 1.466.743.743 0 0 1-.885-.726.744.744 0 0 1 .74-.74Zm0-10.056a.74.74 0 0 1 .726.885.743.743 0 0 1-.581.581.745.745 0 0 1-.885-.725.744.744 0 0 1 .74-.741Zm0-40.222a.74.74 0 1 1 0 1.478.74.74 0 0 1 0-1.478Zm0 10.056c.147 0 .29.043.411.125a.733.733 0 0 1 .315.759.735.735 0 0 1-.581.582.743.743 0 0 1-.885-.726.744.744 0 0 1 .74-.74ZM205.5 471.232a.74.74 0 1 1 0 1.478.74.74 0 0 1 0-1.478Zm-17.417-70.389a.74.74 0 1 1 0 1.478.74.74 0 0 1 0-1.478Zm0-30.166a.738.738 0 0 1 .524 1.263.748.748 0 0 1-.379.203.747.747 0 0 1-.76-.315.742.742 0 0 1 .615-1.151Zm0 40.222c.147 0 .29.043.411.125a.733.733 0 0 1 .315.759.735.735 0 0 1-.581.582.743.743 0 0 1-.885-.726.744.744 0 0 1 .74-.74Zm0-20.111a.738.738 0 0 1 .524 1.263.74.74 0 1 1-.524-1.263Zm0-10.056a.738.738 0 0 1 .145 1.466.738.738 0 0 1-.885-.726.744.744 0 0 1 .74-.74Zm8.709 55.306a.736.736 0 0 1 .683.457.735.735 0 0 1-.16.806.738.738 0 0 1-1.139-.112.744.744 0 0 1 .092-.935.749.749 0 0 1 .524-.216Zm8.708-55.306a.74.74 0 1 1 0 1.478.74.74 0 0 1 0-1.478Zm0 10.056a.738.738 0 0 1 .144 1.466.743.743 0 0 1-.759-.315.736.736 0 0 1 .092-.934.735.735 0 0 1 .523-.217Zm0 10.055a.74.74 0 1 1 0 1.478.74.74 0 0 1 0-1.478Zm0 10.056a.738.738 0 0 1 .144 1.466.743.743 0 0 1-.759-.315.736.736 0 0 1 .092-.934.735.735 0 0 1 .523-.217Zm0-40.222a.738.738 0 1 1-.283 1.423.736.736 0 0 1-.457-.683.74.74 0 0 1 .74-.74Zm0-10.056a.74.74 0 1 1 0 1.478.74.74 0 0 1 0-1.478Zm0 80.444a.74.74 0 1 1 0 1.478.74.74 0 0 1 0-1.478Zm0-20.11a.738.738 0 0 1 .144 1.465.735.735 0 0 1-.759-.314.737.737 0 0 1 .092-.935.732.732 0 0 1 .523-.216Zm0 30.166a.74.74 0 1 1 0 1.478.74.74 0 0 1 0-1.478Zm0 10.056a.738.738 0 1 1-.283 1.423.736.736 0 0 1-.457-.683.74.74 0 0 1 .74-.74Zm0-30.167a.738.738 0 0 1 .144 1.466.743.743 0 0 1-.759-.315.736.736 0 0 1 .092-.934.735.735 0 0 1 .523-.217Zm0-80.445a.74.74 0 1 1 0 1.478.74.74 0 0 1 0-1.478Zm0-10.055a.738.738 0 0 1 .144 1.466.743.743 0 0 1-.759-.315.736.736 0 0 1 .092-.934.735.735 0 0 1 .523-.217Zm-8.708 115.639a.736.736 0 0 1 .683.457.735.735 0 0 1-.16.806.745.745 0 0 1-.807.161.738.738 0 0 1-.4-.967.737.737 0 0 1 .684-.457Zm0-30.167a.744.744 0 0 1 .683.457.737.737 0 0 1-.16.807.737.737 0 0 1-1.139-.113.74.74 0 0 1 .616-1.151Zm0-30.167a.744.744 0 0 1 .683.457.738.738 0 0 1-.539 1.009.738.738 0 0 1-.828-1.009.742.742 0 0 1 .684-.457Zm-8.709-95.527a.738.738 0 0 1 .524 1.263.74.74 0 1 1-.524-1.263Zm8.709 115.639a.736.736 0 0 1 .683.457.735.735 0 0 1-.16.806.745.745 0 0 1-.379.203.746.746 0 0 1-.76-.315.744.744 0 0 1 .092-.935.749.749 0 0 1 .524-.216Zm0-10.056a.744.744 0 0 1 .683.457.737.737 0 0 1-.16.806.745.745 0 0 1-.807.161.738.738 0 0 1-.4-.967.737.737 0 0 1 .684-.457Zm0 40.222a.744.744 0 0 1 .683.457.737.737 0 0 1-.16.807.743.743 0 0 1-1.139-.113.74.74 0 0 1 .616-1.151Zm8.708-115.638a.738.738 0 0 1 .144 1.465.735.735 0 0 1-.759-.314.737.737 0 0 1 .092-.935.732.732 0 0 1 .523-.216Zm0-10.056a.738.738 0 0 1 .144 1.466.743.743 0 0 1-.759-.315.736.736 0 0 1 .092-.934.735.735 0 0 1 .523-.217Zm0-10.056a.74.74 0 1 1 0 1.478.74.74 0 0 1 0-1.478Zm0-10.055a.738.738 0 0 1 .144 1.466.736.736 0 0 1-.884-.726.74.74 0 0 1 .74-.74Zm-8.708 165.917c.146 0 .289.043.411.124a.745.745 0 0 1 .314.76.735.735 0 0 1-.581.581.737.737 0 0 1-.76-.315.74.74 0 0 1 .616-1.15Zm-17.417-30.167a.738.738 0 0 1 .144 1.466.743.743 0 0 1-.759-.315.736.736 0 0 1 .092-.934.735.735 0 0 1 .523-.217Zm-8.708-105.583c.146 0 .289.043.411.124a.745.745 0 0 1 .314.76.735.735 0 0 1-.581.581.737.737 0 0 1-.76-.314.745.745 0 0 1 .092-.935.742.742 0 0 1 .524-.216Zm0-10.056a.736.736 0 0 1 .683.457.735.735 0 0 1-.16.806.745.745 0 0 1-.807.161.738.738 0 0 1-.4-.967.745.745 0 0 1 .684-.457Zm0 30.166a.744.744 0 0 1 .683.457.738.738 0 0 1-.539 1.009.738.738 0 0 1-.828-1.009.742.742 0 0 1 .684-.457Zm0-10.055a.744.744 0 0 1 .683.457.737.737 0 0 1-.16.806.745.745 0 0 1-.807.161.738.738 0 0 1-.4-.967.745.745 0 0 1 .684-.457Zm0-40.222a.736.736 0 0 1 .683.457.735.735 0 0 1-.16.806.738.738 0 0 1-1.139-.112.744.744 0 0 1 .092-.935.749.749 0 0 1 .524-.216Zm0 10.055a.744.744 0 0 1 .683.457.737.737 0 0 1-.16.807.743.743 0 0 1-1.139-.113.74.74 0 0 1 .616-1.151Zm0 100.556a.736.736 0 0 1 .683.457.735.735 0 0 1-.16.806.745.745 0 0 1-.807.161.738.738 0 0 1-.4-.967.745.745 0 0 1 .684-.457Zm0-10.056a.744.744 0 0 1 .683.457.737.737 0 0 1-.16.807.743.743 0 0 1-1.139-.113.74.74 0 0 1 .616-1.151Zm-8.709 65.362a.738.738 0 0 1 .524 1.263.743.743 0 0 1-1.139-.112.745.745 0 0 1 .092-.935.743.743 0 0 1 .523-.216Zm8.709-105.584a.744.744 0 0 1 .683.457.737.737 0 0 1-.16.806.745.745 0 0 1-.807.161.738.738 0 0 1-.4-.967.745.745 0 0 1 .684-.457Zm0 30.167a.736.736 0 0 1 .683.457.735.735 0 0 1-.16.806.745.745 0 0 1-.807.161.745.745 0 0 1-.457-.684.741.741 0 0 1 .741-.74Zm0-20.111a.736.736 0 0 1 .683.457.735.735 0 0 1-.16.806.745.745 0 0 1-.379.203.746.746 0 0 1-.76-.315.744.744 0 0 1 .092-.935.749.749 0 0 1 .524-.216Zm-8.709 15.083c.147 0 .29.043.411.125a.733.733 0 0 1 .315.759.735.735 0 0 1-.581.582.743.743 0 0 1-.885-.726.744.744 0 0 1 .74-.74Zm0-10.055a.738.738 0 0 1 .524 1.263.743.743 0 0 1-1.139-.112.745.745 0 0 1 .092-.935.743.743 0 0 1 .523-.216Zm8.709 45.25c.146 0 .289.043.411.124a.745.745 0 0 1 .314.76.735.735 0 0 1-.581.581.737.737 0 0 1-.76-.314.745.745 0 0 1 .092-.935.742.742 0 0 1 .524-.216Zm-8.709-55.306c.147 0 .29.043.411.125a.733.733 0 0 1 .315.759.735.735 0 0 1-.581.582.743.743 0 0 1-.885-.726.744.744 0 0 1 .74-.74Zm0 90.5c.147 0 .29.043.411.125a.733.733 0 0 1 .315.759.735.735 0 0 1-.581.582.743.743 0 0 1-.885-.726.744.744 0 0 1 .74-.74Zm0-60.334a.74.74 0 0 1 .726.885.743.743 0 0 1-.581.581.745.745 0 0 1-.885-.725.744.744 0 0 1 .74-.741Zm0-50.277a.738.738 0 0 1 .524 1.263.745.745 0 0 1-.807.161.743.743 0 0 1-.457-.684.742.742 0 0 1 .74-.74Zm0 10.055a.74.74 0 1 1 0 1.478.74.74 0 0 1 0-1.478Zm0 80.445a.738.738 0 0 1 .524 1.263.745.745 0 0 1-.807.161.743.743 0 0 1-.457-.684.742.742 0 0 1 .74-.74Zm0 10.055a.74.74 0 1 1 0 1.478.74.74 0 0 1 0-1.478Zm0-30.166a.738.738 0 0 1 .524 1.263.752.752 0 0 1-.379.203.747.747 0 0 1-.76-.315.742.742 0 0 1 .615-1.151Zm0 10.055a.738.738 0 0 1 .145 1.466.738.738 0 0 1-.885-.726.744.744 0 0 1 .74-.74Zm0-20.111a.738.738 0 0 1 .145 1.466.743.743 0 0 1-.885-.726.744.744 0 0 1 .74-.74Zm8.709-25.139a.744.744 0 0 1 .683.457.737.737 0 0 1-.16.807.737.737 0 0 1-1.139-.113.74.74 0 0 1 .616-1.151Zm8.708-15.083a.738.738 0 0 1 .144 1.466.743.743 0 0 1-.759-.315.736.736 0 0 1 .092-.934.735.735 0 0 1 .523-.217Zm0 60.333a.74.74 0 1 1 0 1.478.74.74 0 0 1 0-1.478Zm0 20.111a.74.74 0 1 1 0 1.478.74.74 0 0 1 0-1.478Zm-17.417-110.611a.738.738 0 0 1 .145 1.466.738.738 0 0 1-.885-.726.744.744 0 0 1 .74-.74Zm17.417 120.667a.738.738 0 0 1 .144 1.466.743.743 0 0 1-.759-.315.736.736 0 0 1 .092-.934.735.735 0 0 1 .523-.217Zm0-100.556a.74.74 0 1 1 0 1.478.74.74 0 0 1 0-1.478Zm0-10.055a.738.738 0 0 1 .144 1.466.743.743 0 0 1-.759-.315.736.736 0 0 1 .092-.934.735.735 0 0 1 .523-.217Zm0 60.333a.74.74 0 1 1 0 1.478.74.74 0 0 1 0-1.478Zm0-10.056a.74.74 0 1 1 0 1.478.74.74 0 0 1 0-1.478Zm0-20.11a.738.738 0 0 1 .144 1.465.735.735 0 0 1-.759-.314.737.737 0 0 1 .092-.935.732.732 0 0 1 .523-.216Zm0 10.055a.738.738 0 0 1 .144 1.466.743.743 0 0 1-.759-.315.736.736 0 0 1 .092-.934.735.735 0 0 1 .523-.217Zm-8.708 45.25a.736.736 0 0 1 .683.457.737.737 0 0 1-.16.806.745.745 0 0 1-.807.161.738.738 0 0 1-.4-.967.745.745 0 0 1 .684-.457Zm8.708-105.583a.738.738 0 1 1-.283 1.423.736.736 0 0 1-.457-.683.74.74 0 0 1 .74-.74Zm-8.708 135.75a.736.736 0 0 1 .683.457.735.735 0 0 1-.16.806.745.745 0 0 1-.379.203.746.746 0 0 1-.76-.315.744.744 0 0 1 .092-.935.749.749 0 0 1 .524-.216Zm8.708 5.028a.738.738 0 0 1 .144 1.465.735.735 0 0 1-.759-.315.731.731 0 0 1-.069-.694.75.75 0 0 1 .401-.4.744.744 0 0 1 .283-.056Zm-8.708 5.027a.744.744 0 0 1 .683.457.737.737 0 0 1-.16.807.737.737 0 0 1-1.139-.113.74.74 0 0 1 .616-1.151Zm0-30.167a.744.744 0 0 1 .683.457.738.738 0 0 1-.539 1.009.738.738 0 0 1-.828-1.009.742.742 0 0 1 .684-.457Zm0 10.056a.744.744 0 0 1 .683.457.737.737 0 0 1-.16.806.745.745 0 0 1-.807.161.738.738 0 0 1-.4-.967.745.745 0 0 1 .684-.457Zm8.708-145.806a.74.74 0 1 1 0 1.478.74.74 0 0 1 0-1.478Zm0 30.167a.74.74 0 1 1 0 1.478.74.74 0 0 1 0-1.478Zm0 80.445a.738.738 0 1 1-.283 1.423.736.736 0 0 1-.457-.683.74.74 0 0 1 .74-.74Zm0-100.556a.74.74 0 1 1 0 1.478.74.74 0 0 1 0-1.478Z"/><g fill="#DEDFE3" clip-path="url(#b)"><path d="M41.412 477h-1.475a43.438 43.438 0 0 0-74.151-30.715A43.438 43.438 0 0 0-46.937 477h-1.476a44.91 44.91 0 0 1 27.725-41.494 44.915 44.915 0 0 1 58.681 24.307A44.912 44.912 0 0 1 41.414 477Zm-10.058 0H29.88A33.376 33.376 0 0 0-3.5 443.621 33.378 33.378 0 0 0-36.878 477h-1.477a34.855 34.855 0 1 1 69.71 0Zm50.28 0H80.16a83.66 83.66 0 1 0-167.318 0h-1.476a85.138 85.138 0 0 1 52.548-78.681 85.14 85.14 0 0 1 92.796 18.463A85.13 85.13 0 0 1 81.634 477Zm-60.333 0h-1.475A23.328 23.328 0 0 0-3.5 453.674 23.328 23.328 0 0 0-26.826 477h-1.476a24.8 24.8 0 0 1 42.34-17.537A24.8 24.8 0 0 1 21.3 477Zm40.223 0h-1.476A63.546 63.546 0 0 0-3.5 413.427 63.55 63.55 0 0 0-67.047 477h-1.477A65.026 65.026 0 0 1-3.5 411.976 65.025 65.025 0 0 1 61.524 477Zm-160.207 0a95.181 95.181 0 1 1 190.365 0h-1.475a93.706 93.706 0 1 0-187.413 0h-1.477Zm150.149 0H49.99A53.493 53.493 0 0 0-3.5 423.487a53.482 53.482 0 0 0-37.83 15.675A53.489 53.489 0 0 0-56.99 477h-1.476a54.966 54.966 0 1 1 109.931 0Zm20.116 0h-1.476a73.606 73.606 0 0 0-147.212 0h-1.476a75.083 75.083 0 0 1 150.164 0Zm-41.7-180.85h1.476A69.726 69.726 0 0 0 101 365.65v1.477a71.204 71.204 0 0 1-71.117-70.977Zm20.112 0h1.475A49.592 49.592 0 0 0 101 345.54v1.475a51.068 51.068 0 0 1-51.006-50.865Zm-10.058 0h1.475A59.66 59.66 0 0 0 101 355.593v1.476a61.134 61.134 0 0 1-61.064-60.919Zm-20.111 0H21.3a79.793 79.793 0 0 0 79.7 79.554v1.476a81.272 81.272 0 0 1-81.175-81.03Zm60.337 0h1.475A19.389 19.389 0 0 0 101 315.371v1.476a20.864 20.864 0 0 1-20.838-20.697Zm10.058 0h1.475a9.32 9.32 0 0 0 9.305 9.167v1.477a10.802 10.802 0 0 1-10.78-10.644Zm-30.174 0h1.476A39.524 39.524 0 0 0 101 335.481v1.477a41.004 41.004 0 0 1-40.954-40.808Zm10.059 0h1.475A29.459 29.459 0 0 0 101 325.429v1.476a30.931 30.931 0 0 1-30.895-30.755Z"/></g><g clip-path="url(#c)"><path fill="#C2C5CB" d="M-60.63 296h1.477a159.09 159.09 0 0 1 46.908-113.246A159.11 159.11 0 0 1 101 135.847v-1.476a160.568 160.568 0 0 0-114.288 47.341A160.56 160.56 0 0 0-60.63 296Zm40.231-121.4A170.556 170.556 0 0 1 101 124.317v1.476a169.1 169.1 0 0 0-120.356 49.851A169.094 169.094 0 0 0-69.206 296h-1.475A170.564 170.564 0 0 1-20.4 174.6Zm28.44 28.44A130.616 130.616 0 0 1 101 164.54v1.475a129.139 129.139 0 0 0-91.911 38.067A129.142 129.142 0 0 0-28.984 296h-1.475a130.625 130.625 0 0 1 38.5-92.96Zm-14.217-14.218A150.562 150.562 0 0 1 101 144.429v1.476A149.111 149.111 0 0 0-5.134 189.866 149.117 149.117 0 0 0-49.094 296h-1.477A150.557 150.557 0 0 1-6.175 188.822Zm7.11 7.112A140.588 140.588 0 0 1 101 154.481v1.476a139.086 139.086 0 0 0-99.022 41.021A139.097 139.097 0 0 0-39.042 296h-1.476A140.587 140.587 0 0 1 .934 195.934Zm14.218 14.218A120.617 120.617 0 0 1 101 174.593v1.476a119.175 119.175 0 0 0-84.805 35.125A119.176 119.176 0 0 0-18.93 296h-1.476a120.612 120.612 0 0 1 35.558-85.848Zm85.848-25.5v1.474A110.003 110.003 0 0 0-8.873 296h-1.475A111.473 111.473 0 0 1 101 184.652Zm0 10.052v1.475A99.935 99.935 0 0 0 1.18 296H-.296A101.413 101.413 0 0 1 101 194.704Z"/></g><path fill="#C2C5CB" d="M41.412-16h-1.475A43.486 43.486 0 0 1-3.5 27.437 43.485 43.485 0 0 1-46.937-16h-1.476A44.964 44.964 0 0 0-3.5 28.913 44.964 44.964 0 0 0 41.412-16Zm-10.058 0H29.88A33.417 33.417 0 0 1-3.5 17.38 33.416 33.416 0 0 1-36.878-16h-1.477A34.895 34.895 0 0 0-3.5 18.856 34.895 34.895 0 0 0 31.354-16Zm50.28 0H80.16A83.753 83.753 0 0 1-3.5 67.658 83.753 83.753 0 0 1-87.158-16h-1.477A85.232 85.232 0 0 0-3.5 69.135 85.231 85.231 0 0 0 81.635-16Zm-60.332 0h-1.476A23.352 23.352 0 0 1-3.5 7.326 23.353 23.353 0 0 1-26.826-16h-1.476A24.83 24.83 0 0 0-3.5 8.802 24.83 24.83 0 0 0 21.302-16Zm40.222 0h-1.476A63.62 63.62 0 0 1-3.5 47.548 63.619 63.619 0 0 1-67.047-16h-1.477A65.098 65.098 0 0 0-3.5 49.025 65.098 65.098 0 0 0 61.524-16Zm-160.207 0A95.293 95.293 0 0 0-3.5 79.19 95.292 95.292 0 0 0 91.682-16h-1.475A93.815 93.815 0 0 1-3.5 77.712 93.815 93.815 0 0 1-97.206-16h-1.477Zm150.149 0H49.99A53.55 53.55 0 0 1-3.5 37.49 53.55 53.55 0 0 1-56.99-16h-1.476A55.03 55.03 0 0 0-3.5 38.966 55.028 55.028 0 0 0 51.465-16Zm20.116 0h-1.476A73.69 73.69 0 0 1-3.5 57.606 73.69 73.69 0 0 1-77.106-16h-1.476A75.168 75.168 0 0 0-3.5 59.082 75.167 75.167 0 0 0 71.582-16Z"/><g fill="#C2C5CB" clip-path="url(#d)"><path d="M101 216.291v-1.476A81.274 81.274 0 0 1 182.184 296h-1.475A79.8 79.8 0 0 0 101 216.291ZM170.65 296h1.476A71.205 71.205 0 0 0 101 224.874v1.475A69.727 69.727 0 0 1 170.65 296Zm-10.052 0h1.475a61.138 61.138 0 0 0-17.908-43.165A61.139 61.139 0 0 0 101 234.926v1.476A59.663 59.663 0 0 1 160.598 296Zm-40.223 0h1.476A20.874 20.874 0 0 0 101 275.148v1.476A19.395 19.395 0 0 1 120.375 296Zm30.164 0h1.476A51.073 51.073 0 0 0 101 244.984v1.476A49.595 49.595 0 0 1 150.539 296ZM101 286.683a9.324 9.324 0 0 1 9.318 9.317h1.476A10.808 10.808 0 0 0 101 285.207v1.476ZM140.487 296h1.475A41.008 41.008 0 0 0 101 255.038v1.475A39.533 39.533 0 0 1 140.487 296Zm-10.059 0h1.477A30.942 30.942 0 0 0 101 265.096v1.475A29.46 29.46 0 0 1 130.428 296Z"/><path d="M101 196.179v-1.475A101.408 101.408 0 0 1 202.296 296h-1.476A99.937 99.937 0 0 0 101 196.179Zm84.805 15.015A119.167 119.167 0 0 1 220.931 296h1.475a121.388 121.388 0 0 0-35.558-85.848A121.388 121.388 0 0 0 101 174.593v1.476a119.161 119.161 0 0 1 84.805 35.125Zm7.106-7.111A129.15 129.15 0 0 1 230.985 296h1.474a131.435 131.435 0 0 0-38.499-92.96 131.461 131.461 0 0 0-92.96-38.5v1.475a129.124 129.124 0 0 1 91.911 38.068ZM210.873 296h1.475a111.47 111.47 0 0 0-32.65-78.698A111.47 111.47 0 0 0 101 184.652v1.474A109.998 109.998 0 0 1 210.873 296Zm-10.85-99.022A139.093 139.093 0 0 1 241.042 296h1.476a141.533 141.533 0 0 0-41.452-100.066A141.534 141.534 0 0 0 101 154.481v1.477a139.102 139.102 0 0 1 99.023 41.02Zm7.111-7.112A149.113 149.113 0 0 1 251.095 296h1.475a151.556 151.556 0 0 0-44.393-107.177A151.551 151.551 0 0 0 101 144.429v1.476a149.105 149.105 0 0 1 106.134 43.961Zm7.11-7.112A159.095 159.095 0 0 1 261.153 296h1.476A161.634 161.634 0 0 0 101 134.371v1.476a159.086 159.086 0 0 1 113.244 46.907Zm7.112-7.11A169.078 169.078 0 0 1 271.206 296h1.475a171.683 171.683 0 0 0-50.282-121.4A171.68 171.68 0 0 0 101 124.317v1.476a169.107 169.107 0 0 1 120.356 49.851Z"/></g></g><defs><clipPath id="a"><path fill="#fff" d="M310-66h-418v543h418z"/></clipPath><clipPath id="b"><path fill="#fff" d="M101 296h-209v181h209z"/></clipPath><clipPath id="c"><path fill="#fff" d="M101 115h-209v181h209z"/></clipPath><clipPath id="d"><path fill="#fff" d="M310 115H101v181h209z"/></clipPath></defs></svg>