<svg xmlns="http://www.w3.org/2000/svg" width="310" height="444" fill="none"><g clip-path="url(#a)"><path fill="#DEDFE3" d="M69.667 400.843a.74.74 0 1 0 0 1.478.74.74 0 0 0 0-1.478Zm0 60.334a.738.738 0 0 0-.524 1.263.752.752 0 0 0 .379.203.747.747 0 0 0 .76-.315.742.742 0 0 0-.615-1.151Zm0-30.167a.731.731 0 0 0-.411.125.733.733 0 0 0-.315.759.735.735 0 0 0 .581.582.743.743 0 0 0 .885-.726.744.744 0 0 0-.74-.74Zm0 20.111a.738.738 0 0 0-.145 1.466.743.743 0 0 0 .885-.726.744.744 0 0 0-.74-.74Zm0-30.166a.738.738 0 0 0-.524 1.263.743.743 0 0 0 1.139-.112.745.745 0 0 0-.092-.935.743.743 0 0 0-.523-.216Zm0-10.056a.731.731 0 0 0-.411.125.733.733 0 0 0-.315.759.735.735 0 0 0 .581.582.743.743 0 0 0 .885-.726.744.744 0 0 0-.74-.74Zm0 30.166a.74.74 0 0 0-.726.885.743.743 0 0 0 .581.581.745.745 0 0 0 .885-.725.744.744 0 0 0-.74-.741Zm0-140.777a.738.738 0 0 0-.524 1.263.745.745 0 0 0 .807.161.743.743 0 0 0 .457-.684.742.742 0 0 0-.74-.74Zm8.708 165.917a.738.738 0 0 0-.144 1.465.735.735 0 0 0 .759-.315.731.731 0 0 0 .069-.694.75.75 0 0 0-.401-.4.744.744 0 0 0-.283-.056Zm-8.708-155.862a.74.74 0 1 0 0 1.478.74.74 0 0 0 0-1.478Zm8.708 135.75a.74.74 0 1 0 0 1.478.74.74 0 0 0 0-1.478Zm-8.708-125.694a.731.731 0 0 0-.411.125.733.733 0 0 0-.315.759.735.735 0 0 0 .581.582.743.743 0 0 0 .885-.726.744.744 0 0 0-.74-.74Zm8.708 135.75a.738.738 0 0 0-.144 1.466.743.743 0 0 0 .759-.315.736.736 0 0 0-.092-.934.735.735 0 0 0-.523-.217Zm-8.708-125.694a.738.738 0 0 0-.524 1.263.743.743 0 0 0 1.139-.112.745.745 0 0 0-.092-.935.743.743 0 0 0-.523-.216Zm0 40.222a.738.738 0 0 0-.524 1.263.752.752 0 0 0 .379.203.747.747 0 0 0 .76-.315.742.742 0 0 0-.615-1.151Zm0 20.111a.738.738 0 0 0-.524 1.263.745.745 0 0 0 .807.161.743.743 0 0 0 .457-.684.742.742 0 0 0-.74-.74Zm0-30.167a.738.738 0 0 0-.145 1.466.743.743 0 0 0 .885-.726.744.744 0 0 0-.74-.74Zm0 20.111a.738.738 0 0 0-.145 1.466.738.738 0 0 0 .885-.726.744.744 0 0 0-.74-.74Zm0-30.167a.74.74 0 0 0-.726.885.743.743 0 0 0 .581.581.745.745 0 0 0 .885-.725.744.744 0 0 0-.74-.741Zm0-10.055a.731.731 0 0 0-.411.125.733.733 0 0 0-.315.759.735.735 0 0 0 .581.582.743.743 0 0 0 .885-.726.744.744 0 0 0-.74-.74ZM52.25 310.343a.744.744 0 0 0-.684.457.743.743 0 0 0 .54 1.009.735.735 0 0 0 .759-.315.74.74 0 0 0-.615-1.151Zm8.708 155.862a.743.743 0 0 0-.411.124.745.745 0 0 0-.314.76.735.735 0 0 0 .581.581.737.737 0 0 0 .76-.315.74.74 0 0 0-.616-1.15Zm0-20.112a.744.744 0 0 0-.683.457.737.737 0 0 0 .16.807.743.743 0 0 0 1.139-.113.74.74 0 0 0-.616-1.151Zm0-30.166a.736.736 0 0 0-.683.457.735.735 0 0 0 .16.806.745.745 0 0 0 .379.203.746.746 0 0 0 .76-.315.744.744 0 0 0-.092-.935.749.749 0 0 0-.524-.216Zm0 10.055a.744.744 0 0 0-.683.457.737.737 0 0 0 .16.807.737.737 0 0 0 1.139-.113.74.74 0 0 0-.616-1.151Zm0 10.056a.736.736 0 0 0-.683.457.735.735 0 0 0 .16.806.738.738 0 0 0 1.139-.112.744.744 0 0 0-.092-.935.749.749 0 0 0-.524-.216Zm0 20.111a.736.736 0 0 0-.683.457.735.735 0 0 0 .16.806.745.745 0 0 0 .807.161.738.738 0 0 0 .4-.967.737.737 0 0 0-.684-.457ZM52.25 300.288a.743.743 0 0 0-.684.456.746.746 0 0 0 .161.807.737.737 0 0 0 1.138-.112.736.736 0 0 0-.092-.934.738.738 0 0 0-.523-.217Zm0 40.222a.736.736 0 0 0-.684.457.743.743 0 0 0 .54 1.009.743.743 0 0 0 .759-.315.736.736 0 0 0-.092-.934.738.738 0 0 0-.523-.217Zm0 10.055a.744.744 0 0 0-.684.457.746.746 0 0 0 .161.807.736.736 0 0 0 .806.16.742.742 0 0 0 .457-.683.74.74 0 0 0-.74-.741Zm0-30.166a.736.736 0 0 0-.684.457.743.743 0 0 0 .54 1.009.743.743 0 0 0 .759-.315.736.736 0 0 0-.092-.934.738.738 0 0 0-.523-.217Zm0 10.056a.743.743 0 0 0-.684.456.746.746 0 0 0 .161.807.735.735 0 0 0 .806.16.737.737 0 0 0 .457-.684.74.74 0 0 0-.74-.739Zm8.708 45.25a.743.743 0 0 0-.411.124.745.745 0 0 0-.314.76.735.735 0 0 0 .581.581.737.737 0 0 0 .76-.314.745.745 0 0 0-.092-.935.742.742 0 0 0-.524-.216Zm0-50.278a.736.736 0 0 0-.683.457.735.735 0 0 0 .16.806.745.745 0 0 0 .379.203.746.746 0 0 0 .76-.315.744.744 0 0 0-.092-.935.749.749 0 0 0-.524-.216Zm0 80.444a.744.744 0 0 0-.683.457.737.737 0 0 0 .16.806.745.745 0 0 0 .807.161.738.738 0 0 0 .4-.967.737.737 0 0 0-.684-.457Zm0-90.5a.744.744 0 0 0-.683.457.737.737 0 0 0 .16.806.745.745 0 0 0 .807.161.738.738 0 0 0 .4-.967.737.737 0 0 0-.684-.457Zm0 30.167a.736.736 0 0 0-.683.457.735.735 0 0 0 .16.806.745.745 0 0 0 .807.161.745.745 0 0 0 .457-.684.741.741 0 0 0-.741-.74Zm0-40.223a.744.744 0 0 0-.683.457.738.738 0 0 0 .539 1.009.738.738 0 0 0 .828-1.009.742.742 0 0 0-.684-.457Zm0 30.167a.744.744 0 0 0-.683.457.737.737 0 0 0 .16.807.737.737 0 0 0 1.139-.113.74.74 0 0 0-.616-1.151Zm0 50.278a.736.736 0 0 0-.683.457.737.737 0 0 0 .16.806.745.745 0 0 0 .807.161.738.738 0 0 0 .4-.967.745.745 0 0 0-.684-.457Zm0 10.055a.744.744 0 0 0-.683.457.738.738 0 0 0 .539 1.009.738.738 0 0 0 .828-1.009.742.742 0 0 0-.684-.457Zm0-40.222a.744.744 0 0 0-.683.457.737.737 0 0 0 .16.807.743.743 0 0 0 1.139-.113.74.74 0 0 0-.616-1.151Zm0 10.056a.736.736 0 0 0-.683.457.735.735 0 0 0 .16.806.745.745 0 0 0 .807.161.738.738 0 0 0 .4-.967.737.737 0 0 0-.684-.457Zm8.709 105.583a.738.738 0 0 0-.145 1.466.738.738 0 0 0 .885-.726.744.744 0 0 0-.74-.74Zm17.416-50.277a.743.743 0 0 0-.411.124.745.745 0 0 0-.314.76.735.735 0 0 0 .581.581.737.737 0 0 0 .76-.314.745.745 0 0 0-.092-.935.742.742 0 0 0-.524-.216Zm8.709 25.138a.74.74 0 1 0 0 1.478.74.74 0 0 0 0-1.478Zm0-40.222a.738.738 0 0 0-.145 1.466.743.743 0 0 0 .885-.726.744.744 0 0 0-.74-.74Zm0 30.167a.738.738 0 0 0-.524 1.263.74.74 0 1 0 .524-1.263Zm0-10.056a.738.738 0 0 0-.145 1.466.738.738 0 0 0 .885-.726.744.744 0 0 0-.74-.74Zm0 40.223a.738.738 0 0 0-.524 1.263.743.743 0 0 0 1.139-.112.745.745 0 0 0-.092-.935.743.743 0 0 0-.523-.216Zm0-50.278a.738.738 0 0 0-.524 1.263.748.748 0 0 0 .379.203.747.747 0 0 0 .76-.315.742.742 0 0 0-.615-1.151Zm0 40.222a.731.731 0 0 0-.411.125.733.733 0 0 0-.315.759.735.735 0 0 0 .581.582.743.743 0 0 0 .885-.726.744.744 0 0 0-.74-.74Zm-8.709-155.861a.736.736 0 0 0-.683.457.735.735 0 0 0 .16.806.738.738 0 0 0 1.139-.112.744.744 0 0 0-.092-.935.749.749 0 0 0-.524-.216Zm0 40.222a.744.744 0 0 0-.683.457.737.737 0 0 0 .16.806.745.745 0 0 0 .807.161.738.738 0 0 0 .4-.967.737.737 0 0 0-.684-.457Zm0 10.055a.744.744 0 0 0-.683.457.738.738 0 0 0 .539 1.009.738.738 0 0 0 .828-1.009.742.742 0 0 0-.684-.457Zm0-40.222a.744.744 0 0 0-.683.457.737.737 0 0 0 .16.807.743.743 0 0 0 1.139-.113.74.74 0 0 0-.616-1.151Zm0 20.112a.743.743 0 0 0-.411.124.745.745 0 0 0-.314.76.735.735 0 0 0 .581.581.737.737 0 0 0 .76-.314.745.745 0 0 0-.092-.935.742.742 0 0 0-.524-.216Zm8.709-5.028a.738.738 0 0 0-.524 1.263.748.748 0 0 0 .379.203.747.747 0 0 0 .76-.315.742.742 0 0 0-.615-1.151Zm0 70.388a.74.74 0 0 0-.726.885.743.743 0 0 0 .581.581.745.745 0 0 0 .885-.725.744.744 0 0 0-.74-.741Zm0-80.444a.738.738 0 0 0-.145 1.466.743.743 0 0 0 .885-.726.744.744 0 0 0-.74-.74Zm-8.709 45.25a.744.744 0 0 0-.683.457.737.737 0 0 0 .16.806.745.745 0 0 0 .807.161.738.738 0 0 0 .4-.967.737.737 0 0 0-.684-.457Zm-8.708 75.417a.738.738 0 0 0-.144 1.466.743.743 0 0 0 .759-.315.736.736 0 0 0-.092-.934.735.735 0 0 0-.523-.217ZM52.25 360.621a.736.736 0 0 0-.684.457.743.743 0 0 0 .54 1.009.743.743 0 0 0 .759-.315.734.734 0 0 0-.092-.934.738.738 0 0 0-.523-.217Zm43.542-25.139a.738.738 0 0 0-.145 1.466.738.738 0 0 0 .885-.726.744.744 0 0 0-.74-.74Zm0 50.278a.731.731 0 0 0-.411.125.733.733 0 0 0-.315.759.735.735 0 0 0 .581.582.743.743 0 0 0 .885-.726.744.744 0 0 0-.74-.74Zm0-10.055a.738.738 0 0 0-.524 1.263.743.743 0 0 0 1.139-.112.745.745 0 0 0-.092-.935.743.743 0 0 0-.523-.216Zm0-20.112a.74.74 0 1 0 0 1.478.74.74 0 0 0 0-1.478Zm0 10.056a.731.731 0 0 0-.411.125.733.733 0 0 0-.315.759.735.735 0 0 0 .581.582.743.743 0 0 0 .885-.726.744.744 0 0 0-.74-.74Zm0-20.111a.738.738 0 0 0-.524 1.263.74.74 0 1 0 .524-1.263Zm0-40.223a.74.74 0 0 0-.726.885.743.743 0 0 0 .581.581.745.745 0 0 0 .885-.725.744.744 0 0 0-.74-.741Zm-17.417 50.278a.74.74 0 1 0 0 1.478.74.74 0 0 0 0-1.478Zm0 10.056a.738.738 0 0 0-.144 1.466.743.743 0 0 0 .759-.315.736.736 0 0 0-.092-.934.735.735 0 0 0-.523-.217Zm0-20.111a.738.738 0 0 0-.144 1.466.743.743 0 0 0 .759-.315.736.736 0 0 0-.092-.934.735.735 0 0 0-.523-.217Zm0-10.056a.74.74 0 1 0 0 1.478.74.74 0 0 0 0-1.478Zm0-10.055a.738.738 0 1 0 .283 1.423.736.736 0 0 0 .457-.683.74.74 0 0 0-.74-.74Zm0 50.278a.738.738 0 0 0-.144 1.465.735.735 0 0 0 .759-.314.737.737 0 0 0-.092-.935.732.732 0 0 0-.523-.216Zm0 50.277a.74.74 0 1 0 0 1.478.74.74 0 0 0 0-1.478Zm0-10.055a.738.738 0 1 0 .283 1.423.736.736 0 0 0 .457-.683.74.74 0 0 0-.74-.74Zm0-20.112a.74.74 0 1 0 0 1.478.74.74 0 0 0 0-1.478Zm0-10.055a.738.738 0 0 0-.144 1.466.743.743 0 0 0 .759-.315.736.736 0 0 0-.092-.934.735.735 0 0 0-.523-.217Zm0 20.111a.74.74 0 1 0 0 1.478.74.74 0 0 0 0-1.478Zm8.708-25.139a.744.744 0 0 0-.683.457.737.737 0 0 0 .16.807.737.737 0 0 0 1.263-.524.725.725 0 0 0-.216-.523.749.749 0 0 0-.524-.217Zm0 50.278a.736.736 0 0 0-.683.457.737.737 0 0 0 .16.806.745.745 0 0 0 .807.161.738.738 0 0 0 .4-.967.737.737 0 0 0-.684-.457Zm0-30.167a.744.744 0 0 0-.683.457.737.737 0 0 0 .16.807.743.743 0 0 0 1.139-.113.738.738 0 0 0-.092-.934.749.749 0 0 0-.524-.217Zm0 10.056a.736.736 0 0 0-.683.457.735.735 0 0 0 .16.806.745.745 0 0 0 .807.161.738.738 0 0 0 .4-.967.737.737 0 0 0-.684-.457Zm-8.708-95.528a.74.74 0 1 0 0 1.478.74.74 0 0 0 0-1.478Zm8.708 75.417a.736.736 0 0 0-.683.457.735.735 0 0 0 .16.806.745.745 0 0 0 .807.161.745.745 0 0 0 .457-.684.741.741 0 0 0-.741-.74Zm0-20.111a.736.736 0 0 0-.683.457.735.735 0 0 0 .16.806.745.745 0 0 0 .379.203.746.746 0 0 0 .76-.315.744.744 0 0 0-.092-.935.749.749 0 0 0-.524-.216Zm0 70.388a.744.744 0 0 0-.683.457.738.738 0 0 0 .539 1.009.738.738 0 0 0 .828-1.009.742.742 0 0 0-.684-.457Zm-8.708-135.75a.74.74 0 1 0 0 1.478.74.74 0 0 0 0-1.478Zm8.708 165.917a.744.744 0 0 0-.683.457.737.737 0 0 0 .16.807.737.737 0 0 0 1.139-.113.74.74 0 0 0-.616-1.151Zm0-10.055a.736.736 0 0 0-.683.457.735.735 0 0 0 .16.806.745.745 0 0 0 .379.203.746.746 0 0 0 .76-.315.744.744 0 0 0-.092-.935.749.749 0 0 0-.524-.216Zm0-10.056a.744.744 0 0 0-.683.457.737.737 0 0 0 .16.806.745.745 0 0 0 .807.161.738.738 0 0 0 .4-.967.737.737 0 0 0-.684-.457Zm0-130.722a.736.736 0 0 0-.683.457.735.735 0 0 0 .16.806.745.745 0 0 0 .807.161.738.738 0 0 0 .4-.967.737.737 0 0 0-.684-.457Zm-60.958 15.083a.736.736 0 0 0-.684.457.743.743 0 0 0 .54 1.009.735.735 0 0 0 .759-.315.74.74 0 0 0-.615-1.151Zm-8.708 65.361a.74.74 0 1 0 0 1.478.74.74 0 0 0 0-1.478Zm0-70.388a.738.738 0 0 0-.144 1.465.735.735 0 0 0 .759-.314.737.737 0 0 0-.092-.935.739.739 0 0 0-.523-.216Zm0-30.167a.738.738 0 0 0-.144 1.466.736.736 0 0 0 .884-.726.738.738 0 0 0-.74-.74Zm0 40.222a.738.738 0 0 0-.144 1.466.743.743 0 0 0 .759-.315.736.736 0 0 0-.092-.934.74.74 0 0 0-.523-.217Zm8.708 125.695a.743.743 0 0 0-.684.456.746.746 0 0 0 .161.807.735.735 0 0 0 .806.16.737.737 0 0 0 .457-.684.74.74 0 0 0-.74-.739Zm-8.708-115.64a.74.74 0 1 0 0 1.478.74.74 0 0 0 0-1.478Zm0 30.167a.74.74 0 1 0 0 1.478.74.74 0 0 0 0-1.478Zm8.708 75.417a.736.736 0 0 0-.684.457.743.743 0 0 0 .54 1.009.743.743 0 0 0 .759-.315.736.736 0 0 0-.092-.934.738.738 0 0 0-.523-.217Zm26.125-85.472a.743.743 0 0 0-.684.456.746.746 0 0 0 .161.807.743.743 0 0 0 1.263-.523.738.738 0 0 0-.74-.74Zm-34.833-10.056a.74.74 0 1 0 0 1.478.74.74 0 0 0 0-1.478Zm0 10.056a.738.738 0 1 0 .283 1.423.736.736 0 0 0 .457-.683.74.74 0 0 0-.74-.74Zm0-50.278a.738.738 0 0 0-.144 1.466.743.743 0 0 0 .759-.315.736.736 0 0 0-.092-.934.74.74 0 0 0-.523-.217Zm8.708 65.361a.736.736 0 0 0-.684.457.743.743 0 0 0 .54 1.009.743.743 0 0 0 .759-.315.736.736 0 0 0-.092-.934.738.738 0 0 0-.523-.217Zm0-10.055a.743.743 0 0 0-.684.456.746.746 0 0 0 .161.807.735.735 0 0 0 .806.16.737.737 0 0 0 .457-.684.74.74 0 0 0-.74-.739Zm0-10.056a.736.736 0 0 0-.684.457.743.743 0 0 0 .54 1.009.743.743 0 0 0 .759-.315.736.736 0 0 0-.092-.934.738.738 0 0 0-.523-.217Zm0-10.056a.744.744 0 0 0-.684.457.743.743 0 0 0 .54 1.009.735.735 0 0 0 .759-.315.74.74 0 0 0-.615-1.151Zm0-10.055a.743.743 0 0 0-.684.456.746.746 0 0 0 .161.807.737.737 0 0 0 1.138-.112.736.736 0 0 0-.092-.934.738.738 0 0 0-.523-.217Zm0 100.555a.744.744 0 0 0-.684.457.743.743 0 0 0 .54 1.009.735.735 0 0 0 .759-.315.74.74 0 0 0-.615-1.151Zm0-20.111a.736.736 0 0 0-.684.457.743.743 0 0 0 .54 1.009.735.735 0 0 0 .759-.315.74.74 0 0 0-.615-1.151Zm0 10.056a.743.743 0 0 0-.684.456.746.746 0 0 0 .161.807.737.737 0 0 0 1.138-.112.736.736 0 0 0-.092-.934.738.738 0 0 0-.523-.217Zm0-20.111a.743.743 0 0 0-.684.456.746.746 0 0 0 .161.807.743.743 0 0 0 1.263-.523.738.738 0 0 0-.74-.74Zm0-10.056a.736.736 0 0 0-.684.457.743.743 0 0 0 .54 1.009.743.743 0 0 0 .759-.315.734.734 0 0 0-.092-.934.738.738 0 0 0-.523-.217Zm0-10.056a.744.744 0 0 0-.684.457.746.746 0 0 0 .161.807.736.736 0 0 0 .806.16.742.742 0 0 0 .457-.683.74.74 0 0 0-.74-.741Zm-8.708-85.472a.74.74 0 1 0 0 1.478.74.74 0 0 0 0-1.478Zm-8.709 85.472a.744.744 0 0 0-.683.457.738.738 0 0 0 .539 1.009.738.738 0 0 0 .828-1.009.742.742 0 0 0-.684-.457Zm0 10.056a.744.744 0 0 0-.683.457.737.737 0 0 0 .16.806.745.745 0 0 0 .807.161.738.738 0 0 0 .4-.967.737.737 0 0 0-.684-.457Zm0-30.166a.743.743 0 0 0-.411.124.745.745 0 0 0-.314.76.735.735 0 0 0 .581.581.737.737 0 0 0 .76-.314.745.745 0 0 0 .068-.695.748.748 0 0 0-.4-.4.749.749 0 0 0-.284-.056Zm0 40.222a.736.736 0 0 0-.683.457.735.735 0 0 0 .16.806.745.745 0 0 0 .379.203.746.746 0 0 0 .76-.315.744.744 0 0 0-.092-.935.749.749 0 0 0-.524-.216Zm0-30.167a.736.736 0 0 0-.683.457.737.737 0 0 0 .16.806.745.745 0 0 0 .807.161.738.738 0 0 0 .4-.967.737.737 0 0 0-.684-.457Zm0 70.389a.736.736 0 0 0-.683.457.735.735 0 0 0 .16.806.745.745 0 0 0 .807.161.738.738 0 0 0 .4-.967.737.737 0 0 0-.684-.457Zm0-100.556a.744.744 0 0 0-.683.457.737.737 0 0 0 .16.807.743.743 0 0 0 1.139-.113.74.74 0 0 0-.616-1.151Zm0 110.612a.743.743 0 0 0-.411.124.745.745 0 0 0-.314.76.735.735 0 0 0 .581.581.737.737 0 0 0 .76-.315.74.74 0 0 0-.616-1.15Zm0-30.167a.736.736 0 0 0-.683.457.735.735 0 0 0 .16.806.738.738 0 0 0 1.139-.112.744.744 0 0 0-.092-.935.749.749 0 0 0-.524-.216Zm0-10.056a.744.744 0 0 0-.683.457.737.737 0 0 0 .16.807.737.737 0 0 0 1.139-.113.74.74 0 0 0-.616-1.151Zm0 20.111a.744.744 0 0 0-.683.457.737.737 0 0 0 .16.807.743.743 0 0 0 1.139-.113.74.74 0 0 0-.616-1.151Zm8.709-15.083a.738.738 0 0 0-.144 1.466.743.743 0 0 0 .759-.315.736.736 0 0 0-.092-.934.74.74 0 0 0-.523-.217Zm0 30.167a.738.738 0 1 0 .283 1.423.736.736 0 0 0 .457-.683.74.74 0 0 0-.74-.74Zm0-10.056a.74.74 0 1 0 0 1.478.74.74 0 0 0 0-1.478Zm0-10.056a.74.74 0 1 0 0 1.478.74.74 0 0 0 0-1.478Zm0-20.11a.738.738 0 0 0-.144 1.465.735.735 0 0 0 .759-.314.737.737 0 0 0-.092-.935.739.739 0 0 0-.523-.216Zm-8.709-75.417a.736.736 0 0 0-.683.457.735.735 0 0 0 .16.806.745.745 0 0 0 .807.161.745.745 0 0 0 .457-.684.74.74 0 0 0-.741-.74Zm8.709 65.361a.738.738 0 0 0-.144 1.466.743.743 0 0 0 .759-.315.736.736 0 0 0-.092-.934.74.74 0 0 0-.523-.217Zm-8.709-85.472a.736.736 0 0 0-.683.457.735.735 0 0 0 .16.806.745.745 0 0 0 .379.203.746.746 0 0 0 .76-.315.744.744 0 0 0-.092-.935.749.749 0 0 0-.524-.216Zm0 10.055a.744.744 0 0 0-.683.457.737.737 0 0 0 .16.807.737.737 0 0 0 1.139-.113.74.74 0 0 0-.616-1.151Zm8.709 135.75a.74.74 0 1 0 0 1.478.74.74 0 0 0 0-1.478ZM8.708 305.315a.744.744 0 0 0-.683.457.738.738 0 0 0 .539 1.009.738.738 0 0 0 .828-1.009.742.742 0 0 0-.684-.457Zm0 10.056a.744.744 0 0 0-.683.457.737.737 0 0 0 .16.806.745.745 0 0 0 .807.161.738.738 0 0 0 .4-.967.737.737 0 0 0-.684-.457Zm8.709 75.417a.738.738 0 0 0-.144 1.466.743.743 0 0 0 .759-.315.736.736 0 0 0-.092-.934.74.74 0 0 0-.523-.217Zm26.125-45.25a.738.738 0 0 0-.524 1.263.745.745 0 0 0 .807.161.743.743 0 0 0 .457-.684.742.742 0 0 0-.74-.74Zm0 90.5a.738.738 0 0 0-.524 1.263.745.745 0 0 0 .807.161.743.743 0 0 0 .457-.684.742.742 0 0 0-.74-.74Zm0-70.389a.731.731 0 0 0-.411.125.733.733 0 0 0-.315.759.735.735 0 0 0 .581.582.743.743 0 0 0 .885-.726.744.744 0 0 0-.74-.74Zm0-30.167a.738.738 0 0 0-.145 1.466.738.738 0 0 0 .885-.726.744.744 0 0 0-.74-.74Zm0-10.055a.738.738 0 0 0-.524 1.263.752.752 0 0 0 .379.203.747.747 0 0 0 .76-.315.742.742 0 0 0-.615-1.151Zm0 50.278a.738.738 0 0 0-.524 1.263.743.743 0 0 0 1.139-.112.745.745 0 0 0-.092-.935.743.743 0 0 0-.523-.216Zm0 10.055a.731.731 0 0 0-.411.125.733.733 0 0 0-.315.759.735.735 0 0 0 .581.582.743.743 0 0 0 .885-.726.744.744 0 0 0-.74-.74Zm0 30.167a.738.738 0 0 0-.524 1.263.752.752 0 0 0 .379.203.747.747 0 0 0 .76-.315.742.742 0 0 0-.615-1.151Zm0 10.055a.738.738 0 0 0-.145 1.466.738.738 0 0 0 .885-.726.744.744 0 0 0-.74-.74Zm0-30.167a.74.74 0 0 0-.726.885.743.743 0 0 0 .581.581.745.745 0 0 0 .885-.725.744.744 0 0 0-.74-.741Zm0-80.444a.738.738 0 0 0-.145 1.466.743.743 0 0 0 .885-.726.744.744 0 0 0-.74-.74Zm0 90.5a.738.738 0 0 0-.145 1.466.743.743 0 0 0 .885-.726.744.744 0 0 0-.74-.74Zm0-50.278a.74.74 0 1 0 0 1.478.74.74 0 0 0 0-1.478Zm0-50.278a.74.74 0 0 0-.726.885.743.743 0 0 0 .581.581.745.745 0 0 0 .885-.725.744.744 0 0 0-.74-.741Zm8.708 105.584a.736.736 0 0 0-.684.457.743.743 0 0 0 .54 1.009.743.743 0 0 0 .759-.315.736.736 0 0 0-.092-.934.738.738 0 0 0-.523-.217Zm0 10.056a.743.743 0 0 0-.684.456.746.746 0 0 0 .161.807.735.735 0 0 0 .806.16.737.737 0 0 0 .457-.684.74.74 0 0 0-.74-.739Zm0-40.223a.736.736 0 0 0-.684.457.743.743 0 0 0 .54 1.009.735.735 0 0 0 .759-.315.74.74 0 0 0-.615-1.151Zm0 10.056a.743.743 0 0 0-.684.456.746.746 0 0 0 .161.807.737.737 0 0 0 1.138-.112.736.736 0 0 0-.092-.934.738.738 0 0 0-.523-.217Zm0 10.055a.744.744 0 0 0-.684.457.743.743 0 0 0 .54 1.009.735.735 0 0 0 .759-.315.74.74 0 0 0-.615-1.151Zm0 30.167a.736.736 0 0 0-.684.457.743.743 0 0 0 .54 1.009.743.743 0 0 0 .759-.315.736.736 0 0 0-.092-.934.738.738 0 0 0-.523-.217Zm0 30.167a.743.743 0 0 0-.684.456.746.746 0 0 0 .161.807.743.743 0 0 0 1.263-.523.738.738 0 0 0-.74-.74Zm0 10.055a.736.736 0 0 0-.684.457.743.743 0 0 0 .54 1.009.735.735 0 0 0 .759-.315.74.74 0 0 0-.615-1.151Zm0-30.167a.744.744 0 0 0-.684.457.746.746 0 0 0 .161.807.736.736 0 0 0 .806.16.742.742 0 0 0 .457-.683.74.74 0 0 0-.74-.741Zm0 10.056a.736.736 0 0 0-.684.457.743.743 0 0 0 .54 1.009.743.743 0 0 0 .759-.315.734.734 0 0 0-.092-.934.738.738 0 0 0-.523-.217Zm-17.417-10.056a.744.744 0 0 0-.683.457.738.738 0 0 0 .539 1.009.738.738 0 0 0 .828-1.009.742.742 0 0 0-.684-.457Zm0-20.11a.743.743 0 0 0-.411.124.745.745 0 0 0-.314.76.735.735 0 0 0 .581.581.737.737 0 0 0 .76-.314.745.745 0 0 0-.092-.935.742.742 0 0 0-.524-.216Zm0 10.055a.736.736 0 0 0-.683.457.737.737 0 0 0 .16.806.745.745 0 0 0 .807.161.738.738 0 0 0 .4-.967.745.745 0 0 0-.684-.457Zm0-40.222a.736.736 0 0 0-.683.457.735.735 0 0 0 .16.806.745.745 0 0 0 .807.161.745.745 0 0 0 .457-.684.741.741 0 0 0-.741-.74Zm0 10.055a.744.744 0 0 0-.683.457.737.737 0 0 0 .16.807.743.743 0 0 0 1.139-.113.74.74 0 0 0-.616-1.151Zm-8.708-75.416a.743.743 0 0 0-.684.456.746.746 0 0 0 .161.807.743.743 0 0 0 1.263-.523.738.738 0 0 0-.74-.74Zm8.708 85.472a.736.736 0 0 0-.683.457.735.735 0 0 0 .16.806.745.745 0 0 0 .807.161.738.738 0 0 0 .4-.967.737.737 0 0 0-.684-.457Zm-8.708-95.528a.736.736 0 0 0-.684.457.743.743 0 0 0 .54 1.009.743.743 0 0 0 .759-.315.734.734 0 0 0-.092-.934.738.738 0 0 0-.523-.217Zm0-10.056a.744.744 0 0 0-.684.457.746.746 0 0 0 .161.807.736.736 0 0 0 .806.16.742.742 0 0 0 .457-.683.74.74 0 0 0-.74-.741Zm8.708 145.806a.744.744 0 0 0-.683.457.737.737 0 0 0 .16.806.745.745 0 0 0 .807.161.738.738 0 0 0 .4-.967.737.737 0 0 0-.684-.457Zm0 10.056a.736.736 0 0 0-.683.457.735.735 0 0 0 .16.806.745.745 0 0 0 .379.203.746.746 0 0 0 .76-.315.744.744 0 0 0-.092-.935.749.749 0 0 0-.524-.216Zm0 10.055a.744.744 0 0 0-.683.457.737.737 0 0 0 .16.807.737.737 0 0 0 1.139-.113.74.74 0 0 0-.616-1.151Zm0-150.833a.736.736 0 0 0-.683.457.735.735 0 0 0 .16.806.745.745 0 0 0 .807.161.738.738 0 0 0 .4-.967.737.737 0 0 0-.684-.457Zm8.709 125.694a.74.74 0 1 0 0 1.478.74.74 0 0 0 0-1.478Zm-8.709-145.805a.736.736 0 0 0-.683.457.735.735 0 0 0 .16.806.738.738 0 0 0 1.139-.112.744.744 0 0 0-.092-.935.749.749 0 0 0-.524-.216Zm0 10.055a.744.744 0 0 0-.683.457.737.737 0 0 0 .16.807.743.743 0 0 0 1.139-.113.74.74 0 0 0-.616-1.151Zm8.709 145.806a.731.731 0 0 0-.411.125.733.733 0 0 0-.315.759.735.735 0 0 0 .581.582.743.743 0 0 0 .885-.726.744.744 0 0 0-.74-.74Zm0 10.056a.738.738 0 0 0-.524 1.263.743.743 0 0 0 1.139-.112.745.745 0 0 0-.092-.935.743.743 0 0 0-.523-.216Zm-8.709-115.64a.744.744 0 0 0-.683.457.738.738 0 0 0 .539 1.009.738.738 0 0 0 .828-1.009.742.742 0 0 0-.684-.457Zm0 10.056a.744.744 0 0 0-.683.457.737.737 0 0 0 .16.806.745.745 0 0 0 .807.161.738.738 0 0 0 .4-.967.737.737 0 0 0-.684-.457Zm0 10.056a.736.736 0 0 0-.683.457.735.735 0 0 0 .16.806.745.745 0 0 0 .379.203.746.746 0 0 0 .76-.315.744.744 0 0 0-.092-.935.749.749 0 0 0-.524-.216Zm0 10.055a.744.744 0 0 0-.683.457.737.737 0 0 0 .16.807.737.737 0 0 0 1.139-.113.74.74 0 0 0-.616-1.151Zm0-40.222a.744.744 0 0 0-.683.457.737.737 0 0 0 .16.806.745.745 0 0 0 .807.161.738.738 0 0 0 .4-.967.745.745 0 0 0-.684-.457Zm0-10.055a.743.743 0 0 0-.411.124.745.745 0 0 0-.314.76.735.735 0 0 0 .581.581.737.737 0 0 0 .76-.314.745.745 0 0 0-.092-.935.742.742 0 0 0-.524-.216ZM8.708 365.649a.736.736 0 0 0-.683.457.735.735 0 0 0 .16.806.745.745 0 0 0 .807.161.738.738 0 0 0 .4-.967.737.737 0 0 0-.684-.457Zm156.75-30.167a.744.744 0 0 0-.683.457.737.737 0 0 0 .16.807.737.737 0 0 0 1.139-.113.74.74 0 0 0-.616-1.151Zm0-20.111a.744.744 0 0 0-.683.457.737.737 0 0 0 .16.806.745.745 0 0 0 .807.161.738.738 0 0 0 .4-.967.745.745 0 0 0-.684-.457Zm0 10.056a.736.736 0 0 0-.683.457.735.735 0 0 0 .16.806.745.745 0 0 0 .379.203.746.746 0 0 0 .76-.315.744.744 0 0 0-.092-.935.749.749 0 0 0-.524-.216Zm0-20.112a.744.744 0 0 0-.683.457.738.738 0 0 0 .539 1.009.738.738 0 0 0 .828-1.009.742.742 0 0 0-.684-.457Zm8.709 165.917a.738.738 0 0 0-.145 1.466.738.738 0 0 0 .885-.726.744.744 0 0 0-.74-.74Zm0-10.055a.738.738 0 0 0-.524 1.263.752.752 0 0 0 .379.203.747.747 0 0 0 .76-.315.742.742 0 0 0-.615-1.151Zm-8.709-115.639a.736.736 0 0 0-.683.457.735.735 0 0 0 .16.806.745.745 0 0 0 .807.161.745.745 0 0 0 .457-.684.741.741 0 0 0-.741-.74Zm0 40.222a.736.736 0 0 0-.683.457.737.737 0 0 0 .16.806.745.745 0 0 0 .807.161.738.738 0 0 0 .4-.967.745.745 0 0 0-.684-.457Zm0 10.055a.744.744 0 0 0-.683.457.738.738 0 0 0 .539 1.009.738.738 0 0 0 .828-1.009.742.742 0 0 0-.684-.457Zm8.709 55.306a.738.738 0 0 0-.145 1.466.743.743 0 0 0 .885-.726.744.744 0 0 0-.74-.74Zm0-140.778a.74.74 0 1 0 0 1.478.74.74 0 0 0 0-1.478Zm-8.709 45.25a.744.744 0 0 0-.683.457.737.737 0 0 0 .16.807.743.743 0 0 0 1.139-.113.74.74 0 0 0-.616-1.151Zm0 10.056a.736.736 0 0 0-.683.457.735.735 0 0 0 .16.806.745.745 0 0 0 .807.161.738.738 0 0 0 .4-.967.745.745 0 0 0-.684-.457Zm8.709 45.25a.731.731 0 0 0-.411.125.733.733 0 0 0-.315.759.735.735 0 0 0 .581.582.743.743 0 0 0 .885-.726.744.744 0 0 0-.74-.74Zm0-70.389a.731.731 0 0 0-.411.125.733.733 0 0 0-.315.759.735.735 0 0 0 .581.582.743.743 0 0 0 .885-.726.744.744 0 0 0-.74-.74Zm0 10.055a.74.74 0 0 0-.726.885.743.743 0 0 0 .581.581.745.745 0 0 0 .885-.725.744.744 0 0 0-.74-.741Zm0 10.056a.738.738 0 0 0-.145 1.466.743.743 0 0 0 .885-.726.744.744 0 0 0-.74-.74Zm0-30.166a.738.738 0 0 0-.524 1.263.743.743 0 0 0 1.139-.112.745.745 0 0 0-.092-.935.743.743 0 0 0-.523-.216Zm0-10.056a.731.731 0 0 0-.411.125.733.733 0 0 0-.315.759.735.735 0 0 0 .581.582.743.743 0 0 0 .885-.726.744.744 0 0 0-.74-.74Zm0 50.278a.738.738 0 0 0-.524 1.263.752.752 0 0 0 .379.203.747.747 0 0 0 .76-.315.742.742 0 0 0-.615-1.151Zm0 60.333a.731.731 0 0 0-.411.125.733.733 0 0 0-.315.759.735.735 0 0 0 .581.582.743.743 0 0 0 .885-.726.744.744 0 0 0-.74-.74Zm-8.709-25.139a.744.744 0 0 0-.683.457.737.737 0 0 0 .16.806.745.745 0 0 0 .807.161.738.738 0 0 0 .4-.967.745.745 0 0 0-.684-.457Zm8.709-25.139a.738.738 0 0 0-.145 1.466.738.738 0 0 0 .885-.726.744.744 0 0 0-.74-.74Zm0 60.333a.74.74 0 0 0-.726.885.743.743 0 0 0 .581.581.745.745 0 0 0 .885-.725.744.744 0 0 0-.74-.741Zm0-20.11a.738.738 0 0 0-.524 1.263.743.743 0 0 0 1.139-.112.745.745 0 0 0-.092-.935.743.743 0 0 0-.523-.216Zm0-30.167a.738.738 0 0 0-.524 1.263.745.745 0 0 0 .807.161.743.743 0 0 0 .457-.684.742.742 0 0 0-.74-.74Zm0 10.055a.74.74 0 1 0 0 1.478.74.74 0 0 0 0-1.478Zm-8.709-25.138a.743.743 0 0 0-.411.124.745.745 0 0 0-.314.76.735.735 0 0 0 .581.581.737.737 0 0 0 .76-.314.745.745 0 0 0-.092-.935.742.742 0 0 0-.524-.216Zm-8.708 35.194a.738.738 0 0 0-.144 1.466.743.743 0 0 0 .759-.315.736.736 0 0 0-.092-.934.735.735 0 0 0-.523-.217Zm0 20.111a.738.738 0 0 0-.144 1.466.743.743 0 0 0 .759-.315.736.736 0 0 0-.092-.934.735.735 0 0 0-.523-.217Zm0-30.167a.74.74 0 1 0 0 1.478.74.74 0 0 0 0-1.478Zm0 20.112a.738.738 0 0 0-.144 1.465.735.735 0 0 0 .759-.314.737.737 0 0 0-.092-.935.732.732 0 0 0-.523-.216Zm0-40.223a.74.74 0 1 0 0 1.478.74.74 0 0 0 0-1.478Zm0-10.055a.738.738 0 1 0 .283 1.423.736.736 0 0 0 .457-.683.74.74 0 0 0-.74-.74Zm0 20.111a.738.738 0 0 0-.144 1.466.743.743 0 0 0 .759-.315.736.736 0 0 0-.092-.934.735.735 0 0 0-.523-.217Zm-8.708-85.473a.74.74 0 0 0-.726.885.743.743 0 0 0 .581.581.745.745 0 0 0 .885-.725.744.744 0 0 0-.74-.741Zm0 10.056a.738.738 0 0 0-.145 1.466.743.743 0 0 0 .885-.726.744.744 0 0 0-.74-.74Zm8.708 155.861a.74.74 0 1 0 0 1.478.74.74 0 0 0 0-1.478Zm0-20.111a.74.74 0 1 0 0 1.478.74.74 0 0 0 0-1.478Zm0-10.056a.74.74 0 1 0 0 1.478.74.74 0 0 0 0-1.478Zm8.708-25.138a.736.736 0 0 0-.683.457.735.735 0 0 0 .16.806.745.745 0 0 0 .379.203.746.746 0 0 0 .76-.315.744.744 0 0 0-.092-.935.749.749 0 0 0-.524-.216Zm-8.708 45.25a.738.738 0 1 0 .283 1.423.736.736 0 0 0 .457-.683.74.74 0 0 0-.74-.74Zm8.708-5.028a.736.736 0 0 0-.683.457.735.735 0 0 0 .16.806.745.745 0 0 0 .807.161.738.738 0 0 0 .4-.967.745.745 0 0 0-.684-.457Zm-8.708-95.528a.74.74 0 1 0 0 1.478.74.74 0 0 0 0-1.478Zm8.708 105.584a.743.743 0 0 0-.411.124.745.745 0 0 0-.314.76.735.735 0 0 0 .581.581.737.737 0 0 0 .76-.315.74.74 0 0 0-.616-1.15Zm0-40.223a.744.744 0 0 0-.683.457.737.737 0 0 0 .16.807.737.737 0 0 0 1.139-.113.74.74 0 0 0-.616-1.151Zm-8.708-125.694a.738.738 0 0 0-.144 1.466.736.736 0 0 0 .884-.726.74.74 0 0 0-.74-.74Zm-8.708 25.139a.738.738 0 0 0-.524 1.263.752.752 0 0 0 .379.203.747.747 0 0 0 .76-.315.742.742 0 0 0-.615-1.151Zm17.416 120.666a.744.744 0 0 0-.683.457.737.737 0 0 0 .16.807.743.743 0 0 0 1.139-.113.74.74 0 0 0-.616-1.151ZM156.75 340.51a.738.738 0 0 0-.144 1.466.743.743 0 0 0 .759-.315.736.736 0 0 0-.092-.934.735.735 0 0 0-.523-.217Zm0 10.055a.74.74 0 1 0 0 1.478.74.74 0 0 0 0-1.478Zm0-30.166a.738.738 0 0 0-.144 1.466.743.743 0 0 0 .759-.315.736.736 0 0 0-.092-.934.735.735 0 0 0-.523-.217Zm0 10.056a.738.738 0 0 0-.144 1.465.735.735 0 0 0 .759-.315.731.731 0 0 0 .069-.694.75.75 0 0 0-.401-.4.744.744 0 0 0-.283-.056Zm0-20.112a.74.74 0 1 0 0 1.478.74.74 0 0 0 0-1.478Zm8.708 125.695a.736.736 0 0 0-.683.457.735.735 0 0 0 .16.806.738.738 0 0 0 1.139-.112.744.744 0 0 0-.092-.935.749.749 0 0 0-.524-.216Zm34.834 30.167a.738.738 0 0 0-.524 1.263.743.743 0 0 0 1.139-.112.745.745 0 0 0-.092-.935.743.743 0 0 0-.523-.216Zm0-10.056a.731.731 0 0 0-.411.125.733.733 0 0 0-.315.759.735.735 0 0 0 .581.582.743.743 0 0 0 .885-.726.744.744 0 0 0-.74-.74Zm-8.709-155.861a.736.736 0 0 0-.683.457.735.735 0 0 0 .16.806.738.738 0 0 0 1.139-.112.744.744 0 0 0-.092-.935.749.749 0 0 0-.524-.216Zm8.709 125.694a.738.738 0 0 0-.145 1.466.738.738 0 0 0 .885-.726.744.744 0 0 0-.74-.74Zm0 10.056a.738.738 0 0 0-.524 1.263.745.745 0 0 0 .807.161.743.743 0 0 0 .457-.684.742.742 0 0 0-.74-.74Zm-8.709-125.695a.744.744 0 0 0-.683.457.737.737 0 0 0 .16.807.743.743 0 0 0 1.139-.113.74.74 0 0 0-.616-1.151Zm8.709 135.75a.74.74 0 1 0 0 1.478.74.74 0 0 0 0-1.478Zm-8.709-85.472a.744.744 0 0 0-.683.457.737.737 0 0 0 .16.806.745.745 0 0 0 .807.161.738.738 0 0 0 .4-.967.737.737 0 0 0-.684-.457Zm0-40.222a.736.736 0 0 0-.683.457.735.735 0 0 0 .16.806.745.745 0 0 0 .807.161.738.738 0 0 0 .4-.967.737.737 0 0 0-.684-.457Zm0 50.278a.736.736 0 0 0-.683.457.735.735 0 0 0 .16.806.745.745 0 0 0 .379.203.746.746 0 0 0 .76-.315.744.744 0 0 0-.092-.935.749.749 0 0 0-.524-.216Zm0-20.112a.744.744 0 0 0-.683.457.738.738 0 0 0 .539 1.009.738.738 0 0 0 .828-1.009.742.742 0 0 0-.684-.457Zm0-10.055a.736.736 0 0 0-.683.457.737.737 0 0 0 .16.806.745.745 0 0 0 .807.161.738.738 0 0 0 .4-.967.745.745 0 0 0-.684-.457Zm0-10.055a.743.743 0 0 0-.411.124.745.745 0 0 0-.314.76.735.735 0 0 0 .581.581.737.737 0 0 0 .76-.315.74.74 0 0 0-.616-1.15Zm8.709-15.084a.738.738 0 0 0-.145 1.466.743.743 0 0 0 .885-.726.744.744 0 0 0-.74-.74Zm0 20.111a.738.738 0 0 0-.145 1.466.738.738 0 0 0 .885-.726.744.744 0 0 0-.74-.74Zm0 20.111a.74.74 0 1 0 0 1.478.74.74 0 0 0 0-1.478Zm0-10.055a.738.738 0 0 0-.524 1.263.745.745 0 0 0 .807.161.743.743 0 0 0 .457-.684.742.742 0 0 0-.74-.74Zm0-20.111a.738.738 0 0 0-.524 1.263.752.752 0 0 0 .379.203.747.747 0 0 0 .76-.315.742.742 0 0 0-.615-1.151Zm-8.709 55.305a.744.744 0 0 0-.683.457.737.737 0 0 0 .16.807.737.737 0 0 0 1.139-.113.74.74 0 0 0-.616-1.151Zm8.709 35.195a.738.738 0 0 0-.524 1.263.752.752 0 0 0 .379.203.747.747 0 0 0 .76-.315.742.742 0 0 0-.615-1.151Zm0-110.612a.74.74 0 0 0-.726.885.743.743 0 0 0 .581.581.745.745 0 0 0 .885-.725.744.744 0 0 0-.74-.741Zm0 90.5a.74.74 0 0 0-.726.885.743.743 0 0 0 .581.581.745.745 0 0 0 .885-.725.744.744 0 0 0-.74-.741Zm0-30.166a.731.731 0 0 0-.411.125.733.733 0 0 0-.315.759.735.735 0 0 0 .581.582.743.743 0 0 0 .885-.726.744.744 0 0 0-.74-.74Zm0 40.222a.738.738 0 0 0-.145 1.466.743.743 0 0 0 .885-.726.744.744 0 0 0-.74-.74Zm0-20.111a.731.731 0 0 0-.411.125.733.733 0 0 0-.315.759.735.735 0 0 0 .581.582.743.743 0 0 0 .885-.726.744.744 0 0 0-.74-.74Zm0-10.055a.738.738 0 0 0-.524 1.263.743.743 0 0 0 1.139-.112.745.745 0 0 0-.092-.935.743.743 0 0 0-.523-.216Zm-17.417-70.39a.74.74 0 1 0 0 1.478.74.74 0 0 0 0-1.478Zm0 70.39a.738.738 0 0 0-.144 1.465.735.735 0 0 0 .759-.315.731.731 0 0 0 .069-.694.75.75 0 0 0-.401-.4.725.725 0 0 0-.283-.056Zm0 10.055a.738.738 0 0 0-.144 1.466.743.743 0 0 0 .759-.315.736.736 0 0 0-.092-.934.724.724 0 0 0-.523-.217Zm0 10.055a.74.74 0 1 0 0 1.478.74.74 0 0 0 0-1.478Zm0-30.166a.738.738 0 0 0-.144 1.466.743.743 0 0 0 .759-.315.736.736 0 0 0-.092-.934.724.724 0 0 0-.523-.217Zm0-10.056a.74.74 0 1 0 0 1.478.74.74 0 0 0 0-1.478Zm0 50.278a.74.74 0 1 0 0 1.478.74.74 0 0 0 0-1.478Zm0 20.111a.74.74 0 1 0 0 1.478.74.74 0 0 0 0-1.478Zm0 30.167a.738.738 0 0 0-.144 1.466.743.743 0 0 0 .759-.315.736.736 0 0 0-.092-.934.724.724 0 0 0-.523-.217Zm8.708-65.361a.736.736 0 0 0-.683.457.735.735 0 0 0 .16.806.738.738 0 0 0 1.139-.112.744.744 0 0 0-.092-.935.749.749 0 0 0-.524-.216Zm-8.708 55.305a.74.74 0 1 0 0 1.478.74.74 0 0 0 0-1.478Zm0-10.055a.738.738 0 0 0-.144 1.466.736.736 0 0 0 .884-.726.74.74 0 0 0-.74-.74Zm0-90.5a.738.738 0 0 0-.144 1.466.736.736 0 0 0 .884-.726.74.74 0 0 0-.74-.74Zm0 70.389a.731.731 0 0 0-.411.125.733.733 0 0 0-.315.759.737.737 0 0 0 .582.582.743.743 0 0 0 .884-.726.749.749 0 0 0-.217-.524.737.737 0 0 0-.523-.216Zm0 50.278a.738.738 0 0 0-.144 1.465.735.735 0 0 0 .759-.315.731.731 0 0 0 .069-.694.75.75 0 0 0-.401-.4.725.725 0 0 0-.283-.056Zm8.708-15.084a.744.744 0 0 0-.683.457.737.737 0 0 0 .16.806.745.745 0 0 0 .807.161.738.738 0 0 0 .4-.967.737.737 0 0 0-.684-.457Zm0-20.111a.736.736 0 0 0-.683.457.737.737 0 0 0 .16.806.745.745 0 0 0 .807.161.738.738 0 0 0 .4-.967.737.737 0 0 0-.684-.457Zm0 10.055a.744.744 0 0 0-.683.457.738.738 0 0 0 .539 1.009.738.738 0 0 0 .828-1.009.742.742 0 0 0-.684-.457Zm0-20.11a.743.743 0 0 0-.411.124.745.745 0 0 0-.314.76.735.735 0 0 0 .581.581.737.737 0 0 0 .76-.315.74.74 0 0 0-.616-1.15Zm0-10.056a.736.736 0 0 0-.683.457.735.735 0 0 0 .16.806.745.745 0 0 0 .807.161.738.738 0 0 0 .4-.967.737.737 0 0 0-.684-.457Zm0-10.056a.744.744 0 0 0-.683.457.737.737 0 0 0 .16.807.743.743 0 0 0 1.139-.113.74.74 0 0 0-.616-1.151Zm-8.708-75.416a.738.738 0 1 0 .283 1.423.736.736 0 0 0 .457-.683.749.749 0 0 0-.217-.524.737.737 0 0 0-.523-.216Zm8.708 135.75a.736.736 0 0 0-.683.457.735.735 0 0 0 .16.806.745.745 0 0 0 .379.203.746.746 0 0 0 .76-.315.744.744 0 0 0-.092-.935.749.749 0 0 0-.524-.216Zm-8.708-125.695a.74.74 0 1 0 0 1.478.74.74 0 0 0 0-1.478Zm0-20.111a.74.74 0 1 0 0 1.478.74.74 0 0 0 0-1.478Zm8.708 155.861a.744.744 0 0 0-.683.457.737.737 0 0 0 .16.807.737.737 0 0 0 1.139-.113.74.74 0 0 0-.616-1.151Zm-17.416-170.944a.738.738 0 0 0-.524 1.263.745.745 0 0 0 .807.161.743.743 0 0 0 .457-.684.742.742 0 0 0-.74-.74Zm-52.25 120.667a.738.738 0 0 0-.524 1.263.743.743 0 0 0 1.139-.112.745.745 0 0 0-.092-.935.743.743 0 0 0-.523-.216Zm0 50.277a.738.738 0 0 0-.145 1.466.738.738 0 0 0 .885-.726.744.744 0 0 0-.74-.74Zm0-10.055a.738.738 0 0 0-.524 1.263.748.748 0 0 0 .379.203.747.747 0 0 0 .76-.315.742.742 0 0 0-.615-1.151Zm-8.709-155.862a.744.744 0 0 0-.683.457.738.738 0 0 0 .539 1.009.738.738 0 0 0 .828-1.009.742.742 0 0 0-.684-.457Zm0 10.056a.744.744 0 0 0-.683.457.737.737 0 0 0 .16.806.745.745 0 0 0 .807.161.738.738 0 0 0 .4-.967.737.737 0 0 0-.684-.457Zm8.709 135.75a.738.738 0 0 0-.145 1.466.743.743 0 0 0 .885-.726.744.744 0 0 0-.74-.74Zm0-10.056a.74.74 0 0 0-.726.885.743.743 0 0 0 .581.581.745.745 0 0 0 .885-.725.744.744 0 0 0-.74-.741Zm-8.709-85.472a.744.744 0 0 0-.683.457.737.737 0 0 0 .16.807.743.743 0 0 0 1.139-.113.74.74 0 0 0-.616-1.151Zm0-30.166a.736.736 0 0 0-.683.457.735.735 0 0 0 .16.806.745.745 0 0 0 .379.203.746.746 0 0 0 .76-.315.744.744 0 0 0-.092-.935.749.749 0 0 0-.524-.216Zm0 40.222a.736.736 0 0 0-.683.457.735.735 0 0 0 .16.806.745.745 0 0 0 .807.161.738.738 0 0 0 .4-.967.737.737 0 0 0-.684-.457Zm0 10.056a.743.743 0 0 0-.411.124.745.745 0 0 0-.314.76.735.735 0 0 0 .581.581.737.737 0 0 0 .76-.314.745.745 0 0 0-.092-.935.742.742 0 0 0-.524-.216Zm8.709 55.305a.731.731 0 0 0-.411.125.733.733 0 0 0-.315.759.735.735 0 0 0 .581.582.743.743 0 0 0 .885-.726.744.744 0 0 0-.74-.74Zm-8.709-45.25a.736.736 0 0 0-.683.457.737.737 0 0 0 .16.806.745.745 0 0 0 .807.161.738.738 0 0 0 .4-.967.737.737 0 0 0-.684-.457Zm0-50.278a.744.744 0 0 0-.683.457.737.737 0 0 0 .16.807.737.737 0 0 0 1.139-.113.74.74 0 0 0-.616-1.151Zm0 10.056a.736.736 0 0 0-.683.457.735.735 0 0 0 .16.806.745.745 0 0 0 .807.161.745.745 0 0 0 .457-.684.741.741 0 0 0-.741-.74Zm8.709-5.028a.731.731 0 0 0-.411.125.733.733 0 0 0-.315.759.735.735 0 0 0 .581.582.743.743 0 0 0 .885-.726.744.744 0 0 0-.74-.74Zm0-10.055a.738.738 0 0 0-.524 1.263.743.743 0 0 0 1.139-.112.745.745 0 0 0-.092-.935.743.743 0 0 0-.523-.216Zm0 30.166a.738.738 0 0 0-.145 1.466.743.743 0 0 0 .885-.726.744.744 0 0 0-.74-.74Zm0-10.056a.74.74 0 0 0-.726.885.743.743 0 0 0 .581.581.745.745 0 0 0 .885-.725.744.744 0 0 0-.74-.741Zm0-40.222a.74.74 0 1 0 0 1.478.74.74 0 0 0 0-1.478Zm0 10.056a.731.731 0 0 0-.411.125.733.733 0 0 0-.315.759.735.735 0 0 0 .581.582.743.743 0 0 0 .885-.726.744.744 0 0 0-.74-.74ZM104.5 471.232a.74.74 0 1 0 0 1.478.74.74 0 0 0 0-1.478Zm17.417-70.389a.74.74 0 1 0 0 1.478.74.74 0 0 0 0-1.478Zm0-30.166a.738.738 0 0 0-.524 1.263.748.748 0 0 0 .379.203.747.747 0 0 0 .76-.315.742.742 0 0 0-.615-1.151Zm0 40.222a.731.731 0 0 0-.411.125.733.733 0 0 0-.315.759.735.735 0 0 0 .581.582.743.743 0 0 0 .885-.726.744.744 0 0 0-.74-.74Zm0-20.111a.738.738 0 0 0-.524 1.263.74.74 0 1 0 .524-1.263Zm0-10.056a.738.738 0 0 0-.145 1.466.738.738 0 0 0 .885-.726.744.744 0 0 0-.74-.74Zm-8.709 55.306a.736.736 0 0 0-.683.457.735.735 0 0 0 .16.806.738.738 0 0 0 1.139-.112.744.744 0 0 0-.092-.935.749.749 0 0 0-.524-.216Zm-8.708-55.306a.74.74 0 1 0 0 1.478.74.74 0 0 0 0-1.478Zm0 10.056a.738.738 0 0 0-.144 1.466.743.743 0 0 0 .759-.315.736.736 0 0 0-.092-.934.735.735 0 0 0-.523-.217Zm0 10.055a.74.74 0 1 0 0 1.478.74.74 0 0 0 0-1.478Zm0 10.056a.738.738 0 0 0-.144 1.466.743.743 0 0 0 .759-.315.736.736 0 0 0-.092-.934.735.735 0 0 0-.523-.217Zm0-40.222a.738.738 0 1 0 .283 1.423.736.736 0 0 0 .457-.683.74.74 0 0 0-.74-.74Zm0-10.056a.74.74 0 1 0 0 1.478.74.74 0 0 0 0-1.478Zm0 80.444a.74.74 0 1 0 0 1.478.74.74 0 0 0 0-1.478Zm0-20.11a.738.738 0 0 0-.144 1.465.735.735 0 0 0 .759-.314.737.737 0 0 0-.092-.935.732.732 0 0 0-.523-.216Zm0 30.166a.74.74 0 1 0 0 1.478.74.74 0 0 0 0-1.478Zm0 10.056a.738.738 0 1 0 .283 1.423.736.736 0 0 0 .457-.683.74.74 0 0 0-.74-.74Zm0-30.167a.738.738 0 0 0-.144 1.466.743.743 0 0 0 .759-.315.736.736 0 0 0-.092-.934.735.735 0 0 0-.523-.217Zm0-80.445a.74.74 0 1 0 0 1.478.74.74 0 0 0 0-1.478Zm0-10.055a.738.738 0 0 0-.144 1.466.743.743 0 0 0 .759-.315.736.736 0 0 0-.092-.934.735.735 0 0 0-.523-.217Zm8.708 115.639a.736.736 0 0 0-.683.457.735.735 0 0 0 .16.806.745.745 0 0 0 .807.161.738.738 0 0 0 .4-.967.737.737 0 0 0-.684-.457Zm0-30.167a.744.744 0 0 0-.683.457.737.737 0 0 0 .16.807.737.737 0 0 0 1.139-.113.74.74 0 0 0-.616-1.151Zm0-30.167a.744.744 0 0 0-.683.457.738.738 0 0 0 .539 1.009.738.738 0 0 0 .828-1.009.742.742 0 0 0-.684-.457Zm8.709-95.527a.738.738 0 0 0-.524 1.263.74.74 0 1 0 .524-1.263Zm-8.709 115.639a.736.736 0 0 0-.683.457.735.735 0 0 0 .16.806.745.745 0 0 0 .379.203.746.746 0 0 0 .76-.315.744.744 0 0 0-.092-.935.749.749 0 0 0-.524-.216Zm0-10.056a.744.744 0 0 0-.683.457.737.737 0 0 0 .16.806.745.745 0 0 0 .807.161.738.738 0 0 0 .4-.967.737.737 0 0 0-.684-.457Zm0 40.222a.744.744 0 0 0-.683.457.737.737 0 0 0 .16.807.743.743 0 0 0 1.139-.113.74.74 0 0 0-.616-1.151ZM104.5 330.455a.738.738 0 0 0-.144 1.465.735.735 0 0 0 .759-.314.737.737 0 0 0-.092-.935.732.732 0 0 0-.523-.216Zm0-10.056a.738.738 0 0 0-.144 1.466.743.743 0 0 0 .759-.315.736.736 0 0 0-.092-.934.735.735 0 0 0-.523-.217Zm0-10.056a.74.74 0 1 0 0 1.478.74.74 0 0 0 0-1.478Zm0-10.055a.738.738 0 0 0-.144 1.466.736.736 0 0 0 .884-.726.74.74 0 0 0-.74-.74Zm8.708 165.917a.743.743 0 0 0-.411.124.745.745 0 0 0-.314.76.735.735 0 0 0 .581.581.737.737 0 0 0 .76-.315.74.74 0 0 0-.616-1.15Zm17.417-30.167a.738.738 0 0 0-.144 1.466.743.743 0 0 0 .759-.315.736.736 0 0 0-.092-.934.735.735 0 0 0-.523-.217Zm8.708-105.583a.743.743 0 0 0-.411.124.745.745 0 0 0-.314.76.735.735 0 0 0 .581.581.737.737 0 0 0 .76-.314.745.745 0 0 0-.092-.935.742.742 0 0 0-.524-.216Zm0-10.056a.736.736 0 0 0-.683.457.735.735 0 0 0 .16.806.745.745 0 0 0 .807.161.738.738 0 0 0 .4-.967.745.745 0 0 0-.684-.457Zm0 30.166a.744.744 0 0 0-.683.457.738.738 0 0 0 .539 1.009.738.738 0 0 0 .828-1.009.742.742 0 0 0-.684-.457Zm0-10.055a.744.744 0 0 0-.683.457.737.737 0 0 0 .16.806.745.745 0 0 0 .807.161.738.738 0 0 0 .4-.967.745.745 0 0 0-.684-.457Zm0-40.222a.736.736 0 0 0-.683.457.735.735 0 0 0 .16.806.738.738 0 0 0 1.139-.112.744.744 0 0 0-.092-.935.749.749 0 0 0-.524-.216Zm0 10.055a.744.744 0 0 0-.683.457.737.737 0 0 0 .16.807.743.743 0 0 0 1.139-.113.74.74 0 0 0-.616-1.151Zm0 100.556a.736.736 0 0 0-.683.457.735.735 0 0 0 .16.806.745.745 0 0 0 .807.161.738.738 0 0 0 .4-.967.745.745 0 0 0-.684-.457Zm0-10.056a.744.744 0 0 0-.683.457.737.737 0 0 0 .16.807.743.743 0 0 0 1.139-.113.74.74 0 0 0-.616-1.151Zm8.709 65.362a.738.738 0 0 0-.524 1.263.743.743 0 0 0 1.139-.112.745.745 0 0 0-.092-.935.743.743 0 0 0-.523-.216Zm-8.709-105.584a.744.744 0 0 0-.683.457.737.737 0 0 0 .16.806.745.745 0 0 0 .807.161.738.738 0 0 0 .4-.967.745.745 0 0 0-.684-.457Zm0 30.167a.736.736 0 0 0-.683.457.735.735 0 0 0 .16.806.745.745 0 0 0 .807.161.745.745 0 0 0 .457-.684.741.741 0 0 0-.741-.74Zm0-20.111a.736.736 0 0 0-.683.457.735.735 0 0 0 .16.806.745.745 0 0 0 .379.203.746.746 0 0 0 .76-.315.744.744 0 0 0-.092-.935.749.749 0 0 0-.524-.216Zm8.709 15.083a.731.731 0 0 0-.411.125.733.733 0 0 0-.315.759.735.735 0 0 0 .581.582.743.743 0 0 0 .885-.726.744.744 0 0 0-.74-.74Zm0-10.055a.738.738 0 0 0-.524 1.263.743.743 0 0 0 1.139-.112.745.745 0 0 0-.092-.935.743.743 0 0 0-.523-.216Zm-8.709 45.25a.743.743 0 0 0-.411.124.745.745 0 0 0-.314.76.735.735 0 0 0 .581.581.737.737 0 0 0 .76-.314.745.745 0 0 0-.092-.935.742.742 0 0 0-.524-.216Zm8.709-55.306a.731.731 0 0 0-.411.125.733.733 0 0 0-.315.759.735.735 0 0 0 .581.582.743.743 0 0 0 .885-.726.744.744 0 0 0-.74-.74Zm0 90.5a.731.731 0 0 0-.411.125.733.733 0 0 0-.315.759.735.735 0 0 0 .581.582.743.743 0 0 0 .885-.726.744.744 0 0 0-.74-.74Zm0-60.334a.74.74 0 0 0-.726.885.743.743 0 0 0 .581.581.745.745 0 0 0 .885-.725.744.744 0 0 0-.74-.741Zm0-50.277a.738.738 0 0 0-.524 1.263.745.745 0 0 0 .807.161.743.743 0 0 0 .457-.684.742.742 0 0 0-.74-.74Zm0 10.055a.74.74 0 1 0 0 1.478.74.74 0 0 0 0-1.478Zm0 80.445a.738.738 0 0 0-.524 1.263.745.745 0 0 0 .807.161.743.743 0 0 0 .457-.684.742.742 0 0 0-.74-.74Zm0 10.055a.74.74 0 1 0 0 1.478.74.74 0 0 0 0-1.478Zm0-30.166a.738.738 0 0 0-.524 1.263.752.752 0 0 0 .379.203.747.747 0 0 0 .76-.315.742.742 0 0 0-.615-1.151Zm0 10.055a.738.738 0 0 0-.145 1.466.738.738 0 0 0 .885-.726.744.744 0 0 0-.74-.74Zm0-20.111a.738.738 0 0 0-.145 1.466.743.743 0 0 0 .885-.726.744.744 0 0 0-.74-.74Zm-8.709-25.139a.744.744 0 0 0-.683.457.737.737 0 0 0 .16.807.737.737 0 0 0 1.139-.113.74.74 0 0 0-.616-1.151Zm-8.708-15.083a.738.738 0 0 0-.144 1.466.743.743 0 0 0 .759-.315.736.736 0 0 0-.092-.934.735.735 0 0 0-.523-.217Zm0 60.333a.74.74 0 1 0 0 1.478.74.74 0 0 0 0-1.478Zm0 20.111a.74.74 0 1 0 0 1.478.74.74 0 0 0 0-1.478Zm17.417-110.611a.738.738 0 0 0-.145 1.466.738.738 0 0 0 .885-.726.744.744 0 0 0-.74-.74Zm-17.417 120.667a.738.738 0 0 0-.144 1.466.743.743 0 0 0 .759-.315.736.736 0 0 0-.092-.934.735.735 0 0 0-.523-.217Zm0-100.556a.74.74 0 1 0 0 1.478.74.74 0 0 0 0-1.478Zm0-10.055a.738.738 0 0 0-.144 1.466.743.743 0 0 0 .759-.315.736.736 0 0 0-.092-.934.735.735 0 0 0-.523-.217Zm0 60.333a.74.74 0 1 0 0 1.478.74.74 0 0 0 0-1.478Zm0-10.056a.74.74 0 1 0 0 1.478.74.74 0 0 0 0-1.478Zm0-20.11a.738.738 0 0 0-.144 1.465.735.735 0 0 0 .759-.314.737.737 0 0 0-.092-.935.732.732 0 0 0-.523-.216Zm0 10.055a.738.738 0 0 0-.144 1.466.743.743 0 0 0 .759-.315.736.736 0 0 0-.092-.934.735.735 0 0 0-.523-.217Zm8.708 45.25a.736.736 0 0 0-.683.457.737.737 0 0 0 .16.806.745.745 0 0 0 .807.161.738.738 0 0 0 .4-.967.745.745 0 0 0-.684-.457Zm-8.708-105.583a.738.738 0 1 0 .283 1.423.736.736 0 0 0 .457-.683.74.74 0 0 0-.74-.74Zm8.708 135.75a.736.736 0 0 0-.683.457.735.735 0 0 0 .16.806.745.745 0 0 0 .379.203.746.746 0 0 0 .76-.315.744.744 0 0 0-.092-.935.749.749 0 0 0-.524-.216Zm-8.708 5.028a.738.738 0 0 0-.144 1.465.735.735 0 0 0 .759-.315.731.731 0 0 0 .069-.694.75.75 0 0 0-.401-.4.744.744 0 0 0-.283-.056Zm8.708 5.027a.744.744 0 0 0-.683.457.737.737 0 0 0 .16.807.737.737 0 0 0 1.139-.113.74.74 0 0 0-.616-1.151Zm0-30.167a.744.744 0 0 0-.683.457.738.738 0 0 0 .539 1.009.738.738 0 0 0 .828-1.009.742.742 0 0 0-.684-.457Zm0 10.056a.744.744 0 0 0-.683.457.737.737 0 0 0 .16.806.745.745 0 0 0 .807.161.738.738 0 0 0 .4-.967.745.745 0 0 0-.684-.457Zm-8.708-145.806a.74.74 0 1 0 0 1.478.74.74 0 0 0 0-1.478Zm0 30.167a.74.74 0 1 0 0 1.478.74.74 0 0 0 0-1.478Zm0 80.445a.738.738 0 1 0 .283 1.423.736.736 0 0 0 .457-.683.74.74 0 0 0-.74-.74Zm0-100.556a.74.74 0 1 0 0 1.478.74.74 0 0 0 0-1.478ZM268.588 477h1.475a43.438 43.438 0 1 1 86.874 0h1.476a44.911 44.911 0 1 0-89.825 0Zm10.058 0h1.475a33.379 33.379 0 1 1 66.757 0h1.477a34.872 34.872 0 0 0-10.202-24.658 34.852 34.852 0 0 0-37.995-7.56A34.852 34.852 0 0 0 278.646 477Zm-50.28 0h1.475a83.659 83.659 0 1 1 167.317 0h1.477a85.128 85.128 0 0 0-24.925-60.218 85.141 85.141 0 0 0-60.21-24.946 85.14 85.14 0 0 0-60.209 24.946A85.148 85.148 0 0 0 228.365 477h.001Zm60.333 0h1.475a23.33 23.33 0 0 1 23.326-23.326A23.33 23.33 0 0 1 336.826 477h1.475a24.8 24.8 0 1 0-49.603 0h.001Zm-40.223 0h1.476a63.551 63.551 0 0 1 63.548-63.573A63.551 63.551 0 0 1 377.047 477h1.477a65.028 65.028 0 0 0-65.024-65.024A65.028 65.028 0 0 0 248.476 477Zm160.207 0a95.173 95.173 0 0 0-27.868-67.324 95.175 95.175 0 0 0-67.315-27.89 95.17 95.17 0 0 0-67.315 27.89A95.187 95.187 0 0 0 218.318 477h1.475a93.7 93.7 0 0 1 27.425-66.3 93.703 93.703 0 0 1 132.564 0 93.717 93.717 0 0 1 27.424 66.3h1.477Zm-150.149 0h1.476a53.49 53.49 0 1 1 106.979 0h1.477a54.966 54.966 0 1 0-109.932 0Zm-20.116 0h1.476a73.605 73.605 0 0 1 147.212 0h1.476a75.081 75.081 0 1 0-150.164 0Zm41.699-180.85h-1.475A69.727 69.727 0 0 1 209 365.65v1.477a71.204 71.204 0 0 0 71.117-70.977Zm-20.111 0h-1.475A49.59 49.59 0 0 1 209 345.54v1.475a51.07 51.07 0 0 0 51.006-50.865Zm10.058 0h-1.475A59.659 59.659 0 0 1 209 355.593v1.476a61.136 61.136 0 0 0 61.064-60.919Zm20.111 0H288.7a79.793 79.793 0 0 1-79.7 79.554v1.476a81.27 81.27 0 0 0 81.175-81.03Zm-60.337 0h-1.475A19.387 19.387 0 0 1 209 315.371v1.476a20.864 20.864 0 0 0 20.838-20.697Zm-10.058 0h-1.475a9.32 9.32 0 0 1-9.305 9.167v1.477a10.8 10.8 0 0 0 10.78-10.644Zm30.173 0h-1.475A39.523 39.523 0 0 1 209 335.481v1.477a41.004 41.004 0 0 0 40.953-40.808Zm-10.058 0h-1.475A29.459 29.459 0 0 1 209 325.429v1.476a30.932 30.932 0 0 0 30.895-30.755Z"/><path fill="#C2C5CB" d="M370.629 296h-1.476a159.094 159.094 0 0 0-46.908-113.246A159.108 159.108 0 0 0 209 135.847v-1.476a160.565 160.565 0 0 1 114.288 47.341A160.558 160.558 0 0 1 370.629 296Zm-40.23-121.4A170.565 170.565 0 0 0 209 124.317v1.476a169.098 169.098 0 0 1 120.356 49.851A169.097 169.097 0 0 1 379.206 296h1.475a170.566 170.566 0 0 0-50.282-121.4Zm-28.439 28.44a130.62 130.62 0 0 0-92.96-38.5v1.475a129.141 129.141 0 0 1 91.911 38.067A129.134 129.134 0 0 1 338.984 296h1.475a130.631 130.631 0 0 0-38.499-92.96Zm14.216-14.218A150.55 150.55 0 0 0 209 144.429v1.476a149.11 149.11 0 0 1 106.134 43.961A149.12 149.12 0 0 1 359.095 296h1.475a150.554 150.554 0 0 0-44.394-107.178Zm-7.11 7.112A140.577 140.577 0 0 0 209 154.481v1.476a139.083 139.083 0 0 1 99.022 41.021A139.106 139.106 0 0 1 349.042 296h1.476a140.597 140.597 0 0 0-41.452-100.066Zm-14.218 14.218A120.621 120.621 0 0 0 209 174.593v1.476a119.17 119.17 0 0 1 84.805 35.125A119.167 119.167 0 0 1 328.93 296h1.476a120.6 120.6 0 0 0-35.558-85.848ZM209 184.652v1.474A109.998 109.998 0 0 1 318.873 296h1.475A111.474 111.474 0 0 0 209 184.652Zm0 10.052v1.475A99.933 99.933 0 0 1 308.82 296h1.476A101.408 101.408 0 0 0 209 194.704ZM268.588-16h1.475A43.482 43.482 0 0 0 313.5 27.437 43.485 43.485 0 0 0 356.937-16h1.476A44.962 44.962 0 0 1 313.5 28.913 44.964 44.964 0 0 1 268.588-16Zm10.058 0h1.475A33.419 33.419 0 0 0 313.5 17.38 33.417 33.417 0 0 0 346.878-16h1.477A34.895 34.895 0 0 1 313.5 18.856 34.894 34.894 0 0 1 278.646-16Zm-50.281 0h1.476A83.751 83.751 0 0 0 313.5 67.658 83.754 83.754 0 0 0 397.158-16h1.477A85.231 85.231 0 0 1 313.5 69.135 85.23 85.23 0 0 1 228.365-16Zm60.333 0h1.476A23.353 23.353 0 0 0 313.5 7.326 23.352 23.352 0 0 0 336.826-16h1.475A24.826 24.826 0 0 1 313.5 8.802 24.828 24.828 0 0 1 288.698-16Zm-40.222 0h1.476A63.618 63.618 0 0 0 313.5 47.548 63.62 63.62 0 0 0 377.047-16h1.477A65.101 65.101 0 0 1 313.5 49.025 65.097 65.097 0 0 1 248.476-16Zm160.207 0A95.295 95.295 0 0 1 313.5 79.19 95.293 95.293 0 0 1 218.318-16h1.475A93.82 93.82 0 0 0 313.5 77.712 93.814 93.814 0 0 0 407.206-16h1.477Zm-150.149 0h1.476a53.554 53.554 0 0 0 53.49 53.49A53.55 53.55 0 0 0 366.989-16h1.477A55.029 55.029 0 0 1 313.5 38.966 55.026 55.026 0 0 1 258.534-16Zm-20.116 0h1.476A73.688 73.688 0 0 0 313.5 57.606 73.689 73.689 0 0 0 387.106-16h1.476A75.164 75.164 0 0 1 313.5 59.082 75.166 75.166 0 0 1 238.418-16ZM209 216.291v-1.476A81.274 81.274 0 0 0 127.816 296h1.475A79.8 79.8 0 0 1 209 216.291ZM139.35 296h-1.476A71.205 71.205 0 0 1 209 224.874v1.475A69.727 69.727 0 0 0 139.35 296Zm10.052 0h-1.475a61.138 61.138 0 0 1 17.908-43.165A61.139 61.139 0 0 1 209 234.926v1.476A59.663 59.663 0 0 0 149.402 296Zm40.223 0h-1.476A20.874 20.874 0 0 1 209 275.148v1.476A19.395 19.395 0 0 0 189.625 296Zm-30.164 0h-1.476A51.073 51.073 0 0 1 209 244.984v1.476A49.595 49.595 0 0 0 159.461 296ZM209 286.683a9.324 9.324 0 0 0-9.318 9.317h-1.476A10.808 10.808 0 0 1 209 285.207v1.476ZM169.513 296h-1.475A41.008 41.008 0 0 1 209 255.038v1.475A39.533 39.533 0 0 0 169.513 296Zm10.059 0h-1.477A30.942 30.942 0 0 1 209 265.096v1.475A29.46 29.46 0 0 0 179.572 296Z"/><path fill="#C2C5CB" d="M209 196.179v-1.475A101.408 101.408 0 0 0 107.704 296h1.476A99.937 99.937 0 0 1 209 196.179Zm-84.805 15.015A119.167 119.167 0 0 0 89.069 296h-1.475a121.388 121.388 0 0 1 35.558-85.848A121.388 121.388 0 0 1 209 174.593v1.476a119.161 119.161 0 0 0-84.805 35.125Zm-7.106-7.111A129.15 129.15 0 0 0 79.015 296h-1.474a131.435 131.435 0 0 1 38.499-92.96 131.461 131.461 0 0 1 92.96-38.5v1.475a129.124 129.124 0 0 0-91.911 38.068ZM99.127 296h-1.475a111.47 111.47 0 0 1 32.65-78.698A111.47 111.47 0 0 1 209 184.652v1.474A109.998 109.998 0 0 0 99.127 296Zm10.85-99.022A139.093 139.093 0 0 0 68.958 296h-1.476a141.533 141.533 0 0 1 41.452-100.066A141.534 141.534 0 0 1 209 154.481v1.477a139.102 139.102 0 0 0-99.023 41.02Zm-7.111-7.112A149.113 149.113 0 0 0 58.905 296H57.43a151.556 151.556 0 0 1 44.393-107.177A151.551 151.551 0 0 1 209 144.429v1.476a149.105 149.105 0 0 0-106.134 43.961Zm-7.11-7.112A159.095 159.095 0 0 0 48.847 296h-1.476A161.634 161.634 0 0 1 209 134.371v1.476a159.086 159.086 0 0 0-113.244 46.907Zm-7.112-7.11A169.078 169.078 0 0 0 38.794 296h-1.475a171.683 171.683 0 0 1 50.282-121.4A171.68 171.68 0 0 1 209 124.317v1.476a169.107 169.107 0 0 0-120.356 49.851Z"/></g><defs><clipPath id="a"><path fill="#fff" d="M310 0H0v444h310z"/></clipPath></defs></svg>