<svg fill="none" height="100" viewBox="0 0 133 100" width="133" xmlns="http://www.w3.org/2000/svg" xmlns:xlink="http://www.w3.org/1999/xlink"><linearGradient id="a" gradientUnits="userSpaceOnUse" x1="0" x2="113.141" y1="0" y2="196.704"><stop offset="0" stop-color="#4d74ff"/><stop offset="1" stop-color="#0c0c0e"/></linearGradient><path d="m0 5c0-2.76142 2.23858-5 5-5h123c2.761 0 5 2.23858 5 5v90c0 2.7614-2.239 5-5 5h-123c-2.76143 0-5-2.2386-5-5z" fill="#000"/><path d="m0 5c0-2.76142 2.23858-5 5-5h123c2.761 0 5 2.23858 5 5v90c0 2.7614-2.239 5-5 5h-123c-2.76143 0-5-2.2386-5-5z" fill="url(#a)"/><path clip-rule="evenodd" d="m20 16c-2.2091 0-4 1.7909-4 4v80h112c2.761 0 5-2.2386 5-5v-79zm65 32h-61v4h61zm-61 24h61v4h-61zm101-12h-101v4h101zm-101 24h86v4h-86zm2.25-59c-1.2426 0-2.25 1.0074-2.25 2.25v9.5c0 1.2426 1.0074 2.25 2.25 2.25h11.5c1.2426 0 2.25-1.0074 2.25-2.25v-9.5c0-1.2426-1.0074-2.25-2.25-2.25zm-.75 2.25c0-.4142.3358-.75.75-.75h11.5c.4142 0 .75.3358.75.75v9.5c0 .4142-.3358.75-.75.75h-11.5c-.4142 0-.75-.3358-.75-.75zm2.4239 1.7699c.2651-.3182.738-.3612 1.0563-.096l3 2.5c.171.1424.2698.3535.2698.5761s-.0988.4337-.2698.5762l-3 2.5c-.3183.2652-.7912.2222-1.0563-.096-.2652-.3183-.2222-.7912.096-1.0563l2.3086-1.9239-2.3086-1.9238c-.3182-.2652-.3612-.7381-.096-1.0563zm4.3261 5.4801c-.4142 0-.75.3358-.75.75s.3358.75.75.75h3c.4142 0 .75-.3358.75-.75s-.3358-.75-.75-.75z" fill="#fff" fill-rule="evenodd" opacity=".8"/></svg>