<svg width="432" height="86" viewBox="0 0 432 86" fill="none" xmlns="http://www.w3.org/2000/svg">
<g clip-path="url(#clip0_302_23373)">
<mask id="mask0_302_23373" style="mask-type:alpha" maskUnits="userSpaceOnUse" x="33" y="-81" width="399" height="248">
<path d="M33.45 -75.5C33.45 -78.0129 35.4871 -80.05 38 -80.05H427C429.513 -80.05 431.55 -78.0129 431.55 -75.5V161.5C431.55 164.013 429.513 166.05 427 166.05H38C35.4871 166.05 33.45 164.013 33.45 161.5V-75.5Z" fill="#16181D" stroke="#5D5F65" stroke-width="0.9"/>
</mask>
<g mask="url(#mask0_302_23373)">
<path d="M438.826 -6.38751C434.832 -10.4486 430.088 -13.6683 424.866 -15.8627C419.645 -18.0572 414.047 -19.1834 408.392 -19.1771C402.737 -19.1708 397.137 -18.0321 391.91 -15.826C386.684 -13.62 381.933 -10.3897 377.931 -6.3197C373.928 -2.2497 370.751 2.58034 368.581 7.89464C366.412 13.2089 365.292 18.9034 365.285 24.653C365.279 30.4025 366.387 36.0946 368.545 41.404C370.703 46.7135 373.87 51.5365 377.864 55.5976L408.345 24.605L438.826 -6.38751Z" fill="url(#paint0_angular_302_23373)"/>
<path d="M438.826 -6.38751C434.832 -10.4486 430.088 -13.6683 424.866 -15.8627C419.645 -18.0572 414.047 -19.1834 408.392 -19.1771C402.737 -19.1708 397.137 -18.0321 391.91 -15.826C386.684 -13.62 381.933 -10.3897 377.931 -6.3197C373.928 -2.2497 370.751 2.58034 368.581 7.89464C366.412 13.2089 365.292 18.9034 365.285 24.653C365.279 30.4025 366.387 36.0946 368.545 41.404C370.703 46.7135 373.87 51.5365 377.864 55.5976L408.345 24.605L438.826 -6.38751Z" fill="url(#paint1_linear_302_23373)"/>
<path d="M377.997 55.7332C381.991 59.7943 386.734 63.014 391.956 65.2084C397.178 67.4029 402.776 68.5291 408.431 68.5228C414.085 68.5165 419.686 67.3778 424.912 65.1717C430.139 62.9657 434.889 59.7354 438.892 55.6654C442.895 51.5954 446.072 46.7654 448.242 41.4511C450.411 36.1368 451.531 30.4423 451.537 24.6927C451.543 18.9432 450.436 13.2511 448.278 7.94166C446.119 2.63218 442.953 -2.1908 438.959 -6.25189L408.478 24.7407L377.997 55.7332Z" fill="url(#paint2_radial_302_23373)"/>
<path d="M377.837 55.5815C380.732 58.5253 384.387 60.6385 388.594 61.8005C392.8 62.9625 397.476 63.1505 402.354 62.3539C407.232 61.5572 412.216 59.7915 417.022 57.1575C421.829 54.5235 426.363 51.0729 430.366 47.0025C434.369 42.9322 437.763 38.3219 440.353 33.4348C442.944 28.5478 444.681 23.4798 445.464 18.5201C446.248 13.5604 446.063 8.80613 444.92 4.52883C443.777 0.251517 441.699 -3.4651 438.804 -6.40883L408.32 24.5864L377.837 55.5815Z" fill="url(#paint3_radial_302_23373)"/>
<path d="M377.837 55.5811C379.969 57.7495 382.87 59.095 386.372 59.5407C389.874 59.9864 393.91 59.5236 398.248 58.1788C402.587 56.8339 407.144 54.6333 411.658 51.7026C416.173 48.7719 420.557 45.1686 424.56 41.0982C428.563 37.0279 432.107 32.5703 434.989 27.9799C437.872 23.3896 440.036 18.7564 441.359 14.345C442.681 9.93348 443.136 5.83009 442.698 2.26907C442.26 -1.29195 440.936 -4.24086 438.804 -6.40929L408.32 24.5859L377.837 55.5811Z" fill="url(#paint4_radial_302_23373)"/>
<path d="M377.837 55.5814C379.279 57.0472 381.495 57.6969 384.358 57.4935C387.222 57.2901 390.678 56.2375 394.528 54.3958C398.378 52.5541 402.547 49.9594 406.797 46.7598C411.047 43.5602 415.295 39.8185 419.298 35.7481C423.301 31.6778 426.981 27.3586 430.128 23.0371C433.275 18.7157 435.827 14.4766 437.638 10.5619C439.449 6.6473 440.485 3.13372 440.685 0.221838C440.885 -2.69005 440.246 -4.94321 438.804 -6.40902L408.321 24.5862L377.837 55.5814Z" fill="url(#paint5_linear_302_23373)"/>
<path d="M256.008 55.7264C260.002 59.7875 264.746 63.0071 269.968 65.2016C275.189 67.396 280.787 68.5223 286.442 68.516C292.097 68.5097 297.697 67.371 302.924 65.1649C308.15 62.9588 312.901 59.7286 316.903 55.6586C320.906 51.5886 324.083 46.7585 326.253 41.4442C328.422 36.1299 329.542 30.4354 329.549 24.6859C329.555 18.9363 328.447 13.2443 326.289 7.93482C324.131 2.62534 320.964 -2.19763 316.97 -6.25873L286.489 24.7338L256.008 55.7264Z" fill="url(#paint6_angular_302_23373)"/>
<path d="M256.008 55.7264C260.002 59.7875 264.746 63.0071 269.968 65.2016C275.189 67.396 280.787 68.5223 286.442 68.516C292.097 68.5097 297.697 67.371 302.924 65.1649C308.15 62.9588 312.901 59.7286 316.903 55.6586C320.906 51.5886 324.083 46.7585 326.253 41.4442C328.422 36.1299 329.542 30.4354 329.549 24.6859C329.555 18.9363 328.447 13.2443 326.289 7.93482C324.131 2.62534 320.964 -2.19763 316.97 -6.25873L286.489 24.7338L256.008 55.7264Z" fill="url(#paint7_linear_302_23373)"/>
<path d="M316.837 -6.39482C312.843 -10.4559 308.1 -13.6756 302.878 -15.87C297.656 -18.0645 292.058 -19.1907 286.403 -19.1844C280.749 -19.1781 275.148 -18.0394 269.922 -15.8333C264.695 -13.6273 259.945 -10.397 255.942 -6.32702C251.939 -2.25702 248.762 2.57302 246.593 7.88732C244.423 13.2016 243.303 18.8961 243.297 24.6457C243.291 30.3952 244.398 36.0872 246.557 41.3967C248.715 46.7062 251.881 51.5292 255.875 55.5903L286.356 24.5977L316.837 -6.39482Z" fill="url(#paint8_radial_302_23373)"/>
<path d="M316.997 -6.24218C314.102 -9.18592 310.447 -11.2991 306.24 -12.4611C302.034 -13.6231 297.358 -13.8112 292.48 -13.0145C287.602 -12.2179 282.618 -10.4522 277.812 -7.81817C273.005 -5.18418 268.471 -1.7335 264.468 2.33684C260.465 6.40719 257.071 11.0175 254.48 15.9045C251.89 20.7915 250.153 25.8596 249.37 30.8193C248.586 35.779 248.771 40.5332 249.914 44.8105C251.057 49.0878 253.135 52.8045 256.03 55.7482L286.514 24.753L316.997 -6.24218Z" fill="url(#paint9_radial_302_23373)"/>
<path d="M316.997 -6.24222C314.865 -8.41065 311.964 -9.75613 308.462 -10.2018C304.96 -10.6476 300.924 -10.1848 296.586 -8.83991C292.247 -7.49505 287.69 -5.29445 283.176 -2.36377C278.661 0.566922 274.277 4.17031 270.274 8.24065C266.271 12.311 262.727 16.7686 259.845 21.3589C256.962 25.9493 254.798 30.5824 253.475 34.9939C252.153 39.4054 251.698 43.5088 252.136 47.0698C252.574 50.6308 253.898 53.5797 256.03 55.7482L286.514 24.753L316.997 -6.24222Z" fill="url(#paint10_radial_302_23373)"/>
<path d="M316.997 -6.24248C315.555 -7.70829 313.339 -8.35804 310.475 -8.15461C307.612 -7.95119 304.156 -6.89858 300.306 -5.0569C296.456 -3.21521 292.287 -0.620509 288.037 2.57906C283.787 5.77863 279.539 9.52041 275.536 13.5908C271.533 17.6611 267.853 21.9803 264.706 26.3017C261.559 30.6232 259.007 34.8623 257.196 38.7769C255.385 42.6916 254.349 46.2051 254.149 49.117C253.949 52.0289 254.588 54.2821 256.03 55.7479L286.513 24.7527L316.997 -6.24248Z" fill="url(#paint11_linear_302_23373)"/>
<path d="M377.941 117.611C381.935 113.55 385.101 108.727 387.259 103.417C389.418 98.108 390.525 92.416 390.519 86.6664C390.513 80.9169 389.393 75.2224 387.223 69.9081C385.054 64.5938 381.877 59.7637 377.874 55.6937C373.871 51.6237 369.121 48.3935 363.894 46.1874C358.668 43.9813 353.067 42.8426 347.413 42.8363C341.758 42.83 336.16 43.9563 330.938 46.1507C325.716 48.3451 320.973 51.5648 316.979 55.6259L347.46 86.6185L377.941 117.611Z" fill="url(#paint12_angular_302_23373)"/>
<path d="M377.941 117.611C381.935 113.55 385.101 108.727 387.259 103.417C389.418 98.108 390.525 92.416 390.519 86.6664C390.513 80.9169 389.393 75.2224 387.223 69.9081C385.054 64.5938 381.877 59.7637 377.874 55.6937C373.871 51.6237 369.121 48.3935 363.894 46.1874C358.668 43.9813 353.067 42.8426 347.413 42.8363C341.758 42.83 336.16 43.9563 330.938 46.1507C325.716 48.3451 320.973 51.5648 316.979 55.6259L347.46 86.6185L377.941 117.611Z" fill="url(#paint13_linear_302_23373)"/>
<path d="M316.845 55.7611C312.851 59.8222 309.685 64.6451 307.527 69.9546C305.368 75.2641 304.261 80.9561 304.267 86.7057C304.273 92.4552 305.393 98.1497 307.563 103.464C309.732 108.778 312.909 113.608 316.912 117.678C320.915 121.748 325.665 124.979 330.892 127.185C336.118 129.391 341.719 130.529 347.374 130.536C353.028 130.542 358.626 129.416 363.848 127.221C369.07 125.027 373.813 121.807 377.807 117.746L347.326 86.7536L316.845 55.7611Z" fill="url(#paint14_radial_302_23373)"/>
<path d="M316.995 55.5988C314.1 58.5426 312.022 62.2592 310.879 66.5365C309.736 70.8138 309.551 75.568 310.335 80.5277C311.118 85.4874 312.855 90.5555 315.445 95.4425C318.036 100.33 321.429 104.94 325.433 109.01C329.436 113.081 333.97 116.531 338.776 119.165C343.583 121.799 348.567 123.565 353.445 124.362C358.323 125.158 362.998 124.97 367.205 123.808C371.412 122.646 375.067 120.533 377.962 117.589L347.479 86.594L316.995 55.5988Z" fill="url(#paint15_radial_302_23373)"/>
<path d="M316.994 55.5989C314.862 57.7673 313.539 60.7162 313.1 64.2772C312.662 67.8382 313.117 71.9416 314.44 76.3531C315.762 80.7646 317.927 85.3978 320.809 89.9881C323.691 94.5784 327.235 99.036 331.238 103.106C335.241 107.177 339.625 110.78 344.14 113.711C348.654 116.641 353.211 118.842 357.55 120.187C361.888 121.532 365.924 121.995 369.426 121.549C372.929 121.103 375.829 119.758 377.961 117.589L347.478 86.5941L316.994 55.5989Z" fill="url(#paint16_radial_302_23373)"/>
<path d="M316.995 55.5991C315.553 57.0649 314.914 59.3181 315.115 62.23C315.315 65.1419 316.35 68.6554 318.161 72.5701C319.972 76.4848 322.524 80.7238 325.671 85.0453C328.818 89.3667 332.498 93.6859 336.501 97.7563C340.504 101.827 344.752 105.568 349.002 108.768C353.252 111.968 357.421 114.562 361.271 116.404C365.121 118.246 368.577 119.298 371.441 119.502C374.304 119.705 376.52 119.055 377.962 117.59L347.479 86.5943L316.995 55.5991Z" fill="url(#paint17_linear_302_23373)"/>
</g>
</g>
<defs>
<radialGradient id="paint0_angular_302_23373" cx="0" cy="0" r="1" gradientUnits="userSpaceOnUse" gradientTransform="translate(408.345 24.605) rotate(108.119) scale(39.4778 43.5362)">
<stop stop-color="#BF3A86"/>
<stop offset="1" stop-color="#651A45"/>
</radialGradient>
<linearGradient id="paint1_linear_302_23373" x1="346.169" y1="-33.2587" x2="406.629" y2="26.2969" gradientUnits="userSpaceOnUse">
<stop offset="0.565549" stop-color="#AC2E80"/>
<stop offset="0.989329" stop-color="#360832"/>
</linearGradient>
<radialGradient id="paint2_radial_302_23373" cx="0" cy="0" r="1" gradientUnits="userSpaceOnUse" gradientTransform="translate(408.478 24.7407) rotate(45.4769) scale(178.635 179.002)">
<stop offset="0.162495" stop-color="#360F24"/>
<stop offset="0.276853" stop-color="#7A1262"/>
</radialGradient>
<radialGradient id="paint3_radial_302_23373" cx="0" cy="0" r="1" gradientUnits="userSpaceOnUse" gradientTransform="translate(408.32 24.5864) rotate(45.4769) scale(129.486 179.017)">
<stop offset="0.114583" stop-color="#360F24"/>
<stop offset="0.276853" stop-color="#AB2E80"/>
</radialGradient>
<radialGradient id="paint4_radial_302_23373" cx="0" cy="0" r="1" gradientUnits="userSpaceOnUse" gradientTransform="translate(408.32 24.5859) rotate(45.4769) scale(95.3825 179.017)">
<stop offset="0.114583" stop-color="#360F24"/>
<stop offset="0.237386" stop-color="#D24F90"/>
</radialGradient>
<linearGradient id="paint5_linear_302_23373" x1="419.298" y1="35.7481" x2="396.977" y2="13.7958" gradientUnits="userSpaceOnUse">
<stop stop-color="#E3729D"/>
<stop offset="1" stop-color="#FDABCA"/>
</linearGradient>
<radialGradient id="paint6_angular_302_23373" cx="0" cy="0" r="1" gradientUnits="userSpaceOnUse" gradientTransform="translate(286.489 24.7338) rotate(-71.8814) scale(39.4778 43.5362)">
<stop stop-color="#BF3A86"/>
<stop offset="1" stop-color="#651A45"/>
</radialGradient>
<linearGradient id="paint7_linear_302_23373" x1="348.665" y1="82.5975" x2="288.205" y2="23.042" gradientUnits="userSpaceOnUse">
<stop offset="0.565549" stop-color="#AC2E80"/>
<stop offset="0.989329" stop-color="#360832"/>
</linearGradient>
<radialGradient id="paint8_radial_302_23373" cx="0" cy="0" r="1" gradientUnits="userSpaceOnUse" gradientTransform="translate(286.356 24.5977) rotate(-134.523) scale(178.635 179.002)">
<stop offset="0.162495" stop-color="#360F24"/>
<stop offset="0.276853" stop-color="#7A1262"/>
</radialGradient>
<radialGradient id="paint9_radial_302_23373" cx="0" cy="0" r="1" gradientUnits="userSpaceOnUse" gradientTransform="translate(286.514 24.753) rotate(-134.523) scale(129.486 179.017)">
<stop offset="0.114583" stop-color="#360F24"/>
<stop offset="0.276853" stop-color="#AB2E80"/>
</radialGradient>
<radialGradient id="paint10_radial_302_23373" cx="0" cy="0" r="1" gradientUnits="userSpaceOnUse" gradientTransform="translate(286.514 24.753) rotate(-134.523) scale(95.3825 179.017)">
<stop offset="0.114583" stop-color="#360F24"/>
<stop offset="0.237386" stop-color="#D24F90"/>
</radialGradient>
<linearGradient id="paint11_linear_302_23373" x1="275.536" y1="13.5908" x2="297.857" y2="35.5431" gradientUnits="userSpaceOnUse">
<stop stop-color="#E3729D"/>
<stop offset="1" stop-color="#FDABCA"/>
</linearGradient>
<radialGradient id="paint12_angular_302_23373" cx="0" cy="0" r="1" gradientUnits="userSpaceOnUse" gradientTransform="translate(347.46 86.6185) rotate(-161.31) scale(38.9551 44.1204)">
<stop stop-color="#BF3A86"/>
<stop offset="1" stop-color="#651A45"/>
</radialGradient>
<linearGradient id="paint13_linear_302_23373" x1="404.368" y1="23.3992" x2="343.816" y2="82.8578" gradientUnits="userSpaceOnUse">
<stop offset="0.565549" stop-color="#FDA8B5"/>
<stop offset="0.989329" stop-color="#ED78A5"/>
</linearGradient>
<radialGradient id="paint14_radial_302_23373" cx="0" cy="0" r="1" gradientUnits="userSpaceOnUse" gradientTransform="translate(347.326 86.7536) rotate(134.523) scale(178.635 179.002)">
<stop offset="0.162495" stop-color="#360F24"/>
<stop offset="0.276853" stop-color="#7A1262"/>
</radialGradient>
<radialGradient id="paint15_radial_302_23373" cx="0" cy="0" r="1" gradientUnits="userSpaceOnUse" gradientTransform="translate(347.479 86.594) rotate(134.523) scale(129.486 179.017)">
<stop offset="0.114583" stop-color="#360F24"/>
<stop offset="0.276853" stop-color="#AB2E80"/>
</radialGradient>
<radialGradient id="paint16_radial_302_23373" cx="0" cy="0" r="1" gradientUnits="userSpaceOnUse" gradientTransform="translate(347.478 86.5941) rotate(134.523) scale(95.3825 179.017)">
<stop offset="0.114583" stop-color="#360F24"/>
<stop offset="0.237386" stop-color="#D24F90"/>
</radialGradient>
<linearGradient id="paint17_linear_302_23373" x1="336.501" y1="97.7563" x2="358.822" y2="75.804" gradientUnits="userSpaceOnUse">
<stop stop-color="#E3729D"/>
<stop offset="1" stop-color="#FDABCA"/>
</linearGradient>
<clipPath id="clip0_302_23373">
<rect width="432" height="86" fill="white"/>
</clipPath>
</defs>
</svg>
