<svg width="432" height="86" viewBox="0 0 432 86" fill="none" xmlns="http://www.w3.org/2000/svg">
<g clip-path="url(#clip0_302_24832)">
<mask id="mask0_302_24832" style="mask-type:alpha" maskUnits="userSpaceOnUse" x="33" y="-1" width="399" height="88">
<path d="M33 4.5C33 1.73858 35.2386 -0.5 38 -0.5H427C429.761 -0.5 432 1.73858 432 4.5V86.5H33V4.5Z" fill="white"/>
</mask>
<g mask="url(#mask0_302_24832)">
<mask id="mask1_302_24832" style="mask-type:alpha" maskUnits="userSpaceOnUse" x="93" y="-1" width="399" height="88">
<path d="M93.328 12.622C93.328 5.5561 99.0561 -0.17195 106.122 -0.17195H478.878C485.944 -0.17195 491.672 5.5561 491.672 12.622V73.378C491.672 80.4439 485.944 86.172 478.878 86.172H106.122C99.0561 86.172 93.328 80.4439 93.328 73.378V12.622Z" fill="#16181D" stroke="#5D5F65" stroke-width="0.6561"/>
</mask>
<g mask="url(#mask1_302_24832)">
<path d="M257.862 -8.6686L302.056 -33.54V17.7334L257.862 42.6048V-8.6686Z" fill="url(#paint0_linear_302_24832)"/>
<path d="M257.67 42.7009L302.343 17.4468L346.824 42.7965L302.439 68.2419L257.67 42.7009Z" fill="#083552"/>
<path d="M302.056 -33.54L346.825 -8.6686L302.056 17.7334V-33.54Z" fill="url(#paint1_linear_302_24832)"/>
<path d="M346.825 -8.66846L346.825 42.7963L302.247 17.3509L346.825 -8.66846Z" fill="url(#paint2_linear_302_24832)"/>
<path d="M301.425 68.4261L345.62 43.5547V94.8281L301.425 119.7V68.4261Z" fill="url(#paint3_linear_302_24832)"/>
<path d="M345.62 43.5547L390.389 68.4261L345.62 94.8281V43.5547Z" fill="url(#paint4_linear_302_24832)"/>
<path d="M390.388 68.4258L390.388 119.891L345.811 94.4451L390.388 68.4258Z" fill="url(#paint5_linear_302_24832)"/>
<path d="M343.83 -9.11294L388.025 -33.9844V17.289L343.83 42.1605V-9.11294Z" fill="url(#paint6_linear_302_24832)"/>
<path d="M343.639 42.256L388.312 17.002L432.793 42.3517L388.407 67.7971L343.639 42.256Z" fill="#083552"/>
<path d="M388.024 -33.9844L432.793 -9.11294L388.024 17.2891V-33.9844Z" fill="url(#paint7_linear_302_24832)"/>
<path d="M432.793 -9.11328L432.793 42.3515L388.216 16.9061L432.793 -9.11328Z" fill="url(#paint8_linear_302_24832)"/>
</g>
</g>
</g>
<defs>
<linearGradient id="paint0_linear_302_24832" x1="279.959" y1="-33.54" x2="279.959" y2="42.6048" gradientUnits="userSpaceOnUse">
<stop stop-color="#5494E3"/>
<stop offset="0.5" stop-color="#4CB4BB"/>
<stop offset="1" stop-color="#A3F7D6"/>
</linearGradient>
<linearGradient id="paint1_linear_302_24832" x1="302.056" y1="-31.4355" x2="302.056" y2="14.8636" gradientUnits="userSpaceOnUse">
<stop stop-color="#C0F2EF"/>
<stop offset="1" stop-color="#587070"/>
</linearGradient>
<linearGradient id="paint2_linear_302_24832" x1="347.399" y1="12.5679" x2="302.247" y2="17.9249" gradientUnits="userSpaceOnUse">
<stop stop-color="#DFF6FD"/>
<stop offset="1" stop-color="#708192"/>
</linearGradient>
<linearGradient id="paint3_linear_302_24832" x1="323.522" y1="43.5547" x2="323.522" y2="119.7" gradientUnits="userSpaceOnUse">
<stop stop-color="#5494E3"/>
<stop offset="0.5" stop-color="#4CB4BB"/>
<stop offset="1" stop-color="#A3F7D6"/>
</linearGradient>
<linearGradient id="paint4_linear_302_24832" x1="345.62" y1="45.6592" x2="345.62" y2="91.9583" gradientUnits="userSpaceOnUse">
<stop stop-color="#C0F2EF"/>
<stop offset="1" stop-color="#587070"/>
</linearGradient>
<linearGradient id="paint5_linear_302_24832" x1="390.962" y1="89.6622" x2="345.811" y2="95.0191" gradientUnits="userSpaceOnUse">
<stop stop-color="#DFF6FD"/>
<stop offset="1" stop-color="#708192"/>
</linearGradient>
<linearGradient id="paint6_linear_302_24832" x1="366.023" y1="-19.6355" x2="366.023" y2="28.9595" gradientUnits="userSpaceOnUse">
<stop stop-color="#109D8E"/>
<stop offset="1" stop-color="#4DF5C8"/>
</linearGradient>
<linearGradient id="paint7_linear_302_24832" x1="388.024" y1="-31.8799" x2="388.024" y2="14.4193" gradientUnits="userSpaceOnUse">
<stop stop-color="#C0F2EF"/>
<stop offset="1" stop-color="#587070"/>
</linearGradient>
<linearGradient id="paint8_linear_302_24832" x1="433.367" y1="12.1231" x2="388.216" y2="17.48" gradientUnits="userSpaceOnUse">
<stop stop-color="#DFF6FD"/>
<stop offset="1" stop-color="#708192"/>
</linearGradient>
<clipPath id="clip0_302_24832">
<rect width="432" height="86" fill="white"/>
</clipPath>
</defs>
</svg>
