<svg width="432" height="86" viewBox="0 0 432 86" fill="none" xmlns="http://www.w3.org/2000/svg">
<g clip-path="url(#clip0_302_23694)">
<mask id="mask0_302_23694" style="mask-type:alpha" maskUnits="userSpaceOnUse" x="82" y="-94" width="350" height="274">
<path d="M82.5 -74C82.5 -84.7696 91.2304 -93.5 102 -93.5H412C422.77 -93.5 431.5 -84.7696 431.5 -74V160C431.5 170.77 422.77 179.5 412 179.5H102C91.2304 179.5 82.5 170.77 82.5 160V-74Z" fill="#16181D" stroke="#5D5F65"/>
</mask>
<g mask="url(#mask0_302_23694)">
<g opacity="0.9">
<path fill-rule="evenodd" clip-rule="evenodd" d="M429.503 -36.7618L385.51 24.8001L385.345 -19.0062L429.503 -36.7618Z" fill="url(#paint0_linear_302_23694)"/>
<path fill-rule="evenodd" clip-rule="evenodd" d="M429.503 -36.7618L385.51 24.8001L385.345 -19.0062L429.503 -36.7618Z" fill="url(#paint1_linear_302_23694)" fill-opacity="0.1"/>
</g>
<path opacity="0.9" fill-rule="evenodd" clip-rule="evenodd" d="M341.053 -36.4278L385.511 24.7995L385.345 -19.0067L341.053 -36.4278Z" fill="url(#paint2_linear_302_23694)"/>
<path d="M341.508 42.8297L297.179 25.1128L341.3 6.92984L385.628 24.6024L341.508 42.8297Z" fill="#FFE27D"/>
<path d="M341.508 42.8297L297.179 25.1128L341.3 6.92984L385.628 24.6024L341.508 42.8297Z" fill="url(#paint3_linear_302_23694)" fill-opacity="0.7"/>
<mask id="mask1_302_23694" style="mask-type:alpha" maskUnits="userSpaceOnUse" x="297" y="6" width="89" height="37">
<path d="M341.507 42.8297L297.178 25.1128L341.299 6.92984L385.627 24.6024L341.507 42.8297Z" fill="#F4C212"/>
<path d="M341.507 42.8297L297.178 25.1128L341.299 6.92984L385.627 24.6024L341.507 42.8297Z" fill="url(#paint4_linear_302_23694)" fill-opacity="0.7"/>
</mask>
<g mask="url(#mask1_302_23694)">
<g filter="url(#filter0_f_302_23694)">
<path d="M302.229 22.5262L341.374 5.28084L357.609 11.9511L302.229 22.5262Z" fill="#DE7226" fill-opacity="0.8"/>
</g>
</g>
<path opacity="0.9" fill-rule="evenodd" clip-rule="evenodd" d="M297.179 25.1728L341.049 -36.4764L341.302 7.32942L297.179 25.1728Z" fill="url(#paint5_radial_302_23694)"/>
<g opacity="0.9">
<path fill-rule="evenodd" clip-rule="evenodd" d="M385.629 24.6621L341.759 86.3114L341.506 42.5055L385.629 24.6621Z" fill="url(#paint6_linear_302_23694)"/>
<path fill-rule="evenodd" clip-rule="evenodd" d="M385.629 24.6621L341.759 86.3114L341.506 42.5055L385.629 24.6621Z" fill="url(#paint7_linear_302_23694)" fill-opacity="0.1"/>
</g>
<path opacity="0.9" fill-rule="evenodd" clip-rule="evenodd" d="M385.628 24.6616L341.049 -36.4772L341.302 7.32865L385.628 24.6616Z" fill="url(#paint8_radial_302_23694)"/>
<path opacity="0.9" fill-rule="evenodd" clip-rule="evenodd" d="M297.179 25.1724L341.758 86.3112L341.505 42.5053L297.179 25.1724Z" fill="url(#paint9_linear_302_23694)"/>
<path d="M385.208 103.339L340.983 85.367L385.208 67.439L429.433 85.3671L385.208 103.339Z" fill="#FFE27D"/>
<path d="M385.208 103.339L340.983 85.367L385.208 67.439L429.433 85.3671L385.208 103.339Z" fill="url(#paint10_linear_302_23694)" fill-opacity="0.7"/>
<mask id="mask2_302_23694" style="mask-type:alpha" maskUnits="userSpaceOnUse" x="340" y="67" width="90" height="37">
<path d="M385.208 103.339L340.983 85.3671L385.208 67.439L429.433 85.3671L385.208 103.339Z" fill="#FFE27D"/>
<path d="M385.208 103.339L340.983 85.3671L385.208 67.439L429.433 85.3671L385.208 103.339Z" fill="url(#paint11_linear_302_23694)" fill-opacity="0.7"/>
</mask>
<g mask="url(#mask2_302_23694)">
<g filter="url(#filter1_f_302_23694)">
<path d="M346.047 82.8105L385.29 65.7914L401.487 72.5552L346.047 82.8105Z" fill="#DE7226" fill-opacity="0.8"/>
</g>
</g>
<path opacity="0.9" fill-rule="evenodd" clip-rule="evenodd" d="M340.982 85.4268L385.208 24.0317L385.208 67.8383L340.982 85.4268Z" fill="url(#paint12_radial_302_23694)"/>
<g opacity="0.9">
<path fill-rule="evenodd" clip-rule="evenodd" d="M429.434 85.4267L385.208 146.822L385.208 103.015L429.434 85.4267Z" fill="url(#paint13_linear_302_23694)"/>
<path fill-rule="evenodd" clip-rule="evenodd" d="M429.434 85.4267L385.208 146.822L385.208 103.015L429.434 85.4267Z" fill="url(#paint14_linear_302_23694)" fill-opacity="0.1"/>
</g>
<path opacity="0.9" fill-rule="evenodd" clip-rule="evenodd" d="M429.434 85.4268L385.208 24.0317L385.208 67.8383L429.434 85.4268Z" fill="url(#paint15_radial_302_23694)"/>
<path opacity="0.9" fill-rule="evenodd" clip-rule="evenodd" d="M340.982 85.4267L385.208 146.822L385.208 103.015L340.982 85.4267Z" fill="url(#paint16_linear_302_23694)"/>
</g>
</g>
<defs>
<filter id="filter0_f_302_23694" x="297.564" y="0.615161" width="64.7113" height="26.5768" filterUnits="userSpaceOnUse" color-interpolation-filters="sRGB">
<feFlood flood-opacity="0" result="BackgroundImageFix"/>
<feBlend mode="normal" in="SourceGraphic" in2="BackgroundImageFix" result="shape"/>
<feGaussianBlur stdDeviation="2.3328" result="effect1_foregroundBlur_302_23694"/>
</filter>
<filter id="filter1_f_302_23694" x="341.381" y="61.1259" width="64.7711" height="26.3502" filterUnits="userSpaceOnUse" color-interpolation-filters="sRGB">
<feFlood flood-opacity="0" result="BackgroundImageFix"/>
<feBlend mode="normal" in="SourceGraphic" in2="BackgroundImageFix" result="shape"/>
<feGaussianBlur stdDeviation="2.3328" result="effect1_foregroundBlur_302_23694"/>
</filter>
<linearGradient id="paint0_linear_302_23694" x1="461.115" y1="17.9771" x2="439.991" y2="-39.7141" gradientUnits="userSpaceOnUse">
<stop offset="0.425671" stop-color="#C54A4F"/>
<stop offset="1" stop-color="#953134"/>
</linearGradient>
<linearGradient id="paint1_linear_302_23694" x1="387.861" y1="2.5099" x2="398.758" y2="-52.217" gradientUnits="userSpaceOnUse">
<stop/>
<stop offset="1" stop-opacity="0"/>
</linearGradient>
<linearGradient id="paint2_linear_302_23694" x1="348.245" y1="-44.3848" x2="392.517" y2="-15.3085" gradientUnits="userSpaceOnUse">
<stop stop-color="#EBA67C"/>
<stop offset="0.526042" stop-color="#FCCAAE"/>
<stop offset="1" stop-color="#E5846D"/>
</linearGradient>
<linearGradient id="paint3_linear_302_23694" x1="328.626" y1="13.5068" x2="353.5" y2="41.1198" gradientUnits="userSpaceOnUse">
<stop offset="0.0170241" stop-color="#FFA24D"/>
<stop offset="1" stop-color="#F7D5AC"/>
</linearGradient>
<linearGradient id="paint4_linear_302_23694" x1="328.625" y1="13.5068" x2="353.499" y2="41.1198" gradientUnits="userSpaceOnUse">
<stop offset="0.0170241" stop-color="#FFA24D"/>
<stop offset="1" stop-color="#FDF5EA"/>
</linearGradient>
<radialGradient id="paint5_radial_302_23694" cx="0" cy="0" r="1" gradientUnits="userSpaceOnUse" gradientTransform="translate(339.568 7.99132) rotate(-178.594) scale(143.661 165.724)">
<stop stop-color="#EE995B"/>
<stop offset="0.384641" stop-color="#FFD9C7"/>
</radialGradient>
<linearGradient id="paint6_linear_302_23694" x1="417.35" y1="79.338" x2="396.111" y2="21.6889" gradientUnits="userSpaceOnUse">
<stop offset="0.425671" stop-color="#C54A4F"/>
<stop offset="1" stop-color="#953134"/>
</linearGradient>
<linearGradient id="paint7_linear_302_23694" x1="344.065" y1="64.0166" x2="354.854" y2="9.2681" gradientUnits="userSpaceOnUse">
<stop/>
<stop offset="1" stop-opacity="0"/>
</linearGradient>
<radialGradient id="paint8_radial_302_23694" cx="0" cy="0" r="1" gradientUnits="userSpaceOnUse" gradientTransform="translate(343.043 7.97047) rotate(-31.639) scale(82.0534 115.934)">
<stop stop-color="#F9C1A3"/>
<stop offset="0.384641" stop-color="#E6B18A"/>
</radialGradient>
<linearGradient id="paint9_linear_302_23694" x1="304.355" y1="17.2011" x2="348.685" y2="46.1892" gradientUnits="userSpaceOnUse">
<stop stop-color="#EBA67C"/>
<stop offset="0.526042" stop-color="#FCCAAE"/>
<stop offset="1" stop-color="#E5846D"/>
</linearGradient>
<linearGradient id="paint10_linear_302_23694" x1="372.496" y1="73.9427" x2="397.21" y2="101.699" gradientUnits="userSpaceOnUse">
<stop offset="0.0170241" stop-color="#FFA24D"/>
<stop offset="1" stop-color="#F7D5AC"/>
</linearGradient>
<linearGradient id="paint11_linear_302_23694" x1="372.496" y1="73.9427" x2="397.21" y2="101.699" gradientUnits="userSpaceOnUse">
<stop offset="0.0170241" stop-color="#FFA24D"/>
<stop offset="1" stop-color="#FDF5EA"/>
</linearGradient>
<radialGradient id="paint12_radial_302_23694" cx="0" cy="0" r="1" gradientUnits="userSpaceOnUse" gradientTransform="translate(383.47 68.4902) rotate(-178.263) scale(143.661 165.724)">
<stop stop-color="#EE995B"/>
<stop offset="0.384641" stop-color="#FFD9C7"/>
</radialGradient>
<linearGradient id="paint13_linear_302_23694" x1="460.838" y1="140.285" x2="439.932" y2="82.5141" gradientUnits="userSpaceOnUse">
<stop offset="0.425671" stop-color="#C54A4F"/>
<stop offset="1" stop-color="#953134"/>
</linearGradient>
<linearGradient id="paint14_linear_302_23694" x1="387.643" y1="124.541" x2="398.747" y2="69.8554" gradientUnits="userSpaceOnUse">
<stop/>
<stop offset="1" stop-opacity="0"/>
</linearGradient>
<radialGradient id="paint15_radial_302_23694" cx="0" cy="0" r="1" gradientUnits="userSpaceOnUse" gradientTransform="translate(386.946 68.4902) rotate(-31.3083) scale(82.0534 115.934)">
<stop stop-color="#F9C1A3"/>
<stop offset="0.384641" stop-color="#E6B18A"/>
</radialGradient>
<linearGradient id="paint16_linear_302_23694" x1="348.204" y1="77.497" x2="392.366" y2="106.74" gradientUnits="userSpaceOnUse">
<stop stop-color="#EBA67C"/>
<stop offset="0.526042" stop-color="#FCCAAE"/>
<stop offset="1" stop-color="#E5846D"/>
</linearGradient>
<clipPath id="clip0_302_23694">
<rect width="432" height="86" fill="white"/>
</clipPath>
</defs>
</svg>
