<svg width="100" height="28" viewBox="0 0 100 28" fill="none" xmlns="http://www.w3.org/2000/svg">
<path d="M33.972 20.1972V14.8277H29.2493V20.1972H26.8447V7.46484H29.2493V12.7021H33.972V7.46484H36.3766V20.1972H33.972Z" fill="black"/>
<path d="M45.1922 20.1977H43.283L43.1098 19.5677C42.2846 20.1041 41.3216 20.3897 40.3373 20.3901C38.6349 20.3901 37.9087 19.2238 37.9087 17.6176C37.9087 15.7251 38.7311 14.9989 40.6235 14.9989H42.8598V14.0227C42.8598 12.9911 42.5736 12.628 41.0828 12.628C40.2157 12.634 39.3513 12.7267 38.5026 12.9045L38.2165 11.1275C39.2566 10.8396 40.3305 10.6916 41.4098 10.6875C44.3338 10.6875 45.1946 11.7191 45.1946 14.0539L45.1922 20.1977ZM42.8598 16.6798H41.1405C40.3758 16.6798 40.1666 16.889 40.1666 17.5983C40.1666 18.2476 40.3758 18.5361 41.1044 18.5361C41.7214 18.5262 42.326 18.3608 42.8622 18.0552L42.8598 16.6798Z" fill="black"/>
<path d="M49.7057 20.3844C48.6141 20.3664 47.5314 20.1857 46.4932 19.8481L46.8178 18.0711C47.7197 18.3291 48.6523 18.4642 49.5903 18.4727C50.6219 18.4727 50.7758 18.2322 50.7758 17.5349C50.7758 16.9626 50.6603 16.6741 49.1502 16.311C46.8755 15.7555 46.6086 15.1832 46.6086 13.387C46.6086 11.5138 47.431 10.6914 50.088 10.6914C51.028 10.6923 51.9647 10.8012 52.8798 11.016L52.6393 12.87C51.794 12.714 50.9377 12.6247 50.0784 12.6031C49.0661 12.6031 48.893 12.8435 48.893 13.4062C48.893 14.1516 48.9507 14.2093 50.2131 14.534C52.8197 15.2241 53.0697 15.5679 53.0697 17.47C53.0697 19.2758 52.5143 20.3844 49.7057 20.3844Z" fill="black"/>
<path d="M60.009 20.1971V13.7047C60.009 13.207 59.7998 12.9593 59.2635 12.9593C58.6913 12.9593 57.6765 13.3031 56.8349 13.7432V20.1971H54.5024V7.08243L56.8349 6.75781V11.5935C57.8908 11.0515 59.0516 10.7446 60.2374 10.6941C61.786 10.6941 62.339 11.7834 62.339 13.4474V20.1971H60.009Z" fill="black"/>
<path d="M64.061 9.56665V6.87109H66.3935V9.56665H64.061ZM64.061 20.195V10.8844H66.3935V20.195H64.061Z" fill="black"/>
<path d="M68.019 10.9621C68.019 8.62963 69.3752 7.27344 72.5493 7.27344C73.7155 7.27318 74.8774 7.41448 76.0095 7.69424L75.745 9.77663C74.7139 9.58125 73.6683 9.47266 72.619 9.45201C70.9551 9.45201 70.4212 10.0267 70.4212 11.3757V16.269C70.4212 17.6252 70.9575 18.1927 72.619 18.1927C73.6683 18.1721 74.7139 18.0635 75.745 17.8681L76.0119 19.9529C74.8798 20.2327 73.7179 20.374 72.5517 20.3737C69.3776 20.3737 68.0214 19.0175 68.0214 16.685L68.019 10.9621Z" fill="black"/>
<path d="M80.7944 20.3858C77.6011 20.3858 76.7427 18.6281 76.7427 16.7164V14.3647C76.7427 12.4531 77.6035 10.6953 80.7944 10.6953C83.9853 10.6953 84.8462 12.4531 84.8462 14.3647V16.7164C84.839 18.6281 83.9805 20.3858 80.7944 20.3858ZM80.7944 12.6911C79.5513 12.6911 79.0751 13.2466 79.0751 14.2974V16.7934C79.0751 17.8442 79.5561 18.3996 80.7944 18.3996C82.0328 18.3996 82.5137 17.8442 82.5137 16.7934V14.2878C82.5089 13.237 82.0304 12.6815 80.7944 12.6815V12.6911Z" fill="black"/>
<path d="M91.0335 12.8339C90.1774 13.2218 89.3526 13.6752 88.5664 14.1901V20.2016H86.2339V10.8838H88.2033L88.3572 11.9153C89.1158 11.4016 89.9389 10.9901 90.805 10.6914L91.0335 12.8339Z" fill="black"/>
<path d="M99.8777 17.0988C99.8777 19.1643 98.9591 20.3859 96.7998 20.3859C95.9642 20.3771 95.1315 20.2869 94.3134 20.1165V23.9639L91.981 24.2885V10.8853H93.8349L94.0754 11.6692C94.9252 11.0346 95.958 10.6929 97.0186 10.6953C98.8918 10.6953 99.8849 11.8038 99.8849 13.9271L99.8777 17.0988ZM94.3158 18.1496C94.9945 18.2989 95.6865 18.3795 96.3814 18.39C97.223 18.39 97.5476 17.9885 97.5476 17.1469V13.8646C97.5476 13.0999 97.2615 12.6791 96.4006 12.6791C95.6286 12.7069 94.8908 13.0048 94.3158 13.5207V18.1496Z" fill="black"/>
<path d="M9.19038 2.08203L0 7.38417V7.38658V20.1165L3.453 22.1099V9.37758L9.19038 6.06405V2.08203Z" fill="black"/>
<path d="M12.8573 2.08203V12.2222H9.19031V8.43738L5.7373 10.4308V23.4228L9.19031 25.4211V15.3097H12.8573V19.0681L16.3103 17.0771V4.07544L12.8573 2.08203Z" fill="black"/>
<path d="M12.8574 25.4263L22.0478 20.1242V20.1194V7.39185L18.5948 5.39844V18.1308L12.8574 21.4443V25.4263Z" fill="black"/>
</svg>
