<svg width="500" height="162" viewBox="0 0 500 162" fill="none" xmlns="http://www.w3.org/2000/svg">
<mask id="mask0_12_4974" style="mask-type:alpha" maskUnits="userSpaceOnUse" x="0" y="0" width="501" height="162">
<path d="M0.000366211 162L0.000367803 -5.90086e-06L500 1.33341e-06L500 162L0.000366211 162Z" fill="#121C31"/>
</mask>
<g mask="url(#mask0_12_4974)">
<g opacity="0.75">
<path d="M489.779 36.7967L452.316 10.5561L452.303 10.5469C451.502 9.9863 450.884 9.55314 450.352 9.22837C449.815 8.89978 449.339 8.66517 448.816 8.51353C447.489 8.12834 445.997 8.12834 444.669 8.51354C444.147 8.66517 443.671 8.89978 443.134 9.22837C442.602 9.55313 441.984 9.98628 441.183 10.5468L441.17 10.5561L402.548 37.6084L402.535 37.6176C401.735 38.1782 401.116 38.6113 400.653 38.9836C400.184 39.3603 399.849 39.6934 399.632 40.0595C399.082 40.9894 399.082 42.0343 399.632 42.9642C399.849 43.3303 400.184 43.6633 400.653 44.0401C401.116 44.4124 401.735 44.8455 402.535 45.4061L402.548 45.4153L440.011 71.656L440.071 71.6979C441.186 72.4785 441.814 72.9186 442.544 73.214C443.518 73.6077 444.622 73.8149 445.746 73.8149C446.59 73.8149 447.448 73.6537 448.97 73.3679L449.052 73.3526L477.862 67.9441L477.944 67.9288C479.466 67.6431 480.324 67.482 481.055 67.1867C482.028 66.793 482.836 66.2269 483.398 65.5451C483.82 65.0335 484.05 64.4325 484.458 63.3664L484.48 63.3092L492.201 43.1292L492.223 43.072C492.631 42.0057 492.861 41.4046 492.861 40.8137C492.861 40.0263 492.565 39.2528 492.003 38.5709C491.581 38.0592 490.953 37.6192 489.839 36.8387L489.779 36.7967Z" fill="black" stroke="url(#paint0_linear_12_4974)" stroke-width="0.8505"/>
<path d="M566.111 90.2616L528.648 64.0209L528.635 64.0117C527.834 63.4511 527.216 63.018 526.684 62.6932C526.147 62.3646 525.671 62.13 525.149 61.9784C523.821 61.5932 522.329 61.5932 521.002 61.9784C520.479 62.13 520.003 62.3646 519.466 62.6932C518.934 63.018 518.316 63.4511 517.515 64.0117L517.502 64.0209L478.88 91.0732L478.867 91.0825C478.067 91.643 477.449 92.0761 476.985 92.4485C476.516 92.8252 476.181 93.1582 475.964 93.5243C475.414 94.4542 475.414 95.4991 475.964 96.4291C476.181 96.7951 476.516 97.1282 476.985 97.5049C477.449 97.8772 478.067 98.3104 478.867 98.8709L478.88 98.8802L516.343 125.121L516.403 125.163C517.518 125.943 518.146 126.383 518.876 126.679C519.85 127.073 520.954 127.28 522.078 127.28C522.922 127.28 523.78 127.119 525.302 126.833L525.384 126.817L554.194 121.409L554.276 121.394C555.798 121.108 556.656 120.947 557.387 120.652C558.36 120.258 559.168 119.692 559.73 119.01C560.152 118.498 560.382 117.897 560.79 116.831L560.812 116.774L568.533 96.594L568.555 96.5369C568.963 95.4706 569.193 94.8694 569.193 94.2786C569.193 93.4912 568.897 92.7177 568.335 92.0358C567.914 91.5241 567.285 91.084 566.171 90.3035L566.111 90.2616Z" fill="black" stroke="url(#paint1_linear_12_4974)" stroke-width="0.8505"/>
<path d="M420.881 85.0546L383.418 58.8139L383.405 58.8047C382.605 58.2441 381.986 57.811 381.455 57.4862C380.917 57.1576 380.442 56.923 379.919 56.7713C378.591 56.3862 377.1 56.3862 375.772 56.7713C375.249 56.923 374.774 57.1576 374.236 57.4862C373.704 57.8109 373.086 58.2441 372.286 58.8046L372.272 58.8139L333.651 85.8662L333.638 85.8754C332.837 86.436 332.219 86.8691 331.755 87.2414C331.286 87.6181 330.951 87.9512 330.735 88.3173C330.185 89.2472 330.185 90.2921 330.735 91.222C330.951 91.5881 331.286 91.9212 331.755 92.2979C332.219 92.6702 332.837 93.1033 333.638 93.6639L333.651 93.6731L371.114 119.914L371.174 119.956C372.288 120.736 372.916 121.176 373.647 121.472C374.62 121.866 375.725 122.073 376.849 122.073C377.692 122.073 378.55 121.912 380.073 121.626L380.154 121.61L408.965 116.202L409.046 116.187C410.568 115.901 411.427 115.74 412.157 115.444C413.13 115.051 413.939 114.485 414.501 113.803C414.922 113.291 415.152 112.69 415.56 111.624L415.582 111.567L423.303 91.387L423.325 91.3297C423.733 90.2635 423.963 89.6623 423.963 89.0715C423.964 88.2842 423.668 87.5106 423.106 86.8287C422.684 86.3171 422.056 85.877 420.941 85.0965L420.881 85.0546Z" fill="black" stroke="url(#paint2_linear_12_4974)" stroke-width="0.8505"/>
<path d="M497.214 138.521L459.751 112.281L459.738 112.271C458.938 111.711 458.319 111.278 457.788 110.953C457.25 110.624 456.775 110.39 456.252 110.238C454.924 109.853 453.433 109.853 452.105 110.238C451.582 110.39 451.107 110.624 450.569 110.953C450.037 111.278 449.419 111.711 448.619 112.271L448.606 112.281L409.984 139.333L409.971 139.342C409.17 139.903 408.552 140.336 408.088 140.708C407.619 141.085 407.284 141.418 407.068 141.784C406.518 142.714 406.518 143.759 407.068 144.689C407.284 145.055 407.619 145.388 408.088 145.765C408.552 146.137 409.17 146.57 409.971 147.131L409.984 147.14L447.447 173.381L447.507 173.423C448.621 174.203 449.249 174.643 449.98 174.939C450.953 175.332 452.058 175.54 453.182 175.54C454.025 175.539 454.884 175.378 456.406 175.093L456.487 175.077L485.298 169.669L485.38 169.653C486.901 169.368 487.76 169.207 488.49 168.911C489.463 168.518 490.272 167.951 490.834 167.27C491.255 166.758 491.485 166.157 491.893 165.091L491.915 165.034L499.636 144.854L499.658 144.797C500.066 143.73 500.296 143.129 500.297 142.538C500.297 141.751 500.001 140.977 499.439 140.296C499.017 139.784 498.389 139.344 497.274 138.563L497.214 138.521Z" fill="black" stroke="url(#paint3_linear_12_4974)" stroke-width="0.8505"/>
<path d="M431.055 187.446L393.592 161.205L393.579 161.196C392.779 160.636 392.16 160.203 391.629 159.878C391.091 159.549 390.615 159.315 390.093 159.163C388.765 158.778 387.273 158.778 385.946 159.163C385.423 159.315 384.948 159.549 384.41 159.878C383.878 160.203 383.26 160.636 382.46 161.196L382.446 161.205L343.825 188.258L343.811 188.267C343.011 188.828 342.393 189.261 341.929 189.633C341.46 190.01 341.125 190.343 340.909 190.709C340.359 191.639 340.359 192.684 340.909 193.614C341.125 193.98 341.46 194.313 341.929 194.689C342.393 195.062 343.011 195.495 343.811 196.055L343.825 196.065L381.288 222.305L381.347 222.347C382.462 223.128 383.09 223.568 383.821 223.863C384.794 224.257 385.898 224.464 387.023 224.464C387.866 224.464 388.724 224.303 390.247 224.017L390.328 224.002L419.139 218.594L419.22 218.578C420.742 218.293 421.6 218.131 422.331 217.836C423.304 217.442 424.112 216.876 424.674 216.195C425.096 215.683 425.326 215.082 425.734 214.016L425.756 213.959L433.477 193.779L433.499 193.721C433.907 192.655 434.137 192.054 434.137 191.463C434.137 190.676 433.842 189.902 433.279 189.22C432.858 188.709 432.229 188.269 431.115 187.488L431.055 187.446Z" fill="black" stroke="url(#paint4_linear_12_4974)" stroke-width="0.8505"/>
<path d="M555.904 -30.6165L518.441 -56.8571L518.428 -56.8663C517.628 -57.4269 517.009 -57.8601 516.478 -58.1848C515.94 -58.5134 515.464 -58.748 514.942 -58.8997C513.614 -59.2849 512.122 -59.2849 510.795 -58.8997C510.272 -58.748 509.797 -58.5134 509.259 -58.1848C508.727 -57.8601 508.109 -57.4269 507.309 -56.8664L507.295 -56.8571L468.674 -29.8049L468.66 -29.7956C467.86 -29.2351 467.242 -28.8019 466.778 -28.4296C466.309 -28.0529 465.974 -27.7198 465.758 -27.3537C465.208 -26.4238 465.208 -25.3789 465.758 -24.449C465.974 -24.0829 466.309 -23.7499 466.778 -23.3731C467.242 -23.0008 467.86 -22.5677 468.66 -22.0071L468.674 -21.9979L506.137 4.24279L506.196 4.28469C507.311 5.06529 507.939 5.5054 508.67 5.80081C509.643 6.19449 510.747 6.40172 511.871 6.40169C512.715 6.40166 513.573 6.24051 515.096 5.95469L515.177 5.93936L543.988 0.530895L544.069 0.515553C545.591 0.229894 546.449 0.0688304 547.18 -0.226547C548.153 -0.620195 548.961 -1.18634 549.523 -1.8681C549.945 -2.37968 550.175 -2.98074 550.583 -4.04679L550.605 -4.10404L558.326 -24.284L558.348 -24.3412C558.756 -25.4075 558.986 -26.0086 558.986 -26.5995C558.986 -27.3869 558.69 -28.1604 558.128 -28.8423C557.707 -29.354 557.078 -29.794 555.964 -30.5746L555.904 -30.6165Z" fill="black" stroke="url(#paint5_linear_12_4974)" stroke-width="0.8505"/>
</g>
<g opacity="0.75">
<path d="M407.042 -17.7384L369.579 -43.9791L369.565 -43.9883C368.765 -44.5489 368.147 -44.982 367.615 -45.3068C367.077 -45.6354 366.602 -45.87 366.079 -46.0216C364.752 -46.4068 363.26 -46.4068 361.932 -46.0216C361.41 -45.87 360.934 -45.6354 360.396 -45.3068C359.865 -44.982 359.246 -44.5489 358.446 -43.9883L358.433 -43.9791L319.811 -16.9268L319.798 -16.9175C318.998 -16.357 318.379 -15.9239 317.916 -15.5515C317.446 -15.1748 317.111 -14.8418 316.895 -14.4757C316.345 -13.5458 316.345 -12.5009 316.895 -11.5709C317.111 -11.2049 317.446 -10.8718 317.916 -10.4951C318.379 -10.1228 318.998 -9.68963 319.798 -9.12908L319.811 -9.11982L357.274 17.1208L357.334 17.1627C358.448 17.9433 359.077 18.3835 359.807 18.6789C360.781 19.0725 361.885 19.2798 363.009 19.2797C363.852 19.2797 364.711 19.1186 366.233 18.8327L366.315 18.8174L395.125 13.4089L395.207 13.3936C396.729 13.1079 397.587 12.9469 398.317 12.6515C399.291 12.2579 400.099 11.6917 400.661 11.0099C401.083 10.4984 401.312 9.89731 401.72 8.83126L401.742 8.77401L409.464 -11.406L409.486 -11.4631C409.894 -12.5294 410.124 -13.1306 410.124 -13.7214C410.124 -14.5088 409.828 -15.2823 409.266 -15.9642C408.844 -16.4759 408.216 -16.916 407.101 -17.6965L407.042 -17.7384Z" fill="black" stroke="url(#paint6_linear_12_4974)" stroke-width="0.8505"/>
<path d="M261.812 -22.9454L224.349 -49.1861L224.336 -49.1953C223.536 -49.7559 222.917 -50.189 222.386 -50.5138C221.848 -50.8424 221.372 -51.077 220.85 -51.2287C219.522 -51.6138 218.03 -51.6138 216.703 -51.2287C216.18 -51.077 215.704 -50.8424 215.167 -50.5138C214.635 -50.1891 214.017 -49.7559 213.216 -49.1954L213.203 -49.1861L174.582 -22.1338L174.568 -22.1246C173.768 -21.564 173.15 -21.1309 172.686 -20.7586C172.217 -20.3819 171.882 -20.0488 171.665 -19.6827C171.116 -18.7528 171.116 -17.7079 171.665 -16.778C171.882 -16.4119 172.217 -16.0788 172.686 -15.7021C173.15 -15.3298 173.768 -14.8967 174.568 -14.3361L174.582 -14.3269L212.045 11.9138L212.104 11.9557C213.219 12.7363 213.847 13.1764 214.577 13.4718C215.551 13.8655 216.655 14.0727 217.779 14.0727C218.623 14.0727 219.481 13.9115 221.004 13.6257L221.085 13.6104L249.896 8.20192L249.977 8.18657C251.499 7.90091 252.357 7.73985 253.088 7.44447C254.061 7.05083 254.869 6.48468 255.431 5.80292C255.853 5.29134 256.083 4.69028 256.491 3.62423L256.513 3.56698L264.234 -16.613L264.256 -16.6703C264.664 -17.7365 264.894 -18.3377 264.894 -18.9285C264.894 -19.7158 264.598 -20.4894 264.036 -21.1713C263.615 -21.6829 262.986 -22.123 261.872 -22.9035L261.812 -22.9454Z" fill="black" stroke="url(#paint7_linear_12_4974)" stroke-width="0.8505"/>
<path d="M338.145 30.5214L300.682 4.28069L300.669 4.27148C299.868 3.71091 299.25 3.27775 298.718 2.95298C298.181 2.62439 297.705 2.38977 297.183 2.23814C295.855 1.85295 294.363 1.85295 293.036 2.23814C292.513 2.38978 292.037 2.62439 291.5 2.95298C290.968 3.27774 290.35 3.71089 289.549 4.27143L289.536 4.28069L250.914 31.333L250.901 31.3422C250.101 31.9028 249.483 32.3359 249.019 32.7082C248.55 33.0849 248.215 33.418 247.998 33.7841C247.448 34.714 247.448 35.7589 247.998 36.6888C248.215 37.0549 248.55 37.388 249.019 37.7647C249.483 38.137 250.101 38.5701 250.901 39.1307L250.914 39.1399L288.377 65.3806L288.437 65.4225C289.552 66.2031 290.18 66.6432 290.91 66.9386C291.884 67.3323 292.988 67.5395 294.112 67.5395C294.956 67.5395 295.814 67.3783 297.336 67.0925L297.418 67.0772L326.228 61.6687L326.31 61.6534C327.832 61.3677 328.69 61.2066 329.421 60.9113C330.394 60.5176 331.202 59.9515 331.764 59.2697C332.186 58.7581 332.416 58.1571 332.824 57.091L332.846 57.0338L340.567 36.8538L340.589 36.7966C340.997 35.7303 341.227 35.1292 341.227 34.5383C341.227 33.7509 340.931 32.9774 340.369 32.2955C339.948 31.7839 339.319 31.3438 338.205 30.5633L338.145 30.5214Z" fill="black" stroke="url(#paint8_linear_12_4974)" stroke-width="0.8505"/>
<path d="M271.986 79.4462L234.523 53.2055L234.51 53.1963C233.709 52.6357 233.091 52.2026 232.559 51.8778C232.021 51.5492 231.546 51.3146 231.023 51.1629C229.696 50.7778 228.204 50.7778 226.876 51.1629C226.354 51.3146 225.878 51.5492 225.34 51.8778C224.809 52.2025 224.19 52.6357 223.39 53.1962L223.377 53.2055L184.755 80.2578L184.742 80.267C183.942 80.8276 183.323 81.2607 182.86 81.633C182.391 82.0097 182.056 82.3428 181.839 82.7089C181.289 83.6388 181.289 84.6837 181.839 85.6136C182.056 85.9797 182.391 86.3128 182.86 86.6895C183.323 87.0618 183.942 87.4949 184.742 88.0555L184.755 88.0648L222.218 114.305L222.278 114.347C223.392 115.128 224.021 115.568 224.751 115.863C225.725 116.257 226.829 116.464 227.953 116.464C228.797 116.464 229.655 116.303 231.177 116.017L231.259 116.002L260.069 110.594L260.151 110.578C261.673 110.293 262.531 110.131 263.261 109.836C264.235 109.442 265.043 108.876 265.605 108.195C266.027 107.683 266.257 107.082 266.664 106.016L266.686 105.959L274.408 85.7786L274.43 85.7214C274.838 84.6552 275.068 84.054 275.068 83.4631C275.068 82.6758 274.772 81.9022 274.21 81.2203C273.788 80.7087 273.16 80.2686 272.046 79.4881L271.986 79.4462Z" fill="black" stroke="url(#paint9_linear_12_4974)" stroke-width="0.8505"/>
<path d="M348.319 132.912L310.856 106.671L310.842 106.662C310.042 106.102 309.424 105.668 308.892 105.344C308.354 105.015 307.879 104.78 307.356 104.629C306.029 104.244 304.537 104.244 303.209 104.629C302.687 104.78 302.211 105.015 301.673 105.344C301.142 105.668 300.523 106.102 299.723 106.662L299.71 106.671L261.088 133.724L261.075 133.733C260.275 134.293 259.656 134.727 259.193 135.099C258.723 135.476 258.389 135.809 258.172 136.175C257.622 137.105 257.622 138.15 258.172 139.079C258.389 139.446 258.723 139.779 259.193 140.155C259.656 140.528 260.275 140.961 261.075 141.521L261.088 141.531L298.551 167.771L298.611 167.813C299.725 168.594 300.354 169.034 301.084 169.329C302.058 169.723 303.162 169.93 304.286 169.93C305.13 169.93 305.988 169.769 307.51 169.483L307.592 169.468L336.402 164.059L336.484 164.044C338.006 163.758 338.864 163.597 339.594 163.302C340.568 162.908 341.376 162.342 341.938 161.66C342.36 161.149 342.59 160.548 342.997 159.482L343.019 159.424L350.741 139.244L350.763 139.187C351.171 138.121 351.401 137.52 351.401 136.929C351.401 136.142 351.105 135.368 350.543 134.686C350.121 134.174 349.493 133.734 348.378 132.954L348.319 132.912Z" fill="black" stroke="url(#paint10_linear_12_4974)" stroke-width="0.8505"/>
<path d="M203.089 127.705L165.626 101.464L165.613 101.455C164.813 100.895 164.194 100.461 163.663 100.137C163.125 99.808 162.649 99.5734 162.127 99.4217C160.799 99.0365 159.307 99.0365 157.98 99.4217C157.457 99.5734 156.982 99.808 156.444 100.137C155.912 100.461 155.294 100.894 154.494 101.455L154.48 101.464L115.859 128.517L115.845 128.526C115.045 129.086 114.427 129.52 113.963 129.892C113.494 130.269 113.159 130.602 112.943 130.968C112.393 131.898 112.393 132.942 112.943 133.872C113.159 134.238 113.494 134.572 113.963 134.948C114.427 135.321 115.045 135.754 115.845 136.314L115.859 136.324L153.322 162.564L153.381 162.606C154.496 163.387 155.124 163.827 155.855 164.122C156.828 164.516 157.932 164.723 159.057 164.723C159.9 164.723 160.758 164.562 162.281 164.276L162.362 164.261L191.173 158.852L191.254 158.837C192.776 158.551 193.634 158.39 194.365 158.095C195.338 157.701 196.146 157.135 196.708 156.453C197.13 155.942 197.36 155.341 197.768 154.275L197.79 154.217L205.511 134.037L205.533 133.98C205.941 132.914 206.171 132.313 206.171 131.722C206.171 130.935 205.875 130.161 205.313 129.479C204.892 128.967 204.263 128.527 203.149 127.747L203.089 127.705Z" fill="black" stroke="url(#paint11_linear_12_4974)" stroke-width="0.8505"/>
<path d="M279.421 181.173L241.958 154.932L241.945 154.923C241.145 154.362 240.526 153.929 239.995 153.604C239.457 153.276 238.981 153.041 238.459 152.89C237.131 152.504 235.639 152.504 234.312 152.89C233.789 153.041 233.314 153.276 232.776 153.604C232.244 153.929 231.626 154.362 230.826 154.923L230.812 154.932L192.191 181.984L192.177 181.994C191.377 182.554 190.759 182.987 190.295 183.36C189.826 183.736 189.491 184.069 189.275 184.435C188.725 185.365 188.725 186.41 189.275 187.34C189.491 187.706 189.826 188.039 190.295 188.416C190.759 188.788 191.377 189.222 192.177 189.782L192.191 189.791L229.654 216.032L229.713 216.074C230.828 216.854 231.456 217.295 232.187 217.59C233.16 217.984 234.264 218.191 235.389 218.191C236.232 218.191 237.09 218.03 238.613 217.744L238.694 217.729L267.505 212.32L267.586 212.305C269.108 212.019 269.966 211.858 270.697 211.563C271.67 211.169 272.478 210.603 273.04 209.921C273.462 209.41 273.692 208.808 274.1 207.742L274.122 207.685L281.843 187.505L281.865 187.448C282.273 186.382 282.503 185.781 282.503 185.19C282.503 184.402 282.208 183.629 281.645 182.947C281.224 182.435 280.595 181.995 279.481 181.215L279.421 181.173Z" fill="black" stroke="url(#paint12_linear_12_4974)" stroke-width="0.8505"/>
</g>
<g filter="url(#filter0_b_12_4974)">
<path d="M160.021 99.5L205.351 130.5L195.049 157.5L157.96 164.5L112.217 132L160.021 99.5Z" fill="url(#paint13_linear_12_4974)"/>
<path d="M160.021 99.5L205.351 130.5L195.049 157.5L157.96 164.5L112.217 132L160.021 99.5Z" fill="url(#paint14_diamond_12_4974)" fill-opacity="0.2"/>
</g>
<g filter="url(#filter1_b_12_4974)">
<path d="M225.121 53.6205C227.373 52.0896 230.955 52.0933 233.201 53.6287L272.073 80.2123C273.571 81.2363 274.163 82.7466 273.623 84.1629L265.058 106.609C264.524 108.008 262.966 109.102 260.969 109.479L230.367 115.255C228.352 115.635 226.201 115.227 224.736 114.186L185.462 86.2821C183.204 84.6777 183.244 82.0918 185.552 80.5226L225.121 53.6205Z" fill="url(#paint15_linear_12_4974)"/>
<path d="M225.121 53.6205C227.373 52.0896 230.955 52.0933 233.201 53.6287L272.073 80.2123C273.571 81.2363 274.163 82.7466 273.623 84.1629L265.058 106.609C264.524 108.008 262.966 109.102 260.969 109.479L230.367 115.255C228.352 115.635 226.201 115.227 224.736 114.186L185.462 86.2821C183.204 84.6777 183.244 82.0918 185.552 80.5226L225.121 53.6205Z" fill="url(#paint16_diamond_12_4974)" fill-opacity="0.1"/>
</g>
<g filter="url(#filter2_b_12_4974)">
<path d="M383.367 162.62C385.618 161.09 389.201 161.093 391.446 162.629L430.318 189.212C431.816 190.236 432.408 191.747 431.868 193.163L423.303 215.609C422.769 217.008 421.211 218.102 419.214 218.479L388.612 224.255C386.597 224.635 384.446 224.227 382.981 223.186L343.707 195.282C341.449 193.678 341.489 191.092 343.797 189.523L383.367 162.62Z" fill="url(#paint17_linear_12_4974)"/>
<path d="M383.367 162.62C385.618 161.09 389.201 161.093 391.446 162.629L430.318 189.212C431.816 190.236 432.408 191.747 431.868 193.163L423.303 215.609C422.769 217.008 421.211 218.102 419.214 218.479L388.612 224.255C386.597 224.635 384.446 224.227 382.981 223.186L343.707 195.282C341.449 193.678 341.489 191.092 343.797 189.523L383.367 162.62Z" fill="url(#paint18_diamond_12_4974)" fill-opacity="0.1"/>
</g>
<g filter="url(#filter3_b_12_4974)">
<path d="M442.709 10.6205C444.96 9.08964 448.543 9.09331 450.788 10.6287L489.66 37.2123C491.158 38.2363 491.75 39.7466 491.21 41.1629L482.645 63.6093C482.111 65.0085 480.553 66.1022 478.556 66.4789L447.954 72.255C445.939 72.6353 443.788 72.227 442.323 71.1861L403.049 43.2821C400.791 41.6777 400.831 39.0918 403.139 37.5226L442.709 10.6205Z" fill="url(#paint19_linear_12_4974)"/>
<path d="M442.709 10.6205C444.96 9.08964 448.543 9.09331 450.788 10.6287L489.66 37.2123C491.158 38.2363 491.75 39.7466 491.21 41.1629L482.645 63.6093C482.111 65.0085 480.553 66.1022 478.556 66.4789L447.954 72.255C445.939 72.6353 443.788 72.227 442.323 71.1861L403.049 43.2821C400.791 41.6777 400.831 39.0918 403.139 37.5226L442.709 10.6205Z" fill="url(#paint20_diamond_12_4974)" fill-opacity="0.1"/>
</g>
<g filter="url(#filter4_b_12_4974)">
<path d="M378.346 56.8701L423.676 87.8701L413.374 114.87L376.285 121.87L330.543 89.3704L378.346 56.8701Z" fill="url(#paint21_linear_12_4974)"/>
<path d="M378.346 56.8701L423.676 87.8701L413.374 114.87L376.285 121.87L330.543 89.3704L378.346 56.8701Z" fill="url(#paint22_diamond_12_4974)" fill-opacity="0.2"/>
</g>
<g filter="url(#filter5_b_12_4974)">
<path d="M220.101 -53.1299L265.431 -22.1299L255.129 4.87011L218.04 11.8704L172.297 -20.6296L220.101 -53.1299Z" fill="url(#paint23_linear_12_4974)"/>
<path d="M220.101 -53.1299L265.431 -22.1299L255.129 4.87011L218.04 11.8704L172.297 -20.6296L220.101 -53.1299Z" fill="url(#paint24_diamond_12_4974)" fill-opacity="0.2"/>
</g>
</g>
<defs>
<filter id="filter0_b_12_4974" x="108.681" y="95.9638" width="100.206" height="72.0727" filterUnits="userSpaceOnUse" color-interpolation-filters="sRGB">
<feFlood flood-opacity="0" result="BackgroundImageFix"/>
<feGaussianBlur in="BackgroundImageFix" stdDeviation="1.7681"/>
<feComposite in2="SourceAlpha" operator="in" result="effect1_backgroundBlur_12_4974"/>
<feBlend mode="normal" in="SourceGraphic" in2="effect1_backgroundBlur_12_4974" result="shape"/>
</filter>
<filter id="filter1_b_12_4974" x="170.614" y="39.294" width="116.386" height="89.2816" filterUnits="userSpaceOnUse" color-interpolation-filters="sRGB">
<feFlood flood-opacity="0" result="BackgroundImageFix"/>
<feGaussianBlur in="BackgroundImageFix" stdDeviation="6.59036"/>
<feComposite in2="SourceAlpha" operator="in" result="effect1_backgroundBlur_12_4974"/>
<feBlend mode="normal" in="SourceGraphic" in2="effect1_backgroundBlur_12_4974" result="shape"/>
</filter>
<filter id="filter2_b_12_4974" x="328.859" y="148.294" width="116.386" height="89.2816" filterUnits="userSpaceOnUse" color-interpolation-filters="sRGB">
<feFlood flood-opacity="0" result="BackgroundImageFix"/>
<feGaussianBlur in="BackgroundImageFix" stdDeviation="6.59036"/>
<feComposite in2="SourceAlpha" operator="in" result="effect1_backgroundBlur_12_4974"/>
<feBlend mode="normal" in="SourceGraphic" in2="effect1_backgroundBlur_12_4974" result="shape"/>
</filter>
<filter id="filter3_b_12_4974" x="388.201" y="-3.706" width="116.386" height="89.2816" filterUnits="userSpaceOnUse" color-interpolation-filters="sRGB">
<feFlood flood-opacity="0" result="BackgroundImageFix"/>
<feGaussianBlur in="BackgroundImageFix" stdDeviation="6.59036"/>
<feComposite in2="SourceAlpha" operator="in" result="effect1_backgroundBlur_12_4974"/>
<feBlend mode="normal" in="SourceGraphic" in2="effect1_backgroundBlur_12_4974" result="shape"/>
</filter>
<filter id="filter4_b_12_4974" x="327.006" y="53.3339" width="100.206" height="72.0727" filterUnits="userSpaceOnUse" color-interpolation-filters="sRGB">
<feFlood flood-opacity="0" result="BackgroundImageFix"/>
<feGaussianBlur in="BackgroundImageFix" stdDeviation="1.7681"/>
<feComposite in2="SourceAlpha" operator="in" result="effect1_backgroundBlur_12_4974"/>
<feBlend mode="normal" in="SourceGraphic" in2="effect1_backgroundBlur_12_4974" result="shape"/>
</filter>
<filter id="filter5_b_12_4974" x="168.761" y="-56.6661" width="100.206" height="72.0727" filterUnits="userSpaceOnUse" color-interpolation-filters="sRGB">
<feFlood flood-opacity="0" result="BackgroundImageFix"/>
<feGaussianBlur in="BackgroundImageFix" stdDeviation="1.7681"/>
<feComposite in2="SourceAlpha" operator="in" result="effect1_backgroundBlur_12_4974"/>
<feBlend mode="normal" in="SourceGraphic" in2="effect1_backgroundBlur_12_4974" result="shape"/>
</filter>
<linearGradient id="paint0_linear_12_4974" x1="427.908" y1="62.6901" x2="460.21" y2="16.5733" gradientUnits="userSpaceOnUse">
<stop stop-color="#FFE58C"/>
<stop offset="1" stop-color="#F26B63"/>
</linearGradient>
<linearGradient id="paint1_linear_12_4974" x1="504.24" y1="116.155" x2="536.542" y2="70.0381" gradientUnits="userSpaceOnUse">
<stop stop-color="#FFB2B8"/>
<stop offset="1" stop-color="#C74FB8"/>
</linearGradient>
<linearGradient id="paint2_linear_12_4974" x1="359.01" y1="110.948" x2="391.312" y2="64.8311" gradientUnits="userSpaceOnUse">
<stop stop-color="#8CDEFF"/>
<stop offset="1" stop-color="#8763D9"/>
</linearGradient>
<linearGradient id="paint3_linear_12_4974" x1="435.343" y1="164.415" x2="467.645" y2="118.298" gradientUnits="userSpaceOnUse">
<stop stop-color="#FFB2B8"/>
<stop offset="1" stop-color="#C74FB8"/>
</linearGradient>
<linearGradient id="paint4_linear_12_4974" x1="369.184" y1="213.34" x2="401.486" y2="167.223" gradientUnits="userSpaceOnUse">
<stop stop-color="#FFE58C"/>
<stop offset="1" stop-color="#F26B63"/>
</linearGradient>
<linearGradient id="paint5_linear_12_4974" x1="494.033" y1="-4.72309" x2="526.335" y2="-50.8399" gradientUnits="userSpaceOnUse">
<stop stop-color="#FFB2B8"/>
<stop offset="1" stop-color="#C74FB8"/>
</linearGradient>
<linearGradient id="paint6_linear_12_4974" x1="345.17" y1="8.15497" x2="377.473" y2="-37.9619" gradientUnits="userSpaceOnUse">
<stop stop-color="#FFB2B8"/>
<stop offset="1" stop-color="#C74FB8"/>
</linearGradient>
<linearGradient id="paint7_linear_12_4974" x1="199.941" y1="2.94794" x2="232.243" y2="-43.1689" gradientUnits="userSpaceOnUse">
<stop stop-color="#8CDEFF"/>
<stop offset="1" stop-color="#8763D9"/>
</linearGradient>
<linearGradient id="paint8_linear_12_4974" x1="276.274" y1="56.4147" x2="308.576" y2="10.2979" gradientUnits="userSpaceOnUse">
<stop stop-color="#FFB2B8"/>
<stop offset="1" stop-color="#C74FB8"/>
</linearGradient>
<linearGradient id="paint9_linear_12_4974" x1="210.115" y1="105.34" x2="242.417" y2="59.2227" gradientUnits="userSpaceOnUse">
<stop stop-color="#FFE58C"/>
<stop offset="1" stop-color="#F26B63"/>
</linearGradient>
<linearGradient id="paint10_linear_12_4974" x1="286.447" y1="158.805" x2="318.75" y2="112.689" gradientUnits="userSpaceOnUse">
<stop stop-color="#FFB2B8"/>
<stop offset="1" stop-color="#C74FB8"/>
</linearGradient>
<linearGradient id="paint11_linear_12_4974" x1="141.218" y1="153.598" x2="173.52" y2="107.482" gradientUnits="userSpaceOnUse">
<stop stop-color="#8CDEFF"/>
<stop offset="1" stop-color="#8763D9"/>
</linearGradient>
<linearGradient id="paint12_linear_12_4974" x1="217.55" y1="207.066" x2="249.852" y2="160.949" gradientUnits="userSpaceOnUse">
<stop stop-color="#FFB2B8"/>
<stop offset="1" stop-color="#C74FB8"/>
</linearGradient>
<linearGradient id="paint13_linear_12_4974" x1="173.164" y1="176.192" x2="179.833" y2="121.23" gradientUnits="userSpaceOnUse">
<stop stop-color="#1C1C1C"/>
<stop offset="1" stop-opacity="0"/>
</linearGradient>
<radialGradient id="paint14_diamond_12_4974" cx="0" cy="0" r="1" gradientUnits="userSpaceOnUse" gradientTransform="translate(175.365 185.095) rotate(-103.873) scale(116.155 197.055)">
<stop stop-color="#07ABF1" stop-opacity="0.72"/>
<stop offset="0.419297" stop-color="#5E14D8" stop-opacity="0.69"/>
<stop offset="1" stop-color="#000637" stop-opacity="0"/>
</radialGradient>
<linearGradient id="paint15_linear_12_4974" x1="231.267" y1="118.725" x2="231.969" y2="75.8408" gradientUnits="userSpaceOnUse">
<stop stop-color="#1C1C1C"/>
<stop offset="1" stop-opacity="0"/>
</linearGradient>
<radialGradient id="paint16_diamond_12_4974" cx="0" cy="0" r="1" gradientUnits="userSpaceOnUse" gradientTransform="translate(239.619 125.276) rotate(-91.9121) scale(91.1055 168.765)">
<stop stop-color="#FFEC6A"/>
<stop offset="0.338918" stop-color="#FF4E54" stop-opacity="0.54"/>
<stop offset="1" stop-color="#000637" stop-opacity="0"/>
</radialGradient>
<linearGradient id="paint17_linear_12_4974" x1="389.512" y1="227.725" x2="390.214" y2="184.841" gradientUnits="userSpaceOnUse">
<stop stop-color="#1C1C1C"/>
<stop offset="1" stop-opacity="0"/>
</linearGradient>
<radialGradient id="paint18_diamond_12_4974" cx="0" cy="0" r="1" gradientUnits="userSpaceOnUse" gradientTransform="translate(397.864 234.276) rotate(-91.9121) scale(91.1055 168.765)">
<stop stop-color="#FFEC6A"/>
<stop offset="0.338918" stop-color="#FF4E54" stop-opacity="0.54"/>
<stop offset="1" stop-color="#000637" stop-opacity="0"/>
</radialGradient>
<linearGradient id="paint19_linear_12_4974" x1="448.854" y1="75.7247" x2="449.556" y2="32.8408" gradientUnits="userSpaceOnUse">
<stop stop-color="#1C1C1C"/>
<stop offset="1" stop-opacity="0"/>
</linearGradient>
<radialGradient id="paint20_diamond_12_4974" cx="0" cy="0" r="1" gradientUnits="userSpaceOnUse" gradientTransform="translate(457.206 82.2765) rotate(-91.9121) scale(91.1055 168.765)">
<stop stop-color="#FFEC6A"/>
<stop offset="0.338918" stop-color="#FF4E54" stop-opacity="0.54"/>
<stop offset="1" stop-color="#000637" stop-opacity="0"/>
</radialGradient>
<linearGradient id="paint21_linear_12_4974" x1="391.489" y1="133.562" x2="398.159" y2="78.6001" gradientUnits="userSpaceOnUse">
<stop stop-color="#1C1C1C"/>
<stop offset="1" stop-opacity="0"/>
</linearGradient>
<radialGradient id="paint22_diamond_12_4974" cx="0" cy="0" r="1" gradientUnits="userSpaceOnUse" gradientTransform="translate(393.691 142.465) rotate(-103.873) scale(116.155 197.055)">
<stop stop-color="#07ABF1" stop-opacity="0.72"/>
<stop offset="0.419297" stop-color="#5E14D8" stop-opacity="0.69"/>
<stop offset="1" stop-color="#000637" stop-opacity="0"/>
</radialGradient>
<linearGradient id="paint23_linear_12_4974" x1="233.244" y1="23.5619" x2="239.913" y2="-31.3999" gradientUnits="userSpaceOnUse">
<stop stop-color="#1C1C1C"/>
<stop offset="1" stop-opacity="0"/>
</linearGradient>
<radialGradient id="paint24_diamond_12_4974" cx="0" cy="0" r="1" gradientUnits="userSpaceOnUse" gradientTransform="translate(235.445 32.4647) rotate(-103.873) scale(116.155 197.055)">
<stop stop-color="#07ABF1" stop-opacity="0.72"/>
<stop offset="0.419297" stop-color="#5E14D8" stop-opacity="0.69"/>
<stop offset="1" stop-color="#000637" stop-opacity="0"/>
</radialGradient>
</defs>
</svg>
