<svg xmlns="http://www.w3.org/2000/svg" width="411" height="539" fill="none"><mask id="a" width="411" height="539" x="0" y="0" maskUnits="userSpaceOnUse" style="mask-type:luminance"><path fill="#fff" d="M410.771.176H0V539h410.771V.176Z"/></mask><g mask="url(#a)"><path fill="#ACADAF" d="M348.333 100.843a.744.744 0 0 1 .684.457.735.735 0 0 1-.16.806.745.745 0 0 1-.807.161.738.738 0 0 1-.457-.684.74.74 0 0 1 .74-.74Zm0 30.167a.736.736 0 0 1 .684.457.735.735 0 0 1-.16.806.745.745 0 0 1-.807.161.738.738 0 0 1-.457-.684.74.74 0 0 1 .74-.74Zm0-10.055a.743.743 0 0 1 .684.456.738.738 0 0 1-.539 1.009.737.737 0 0 1-.76-.314.745.745 0 0 1 .092-.935.743.743 0 0 1 .523-.216Zm0-10.056a.736.736 0 0 1 .684.457.735.735 0 0 1-.16.806.745.745 0 0 1-.807.161.738.738 0 0 1-.457-.684.74.74 0 0 1 .74-.74Zm0-110.611a.741.741 0 1 1 0 1.482.741.741 0 0 1 0-1.482Zm0 10.055a.741.741 0 1 1 0 1.483.741.741 0 0 1 0-1.483Zm0 10.056a.741.741 0 1 1 0 1.482.741.741 0 0 1 0-1.482Zm0 10.056a.74.74 0 1 1 0 1.48.74.74 0 0 1 0-1.48Zm0 40.222a.741.741 0 1 1 0 1.482.741.741 0 0 1 0-1.482Zm0 20.11a.742.742 0 0 1 .726.885.739.739 0 1 1-.726-.884Zm0-30.166a.74.74 0 1 1 0 1.48.74.74 0 0 1 0-1.48Zm0 20.111a.74.74 0 1 1 0 1.481.74.74 0 0 1 0-1.48Zm0-30.167a.741.741 0 1 1 0 1.483.741.741 0 0 1 0-1.483Zm0-10.055a.741.741 0 1 1-.283 1.424.74.74 0 0 1 .283-1.424Zm17.416-30.167a.741.741 0 0 1 .145 1.466.738.738 0 0 1-.884-.726.742.742 0 0 1 .739-.74Zm-8.708 105.584a.737.737 0 0 1 .684.457.735.735 0 0 1-.161.806.738.738 0 0 1-1.263-.523.731.731 0 0 1 .217-.524.748.748 0 0 1 .523-.216Zm0 10.055a.745.745 0 0 1 .684.457.737.737 0 0 1-.161.807.744.744 0 0 1-.806.16.738.738 0 0 1-.4-.967.75.75 0 0 1 .683-.457Zm0 10.056a.737.737 0 0 1 .684.457.735.735 0 0 1-.161.806.738.738 0 0 1-1.263-.523.736.736 0 0 1 .74-.74ZM365.749.288a.742.742 0 0 1 .727.884.74.74 0 1 1-.727-.884Zm0 40.222a.742.742 0 0 1 .727.884.74.74 0 1 1-.727-.884Zm0 10.055a.742.742 0 0 1 .727.885.74.74 0 1 1-.727-.885Zm0-30.166a.742.742 0 0 1 .727.884.74.74 0 1 1-.727-.884Zm0 10.056a.741.741 0 1 1 .001 1.482.741.741 0 0 1-.001-1.482Zm-8.708 45.25a.742.742 0 0 1 .726.884.74.74 0 1 1-.726-.884Zm0-50.278a.741.741 0 0 1 .726.884.74.74 0 1 1-.726-.884Zm0 80.444a.745.745 0 0 1 .684.457.737.737 0 0 1-.161.806.738.738 0 0 1-1.263-.523c0-.097.019-.193.057-.283a.735.735 0 0 1 .683-.457Zm0-90.5a.742.742 0 0 1 .726.885.74.74 0 1 1-.726-.885Zm0 30.167a.741.741 0 0 1 .726.884.74.74 0 1 1-.726-.884Zm0-40.223a.742.742 0 0 1 .684.457.736.736 0 0 1-.16.807.745.745 0 0 1-.807.16.738.738 0 0 1-.24-1.207.74.74 0 0 1 .523-.217Zm0 30.167a.742.742 0 0 1 .726.885.74.74 0 1 1-.726-.885Zm0 50.278a.743.743 0 0 1 .684.457.736.736 0 0 1-.161.806.738.738 0 0 1-1.138-.112.743.743 0 0 1 .092-.934.74.74 0 0 1 .523-.217Zm0 10.055a.743.743 0 0 1 .684.457.738.738 0 0 1-.539 1.009.737.737 0 0 1-.76-.314.744.744 0 0 1 .092-.935.742.742 0 0 1 .523-.217Zm0-40.222a.742.742 0 0 1 .726.885.74.74 0 1 1-.726-.885Zm0 10.056a.742.742 0 0 1 .726.884.74.74 0 1 1-.726-.884Zm-26.125 55.306c.147 0 .29.043.412.124a.745.745 0 0 1 .314.76.737.737 0 0 1-.582.581.735.735 0 0 1-.759-.314.745.745 0 0 1 .092-.935.732.732 0 0 1 .523-.216Zm-8.708-15.084a.736.736 0 0 1 .684.457.735.735 0 0 1-.16.806.745.745 0 0 1-.807.161.738.738 0 0 1-.457-.684.74.74 0 0 1 .74-.74Zm0 10.056a.743.743 0 0 1 .684.456.738.738 0 0 1-.16.807.752.752 0 0 1-.379.203.746.746 0 0 1-.76-.315.738.738 0 0 1 .615-1.151ZM330.916.287a.742.742 0 0 1 .684.458.736.736 0 0 1-.161.806.738.738 0 0 1-1.138-.112.743.743 0 0 1 .092-.935.74.74 0 0 1 .523-.216Zm0 40.223a.743.743 0 0 1 .684.457.736.736 0 0 1-.161.806.738.738 0 0 1-1.138-.112.743.743 0 0 1 .092-.934.74.74 0 0 1 .523-.217Zm0 10.055a.743.743 0 0 1 .684.457.736.736 0 0 1-.16.807.745.745 0 0 1-.807.16.739.739 0 0 1 .283-1.424Zm0-40.222a.742.742 0 0 1 .726.885.74.74 0 1 1-.726-.885Zm0 20.112a.742.742 0 0 1 .726.884.74.74 0 1 1-.726-.884Zm-8.708-5.028a.741.741 0 1 1 0 1.482.741.741 0 0 1 0-1.482Zm0 70.388a.741.741 0 0 1 .145 1.466.738.738 0 0 1-.885-.725.74.74 0 0 1 .74-.74Zm0-80.444a.741.741 0 1 1-.283 1.424.74.74 0 0 1 .283-1.424Zm8.708 45.25a.742.742 0 0 1 .726.885.74.74 0 1 1-.726-.885Zm34.833 0a.741.741 0 0 1 .145 1.466.739.739 0 1 1-.145-1.466Zm-43.541-25.139a.74.74 0 1 1 0 1.481.74.74 0 0 1 0-1.48Zm0 50.278a.741.741 0 1 1 0 1.482.741.741 0 0 1 0-1.482Zm0-10.055a.74.74 0 1 1 0 1.48.74.74 0 0 1 0-1.48Zm0-20.112a.74.74 0 1 1 0 1.481.74.74 0 0 1 0-1.48Zm0 10.056a.741.741 0 1 1 0 1.482.741.741 0 0 1 0-1.482Zm0-20.111a.741.741 0 1 1 0 1.482.741.741 0 0 1 0-1.482Zm0-40.223a.741.741 0 1 1 0 1.482.741.741 0 0 1 0-1.482Zm17.417 50.278a.741.741 0 0 1 .523 1.264.74.74 0 1 1-.523-1.264Zm0 10.056a.742.742 0 0 1 .523 1.263.74.74 0 1 1-.523-1.263Zm0-20.111a.74.74 0 1 1 0 1.481.74.74 0 0 1 0-1.481Zm0-10.056a.741.741 0 0 1 .523 1.263.74.74 0 1 1-.523-1.263Zm0-10.055a.74.74 0 1 1 0 1.481.74.74 0 0 1 0-1.481Zm0 50.278a.741.741 0 0 1 .523 1.263.744.744 0 0 1-.807.16.745.745 0 0 1-.456-.684.743.743 0 0 1 .457-.683.74.74 0 0 1 .283-.056Zm0 50.277a.744.744 0 0 1 .684.457c.055.135.07.284.042.428a.747.747 0 0 1-1.009.539.74.74 0 0 1 .283-1.424Zm0-10.055a.736.736 0 0 1 .684.457.744.744 0 0 1-.54 1.009.743.743 0 0 1-.884-.726.74.74 0 0 1 .74-.74Zm0-20.112a.742.742 0 0 1 .726.885.745.745 0 0 1-.582.581.735.735 0 0 1-.759-.314.736.736 0 0 1 .092-.935.74.74 0 0 1 .523-.217Zm0-10.055a.742.742 0 0 1 .726.884.748.748 0 0 1-.582.582.739.739 0 1 1-.144-1.466Zm0 20.111a.744.744 0 0 1 .684.457.745.745 0 0 1-.54 1.009.743.743 0 0 1-.76-.315.74.74 0 0 1 .616-1.151Zm-8.708-25.139a.741.741 0 0 1 .725.885.74.74 0 1 1-.725-.885Zm0 20.111a.744.744 0 0 1 .683.457.737.737 0 0 1-.161.807.736.736 0 0 1-.806.16.738.738 0 0 1-.4-.967.732.732 0 0 1 .4-.401.745.745 0 0 1 .284-.056Zm0 10.056a.736.736 0 0 1 .683.457.735.735 0 0 1-.161.806.738.738 0 0 1-1.263-.523c0-.097.019-.194.057-.283a.735.735 0 0 1 .684-.457Zm8.708-95.528a.741.741 0 0 1 .523 1.263.74.74 0 1 1-.523-1.263Zm-8.709 75.417a.741.741 0 0 1 .726.884.74.74 0 1 1-.726-.884Zm0-20.111a.741.741 0 0 1 .726.884.74.74 0 1 1-.726-.884Zm8.709-65.362a.742.742 0 0 1 .523 1.264.737.737 0 0 1-.806.16.735.735 0 0 1-.24-1.207.739.739 0 0 1 .523-.217ZM330.916 20.4a.742.742 0 0 1 .726.884.74.74 0 1 1-.726-.884Zm60.958 15.083a.741.741 0 0 1 .145 1.466.738.738 0 0 1-.884-.726.742.742 0 0 1 .739-.74Zm8.709 65.361a.744.744 0 0 1 .683.457.746.746 0 0 1 .043.428.74.74 0 1 1-.726-.885Zm0-70.388a.741.741 0 0 1 .523 1.263.744.744 0 0 1-.807.16.745.745 0 0 1-.456-.684.739.739 0 0 1 .74-.74Zm0-30.167a.742.742 0 0 1 .523 1.263.74.74 0 1 1-.523-1.263Zm0 40.222a.742.742 0 0 1 .726.884.748.748 0 0 1-.582.582.739.739 0 1 1-.144-1.466Zm0 10.055a.742.742 0 0 1 .726.885.748.748 0 0 1-.582.581.739.739 0 1 1-.144-1.466Zm0 30.167a.741.741 0 0 1 .523 1.263.74.74 0 1 1-.523-1.263Zm-8.709 75.417a.737.737 0 0 1 .684.457.743.743 0 0 1-.16.806.737.737 0 0 1-1.139-.112.743.743 0 0 1 .092-.934.74.74 0 0 1 .523-.217Zm-26.125-85.472a.741.741 0 0 1 .145 1.465.738.738 0 0 1-.884-.725.742.742 0 0 1 .739-.74Zm34.834-10.056a.741.741 0 0 1 .523 1.263.74.74 0 1 1-.523-1.263Zm0 10.056a.741.741 0 0 1 .523 1.263.74.74 0 1 1-.523-1.263Zm0-50.278a.742.742 0 0 1 .523 1.263.74.74 0 1 1-.523-1.263Zm-8.709 65.361a.742.742 0 0 1 .727.884.74.74 0 1 1-.727-.884Zm0-10.055a.741.741 0 1 1 .001 1.482.741.741 0 0 1-.001-1.482Zm0-10.056a.742.742 0 0 1 .727.884.74.74 0 1 1-.727-.884Zm0-10.056a.741.741 0 0 1 .145 1.466.738.738 0 0 1-.884-.726.742.742 0 0 1 .739-.74Zm0-10.055a.742.742 0 0 1 .727.884.74.74 0 1 1-.727-.884Zm0 100.555a.745.745 0 0 1 .684.457.743.743 0 0 1-.16.806.737.737 0 0 1-1.139-.112.738.738 0 0 1 .092-.934.74.74 0 0 1 .523-.217Zm0-20.111a.737.737 0 0 1 .684.457.743.743 0 0 1-.16.806.737.737 0 0 1-1.139-.112.738.738 0 0 1 .092-.934.74.74 0 0 1 .523-.217Zm0 10.056a.744.744 0 0 1 .684.456.74.74 0 1 1-.684-.456Zm0-20.111a.744.744 0 0 1 .684.456.74.74 0 1 1-.684-.456Zm0-10.056a.737.737 0 0 1 .684.457.743.743 0 0 1-.16.806.737.737 0 0 1-1.139-.112.74.74 0 0 1 .615-1.151Zm0-10.056a.742.742 0 0 1 .727.885.745.745 0 0 1-.582.581.735.735 0 0 1-.759-.314.743.743 0 0 1 .091-.935.743.743 0 0 1 .523-.217Zm8.709-85.472a.741.741 0 0 1 .523 1.264.74.74 0 1 1-.523-1.264Zm8.708 85.472a.743.743 0 0 1 .684.457.738.738 0 0 1-.539 1.009.737.737 0 0 1-.76-.314.744.744 0 0 1 .092-.935.742.742 0 0 1 .523-.217Zm0 10.056a.745.745 0 0 1 .684.457.737.737 0 0 1-.161.806.738.738 0 0 1-1.263-.523c0-.097.019-.193.057-.283a.735.735 0 0 1 .683-.457Zm0-30.166a.742.742 0 0 1 .726.884.74.74 0 1 1-.726-.884Zm0 40.222a.737.737 0 0 1 .684.457.735.735 0 0 1-.161.806.738.738 0 0 1-1.263-.523.731.731 0 0 1 .217-.524.748.748 0 0 1 .523-.216Zm0-30.167a.743.743 0 0 1 .684.457.736.736 0 0 1-.161.806.738.738 0 0 1-1.138-.112.743.743 0 0 1 .092-.934.74.74 0 0 1 .523-.217Zm0 70.389a.737.737 0 0 1 .684.457.735.735 0 0 1-.161.806.738.738 0 0 1-1.263-.523c0-.097.019-.194.057-.283a.735.735 0 0 1 .683-.457Zm0-100.556a.742.742 0 0 1 .726.885.74.74 0 1 1-.726-.885Zm0 110.612c.147 0 .29.043.412.124a.745.745 0 0 1 .314.76.737.737 0 0 1-.582.581.735.735 0 0 1-.759-.315.74.74 0 0 1 .615-1.15Zm0-30.167a.737.737 0 0 1 .684.457.735.735 0 0 1-.161.806.738.738 0 0 1-1.263-.523.736.736 0 0 1 .74-.74Zm0-10.056a.745.745 0 0 1 .684.457.737.737 0 0 1-.161.807.744.744 0 0 1-.806.16.738.738 0 0 1-.4-.967.75.75 0 0 1 .683-.457Zm0 20.111a.745.745 0 0 1 .684.457.737.737 0 0 1-.161.807.736.736 0 0 1-.806.16.738.738 0 0 1-.4-.967.732.732 0 0 1 .4-.401.744.744 0 0 1 .283-.056Zm-8.708-15.083a.736.736 0 0 1 .683.457.746.746 0 0 1 .043.428.745.745 0 0 1-.582.581.743.743 0 0 1-.76-.315.743.743 0 0 1 .093-.934.738.738 0 0 1 .523-.217Zm0 30.167a.736.736 0 0 1 .683.457.743.743 0 0 1-.16.806.74.74 0 1 1-.523-1.263Zm0-10.056a.744.744 0 0 1 .683.457.746.746 0 0 1 .043.428.745.745 0 0 1-.582.581.743.743 0 0 1-.76-.315.74.74 0 0 1 .616-1.151Zm0-10.056a.744.744 0 0 1 .683.457.747.747 0 0 1 .043.428.735.735 0 0 1-1.009.539.737.737 0 0 1-.457-.683.74.74 0 0 1 .74-.741Zm0-20.11a.743.743 0 0 1 .684.457.743.743 0 0 1-.54 1.008.738.738 0 0 1-.667-1.249.737.737 0 0 1 .523-.216Zm8.708-75.417a.741.741 0 0 1 .726.884.74.74 0 1 1-.726-.884Zm-8.708 65.361a.736.736 0 0 1 .683.457.743.743 0 0 1-.16.806.74.74 0 1 1-.523-1.263Zm8.708-85.472a.741.741 0 0 1 .726.884.74.74 0 1 1-.726-.884Zm0 10.055a.742.742 0 0 1 .726.885.74.74 0 1 1-.726-.885Zm0-30.167a.742.742 0 0 1 .684.457.736.736 0 0 1-.16.807.745.745 0 0 1-.807.16.738.738 0 0 1-.24-1.207.74.74 0 0 1 .523-.217Zm0 10.056a.742.742 0 0 1 .726.885.74.74 0 1 1-.726-.885Zm-8.708 75.417a.74.74 0 1 1 0 1.481.74.74 0 0 1 0-1.481Zm-26.125-45.25a.741.741 0 1 1 0 1.482.741.741 0 0 1 0-1.482Zm0 90.5a.743.743 0 0 1 .684.456.738.738 0 0 1-.16.807.745.745 0 0 1-.807.161.738.738 0 0 1-.457-.684.738.738 0 0 1 .74-.74Zm0-70.39a.741.741 0 1 1 0 1.483.741.741 0 0 1 0-1.482Zm0-30.166a.74.74 0 1 1 0 1.481.74.74 0 0 1 0-1.48Zm0-10.055a.741.741 0 1 1 0 1.482.741.741 0 0 1 0-1.482Zm0 50.278a.74.74 0 1 1 0 1.48.74.74 0 0 1 0-1.48Zm0 10.055a.741.741 0 1 1 0 1.482.741.741 0 0 1 0-1.482Zm0 30.167a.743.743 0 0 1 .684.456.738.738 0 0 1-.16.807.752.752 0 0 1-.379.203.746.746 0 0 1-.76-.315.738.738 0 0 1 .615-1.151Zm0 10.055a.736.736 0 0 1 .684.457.735.735 0 0 1-.16.806.745.745 0 0 1-.807.161.738.738 0 0 1-.457-.684.74.74 0 0 1 .74-.74Zm0-30.167a.741.741 0 0 1 .145 1.466.738.738 0 0 1-.885-.725.74.74 0 0 1 .74-.74Zm0-80.444a.741.741 0 1 1-.283 1.424.74.74 0 0 1 .283-1.424Zm0 90.5a.736.736 0 0 1 .684.457.735.735 0 0 1-.16.806.745.745 0 0 1-.807.161.738.738 0 0 1-.457-.684.74.74 0 0 1 .74-.74Zm0-50.278a.74.74 0 1 1 0 1.481.74.74 0 0 1 0-1.48Zm0-50.278a.741.741 0 1 1 0 1.482.741.741 0 0 1 0-1.482ZM365.749 110.9a.737.737 0 0 1 .684.457.743.743 0 0 1-.16.806.737.737 0 0 1-1.139-.112.743.743 0 0 1 .092-.934.74.74 0 0 1 .523-.217Zm0 10.056a.744.744 0 0 1 .684.456.747.747 0 0 1 .043.428.745.745 0 0 1-.582.581.738.738 0 0 1-.884-.726c0-.196.078-.384.216-.523a.743.743 0 0 1 .523-.216Zm0-40.223a.741.741 0 0 1 .145 1.466.738.738 0 0 1-.884-.726.742.742 0 0 1 .739-.74Zm0 10.056a.742.742 0 0 1 .727.884.74.74 0 1 1-.727-.884Zm0 10.055a.745.745 0 0 1 .684.457.743.743 0 0 1-.16.806.737.737 0 0 1-1.139-.112.738.738 0 0 1 .092-.934.74.74 0 0 1 .523-.217Zm0 30.167a.737.737 0 0 1 .684.457.743.743 0 0 1-.16.806.737.737 0 0 1-1.139-.112.743.743 0 0 1 .092-.934.74.74 0 0 1 .523-.217Zm0 10.055a.745.745 0 0 1 .684.457.746.746 0 0 1 .043.428.745.745 0 0 1-.582.581.735.735 0 0 1-.759-.314.743.743 0 0 1 .614-1.152Zm17.417 0a.745.745 0 0 1 .684.457.738.738 0 0 1-.539 1.009.737.737 0 0 1-.76-.314.744.744 0 0 1 .092-.935.732.732 0 0 1 .523-.217Zm0-20.11c.147 0 .29.043.412.124a.745.745 0 0 1 .314.76.737.737 0 0 1-.582.581.735.735 0 0 1-.759-.314.745.745 0 0 1 .092-.935.732.732 0 0 1 .523-.216Zm0 10.055a.745.745 0 0 1 .684.457.737.737 0 0 1-.161.806.738.738 0 0 1-1.263-.523c0-.097.019-.193.057-.283a.735.735 0 0 1 .683-.457Zm0-40.222a.741.741 0 0 1 .726.884.74.74 0 1 1-.726-.884Zm0 10.055a.745.745 0 0 1 .684.457.737.737 0 0 1-.161.807.736.736 0 0 1-.806.16.738.738 0 0 1-.4-.967.732.732 0 0 1 .4-.401.744.744 0 0 1 .283-.056Zm8.708-75.416a.742.742 0 0 1 .727.884.74.74 0 1 1-.727-.884Zm-8.708 85.472a.737.737 0 0 1 .684.457.735.735 0 0 1-.161.806.738.738 0 0 1-1.263-.523c0-.097.019-.194.057-.283a.735.735 0 0 1 .683-.457Zm8.708-95.528a.741.741 0 0 1 .145 1.466.739.739 0 1 1-.145-1.466Zm0-10.056a.742.742 0 0 1 .727.885.74.74 0 1 1-.727-.885Zm-8.708 145.806a.745.745 0 0 1 .684.457.737.737 0 0 1-.161.806.738.738 0 0 1-1.263-.523c0-.097.019-.193.057-.283a.735.735 0 0 1 .683-.457Zm0-130.722a.742.742 0 0 1 .726.884.74.74 0 1 1-.726-.884Zm-8.708 125.694a.744.744 0 0 1 .684.457.735.735 0 0 1-.16.806.745.745 0 0 1-.807.161.738.738 0 0 1-.457-.684.74.74 0 0 1 .74-.74ZM383.166.288a.742.742 0 0 1 .684.457.736.736 0 0 1-.161.806.738.738 0 0 1-1.138-.112.743.743 0 0 1 .092-.935.74.74 0 0 1 .523-.216Zm0 10.055a.742.742 0 0 1 .726.885.74.74 0 1 1-.726-.885Zm0 40.222a.743.743 0 0 1 .684.457.736.736 0 0 1-.16.807.745.745 0 0 1-.807.16.739.739 0 0 1 .283-1.424Zm0 10.056a.742.742 0 0 1 .726.885.74.74 0 1 1-.726-.885Zm0 10.056a.741.741 0 0 1 .726.884.74.74 0 1 1-.726-.884Zm0 10.055a.742.742 0 0 1 .726.885.74.74 0 1 1-.726-.885Zm0-40.222a.743.743 0 0 1 .684.457.736.736 0 0 1-.161.806.738.738 0 0 1-1.138-.112.743.743 0 0 1 .092-.934.74.74 0 0 1 .523-.217Zm0-10.055a.742.742 0 0 1 .726.884.74.74 0 1 1-.726-.884Zm26.125 35.194a.742.742 0 0 1 .726.884.74.74 0 1 1-.726-.884Zm-156.75-30.167a.742.742 0 0 1 .726.885.74.74 0 1 1-.726-.885Zm0-20.11a.742.742 0 0 1 .726.884.74.74 0 1 1-.726-.885Zm0 10.055a.741.741 0 0 1 .726.884.74.74 0 1 1-.726-.884Zm0-20.112a.742.742 0 0 1 .684.457.736.736 0 0 1-.161.807.738.738 0 0 1-1.138-.112.743.743 0 0 1 .092-.935.74.74 0 0 1 .523-.217Zm0 40.223a.741.741 0 0 1 .726.884.74.74 0 1 1-.726-.884Zm-8.708-35.195a.74.74 0 1 1 0 1.481.74.74 0 0 1 0-1.48Zm8.708 45.25a.742.742 0 0 1 .726.885.74.74 0 1 1-.726-.885Zm0 10.056a.742.742 0 0 1 .726.884.74.74 0 1 1-.726-.884Zm-8.708-25.139a.741.741 0 1 1 0 1.482.741.741 0 0 1 0-1.482Zm0 10.055a.741.741 0 1 1 0 1.483.741.741 0 0 1 0-1.483Zm0 10.056a.741.741 0 1 1 0 1.483.741.741 0 0 1 0-1.483Zm0-30.166a.74.74 0 1 1 0 1.48.74.74 0 0 1 0-1.48Zm0-10.056a.741.741 0 1 1 0 1.482.741.741 0 0 1 0-1.482Zm0 50.278a.74.74 0 1 1 0 1.48.74.74 0 0 1 0-1.48Zm8.708 5.028a.742.742 0 0 1 .726.884.74.74 0 1 1-.726-.884Zm8.709 5.027a.741.741 0 0 1 .523 1.263.74.74 0 1 1-.523-1.263Zm0-10.055a.741.741 0 0 1 .523 1.263.74.74 0 1 1-.523-1.263Zm8.708-65.362a.741.741 0 1 1 0 1.482.741.741 0 0 1 0-1.482Zm0 10.056a.741.741 0 1 1-.283 1.424.74.74 0 0 1 .283-1.424Zm-8.708 45.25a.741.741 0 0 1 .523 1.263.74.74 0 1 1-.523-1.263Zm0-60.333a.742.742 0 0 1 .523 1.263.74.74 0 1 1-.523-1.263Zm8.708 25.139a.741.741 0 1 1 0 1.482.741.741 0 0 1 0-1.482ZM261.25 40.51a.741.741 0 0 1 .523 1.263.74.74 0 1 1-.523-1.263Zm0 10.055a.742.742 0 0 1 .726.885.748.748 0 0 1-.582.581.738.738 0 0 1-.884-.725.74.74 0 0 1 .74-.74Zm0-30.166a.742.742 0 0 1 .725.884.739.739 0 0 1-1.465-.144.743.743 0 0 1 .457-.684.74.74 0 0 1 .283-.056Zm0 10.056a.741.741 0 0 1 .523 1.263.744.744 0 0 1-.807.16.745.745 0 0 1-.456-.684.743.743 0 0 1 .457-.683.738.738 0 0 1 .283-.056Zm0-20.112a.74.74 0 1 1 0 1.482.74.74 0 0 1 0-1.482ZM226.416.288a.742.742 0 0 1 .684.457.736.736 0 0 1-.161.806.738.738 0 0 1-1.138-.112.743.743 0 0 1 .092-.935.74.74 0 0 1 .523-.216Zm0 10.055a.741.741 0 0 1 .726.885.74.74 0 1 1-.726-.885Zm0 50.278a.742.742 0 0 1 .726.885.74.74 0 1 1-.726-.885Zm0-40.222a.742.742 0 0 1 .726.884.74.74 0 1 1-.726-.884Zm0 30.166a.743.743 0 0 1 .684.457.737.737 0 0 1-.161.807.738.738 0 0 1-1.138-.112.743.743 0 0 1 .092-.935.74.74 0 0 1 .523-.217Zm0-10.055a.742.742 0 0 1 .726.885.74.74 0 1 1-.726-.885Zm0-10.055a.742.742 0 0 1 .726.884.74.74 0 1 1-.726-.884Zm-8.708-15.084a.74.74 0 1 1 0 1.48.74.74 0 0 1 0-1.48Zm0 20.111a.74.74 0 1 1 0 1.481.74.74 0 0 1 0-1.48Zm0 20.111a.74.74 0 1 1 0 1.481.74.74 0 0 1 0-1.48Zm0-10.055a.742.742 0 0 1 .726.884.739.739 0 1 1-.726-.884Zm0-20.111a.741.741 0 1 1 0 1.482.741.741 0 0 1 0-1.482Zm0-20.112a.741.741 0 1 1 0 1.482.741.741 0 0 1 0-1.482Zm17.417 0a.741.741 0 0 1 .523 1.264.737.737 0 0 1-.806.16.734.734 0 0 1-.457-.683.744.744 0 0 1 .457-.684.736.736 0 0 1 .283-.057Zm0 60.334a.742.742 0 0 1 .523 1.263.74.74 0 1 1-.523-1.263Zm0-10.056a.74.74 0 1 1 0 1.482.74.74 0 0 1 0-1.482Zm0-10.055a.742.742 0 0 1 .523 1.263.74.74 0 1 1-.523-1.263Zm0-20.111a.74.74 0 1 1 0 1.481.74.74 0 0 1 0-1.481Zm0 10.055a.741.741 0 0 1 .523 1.264.74.74 0 1 1-.523-1.264Zm0-20.11a.741.741 0 0 1 .523 1.262.74.74 0 1 1-.523-1.263ZM243.833.287a.741.741 0 1 1 0 1.482.741.741 0 0 1 0-1.482Zm60.958 5.027a.742.742 0 0 1 .684.457.736.736 0 0 1-.16.807.745.745 0 0 1-.807.16.738.738 0 0 1-.24-1.207.74.74 0 0 1 .523-.217Zm0 10.056a.742.742 0 0 1 .726.885.74.74 0 1 1-.726-.885Zm0 40.222a.742.742 0 0 1 .726.885.74.74 0 1 1-.726-.885Zm0-30.166a.741.741 0 0 1 .726.884.74.74 0 1 1-.726-.884Zm0 40.222a.742.742 0 0 1 .726.884.74.74 0 1 1-.726-.884Zm0 10.056a.742.742 0 0 1 .726.884.74.74 0 1 1-.726-.884Zm0 10.055a.743.743 0 0 1 .684.457.736.736 0 0 1-.161.806.738.738 0 0 1-1.138-.112.743.743 0 0 1 .092-.934.74.74 0 0 1 .523-.217Zm0-50.278a.742.742 0 0 1 .726.885.74.74 0 1 1-.726-.885Zm0 10.056a.741.741 0 0 1 .726.884.74.74 0 1 1-.726-.884Zm-8.708-5.028a.741.741 0 1 1 0 1.482.741.741 0 0 1 0-1.482Zm0-10.055a.74.74 0 1 1 0 1.48.74.74 0 0 1 0-1.48Zm0 30.166a.741.741 0 1 1 0 1.483.741.741 0 0 1 0-1.483Zm0-10.056a.741.741 0 1 1 0 1.483.741.741 0 0 1 0-1.483Zm0-40.222a.74.74 0 1 1 0 1.481.74.74 0 0 1 0-1.48Zm0 10.056a.741.741 0 1 1 0 1.482.741.741 0 0 1 0-1.482Zm0 80.444a.744.744 0 0 1 .684.457.735.735 0 0 1-.16.806.745.745 0 0 1-.807.161.738.738 0 0 1-.457-.684.74.74 0 0 1 .74-.74Zm0-30.166a.74.74 0 1 1 0 1.48.74.74 0 0 1 0-1.48Zm0 20.11a.741.741 0 1 1 0 1.483.741.741 0 0 1 0-1.482Zm0-10.055a.74.74 0 1 1 0 1.481.74.74 0 0 1 0-1.48Zm17.417 0a.741.741 0 0 1 .523 1.263.74.74 0 1 1-.523-1.263Zm0 10.056a.74.74 0 1 1 0 1.481.74.74 0 0 1 0-1.481Zm0 10.055a.744.744 0 0 1 .683.457.746.746 0 0 1 .043.428.74.74 0 1 1-.726-.885Zm0 10.056a.736.736 0 0 1 .683.457.743.743 0 0 1-.16.806.74.74 0 1 1-.523-1.263Zm0-40.222a.741.741 0 0 1 .523 1.263.74.74 0 1 1-.523-1.263Zm0-10.056a.741.741 0 0 1 .523 1.263.74.74 0 1 1-.523-1.263Zm0-10.056a.742.742 0 0 1 .726.885.748.748 0 0 1-.582.581.739.739 0 1 1-.144-1.466Zm0-10.055a.742.742 0 0 1 .726.885.748.748 0 0 1-.582.58.739.739 0 1 1-.144-1.465Zm-8.709 55.305a.743.743 0 0 1 .684.457.738.738 0 0 1-.539 1.009.737.737 0 0 1-.76-.314.744.744 0 0 1 .092-.935.742.742 0 0 1 .523-.217ZM296.083.288a.741.741 0 1 1 0 1.482.741.741 0 0 1 0-1.482Zm8.708 105.583a.745.745 0 0 1 .684.457.737.737 0 0 1-.161.806.738.738 0 0 1-1.263-.523c0-.097.019-.193.057-.283a.735.735 0 0 1 .683-.457Zm8.709-75.416a.741.741 0 0 1 .523 1.263.744.744 0 0 1-.807.16.745.745 0 0 1-.456-.684.743.743 0 0 1 .457-.683.738.738 0 0 1 .283-.056Zm0-10.056a.742.742 0 0 1 .523 1.263.74.74 0 1 1-.523-1.263Zm0-10.056a.741.741 0 0 1 .523 1.264.74.74 0 1 1-.523-1.264Zm0-10.055a.742.742 0 0 1 .523 1.263.74.74 0 1 1-.523-1.263Zm-34.834 30.167a.742.742 0 0 1 .726.884.74.74 0 1 1-.726-.884Zm0-10.056a.742.742 0 0 1 .726.884.74.74 0 1 1-.726-.884Zm0 30.166a.743.743 0 0 1 .684.457.736.736 0 0 1-.161.807.738.738 0 0 1-1.138-.112.743.743 0 0 1 .092-.935.74.74 0 0 1 .523-.217Zm0-10.055a.743.743 0 0 1 .684.457.736.736 0 0 1-.161.806.738.738 0 0 1-1.138-.112.743.743 0 0 1 .092-.934.74.74 0 0 1 .523-.217Zm0-40.222a.742.742 0 0 1 .684.457.736.736 0 0 1-.161.806.738.738 0 0 1-1.138-.112.743.743 0 0 1 .092-.935.74.74 0 0 1 .523-.216Zm0 10.055a.742.742 0 0 1 .726.885.74.74 0 1 1-.726-.885Zm0 50.278a.742.742 0 0 1 .726.885.74.74 0 1 1-.726-.885Zm0 30.167a.741.741 0 0 1 .726.884.74.74 0 1 1-.726-.884Zm0-20.111a.741.741 0 0 1 .726.884.74.74 0 1 1-.726-.884Zm-8.708 15.083a.741.741 0 1 1 0 1.482.741.741 0 0 1 0-1.482Zm0-10.055a.74.74 0 1 1 0 1.48.74.74 0 0 1 0-1.48Zm0-10.056a.741.741 0 1 1 0 1.482.741.741 0 0 1 0-1.482Zm0-20.111a.741.741 0 1 1 0 1.482.741.741 0 0 1 0-1.482Zm0 10.055a.74.74 0 1 1 0 1.481.74.74 0 0 1 0-1.48Zm8.708 25.14a.742.742 0 0 1 .726.884.74.74 0 1 1-.726-.885Zm8.709-15.084a.742.742 0 0 1 .523 1.263.74.74 0 1 1-.523-1.263Zm-17.417-30.167a.74.74 0 1 1 0 1.481.74.74 0 0 1 0-1.48Zm17.417 20.111a.741.741 0 0 1 .523 1.264.74.74 0 1 1-.523-1.264Zm0-10.055a.74.74 0 1 1 0 1.481.74.74 0 0 1 0-1.481Zm0 50.277a.742.742 0 0 1 .726.885.735.735 0 0 1-1.009.539.737.737 0 0 1-.457-.683.74.74 0 0 1 .74-.74Zm0-20.11a.741.741 0 0 1 .523 1.263.744.744 0 0 1-.807.16.745.745 0 0 1-.456-.684.743.743 0 0 1 .457-.683.74.74 0 0 1 .283-.056Zm0 10.055a.742.742 0 0 1 .726.885.748.748 0 0 1-.582.58.742.742 0 0 1-.76-.314.742.742 0 0 1 .616-1.151Zm0-60.333a.74.74 0 1 1 0 1.481.74.74 0 0 1 0-1.481Zm0-20.112a.742.742 0 0 1 .523 1.264.737.737 0 0 1-.806.16.735.735 0 0 1-.24-1.207.739.739 0 0 1 .523-.217Zm0 30.167a.741.741 0 0 1 .523 1.264.74.74 0 1 1-.523-1.264Zm0-20.11a.741.741 0 0 1 .523 1.262.74.74 0 1 1-.523-1.263ZM139.333.287a.741.741 0 1 1 0 1.482.741.741 0 0 1 0-1.482Zm0 10.055a.741.741 0 1 1 0 1.483.741.741 0 0 1 0-1.483Zm0 10.056a.741.741 0 1 1 0 1.482.741.741 0 0 1 0-1.482Zm0 10.056a.74.74 0 1 1 0 1.48.74.74 0 0 1 0-1.48Zm17.416-20.112a.741.741 0 0 1 .145 1.466.738.738 0 0 1-.884-.726.742.742 0 0 1 .739-.74Zm0-10.055a.742.742 0 0 1 .727.884.74.74 0 1 1-.727-.884Zm0 20.11a.742.742 0 0 1 .727.885.74.74 0 1 1-.727-.884Zm-8.708 5.029a.741.741 0 0 1 .726.884.74.74 0 1 1-.726-.884Zm0-10.056a.742.742 0 0 1 .726.885.74.74 0 1 1-.726-.885Zm0-10.056a.742.742 0 0 1 .684.457.736.736 0 0 1-.16.807.745.745 0 0 1-.807.16.738.738 0 0 1-.24-1.207.74.74 0 0 1 .523-.217ZM121.916.288a.742.742 0 0 1 .684.457.736.736 0 0 1-.161.806.738.738 0 0 1-1.138-.112.743.743 0 0 1 .092-.935.74.74 0 0 1 .523-.216Zm0 40.222a.743.743 0 0 1 .684.457.736.736 0 0 1-.161.806.738.738 0 0 1-1.138-.112.743.743 0 0 1 .092-.934.74.74 0 0 1 .523-.217Zm0-30.167a.742.742 0 0 1 .726.885.74.74 0 1 1-.726-.885Zm0 20.112a.742.742 0 0 1 .726.884.74.74 0 1 1-.726-.884Zm-8.708-5.028a.741.741 0 1 1 0 1.482.741.741 0 0 1 0-1.482Zm0-10.056a.741.741 0 1 1-.283 1.424.74.74 0 0 1 .283-1.424Zm0 20.111a.74.74 0 1 1 0 1.481.74.74 0 0 1 0-1.48Zm0 10.056a.741.741 0 1 1 0 1.482.741.741 0 0 1 0-1.482Zm0-40.223a.741.741 0 1 1 0 1.482.741.741 0 0 1 0-1.482Zm17.417 30.167a.741.741 0 0 1 .523 1.264.74.74 0 1 1-.523-1.264Zm0-10.055a.74.74 0 1 1 0 1.481.74.74 0 0 1 0-1.481Zm0-10.056a.741.741 0 0 1 .523 1.263.74.74 0 1 1-.523-1.263Zm0-10.056a.742.742 0 0 1 .523 1.264.737.737 0 0 1-.806.16.735.735 0 0 1-.24-1.207.739.739 0 0 1 .523-.217ZM121.916 20.4a.742.742 0 0 1 .726.884.74.74 0 1 1-.726-.884ZM191.583.288a.742.742 0 0 1 .523 1.263.74.74 0 1 1-.523-1.263ZM165.458 15.37a.741.741 0 1 1-.283 1.424.74.74 0 0 1 .283-1.424Zm0-10.056a.741.741 0 1 1 0 1.482.741.741 0 0 1 0-1.482Zm17.416 0a.742.742 0 0 1 .727.885.74.74 0 1 1-.727-.885ZM174.166.288a.742.742 0 0 1 .684.457.736.736 0 0 1-.161.806.738.738 0 0 1-1.138-.112.743.743 0 0 1 .092-.935.74.74 0 0 1 .523-.216Zm0 10.055a.742.742 0 0 1 .726.885.74.74 0 1 1-.726-.885ZM43.541 35.483a.74.74 0 1 1 0 1.479.74.74 0 0 1 0-1.48Zm0-20.112a.74.74 0 1 1 0 1.48.74.74 0 0 1 0-1.48Zm0 10.056a.739.739 0 1 1 0 1.478.739.739 0 0 1 0-1.478Zm0-20.112a.74.74 0 1 1 0 1.48.74.74 0 0 1 0-1.48Zm0 40.223a.739.739 0 1 1 0 1.478.739.739 0 0 1 0-1.478Zm0 40.222a.74.74 0 1 1 0 1.481.74.74 0 0 1 0-1.481Zm-8.708-75.417a.74.74 0 1 1 0 1.48.74.74 0 0 1 0-1.48Zm8.709 45.25a.74.74 0 1 1 0 1.48.74.74 0 0 1 0-1.48Zm0 10.056a.74.74 0 1 1-.001 1.48.74.74 0 0 1 0-1.48ZM34.832 40.51a.74.74 0 1 1 0 1.481.74.74 0 0 1 0-1.481Zm0 10.055a.74.74 0 1 1 0 1.48.74.74 0 0 1 0-1.48Zm0 10.056a.74.74 0 1 1 0 1.481.74.74 0 0 1 0-1.48Zm0-30.166a.74.74 0 1 1 0 1.479.74.74 0 0 1 0-1.48Zm0-10.056a.74.74 0 1 1 0 1.481.74.74 0 0 1 0-1.481Zm0 50.278a.74.74 0 1 1 0 1.48.74.74 0 0 1 0-1.48Zm0 10.055a.74.74 0 1 1 0 1.48.74.74 0 0 1 0-1.48Zm0 10.056a.74.74 0 1 1 0 1.481.74.74 0 0 1 0-1.481Zm8.709-15.083a.74.74 0 1 1 0 1.479.74.74 0 0 1 0-1.48Zm8.708 5.027a.74.74 0 1 1 0 1.48.74.74 0 0 1 0-1.48Zm0-10.055a.74.74 0 1 1 0 1.48.74.74 0 0 1 0-1.48Zm8.708-65.362a.74.74 0 1 1 0 1.48.74.74 0 0 1 0-1.48Zm0 10.056a.74.74 0 1 1 0 1.48.74.74 0 0 1 0-1.48Zm-8.708 45.25a.74.74 0 1 1 0 1.48.74.74 0 0 1 0-1.48Zm0-60.333a.74.74 0 1 1 0 1.48.74.74 0 0 1 0-1.48Zm8.708 25.139a.74.74 0 1 1 0 1.48.74.74 0 0 1 0-1.48ZM52.25 40.51a.74.74 0 1 1 0 1.48.74.74 0 0 1 0-1.48Zm0 10.055a.74.74 0 1 1-.001 1.482.74.74 0 0 1 .001-1.482Zm0-30.166a.74.74 0 1 1-.001 1.481.74.74 0 0 1 .001-1.481Zm0 10.056a.74.74 0 1 1 0 1.479.74.74 0 0 1 0-1.48Zm0-20.112a.74.74 0 1 1 0 1.479.74.74 0 0 1 0-1.479ZM17.416.288a.74.74 0 1 1 0 1.48.74.74 0 0 1 0-1.48Zm0 10.055a.739.739 0 1 1 0 1.478.739.739 0 0 1 0-1.478Zm0 50.278a.74.74 0 1 1 0 1.48.74.74 0 0 1 0-1.48Zm0-40.222a.74.74 0 1 1 0 1.48.74.74 0 0 1 0-1.48Zm0 50.278a.739.739 0 1 1 0 1.478.739.739 0 0 1 0-1.478Zm0-20.112a.74.74 0 1 1 0 1.481.74.74 0 0 1 0-1.48Zm0-10.055a.74.74 0 1 1 0 1.48.74.74 0 0 1 0-1.48Zm0-10.055a.74.74 0 1 1 0 1.479.74.74 0 0 1 0-1.48ZM8.708 15.37a.74.74 0 1 1 0 1.479.74.74 0 0 1 0-1.479Zm0 20.111a.74.74 0 1 1 0 1.48.74.74 0 0 1 0-1.48Zm0 20.111a.74.74 0 1 1 0 1.48.74.74 0 0 1 0-1.48Zm0-10.055a.741.741 0 1 1 0 1.482.741.741 0 0 1 0-1.482Zm0-20.111a.74.74 0 1 1 0 1.48.74.74 0 0 1 0-1.48Zm8.708 55.305a.74.74 0 1 1 0 1.48.74.74 0 0 1 0-1.48ZM8.708 5.315a.74.74 0 1 1 0 1.48.74.74 0 0 1 0-1.48Zm0 90.5a.74.74 0 1 1 0 1.48.74.74 0 0 1 0-1.48Zm0-30.166a.74.74 0 1 1 0 1.48.74.74 0 0 1 0-1.48Zm0 40.222a.735.735 0 0 1 .684.457.738.738 0 0 1-.54 1.009.745.745 0 0 1-.759-.315.739.739 0 0 1 .615-1.151Zm0-20.111a.74.74 0 1 1 0 1.48.74.74 0 0 1 0-1.48Zm0-10.055a.74.74 0 1 1 0 1.478.74.74 0 0 1 0-1.478Zm17.417-70.39a.74.74 0 1 1 0 1.48.74.74 0 0 1 0-1.48Zm0 70.39a.74.74 0 1 1 0 1.479.74.74 0 0 1 0-1.48Zm0 10.055a.74.74 0 1 1 0 1.48.74.74 0 0 1 0-1.48Zm0 10.055a.74.74 0 1 1 0 1.481.74.74 0 0 1 0-1.48Zm0-30.166a.74.74 0 1 1 0 1.48.74.74 0 0 1 0-1.48Zm0-10.056a.739.739 0 1 1 0 1.478.739.739 0 0 1 0-1.478Zm-8.709 35.195a.74.74 0 1 1 0 1.48.74.74 0 0 1 0-1.48Zm8.709-45.25a.74.74 0 1 1 0 1.48.74.74 0 0 1 0-1.48Zm-8.709 55.305a.742.742 0 0 1 .726.885.745.745 0 0 1-.581.581.736.736 0 0 1-.76-.315.736.736 0 0 1 .092-.934.751.751 0 0 1 .524-.217Zm8.709-75.416a.74.74 0 1 1 0 1.478.74.74 0 0 1 0-1.478Zm0 10.055a.74.74 0 1 1 0 1.48.74.74 0 0 1 0-1.48Zm0-20.11a.74.74 0 1 1 0 1.479.74.74 0 0 1 0-1.48ZM34.833.287a.74.74 0 1 1 0 1.48.74.74 0 0 1 0-1.48Zm60.959 5.027a.74.74 0 1 1-.001 1.48.74.74 0 0 1 0-1.48Zm0 10.056a.74.74 0 1 1 0 1.48.74.74 0 0 1 0-1.48Zm0 40.222a.74.74 0 1 1 0 1.48.74.74 0 0 1 0-1.48Zm0-30.166a.739.739 0 1 1 0 1.478.739.739 0 0 1 0-1.478Zm0 10.055a.74.74 0 1 1 0 1.48.74.74 0 0 1 0-1.48Zm0 10.056a.739.739 0 1 1 0 1.478.739.739 0 0 1 0-1.478Zm-8.709-5.028a.74.74 0 1 1 0 1.481.74.74 0 0 1 0-1.481Zm0-10.055a.74.74 0 1 1 0 1.478.74.74 0 0 1 0-1.478Zm0 30.166a.74.74 0 1 1 0 1.481.74.74 0 0 1 0-1.48Zm0-10.056a.74.74 0 1 1 0 1.48.74.74 0 0 1 0-1.48Zm0-40.222a.74.74 0 1 1 0 1.48.74.74 0 0 1 0-1.48Zm0 10.056a.74.74 0 1 1 0 1.481.74.74 0 0 1 0-1.481ZM104.5 50.565a.742.742 0 0 1 .726.885.748.748 0 0 1-.582.581.739.739 0 1 1-.144-1.466Zm0-10.055a.742.742 0 0 1 .725.885.739.739 0 0 1-1.465-.145.743.743 0 0 1 .457-.684.74.74 0 0 1 .283-.056ZM87.083.288a.74.74 0 1 1 0 1.48.74.74 0 0 1 0-1.48ZM104.5 30.455a.741.741 0 0 1 .523 1.263.744.744 0 0 1-.807.16.745.745 0 0 1-.456-.684.743.743 0 0 1 .457-.683.738.738 0 0 1 .283-.056Zm0-10.056a.742.742 0 0 1 .523 1.263.74.74 0 1 1-.523-1.263Zm0-10.056a.741.741 0 0 1 .523 1.264.74.74 0 1 1-.523-1.264Zm0-10.055a.742.742 0 0 1 .523 1.263.74.74 0 1 1-.523-1.263ZM69.666 30.455a.74.74 0 1 1 0 1.479.74.74 0 0 1 0-1.48Zm0-10.056a.74.74 0 1 1 0 1.48.74.74 0 0 1 0-1.48Zm0 30.166a.74.74 0 1 1 0 1.481.74.74 0 0 1 0-1.48Zm0-10.055a.74.74 0 1 1 0 1.481.74.74 0 0 1 0-1.481Zm0-40.222a.74.74 0 1 1 0 1.48.74.74 0 0 1 0-1.48Zm0 10.055a.74.74 0 1 1 0 1.48.74.74 0 0 1 0-1.48Zm0 50.278a.74.74 0 1 1 0 1.48.74.74 0 0 1 0-1.48Zm0 10.056a.739.739 0 1 1 0 1.478.739.739 0 0 1 0-1.478Zm-8.708 5.028a.74.74 0 1 1 0 1.479.74.74 0 0 1 0-1.48Zm0-10.056a.74.74 0 1 1 0 1.481.74.74 0 0 1 0-1.481Zm0-20.111a.74.74 0 1 1 0 1.481.74.74 0 0 1 0-1.481Zm0 10.055a.74.74 0 1 1 0 1.48.74.74 0 0 1 0-1.48ZM78.375 65.65a.74.74 0 1 1 0 1.48.74.74 0 0 1 0-1.48ZM60.958 35.482a.74.74 0 1 1 0 1.479.74.74 0 0 1 0-1.479Zm17.417 20.111a.74.74 0 1 1 0 1.48.74.74 0 0 1 0-1.48Zm0-10.055a.74.74 0 1 1 0 1.478.74.74 0 0 1 0-1.478Zm0-20.111a.74.74 0 1 1 0 1.478.74.74 0 0 1 0-1.478Zm0-20.112a.74.74 0 1 1 0 1.48.74.74 0 0 1 0-1.48Zm0 30.167a.74.74 0 1 1 0 1.48.74.74 0 0 1 0-1.48Zm0-20.11a.74.74 0 1 1 0 1.479.74.74 0 0 1 0-1.48ZM209 301.954a.743.743 0 0 1 .684.457.743.743 0 0 1-.54 1.008.738.738 0 0 1-.667-1.249.744.744 0 0 1 .523-.216Zm0 40.222a.736.736 0 0 1 .683.457.735.735 0 0 1-.16.806.74.74 0 1 1-.523-1.263Zm0-10.056a.744.744 0 0 1 .683.457.737.737 0 0 1-.16.806.74.74 0 1 1-.523-1.263Zm0-20.111a.736.736 0 0 1 .683.457.737.737 0 0 1-.16.806.74.74 0 1 1-.523-1.263Zm0 10.055a.744.744 0 0 1 .683.457.747.747 0 0 1 .043.428.735.735 0 0 1-1.009.539.737.737 0 0 1-.401-.967.736.736 0 0 1 .684-.457Zm0-120.666a.736.736 0 0 1 .683.457.735.735 0 0 1-.16.806.74.74 0 1 1-.523-1.263Zm0-10.056a.744.744 0 0 1 .683.457.737.737 0 0 1-.16.807.74.74 0 1 1-.523-1.264Zm0-10.055a.736.736 0 0 1 .683.457.735.735 0 0 1-.16.806.74.74 0 1 1-.523-1.263Zm0 30.167a.743.743 0 0 1 .684.457.743.743 0 0 1-.54 1.008.738.738 0 0 1-.667-1.249.744.744 0 0 1 .523-.216Zm0 20.11a.741.741 0 1 1-.283 1.424.737.737 0 0 1-.401-.967.736.736 0 0 1 .684-.457Zm0-10.055a.744.744 0 0 1 .683.457.737.737 0 0 1-.16.806.74.74 0 1 1-.523-1.263Zm0 130.722a.744.744 0 0 1 .683.457.737.737 0 0 1-.16.807.747.747 0 0 1-.806.16.74.74 0 0 1 .283-1.424Zm-69.667-10.055a.743.743 0 0 1 .684.456.738.738 0 0 1-.16.807.752.752 0 0 1-.379.203.746.746 0 0 1-.76-.315.738.738 0 0 1 .615-1.151Zm0-160.889a.743.743 0 0 1 .684.456.739.739 0 0 1-.539 1.01.746.746 0 0 1-.76-.315.74.74 0 0 1 .615-1.151Zm-8.708 165.917a.743.743 0 0 1 .684.457.743.743 0 0 1-.54 1.008.738.738 0 0 1-.667-1.249.744.744 0 0 1 .523-.216Zm8.708-155.862a.744.744 0 0 1 .684.457.735.735 0 0 1-.16.806.745.745 0 0 1-.807.161.738.738 0 0 1-.457-.684.74.74 0 0 1 .74-.74Zm0 10.056a.736.736 0 0 1 .684.457.735.735 0 0 1-.16.806.745.745 0 0 1-.807.161.738.738 0 0 1-.457-.684.74.74 0 0 1 .74-.74Zm0 10.056a.743.743 0 0 1 .684.456.738.738 0 0 1-.539 1.009.737.737 0 0 1-.76-.314.745.745 0 0 1 .092-.935.743.743 0 0 1 .523-.216Zm0 40.222a.743.743 0 0 1 .684.456.738.738 0 0 1-.16.807.752.752 0 0 1-.379.203.746.746 0 0 1-.76-.315.738.738 0 0 1 .615-1.151Zm0 20.111a.743.743 0 0 1 .684.457.734.734 0 0 1-.16.806.745.745 0 0 1-.807.161.738.738 0 0 1-.457-.684.74.74 0 0 1 .74-.74Zm0-30.167a.736.736 0 0 1 .684.457.735.735 0 0 1-.16.806.745.745 0 0 1-.807.161.738.738 0 0 1-.457-.684.74.74 0 0 1 .74-.74Zm0 20.111a.736.736 0 0 1 .684.457.735.735 0 0 1-.16.806.745.745 0 0 1-.807.161.738.738 0 0 1-.457-.684.74.74 0 0 1 .74-.74Zm0-30.167a.744.744 0 0 1 .684.457.737.737 0 0 1-.16.807.743.743 0 0 1-1.139-.112.744.744 0 0 1 .092-.935.748.748 0 0 1 .523-.217Zm0-10.055a.736.736 0 0 1 .684.457.735.735 0 0 1-.16.806.745.745 0 0 1-.807.161.738.738 0 0 1-.457-.684.74.74 0 0 1 .74-.74Zm17.416-30.167a.745.745 0 0 1 .684.457.743.743 0 0 1-.16.806.737.737 0 0 1-1.139-.112.738.738 0 0 1 .092-.934.74.74 0 0 1 .523-.217Zm-8.708 155.862c.147 0 .29.043.412.124a.745.745 0 0 1 .314.76.737.737 0 0 1-.582.581.735.735 0 0 1-.759-.314.745.745 0 0 1 .092-.935.732.732 0 0 1 .523-.216Zm0-10.056a.737.737 0 0 1 .684.457.735.735 0 0 1-.161.806.738.738 0 0 1-1.263-.523c0-.097.019-.194.057-.283a.735.735 0 0 1 .683-.457Zm8.708-155.861c.147 0 .29.043.412.124a.745.745 0 0 1 .315.76.737.737 0 0 1-.582.582.743.743 0 0 1-.76-.315.743.743 0 0 1 .092-.934.74.74 0 0 1 .523-.217Zm0 40.222a.737.737 0 0 1 .684.457.743.743 0 0 1-.16.806.737.737 0 0 1-1.139-.112.743.743 0 0 1 .092-.934.74.74 0 0 1 .523-.217Zm0 10.055a.745.745 0 0 1 .684.457.746.746 0 0 1 .043.428.745.745 0 0 1-.582.581.735.735 0 0 1-.759-.314.743.743 0 0 1 .614-1.152Zm0-30.166a.737.737 0 0 1 .684.457.743.743 0 0 1-.16.806.737.737 0 0 1-1.139-.112.743.743 0 0 1 .092-.934.74.74 0 0 1 .523-.217Zm0 10.056a.744.744 0 0 1 .684.456.747.747 0 0 1 .043.428.745.745 0 0 1-.582.581.738.738 0 0 1-.884-.726c0-.196.078-.384.216-.523a.743.743 0 0 1 .523-.216Zm-8.708 45.25c.147 0 .29.043.412.124a.745.745 0 0 1 .314.76.737.737 0 0 1-.582.581.735.735 0 0 1-.759-.314.745.745 0 0 1 .092-.935.732.732 0 0 1 .523-.216Zm0-50.278a.737.737 0 0 1 .684.457.735.735 0 0 1-.161.806.738.738 0 0 1-1.263-.523.731.731 0 0 1 .217-.524.748.748 0 0 1 .523-.216Zm0-10.056a.745.745 0 0 1 .684.457.737.737 0 0 1-.161.806.738.738 0 0 1-1.263-.523c0-.097.019-.193.057-.283a.735.735 0 0 1 .683-.457Zm0 30.167a.737.737 0 0 1 .684.457.735.735 0 0 1-.161.806.738.738 0 0 1-1.263-.523.736.736 0 0 1 .74-.74Zm0-40.223a.745.745 0 0 1 .684.457.738.738 0 0 1-.539 1.009.737.737 0 0 1-.76-.314.744.744 0 0 1 .092-.935.732.732 0 0 1 .523-.217Zm0 30.167a.745.745 0 0 1 .684.457.737.737 0 0 1-.161.807.744.744 0 0 1-.806.16.738.738 0 0 1-.4-.967.732.732 0 0 1 .4-.401.744.744 0 0 1 .283-.056Zm0 50.278a.745.745 0 0 1 .684.457.737.737 0 0 1-.161.806.738.738 0 0 1-1.263-.523c0-.097.019-.193.057-.283a.735.735 0 0 1 .683-.457Zm0-30.167a.745.745 0 0 1 .684.457.737.737 0 0 1-.161.807.736.736 0 0 1-.806.16.738.738 0 0 1-.4-.967.732.732 0 0 1 .4-.401.744.744 0 0 1 .283-.056Zm0 10.056a.737.737 0 0 1 .684.457.735.735 0 0 1-.161.806.738.738 0 0 1-1.263-.523c0-.097.019-.194.057-.283a.735.735 0 0 1 .683-.457Zm-8.708 105.583a.736.736 0 0 1 .684.457.735.735 0 0 1-.16.806.745.745 0 0 1-.807.161.738.738 0 0 1-.457-.684.74.74 0 0 1 .74-.74Zm-26.125-65.361a.736.736 0 0 1 .684.457.735.735 0 0 1-.16.806.745.745 0 0 1-.807.161.738.738 0 0 1-.457-.684.74.74 0 0 1 .74-.74Zm8.708-105.583a.737.737 0 0 1 .684.457.735.735 0 0 1-.161.806.738.738 0 0 1-1.263-.523.736.736 0 0 1 .74-.74Zm0 40.222a.745.745 0 0 1 .684.457.737.737 0 0 1-.161.806.738.738 0 0 1-1.263-.523c0-.097.019-.193.057-.283a.735.735 0 0 1 .683-.457Zm0 10.055c.147.001.29.044.412.125a.748.748 0 0 1 .314.76.743.743 0 0 1-1.341.267.744.744 0 0 1 .092-.935.732.732 0 0 1 .523-.217Zm0-40.222a.745.745 0 0 1 .684.457.737.737 0 0 1-.161.807.736.736 0 0 1-.806.16.738.738 0 0 1-.4-.967.732.732 0 0 1 .4-.401.744.744 0 0 1 .283-.056Zm0 20.112c.147 0 .29.043.412.124a.745.745 0 0 1 .314.76.737.737 0 0 1-.582.581.735.735 0 0 1-.759-.314.745.745 0 0 1 .092-.935.732.732 0 0 1 .523-.216Zm-8.708-5.028a.743.743 0 0 1 .684.456.738.738 0 0 1-.16.807.752.752 0 0 1-.379.203.746.746 0 0 1-.76-.315.738.738 0 0 1 .615-1.151Zm0 70.388a.744.744 0 0 1 .684.457.737.737 0 0 1-.16.807.743.743 0 0 1-1.139-.112.744.744 0 0 1 .092-.935.748.748 0 0 1 .523-.217Zm0-80.444a.736.736 0 0 1 .684.457.735.735 0 0 1-.16.806.745.745 0 0 1-.807.161.738.738 0 0 1-.457-.684.74.74 0 0 1 .74-.74Zm8.708 45.25a.745.745 0 0 1 .684.457.737.737 0 0 1-.161.806.738.738 0 0 1-1.263-.523c0-.097.019-.193.057-.283a.735.735 0 0 1 .683-.457Zm34.833 0a.737.737 0 0 1 .684.457.743.743 0 0 1-.16.806.737.737 0 0 1-1.139-.112.74.74 0 0 1 .615-1.151Zm-43.541-25.139a.736.736 0 0 1 .684.457.735.735 0 0 1-.16.806.745.745 0 0 1-.807.161.738.738 0 0 1-.457-.684.74.74 0 0 1 .74-.74Zm0 50.278a.736.736 0 0 1 .684.457.735.735 0 0 1-.16.806.745.745 0 0 1-.807.161.738.738 0 0 1-.457-.684.74.74 0 0 1 .74-.74Zm0-10.055a.743.743 0 0 1 .684.456.738.738 0 0 1-.539 1.009.737.737 0 0 1-.76-.314.745.745 0 0 1 .092-.935.743.743 0 0 1 .523-.216Zm0-20.112a.744.744 0 0 1 .684.457.737.737 0 0 1-.16.806.745.745 0 0 1-.807.161.738.738 0 0 1-.457-.684.74.74 0 0 1 .74-.74Zm0 10.056a.736.736 0 0 1 .684.457.735.735 0 0 1-.16.806.745.745 0 0 1-.807.161.738.738 0 0 1-.457-.684.74.74 0 0 1 .74-.74Zm0-20.111a.743.743 0 0 1 .684.457.735.735 0 0 1-.16.806.745.745 0 0 1-.807.161.738.738 0 0 1-.457-.684.74.74 0 0 1 .74-.74Zm0-40.223a.744.744 0 0 1 .684.457.737.737 0 0 1-.16.807.743.743 0 0 1-1.139-.112.744.744 0 0 1 .092-.935.748.748 0 0 1 .523-.217Zm17.417 50.278a.744.744 0 0 1 .684.457.745.745 0 0 1-.161.807.74.74 0 1 1-.523-1.264Zm0 10.056a.736.736 0 0 1 .684.457.743.743 0 0 1-.967.967.74.74 0 0 1 .283-1.424Zm0-20.111a.736.736 0 0 1 .684.457.743.743 0 0 1-.967.967.74.74 0 0 1 .283-1.424Zm0-10.056a.744.744 0 0 1 .684.457.745.745 0 0 1-.161.807.747.747 0 0 1-.806.16.74.74 0 0 1 .283-1.424Zm0-10.055a.736.736 0 0 1 .684.457.743.743 0 0 1-.54 1.009.743.743 0 0 1-.884-.726.74.74 0 0 1 .74-.74Zm0 50.278a.743.743 0 0 1 .684.457.743.743 0 0 1-.54 1.008.738.738 0 0 1-.667-1.249.744.744 0 0 1 .523-.216Zm0 20.11a.741.741 0 1 1-.283 1.424.737.737 0 0 1-.457-.683.74.74 0 0 1 .74-.741Zm0-10.055a.744.744 0 0 1 .684.457.745.745 0 0 1-.161.806.74.74 0 1 1-.523-1.263Zm-8.708-5.028a.744.744 0 0 1 .683.457.737.737 0 0 1-.161.807.744.744 0 0 1-.806.16.738.738 0 0 1-.4-.967.732.732 0 0 1 .4-.401.745.745 0 0 1 .284-.056Zm0 20.111a.744.744 0 0 1 .683.457.737.737 0 0 1-.161.807.736.736 0 0 1-.806.16.738.738 0 0 1-.4-.967.732.732 0 0 1 .4-.401.745.745 0 0 1 .284-.056Zm8.708-85.472a.744.744 0 0 1 .683.457.737.737 0 0 1-.16.806.74.74 0 1 1-.523-1.263Zm-8.709 75.417a.737.737 0 0 1 .684.457.735.735 0 0 1-.161.806.738.738 0 0 1-1.263-.523.736.736 0 0 1 .74-.74Zm0-20.111a.737.737 0 0 1 .684.457.735.735 0 0 1-.161.806.738.738 0 0 1-1.263-.523.731.731 0 0 1 .217-.524.748.748 0 0 1 .523-.216Zm8.709-65.362a.744.744 0 0 1 .683.457.747.747 0 0 1 .043.428.735.735 0 0 1-1.009.539.737.737 0 0 1-.457-.683.74.74 0 0 1 .74-.741Zm-8.709 165.917a.745.745 0 0 1 .684.457.737.737 0 0 1-.161.807.744.744 0 0 1-.806.16.738.738 0 0 1-.4-.967.732.732 0 0 1 .4-.401.744.744 0 0 1 .283-.056Zm0-150.833a.737.737 0 0 1 .684.457.735.735 0 0 1-.161.806.738.738 0 0 1-1.263-.523c0-.097.019-.194.057-.283a.735.735 0 0 1 .683-.457Zm60.958 15.083a.745.745 0 0 1 .684.457.743.743 0 0 1-.16.806.737.737 0 0 1-1.139-.112.738.738 0 0 1 .092-.934.74.74 0 0 1 .523-.217Zm8.709-5.027a.743.743 0 0 1 .684.457.743.743 0 0 1-.54 1.008.738.738 0 0 1-.667-1.249.737.737 0 0 1 .523-.216Zm0-30.167a.736.736 0 0 1 .683.457.743.743 0 0 1-.16.806.74.74 0 1 1-.523-1.263Zm0 40.222a.744.744 0 0 1 .683.457.746.746 0 0 1 .043.428.745.745 0 0 1-.582.581.742.742 0 0 1-.884-.726.74.74 0 0 1 .74-.74Zm-8.709 125.695a.744.744 0 0 1 .684.456.747.747 0 0 1 .043.428.745.745 0 0 1-.582.581.738.738 0 0 1-.884-.726c0-.196.078-.384.216-.523a.743.743 0 0 1 .523-.216Zm8.709-115.64a.741.741 0 1 1-.283 1.424.737.737 0 0 1-.457-.683.74.74 0 0 1 .74-.741Zm-8.709 105.584a.737.737 0 0 1 .684.457.743.743 0 0 1-.16.806.737.737 0 0 1-1.139-.112.743.743 0 0 1 .092-.934.74.74 0 0 1 .523-.217Zm-26.125-85.472a.744.744 0 0 1 .684.456.74.74 0 1 1-.684-.456Zm34.834-10.056a.744.744 0 0 1 .683.457.746.746 0 0 1 .043.428.745.745 0 0 1-.582.581.742.742 0 0 1-.884-.726.74.74 0 0 1 .74-.74Zm0-40.222a.736.736 0 0 1 .683.457.743.743 0 0 1-.16.806.74.74 0 1 1-.523-1.263Zm-8.709 45.25a.737.737 0 0 1 .684.457.743.743 0 0 1-.16.806.737.737 0 0 1-1.139-.112.743.743 0 0 1 .092-.934.74.74 0 0 1 .523-.217Zm0-10.056a.745.745 0 0 1 .684.457.743.743 0 0 1-.16.806.737.737 0 0 1-1.139-.112.738.738 0 0 1 .092-.934.74.74 0 0 1 .523-.217Zm0-10.055c.147 0 .29.043.412.124a.745.745 0 0 1 .315.76.737.737 0 0 1-.582.582.743.743 0 0 1-.76-.315.743.743 0 0 1 .092-.934.74.74 0 0 1 .523-.217Zm0 100.555a.745.745 0 0 1 .684.457.743.743 0 0 1-.16.806.737.737 0 0 1-1.139-.112.738.738 0 0 1 .092-.934.74.74 0 0 1 .523-.217Zm0-10.055c.147 0 .29.043.412.124a.745.745 0 0 1 .315.76.737.737 0 0 1-.582.582.743.743 0 0 1-.76-.315.743.743 0 0 1 .092-.934.74.74 0 0 1 .523-.217Zm8.709-125.695a.744.744 0 0 1 .683.457.746.746 0 0 1 .043.428.74.74 0 1 1-.726-.885Zm8.708 145.806a.737.737 0 0 1 .684.457.735.735 0 0 1-.161.806.738.738 0 0 1-1.263-.523c0-.097.019-.194.057-.283a.735.735 0 0 1 .683-.457Zm0-100.556a.745.745 0 0 1 .684.457.737.737 0 0 1-.161.807.736.736 0 0 1-.806.16.738.738 0 0 1-.4-.967.732.732 0 0 1 .4-.401.744.744 0 0 1 .283-.056Zm0 110.612c.147 0 .29.043.412.124a.745.745 0 0 1 .314.76.737.737 0 0 1-.582.581.735.735 0 0 1-.759-.314.745.745 0 0 1 .092-.935.732.732 0 0 1 .523-.216Zm0-30.167a.737.737 0 0 1 .684.457.735.735 0 0 1-.161.806.738.738 0 0 1-1.263-.523.736.736 0 0 1 .74-.74Zm0-10.056a.745.745 0 0 1 .684.457.737.737 0 0 1-.161.807.744.744 0 0 1-.806.16.738.738 0 0 1-.4-.967.732.732 0 0 1 .4-.401.744.744 0 0 1 .283-.056Zm0 20.111a.745.745 0 0 1 .684.457.737.737 0 0 1-.161.807.736.736 0 0 1-.806.16.738.738 0 0 1-.4-.967.732.732 0 0 1 .4-.401.744.744 0 0 1 .283-.056Zm-8.708-15.083a.736.736 0 0 1 .683.457.746.746 0 0 1 .043.428.745.745 0 0 1-.582.581.742.742 0 0 1-.884-.726.74.74 0 0 1 .74-.74Zm0 30.167a.736.736 0 0 1 .683.457.743.743 0 0 1-.16.806.74.74 0 1 1-.523-1.263Zm0-10.056a.744.744 0 0 1 .683.457.746.746 0 0 1 .043.428.745.745 0 0 1-.582.581.742.742 0 0 1-.884-.726.74.74 0 0 1 .74-.74Zm0-10.056a.744.744 0 0 1 .683.457.747.747 0 0 1 .043.428.735.735 0 0 1-1.009.539.737.737 0 0 1-.457-.683.74.74 0 0 1 .74-.741Zm8.708-95.527a.737.737 0 0 1 .684.457.735.735 0 0 1-.161.806.738.738 0 0 1-1.263-.523.736.736 0 0 1 .74-.74Zm0-20.111a.737.737 0 0 1 .684.457.735.735 0 0 1-.161.806.738.738 0 0 1-1.263-.523.731.731 0 0 1 .217-.524.748.748 0 0 1 .523-.216Zm0 10.055a.745.745 0 0 1 .684.457.737.737 0 0 1-.161.807.744.744 0 0 1-.806.16.738.738 0 0 1-.4-.967.732.732 0 0 1 .4-.401.744.744 0 0 1 .283-.056Zm-8.708 135.75a.744.744 0 0 1 .683.457.746.746 0 0 1 .043.428.747.747 0 0 1-1.009.539.74.74 0 0 1 .283-1.424Zm8.708-165.917a.745.745 0 0 1 .684.457.738.738 0 0 1-.539 1.009.737.737 0 0 1-.76-.314.744.744 0 0 1 .092-.935.732.732 0 0 1 .523-.217Zm0 10.056a.745.745 0 0 1 .684.457.737.737 0 0 1-.161.806.738.738 0 0 1-1.263-.523c0-.097.019-.193.057-.283a.735.735 0 0 1 .683-.457Zm-34.833 30.167a.743.743 0 0 1 .684.457.735.735 0 0 1-.16.806.745.745 0 0 1-.807.161.738.738 0 0 1-.457-.684.74.74 0 0 1 .74-.74Zm0 20.111a.736.736 0 0 1 .684.457.735.735 0 0 1-.16.806.745.745 0 0 1-.807.161.738.738 0 0 1-.457-.684.74.74 0 0 1 .74-.74Zm0-30.167a.736.736 0 0 1 .684.457.735.735 0 0 1-.16.806.745.745 0 0 1-.807.161.738.738 0 0 1-.457-.684.74.74 0 0 1 .74-.74Zm0-10.055a.743.743 0 0 1 .684.456.738.738 0 0 1-.16.807.752.752 0 0 1-.379.203.746.746 0 0 1-.76-.315.738.738 0 0 1 .615-1.151Zm0 50.278a.743.743 0 0 1 .684.456.738.738 0 0 1-.539 1.009.737.737 0 0 1-.76-.314.745.745 0 0 1 .092-.935.743.743 0 0 1 .523-.216Zm0-60.334a.736.736 0 0 1 .684.457.735.735 0 0 1-.16.806.745.745 0 0 1-.807.161.738.738 0 0 1-.457-.684.74.74 0 0 1 .74-.74Zm0 40.222a.744.744 0 0 1 .684.457.737.737 0 0 1-.16.806.745.745 0 0 1-.807.161.738.738 0 0 1-.457-.684.74.74 0 0 1 .74-.74Zm0-50.278a.744.744 0 0 1 .684.457.737.737 0 0 1-.16.807.743.743 0 0 1-1.139-.112.744.744 0 0 1 .092-.935.748.748 0 0 1 .523-.217Zm-8.709 75.417a.745.745 0 0 1 .684.457.743.743 0 0 1-.16.806.737.737 0 0 1-1.139-.112.738.738 0 0 1 .092-.934.74.74 0 0 1 .523-.217Zm0 80.445a.744.744 0 0 1 .684.456.74.74 0 1 1-.684-.456Zm0 10.055a.745.745 0 0 1 .684.457.743.743 0 0 1-.16.806.737.737 0 0 1-1.139-.112.738.738 0 0 1 .092-.934.74.74 0 0 1 .523-.217Zm0-20.111a.737.737 0 0 1 .684.457.743.743 0 0 1-.16.806.737.737 0 0 1-1.139-.112.74.74 0 0 1 .615-1.151Zm17.417-10.056a.745.745 0 0 1 .684.457.738.738 0 0 1-.539 1.009.737.737 0 0 1-.76-.314.744.744 0 0 1 .092-.935.732.732 0 0 1 .523-.217Zm8.708-115.638a.744.744 0 0 1 .684.456.74.74 0 1 1-.684-.456Zm0-10.056a.737.737 0 0 1 .684.457.743.743 0 0 1-.16.806.737.737 0 0 1-1.139-.112.74.74 0 0 1 .615-1.151Zm0-10.056a.745.745 0 0 1 .684.457.746.746 0 0 1 .043.428.745.745 0 0 1-.582.581.735.735 0 0 1-.759-.314.743.743 0 0 1 .614-1.152Zm-8.708 145.806a.745.745 0 0 1 .684.457.737.737 0 0 1-.161.806.738.738 0 0 1-1.263-.523c0-.097.019-.193.057-.283a.735.735 0 0 1 .683-.457Zm0 10.056a.737.737 0 0 1 .684.457.735.735 0 0 1-.161.806.738.738 0 0 1-1.263-.523.731.731 0 0 1 .217-.524.748.748 0 0 1 .523-.216Zm0 10.055a.745.745 0 0 1 .684.457.737.737 0 0 1-.161.807.744.744 0 0 1-.806.16.738.738 0 0 1-.4-.967.732.732 0 0 1 .4-.401.744.744 0 0 1 .283-.056Zm0-150.833a.737.737 0 0 1 .684.457.735.735 0 0 1-.161.806.738.738 0 0 1-1.263-.523c0-.097.019-.194.057-.283a.735.735 0 0 1 .683-.457Zm-8.708 125.694a.744.744 0 0 1 .684.457.735.735 0 0 1-.16.806.745.745 0 0 1-.807.161.738.738 0 0 1-.457-.684.74.74 0 0 1 .74-.74Zm8.708-145.805a.737.737 0 0 1 .684.457.735.735 0 0 1-.161.806.738.738 0 0 1-1.263-.523.736.736 0 0 1 .74-.74Zm0 10.055a.745.745 0 0 1 .684.457.737.737 0 0 1-.161.807.736.736 0 0 1-.806.16.738.738 0 0 1-.4-.967.732.732 0 0 1 .4-.401.744.744 0 0 1 .283-.056Zm-8.708 145.806a.736.736 0 0 1 .684.457.735.735 0 0 1-.16.806.745.745 0 0 1-.807.161.738.738 0 0 1-.457-.684.74.74 0 0 1 .74-.74Zm0 10.056a.743.743 0 0 1 .684.456.738.738 0 0 1-.539 1.009.737.737 0 0 1-.76-.314.745.745 0 0 1 .092-.935.743.743 0 0 1 .523-.216Zm8.708-115.64c.147.001.29.044.412.125a.748.748 0 0 1 .314.76.745.745 0 0 1-.581.581.737.737 0 0 1-.76-.314.744.744 0 0 1 .092-.935.732.732 0 0 1 .523-.217Zm0 10.056a.745.745 0 0 1 .684.457.737.737 0 0 1-.161.806.738.738 0 0 1-1.263-.523c0-.097.019-.193.057-.283a.735.735 0 0 1 .683-.457Zm0 10.056a.737.737 0 0 1 .684.457.735.735 0 0 1-.161.806.738.738 0 0 1-1.263-.523.731.731 0 0 1 .217-.524.748.748 0 0 1 .523-.216Zm0-30.167a.745.745 0 0 1 .684.457.737.737 0 0 1-.161.806.738.738 0 0 1-1.263-.523c0-.097.019-.193.057-.283a.735.735 0 0 1 .683-.457Zm0-10.055c.147 0 .29.043.412.124a.745.745 0 0 1 .314.76.737.737 0 0 1-.582.581.735.735 0 0 1-.759-.314.745.745 0 0 1 .092-.935.732.732 0 0 1 .523-.216Zm-130.625 5.027a.742.742 0 0 1 .726.885.745.745 0 0 1-.582.581.736.736 0 0 1-.76-.315.736.736 0 0 1 .093-.934.75.75 0 0 1 .523-.217Zm0-20.111a.742.742 0 0 1 .726.885.738.738 0 0 1-.582.581.745.745 0 0 1-.76-.315.739.739 0 0 1 .616-1.151Zm0 10.056a.734.734 0 0 1 .684.457.74.74 0 1 1-.684-.457Zm0-20.112a.742.742 0 0 1 .726.885.745.745 0 0 1-.581.581.737.737 0 0 1-.76-.314.742.742 0 0 1 .615-1.152Zm0 40.223a.734.734 0 0 1 .684.457.74.74 0 1 1-.684-.457Zm0 40.222a.742.742 0 0 1 .726.885.738.738 0 0 1-.582.581.745.745 0 0 1-.76-.315.741.741 0 0 1 .616-1.151Zm0 10.055a.743.743 0 0 1 .725.885.745.745 0 0 1-.58.581.737.737 0 0 1-.76-.314.742.742 0 0 1 .615-1.152Zm-8.708 55.306a.735.735 0 0 1 .684.457.738.738 0 0 1-.54 1.009.745.745 0 0 1-.759-.315.738.738 0 0 1 .615-1.151Zm0-140.778a.743.743 0 0 1 .684.457.738.738 0 0 1-.54 1.009.736.736 0 0 1-.759-.315.736.736 0 0 1 .092-.934.739.739 0 0 1 .523-.217Zm8.708 45.25a.742.742 0 0 1 .726.885.745.745 0 0 1-.582.581.736.736 0 0 1-.76-.315.736.736 0 0 1 .093-.934.75.75 0 0 1 .523-.217Zm0 10.056a.734.734 0 0 1 .684.457.74.74 0 1 1-.684-.457Zm-8.708 45.25a.735.735 0 0 1 .684.457.738.738 0 0 1-.54 1.009.745.745 0 0 1-.759-.315.74.74 0 0 1 .615-1.151Zm0-70.389a.735.735 0 0 1 .684.457.738.738 0 0 1-.54 1.009.745.745 0 0 1-.759-.315.74.74 0 0 1 .615-1.151Zm0 10.055a.743.743 0 0 1 .726.885.745.745 0 0 1-.581.581.736.736 0 0 1-.76-.314.742.742 0 0 1 .615-1.152Zm0 10.056a.735.735 0 0 1 .684.457.738.738 0 0 1-.54 1.009.745.745 0 0 1-.759-.315.738.738 0 0 1 .615-1.151Zm0-30.166a.742.742 0 0 1 .684.456.74.74 0 1 1-.684-.456Zm0-10.056a.735.735 0 0 1 .684.457.738.738 0 0 1-.54 1.009.745.745 0 0 1-.759-.315.74.74 0 0 1 .615-1.151Zm0 50.278a.742.742 0 0 1 .684.456.741.741 0 0 1-.967.967.736.736 0 0 1-.457-.683.74.74 0 0 1 .74-.74Zm0 60.333a.735.735 0 0 1 .684.457.738.738 0 0 1-.54 1.009.745.745 0 0 1-.759-.315.74.74 0 0 1 .615-1.151Zm8.708-25.139a.742.742 0 0 1 .726.885.738.738 0 0 1-.582.581.745.745 0 0 1-.76-.315.739.739 0 0 1 .616-1.151Zm-8.708-25.139a.735.735 0 0 1 .684.457.738.738 0 0 1-.54 1.009.736.736 0 0 1-.759-.315.736.736 0 0 1 .092-.934.739.739 0 0 1 .523-.217Zm0 60.333a.743.743 0 0 1 .726.885.745.745 0 0 1-.581.581.736.736 0 0 1-.76-.314.742.742 0 0 1 .615-1.152Zm0-20.11a.742.742 0 0 1 .684.456.74.74 0 1 1-.684-.456Zm0-30.167a.742.742 0 0 1 .684.457.738.738 0 0 1-.54 1.009.745.745 0 0 1-.759-.315.74.74 0 0 1 .615-1.151Zm0 10.055a.743.743 0 0 1 .726.885.738.738 0 0 1-.581.581.736.736 0 0 1-.76-.315.736.736 0 0 1 .092-.934.739.739 0 0 1 .523-.217Zm8.708-25.138a.741.741 0 0 1 .726.884.736.736 0 0 1-.582.581.736.736 0 0 1-.76-.314.742.742 0 0 1 .333-1.095.744.744 0 0 1 .283-.056Zm8.709 35.194a.735.735 0 0 1 .683.457.739.739 0 1 1-.683-.457Zm0 20.111a.735.735 0 0 1 .683.457.741.741 0 0 1-.967.967.739.739 0 0 1 .284-1.424Zm0-30.167a.743.743 0 0 1 .725.885.745.745 0 0 1-.581.581.736.736 0 0 1-.76-.315.736.736 0 0 1 .333-1.094.726.726 0 0 1 .283-.057Zm0 20.112a.741.741 0 0 1 .725.884.736.736 0 0 1-.581.581.736.736 0 0 1-.76-.314.742.742 0 0 1 .333-1.095.744.744 0 0 1 .283-.056Zm0-40.223a.743.743 0 0 1 .725.885.745.745 0 0 1-.581.581.736.736 0 0 1-.76-.315.736.736 0 0 1 .093-.934.75.75 0 0 1 .523-.217Zm0-10.055a.735.735 0 0 1 .683.457.739.739 0 1 1-.683-.457Zm0 20.111a.735.735 0 0 1 .683.457.739.739 0 1 1-.683-.457Zm8.708-85.473a.743.743 0 0 1 .726.885.745.745 0 0 1-.581.581.736.736 0 0 1-.76-.314.741.741 0 0 1 .615-1.152Zm0 10.056a.735.735 0 0 1 .684.457.738.738 0 0 1-.54 1.009.745.745 0 0 1-.76-.315.739.739 0 0 1 .616-1.151ZM52.25 322.065a.743.743 0 0 1 .725.885.745.745 0 0 1-.58.581.737.737 0 0 1-.76-.314.742.742 0 0 1 .615-1.152Zm-8.709-25.138a.734.734 0 0 1 .684.457.74.74 0 1 1-.683-.457Zm8.709-55.306a.743.743 0 0 1 .726.885.738.738 0 0 1-.582.581.745.745 0 0 1-.76-.315.739.739 0 0 1 .616-1.151Zm-8.709 65.361a.742.742 0 0 1 .726.885.745.745 0 0 1-.581.581.736.736 0 0 1-.76-.315.736.736 0 0 1 .092-.934.75.75 0 0 1 .524-.217Zm8.709-125.694a.735.735 0 0 1 .684.457.739.739 0 1 1-.684-.457Zm8.708 25.139a.742.742 0 0 1 .684.456.741.741 0 0 1-.967.967.737.737 0 0 1-.457-.683.74.74 0 0 1 .74-.74ZM43.542 327.093a.742.742 0 0 1 .725.885.745.745 0 0 1-.582.581.736.736 0 0 1-.76-.315.736.736 0 0 1 .093-.934.75.75 0 0 1 .523-.217ZM52.25 221.51a.743.743 0 0 1 .726.885.738.738 0 0 1-.582.581.745.745 0 0 1-.76-.315.741.741 0 0 1 .616-1.151Zm0 10.055a.743.743 0 0 1 .725.885.745.745 0 0 1-.58.581.737.737 0 0 1-.76-.314.742.742 0 0 1 .615-1.152Zm0-30.166a.735.735 0 0 1 .684.457.739.739 0 1 1-.684-.457Zm0 10.056a.741.741 0 0 1 .726.884.736.736 0 0 1-.582.581.736.736 0 0 1-.76-.314.742.742 0 0 1 .333-1.095.744.744 0 0 1 .283-.056Zm0-20.112a.743.743 0 0 1 .726.885.745.745 0 0 1-.582.581.736.736 0 0 1-.76-.315.736.736 0 0 1 .333-1.094.726.726 0 0 1 .283-.057Zm-8.709 125.695a.734.734 0 0 1 .684.457.74.74 0 1 1-.683-.457ZM8.709 347.205a.742.742 0 0 1 .684.456.742.742 0 0 1-.967.967.743.743 0 0 1-.457-.684.74.74 0 0 1 .74-.739Zm0-10.056a.735.735 0 0 1 .684.457.738.738 0 0 1-.54 1.009.745.745 0 0 1-.759-.315.741.741 0 0 1 .615-1.151Zm8.708-155.861a.734.734 0 0 1 .684.457.74.74 0 1 1-.683-.457ZM8.708 306.982a.735.735 0 0 1 .684.457.738.738 0 0 1-.54 1.009.737.737 0 0 1-.759-.315.736.736 0 0 1 .092-.934.739.739 0 0 1 .523-.217Zm0 10.056a.742.742 0 0 1 .684.457.738.738 0 0 1-.54 1.009.745.745 0 0 1-.759-.315.741.741 0 0 1 .615-1.151Zm8.708-125.695a.742.742 0 0 1 .726.885.745.745 0 0 1-.581.581.736.736 0 0 1-.76-.315.736.736 0 0 1 .092-.934.75.75 0 0 1 .524-.217Zm-8.708 135.75a.743.743 0 0 1 .726.884.736.736 0 0 1-.581.582.737.737 0 0 1-.76-.315.736.736 0 0 1 .092-.934.739.739 0 0 1 .523-.217Zm8.708-85.472a.742.742 0 0 1 .726.885.738.738 0 0 1-.581.581.745.745 0 0 1-.76-.315.739.739 0 0 1 .616-1.151Zm0-40.222a.734.734 0 0 1 .684.457.74.74 0 1 1-.683-.457Zm0 50.278a.734.734 0 0 1 .684.457.74.74 0 1 1-.683-.457Zm0-20.112a.742.742 0 0 1 .726.885.745.745 0 0 1-.581.581.737.737 0 0 1-.76-.314.742.742 0 0 1 .616-1.152Zm0-10.055a.742.742 0 0 1 .726.885.738.738 0 0 1-.581.581.745.745 0 0 1-.76-.315.741.741 0 0 1 .616-1.151Zm0-10.055a.741.741 0 0 1 .726.884.736.736 0 0 1-.582.581.736.736 0 0 1-.76-.314.742.742 0 0 1 .333-1.095.744.744 0 0 1 .284-.056Zm-8.708-15.084a.735.735 0 0 1 .684.457.738.738 0 0 1-.54 1.009.745.745 0 0 1-.759-.315.739.739 0 0 1 .615-1.151Zm0 20.111a.735.735 0 0 1 .684.457.738.738 0 0 1-.54 1.009.737.737 0 0 1-.759-.315.736.736 0 0 1 .092-.934.739.739 0 0 1 .523-.217Zm0 20.111a.743.743 0 0 1 .726.884.736.736 0 0 1-.581.582.737.737 0 0 1-.76-.315.736.736 0 0 1 .092-.934.739.739 0 0 1 .523-.217Zm0-10.055a.742.742 0 0 1 .684.457.738.738 0 0 1-.54 1.009.745.745 0 0 1-.759-.315.741.741 0 0 1 .615-1.151Zm0-20.111a.742.742 0 0 1 .684.456.742.742 0 0 1-.54 1.01.745.745 0 0 1-.759-.315.741.741 0 0 1 .615-1.151Zm8.708 55.305a.742.742 0 0 1 .726.885.745.745 0 0 1-.581.581.736.736 0 0 1-.76-.315.736.736 0 0 1 .092-.934.751.751 0 0 1 .524-.217Zm-8.708 35.195a.742.742 0 0 1 .684.456.742.742 0 0 1-.54 1.01.745.745 0 0 1-.759-.315.741.741 0 0 1 .615-1.151Zm0-110.612a.743.743 0 0 1 .726.885.744.744 0 0 1-.581.581.736.736 0 0 1-.76-.314.741.741 0 0 1 .615-1.152Zm0 90.5a.743.743 0 0 1 .726.885.744.744 0 0 1-.581.581.736.736 0 0 1-.76-.314.741.741 0 0 1 .615-1.152Zm0-30.166a.735.735 0 0 1 .684.457.738.738 0 0 1-.54 1.009.745.745 0 0 1-.759-.315.741.741 0 0 1 .615-1.151Zm0 40.222a.735.735 0 0 1 .684.457.738.738 0 0 1-.54 1.009.745.745 0 0 1-.759-.315.739.739 0 0 1 .615-1.151Zm0-20.111a.735.735 0 0 1 .684.457.738.738 0 0 1-.54 1.009.745.745 0 0 1-.759-.315.741.741 0 0 1 .615-1.151Zm0-10.055a.742.742 0 0 1 .684.456.742.742 0 0 1-.967.967.743.743 0 0 1-.457-.684.74.74 0 0 1 .74-.739Zm17.417-70.39a.742.742 0 0 1 .726.885.744.744 0 0 1-.582.581.736.736 0 0 1-.76-.314.742.742 0 0 1 .616-1.152Zm0 70.39a.741.741 0 0 1 .726.884.736.736 0 0 1-.582.581.736.736 0 0 1-.76-.314.742.742 0 0 1 .333-1.095.744.744 0 0 1 .283-.056Zm0 10.055a.734.734 0 0 1 .684.457.741.741 0 0 1-.967.967.739.739 0 0 1 .283-1.424Zm0 10.055a.742.742 0 0 1 .726.885.744.744 0 0 1-.582.581.736.736 0 0 1-.76-.314.742.742 0 0 1 .616-1.152Zm0-30.166a.734.734 0 0 1 .684.457.739.739 0 1 1-.684-.457Zm0-10.056a.742.742 0 0 1 .726.885.745.745 0 0 1-.582.581.736.736 0 0 1-.76-.315.736.736 0 0 1 .093-.934.75.75 0 0 1 .523-.217Zm0 50.278a.742.742 0 0 1 .726.885.738.738 0 0 1-.582.581.745.745 0 0 1-.76-.315.739.739 0 0 1 .616-1.151Zm0 20.111a.742.742 0 0 1 .726.885.745.745 0 0 1-.582.581.736.736 0 0 1-.76-.315.736.736 0 0 1 .093-.934.75.75 0 0 1 .523-.217Zm0 30.167a.734.734 0 0 1 .684.457.739.739 0 1 1-.684-.457Zm-8.709-65.361a.734.734 0 0 1 .684.457.739.739 0 1 1-.683-.457Zm8.709 55.305a.742.742 0 0 1 .726.885.745.745 0 0 1-.582.581.736.736 0 0 1-.76-.315.736.736 0 0 1 .093-.934.75.75 0 0 1 .523-.217Zm0-10.055a.734.734 0 0 1 .684.457.739.739 0 1 1-.684-.457Zm0-90.5a.734.734 0 0 1 .684.457.739.739 0 1 1-.684-.457Zm0 70.389a.734.734 0 0 1 .684.457.739.739 0 1 1-.684-.457Zm-8.709 35.194a.742.742 0 0 1 .726.885.738.738 0 0 1-.581.581.745.745 0 0 1-.76-.315.739.739 0 0 1 .616-1.151Zm0-20.111a.734.734 0 0 1 .684.457.741.741 0 0 1-.967.967.739.739 0 0 1 .284-1.424Zm0 10.055a.742.742 0 0 1 .726.885.745.745 0 0 1-.581.581.736.736 0 0 1-.76-.314.742.742 0 0 1 .616-1.152Zm0-20.11a.742.742 0 0 1 .684.457.738.738 0 0 1-.54 1.008.736.736 0 0 1-.76-.315.736.736 0 0 1 .093-.934.733.733 0 0 1 .524-.216Zm0-10.056a.734.734 0 0 1 .684.457.739.739 0 1 1-.683-.457Zm0-10.056a.742.742 0 0 1 .726.885.745.745 0 0 1-.581.581.736.736 0 0 1-.76-.315.736.736 0 0 1 .092-.934.751.751 0 0 1 .524-.217Zm8.709-75.416a.735.735 0 0 1 .684.457.739.739 0 1 1-.684-.457Zm-8.709 135.75a.734.734 0 0 1 .684.457.74.74 0 1 1-.683-.457Zm8.709-125.695a.743.743 0 0 1 .726.885.745.745 0 0 1-.582.581.736.736 0 0 1-.76-.315.736.736 0 0 1 .093-.934.75.75 0 0 1 .523-.217Zm0-20.111a.743.743 0 0 1 .726.885.738.738 0 0 1-.582.581.745.745 0 0 1-.76-.315.739.739 0 0 1 .616-1.151Zm8.708-15.083a.742.742 0 0 1 .684.457.738.738 0 0 1-.54 1.009.745.745 0 0 1-.759-.315.74.74 0 0 1 .615-1.151Zm52.25 120.667a.742.742 0 0 1 .684.456.74.74 0 1 1-.684-.456Zm8.709-115.64a.742.742 0 0 1 .725.885.744.744 0 0 1-.581.581.736.736 0 0 1-.76-.314.742.742 0 0 1 .615-1.152Zm0 10.056a.742.742 0 0 1 .725.885.738.738 0 0 1-.582.581.745.745 0 0 1-.76-.315.739.739 0 0 1 .616-1.151Zm0 40.222a.742.742 0 0 1 .725.885.745.745 0 0 1-.582.581.736.736 0 0 1-.76-.315.736.736 0 0 1 .093-.934.751.751 0 0 1 .523-.217Zm0-30.166a.734.734 0 0 1 .683.457.739.739 0 1 1-.684-.457Zm0 40.222a.734.734 0 0 1 .683.457.739.739 0 1 1-.684-.457Zm0 10.056a.742.742 0 0 1 .683.457.738.738 0 0 1-.54 1.008.736.736 0 0 1-.76-.314.742.742 0 0 1 .333-1.095.744.744 0 0 1 .284-.056Zm0 10.055a.742.742 0 0 1 .725.885.738.738 0 0 1-.582.581.745.745 0 0 1-.76-.315.741.741 0 0 1 .616-1.151Zm0-50.278a.742.742 0 0 1 .725.885.745.745 0 0 1-.582.581.736.736 0 0 1-.76-.315.736.736 0 0 1 .093-.934.751.751 0 0 1 .523-.217Zm0 10.056a.734.734 0 0 1 .683.457.739.739 0 1 1-.684-.457Zm-8.709-5.028a.735.735 0 0 1 .684.457.738.738 0 0 1-.54 1.009.745.745 0 0 1-.759-.315.74.74 0 0 1 .615-1.151Zm0-10.055a.742.742 0 0 1 .684.456.74.74 0 1 1-.684-.456Zm0 30.166a.735.735 0 0 1 .684.457.738.738 0 0 1-.54 1.009.745.745 0 0 1-.759-.315.738.738 0 0 1 .615-1.151Zm0-10.056a.743.743 0 0 1 .726.885.745.745 0 0 1-.581.581.736.736 0 0 1-.76-.314.742.742 0 0 1 .615-1.152Zm0-40.222a.743.743 0 0 1 .726.884.737.737 0 0 1-.581.582.736.736 0 0 1-.76-.315.736.736 0 0 1 .092-.934.739.739 0 0 1 .523-.217Zm0 10.056a.735.735 0 0 1 .684.457.738.738 0 0 1-.54 1.009.745.745 0 0 1-.759-.315.74.74 0 0 1 .615-1.151Zm0 80.444a.743.743 0 0 1 .726.885.738.738 0 0 1-.581.581.736.736 0 0 1-.76-.315.736.736 0 0 1 .092-.934.739.739 0 0 1 .523-.217Zm0-30.166a.742.742 0 0 1 .684.456.742.742 0 0 1-.54 1.01.745.745 0 0 1-.759-.315.74.74 0 0 1 .615-1.151Zm0 40.222a.735.735 0 0 1 .684.457.738.738 0 0 1-.54 1.009.745.745 0 0 1-.759-.315.74.74 0 0 1 .615-1.151Zm0-20.111a.742.742 0 0 1 .684.457.738.738 0 0 1-.54 1.009.745.745 0 0 1-.759-.315.74.74 0 0 1 .615-1.151Zm0-10.056a.735.735 0 0 1 .684.457.738.738 0 0 1-.54 1.009.736.736 0 0 1-.759-.315.736.736 0 0 1 .092-.934.739.739 0 0 1 .523-.217Zm17.417 0a.744.744 0 0 1 .683.457.737.737 0 0 1-.16.807.747.747 0 0 1-.807.16.743.743 0 0 1-.4-.967.735.735 0 0 1 .401-.401.744.744 0 0 1 .283-.056Zm0 10.056a.736.736 0 0 1 .683.457.735.735 0 0 1-.16.806.74.74 0 1 1-.523-1.263Zm0 10.055a.744.744 0 0 1 .683.457.737.737 0 0 1-.16.807.74.74 0 1 1-.523-1.264Zm0 10.056a.736.736 0 0 1 .683.457.735.735 0 0 1-.16.806.74.74 0 1 1-.523-1.263Zm0-40.222a.736.736 0 0 1 .683.457.735.735 0 0 1-.16.806.74.74 0 1 1-.523-1.263Zm0-10.056a.744.744 0 0 1 .683.457.737.737 0 0 1-.16.806.74.74 0 1 1-.523-1.263Zm0-10.056a.741.741 0 1 1-.283 1.424.737.737 0 0 1-.457-.683.74.74 0 0 1 .74-.741Zm0-10.055a.744.744 0 0 1 .683.457.737.737 0 0 1-.16.806.74.74 0 1 1-.523-1.263Zm-8.709 55.305a.744.744 0 0 1 .725.885.744.744 0 0 1-.58.581.736.736 0 0 1-.76-.314.742.742 0 0 1 .615-1.152Zm-8.708-95.527a.742.742 0 0 1 .684.457.738.738 0 0 1-.54 1.009.745.745 0 0 1-.759-.315.74.74 0 0 1 .615-1.151Zm8.709 115.639a.734.734 0 0 1 .683.457.739.739 0 1 1-.684-.457Zm0-10.056a.742.742 0 0 1 .725.885.738.738 0 0 1-.582.581.745.745 0 0 1-.76-.315.739.739 0 0 1 .616-1.151Zm8.708-75.416a.743.743 0 0 1 .684.457.743.743 0 0 1-.54 1.008.738.738 0 0 1-.667-1.249.744.744 0 0 1 .523-.216Zm0-10.056a.736.736 0 0 1 .683.457.735.735 0 0 1-.16.806.74.74 0 1 1-.523-1.263Zm0-10.056a.744.744 0 0 1 .683.457.737.737 0 0 1-.16.807.74.74 0 1 1-.523-1.264Zm0-10.055a.736.736 0 0 1 .683.457.735.735 0 0 1-.16.806.74.74 0 1 1-.523-1.263Zm-34.834 30.167a.741.741 0 0 1 .726.884.736.736 0 0 1-.582.581.736.736 0 0 1-.76-.314.742.742 0 0 1 .333-1.095.744.744 0 0 1 .284-.056Zm0-10.056a.734.734 0 0 1 .684.457.74.74 0 1 1-.684-.457Zm0 30.166a.743.743 0 0 1 .726.885.745.745 0 0 1-.581.581.737.737 0 0 1-.76-.314.742.742 0 0 1 .616-1.152Zm0-10.055a.742.742 0 0 1 .726.885.738.738 0 0 1-.582.581.745.745 0 0 1-.76-.315.741.741 0 0 1 .616-1.151Zm0-40.222a.734.734 0 0 1 .684.457.74.74 0 1 1-.684-.457Zm0 10.055a.742.742 0 0 1 .726.885.745.745 0 0 1-.582.581.736.736 0 0 1-.76-.315.736.736 0 0 1 .093-.934.75.75 0 0 1 .523-.217Zm0 100.556a.734.734 0 0 1 .684.457.74.74 0 1 1-.684-.457Zm0-10.056a.742.742 0 0 1 .726.885.745.745 0 0 1-.582.581.736.736 0 0 1-.76-.315.736.736 0 0 1 .093-.934.75.75 0 0 1 .523-.217Zm0-40.222a.742.742 0 0 1 .726.885.738.738 0 0 1-.582.581.745.745 0 0 1-.76-.315.739.739 0 0 1 .616-1.151Zm0 30.167a.734.734 0 0 1 .684.457.74.74 0 1 1-.684-.457Zm0-20.111a.734.734 0 0 1 .684.457.74.74 0 1 1-.684-.457Zm-8.708 15.083a.735.735 0 0 1 .684.457.738.738 0 0 1-.54 1.009.745.745 0 0 1-.759-.315.74.74 0 0 1 .615-1.151Zm0-10.055a.742.742 0 0 1 .684.456.74.74 0 1 1-.684-.456Zm8.709 45.25a.741.741 0 0 1 .725.884.736.736 0 0 1-.582.581.736.736 0 0 1-.76-.314.742.742 0 0 1 .333-1.095.744.744 0 0 1 .284-.056Zm-8.709-55.306a.735.735 0 0 1 .684.457.738.738 0 0 1-.54 1.009.745.745 0 0 1-.759-.315.74.74 0 0 1 .615-1.151Zm0 30.166a.743.743 0 0 1 .726.885.745.745 0 0 1-.581.581.736.736 0 0 1-.76-.314.742.742 0 0 1 .615-1.152Zm0-50.277a.742.742 0 0 1 .684.457.738.738 0 0 1-.54 1.009.745.745 0 0 1-.759-.315.74.74 0 0 1 .615-1.151Zm0 10.055a.743.743 0 0 1 .726.885.738.738 0 0 1-.581.581.736.736 0 0 1-.76-.315.736.736 0 0 1 .092-.934.739.739 0 0 1 .523-.217Zm0 80.445a.742.742 0 0 1 .684.457.737.737 0 0 1-.16.806.74.74 0 1 1-.524-1.263Zm0-20.111a.742.742 0 0 1 .684.456.741.741 0 0 1-.967.967.736.736 0 0 1-.457-.683.74.74 0 0 1 .74-.74Zm0 10.055a.735.735 0 0 1 .684.457.738.738 0 0 1-.54 1.009.736.736 0 0 1-.759-.315.736.736 0 0 1 .092-.934.739.739 0 0 1 .523-.217Zm0-20.111a.735.735 0 0 1 .684.457.738.738 0 0 1-.54 1.009.745.745 0 0 1-.759-.315.738.738 0 0 1 .615-1.151Zm8.709-25.139a.742.742 0 0 1 .725.885.745.745 0 0 1-.582.581.736.736 0 0 1-.76-.315.736.736 0 0 1 .093-.934.75.75 0 0 1 .523-.217Zm8.708-15.083a.735.735 0 0 1 .683.457.739.739 0 1 1-.683-.457Zm0 60.333a.743.743 0 0 1 .725.885.745.745 0 0 1-.581.581.736.736 0 0 1-.76-.315.736.736 0 0 1 .093-.934.75.75 0 0 1 .523-.217Zm-17.417-90.5a.735.735 0 0 1 .684.457.738.738 0 0 1-.54 1.009.736.736 0 0 1-.76-.315.736.736 0 0 1 .093-.934.739.739 0 0 1 .523-.217Zm17.417 20.111a.743.743 0 0 1 .725.885.745.745 0 0 1-.581.581.736.736 0 0 1-.76-.315.736.736 0 0 1 .333-1.094.726.726 0 0 1 .283-.057Zm0-10.055a.735.735 0 0 1 .683.457.739.739 0 1 1-.683-.457Zm0 60.333a.743.743 0 0 1 .725.885.738.738 0 0 1-.581.581.745.745 0 0 1-.76-.315.739.739 0 0 1 .616-1.151Zm0-10.056a.744.744 0 0 1 .726.885.745.745 0 0 1-.582.581.737.737 0 0 1-.76-.314.742.742 0 0 1 .616-1.152Zm0-20.11a.741.741 0 0 1 .725.884.736.736 0 0 1-.581.581.736.736 0 0 1-.76-.314.742.742 0 0 1 .333-1.095.744.744 0 0 1 .283-.056Zm0 10.055a.743.743 0 0 1 .725.885.738.738 0 0 1-.581.581.745.745 0 0 1-.76-.315.741.741 0 0 1 .616-1.151Zm-8.709 45.25a.742.742 0 0 1 .726.885.738.738 0 0 1-.582.581.745.745 0 0 1-.76-.315.741.741 0 0 1 .616-1.151Zm8.709-105.583a.735.735 0 0 1 .683.457.739.739 0 1 1-.683-.457Zm0-20.112a.743.743 0 0 1 .726.885.745.745 0 0 1-.582.581.737.737 0 0 1-.76-.314.742.742 0 0 1 .616-1.152Zm0 30.167a.743.743 0 0 1 .725.885.745.745 0 0 1-.581.581.736.736 0 0 1-.76-.315.736.736 0 0 1 .093-.934.75.75 0 0 1 .523-.217Zm0 80.445a.735.735 0 0 1 .683.457.739.739 0 1 1-.683-.457Zm0-100.556a.743.743 0 0 1 .725.885.738.738 0 0 1-.581.581.745.745 0 0 1-.76-.315.739.739 0 0 1 .616-1.151Z"/><path fill="#CBCCCD" d="m355.564 297.667-104.5-60.334L355.575 177h2.946l-104.505 60.333 104.5 60.334-44.941 25.947-.075.043L209 263.329v-1.705l104.5 60.333 42.064-24.29Zm34.836 0-104.5-60.334L390.405 177h2.951l-104.505 60.333 104.5 60.334-79.776 46.057-.075.043L209 283.44v-1.705l104.5 60.333 76.9-44.401Zm-17.415 0-104.5-60.334L372.99 177h2.952l-104.506 60.333 104.5 60.334-62.361 36.005-.075.043L209 273.382v-1.705l104.5 60.333 59.485-34.343Zm34.829 0-104.5-60.334L407.825 177h2.946l-104.505 60.333 104.5 60.334-97.191 56.116-.075.043L209 293.493v-1.705l104.5 60.333 94.314-54.454Zm-69.664 0-104.5-60.334L338.155 177h2.951l-104.505 60.333 104.5 60.334-27.526 15.893-.075.043L209 253.271v-1.706l104.5 60.334 24.65-14.232Zm-17.415 0-104.5-60.334L320.74 177h2.952l-104.506 60.333 104.5 60.334-10.187 5.885L209 243.218v-1.705l104.5 60.333 7.235-4.179ZM24.649 358h2.952L209 253.269v-1.704L24.874 357.87l-.225.13Zm-17.191-.13L209 241.509v1.704L10.185 358H7.233l.225-.13Zm52.25 0L209 271.675v1.704L62.434 358h-2.951l.225-.13Zm-17.417 0L209 261.619v1.704L45.017 358h-2.95l.224-.13Zm34.833 0L209 281.731v1.704L79.851 358h-2.952l.225-.13Zm17.417 0L209 291.785v1.704L97.267 358h-2.951l.225-.13ZM24.649 177h2.952L209 72.269v-1.704L24.874 176.87l-.225.13Zm-17.191-.13L209 60.509v1.704L10.185 177H7.233l.225-.13Zm52.25 0L209 90.675v1.704L62.434 177h-2.951l.225-.13Zm-17.417 0L209 80.62v1.703L45.017 177h-2.95l.224-.13Zm34.833 0L209 100.731v1.704L79.851 177h-2.952l.225-.13Zm17.417 0L209 110.785v1.704L97.267 177h-2.951l.225-.13Zm17.191.13h2.952L209 122.546v-1.704l-97.043 56.028-.225.13Zm87.084 0L209 171.119v1.704L201.767 177h-2.951Zm-69.442-.13L209 130.898v1.704L132.1 177h-2.951l.225-.13Zm17.416 0L209 140.952v1.704L149.517 177h-2.952l.225-.13Zm34.834 0L209 161.064v1.705L184.351 177h-2.952l.225-.13Zm-17.417 0L209 151.008v1.704L166.934 177h-2.952l.225-.13ZM.075 132.559 209 11.935v-1.703L0 130.898v1.705l.075-.044ZM0 142.657v-1.704L209 20.286v1.704L.075 142.614l-.075.043Zm0-20.11v-1.705L209 .176V1.88L.075 122.504l-.075.043Zm0 30.166v-1.704L209 30.342v1.704L.075 152.67l-.075.043Zm0 10.056v-1.704L209 40.398v1.704L.075 162.725l-.075.044Zm0 10.055v-1.704L209 50.453v1.704L.075 172.781l-.075.043ZM393.351 177h-2.952L209 72.269v-1.704L393.126 176.87l.225.13Zm17.191-.13L209 60.509v1.704L407.816 177h2.951l-.225-.13Zm-52.25 0L209 90.675v1.704L355.566 177h2.951l-.225-.13Zm17.417 0L209 80.62v1.703L372.983 177h2.951l-.225-.13Zm-34.833 0L209 100.731v1.704L338.149 177h2.952l-.225-.13Zm-17.417 0L209 110.785v1.704L320.733 177h2.951l-.225-.13Zm-17.191.13h-2.952L209 122.546v-1.704l97.043 56.028.225.13Zm-87.084 0L209 171.119v1.704l7.233 4.177h2.951Zm69.442-.13L209 130.898v1.704L285.9 177h2.951l-.225-.13Zm-17.416 0L209 140.952v1.704L268.483 177h2.952l-.225-.13Zm-34.834 0L209 161.064v1.705L233.65 177h2.951l-.225-.13Zm17.417 0L209 151.008v1.704L251.067 177h2.951l-.225-.13Zm-97.042 316.028-52.251 30.17-76.9-44.401 104.5-60.334L27.596 358h-2.952l104.506 60.333-104.5 60.334 79.483 45.891.368.209 52.249-30.163L209 524.768v-1.705l-51.882-29.948-.367-.217Zm-.001 10.059-52.25 30.164-94.314-54.454 104.499-60.334L10.175 358H7.229l104.506 60.333-104.5 60.334 96.898 55.949.368.21 52.249-30.169L209 534.826v-1.705l-51.883-29.954-.367-.21Zm0-20.111L104.5 513.01l-59.485-34.343 104.5-60.334L45.01 358h-2.952l104.507 60.333-104.5 60.334 62.068 35.838.368.21 52.249-30.164L209 514.715v-1.705l-51.882-29.954-.368-.21Zm.001-30.17-52.251 30.17-7.235-4.179 104.5-60.334L97.26 358h-2.952l104.507 60.333-104.5 60.334 10.185 5.884 52.25-30.169L209 484.545v-1.704l-51.881-29.948-.368-.217Zm0 20.111-52.251 30.17-42.064-24.29 104.499-60.334L62.425 358h-2.946l104.506 60.333-104.5 60.334 44.648 25.78.368.21 52.249-30.164L209 504.657v-1.705l-51.881-29.948-.368-.217Zm-.001-10.052-52.25 30.164-24.65-14.232 104.5-60.334L79.846 358h-2.952L181.4 418.333 76.9 478.667l27.6 15.937 52.25-30.164L209 494.604v-1.705l-51.882-29.953-.368-.211ZM306.268 539h-2.952L209 484.545v-1.703l97.043 56.028.225.13Zm-87.084 0L209 533.119v1.704l7.233 4.177h2.951Zm69.442-.13L209 492.897v1.705L285.9 539h2.951l-.225-.13Zm-17.416 0L209 502.952v1.705L268.483 539h2.952l-.225-.13Zm-34.834 0L209 523.063v1.705L233.65 539h2.951l-.225-.13Zm17.417 0L209 513.008v1.704L251.067 539h2.951l-.225-.13Z"/></g></svg>