<svg width="175" height="350" viewBox="0 0 175 350" fill="none" xmlns="http://www.w3.org/2000/svg"><mask id="a" style="mask-type:alpha" maskUnits="userSpaceOnUse" x="0" y="0" width="175" height="350"><path d="M0 0h175v350H0V0Z" fill="#C4C4C4"/></mask><g mask="url(#a)" fill="#fff"><g clip-path="url(#b)"><path d="M74.276 367h-2.302L12 319.904v-1.808l62.101 48.766.175.138Zm-56.635 0L12 362.57v-1.808L19.943 367h-2.302Zm70.219 0h-2.303L12 309.237v-1.808l75.684 59.433.176.138Zm-43.053 0L12 341.237v-1.808L47.11 367h-2.303Zm13.584 0L12 330.57v-1.808L60.693 367h-2.302Zm-27.167 0L12 351.904v-1.808L33.526 367h-2.302ZM85.558 175h2.302l39.885 31.323.101.08-.575 1.356L85.558 175Zm35.499 36.735-.575 1.356L71.973 175h2.302l46.681 36.655.101.08Zm-27.168 21.333-.575 1.356-75.497-59.286-.176-.138h2.302l73.845 57.988.101.08Zm13.582-10.67-.575 1.356-61.91-48.616-.177-.138h2.302l60.259 47.319.101.079Zm6.793-5.331-.575 1.356L58.391 175h2.303l53.469 41.987.101.08Zm-13.582 10.669-.575 1.356-68.708-53.954-.176-.138h2.302l67.056 52.657.101.079ZM19.943 303l81.324 63.862.176.138h-2.302l-81.324-63.862-.176-.138 116.322-91.345.287-.226L175 243.43v1.808l-40.75-32.001L19.943 303Zm13.583 0 81.325 63.862.175.138h-2.302L31.4 303.138l-.176-.138 102.739-80.678.287-.226 40.75 32v1.808l-40.75-32L33.526 303Zm13.583 0 81.325 63.862.175.138h-2.302l-81.324-63.862-.175-.138 89.155-70.012.287-.225 40.75 32v1.808l-40.75-32.001L47.11 303Zm40.75 0 81.325 63.862.175.138h-2.302l-81.324-63.862-.175-.138 48.405-38.011.287-.226 40.75 32v1.807l-40.75-31.999L87.86 303Zm-13.583 0 81.325 63.862.175.138h-2.302L72.15 303.138l-.176-.138 61.989-48.678.287-.226 40.75 32v1.808l-40.75-32L74.276 303Zm-13.583 0 81.324 63.862.176.138h-2.303l-81.323-63.862-.176-.138 75.572-59.345.287-.226L175 275.43v1.807l-40.75-32L60.693 303Z"/></g><path d="M74.276 175h-2.302L12 127.904v-1.808l62.101 48.766.175.138Zm-56.635 0L12 170.57v-1.808L19.943 175h-2.302Zm70.219 0h-2.303L12 117.237v-1.808l75.684 59.433.176.138Zm-43.053 0L12 149.237v-1.808L47.11 175h-2.303Zm13.584 0L12 138.57v-1.808L60.693 175h-2.302Zm-27.167 0L12 159.904v-1.808L33.526 175h-2.302ZM85.558-17h2.302l39.885 31.323.101.08-.575 1.356L85.558-17Zm35.499 36.735-.575 1.356L71.973-17h2.302l46.681 36.655.101.08ZM93.889 41.068l-.575 1.356-75.497-59.286-.176-.138h2.302l73.845 57.988.101.08Zm13.582-10.67-.575 1.356-61.91-48.616-.177-.138h2.302l60.259 47.319.101.08Zm6.793-5.331-.575 1.355L58.391-17h2.303l53.469 41.987.101.08Zm-13.582 10.67-.575 1.355-68.708-53.954-.176-.138h2.302l67.056 52.657.101.08ZM19.943 111l81.324 63.862.176.138h-2.302l-81.324-63.862-.176-.138 116.322-91.345.287-.226 40.75 32v1.809l-40.75-32.001L19.943 111Zm13.583 0 81.325 63.862.175.138h-2.302L31.4 111.138l-.176-.138 102.739-80.678.287-.226 40.75 32v1.808l-40.75-32L33.526 111Zm13.583 0 81.325 63.862.175.138h-2.302l-81.324-63.862-.175-.138 89.155-70.011.287-.226 40.75 32v1.808l-40.75-32L47.11 111Zm40.75 0 81.325 63.862.175.138h-2.302l-81.324-63.862-.175-.138 48.405-38.011.287-.226 40.75 32v1.807l-40.75-32L87.86 111Zm-13.583 0 81.325 63.862.175.138h-2.302L72.15 111.138l-.176-.138 61.989-48.678.287-.226 40.75 32v1.808l-40.75-32L74.276 111Zm-13.583 0 81.324 63.862.176.138h-2.303l-81.323-63.862-.176-.138 75.572-59.345.287-.226 40.75 32v1.808l-40.75-32L60.693 111Z"/></g><defs><clipPath id="b"><path fill="#fff" transform="translate(12 175)" d="M0 0h163v192H0z"/></clipPath></defs></svg>