<svg width="1348" height="530" viewBox="0 0 1348 530" fill="none" xmlns="http://www.w3.org/2000/svg">
<mask id="mask0_655_32663" style="mask-type:alpha" maskUnits="userSpaceOnUse" x="0" y="0" width="1348" height="530">
<rect width="1348" height="530" fill="#D9D9D9"/>
</mask>
<g mask="url(#mask0_655_32663)">
<path d="M1111 -8.48535L1009.46 312.071L93 312.071L93.0001 -8.4854L1111 -8.48535Z" fill="url(#paint0_linear_655_32663)"/>
<path d="M1112 631.685L1038.79 311.128L378 311.128L378 631.685L1112 631.685Z" fill="url(#paint1_linear_655_32663)"/>
<rect x="-15" y="-8.48535" width="727" height="642.056" fill="url(#paint2_linear_655_32663)"/>
<path d="M273.725 178.473C228.981 178.473 184.674 186.8 143.336 202.98C101.997 219.159 64.4361 242.873 32.7969 272.768C1.1577 302.663 -23.9399 338.154 -41.0629 377.214C-58.1859 416.274 -66.999 458.138 -66.999 500.417C-66.999 542.695 -58.1859 584.559 -41.0629 623.619C-23.9399 662.679 1.15766 698.17 32.7968 728.065C64.436 757.96 101.997 781.675 143.336 797.854C184.674 814.033 228.981 822.36 273.725 822.36L273.725 500.417L273.725 178.473Z" fill="url(#paint3_angular_655_32663)"/>
<path d="M275.22 822.36C319.964 822.36 364.271 814.033 405.609 797.854C446.948 781.675 484.509 757.961 516.148 728.065C547.788 698.17 572.885 662.679 590.008 623.619C607.131 584.559 615.944 542.695 615.944 500.417C615.944 458.139 607.131 416.274 590.008 377.214C572.885 338.154 547.788 302.663 516.148 272.768C484.509 242.873 446.948 219.159 405.61 202.98C364.271 186.8 319.965 178.473 275.22 178.473L275.22 500.417L275.22 822.36Z" fill="url(#paint4_radial_655_32663)"/>
<path d="M273.725 822.361C302.77 822.361 331.53 814.033 358.364 797.854C385.198 781.675 409.579 757.961 430.117 728.065C450.655 698.17 466.946 662.679 478.061 623.619C489.176 584.559 494.897 542.695 494.897 500.417C494.897 458.139 489.176 416.274 478.061 377.214C466.946 338.154 450.655 302.663 430.117 272.768C409.579 242.873 385.198 219.159 358.364 202.98C331.53 186.8 302.77 178.473 273.725 178.473L273.725 500.417L273.725 822.361Z" fill="#FCA5B4"/>
<path d="M275.219 822.334C319.964 822.334 364.27 814.007 405.609 797.828C446.947 781.648 484.508 757.934 516.148 728.039C547.787 698.144 572.884 662.653 590.007 623.593C607.13 584.533 615.943 542.669 615.943 500.39C615.943 458.112 607.13 416.248 590.007 377.188C572.884 338.128 547.787 302.637 516.148 272.742C484.508 242.847 446.947 219.132 405.609 202.953C364.27 186.774 319.964 178.447 275.219 178.447L275.219 500.39L275.219 822.334Z" fill="url(#paint5_angular_655_32663)"/>
<path d="M275.219 822.334C319.964 822.334 364.27 814.007 405.609 797.828C446.947 781.648 484.508 757.934 516.148 728.039C547.787 698.144 572.884 662.653 590.007 623.593C607.13 584.533 615.943 542.669 615.943 500.39C615.943 458.112 607.13 416.248 590.007 377.188C572.884 338.128 547.787 302.637 516.148 272.742C484.508 242.847 446.947 219.132 405.609 202.953C364.27 186.774 319.964 178.447 275.219 178.447L275.219 500.39L275.219 822.334Z" fill="url(#paint6_linear_655_32663)"/>
<path d="M273.725 178.447C228.98 178.447 184.674 186.774 143.335 202.954C101.997 219.133 64.4356 242.847 32.7964 272.742C1.15721 302.637 -23.9404 338.128 -41.0634 377.188C-58.1864 416.248 -66.9995 458.113 -66.9995 500.391C-66.9995 542.669 -58.1864 584.533 -41.0634 623.593C-23.9404 662.653 1.15718 698.144 32.7963 728.039C64.4355 757.935 101.997 781.649 143.335 797.828C184.674 814.007 228.98 822.335 273.725 822.335L273.725 500.391L273.725 178.447Z" fill="url(#paint7_radial_655_32663)"/>
<path d="M275.46 178.393C243.026 178.393 210.91 186.721 180.945 202.901C150.98 219.082 123.754 242.798 100.82 272.696C77.8857 302.594 59.6934 338.087 47.2816 377.151C34.8698 416.214 28.4815 458.082 28.4815 500.364C28.4815 542.646 34.8698 584.514 47.2816 623.577C59.6934 662.64 77.8856 698.134 100.82 728.032C123.754 757.93 150.98 781.646 180.945 797.826C210.91 814.007 243.026 822.335 275.459 822.335L275.459 500.364L275.46 178.393Z" fill="url(#paint8_radial_655_32663)"/>
<path d="M275.459 178.393C251.568 178.393 227.91 186.721 205.837 202.901C183.765 219.082 163.709 242.798 146.815 272.696C129.921 302.594 116.52 338.087 107.377 377.151C98.2346 416.214 93.5289 458.082 93.5289 500.364C93.5288 542.646 98.2346 584.514 107.377 623.577C116.52 662.64 129.921 698.134 146.815 728.032C163.709 757.93 183.765 781.646 205.837 797.826C227.91 814.007 251.568 822.335 275.459 822.335L275.459 500.364L275.459 178.393Z" fill="url(#paint9_radial_655_32663)"/>
<path d="M275.459 178.393C259.309 178.393 243.317 186.721 228.397 202.901C213.476 219.082 199.919 242.798 188.499 272.696C177.079 302.594 168.02 338.087 161.84 377.151C155.66 416.214 152.479 458.082 152.479 500.364C152.479 542.646 155.66 584.514 161.84 623.577C168.02 662.64 177.079 698.134 188.499 728.032C199.919 757.93 213.476 781.646 228.397 797.826C243.317 814.007 259.309 822.335 275.459 822.335L275.459 500.364L275.459 178.393Z" fill="url(#paint10_linear_655_32663)"/>
<path opacity="0.9" fill-rule="evenodd" clip-rule="evenodd" d="M1114 -8.4794L642 312.077L978.781 312.077L1114 -8.4794Z" fill="url(#paint11_linear_655_32663)"/>
<path d="M976.286 312.076L1114.46 -8.48011L1252.29 312.076L1114.46 632.633L976.286 312.076Z" fill="#FFE27D"/>
<path d="M976.286 312.076L1114.46 -8.48011L1252.29 312.076L1114.46 632.633L976.286 312.076Z" fill="url(#paint12_linear_655_32663)" fill-opacity="0.7"/>
<mask id="mask1_655_32663" style="mask-type:alpha" maskUnits="userSpaceOnUse" x="976" y="-9" width="277" height="642">
<path d="M976.286 312.076L1114.46 -8.48016L1252.29 312.076L1114.46 632.633L976.286 312.076Z" fill="#FFE27D"/>
<path d="M976.286 312.076L1114.46 -8.48016L1252.29 312.076L1114.46 632.633L976.286 312.076Z" fill="url(#paint13_linear_655_32663)" fill-opacity="0.7"/>
</mask>
<g mask="url(#mask1_655_32663)">
<g filter="url(#filter0_f_655_32663)">
<path d="M1134.11 28.2315L1264.95 312.679L1212.95 430.076L1134.11 28.2315Z" fill="#DE7226" fill-opacity="0.8"/>
</g>
</g>
<path opacity="0.9" fill-rule="evenodd" clip-rule="evenodd" d="M1114 -8.48001L1586 312.076L1249.22 312.076L1114 -8.48001Z" fill="url(#paint14_radial_655_32663)"/>
<g opacity="0.9">
<path fill-rule="evenodd" clip-rule="evenodd" d="M1114 632.633L642 312.076L978.781 312.076L1114 632.633Z" fill="url(#paint15_linear_655_32663)"/>
<path fill-rule="evenodd" clip-rule="evenodd" d="M1114 632.633L642 312.076L978.781 312.076L1114 632.633Z" fill="url(#paint16_linear_655_32663)" fill-opacity="0.1"/>
</g>
<path opacity="0.9" fill-rule="evenodd" clip-rule="evenodd" d="M1114 632.633L1586 312.076L1249.22 312.076L1114 632.633Z" fill="url(#paint17_radial_655_32663)"/>
<path d="M439.227 -12.687L1091.8 -8.56227L890.804 319.671L238.227 315.546L439.227 -12.687Z" fill="url(#paint18_linear_655_32663)"/>
<path d="M234.452 306.966L891.777 310.409L1094.43 637.092L438.302 635.934L234.452 306.966Z" fill="url(#paint19_linear_655_32663)"/>
<path d="M1092.94 -18.8172L1490.52 -14.6923L1289.52 313.541L891.939 309.416L1092.94 -18.8172Z" fill="url(#paint20_linear_655_32663)"/>
<path d="M890.265 309.321L1292.59 312.764L1495.24 639.446L1094.12 638.289L890.265 309.321Z" fill="#343359"/>
<path d="M1488.52 -12.8057L1694.99 311.876L1287.52 315.427L1488.52 -12.8057Z" fill="url(#paint21_linear_655_32663)"/>
<path d="M1694.99 311.875L1493.24 641.333L1290.32 313.685L1694.99 311.875Z" fill="url(#paint22_linear_655_32663)"/>
<path d="M1109.77 434.004L1546.46 431.244L1411.96 211.597L975.263 214.357L1109.77 434.004Z" fill="url(#paint23_linear_655_32663)"/>
<path d="M935.002 212.905L1374.87 210.601L1510.48 -8.00893L1071.41 -7.23411L935.002 212.905Z" fill="url(#paint24_linear_655_32663)"/>
<path d="M1358.66 201.237L1626.87 203.532L1761.98 421.321L1494.56 420.549L1358.66 201.237Z" fill="#083552"/>
</g>
<defs>
<filter id="filter0_f_655_32663" x="1089.11" y="-16.7686" width="220.841" height="491.845" filterUnits="userSpaceOnUse" color-interpolation-filters="sRGB">
<feFlood flood-opacity="0" result="BackgroundImageFix"/>
<feBlend mode="normal" in="SourceGraphic" in2="BackgroundImageFix" result="shape"/>
<feGaussianBlur stdDeviation="22.5" result="effect1_foregroundBlur_655_32663"/>
</filter>
<linearGradient id="paint0_linear_655_32663" x1="1111" y1="0.942781" x2="-78.3327" y2="262.941" gradientUnits="userSpaceOnUse">
<stop stop-color="#F5BE9E"/>
<stop offset="0.392144" stop-color="#EA9A6B" stop-opacity="0.685683"/>
<stop offset="0.835457" stop-color="#D9D9D9" stop-opacity="0"/>
</linearGradient>
<linearGradient id="paint1_linear_655_32663" x1="911.225" y1="596.8" x2="234.417" y2="486.038" gradientUnits="userSpaceOnUse">
<stop stop-color="#A13E3F"/>
<stop offset="0.551867" stop-color="#EA9A6B" stop-opacity="0.685683"/>
<stop offset="0.807292" stop-color="#D9D9D9" stop-opacity="0"/>
</linearGradient>
<linearGradient id="paint2_linear_655_32663" x1="79.1358" y1="278.241" x2="677.975" y2="278.241" gradientUnits="userSpaceOnUse">
<stop stop-color="#4F1240"/>
<stop offset="1" stop-color="#D9D9D9" stop-opacity="0"/>
</linearGradient>
<radialGradient id="paint3_angular_655_32663" cx="0" cy="0" r="1" gradientUnits="userSpaceOnUse" gradientTransform="translate(273.725 500.417) rotate(78.7709) scale(368.36 434.831)">
<stop stop-color="#BF3A86"/>
<stop offset="1" stop-color="#651A45"/>
</radialGradient>
<radialGradient id="paint4_radial_655_32663" cx="0" cy="0" r="1" gradientUnits="userSpaceOnUse" gradientTransform="translate(275.22 500.417) scale(1403.25 1325.9)">
<stop offset="0.162495" stop-color="#360F24"/>
<stop offset="0.276853" stop-color="#8E1A58" stop-opacity="0.71"/>
</radialGradient>
<radialGradient id="paint5_angular_655_32663" cx="0" cy="0" r="1" gradientUnits="userSpaceOnUse" gradientTransform="translate(275.219 500.39) rotate(-117.972) scale(294.065 340.078)">
<stop stop-color="#BF3A86"/>
<stop offset="1" stop-color="#651A45"/>
</radialGradient>
<linearGradient id="paint6_linear_655_32663" x1="942.256" y1="472.574" x2="275.518" y2="472.016" gradientUnits="userSpaceOnUse">
<stop offset="0.565549" stop-color="#FDA8B5"/>
<stop offset="0.989329" stop-color="#ED78A5"/>
</linearGradient>
<radialGradient id="paint7_radial_655_32663" cx="0" cy="0" r="1" gradientUnits="userSpaceOnUse" gradientTransform="translate(273.725 500.391) rotate(-180) scale(1403.25 1325.9)">
<stop offset="0.162495" stop-color="#360F24"/>
<stop offset="0.276853" stop-color="#7A1262"/>
</radialGradient>
<radialGradient id="paint8_radial_655_32663" cx="0" cy="0" r="1" gradientUnits="userSpaceOnUse" gradientTransform="translate(275.46 500.364) rotate(-180) scale(1017.16 1326.01)">
<stop offset="0.114583" stop-color="#360F24"/>
<stop offset="0.276853" stop-color="#AB2E80"/>
</radialGradient>
<radialGradient id="paint9_radial_655_32663" cx="0" cy="0" r="1" gradientUnits="userSpaceOnUse" gradientTransform="translate(275.459 500.364) rotate(180) scale(749.265 1326.01)">
<stop offset="0.114583" stop-color="#360F24"/>
<stop offset="0.237386" stop-color="#D24F90"/>
</radialGradient>
<linearGradient id="paint10_linear_655_32663" x1="152.479" y1="500.364" x2="398.44" y2="500.364" gradientUnits="userSpaceOnUse">
<stop stop-color="#E3729D"/>
<stop offset="1" stop-color="#FDABCA"/>
</linearGradient>
<linearGradient id="paint11_linear_655_32663" x1="1174.96" y1="43.8667" x2="968.115" y2="375.185" gradientUnits="userSpaceOnUse">
<stop stop-color="#EBA67C"/>
<stop offset="0.526042" stop-color="#FCCAAE"/>
<stop offset="1" stop-color="#E5846D"/>
</linearGradient>
<linearGradient id="paint12_linear_655_32663" x1="1202.29" y1="219.934" x2="1000.08" y2="410.904" gradientUnits="userSpaceOnUse">
<stop offset="0.0170241" stop-color="#FFA24D"/>
<stop offset="1" stop-color="#F7D5AC"/>
</linearGradient>
<linearGradient id="paint13_linear_655_32663" x1="1202.29" y1="219.934" x2="1000.08" y2="410.904" gradientUnits="userSpaceOnUse">
<stop offset="0.0170241" stop-color="#FFA24D"/>
<stop offset="1" stop-color="#FDF5EA"/>
</linearGradient>
<radialGradient id="paint14_radial_655_32663" cx="0" cy="0" r="1" gradientUnits="userSpaceOnUse" gradientTransform="translate(1244.21 299.484) rotate(-88.1576) scale(1041.35 1274)">
<stop stop-color="#EE995B"/>
<stop offset="0.384641" stop-color="#FFD9C7"/>
</radialGradient>
<linearGradient id="paint15_linear_655_32663" x1="692.256" y1="860.263" x2="1130.06" y2="692.222" gradientUnits="userSpaceOnUse">
<stop offset="0.425671" stop-color="#C54A4F"/>
<stop offset="1" stop-color="#953134"/>
</linearGradient>
<linearGradient id="paint16_linear_655_32663" x1="813.295" y1="329.724" x2="1231.64" y2="419.825" gradientUnits="userSpaceOnUse">
<stop/>
<stop offset="1" stop-opacity="0"/>
</linearGradient>
<radialGradient id="paint17_radial_655_32663" cx="0" cy="0" r="1" gradientUnits="userSpaceOnUse" gradientTransform="translate(1244.21 324.669) rotate(57.1739) scale(604.698 876.622)">
<stop stop-color="#F9C1A3"/>
<stop offset="0.384641" stop-color="#E6B18A"/>
</radialGradient>
<linearGradient id="paint18_linear_655_32663" x1="521.806" y1="53.9118" x2="810.468" y2="348.221" gradientUnits="userSpaceOnUse">
<stop stop-color="#F8A851" stop-opacity="0"/>
<stop offset="1" stop-color="#7F33E3"/>
</linearGradient>
<linearGradient id="paint19_linear_655_32663" x1="417.806" y1="473.464" x2="946.234" y2="759.574" gradientUnits="userSpaceOnUse">
<stop stop-color="#FBCF8B" stop-opacity="0"/>
<stop offset="1" stop-color="#3C1D66"/>
</linearGradient>
<linearGradient id="paint20_linear_655_32663" x1="1284.88" y1="-4.15369" x2="1110.7" y2="315.82" gradientUnits="userSpaceOnUse">
<stop stop-color="#5B289F"/>
<stop offset="1" stop-color="#7233C7"/>
</linearGradient>
<linearGradient id="paint21_linear_655_32663" x1="1480.27" y1="0.666587" x2="1314.32" y2="305.524" gradientUnits="userSpaceOnUse">
<stop stop-color="#C0DAF2"/>
<stop offset="1" stop-color="#5D5870"/>
</linearGradient>
<linearGradient id="paint22_linear_655_32663" x1="1615.64" y1="449.944" x2="1294.32" y2="303.633" gradientUnits="userSpaceOnUse">
<stop stop-color="#DFF6FD"/>
<stop offset="1" stop-color="#708192"/>
</linearGradient>
<linearGradient id="paint23_linear_655_32663" x1="1067.98" y1="362.469" x2="1591.98" y2="362.469" gradientUnits="userSpaceOnUse">
<stop stop-color="#E5E5E5" stop-opacity="0"/>
<stop offset="0.748667" stop-color="#083552"/>
</linearGradient>
<linearGradient id="paint24_linear_655_32663" x1="1090.25" y1="66.7968" x2="1413.66" y2="-87.3455" gradientUnits="userSpaceOnUse">
<stop stop-color="#E5E5E5" stop-opacity="0"/>
<stop offset="1" stop-color="#4BF2C6"/>
</linearGradient>
</defs>
</svg>
